G04 Layer_Color=16711935*
%FSLAX24Y24*%
%MOIN*%
G70*
G01*
G75*
%ADD10C,0.0050*%
%ADD88C,0.0100*%
G36*
X5181Y31667D02*
X5460Y31592D01*
X5727Y31482D01*
X5977Y31337D01*
X6207Y31161D01*
X6411Y30957D01*
X6587Y30727D01*
X6732Y30477D01*
X6842Y30210D01*
X6917Y29931D01*
X6955Y29644D01*
X6955Y29500D01*
X6955Y29355D01*
X6917Y29069D01*
X6842Y28790D01*
X6732Y28523D01*
X6587Y28273D01*
X6411Y28043D01*
X6207Y27839D01*
X5977Y27663D01*
X5727Y27518D01*
X5460Y27408D01*
X5181Y27333D01*
X4895Y27295D01*
X4606Y27295D01*
X4319Y27333D01*
X4040Y27408D01*
X3773Y27518D01*
X3523Y27663D01*
X3293Y27839D01*
X3089Y28043D01*
X2913Y28273D01*
X2768Y28523D01*
X2658Y28790D01*
X2583Y29069D01*
X2545Y29355D01*
X2545Y29500D01*
X2545Y29644D01*
X2583Y29931D01*
X2658Y30210D01*
X2768Y30477D01*
X2913Y30727D01*
X3089Y30957D01*
X3293Y31161D01*
X3523Y31337D01*
X3773Y31482D01*
X4040Y31592D01*
X4319Y31667D01*
X4606Y31705D01*
X4895Y31705D01*
X5181Y31667D01*
X5181Y31667D02*
G37*
D10*
X7506Y29500D02*
G03*
X7506Y29500I-2756J0D01*
G01*
X1207Y27138D02*
X1207Y31862D01*
X2388Y33043D01*
X7112Y33043D01*
X8293Y31862D01*
X8293Y27138D02*
X8293Y31862D01*
X7112Y25957D02*
X8293Y27138D01*
X2388Y25957D02*
X7112Y25957D01*
X1207Y27138D02*
X2388Y25957D01*
D88*
X1406Y23830D02*
X1406Y25170D01*
X11646Y25170D01*
X11646Y23630D02*
X11646Y25170D01*
X10546Y23630D02*
X11646Y23630D01*
X10546Y23630D02*
X10546Y23830D01*
X1406Y23830D02*
X10546Y23830D01*
X23406Y20830D02*
X32546Y20830D01*
X32546Y20630D02*
X32546Y20830D01*
X32546Y20630D02*
X33646Y20630D01*
X33646Y22170D01*
X23406Y22170D02*
X33646Y22170D01*
X23406Y20830D02*
X23406Y22170D01*
X23406Y23830D02*
X23406Y25170D01*
X33646Y25170D01*
X33646Y23630D01*
X32546Y23630D02*
X33646Y23630D01*
X32546Y23630D02*
X32546Y23830D01*
X23406Y23830D02*
X32546Y23830D01*
X33646Y9330D02*
X33646Y10670D01*
X23406Y9330D02*
X33646Y9330D01*
X23406Y10870D02*
X23406Y9330D01*
X23406Y10870D02*
X24506Y10870D01*
X24506Y10670D02*
X24506Y10870D01*
X24506Y10670D02*
X33646Y10670D01*
X24506Y7670D02*
X33646Y7670D01*
X24506Y7670D02*
X24506Y7870D01*
X23406Y7870D02*
X24506Y7870D01*
X23406Y7870D02*
X23406Y6330D01*
X33646Y6330D01*
X33646Y7670D01*
X9146Y6330D02*
X9146Y7670D01*
X1406Y6330D02*
X9146Y6330D01*
X1406Y6330D02*
X1406Y7870D01*
X2506Y7870D01*
X2506Y7670D02*
X2506Y7870D01*
X2506Y7670D02*
X9146Y7670D01*
X1406Y20830D02*
X10546Y20830D01*
X10546Y20630D02*
X10546Y20830D01*
X10546Y20630D02*
X11646Y20630D01*
X11646Y22170D02*
X11646Y20630D01*
X1406Y22170D02*
X11646Y22170D01*
X1406Y20830D02*
X1406Y22170D01*
M02*
