G04 Layer_Color=128*
%FSLAX24Y24*%
%MOIN*%
G70*
G01*
G75*
G04:AMPARAMS|DCode=11|XSize=25.6mil|YSize=23.6mil|CornerRadius=5.9mil|HoleSize=0mil|Usage=FLASHONLY|Rotation=180.000|XOffset=0mil|YOffset=0mil|HoleType=Round|Shape=RoundedRectangle|*
%AMROUNDEDRECTD11*
21,1,0.0256,0.0118,0,0,180.0*
21,1,0.0138,0.0236,0,0,180.0*
1,1,0.0118,-0.0069,0.0059*
1,1,0.0118,0.0069,0.0059*
1,1,0.0118,0.0069,-0.0059*
1,1,0.0118,-0.0069,-0.0059*
%
%ADD11ROUNDEDRECTD11*%
G04:AMPARAMS|DCode=12|XSize=25.6mil|YSize=23.6mil|CornerRadius=5.9mil|HoleSize=0mil|Usage=FLASHONLY|Rotation=90.000|XOffset=0mil|YOffset=0mil|HoleType=Round|Shape=RoundedRectangle|*
%AMROUNDEDRECTD12*
21,1,0.0256,0.0118,0,0,90.0*
21,1,0.0138,0.0236,0,0,90.0*
1,1,0.0118,0.0059,0.0069*
1,1,0.0118,0.0059,-0.0069*
1,1,0.0118,-0.0059,-0.0069*
1,1,0.0118,-0.0059,0.0069*
%
%ADD12ROUNDEDRECTD12*%
%ADD13R,0.0197X0.0236*%
%ADD14R,0.0236X0.0197*%
%ADD17R,0.0610X0.0217*%
%ADD18C,0.0394*%
%ADD24R,0.0394X0.0433*%
%ADD28R,0.0531X0.0728*%
%ADD29R,0.0512X0.0591*%
G04:AMPARAMS|DCode=30|XSize=70.9mil|YSize=63mil|CornerRadius=15.7mil|HoleSize=0mil|Usage=FLASHONLY|Rotation=180.000|XOffset=0mil|YOffset=0mil|HoleType=Round|Shape=RoundedRectangle|*
%AMROUNDEDRECTD30*
21,1,0.0709,0.0315,0,0,180.0*
21,1,0.0394,0.0630,0,0,180.0*
1,1,0.0315,-0.0197,0.0157*
1,1,0.0315,0.0197,0.0157*
1,1,0.0315,0.0197,-0.0157*
1,1,0.0315,-0.0197,-0.0157*
%
%ADD30ROUNDEDRECTD30*%
%ADD31R,0.0335X0.0394*%
%ADD32R,0.0335X0.0394*%
%ADD36R,0.0433X0.0394*%
%ADD46R,0.0728X0.0531*%
%ADD49R,0.0394X0.0335*%
%ADD50R,0.0394X0.0335*%
G04:AMPARAMS|DCode=58|XSize=15.7mil|YSize=17.7mil|CornerRadius=3.9mil|HoleSize=0mil|Usage=FLASHONLY|Rotation=180.000|XOffset=0mil|YOffset=0mil|HoleType=Round|Shape=RoundedRectangle|*
%AMROUNDEDRECTD58*
21,1,0.0157,0.0098,0,0,180.0*
21,1,0.0079,0.0177,0,0,180.0*
1,1,0.0079,-0.0039,0.0049*
1,1,0.0079,0.0039,0.0049*
1,1,0.0079,0.0039,-0.0049*
1,1,0.0079,-0.0039,-0.0049*
%
%ADD58ROUNDEDRECTD58*%
%ADD59R,0.0079X0.0266*%
%ADD60R,0.0157X0.0266*%
%ADD69R,0.0591X0.0512*%
%ADD131R,0.1378X0.0787*%
%ADD132R,0.0787X0.1378*%
%ADD135R,0.0276X0.0413*%
%ADD136R,0.0276X0.0205*%
%ADD137O,0.0236X0.0094*%
%ADD138O,0.0094X0.0236*%
%ADD140R,0.2362X0.0787*%
%ADD141R,0.0551X0.0551*%
%ADD142R,0.0551X0.1299*%
%ADD143R,0.0754X0.1098*%
G04:AMPARAMS|DCode=144|XSize=70.9mil|YSize=63mil|CornerRadius=15.7mil|HoleSize=0mil|Usage=FLASHONLY|Rotation=90.000|XOffset=0mil|YOffset=0mil|HoleType=Round|Shape=RoundedRectangle|*
%AMROUNDEDRECTD144*
21,1,0.0709,0.0315,0,0,90.0*
21,1,0.0394,0.0630,0,0,90.0*
1,1,0.0315,0.0157,0.0197*
1,1,0.0315,0.0157,-0.0197*
1,1,0.0315,-0.0157,-0.0197*
1,1,0.0315,-0.0157,0.0197*
%
%ADD144ROUNDEDRECTD144*%
%ADD145R,0.0248X0.0197*%
%ADD146R,0.0748X0.0965*%
%ADD147R,0.0217X0.0610*%
%ADD148R,0.0197X0.0248*%
%ADD149R,0.0965X0.0748*%
%ADD151R,0.1417X0.0602*%
%ADD152R,0.1417X0.0433*%
%ADD281O,0.0707X0.0156*%
%ADD282R,0.0759X0.1101*%
%ADD283R,0.0010X0.0010*%
%ADD284O,0.0156X0.0014*%
%ADD285O,0.0014X0.0156*%
%ADD286R,0.0010X0.0010*%
G36*
X88171Y17330D02*
X87488Y17330D01*
X87488Y18013D01*
X88171Y18013D01*
X88171Y17330D01*
X88171Y17330D02*
G37*
G36*
X61189Y28383D02*
X60604Y28383D01*
X60604Y28968D01*
X61189Y28968D01*
X61189Y28383D01*
X61189Y28383D02*
G37*
G36*
X61853Y28383D02*
X61268Y28383D01*
X61268Y28968D01*
X61853Y28968D01*
X61853Y28383D01*
X61853Y28383D02*
G37*
G36*
X87409Y16569D02*
X86726Y16569D01*
X86726Y17252D01*
X87409Y17252D01*
X87409Y16569D01*
X87409Y16569D02*
G37*
G36*
X88171Y16569D02*
X87488Y16569D01*
X87488Y17252D01*
X88171Y17252D01*
X88171Y16569D01*
X88171Y16569D02*
G37*
G36*
X87409Y17330D02*
X86726Y17330D01*
X86726Y18013D01*
X87409Y18013D01*
X87409Y17330D01*
X87409Y17330D02*
G37*
G36*
X27909Y44195D02*
X27539Y44195D01*
X27539Y44711D01*
X27909Y44711D01*
X27909Y44195D01*
X27909Y44195D02*
G37*
G36*
X27461Y44789D02*
X27091Y44789D01*
X27091Y45305D01*
X27461Y45305D01*
X27461Y44789D01*
X27461Y44789D02*
G37*
G36*
X27909Y44789D02*
X27539Y44789D01*
X27539Y45305D01*
X27909Y45305D01*
X27909Y44789D01*
X27909Y44789D02*
G37*
G36*
X61189Y29047D02*
X60604Y29047D01*
X60604Y29632D01*
X61189Y29632D01*
X61189Y29047D01*
X61189Y29047D02*
G37*
G36*
X61853Y29047D02*
X61268Y29047D01*
X61268Y29632D01*
X61853Y29632D01*
X61853Y29047D01*
X61853Y29047D02*
G37*
G36*
X27461Y44195D02*
X27091Y44195D01*
X27091Y44711D01*
X27461Y44711D01*
X27461Y44195D01*
X27461Y44195D02*
G37*
D11*
X86071Y19653D02*
D03*
X86071Y20047D02*
D03*
X85677Y19653D02*
D03*
X85677Y20047D02*
D03*
X87646Y14732D02*
D03*
X87646Y14338D02*
D03*
X88039Y14732D02*
D03*
X88039Y14338D02*
D03*
X87646Y19653D02*
D03*
X87646Y20047D02*
D03*
X88039Y19653D02*
D03*
X88039Y20047D02*
D03*
X5000Y49250D02*
D03*
X5000Y49644D02*
D03*
X50250Y3250D02*
D03*
X50250Y2856D02*
D03*
X49250Y3247D02*
D03*
X49250Y2853D02*
D03*
X49750Y3250D02*
D03*
X49750Y2856D02*
D03*
X50750Y3250D02*
D03*
X50750Y2856D02*
D03*
X65120Y27728D02*
D03*
X65120Y28122D02*
D03*
X47874Y5335D02*
D03*
X47874Y5728D02*
D03*
X52520Y7067D02*
D03*
X52520Y7461D02*
D03*
X52087Y7067D02*
D03*
X52087Y7461D02*
D03*
X88433Y19653D02*
D03*
X88433Y20047D02*
D03*
X86858Y19653D02*
D03*
X86858Y20047D02*
D03*
X86465Y20047D02*
D03*
X86465Y19653D02*
D03*
X88433Y14338D02*
D03*
X88433Y14732D02*
D03*
X88827Y14338D02*
D03*
X88827Y14732D02*
D03*
X84102Y14929D02*
D03*
X84102Y15322D02*
D03*
X84890Y18472D02*
D03*
X84890Y18866D02*
D03*
X85283Y18866D02*
D03*
X85283Y18472D02*
D03*
X85480Y17606D02*
D03*
X85480Y18000D02*
D03*
X4500Y49250D02*
D03*
X4500Y49644D02*
D03*
X25354Y44894D02*
D03*
X25354Y44500D02*
D03*
X36500Y26603D02*
D03*
X36500Y26997D02*
D03*
X59949Y27826D02*
D03*
X59949Y27433D02*
D03*
X59556Y27433D02*
D03*
X59556Y27826D02*
D03*
X65300Y26750D02*
D03*
X65300Y26356D02*
D03*
X64750Y26750D02*
D03*
X64750Y26356D02*
D03*
X64250Y26750D02*
D03*
X64250Y26356D02*
D03*
X63750Y26750D02*
D03*
X63750Y26356D02*
D03*
X61130Y31370D02*
D03*
X61130Y31763D02*
D03*
X65620Y28614D02*
D03*
X65620Y29007D02*
D03*
X65620Y29401D02*
D03*
X65620Y29795D02*
D03*
X65620Y30189D02*
D03*
X65620Y30582D02*
D03*
X65620Y30976D02*
D03*
X65620Y31370D02*
D03*
X61524Y31763D02*
D03*
X61524Y31370D02*
D03*
X61918Y31763D02*
D03*
X61918Y31370D02*
D03*
X61032Y34421D02*
D03*
X61032Y34027D02*
D03*
X60599Y33633D02*
D03*
X60599Y34027D02*
D03*
X60599Y33240D02*
D03*
X60599Y32846D02*
D03*
X29276Y5606D02*
D03*
X29276Y6000D02*
D03*
X28776Y5606D02*
D03*
X28776Y6000D02*
D03*
X30776Y5606D02*
D03*
X30776Y6000D02*
D03*
X30276Y5606D02*
D03*
X30276Y6000D02*
D03*
X31776Y5606D02*
D03*
X31776Y6000D02*
D03*
X32276Y5606D02*
D03*
X32276Y6000D02*
D03*
D12*
X25354Y45262D02*
D03*
X25748Y45262D02*
D03*
X85480Y15519D02*
D03*
X85087Y15519D02*
D03*
X67080Y20264D02*
D03*
X66686Y20264D02*
D03*
X54553Y4050D02*
D03*
X54947Y4050D02*
D03*
X53386Y6083D02*
D03*
X52992Y6083D02*
D03*
X53386Y6476D02*
D03*
X52992Y6476D02*
D03*
X50433Y6476D02*
D03*
X50827Y6476D02*
D03*
X54764Y9685D02*
D03*
X55157Y9685D02*
D03*
X89614Y15126D02*
D03*
X89220Y15126D02*
D03*
X89220Y14732D02*
D03*
X89614Y14732D02*
D03*
X89614Y15913D02*
D03*
X89220Y15913D02*
D03*
X89614Y19456D02*
D03*
X89220Y19456D02*
D03*
X89614Y19063D02*
D03*
X89220Y19063D02*
D03*
X89614Y18669D02*
D03*
X89220Y18669D02*
D03*
X84693Y16011D02*
D03*
X85087Y16011D02*
D03*
X85087Y16405D02*
D03*
X84693Y16405D02*
D03*
X85343Y16740D02*
D03*
X85736Y16740D02*
D03*
X85677Y18964D02*
D03*
X86071Y18964D02*
D03*
X29488Y44159D02*
D03*
X29882Y44159D02*
D03*
X25846Y43441D02*
D03*
X26240Y43441D02*
D03*
X25453Y44000D02*
D03*
X25846Y44000D02*
D03*
X37144Y27250D02*
D03*
X36750Y27250D02*
D03*
X45356Y29000D02*
D03*
X45750Y29000D02*
D03*
X45356Y28500D02*
D03*
X45750Y28500D02*
D03*
X46900Y25250D02*
D03*
X46506Y25250D02*
D03*
X46506Y25750D02*
D03*
X46900Y25750D02*
D03*
X46506Y26250D02*
D03*
X46900Y26250D02*
D03*
X46506Y26750D02*
D03*
X46900Y26750D02*
D03*
X46506Y27250D02*
D03*
X46900Y27250D02*
D03*
X46506Y27750D02*
D03*
X46900Y27750D02*
D03*
X65613Y27728D02*
D03*
X66006Y27728D02*
D03*
X65613Y28122D02*
D03*
X66006Y28122D02*
D03*
X66408Y29007D02*
D03*
X66014Y29007D02*
D03*
X66408Y29795D02*
D03*
X66014Y29795D02*
D03*
X66408Y30582D02*
D03*
X66014Y30582D02*
D03*
X64853Y32500D02*
D03*
X65247Y32500D02*
D03*
X64447Y32500D02*
D03*
X64053Y32500D02*
D03*
X63197Y32748D02*
D03*
X62804Y32748D02*
D03*
X60048Y34571D02*
D03*
X59654Y34571D02*
D03*
X27050Y13700D02*
D03*
X27444Y13700D02*
D03*
X27050Y12300D02*
D03*
X27444Y12300D02*
D03*
X29744Y12050D02*
D03*
X30137Y12050D02*
D03*
X29744Y13450D02*
D03*
X30137Y13450D02*
D03*
X32150Y13200D02*
D03*
X32544Y13200D02*
D03*
X32150Y11800D02*
D03*
X32544Y11800D02*
D03*
X34800Y13185D02*
D03*
X35194Y13185D02*
D03*
X34800Y11785D02*
D03*
X35194Y11785D02*
D03*
D13*
X28012Y43372D02*
D03*
X27618Y43372D02*
D03*
X37144Y27750D02*
D03*
X36750Y27750D02*
D03*
X36772Y48650D02*
D03*
X37166Y48650D02*
D03*
X36666Y47650D02*
D03*
X36272Y47650D02*
D03*
X60048Y34177D02*
D03*
X59654Y34177D02*
D03*
D14*
X25827Y44500D02*
D03*
X25827Y44894D02*
D03*
X85283Y19653D02*
D03*
X85283Y20047D02*
D03*
X83709Y14535D02*
D03*
X83709Y14141D02*
D03*
X84102Y14535D02*
D03*
X84102Y14141D02*
D03*
X88433Y13944D02*
D03*
X88433Y13551D02*
D03*
X88433Y20441D02*
D03*
X88433Y20834D02*
D03*
X56169Y48953D02*
D03*
X56169Y49347D02*
D03*
X59162Y27433D02*
D03*
X59162Y27826D02*
D03*
D17*
X57364Y31900D02*
D03*
X56636Y32274D02*
D03*
X56636Y31526D02*
D03*
D18*
X89500Y2700D02*
D03*
X89500Y53000D02*
D03*
X7000Y2700D02*
D03*
D24*
X51760Y26586D02*
D03*
X51760Y25917D02*
D03*
X53158Y26586D02*
D03*
X53158Y25917D02*
D03*
X58650Y31315D02*
D03*
X58650Y31985D02*
D03*
X63788Y28259D02*
D03*
X63788Y27590D02*
D03*
D28*
X57629Y34106D02*
D03*
X56507Y34106D02*
D03*
X57629Y33122D02*
D03*
X56507Y33122D02*
D03*
D29*
X90376Y22050D02*
D03*
X91124Y22050D02*
D03*
X90352Y12650D02*
D03*
X91100Y12650D02*
D03*
X83709Y17015D02*
D03*
X82961Y17015D02*
D03*
X83709Y17724D02*
D03*
X82961Y17724D02*
D03*
X55089Y31776D02*
D03*
X54341Y31776D02*
D03*
D30*
X68250Y25750D02*
D03*
X68250Y24648D02*
D03*
D31*
X54750Y2500D02*
D03*
X54376Y3445D02*
D03*
X50630Y4705D02*
D03*
X50256Y5650D02*
D03*
D32*
X55124Y3445D02*
D03*
X51004Y5650D02*
D03*
D36*
X52804Y27236D02*
D03*
X52134Y27236D02*
D03*
X62804Y35897D02*
D03*
X63473Y35897D02*
D03*
X61445Y35897D02*
D03*
X62115Y35897D02*
D03*
D46*
X50697Y28968D02*
D03*
X50697Y30090D02*
D03*
X49398Y28968D02*
D03*
X49398Y30090D02*
D03*
D49*
X49409Y5709D02*
D03*
X48465Y5335D02*
D03*
X61130Y32748D02*
D03*
X62075Y33122D02*
D03*
D50*
X48465Y6083D02*
D03*
X62075Y32374D02*
D03*
D58*
X46800Y7888D02*
D03*
X46800Y7612D02*
D03*
X47100Y7888D02*
D03*
X47100Y7612D02*
D03*
D59*
X46847Y6078D02*
D03*
X47044Y6078D02*
D03*
X46256Y6078D02*
D03*
X46453Y6078D02*
D03*
X47044Y6422D02*
D03*
X46847Y6422D02*
D03*
X46453Y6422D02*
D03*
X46256Y6422D02*
D03*
D60*
X46650Y6078D02*
D03*
X46650Y6422D02*
D03*
D69*
X90717Y17665D02*
D03*
X90717Y16917D02*
D03*
X90008Y17665D02*
D03*
X90008Y16917D02*
D03*
X80100Y18252D02*
D03*
X80100Y19000D02*
D03*
X79439Y16902D02*
D03*
X79439Y16154D02*
D03*
X84693Y13964D02*
D03*
X84693Y14712D02*
D03*
X85480Y13964D02*
D03*
X85480Y14712D02*
D03*
X86268Y13964D02*
D03*
X86268Y14712D02*
D03*
X87055Y13964D02*
D03*
X87055Y14712D02*
D03*
X28307Y47919D02*
D03*
X28307Y48667D02*
D03*
X29685Y46285D02*
D03*
X29685Y45537D02*
D03*
X59260Y29283D02*
D03*
X59260Y30031D02*
D03*
X64383Y29946D02*
D03*
X64383Y30694D02*
D03*
X62508Y30485D02*
D03*
X62508Y31233D02*
D03*
D131*
X91750Y18600D02*
D03*
X91750Y20923D02*
D03*
X91650Y16111D02*
D03*
X91650Y13789D02*
D03*
D132*
X83761Y19400D02*
D03*
X81439Y19400D02*
D03*
X82961Y15250D02*
D03*
X80639Y15250D02*
D03*
D135*
X51250Y2890D02*
D03*
D136*
X51250Y3250D02*
D03*
D137*
X88787Y18374D02*
D03*
X88787Y18177D02*
D03*
X88787Y17980D02*
D03*
X88787Y17783D02*
D03*
X88787Y17586D02*
D03*
X88787Y17389D02*
D03*
X88787Y17193D02*
D03*
X88787Y16996D02*
D03*
X88787Y16799D02*
D03*
X88787Y16602D02*
D03*
X88787Y16405D02*
D03*
X88787Y16208D02*
D03*
X86110Y16208D02*
D03*
X86110Y16405D02*
D03*
X86110Y16602D02*
D03*
X86110Y16799D02*
D03*
X86110Y16996D02*
D03*
X86110Y17193D02*
D03*
X86110Y17389D02*
D03*
X86110Y17586D02*
D03*
X86110Y17783D02*
D03*
X86110Y17980D02*
D03*
X86110Y18177D02*
D03*
X86110Y18374D02*
D03*
D138*
X88532Y15952D02*
D03*
X88335Y15952D02*
D03*
X88138Y15952D02*
D03*
X87941Y15952D02*
D03*
X87744Y15952D02*
D03*
X87547Y15952D02*
D03*
X87350Y15952D02*
D03*
X87154Y15952D02*
D03*
X86957Y15952D02*
D03*
X86760Y15952D02*
D03*
X86563Y15952D02*
D03*
X86366Y15952D02*
D03*
X86366Y18630D02*
D03*
X86563Y18630D02*
D03*
X86760Y18630D02*
D03*
X86957Y18630D02*
D03*
X87154Y18630D02*
D03*
X87350Y18630D02*
D03*
X87547Y18630D02*
D03*
X87744Y18630D02*
D03*
X87941Y18630D02*
D03*
X88138Y18630D02*
D03*
X88335Y18630D02*
D03*
X88532Y18630D02*
D03*
D140*
X26358Y47447D02*
D03*
X26358Y49140D02*
D03*
D141*
X26358Y46325D02*
D03*
X27500Y46325D02*
D03*
D142*
X51760Y30090D02*
D03*
X53178Y30090D02*
D03*
X53178Y28397D02*
D03*
X51760Y28397D02*
D03*
D143*
X55953Y30110D02*
D03*
X54349Y30110D02*
D03*
D144*
X58394Y27334D02*
D03*
X57292Y27334D02*
D03*
D145*
X58073Y28289D02*
D03*
X58073Y28545D02*
D03*
X58073Y28801D02*
D03*
X58073Y29057D02*
D03*
X56943Y28289D02*
D03*
X56943Y28545D02*
D03*
X56943Y28801D02*
D03*
X56943Y29057D02*
D03*
X58089Y29805D02*
D03*
X58089Y30061D02*
D03*
X58089Y30317D02*
D03*
X58089Y30572D02*
D03*
X56959Y29805D02*
D03*
X56959Y30061D02*
D03*
X56959Y30317D02*
D03*
X56959Y30572D02*
D03*
X59650Y32846D02*
D03*
X59650Y33102D02*
D03*
X59650Y33358D02*
D03*
X59650Y33614D02*
D03*
X58520Y32846D02*
D03*
X58520Y33102D02*
D03*
X58520Y33358D02*
D03*
X58520Y33614D02*
D03*
D146*
X57355Y28673D02*
D03*
X57370Y30189D02*
D03*
X58931Y33230D02*
D03*
D147*
X63600Y31086D02*
D03*
X63974Y31814D02*
D03*
X63226Y31814D02*
D03*
D148*
X62804Y34027D02*
D03*
X63059Y34027D02*
D03*
X63315Y34027D02*
D03*
X63571Y34027D02*
D03*
X62804Y35157D02*
D03*
X63059Y35157D02*
D03*
X63315Y35157D02*
D03*
X63571Y35157D02*
D03*
X61406Y34027D02*
D03*
X61662Y34027D02*
D03*
X61918Y34027D02*
D03*
X62174Y34027D02*
D03*
X61406Y35157D02*
D03*
X61662Y35157D02*
D03*
X61918Y35157D02*
D03*
X62174Y35157D02*
D03*
D149*
X63187Y34746D02*
D03*
X61790Y34746D02*
D03*
D151*
X70358Y35089D02*
D03*
X70358Y37727D02*
D03*
X70358Y39039D02*
D03*
X70358Y41677D02*
D03*
X70358Y30946D02*
D03*
X70358Y33583D02*
D03*
X70358Y26803D02*
D03*
X70358Y29441D02*
D03*
D152*
X68193Y36015D02*
D03*
X68193Y36802D02*
D03*
X68193Y39965D02*
D03*
X68193Y40752D02*
D03*
X68193Y31871D02*
D03*
X68193Y32658D02*
D03*
X68193Y27728D02*
D03*
X68193Y28515D02*
D03*
D281*
X28484Y45500D02*
D03*
X28484Y45000D02*
D03*
X28484Y44500D02*
D03*
X28484Y44000D02*
D03*
X26516Y44000D02*
D03*
X26516Y44500D02*
D03*
X26516Y45000D02*
D03*
X26516Y45500D02*
D03*
D282*
X27500Y44750D02*
D03*
D283*
X87449Y17291D02*
D03*
D284*
X62174Y29696D02*
D03*
X62174Y29500D02*
D03*
X62174Y29303D02*
D03*
X62174Y29106D02*
D03*
X62174Y28909D02*
D03*
X62174Y28712D02*
D03*
X62174Y28515D02*
D03*
X62174Y28319D02*
D03*
X60284Y28319D02*
D03*
X60284Y28515D02*
D03*
X60284Y28712D02*
D03*
X60284Y28909D02*
D03*
X60284Y29106D02*
D03*
X60284Y29303D02*
D03*
X60284Y29500D02*
D03*
X60284Y29696D02*
D03*
D285*
X61918Y28063D02*
D03*
X61721Y28063D02*
D03*
X61524Y28063D02*
D03*
X61327Y28063D02*
D03*
X61130Y28063D02*
D03*
X60933Y28063D02*
D03*
X60737Y28063D02*
D03*
X60540Y28063D02*
D03*
X60540Y29952D02*
D03*
X60737Y29952D02*
D03*
X60933Y29952D02*
D03*
X61130Y29952D02*
D03*
X61327Y29952D02*
D03*
X61524Y29952D02*
D03*
X61721Y29952D02*
D03*
X61918Y29952D02*
D03*
D286*
X61229Y29007D02*
D03*
M02*
