G04 Layer_Color=32896*
%FSLAX24Y24*%
%MOIN*%
G70*
G01*
G75*
%ADD158C,0.0039*%
D158*
X43878Y6738D02*
X43878Y7368D01*
X43622Y6738D02*
X43622Y7368D01*
X43878Y7368D01*
X43622Y6738D02*
X43878Y6738D01*
X49183Y7539D02*
X49183Y8169D01*
X48927Y7539D02*
X48927Y8169D01*
X49183Y8169D01*
X48927Y7539D02*
X49183Y7539D01*
X48150Y6742D02*
X48780Y6742D01*
X48150Y6998D02*
X48780Y6998D01*
X48780Y6742D02*
X48780Y6998D01*
X48150Y6742D02*
X48150Y6998D01*
X49921Y11860D02*
X50551Y11860D01*
X49921Y12116D02*
X50551Y12116D01*
X50551Y11860D02*
X50551Y12116D01*
X49921Y11860D02*
X49921Y12116D01*
X48858Y9301D02*
X49488Y9301D01*
X48858Y9557D02*
X49488Y9557D01*
X49488Y9301D02*
X49488Y9557D01*
X48858Y9301D02*
X48858Y9557D01*
X2185Y5872D02*
X2815Y5872D01*
X2185Y6128D02*
X2815Y6128D01*
X2815Y5872D02*
X2815Y6128D01*
X2185Y5872D02*
X2185Y6128D01*
X25236Y45134D02*
X25866Y45134D01*
X25236Y45390D02*
X25866Y45390D01*
X25236Y45134D02*
X25236Y45390D01*
X25866Y45134D02*
X25866Y45390D01*
X86199Y19535D02*
X86199Y20165D01*
X85943Y19535D02*
X85943Y20165D01*
X85943Y19535D02*
X86199Y19535D01*
X85943Y20165D02*
X86199Y20165D01*
X85805Y19535D02*
X85805Y20165D01*
X85549Y19535D02*
X85549Y20165D01*
X85549Y19535D02*
X85805Y19535D01*
X85549Y20165D02*
X85805Y20165D01*
X84969Y15647D02*
X85598Y15647D01*
X84969Y15391D02*
X85598Y15391D01*
X85598Y15647D01*
X84969Y15391D02*
X84969Y15647D01*
X87518Y14220D02*
X87518Y14850D01*
X87774Y14220D02*
X87774Y14850D01*
X87518Y14850D02*
X87774Y14850D01*
X87518Y14220D02*
X87774Y14220D01*
X87911Y14220D02*
X87911Y14850D01*
X88167Y14220D02*
X88167Y14850D01*
X87911Y14850D02*
X88167Y14850D01*
X87911Y14220D02*
X88167Y14220D01*
X87774Y19535D02*
X87774Y20165D01*
X87518Y19535D02*
X87518Y20165D01*
X87518Y19535D02*
X87774Y19535D01*
X87518Y20165D02*
X87774Y20165D01*
X88167Y19535D02*
X88167Y20165D01*
X87911Y19535D02*
X87911Y20165D01*
X87911Y19535D02*
X88167Y19535D01*
X87911Y20165D02*
X88167Y20165D01*
X38085Y12372D02*
X38715Y12372D01*
X38085Y12628D02*
X38715Y12628D01*
X38715Y12372D02*
X38715Y12628D01*
X38085Y12372D02*
X38085Y12628D01*
X37388Y9372D02*
X38018Y9372D01*
X37388Y9628D02*
X38018Y9628D01*
X38018Y9372D02*
X38018Y9628D01*
X37388Y9372D02*
X37388Y9628D01*
X70872Y6882D02*
X70872Y7512D01*
X71128Y6882D02*
X71128Y7512D01*
X70872Y6882D02*
X71128Y6882D01*
X70872Y7512D02*
X71128Y7512D01*
X71125Y5541D02*
X71125Y6170D01*
X70869Y5541D02*
X70869Y6170D01*
X71125Y6170D01*
X70869Y5541D02*
X71125Y5541D01*
X70388Y11949D02*
X70388Y12579D01*
X70132Y11949D02*
X70132Y12579D01*
X70388Y12579D01*
X70132Y11949D02*
X70388Y11949D01*
X69388Y11949D02*
X69388Y12579D01*
X69132Y11949D02*
X69132Y12579D01*
X69388Y12579D01*
X69132Y11949D02*
X69388Y11949D01*
X83277Y11935D02*
X83277Y12565D01*
X83021Y11935D02*
X83021Y12565D01*
X83277Y12565D01*
X83021Y11935D02*
X83277Y11935D01*
X6585Y12224D02*
X7215Y12224D01*
X6585Y12480D02*
X7215Y12480D01*
X7215Y12224D02*
X7215Y12480D01*
X6585Y12224D02*
X6585Y12480D01*
X86638Y41572D02*
X87268Y41572D01*
X86638Y41828D02*
X87268Y41828D01*
X87268Y41572D02*
X87268Y41828D01*
X86638Y41572D02*
X86638Y41828D01*
X5128Y49132D02*
X5128Y49762D01*
X4872Y49132D02*
X4872Y49762D01*
X4872Y49132D02*
X5128Y49132D01*
X4872Y49762D02*
X5128Y49762D01*
X50122Y2738D02*
X50122Y3368D01*
X50378Y2738D02*
X50378Y3368D01*
X50122Y3368D02*
X50378Y3368D01*
X50122Y2738D02*
X50378Y2738D01*
X49122Y2735D02*
X49122Y3365D01*
X49378Y2735D02*
X49378Y3365D01*
X49122Y3365D02*
X49378Y3365D01*
X49122Y2735D02*
X49378Y2735D01*
X49622Y2738D02*
X49622Y3368D01*
X49878Y2738D02*
X49878Y3368D01*
X49622Y3368D02*
X49878Y3368D01*
X49622Y2738D02*
X49878Y2738D01*
X50622Y2738D02*
X50622Y3368D01*
X50878Y2738D02*
X50878Y3368D01*
X50622Y3368D02*
X50878Y3368D01*
X50622Y2738D02*
X50878Y2738D01*
X84277Y11935D02*
X84277Y12565D01*
X84021Y11935D02*
X84021Y12565D01*
X84277Y12565D01*
X84021Y11935D02*
X84277Y11935D01*
X48150Y5955D02*
X48780Y5955D01*
X48150Y6211D02*
X48780Y6211D01*
X48780Y5955D02*
X48780Y6211D01*
X48150Y5955D02*
X48150Y6211D01*
X65248Y27610D02*
X65248Y28240D01*
X64993Y27610D02*
X64993Y28240D01*
X64993Y27610D02*
X65248Y27610D01*
X64993Y28240D02*
X65248Y28240D01*
X79145Y49528D02*
X79775Y49528D01*
X79145Y49272D02*
X79775Y49272D01*
X79145Y49272D02*
X79145Y49528D01*
X79775Y49272D02*
X79775Y49528D01*
X79145Y50528D02*
X79775Y50528D01*
X79145Y50272D02*
X79775Y50272D01*
X79145Y50272D02*
X79145Y50528D01*
X79775Y50272D02*
X79775Y50528D01*
X12682Y49528D02*
X13312Y49528D01*
X12682Y49272D02*
X13312Y49272D01*
X12682Y49272D02*
X12682Y49528D01*
X13312Y49272D02*
X13312Y49528D01*
X12682Y50528D02*
X13312Y50528D01*
X12682Y50272D02*
X13312Y50272D01*
X12682Y50272D02*
X12682Y50528D01*
X13312Y50272D02*
X13312Y50528D01*
X2594Y5372D02*
X3224Y5372D01*
X2594Y5628D02*
X3224Y5628D01*
X3224Y5372D02*
X3224Y5628D01*
X2594Y5372D02*
X2594Y5628D01*
X88145Y50528D02*
X88775Y50528D01*
X88145Y50272D02*
X88775Y50272D01*
X88145Y50272D02*
X88145Y50528D01*
X88775Y50272D02*
X88775Y50528D01*
X88145Y49528D02*
X88775Y49528D01*
X88145Y49272D02*
X88775Y49272D01*
X88145Y49272D02*
X88145Y49528D01*
X88775Y49272D02*
X88775Y49528D01*
X21682Y50528D02*
X22312Y50528D01*
X21682Y50272D02*
X22312Y50272D01*
X21682Y50272D02*
X21682Y50528D01*
X22312Y50272D02*
X22312Y50528D01*
X21682Y49528D02*
X22312Y49528D01*
X21682Y49272D02*
X22312Y49272D01*
X21682Y49272D02*
X21682Y49528D01*
X22312Y49272D02*
X22312Y49528D01*
X77762Y1924D02*
X77762Y2180D01*
X77132Y1924D02*
X77132Y2180D01*
X77132Y1924D02*
X77762Y1924D01*
X77132Y2180D02*
X77762Y2180D01*
X6288Y10965D02*
X6288Y11220D01*
X6918Y10965D02*
X6918Y11220D01*
X6288Y11220D02*
X6918Y11220D01*
X6288Y10965D02*
X6918Y10965D01*
X23764Y25222D02*
X23764Y25478D01*
X24394Y25222D02*
X24394Y25478D01*
X23764Y25478D02*
X24394Y25478D01*
X23764Y25222D02*
X24394Y25222D01*
X21622Y21488D02*
X21878Y21488D01*
X21622Y22118D02*
X21878Y22118D01*
X21622Y21488D02*
X21622Y22118D01*
X21878Y22118D02*
X21878Y21488D01*
X46185Y27000D02*
X46815Y27000D01*
X46185Y28102D02*
X46815Y28102D01*
X46185Y27000D02*
X46185Y28102D01*
X46815Y27000D02*
X46815Y28102D01*
X33382Y18878D02*
X34012Y18878D01*
X33382Y18622D02*
X34012Y18622D01*
X33382Y18622D02*
X33382Y18878D01*
X34012Y18622D02*
X34012Y18878D01*
X3132Y16628D02*
X3762Y16628D01*
X3132Y16372D02*
X3762Y16372D01*
X3132Y16372D02*
X3132Y16628D01*
X3762Y16372D02*
X3762Y16628D01*
X2238Y17122D02*
X2868Y17122D01*
X2238Y17378D02*
X2868Y17378D01*
X2868Y17122D02*
X2868Y17378D01*
X2238Y17122D02*
X2238Y17378D01*
X74118Y35122D02*
X74118Y35378D01*
X73488Y35122D02*
X73488Y35378D01*
X73488Y35122D02*
X74118Y35122D01*
X73488Y35378D02*
X74118Y35378D01*
X87268Y41122D02*
X87268Y41378D01*
X86638Y41122D02*
X86638Y41378D01*
X86638Y41122D02*
X87268Y41122D01*
X86638Y41378D02*
X87268Y41378D01*
X88502Y17370D02*
X88758Y17370D01*
X88502Y18000D02*
X88758Y18000D01*
X88502Y17370D02*
X88502Y18000D01*
X88758Y17370D02*
X88758Y18000D01*
X85726Y17173D02*
X85982Y17173D01*
X85726Y17803D02*
X85982Y17803D01*
X85726Y17173D02*
X85726Y17803D01*
X85982Y17173D02*
X85982Y17803D01*
X86140Y17173D02*
X86396Y17173D01*
X86140Y17803D02*
X86396Y17803D01*
X86140Y17173D02*
X86140Y17803D01*
X86396Y17173D02*
X86396Y17803D01*
X86780Y15608D02*
X86780Y15864D01*
X86150Y15608D02*
X86150Y15864D01*
X86150Y15608D02*
X86780Y15608D01*
X86150Y15864D02*
X86780Y15864D01*
X87567Y15194D02*
X87567Y15450D01*
X86937Y15194D02*
X86937Y15450D01*
X86937Y15194D02*
X87567Y15194D01*
X86937Y15450D02*
X87567Y15450D01*
X67382Y52872D02*
X67382Y53128D01*
X68012Y52872D02*
X68012Y53128D01*
X67382Y53128D02*
X68012Y53128D01*
X67382Y52872D02*
X68012Y52872D01*
X69372Y51868D02*
X69628Y51868D01*
X69372Y51238D02*
X69628Y51238D01*
X69628Y51868D01*
X69372Y51868D02*
X69372Y51238D01*
X90722Y49012D02*
X90722Y48382D01*
X90978Y48382D02*
X90978Y49012D01*
X90722Y48382D02*
X90978Y48382D01*
X90722Y49012D02*
X90978Y49012D01*
X82473Y46868D02*
X82473Y46238D01*
X82729Y46238D02*
X82729Y46868D01*
X82473Y46238D02*
X82729Y46238D01*
X82473Y46868D02*
X82729Y46868D01*
X82229Y46238D02*
X82229Y46868D01*
X81973Y46238D02*
X81973Y46868D01*
X82229Y46868D01*
X81973Y46238D02*
X82229Y46238D01*
X81473Y46868D02*
X81473Y46238D01*
X81729Y46238D02*
X81729Y46868D01*
X81473Y46238D02*
X81729Y46238D01*
X81473Y46868D02*
X81729Y46868D01*
X81229Y46238D02*
X81229Y46868D01*
X80973Y46238D02*
X80973Y46868D01*
X81229Y46868D01*
X80973Y46238D02*
X81229Y46238D01*
X80473Y46868D02*
X80473Y46238D01*
X80729Y46238D02*
X80729Y46868D01*
X80473Y46238D02*
X80729Y46238D01*
X80473Y46868D02*
X80729Y46868D01*
X80229Y46238D02*
X80229Y46868D01*
X79973Y46238D02*
X79973Y46868D01*
X80229Y46868D01*
X79973Y46238D02*
X80229Y46238D01*
X79473Y46868D02*
X79473Y46238D01*
X79729Y46238D02*
X79729Y46868D01*
X79473Y46238D02*
X79729Y46238D01*
X79473Y46868D02*
X79729Y46868D01*
X79229Y46238D02*
X79229Y46868D01*
X78973Y46238D02*
X78973Y46868D01*
X79229Y46868D01*
X78973Y46238D02*
X79229Y46238D01*
X76654Y47868D02*
X76654Y47238D01*
X76910Y47238D02*
X76910Y47868D01*
X76654Y47238D02*
X76910Y47238D01*
X76654Y47868D02*
X76910Y47868D01*
X76410Y47238D02*
X76410Y47868D01*
X76154Y47238D02*
X76154Y47868D01*
X76410Y47868D01*
X76154Y47238D02*
X76410Y47238D01*
X75410Y47238D02*
X75410Y47868D01*
X75154Y47238D02*
X75154Y47868D01*
X75410Y47868D01*
X75154Y47238D02*
X75410Y47238D01*
X75654Y47868D02*
X75654Y47238D01*
X75910Y47238D02*
X75910Y47868D01*
X75654Y47238D02*
X75910Y47238D01*
X75654Y47868D02*
X75910Y47868D01*
X74654Y47868D02*
X74654Y47238D01*
X74910Y47238D02*
X74910Y47868D01*
X74654Y47238D02*
X74910Y47238D01*
X74654Y47868D02*
X74910Y47868D01*
X74410Y47238D02*
X74410Y47868D01*
X74154Y47238D02*
X74154Y47868D01*
X74410Y47868D01*
X74154Y47238D02*
X74410Y47238D01*
X73410Y47238D02*
X73410Y47868D01*
X73154Y47238D02*
X73154Y47868D01*
X73410Y47868D01*
X73154Y47238D02*
X73410Y47238D01*
X73654Y47868D02*
X73654Y47238D01*
X73910Y47238D02*
X73910Y47868D01*
X73654Y47238D02*
X73910Y47238D01*
X73654Y47868D02*
X73910Y47868D01*
X60762Y50372D02*
X60762Y50628D01*
X60132Y50372D02*
X60132Y50628D01*
X60132Y50372D02*
X60762Y50372D01*
X60132Y50628D02*
X60762Y50628D01*
X60762Y50872D02*
X60762Y51128D01*
X60132Y50872D02*
X60132Y51128D01*
X60132Y50872D02*
X60762Y50872D01*
X60132Y51128D02*
X60762Y51128D01*
X13872Y46868D02*
X13872Y46238D01*
X14128Y46238D02*
X14128Y46868D01*
X13872Y46238D02*
X14128Y46238D01*
X13872Y46868D02*
X14128Y46868D01*
X13628Y46238D02*
X13628Y46868D01*
X13372Y46238D02*
X13372Y46868D01*
X13628Y46868D01*
X13372Y46238D02*
X13628Y46238D01*
X12872Y46868D02*
X12872Y46238D01*
X13128Y46238D02*
X13128Y46868D01*
X12872Y46238D02*
X13128Y46238D01*
X12872Y46868D02*
X13128Y46868D01*
X12628Y46238D02*
X12628Y46868D01*
X12372Y46238D02*
X12372Y46868D01*
X12628Y46868D01*
X12372Y46238D02*
X12628Y46238D01*
X11872Y46868D02*
X11872Y46238D01*
X12128Y46238D02*
X12128Y46868D01*
X11872Y46238D02*
X12128Y46238D01*
X11872Y46868D02*
X12128Y46868D01*
X11628Y46238D02*
X11628Y46868D01*
X11372Y46238D02*
X11372Y46868D01*
X11628Y46868D01*
X11372Y46238D02*
X11628Y46238D01*
X10872Y46868D02*
X10872Y46238D01*
X11128Y46238D02*
X11128Y46868D01*
X10872Y46238D02*
X11128Y46238D01*
X10872Y46868D02*
X11128Y46868D01*
X10628Y46238D02*
X10628Y46868D01*
X10372Y46238D02*
X10372Y46868D01*
X10628Y46868D01*
X10372Y46238D02*
X10628Y46238D01*
X15947Y47238D02*
X15947Y47868D01*
X15691Y47238D02*
X15691Y47868D01*
X15947Y47868D01*
X15691Y47238D02*
X15947Y47238D01*
X16191Y47868D02*
X16191Y47238D01*
X16447Y47238D02*
X16447Y47868D01*
X16191Y47238D02*
X16447Y47238D01*
X16191Y47868D02*
X16447Y47868D01*
X16947Y47238D02*
X16947Y47868D01*
X16691Y47238D02*
X16691Y47868D01*
X16947Y47868D01*
X16691Y47238D02*
X16947Y47238D01*
X17191Y47868D02*
X17191Y47238D01*
X17447Y47238D02*
X17447Y47868D01*
X17191Y47238D02*
X17447Y47238D01*
X17191Y47868D02*
X17447Y47868D01*
X17947Y47238D02*
X17947Y47868D01*
X17691Y47238D02*
X17691Y47868D01*
X17947Y47868D01*
X17691Y47238D02*
X17947Y47238D01*
X18191Y47868D02*
X18191Y47238D01*
X18447Y47238D02*
X18447Y47868D01*
X18191Y47238D02*
X18447Y47238D01*
X18191Y47868D02*
X18447Y47868D01*
X18947Y47238D02*
X18947Y47868D01*
X18691Y47238D02*
X18691Y47868D01*
X18947Y47868D01*
X18691Y47238D02*
X18947Y47238D01*
X19191Y47868D02*
X19191Y47238D01*
X19447Y47238D02*
X19447Y47868D01*
X19191Y47238D02*
X19447Y47238D01*
X19191Y47868D02*
X19447Y47868D01*
X788Y41372D02*
X788Y41628D01*
X1418Y41372D02*
X1418Y41628D01*
X788Y41628D02*
X1418Y41628D01*
X788Y41372D02*
X1418Y41372D01*
X2212Y41372D02*
X2212Y41628D01*
X1582Y41372D02*
X1582Y41628D01*
X1582Y41372D02*
X2212Y41372D01*
X1582Y41628D02*
X2212Y41628D01*
X1428Y41065D02*
X1428Y40435D01*
X1172Y40435D02*
X1172Y41065D01*
X1428Y41065D01*
X1172Y40435D02*
X1428Y40435D01*
X1828Y41065D02*
X1828Y40435D01*
X1572Y41065D02*
X1572Y40435D01*
X1572Y41065D02*
X1828Y41065D01*
X1572Y40435D02*
X1828Y40435D01*
X9578Y42238D02*
X9578Y42868D01*
X9322Y42238D02*
X9322Y42868D01*
X9578Y42868D01*
X9322Y42238D02*
X9578Y42238D01*
X6132Y39272D02*
X6132Y39528D01*
X6762Y39272D02*
X6762Y39528D01*
X6132Y39528D02*
X6762Y39528D01*
X6132Y39272D02*
X6762Y39272D01*
X7772Y35718D02*
X8028Y35718D01*
X7772Y35088D02*
X8028Y35088D01*
X8028Y35718D02*
X8028Y35088D01*
X7772Y35088D02*
X7772Y35718D01*
X5742Y36872D02*
X5742Y37128D01*
X5112Y36872D02*
X5112Y37128D01*
X5112Y36872D02*
X5742Y36872D01*
X5112Y37128D02*
X5742Y37128D01*
X5648Y25382D02*
X5904Y25382D01*
X5648Y26012D02*
X5904Y26012D01*
X5648Y25382D02*
X5648Y26012D01*
X5904Y25382D02*
X5904Y26012D01*
X4264Y25872D02*
X4264Y26128D01*
X4894Y25872D02*
X4894Y26128D01*
X4264Y26128D02*
X4894Y26128D01*
X4264Y25872D02*
X4894Y25872D01*
X4264Y25372D02*
X4264Y25628D01*
X4894Y25372D02*
X4894Y25628D01*
X4264Y25628D02*
X4894Y25628D01*
X4264Y25372D02*
X4894Y25372D01*
X1764Y25222D02*
X1764Y25478D01*
X2394Y25222D02*
X2394Y25478D01*
X1764Y25478D02*
X2394Y25478D01*
X1764Y25222D02*
X2394Y25222D01*
X1764Y22222D02*
X1764Y22478D01*
X2394Y22222D02*
X2394Y22478D01*
X1764Y22478D02*
X2394Y22478D01*
X1764Y22222D02*
X2394Y22222D01*
X9185Y14372D02*
X9815Y14372D01*
X9185Y14628D02*
X9815Y14628D01*
X9815Y14372D02*
X9815Y14628D01*
X9185Y14372D02*
X9185Y14628D01*
X9185Y13872D02*
X9815Y13872D01*
X9185Y14128D02*
X9815Y14128D01*
X9815Y13872D02*
X9815Y14128D01*
X9185Y13872D02*
X9185Y14128D01*
X9206Y8388D02*
X9206Y9018D01*
X8950Y8388D02*
X8950Y9018D01*
X9206Y9018D01*
X8950Y8388D02*
X9206Y8388D01*
X13928Y12862D02*
X13928Y12232D01*
X13672Y12862D02*
X13672Y12232D01*
X13672Y12862D02*
X13928Y12862D01*
X13672Y12232D02*
X13928Y12232D01*
X13528Y12862D02*
X13528Y12232D01*
X13272Y12232D02*
X13272Y12862D01*
X13528Y12862D01*
X13272Y12232D02*
X13528Y12232D01*
X12888Y13122D02*
X12888Y13378D01*
X13518Y13122D02*
X13518Y13378D01*
X12888Y13378D02*
X13518Y13378D01*
X12888Y13122D02*
X13518Y13122D01*
X14312Y13122D02*
X14312Y13378D01*
X13682Y13122D02*
X13682Y13378D01*
X13682Y13122D02*
X14312Y13122D01*
X13682Y13378D02*
X14312Y13378D01*
X2988Y4372D02*
X2988Y4628D01*
X3618Y4372D02*
X3618Y4628D01*
X2988Y4628D02*
X3618Y4628D01*
X2988Y4372D02*
X3618Y4372D01*
X2988Y4872D02*
X2988Y5128D01*
X3618Y5128D02*
X3618Y4872D01*
X2988Y5128D02*
X3618Y5128D01*
X2988Y4872D02*
X3618Y4872D01*
X9572Y2182D02*
X9572Y2812D01*
X9828Y2812D02*
X9828Y2182D01*
X9572Y2182D02*
X9828Y2182D01*
X9572Y2812D02*
X9828Y2812D01*
X14932Y1748D02*
X14932Y2004D01*
X15562Y1748D02*
X15562Y2004D01*
X14932Y2004D02*
X15562Y2004D01*
X14932Y1748D02*
X15562Y1748D01*
X11885Y2922D02*
X11885Y3178D01*
X12515Y2922D02*
X12515Y3178D01*
X11885Y3178D02*
X12515Y3178D01*
X11885Y2922D02*
X12515Y2922D01*
X11885Y2422D02*
X12515Y2422D01*
X11885Y2678D02*
X12515Y2678D01*
X12515Y2422D02*
X12515Y2678D01*
X11885Y2422D02*
X11885Y2678D01*
X11885Y2178D02*
X12515Y2178D01*
X11885Y1922D02*
X12515Y1922D01*
X11885Y1922D02*
X11885Y2178D01*
X12515Y1922D02*
X12515Y2178D01*
X14122Y3238D02*
X14378Y3238D01*
X14122Y3868D02*
X14378Y3868D01*
X14122Y3238D02*
X14122Y3868D01*
X14378Y3238D02*
X14378Y3868D01*
X13685Y4428D02*
X14315Y4428D01*
X13685Y4172D02*
X14315Y4172D01*
X13685Y4428D02*
X13685Y4172D01*
X14315Y4172D02*
X14315Y4428D01*
X13685Y4828D02*
X14315Y4828D01*
X13685Y4572D02*
X14315Y4572D01*
X13685Y4572D02*
X13685Y4828D01*
X14315Y4572D02*
X14315Y4828D01*
X16122Y4188D02*
X16122Y4818D01*
X16378Y4188D02*
X16378Y4818D01*
X16122Y4188D02*
X16378Y4188D01*
X16122Y4818D02*
X16378Y4818D01*
X13835Y5322D02*
X14465Y5322D01*
X13835Y5578D02*
X14465Y5578D01*
X14465Y5322D02*
X14465Y5578D01*
X13835Y5322D02*
X13835Y5578D01*
X14185Y6222D02*
X14815Y6222D01*
X14185Y6478D02*
X14815Y6478D01*
X14815Y6222D02*
X14815Y6478D01*
X14185Y6222D02*
X14185Y6478D01*
X13856Y6684D02*
X13856Y7216D01*
X14644Y6684D02*
X14644Y7216D01*
X13856Y7216D02*
X14644Y7216D01*
X13856Y6684D02*
X14644Y6684D01*
X16872Y7935D02*
X16872Y8565D01*
X17128Y8565D02*
X17128Y7935D01*
X16872Y7935D02*
X17128Y7935D01*
X16872Y8565D02*
X17128Y8565D01*
X16632Y9122D02*
X17262Y9122D01*
X16632Y9378D02*
X17262Y9378D01*
X17262Y9122D02*
X17262Y9378D01*
X16632Y9122D02*
X16632Y9378D01*
X12981Y9365D02*
X12981Y8735D01*
X12725Y8735D02*
X12725Y9365D01*
X12981Y9365D01*
X12725Y8735D02*
X12981Y8735D01*
X13625Y8735D02*
X13625Y9365D01*
X13369Y8735D02*
X13369Y9365D01*
X13625Y9365D01*
X13369Y8735D02*
X13625Y8735D01*
X16222Y7632D02*
X16478Y7632D01*
X16222Y8262D02*
X16478Y8262D01*
X16222Y7632D02*
X16222Y8262D01*
X16478Y7632D02*
X16478Y8262D01*
X14638Y7422D02*
X15268Y7422D01*
X14638Y7678D02*
X15268Y7678D01*
X15268Y7422D02*
X15268Y7678D01*
X14638Y7422D02*
X14638Y7678D01*
X15722Y8262D02*
X15722Y7632D01*
X15978Y7632D02*
X15978Y8262D01*
X15722Y7632D02*
X15978Y7632D01*
X15722Y8262D02*
X15978Y8262D01*
X29148Y4332D02*
X29404Y4332D01*
X29148Y4962D02*
X29404Y4962D01*
X29148Y4332D02*
X29148Y4962D01*
X29404Y4332D02*
X29404Y4962D01*
X28648Y4332D02*
X28904Y4332D01*
X28648Y4962D02*
X28904Y4962D01*
X28648Y4962D02*
X28648Y4332D01*
X28904Y4332D02*
X28904Y4962D01*
X28648Y6118D02*
X28904Y6118D01*
X28648Y5488D02*
X28904Y5488D01*
X28904Y6118D01*
X28648Y6118D02*
X28648Y5488D01*
X29148Y6118D02*
X29404Y6118D01*
X29148Y5488D02*
X29404Y5488D01*
X29404Y6118D01*
X29148Y6118D02*
X29148Y5488D01*
X30148Y6118D02*
X30404Y6118D01*
X30148Y5488D02*
X30404Y5488D01*
X30404Y6118D02*
X30404Y5488D01*
X30148Y5488D02*
X30148Y6118D01*
X30648Y6118D02*
X30904Y6118D01*
X30648Y5488D02*
X30904Y5488D01*
X30904Y6118D01*
X30648Y6118D02*
X30648Y5488D01*
X30648Y4332D02*
X30904Y4332D01*
X30648Y4962D02*
X30904Y4962D01*
X30648Y4962D02*
X30648Y4332D01*
X30904Y4332D02*
X30904Y4962D01*
X30148Y4332D02*
X30404Y4332D01*
X30148Y4962D02*
X30404Y4962D01*
X30148Y4332D02*
X30148Y4962D01*
X30404Y4332D02*
X30404Y4962D01*
X31648Y4332D02*
X31904Y4332D01*
X31648Y4962D02*
X31904Y4962D01*
X31648Y4332D02*
X31648Y4962D01*
X31904Y4332D02*
X31904Y4962D01*
X32148Y4332D02*
X32404Y4332D01*
X32148Y4962D02*
X32404Y4962D01*
X32148Y4332D02*
X32148Y4962D01*
X32404Y4332D02*
X32404Y4962D01*
X31648Y6118D02*
X31904Y6118D01*
X31648Y5488D02*
X31904Y5488D01*
X31904Y6118D02*
X31904Y5488D01*
X31648Y5488D02*
X31648Y6118D01*
X32148Y6118D02*
X32404Y6118D01*
X32148Y5488D02*
X32404Y5488D01*
X32404Y6118D02*
X32404Y5488D01*
X32148Y5488D02*
X32148Y6118D01*
X33962Y6072D02*
X33962Y6328D01*
X33332Y6072D02*
X33332Y6328D01*
X33332Y6072D02*
X33962Y6072D01*
X33332Y6328D02*
X33962Y6328D01*
X34988Y4872D02*
X34988Y5128D01*
X35618Y4872D02*
X35618Y5128D01*
X34988Y5128D02*
X35618Y5128D01*
X34988Y4872D02*
X35618Y4872D01*
X34988Y5372D02*
X34988Y5628D01*
X35618Y5372D02*
X35618Y5628D01*
X34988Y5628D02*
X35618Y5628D01*
X34988Y5372D02*
X35618Y5372D01*
X34988Y5872D02*
X34988Y6128D01*
X35618Y5872D02*
X35618Y6128D01*
X34988Y6128D02*
X35618Y6128D01*
X34988Y5872D02*
X35618Y5872D01*
X35372Y6868D02*
X35628Y6868D01*
X35372Y6238D02*
X35628Y6238D01*
X35628Y6868D01*
X35372Y6868D02*
X35372Y6238D01*
X34988Y7122D02*
X34988Y7378D01*
X35618Y7122D02*
X35618Y7378D01*
X34988Y7378D02*
X35618Y7378D01*
X34988Y7122D02*
X35618Y7122D01*
X35872Y6868D02*
X36128Y6868D01*
X35872Y6238D02*
X36128Y6238D01*
X36128Y6868D01*
X35872Y6238D02*
X35872Y6868D01*
X36512Y7122D02*
X36512Y7378D01*
X35882Y7122D02*
X35882Y7378D01*
X35882Y7122D02*
X36512Y7122D01*
X35882Y7378D02*
X36512Y7378D01*
X29764Y8878D02*
X30394Y8878D01*
X29764Y8622D02*
X30394Y8622D01*
X29764Y8622D02*
X29764Y8878D01*
X30394Y8622D02*
X30394Y8878D01*
X29764Y9072D02*
X30394Y9072D01*
X29764Y9328D02*
X30394Y9328D01*
X30394Y9072D02*
X30394Y9328D01*
X29764Y9072D02*
X29764Y9328D01*
X33288Y9072D02*
X33288Y9328D01*
X32658Y9072D02*
X32658Y9328D01*
X32658Y9072D02*
X33288Y9072D01*
X32658Y9328D02*
X33288Y9328D01*
X38929Y1238D02*
X39185Y1238D01*
X38929Y1868D02*
X39185Y1868D01*
X38929Y1238D02*
X38929Y1868D01*
X39185Y1868D02*
X39185Y1238D01*
X38929Y2662D02*
X39185Y2662D01*
X38929Y2032D02*
X39185Y2032D01*
X39185Y2662D01*
X38929Y2662D02*
X38929Y2032D01*
X38142Y2022D02*
X38772Y2022D01*
X38142Y2278D02*
X38772Y2278D01*
X38772Y2022D02*
X38772Y2278D01*
X38142Y2022D02*
X38142Y2278D01*
X38142Y1622D02*
X38772Y1622D01*
X38142Y1878D02*
X38772Y1878D01*
X38772Y1622D02*
X38772Y1878D01*
X38142Y1622D02*
X38142Y1878D01*
X36318Y8872D02*
X36318Y9128D01*
X35688Y8872D02*
X35688Y9128D01*
X35688Y8872D02*
X36318Y8872D01*
X35688Y9128D02*
X36318Y9128D01*
X35688Y9372D02*
X35688Y9628D01*
X36318Y9372D02*
X36318Y9628D01*
X35688Y9628D02*
X36318Y9628D01*
X35688Y9372D02*
X36318Y9372D01*
X36838Y11128D02*
X37468Y11128D01*
X36838Y10872D02*
X37468Y10872D01*
X36838Y10872D02*
X36838Y11128D01*
X37468Y10872D02*
X37468Y11128D01*
X36318Y10772D02*
X36318Y11028D01*
X35688Y10772D02*
X35688Y11028D01*
X35688Y10772D02*
X36318Y10772D01*
X35688Y11028D02*
X36318Y11028D01*
X27562Y12172D02*
X27562Y12428D01*
X26932Y12172D02*
X26932Y12428D01*
X26932Y12172D02*
X27562Y12172D01*
X26932Y12428D02*
X27562Y12428D01*
X27562Y13572D02*
X27562Y13828D01*
X26932Y13572D02*
X26932Y13828D01*
X26932Y13572D02*
X27562Y13572D01*
X26932Y13828D02*
X27562Y13828D01*
X22488Y11872D02*
X23118Y11872D01*
X22488Y12128D02*
X23118Y12128D01*
X23118Y11872D02*
X23118Y12128D01*
X22488Y11872D02*
X22488Y12128D01*
X23382Y12128D02*
X24012Y12128D01*
X23382Y11872D02*
X24012Y11872D01*
X23382Y11872D02*
X23382Y12128D01*
X24012Y11872D02*
X24012Y12128D01*
X32738Y15122D02*
X33368Y15122D01*
X32738Y15378D02*
X33368Y15378D01*
X33368Y15122D02*
X33368Y15378D01*
X32738Y15122D02*
X32738Y15378D01*
X32662Y11672D02*
X32662Y11928D01*
X32032Y11672D02*
X32032Y11928D01*
X32032Y11672D02*
X32662Y11672D01*
X32032Y11928D02*
X32662Y11928D01*
X32662Y13072D02*
X32662Y13328D01*
X32032Y13072D02*
X32032Y13328D01*
X32032Y13072D02*
X32662Y13072D01*
X32032Y13328D02*
X32662Y13328D01*
X30256Y11922D02*
X30256Y12178D01*
X29626Y11922D02*
X29626Y12178D01*
X29626Y11922D02*
X30256Y11922D01*
X29626Y12178D02*
X30256Y12178D01*
X30256Y13322D02*
X30256Y13578D01*
X29626Y13322D02*
X29626Y13578D01*
X29626Y13322D02*
X30256Y13322D01*
X29626Y13578D02*
X30256Y13578D01*
X35312Y13057D02*
X35312Y13313D01*
X34682Y13057D02*
X34682Y13313D01*
X34682Y13057D02*
X35312Y13057D01*
X34682Y13313D02*
X35312Y13313D01*
X35312Y11657D02*
X35312Y11913D01*
X34682Y11657D02*
X34682Y11913D01*
X34682Y11657D02*
X35312Y11657D01*
X34682Y11913D02*
X35312Y11913D01*
X35688Y11272D02*
X35688Y11528D01*
X36318Y11272D02*
X36318Y11528D01*
X35688Y11528D02*
X36318Y11528D01*
X35688Y11272D02*
X36318Y11272D01*
X36988Y12378D02*
X37618Y12378D01*
X36988Y12122D02*
X37618Y12122D01*
X36988Y12122D02*
X36988Y12378D01*
X37618Y12122D02*
X37618Y12378D01*
X36988Y11835D02*
X37618Y11835D01*
X36988Y11579D02*
X37618Y11579D01*
X36988Y11835D02*
X36988Y11579D01*
X37618Y11579D02*
X37618Y11835D01*
X42378Y6738D02*
X42378Y7368D01*
X42122Y6738D02*
X42122Y7368D01*
X42378Y7368D01*
X42122Y6738D02*
X42378Y6738D01*
X42622Y7368D02*
X42878Y7368D01*
X42622Y6738D02*
X42878Y6738D01*
X42878Y7368D01*
X42622Y7368D02*
X42622Y6738D01*
X43378Y6738D02*
X43378Y7368D01*
X43122Y7368D02*
X43122Y6738D01*
X43122Y7368D02*
X43378Y7368D01*
X43122Y6738D02*
X43378Y6738D01*
X45012Y7122D02*
X45012Y7378D01*
X44382Y7122D02*
X44382Y7378D01*
X44382Y7122D02*
X45012Y7122D01*
X44382Y7378D02*
X45012Y7378D01*
X44382Y6622D02*
X44382Y6878D01*
X45012Y6622D02*
X45012Y6878D01*
X44382Y6878D02*
X45012Y6878D01*
X44382Y6622D02*
X45012Y6622D01*
X46253Y7896D02*
X46253Y8104D01*
X46147Y7896D02*
X46147Y8104D01*
X46253Y8104D01*
X46147Y7896D02*
X46253Y7896D01*
X46553Y7896D02*
X46553Y8104D01*
X46447Y7896D02*
X46447Y8104D01*
X46553Y8104D01*
X46447Y7896D02*
X46553Y7896D01*
X48150Y6348D02*
X48150Y6604D01*
X48780Y6348D02*
X48780Y6604D01*
X48150Y6604D02*
X48780Y6604D01*
X48150Y6348D02*
X48780Y6348D01*
X48396Y7539D02*
X48396Y8169D01*
X48140Y7539D02*
X48140Y8169D01*
X48396Y8169D01*
X48140Y7539D02*
X48396Y7539D01*
X48533Y7539D02*
X48789Y7539D01*
X48533Y8169D02*
X48789Y8169D01*
X48533Y7539D02*
X48533Y8169D01*
X48789Y7539D02*
X48789Y8169D01*
X47943Y10728D02*
X48199Y10728D01*
X47943Y10098D02*
X48199Y10098D01*
X48199Y10728D02*
X48199Y10098D01*
X47943Y10098D02*
X47943Y10728D01*
X48337Y10098D02*
X48337Y10728D01*
X48593Y10728D02*
X48593Y10098D01*
X48337Y10098D02*
X48593Y10098D01*
X48337Y10728D02*
X48593Y10728D01*
X48730Y10098D02*
X48730Y10728D01*
X48986Y10728D02*
X48986Y10098D01*
X48730Y10098D02*
X48986Y10098D01*
X48730Y10728D02*
X48986Y10728D01*
X45930Y11982D02*
X45930Y12612D01*
X46186Y12612D02*
X46186Y11982D01*
X45930Y11982D02*
X46186Y11982D01*
X45930Y12612D02*
X46186Y12612D01*
X44372Y11132D02*
X44372Y11762D01*
X44628Y11762D02*
X44628Y11132D01*
X44372Y11132D02*
X44628Y11132D01*
X44372Y11762D02*
X44628Y11762D01*
X43185Y12922D02*
X43815Y12922D01*
X43185Y13178D02*
X43815Y13178D01*
X43815Y12922D02*
X43815Y13178D01*
X43185Y12922D02*
X43185Y13178D01*
X43185Y13322D02*
X43815Y13322D01*
X43185Y13578D02*
X43815Y13578D01*
X43815Y13322D02*
X43815Y13578D01*
X43185Y13322D02*
X43185Y13578D01*
X43185Y13772D02*
X43815Y13772D01*
X43185Y14028D02*
X43815Y14028D01*
X43815Y13772D02*
X43815Y14028D01*
X43185Y13772D02*
X43185Y14028D01*
X43185Y14172D02*
X43815Y14172D01*
X43185Y14428D02*
X43815Y14428D01*
X43815Y14172D02*
X43815Y14428D01*
X43185Y14172D02*
X43185Y14428D01*
X43185Y14622D02*
X43815Y14622D01*
X43185Y14878D02*
X43815Y14878D01*
X43815Y14622D02*
X43815Y14878D01*
X43185Y14622D02*
X43185Y14878D01*
X43185Y15022D02*
X43815Y15022D01*
X43185Y15278D02*
X43815Y15278D01*
X43815Y15022D02*
X43815Y15278D01*
X43185Y15022D02*
X43185Y15278D01*
X43185Y15472D02*
X43815Y15472D01*
X43185Y15728D02*
X43815Y15728D01*
X43815Y15472D02*
X43815Y15728D01*
X43185Y15472D02*
X43185Y15728D01*
X43185Y15872D02*
X43815Y15872D01*
X43185Y16128D02*
X43815Y16128D01*
X43815Y15872D02*
X43815Y16128D01*
X43185Y15872D02*
X43185Y16128D01*
X53372Y1685D02*
X53628Y1685D01*
X53372Y2315D02*
X53628Y2315D01*
X53372Y1685D02*
X53372Y2315D01*
X53628Y1685D02*
X53628Y2315D01*
X52122Y1685D02*
X52378Y1685D01*
X52122Y2315D02*
X52378Y2315D01*
X52122Y1685D02*
X52122Y2315D01*
X52378Y1685D02*
X52378Y2315D01*
X51688Y2422D02*
X51688Y2678D01*
X52318Y2422D02*
X52318Y2678D01*
X51688Y2678D02*
X52318Y2678D01*
X51688Y2422D02*
X52318Y2422D01*
X49985Y1972D02*
X49985Y2228D01*
X50615Y1972D02*
X50615Y2228D01*
X49985Y2228D02*
X50615Y2228D01*
X49985Y1972D02*
X50615Y1972D01*
X57632Y1078D02*
X58262Y1078D01*
X57632Y822D02*
X58262Y822D01*
X57632Y822D02*
X57632Y1078D01*
X58262Y822D02*
X58262Y1078D01*
X59315Y2122D02*
X59315Y2378D01*
X58685Y2122D02*
X58685Y2378D01*
X58685Y2122D02*
X59315Y2122D01*
X58685Y2378D02*
X59315Y2378D01*
X59315Y2622D02*
X59315Y2878D01*
X58685Y2622D02*
X58685Y2878D01*
X58685Y2622D02*
X59315Y2622D01*
X58685Y2878D02*
X59315Y2878D01*
X59315Y3622D02*
X59315Y3878D01*
X58685Y3622D02*
X58685Y3878D01*
X58685Y3622D02*
X59315Y3622D01*
X58685Y3878D02*
X59315Y3878D01*
X60122Y2738D02*
X60378Y2738D01*
X60122Y3368D02*
X60378Y3368D01*
X60122Y3368D02*
X60122Y2738D01*
X60378Y2738D02*
X60378Y3368D01*
X52878Y3488D02*
X52878Y4118D01*
X52622Y4118D02*
X52622Y3488D01*
X52622Y4118D02*
X52878Y4118D01*
X52622Y3488D02*
X52878Y3488D01*
X52677Y6900D02*
X52677Y7156D01*
X53307Y6900D02*
X53307Y7156D01*
X52677Y7156D02*
X53307Y7156D01*
X52677Y6900D02*
X53307Y6900D01*
X53465Y6998D02*
X54094Y6998D01*
X53465Y6742D02*
X54094Y6742D01*
X53465Y6742D02*
X53465Y6998D01*
X54094Y6742D02*
X54094Y6998D01*
X54616Y7008D02*
X54616Y7638D01*
X54360Y7008D02*
X54360Y7638D01*
X54616Y7638D01*
X54360Y7008D02*
X54616Y7008D01*
X53848Y8031D02*
X54104Y8031D01*
X53848Y7402D02*
X54104Y7402D01*
X54104Y8031D01*
X53848Y8031D02*
X53848Y7402D01*
X55276Y8573D02*
X55276Y8829D01*
X54646Y8573D02*
X54646Y8829D01*
X54646Y8573D02*
X55276Y8573D01*
X54646Y8829D02*
X55276Y8829D01*
X56604Y9311D02*
X56860Y9311D01*
X56604Y9941D02*
X56860Y9941D01*
X56604Y9311D02*
X56604Y9941D01*
X56860Y9311D02*
X56860Y9941D01*
X56014Y9311D02*
X56270Y9311D01*
X56014Y9941D02*
X56270Y9941D01*
X56014Y9311D02*
X56014Y9941D01*
X56270Y9311D02*
X56270Y9941D01*
X55276Y9557D02*
X55276Y9813D01*
X54646Y9557D02*
X54646Y9813D01*
X54646Y9557D02*
X55276Y9557D01*
X54646Y9813D02*
X55276Y9813D01*
X55276Y9163D02*
X55276Y9419D01*
X54646Y9163D02*
X54646Y9419D01*
X54646Y9163D02*
X55276Y9163D01*
X54646Y9419D02*
X55276Y9419D01*
X51289Y12303D02*
X51545Y12303D01*
X51289Y11673D02*
X51545Y11673D01*
X51545Y12303D02*
X51545Y11673D01*
X51289Y11673D02*
X51289Y12303D01*
X34807Y30238D02*
X35063Y30238D01*
X34807Y30868D02*
X35063Y30868D01*
X34807Y30238D02*
X34807Y30868D01*
X35063Y30238D02*
X35063Y30868D01*
X35319Y32600D02*
X35319Y31970D01*
X35575Y31970D02*
X35575Y32600D01*
X35319Y31970D02*
X35575Y31970D01*
X35319Y32600D02*
X35575Y32600D01*
X39878Y28382D02*
X39878Y29012D01*
X39622Y28382D02*
X39622Y29012D01*
X39878Y29012D01*
X39622Y28382D02*
X39878Y28382D01*
X40122Y29012D02*
X40378Y29012D01*
X40122Y28382D02*
X40378Y28382D01*
X40378Y29012D02*
X40378Y28382D01*
X40122Y28382D02*
X40122Y29012D01*
X39382Y27372D02*
X40012Y27372D01*
X39382Y27628D02*
X40012Y27628D01*
X40012Y27372D02*
X40012Y27628D01*
X39382Y27372D02*
X39382Y27628D01*
X38872Y26988D02*
X39128Y26988D01*
X38872Y27618D02*
X39128Y27618D01*
X38872Y27618D02*
X38872Y26988D01*
X39128Y26988D02*
X39128Y27618D01*
X36411Y33181D02*
X37041Y33181D01*
X36411Y32925D02*
X37041Y32925D01*
X36411Y32925D02*
X36411Y33181D01*
X37041Y32925D02*
X37041Y33181D01*
X36411Y31902D02*
X36411Y32157D01*
X37041Y31902D02*
X37041Y32157D01*
X36411Y32157D02*
X37041Y32157D01*
X36411Y31902D02*
X37041Y31902D01*
X42488Y24872D02*
X42488Y25128D01*
X43118Y24872D02*
X43118Y25128D01*
X42488Y25128D02*
X43118Y25128D01*
X42488Y24872D02*
X43118Y24872D01*
X42488Y25372D02*
X42488Y25628D01*
X43118Y25372D02*
X43118Y25628D01*
X42488Y25628D02*
X43118Y25628D01*
X42488Y25372D02*
X43118Y25372D01*
X43118Y25872D02*
X43118Y26128D01*
X42488Y25872D02*
X42488Y26128D01*
X42488Y25872D02*
X43118Y25872D01*
X42488Y26128D02*
X43118Y26128D01*
X40762Y26016D02*
X40762Y26272D01*
X41392Y26016D02*
X41392Y26272D01*
X40762Y26272D02*
X41392Y26272D01*
X40762Y26016D02*
X41392Y26016D01*
X40778Y26528D02*
X40778Y26783D01*
X41407Y26528D02*
X41407Y26783D01*
X40778Y26783D02*
X41407Y26783D01*
X40778Y26528D02*
X41407Y26528D01*
X38628Y20488D02*
X38628Y21118D01*
X38372Y20488D02*
X38372Y21118D01*
X38628Y21118D01*
X38372Y20488D02*
X38628Y20488D01*
X38628Y21488D02*
X38628Y22118D01*
X38372Y21488D02*
X38372Y22118D01*
X38628Y22118D01*
X38372Y21488D02*
X38628Y21488D01*
X61593Y31291D02*
X61849Y31291D01*
X61593Y30661D02*
X61849Y30661D01*
X61849Y31291D02*
X61849Y30661D01*
X61593Y30661D02*
X61593Y31291D01*
X68995Y11407D02*
X69527Y11407D01*
X68995Y10620D02*
X69527Y10620D01*
X69527Y11407D01*
X68995Y10620D02*
X68995Y11407D01*
X69995Y11407D02*
X70527Y11407D01*
X69995Y10620D02*
X70527Y10620D01*
X70527Y11407D01*
X69995Y10620D02*
X69995Y11407D01*
X70562Y5424D02*
X70562Y5680D01*
X69932Y5680D02*
X69932Y5424D01*
X70562Y5424D01*
X69932Y5680D02*
X70562Y5680D01*
X69372Y6170D02*
X69628Y6170D01*
X69372Y5541D02*
X69628Y5541D01*
X69628Y6170D01*
X69372Y6170D02*
X69372Y5541D01*
X69375Y6882D02*
X69631Y6882D01*
X69375Y7512D02*
X69631Y7512D01*
X69375Y6882D02*
X69375Y7512D01*
X69631Y6882D02*
X69631Y7512D01*
X70565Y7372D02*
X70565Y7628D01*
X69935Y7372D02*
X69935Y7628D01*
X69935Y7372D02*
X70565Y7372D01*
X69935Y7628D02*
X70565Y7628D01*
X83884Y11394D02*
X84416Y11394D01*
X83884Y10606D02*
X84416Y10606D01*
X84416Y11394D01*
X83884Y10606D02*
X83884Y11394D01*
X82884Y11394D02*
X83416Y11394D01*
X82884Y10606D02*
X83416Y10606D01*
X83416Y11394D01*
X82884Y10606D02*
X82884Y11394D01*
X68196Y19636D02*
X68196Y19892D01*
X68826Y19636D02*
X68826Y19892D01*
X68196Y19892D02*
X68826Y19892D01*
X68196Y19636D02*
X68826Y19636D01*
X68196Y20136D02*
X68196Y20392D01*
X68826Y20136D02*
X68826Y20392D01*
X68196Y20392D02*
X68826Y20392D01*
X68196Y20136D02*
X68826Y20136D01*
X68196Y20636D02*
X68196Y20892D01*
X68826Y20636D02*
X68826Y20892D01*
X68196Y20892D02*
X68826Y20892D01*
X68196Y20636D02*
X68826Y20636D01*
X68196Y21136D02*
X68196Y21392D01*
X68826Y21136D02*
X68826Y21392D01*
X68196Y21392D02*
X68826Y21392D01*
X68196Y21136D02*
X68826Y21136D01*
X73139Y19526D02*
X73139Y18896D01*
X72883Y18896D02*
X72883Y19526D01*
X73139Y19526D01*
X72883Y18896D02*
X73139Y18896D01*
X72883Y17502D02*
X73139Y17502D01*
X72883Y18132D02*
X73139Y18132D01*
X72883Y18132D02*
X72883Y17502D01*
X73139Y17502D02*
X73139Y18132D01*
X71883Y17699D02*
X72139Y17699D01*
X71883Y18329D02*
X72139Y18329D01*
X71883Y17699D02*
X71883Y18329D01*
X72139Y18329D02*
X72139Y17699D01*
X67198Y20136D02*
X67198Y20392D01*
X66568Y20136D02*
X66568Y20392D01*
X67198Y20392D01*
X66568Y20136D02*
X67198Y20136D01*
X54435Y3922D02*
X54435Y4178D01*
X55065Y3922D02*
X55065Y4178D01*
X54435Y3922D02*
X55065Y3922D01*
X54435Y4178D02*
X55065Y4178D01*
X53504Y5955D02*
X53504Y6211D01*
X52874Y5955D02*
X52874Y6211D01*
X53504Y6211D01*
X52874Y5955D02*
X53504Y5955D01*
X53504Y6348D02*
X53504Y6604D01*
X52874Y6348D02*
X52874Y6604D01*
X53504Y6604D01*
X52874Y6348D02*
X53504Y6348D01*
X50315Y6348D02*
X50315Y6604D01*
X50945Y6348D02*
X50945Y6604D01*
X50315Y6348D02*
X50945Y6348D01*
X50315Y6604D02*
X50945Y6604D01*
X47746Y5217D02*
X48002Y5217D01*
X47746Y5846D02*
X48002Y5846D01*
X48002Y5217D02*
X48002Y5846D01*
X47746Y5217D02*
X47746Y5846D01*
X46747Y7646D02*
X46747Y7854D01*
X46853Y7646D02*
X46853Y7854D01*
X46747Y7854D02*
X46853Y7854D01*
X46747Y7646D02*
X46853Y7646D01*
X47047Y7646D02*
X47047Y7854D01*
X47153Y7646D02*
X47153Y7854D01*
X47047Y7854D02*
X47153Y7854D01*
X47047Y7646D02*
X47153Y7646D01*
X52392Y6949D02*
X52648Y6949D01*
X52392Y7579D02*
X52648Y7579D01*
X52648Y6949D01*
X52392Y6949D02*
X52392Y7579D01*
X51959Y6949D02*
X52215Y6949D01*
X51959Y7579D02*
X52215Y7579D01*
X52215Y6949D01*
X51959Y6949D02*
X51959Y7579D01*
X54646Y9557D02*
X54646Y9813D01*
X55276Y9557D02*
X55276Y9813D01*
X54646Y9557D02*
X55276Y9557D01*
X54646Y9813D02*
X55276Y9813D01*
X89732Y14998D02*
X89732Y15254D01*
X89102Y14998D02*
X89102Y15254D01*
X89732Y15254D01*
X89102Y14998D02*
X89732Y14998D01*
X89102Y14604D02*
X89732Y14604D01*
X89102Y14860D02*
X89732Y14860D01*
X89102Y14604D02*
X89102Y14860D01*
X89732Y14604D02*
X89732Y14860D01*
X89732Y15785D02*
X89732Y16041D01*
X89102Y15785D02*
X89102Y16041D01*
X89732Y16041D01*
X89102Y15785D02*
X89732Y15785D01*
X89732Y19328D02*
X89732Y19584D01*
X89102Y19328D02*
X89102Y19584D01*
X89732Y19584D01*
X89102Y19328D02*
X89732Y19328D01*
X89102Y19191D02*
X89732Y19191D01*
X89102Y18935D02*
X89732Y18935D01*
X89732Y19191D01*
X89102Y18935D02*
X89102Y19191D01*
X89732Y18541D02*
X89732Y18797D01*
X89102Y18541D02*
X89102Y18797D01*
X89732Y18797D01*
X89102Y18541D02*
X89732Y18541D01*
X88305Y19535D02*
X88561Y19535D01*
X88305Y20165D02*
X88561Y20165D01*
X88561Y19535D01*
X88305Y19535D02*
X88305Y20165D01*
X86730Y19535D02*
X86986Y19535D01*
X86730Y20165D02*
X86986Y20165D01*
X86986Y19535D02*
X86986Y20165D01*
X86730Y19535D02*
X86730Y20165D01*
X86337Y20165D02*
X86593Y20165D01*
X86337Y19535D02*
X86593Y19535D01*
X86337Y19535D02*
X86337Y20165D01*
X86593Y20165D02*
X86593Y19535D01*
X88305Y14220D02*
X88561Y14220D01*
X88305Y14850D02*
X88561Y14850D01*
X88561Y14220D02*
X88561Y14850D01*
X88305Y14220D02*
X88305Y14850D01*
X88955Y14220D02*
X88955Y14850D01*
X88699Y14850D02*
X88699Y14220D01*
X88955Y14220D01*
X88699Y14850D02*
X88955Y14850D01*
X83974Y14811D02*
X84230Y14811D01*
X83974Y15441D02*
X84230Y15441D01*
X84230Y14811D02*
X84230Y15441D01*
X83974Y14811D02*
X83974Y15441D01*
X84575Y15883D02*
X85205Y15883D01*
X84575Y16139D02*
X85205Y16139D01*
X84575Y15883D02*
X84575Y16139D01*
X85205Y15883D02*
X85205Y16139D01*
X84575Y16533D02*
X85205Y16533D01*
X84575Y16277D02*
X85205Y16277D01*
X85205Y16533D01*
X84575Y16277D02*
X84575Y16533D01*
X85224Y16612D02*
X85224Y16868D01*
X85854Y16612D02*
X85854Y16868D01*
X85224Y16612D02*
X85854Y16612D01*
X85224Y16868D02*
X85854Y16868D01*
X85018Y18984D02*
X85018Y18354D01*
X84762Y18354D02*
X84762Y18984D01*
X84762Y18354D02*
X85018Y18354D01*
X84762Y18984D02*
X85018Y18984D01*
X85156Y18354D02*
X85156Y18984D01*
X85411Y18354D02*
X85411Y18984D01*
X85156Y18984D02*
X85411Y18984D01*
X85156Y18354D02*
X85411Y18354D01*
X85559Y18836D02*
X85559Y19092D01*
X86189Y18836D02*
X86189Y19092D01*
X85559Y18836D02*
X86189Y18836D01*
X85559Y19092D02*
X86189Y19092D01*
X85352Y17488D02*
X85608Y17488D01*
X85352Y18118D02*
X85608Y18118D01*
X85608Y17488D02*
X85608Y18118D01*
X85352Y17488D02*
X85352Y18118D01*
X4372Y49132D02*
X4628Y49132D01*
X4372Y49762D02*
X4628Y49762D01*
X4628Y49132D02*
X4628Y49762D01*
X4372Y49762D02*
X4372Y49132D01*
X29370Y44032D02*
X29370Y44287D01*
X30000Y44032D02*
X30000Y44287D01*
X29370Y44032D02*
X30000Y44032D01*
X29370Y44287D02*
X30000Y44287D01*
X25728Y43313D02*
X25728Y43569D01*
X26358Y43313D02*
X26358Y43569D01*
X25728Y43313D02*
X26358Y43313D01*
X25728Y43569D02*
X26358Y43569D01*
X25335Y43872D02*
X25335Y44128D01*
X25965Y43872D02*
X25965Y44128D01*
X25335Y43872D02*
X25965Y43872D01*
X25335Y44128D02*
X25965Y44128D01*
X25226Y44382D02*
X25226Y45012D01*
X25482Y45012D02*
X25482Y44382D01*
X25226Y45012D02*
X25482Y45012D01*
X25226Y44382D02*
X25482Y44382D01*
X37262Y27122D02*
X37262Y27378D01*
X36632Y27122D02*
X36632Y27378D01*
X37262Y27378D01*
X36632Y27122D02*
X37262Y27122D01*
X36628Y26485D02*
X36628Y27115D01*
X36372Y27115D02*
X36372Y26485D01*
X36628Y26485D01*
X36372Y27115D02*
X36628Y27115D01*
X45238Y28872D02*
X45238Y29128D01*
X45868Y28872D02*
X45868Y29128D01*
X45238Y28872D02*
X45868Y28872D01*
X45238Y29128D02*
X45868Y29128D01*
X45238Y28372D02*
X45238Y28628D01*
X45868Y28372D02*
X45868Y28628D01*
X45238Y28372D02*
X45868Y28372D01*
X45238Y28628D02*
X45868Y28628D01*
X47018Y25122D02*
X47018Y25378D01*
X46388Y25122D02*
X46388Y25378D01*
X47018Y25378D01*
X46388Y25122D02*
X47018Y25122D01*
X46388Y25622D02*
X46388Y25878D01*
X47018Y25622D02*
X47018Y25878D01*
X46388Y25622D02*
X47018Y25622D01*
X46388Y25878D02*
X47018Y25878D01*
X46388Y26122D02*
X46388Y26378D01*
X47018Y26122D02*
X47018Y26378D01*
X46388Y26122D02*
X47018Y26122D01*
X46388Y26378D02*
X47018Y26378D01*
X46388Y26622D02*
X46388Y26878D01*
X47018Y26622D02*
X47018Y26878D01*
X46388Y26622D02*
X47018Y26622D01*
X46388Y26878D02*
X47018Y26878D01*
X46388Y27122D02*
X46388Y27378D01*
X47018Y27122D02*
X47018Y27378D01*
X46388Y27122D02*
X47018Y27122D01*
X46388Y27378D02*
X47018Y27378D01*
X46388Y27622D02*
X46388Y27878D01*
X47018Y27622D02*
X47018Y27878D01*
X46388Y27622D02*
X47018Y27622D01*
X46388Y27878D02*
X47018Y27878D01*
X59821Y27944D02*
X60077Y27944D01*
X59821Y27315D02*
X60077Y27315D01*
X59821Y27944D02*
X59821Y27315D01*
X60077Y27315D02*
X60077Y27944D01*
X59428Y27315D02*
X59683Y27315D01*
X59428Y27944D02*
X59683Y27944D01*
X59683Y27315D02*
X59683Y27944D01*
X59428Y27315D02*
X59428Y27944D01*
X57292Y27019D02*
X58394Y27019D01*
X57292Y27649D02*
X58394Y27649D01*
X57292Y27019D02*
X57292Y27649D01*
X58394Y27019D02*
X58394Y27649D01*
X65172Y26868D02*
X65428Y26868D01*
X65172Y26238D02*
X65428Y26238D01*
X65172Y26868D02*
X65172Y26238D01*
X65428Y26238D02*
X65428Y26868D01*
X64622Y26868D02*
X64878Y26868D01*
X64622Y26238D02*
X64878Y26238D01*
X64622Y26868D02*
X64622Y26238D01*
X64878Y26238D02*
X64878Y26868D01*
X64122Y26868D02*
X64378Y26868D01*
X64122Y26238D02*
X64378Y26238D01*
X64122Y26868D02*
X64122Y26238D01*
X64378Y26238D02*
X64378Y26868D01*
X63622Y26868D02*
X63878Y26868D01*
X63622Y26238D02*
X63878Y26238D01*
X63622Y26868D02*
X63622Y26238D01*
X63878Y26238D02*
X63878Y26868D01*
X65494Y27600D02*
X65494Y27856D01*
X66124Y27600D02*
X66124Y27856D01*
X65494Y27600D02*
X66124Y27600D01*
X65494Y27856D02*
X66124Y27856D01*
X61002Y31252D02*
X61258Y31252D01*
X61002Y31881D02*
X61258Y31881D01*
X61258Y31252D02*
X61258Y31881D01*
X61002Y31252D02*
X61002Y31881D01*
X68565Y25750D02*
X68565Y24648D01*
X67935Y24648D02*
X67935Y25750D01*
X67935Y24648D02*
X68565Y24648D01*
X67935Y25750D02*
X68565Y25750D01*
X65494Y27994D02*
X65494Y28250D01*
X66124Y27994D02*
X66124Y28250D01*
X65494Y27994D02*
X66124Y27994D01*
X65494Y28250D02*
X66124Y28250D01*
X66526Y28880D02*
X66526Y29135D01*
X65896Y28880D02*
X65896Y29135D01*
X66526Y29135D01*
X65896Y28880D02*
X66526Y28880D01*
X65748Y28496D02*
X65748Y29126D01*
X65493Y29126D02*
X65493Y28496D01*
X65748Y28496D01*
X65493Y29126D02*
X65748Y29126D01*
X66526Y29667D02*
X66526Y29923D01*
X65896Y29667D02*
X65896Y29923D01*
X66526Y29923D01*
X65896Y29667D02*
X66526Y29667D01*
X65748Y29283D02*
X65748Y29913D01*
X65493Y29913D02*
X65493Y29283D01*
X65748Y29283D01*
X65493Y29913D02*
X65748Y29913D01*
X66526Y30454D02*
X66526Y30710D01*
X65896Y30454D02*
X65896Y30710D01*
X66526Y30710D01*
X65896Y30454D02*
X66526Y30454D01*
X65748Y30700D02*
X65748Y30070D01*
X65493Y30070D02*
X65493Y30700D01*
X65493Y30070D02*
X65748Y30070D01*
X65493Y30700D02*
X65748Y30700D01*
X65748Y31488D02*
X65748Y30858D01*
X65493Y30858D02*
X65493Y31488D01*
X65493Y30858D02*
X65748Y30858D01*
X65493Y31488D02*
X65748Y31488D01*
X64735Y32372D02*
X64735Y32628D01*
X65365Y32372D02*
X65365Y32628D01*
X64735Y32372D02*
X65365Y32372D01*
X64735Y32628D02*
X65365Y32628D01*
X64565Y32372D02*
X64565Y32628D01*
X63935Y32372D02*
X63935Y32628D01*
X64565Y32628D01*
X63935Y32372D02*
X64565Y32372D01*
X63315Y32620D02*
X63315Y32876D01*
X62685Y32620D02*
X62685Y32876D01*
X63315Y32876D01*
X62685Y32620D02*
X63315Y32620D01*
X61396Y31881D02*
X61652Y31881D01*
X61396Y31252D02*
X61652Y31252D01*
X61396Y31252D02*
X61396Y31881D01*
X61652Y31881D02*
X61652Y31252D01*
X61790Y31881D02*
X62046Y31881D01*
X61790Y31252D02*
X62046Y31252D01*
X61790Y31252D02*
X61790Y31881D01*
X62046Y31881D02*
X62046Y31252D01*
X60904Y34539D02*
X61160Y34539D01*
X60904Y33909D02*
X61160Y33909D01*
X60904Y33909D02*
X60904Y34539D01*
X61160Y34539D02*
X61160Y33909D01*
X60166Y34443D02*
X60166Y34699D01*
X59536Y34443D02*
X59536Y34699D01*
X60166Y34699D01*
X59536Y34443D02*
X60166Y34443D01*
X60471Y33515D02*
X60727Y33515D01*
X60471Y34145D02*
X60727Y34145D01*
X60727Y33515D02*
X60727Y34145D01*
X60471Y33515D02*
X60471Y34145D01*
X60471Y33358D02*
X60727Y33358D01*
X60471Y32728D02*
X60727Y32728D01*
X60471Y32728D02*
X60471Y33358D01*
X60727Y33358D02*
X60727Y32728D01*
X26932Y13572D02*
X26932Y13828D01*
X27562Y13572D02*
X27562Y13828D01*
X26932Y13572D02*
X27562Y13572D01*
X26932Y13828D02*
X27562Y13828D01*
X26932Y12172D02*
X26932Y12428D01*
X27562Y12172D02*
X27562Y12428D01*
X26932Y12172D02*
X27562Y12172D01*
X26932Y12428D02*
X27562Y12428D01*
X29626Y11922D02*
X29626Y12178D01*
X30256Y11922D02*
X30256Y12178D01*
X29626Y11922D02*
X30256Y11922D01*
X29626Y12178D02*
X30256Y12178D01*
X29626Y13322D02*
X29626Y13578D01*
X30256Y13322D02*
X30256Y13578D01*
X29626Y13322D02*
X30256Y13322D01*
X29626Y13578D02*
X30256Y13578D01*
X32032Y13072D02*
X32032Y13328D01*
X32662Y13072D02*
X32662Y13328D01*
X32032Y13072D02*
X32662Y13072D01*
X32032Y13328D02*
X32662Y13328D01*
X32032Y11672D02*
X32032Y11928D01*
X32662Y11672D02*
X32662Y11928D01*
X32032Y11672D02*
X32662Y11672D01*
X32032Y11928D02*
X32662Y11928D01*
X34682Y13057D02*
X34682Y13313D01*
X35312Y13057D02*
X35312Y13313D01*
X34682Y13057D02*
X35312Y13057D01*
X34682Y13313D02*
X35312Y13313D01*
X34682Y11657D02*
X34682Y11913D01*
X35312Y11657D02*
X35312Y11913D01*
X34682Y11657D02*
X35312Y11657D01*
X34682Y11913D02*
X35312Y11913D01*
X29148Y5488D02*
X29404Y5488D01*
X29148Y6118D02*
X29404Y6118D01*
X29404Y5488D02*
X29404Y6118D01*
X29148Y6118D02*
X29148Y5488D01*
X28648Y5488D02*
X28904Y5488D01*
X28648Y6118D02*
X28904Y6118D01*
X28904Y5488D02*
X28904Y6118D01*
X28648Y6118D02*
X28648Y5488D01*
X30648Y5488D02*
X30904Y5488D01*
X30648Y6118D02*
X30904Y6118D01*
X30904Y5488D02*
X30904Y6118D01*
X30648Y6118D02*
X30648Y5488D01*
X30148Y5488D02*
X30404Y5488D01*
X30148Y6118D02*
X30404Y6118D01*
X30404Y5488D02*
X30404Y6118D01*
X30148Y6118D02*
X30148Y5488D01*
X31648Y5488D02*
X31904Y5488D01*
X31648Y6118D02*
X31904Y6118D01*
X31904Y5488D02*
X31904Y6118D01*
X31648Y5488D02*
X31648Y6118D01*
X32148Y5488D02*
X32404Y5488D01*
X32148Y6118D02*
X32404Y6118D01*
X32404Y5488D02*
X32404Y6118D01*
X32148Y5488D02*
X32148Y6118D01*
X55228Y20120D02*
X55484Y20120D01*
X55228Y20750D02*
X55484Y20750D01*
X55228Y20120D02*
X55228Y20750D01*
X55484Y20120D02*
X55484Y20750D01*
X54472Y18738D02*
X54728Y18738D01*
X54472Y19368D02*
X54728Y19368D01*
X54472Y18738D02*
X54472Y19368D01*
X54728Y18738D02*
X54728Y19368D01*
X53872Y21803D02*
X54659Y21803D01*
X53872Y21272D02*
X54659Y21272D01*
X53872Y21272D02*
X53872Y21803D01*
X54659Y21272D02*
X54659Y21803D01*
M02*
