G04 Layer_Physical_Order=2*
G04 Layer_Color=32768*
%FSLAX24Y24*%
%MOIN*%
G70*
G01*
G75*
%ADD88C,0.0100*%
%ADD95C,0.0600*%
%ADD111C,0.0400*%
%ADD112C,0.1450*%
%ADD113C,0.1263*%
%ADD114C,0.0700*%
%ADD115C,0.0515*%
%ADD116C,0.0594*%
%ADD117C,0.0357*%
%ADD118C,0.0554*%
%ADD119C,0.0692*%
%ADD120C,0.1224*%
%ADD121C,0.0830*%
%ADD122C,0.0554*%
%ADD123C,0.0869*%
%ADD124C,0.0730*%
%ADD125C,0.0450*%
%ADD126C,0.0350*%
%ADD127C,0.0280*%
D88*
X-41453Y-2353D02*
X-41481Y-2296D01*
X-41538Y-2239D01*
X-41595Y-2210D01*
X-41710Y-2210D01*
X-41767Y-2239D01*
X-41824Y-2296D01*
X-41853Y-2353D01*
X-41881Y-2439D01*
X-41881Y-2581D01*
X-41853Y-2667D01*
X-41824Y-2724D01*
X-41767Y-2781D01*
X-41710Y-2810D01*
X-41595Y-2810D01*
X-41538Y-2781D01*
X-41481Y-2724D01*
X-41453Y-2667D01*
X-41453Y-2581D01*
X-41595Y-2581D02*
X-41453Y-2581D01*
X-41316Y-2524D02*
X-41058Y-2524D01*
X-40973Y-2496D01*
X-40944Y-2467D01*
X-40916Y-2410D01*
X-40916Y-2324D01*
X-40944Y-2267D01*
X-40973Y-2239D01*
X-41058Y-2210D01*
X-41316Y-2210D01*
X-41316Y-2810D01*
X-40781Y-2324D02*
X-40724Y-2296D01*
X-40639Y-2210D01*
X-40639Y-2810D01*
X-39870Y-2553D02*
X-39356Y-2553D01*
X-38279Y-2353D02*
X-38308Y-2296D01*
X-38365Y-2239D01*
X-38422Y-2210D01*
X-38536Y-2210D01*
X-38593Y-2239D01*
X-38650Y-2296D01*
X-38679Y-2353D01*
X-38707Y-2439D01*
X-38707Y-2581D01*
X-38679Y-2667D01*
X-38650Y-2724D01*
X-38593Y-2781D01*
X-38536Y-2810D01*
X-38422Y-2810D01*
X-38365Y-2781D01*
X-38308Y-2724D01*
X-38279Y-2667D01*
X-38279Y-2581D01*
X-38422Y-2581D02*
X-38279Y-2581D01*
X-38142Y-2210D02*
X-38142Y-2810D01*
X-38142Y-2210D02*
X-37885Y-2210D01*
X-37799Y-2239D01*
X-37771Y-2267D01*
X-37742Y-2324D01*
X-37742Y-2382D01*
X-37771Y-2439D01*
X-37799Y-2467D01*
X-37885Y-2496D01*
X-38142Y-2496D01*
X-37942Y-2496D02*
X-37742Y-2810D01*
X-37436Y-2210D02*
X-37493Y-2239D01*
X-37551Y-2296D01*
X-37579Y-2353D01*
X-37608Y-2439D01*
X-37608Y-2581D01*
X-37579Y-2667D01*
X-37551Y-2724D01*
X-37493Y-2781D01*
X-37436Y-2810D01*
X-37322Y-2810D01*
X-37265Y-2781D01*
X-37208Y-2724D01*
X-37179Y-2667D01*
X-37151Y-2581D01*
X-37151Y-2439D01*
X-37179Y-2353D01*
X-37208Y-2296D01*
X-37265Y-2239D01*
X-37322Y-2210D01*
X-37436Y-2210D01*
X-37011Y-2210D02*
X-37011Y-2639D01*
X-36982Y-2724D01*
X-36925Y-2781D01*
X-36839Y-2810D01*
X-36782Y-2810D01*
X-36697Y-2781D01*
X-36639Y-2724D01*
X-36611Y-2639D01*
X-36611Y-2210D01*
X-36445Y-2210D02*
X-36445Y-2810D01*
X-36445Y-2210D02*
X-36045Y-2810D01*
X-36045Y-2210D02*
X-36045Y-2810D01*
X-35880Y-2210D02*
X-35880Y-2810D01*
X-35880Y-2210D02*
X-35680Y-2210D01*
X-35594Y-2239D01*
X-35537Y-2296D01*
X-35508Y-2353D01*
X-35480Y-2439D01*
X-35480Y-2581D01*
X-35508Y-2667D01*
X-35537Y-2724D01*
X-35594Y-2781D01*
X-35680Y-2810D01*
X-35880Y-2810D01*
X-34874Y-2524D02*
X-34617Y-2524D01*
X-34531Y-2496D01*
X-34503Y-2467D01*
X-34474Y-2410D01*
X-34474Y-2324D01*
X-34503Y-2267D01*
X-34531Y-2239D01*
X-34617Y-2210D01*
X-34874Y-2210D01*
X-34874Y-2810D01*
X-34340Y-2210D02*
X-34340Y-2810D01*
X-33997Y-2810D01*
X-33474Y-2810D02*
X-33703Y-2210D01*
X-33931Y-2810D01*
X-33846Y-2610D02*
X-33560Y-2610D01*
X-33334Y-2210D02*
X-33334Y-2810D01*
X-33334Y-2210D02*
X-32934Y-2810D01*
X-32934Y-2210D02*
X-32934Y-2810D01*
X-32397Y-2210D02*
X-32769Y-2210D01*
X-32769Y-2810D01*
X-32397Y-2810D01*
X-32769Y-2496D02*
X-32540Y-2496D01*
X-31826Y-2324D02*
X-31769Y-2296D01*
X-31683Y-2210D01*
X-31683Y-2810D01*
D95*
X92250Y10250D02*
D03*
X92250Y9250D02*
D03*
X92250Y8250D02*
D03*
X92250Y7250D02*
D03*
X92250Y6250D02*
D03*
X92250Y5250D02*
D03*
X92250Y4250D02*
D03*
X9500Y37000D02*
D03*
X8500Y37000D02*
D03*
X7500Y37000D02*
D03*
X82282Y49400D02*
D03*
X83282Y49400D02*
D03*
X84282Y49400D02*
D03*
X87282Y49400D02*
D03*
X85282Y49400D02*
D03*
X85282Y50400D02*
D03*
X87282Y50400D02*
D03*
X84282Y50400D02*
D03*
X83282Y50400D02*
D03*
X82282Y50400D02*
D03*
X73282Y49400D02*
D03*
X74282Y49400D02*
D03*
X75282Y49400D02*
D03*
X78282Y49400D02*
D03*
X76282Y49400D02*
D03*
X76282Y50400D02*
D03*
X78282Y50400D02*
D03*
X75282Y50400D02*
D03*
X74282Y50400D02*
D03*
X73282Y50400D02*
D03*
X15819Y49400D02*
D03*
X16819Y49400D02*
D03*
X17819Y49400D02*
D03*
X20819Y49400D02*
D03*
X18819Y49400D02*
D03*
X18819Y50400D02*
D03*
X20819Y50400D02*
D03*
X17819Y50400D02*
D03*
X16819Y50400D02*
D03*
X15819Y50400D02*
D03*
X6819Y49400D02*
D03*
X7819Y49400D02*
D03*
X8819Y49400D02*
D03*
X11819Y49400D02*
D03*
X9819Y49400D02*
D03*
X9819Y50400D02*
D03*
X11819Y50400D02*
D03*
X8819Y50400D02*
D03*
X7819Y50400D02*
D03*
X6819Y50400D02*
D03*
X70261Y9264D02*
D03*
X69261Y9264D02*
D03*
X83150Y9250D02*
D03*
X84150Y9250D02*
D03*
X67000Y1500D02*
D03*
X66000Y1500D02*
D03*
X65000Y1500D02*
D03*
X64000Y1500D02*
D03*
X63000Y1500D02*
D03*
X64500Y24000D02*
D03*
X63500Y24000D02*
D03*
X62500Y24000D02*
D03*
X65500Y24000D02*
D03*
D111*
X-13Y3937D02*
G03*
X3924Y0I3937J0D01*
G01*
X90177Y0D02*
G03*
X94114Y3937I0J3937D01*
G01*
X94114Y50394D02*
G03*
X90177Y54331I-3937J0D01*
G01*
X3924Y54331D02*
G03*
X-13Y50394I0J-3937D01*
G01*
X3924Y0D02*
X90177Y0D01*
X94114Y3937D02*
X94114Y50394D01*
X3924Y54331D02*
X90177Y54331D01*
X-13Y3937D02*
X-13Y50394D01*
D112*
X2756Y51181D02*
D03*
X91394Y51181D02*
D03*
X91394Y2756D02*
D03*
X2756Y2756D02*
D03*
D113*
X58620Y48687D02*
D03*
X33813Y48687D02*
D03*
D114*
X56920Y46699D02*
D03*
X35518Y47900D02*
D03*
D115*
X45231Y3490D02*
D03*
D116*
X48066Y3490D02*
D03*
D117*
X45704Y2959D02*
D03*
X46019Y2959D02*
D03*
X46176Y3234D02*
D03*
X46333Y2959D02*
D03*
X46491Y3234D02*
D03*
X46806Y3234D02*
D03*
X46963Y2959D02*
D03*
X47121Y3234D02*
D03*
X47278Y2959D02*
D03*
X47593Y2959D02*
D03*
D118*
X950Y50580D02*
D03*
X950Y49400D02*
D03*
D119*
X7030Y44317D02*
D03*
X7030Y46089D02*
D03*
X87120Y44317D02*
D03*
X87120Y46089D02*
D03*
D120*
X7000Y42900D02*
D03*
X7000Y47506D02*
D03*
X87150Y42900D02*
D03*
X87150Y47506D02*
D03*
D121*
X7112Y31862D02*
D03*
X2388Y27138D02*
D03*
D122*
X4750Y33043D02*
D03*
X3963Y33043D02*
D03*
X1207Y30287D02*
D03*
X1207Y29500D02*
D03*
D123*
X74274Y5241D02*
D03*
X74274Y2485D02*
D03*
D124*
X11902Y24500D02*
D03*
X1150Y24500D02*
D03*
X23150Y21500D02*
D03*
X33902Y21500D02*
D03*
X33902Y24500D02*
D03*
X23150Y24500D02*
D03*
X23150Y10000D02*
D03*
X33902Y10000D02*
D03*
X33902Y7000D02*
D03*
X23150Y7000D02*
D03*
X9402Y7000D02*
D03*
X1150Y7000D02*
D03*
X1150Y21500D02*
D03*
X11902Y21500D02*
D03*
D125*
X11276Y24250D02*
D03*
X11276Y24750D02*
D03*
X10776Y24250D02*
D03*
X10776Y24750D02*
D03*
X10276Y24250D02*
D03*
X10276Y24750D02*
D03*
X9276Y24250D02*
D03*
X9276Y24750D02*
D03*
X8776Y24250D02*
D03*
X8776Y24750D02*
D03*
X7776Y24250D02*
D03*
X7776Y24750D02*
D03*
X7276Y24250D02*
D03*
X7276Y24750D02*
D03*
X6276Y24250D02*
D03*
X6276Y24750D02*
D03*
X5776Y24250D02*
D03*
X5776Y24750D02*
D03*
X4776Y24250D02*
D03*
X4776Y24750D02*
D03*
X4276Y24250D02*
D03*
X4276Y24750D02*
D03*
X2276Y24250D02*
D03*
X2276Y24750D02*
D03*
X1776Y24250D02*
D03*
X1776Y24750D02*
D03*
X2776Y24750D02*
D03*
X3276Y24750D02*
D03*
X2776Y24250D02*
D03*
X3276Y24250D02*
D03*
X23776Y21750D02*
D03*
X23776Y21250D02*
D03*
X24276Y21750D02*
D03*
X24276Y21250D02*
D03*
X24776Y21750D02*
D03*
X24776Y21250D02*
D03*
X25276Y21750D02*
D03*
X25276Y21250D02*
D03*
X26276Y21750D02*
D03*
X26276Y21250D02*
D03*
X26776Y21750D02*
D03*
X26776Y21250D02*
D03*
X27776Y21750D02*
D03*
X27776Y21250D02*
D03*
X28276Y21750D02*
D03*
X28276Y21250D02*
D03*
X29276Y21750D02*
D03*
X29276Y21250D02*
D03*
X29776Y21750D02*
D03*
X29776Y21250D02*
D03*
X30776Y21750D02*
D03*
X30776Y21250D02*
D03*
X31276Y21750D02*
D03*
X31276Y21250D02*
D03*
X32276Y21750D02*
D03*
X32276Y21250D02*
D03*
X32776Y21750D02*
D03*
X32776Y21250D02*
D03*
X33276Y21750D02*
D03*
X33276Y21250D02*
D03*
X33276Y24250D02*
D03*
X33276Y24750D02*
D03*
X32776Y24250D02*
D03*
X32776Y24750D02*
D03*
X32276Y24250D02*
D03*
X32276Y24750D02*
D03*
X31276Y24250D02*
D03*
X31276Y24750D02*
D03*
X30776Y24250D02*
D03*
X30776Y24750D02*
D03*
X29776Y24250D02*
D03*
X29776Y24750D02*
D03*
X29276Y24250D02*
D03*
X29276Y24750D02*
D03*
X28276Y24250D02*
D03*
X28276Y24750D02*
D03*
X27776Y24250D02*
D03*
X27776Y24750D02*
D03*
X26776Y24250D02*
D03*
X26776Y24750D02*
D03*
X26276Y24250D02*
D03*
X26276Y24750D02*
D03*
X25276Y24250D02*
D03*
X25276Y24750D02*
D03*
X24776Y24250D02*
D03*
X24776Y24750D02*
D03*
X24276Y24250D02*
D03*
X24276Y24750D02*
D03*
X23776Y24250D02*
D03*
X23776Y24750D02*
D03*
X23776Y10250D02*
D03*
X23776Y9750D02*
D03*
X24276Y10250D02*
D03*
X24276Y9750D02*
D03*
X24776Y10250D02*
D03*
X24776Y9750D02*
D03*
X25776Y10250D02*
D03*
X25776Y9750D02*
D03*
X26276Y10250D02*
D03*
X26276Y9750D02*
D03*
X27276Y9750D02*
D03*
X27776Y9750D02*
D03*
X28776Y10250D02*
D03*
X28776Y9750D02*
D03*
X29276Y10250D02*
D03*
X29276Y9750D02*
D03*
X30276Y10250D02*
D03*
X30276Y9750D02*
D03*
X30776Y10250D02*
D03*
X30776Y9750D02*
D03*
X31776Y10250D02*
D03*
X31776Y9750D02*
D03*
X32276Y10250D02*
D03*
X32276Y9750D02*
D03*
X32776Y10250D02*
D03*
X32776Y9750D02*
D03*
X33276Y10250D02*
D03*
X33276Y9750D02*
D03*
X27776Y10250D02*
D03*
X27276Y10250D02*
D03*
X33276Y6750D02*
D03*
X33276Y7250D02*
D03*
X32776Y6750D02*
D03*
X32776Y7250D02*
D03*
X32276Y6750D02*
D03*
X32276Y7250D02*
D03*
X31776Y6750D02*
D03*
X31776Y7250D02*
D03*
X30776Y6750D02*
D03*
X30776Y7250D02*
D03*
X30276Y6750D02*
D03*
X30276Y7250D02*
D03*
X29276Y6750D02*
D03*
X29276Y7250D02*
D03*
X28776Y6750D02*
D03*
X28776Y7250D02*
D03*
X27776Y6750D02*
D03*
X27776Y7250D02*
D03*
X27276Y6750D02*
D03*
X27276Y7250D02*
D03*
X26276Y6750D02*
D03*
X26276Y7250D02*
D03*
X25776Y6750D02*
D03*
X25776Y7250D02*
D03*
X24776Y6750D02*
D03*
X24776Y7250D02*
D03*
X24276Y6750D02*
D03*
X24276Y7250D02*
D03*
X23776Y6750D02*
D03*
X23776Y7250D02*
D03*
X1776Y7250D02*
D03*
X1776Y6750D02*
D03*
X2776Y6750D02*
D03*
X3276Y7250D02*
D03*
X3276Y6750D02*
D03*
X3776Y7250D02*
D03*
X3776Y6750D02*
D03*
X4276Y6750D02*
D03*
X4776Y7250D02*
D03*
X4776Y6750D02*
D03*
X5276Y7250D02*
D03*
X5276Y6750D02*
D03*
X5776Y7250D02*
D03*
X5776Y6750D02*
D03*
X6276Y7250D02*
D03*
X6276Y6750D02*
D03*
X7276Y7250D02*
D03*
X7276Y6750D02*
D03*
X8276Y7250D02*
D03*
X8276Y6750D02*
D03*
X8776Y7250D02*
D03*
X8776Y6750D02*
D03*
X1776Y21750D02*
D03*
X1776Y21250D02*
D03*
X2276Y21750D02*
D03*
X2276Y21250D02*
D03*
X4276Y21750D02*
D03*
X4776Y21750D02*
D03*
X5776Y21750D02*
D03*
X5776Y21250D02*
D03*
X6276Y21750D02*
D03*
X6276Y21250D02*
D03*
X7276Y21750D02*
D03*
X7276Y21250D02*
D03*
X7776Y21750D02*
D03*
X7776Y21250D02*
D03*
X8776Y21750D02*
D03*
X8776Y21250D02*
D03*
X9276Y21750D02*
D03*
X9276Y21250D02*
D03*
X10276Y21750D02*
D03*
X10276Y21250D02*
D03*
X10776Y21750D02*
D03*
X10776Y21250D02*
D03*
X11276Y21750D02*
D03*
X11276Y21250D02*
D03*
X3276Y21750D02*
D03*
X2776Y21750D02*
D03*
X4276Y21250D02*
D03*
X4776Y21250D02*
D03*
X3276Y21250D02*
D03*
X2776Y21250D02*
D03*
D126*
X89614Y14141D02*
D03*
X88250Y25500D02*
D03*
D127*
X84500Y19259D02*
D03*
X91595Y21602D02*
D03*
X91956Y21602D02*
D03*
X92317Y21602D02*
D03*
X91495Y13109D02*
D03*
X91856Y13109D02*
D03*
X92217Y13109D02*
D03*
X79700Y14900D02*
D03*
X79700Y15261D02*
D03*
X79700Y15622D02*
D03*
X42100Y14215D02*
D03*
X42100Y13985D02*
D03*
X42100Y15065D02*
D03*
X42100Y14835D02*
D03*
X42100Y15685D02*
D03*
X42100Y15915D02*
D03*
X57750Y600D02*
D03*
X24200Y35885D02*
D03*
X21300Y35885D02*
D03*
X55219Y48400D02*
D03*
X24200Y36115D02*
D03*
X21300Y36115D02*
D03*
X55219Y48900D02*
D03*
X53219Y48900D02*
D03*
X26315Y39615D02*
D03*
X53219Y48400D02*
D03*
X26315Y39385D02*
D03*
X50219Y46900D02*
D03*
X50719Y46900D02*
D03*
X47219Y46900D02*
D03*
X47719Y46900D02*
D03*
X20700Y40115D02*
D03*
X54219Y50400D02*
D03*
X20700Y39885D02*
D03*
X54219Y49900D02*
D03*
X23465Y40865D02*
D03*
X54219Y49400D02*
D03*
X23465Y40635D02*
D03*
X54219Y48900D02*
D03*
X48719Y48400D02*
D03*
X19800Y37385D02*
D03*
X48219Y48400D02*
D03*
X19800Y37615D02*
D03*
X48719Y46400D02*
D03*
X20300Y37115D02*
D03*
X49219Y46400D02*
D03*
X20300Y36885D02*
D03*
X49719Y48900D02*
D03*
X20800Y36385D02*
D03*
X49219Y48900D02*
D03*
X20800Y36615D02*
D03*
X50719Y46400D02*
D03*
X51219Y46400D02*
D03*
X52219Y46900D02*
D03*
X51719Y46900D02*
D03*
X45719Y46900D02*
D03*
X46219Y46900D02*
D03*
X46219Y48900D02*
D03*
X46719Y48900D02*
D03*
X50219Y48400D02*
D03*
X49719Y48400D02*
D03*
X44719Y46400D02*
D03*
X45219Y46400D02*
D03*
X5500Y4500D02*
D03*
X23000Y43500D02*
D03*
X1635Y50265D02*
D03*
X8250Y52750D02*
D03*
X52219Y48900D02*
D03*
X52719Y48900D02*
D03*
X47219Y48400D02*
D03*
X46719Y48400D02*
D03*
X48719Y46900D02*
D03*
X49219Y46900D02*
D03*
X36500Y35500D02*
D03*
X36250Y35750D02*
D03*
X36000Y36000D02*
D03*
X36750Y35250D02*
D03*
X37000Y35000D02*
D03*
X37250Y34750D02*
D03*
X37500Y34500D02*
D03*
X37750Y34250D02*
D03*
X38000Y34000D02*
D03*
X38250Y33750D02*
D03*
X29833Y44799D02*
D03*
X29803Y45144D02*
D03*
X38500Y20300D02*
D03*
X38500Y21300D02*
D03*
X24276Y25750D02*
D03*
X21350Y22000D02*
D03*
X32500Y15250D02*
D03*
X34250Y18750D02*
D03*
X61250Y50500D02*
D03*
X61250Y51000D02*
D03*
X4000Y26000D02*
D03*
X2276Y25750D02*
D03*
X2276Y22750D02*
D03*
X4250Y16500D02*
D03*
X1750Y17250D02*
D03*
X22250Y12000D02*
D03*
X24250Y12000D02*
D03*
X36900Y10085D02*
D03*
X44898Y23450D02*
D03*
X36900Y10315D02*
D03*
X44668Y23450D02*
D03*
X32544Y12950D02*
D03*
X33250Y12615D02*
D03*
X43487Y23450D02*
D03*
X33250Y12385D02*
D03*
X32544Y12050D02*
D03*
X43717Y23450D02*
D03*
X30844Y12635D02*
D03*
X30137Y12300D02*
D03*
X43127Y23450D02*
D03*
X30137Y13200D02*
D03*
X30844Y12865D02*
D03*
X42897Y23450D02*
D03*
X42306Y23450D02*
D03*
X27444Y13450D02*
D03*
X42536Y23450D02*
D03*
X27444Y12550D02*
D03*
X28150Y12885D02*
D03*
X28150Y13115D02*
D03*
X49500Y467D02*
D03*
X51000Y467D02*
D03*
X52250Y467D02*
D03*
X52520Y6476D02*
D03*
X52087Y6476D02*
D03*
X49843Y6949D02*
D03*
X51435Y5129D02*
D03*
X46763Y5200D02*
D03*
X46533Y5200D02*
D03*
X51825Y5371D02*
D03*
X51825Y5601D02*
D03*
X53583Y7264D02*
D03*
X44500Y12000D02*
D03*
X44500Y10750D02*
D03*
X42250Y6500D02*
D03*
X47042Y11800D02*
D03*
X53740Y10492D02*
D03*
X52008Y11398D02*
D03*
X51811Y11004D02*
D03*
X51614Y11398D02*
D03*
X51220Y11004D02*
D03*
X49843Y10413D02*
D03*
X49646Y9626D02*
D03*
X49941Y9685D02*
D03*
X56732Y10217D02*
D03*
X50827Y10925D02*
D03*
X49252Y8307D02*
D03*
X50394Y11004D02*
D03*
X53012Y13189D02*
D03*
X52992Y12776D02*
D03*
X52992Y12382D02*
D03*
X52992Y11988D02*
D03*
X52598Y11988D02*
D03*
X52205Y11988D02*
D03*
X52598Y13169D02*
D03*
X52598Y12382D02*
D03*
X52598Y12776D02*
D03*
X52205Y12382D02*
D03*
X52205Y12776D02*
D03*
X53976Y8504D02*
D03*
X56063Y6476D02*
D03*
X56457Y6476D02*
D03*
X53976Y9488D02*
D03*
X51250Y3603D02*
D03*
X50750Y3603D02*
D03*
X50250Y3603D02*
D03*
X49750Y3603D02*
D03*
X49250Y3600D02*
D03*
X48071Y11004D02*
D03*
X46058Y9508D02*
D03*
X47042Y9500D02*
D03*
X46050Y11750D02*
D03*
X48065Y9215D02*
D03*
X47635Y8185D02*
D03*
X48065Y8985D02*
D03*
X47865Y8185D02*
D03*
X47200Y8585D02*
D03*
X47200Y8815D02*
D03*
X45878Y8900D02*
D03*
X45648Y8900D02*
D03*
X58250Y2250D02*
D03*
X58250Y2750D02*
D03*
X71250Y4126D02*
D03*
X59553Y2250D02*
D03*
X59553Y2750D02*
D03*
X60250Y2500D02*
D03*
X59553Y3750D02*
D03*
X52250Y3500D02*
D03*
X53750Y4250D02*
D03*
X53250Y4250D02*
D03*
X53750Y5565D02*
D03*
X53500Y467D02*
D03*
X52000Y4200D02*
D03*
X47047Y4500D02*
D03*
X46250Y4500D02*
D03*
X90598Y15126D02*
D03*
X87744Y15322D02*
D03*
X87154Y16208D02*
D03*
X86563Y16208D02*
D03*
X86366Y16602D02*
D03*
X84299Y16307D02*
D03*
X85480Y17291D02*
D03*
X85087Y17291D02*
D03*
X80759Y19967D02*
D03*
X80759Y19606D02*
D03*
X80759Y19245D02*
D03*
X80759Y18884D02*
D03*
X85854Y17980D02*
D03*
X86760Y18374D02*
D03*
X87154Y18374D02*
D03*
X88433Y18275D02*
D03*
X89555Y17685D02*
D03*
X89319Y17488D02*
D03*
X90205Y14732D02*
D03*
X84693Y17291D02*
D03*
X84693Y17685D02*
D03*
X84299Y17685D02*
D03*
X84299Y17291D02*
D03*
X26139Y49798D02*
D03*
X26739Y49798D02*
D03*
X25539Y49798D02*
D03*
X27339Y49798D02*
D03*
X25748Y46325D02*
D03*
X28819Y46325D02*
D03*
X29488Y44789D02*
D03*
X61721Y30287D02*
D03*
X60933Y30287D02*
D03*
X58670Y29805D02*
D03*
X58493Y28279D02*
D03*
X56504Y27826D02*
D03*
X56524Y28220D02*
D03*
X56544Y28614D02*
D03*
X60599Y30582D02*
D03*
X57750Y29450D02*
D03*
X53355Y27334D02*
D03*
X51583Y27334D02*
D03*
X48138Y29874D02*
D03*
X48433Y30169D02*
D03*
X48433Y29578D02*
D03*
X47843Y29578D02*
D03*
X47843Y30169D02*
D03*
X47548Y29874D02*
D03*
X62223Y33683D02*
D03*
X62508Y32374D02*
D03*
X60441Y34421D02*
D03*
X60540Y30287D02*
D03*
X60933Y35897D02*
D03*
X12200Y1550D02*
D03*
X11950Y1300D02*
D03*
X12450Y1300D02*
D03*
X12700Y1550D02*
D03*
X9700Y3050D02*
D03*
X12700Y2050D02*
D03*
X12700Y3050D02*
D03*
X38250Y27250D02*
D03*
X38250Y27750D02*
D03*
X37750Y27750D02*
D03*
X37750Y27250D02*
D03*
X38000Y27000D02*
D03*
X39000Y26750D02*
D03*
X41230Y25043D02*
D03*
X40923Y25043D02*
D03*
X40581Y26656D02*
D03*
X78000Y2052D02*
D03*
X67080Y18817D02*
D03*
X66261Y20264D02*
D03*
X68261Y19264D02*
D03*
X68458Y19014D02*
D03*
X68655Y19264D02*
D03*
X68852Y19014D02*
D03*
X69245Y19014D02*
D03*
X69048Y19264D02*
D03*
X69442Y19264D02*
D03*
X69639Y18764D02*
D03*
X69511Y21264D02*
D03*
X72011Y18514D02*
D03*
X66883Y13914D02*
D03*
X66061Y12514D02*
D03*
X66561Y12514D02*
D03*
X67061Y12514D02*
D03*
X67561Y12514D02*
D03*
X71261Y17264D02*
D03*
X71511Y17514D02*
D03*
X73361Y14086D02*
D03*
X73861Y14086D02*
D03*
X74361Y14086D02*
D03*
X74861Y14086D02*
D03*
X13175Y9247D02*
D03*
X17448Y9250D02*
D03*
X15650Y6750D02*
D03*
X15000Y5900D02*
D03*
X16250Y3950D02*
D03*
X15400Y7000D02*
D03*
X15050Y6750D02*
D03*
X15050Y6400D02*
D03*
X18600Y6550D02*
D03*
X9078Y9150D02*
D03*
X7506Y12352D02*
D03*
X10022Y9000D02*
D03*
X10652Y9016D02*
D03*
X9000Y14500D02*
D03*
X9000Y14000D02*
D03*
X8969Y43825D02*
D03*
X1654Y38327D02*
D03*
X4900Y37000D02*
D03*
X7000Y39400D02*
D03*
X4565Y37500D02*
D03*
X4876Y41000D02*
D03*
X68766Y53185D02*
D03*
X69500Y51000D02*
D03*
X68250Y53000D02*
D03*
X1500Y35000D02*
D03*
X1500Y34500D02*
D03*
X2000Y33750D02*
D03*
X2500Y33750D02*
D03*
X10507Y11722D02*
D03*
X10507Y11407D02*
D03*
X11860Y10463D02*
D03*
X11860Y10148D02*
D03*
X15900Y1876D02*
D03*
X10250Y6500D02*
D03*
X8750Y11000D02*
D03*
X40000Y2065D02*
D03*
X49921Y6248D02*
D03*
X40000Y1835D02*
D03*
X49921Y6018D02*
D03*
X1565Y33100D02*
D03*
X12585Y15950D02*
D03*
X1335Y33100D02*
D03*
X12815Y15950D02*
D03*
X9100Y42750D02*
D03*
X90500Y48500D02*
D03*
X1250Y47750D02*
D03*
X38600Y13350D02*
D03*
X37906Y8550D02*
D03*
X37906Y8250D02*
D03*
X23000Y11500D02*
D03*
X4006Y34606D02*
D03*
X7900Y34803D02*
D03*
X2250Y16500D02*
D03*
X2750Y16750D02*
D03*
X9750Y10850D02*
D03*
X9980Y10850D02*
D03*
X18600Y8000D02*
D03*
X10750Y4750D02*
D03*
X13000Y7500D02*
D03*
X30776Y5250D02*
D03*
X30276Y5250D02*
D03*
X35500Y7750D02*
D03*
X36000Y8000D02*
D03*
X36250Y8250D02*
D03*
X19500Y6750D02*
D03*
X21000Y5250D02*
D03*
X20750Y5000D02*
D03*
X24276Y4750D02*
D03*
X26276Y6000D02*
D03*
X25776Y5750D02*
D03*
X24776Y5500D02*
D03*
X22750Y4750D02*
D03*
X28250Y4000D02*
D03*
X22250Y4500D02*
D03*
X21000Y8750D02*
D03*
X44250Y10500D02*
D03*
X43000Y10750D02*
D03*
X41250Y11250D02*
D03*
X29500Y8750D02*
D03*
X35500Y9500D02*
D03*
X35500Y11400D02*
D03*
X36600Y11000D02*
D03*
X36757Y11707D02*
D03*
X42250Y26000D02*
D03*
X39450Y27100D02*
D03*
X39450Y26750D02*
D03*
X47244Y25250D02*
D03*
X45750Y25250D02*
D03*
X45750Y26250D02*
D03*
X47250Y26250D02*
D03*
X45500Y27550D02*
D03*
X45000Y28500D02*
D03*
X40994Y28894D02*
D03*
X36100Y28000D02*
D03*
X35550Y26550D02*
D03*
X35550Y26875D02*
D03*
X35150Y27200D02*
D03*
X35550Y27200D02*
D03*
X35750Y30750D02*
D03*
X36000Y15250D02*
D03*
X45250Y7250D02*
D03*
X49606Y7919D02*
D03*
X45250Y6750D02*
D03*
X49606Y7689D02*
D03*
X51435Y4899D02*
D03*
X67080Y19750D02*
D03*
X68000Y20764D02*
D03*
X68000Y20264D02*
D03*
X63750Y17750D02*
D03*
X63500Y18000D02*
D03*
X63250Y18250D02*
D03*
X63000Y18500D02*
D03*
X35250Y15500D02*
D03*
X34750Y15500D02*
D03*
X35500Y15750D02*
D03*
X35000Y15750D02*
D03*
X37500Y22500D02*
D03*
X36750Y19250D02*
D03*
X33750Y19250D02*
D03*
X61632Y33683D02*
D03*
X46000Y22500D02*
D03*
X46000Y21750D02*
D03*
X45500Y20250D02*
D03*
X36719Y47400D02*
D03*
X36219Y46900D02*
D03*
X37219Y46900D02*
D03*
X37719Y46400D02*
D03*
X36719Y46400D02*
D03*
X38219Y46900D02*
D03*
X55719Y48900D02*
D03*
X40219Y46900D02*
D03*
X38719Y46400D02*
D03*
X55219Y49400D02*
D03*
X55719Y45900D02*
D03*
X47719Y48900D02*
D03*
X48219Y48900D02*
D03*
X51219Y48900D02*
D03*
X50719Y48900D02*
D03*
X51219Y48400D02*
D03*
X51719Y48400D02*
D03*
X47219Y46400D02*
D03*
X46719Y46400D02*
D03*
X35900Y12370D02*
D03*
X35194Y12035D02*
D03*
X44308Y23450D02*
D03*
X35194Y12935D02*
D03*
X35900Y12600D02*
D03*
X44078Y23450D02*
D03*
X55469Y43650D02*
D03*
X11750Y25250D02*
D03*
X32276Y5250D02*
D03*
X28776Y5250D02*
D03*
X31776Y5250D02*
D03*
X29276Y5250D02*
D03*
X10250Y39500D02*
D03*
X21750Y9500D02*
D03*
X21500Y9750D02*
D03*
X60550Y27000D02*
D03*
X59752Y28909D02*
D03*
X60176Y26750D02*
D03*
X73750Y30750D02*
D03*
X74500Y31000D02*
D03*
X73000Y35250D02*
D03*
X65000Y35650D02*
D03*
X75647Y34250D02*
D03*
X41732Y22500D02*
D03*
X49750Y24500D02*
D03*
X47835Y25250D02*
D03*
X48032Y25050D02*
D03*
X48228Y24822D02*
D03*
X50000Y24750D02*
D03*
X36500Y22750D02*
D03*
X35750Y22750D02*
D03*
X36500Y6500D02*
D03*
X34750Y6500D02*
D03*
X42100Y13135D02*
D03*
X42100Y13365D02*
D03*
X46000Y18500D02*
D03*
X45750Y18000D02*
D03*
X45500Y17500D02*
D03*
X46250Y17750D02*
D03*
X45250Y18250D02*
D03*
X45000Y17250D02*
D03*
X50750Y24250D02*
D03*
X51000Y24000D02*
D03*
X50750Y23750D02*
D03*
X56750Y24250D02*
D03*
X57000Y24000D02*
D03*
X56750Y23750D02*
D03*
X84700Y15200D02*
D03*
X85500Y15200D02*
D03*
X36335Y1485D02*
D03*
X36565Y1485D02*
D03*
X61500Y4750D02*
D03*
X61500Y4250D02*
D03*
X61250Y4500D02*
D03*
X58803Y4750D02*
D03*
X61000Y3500D02*
D03*
X57250Y5250D02*
D03*
X54992Y4750D02*
D03*
X67750Y1750D02*
D03*
X53740Y10807D02*
D03*
X23750Y46750D02*
D03*
X28050Y27200D02*
D03*
X50001Y8701D02*
D03*
X30459Y44159D02*
D03*
X28750Y26750D02*
D03*
X35750Y23100D02*
D03*
X36500Y23100D02*
D03*
X47750Y15950D02*
D03*
X56505Y21021D02*
D03*
X56055Y21021D02*
D03*
X27500Y29500D02*
D03*
X29169Y44500D02*
D03*
X34750Y26550D02*
D03*
X34750Y27200D02*
D03*
X35150Y26550D02*
D03*
X34750Y26875D02*
D03*
X35150Y26875D02*
D03*
X6250Y34250D02*
D03*
X58150Y32950D02*
D03*
X58150Y33400D02*
D03*
X58150Y33850D02*
D03*
X58150Y34300D02*
D03*
X39969Y52150D02*
D03*
X39469Y52150D02*
D03*
X38969Y52150D02*
D03*
X38469Y52150D02*
D03*
X37969Y52150D02*
D03*
X37469Y52150D02*
D03*
X36969Y52150D02*
D03*
X36469Y52150D02*
D03*
X35969Y52150D02*
D03*
X41219Y46400D02*
D03*
X40719Y46400D02*
D03*
X6500Y34000D02*
D03*
X41669Y52350D02*
D03*
X41969Y52150D02*
D03*
X36719Y48900D02*
D03*
X36219Y49400D02*
D03*
X36219Y48400D02*
D03*
X60100Y33550D02*
D03*
X60100Y33150D02*
D03*
X27050Y11900D02*
D03*
X27056Y14100D02*
D03*
X29744Y11650D02*
D03*
X29744Y13850D02*
D03*
X32150Y11400D02*
D03*
X32150Y13600D02*
D03*
X34800Y13585D02*
D03*
X34800Y11385D02*
D03*
X59400Y28712D02*
D03*
X51000Y1650D02*
D03*
X52550Y2550D02*
D03*
X53100Y2500D02*
D03*
X72250Y34500D02*
D03*
M02*
