G04 Layer_Color=8388736*
%FSLAX24Y24*%
%MOIN*%
G70*
G01*
G75*
%ADD10C,0.0050*%
%ADD88C,0.0100*%
%ADD92C,0.0060*%
D10*
X97819Y-4000D02*
X97819Y4000D01*
X93819Y0D02*
X101819Y0D01*
X93819Y65000D02*
X101819Y65000D01*
X97819Y61000D02*
X97819Y69000D01*
X-32181Y61000D02*
X-32181Y69000D01*
X-36181Y65000D02*
X-28181Y65000D01*
D88*
X-14991Y-6414D02*
X-14934Y-6386D01*
X-14848Y-6300D01*
X-14848Y-6900D01*
X-14380Y-6300D02*
X-14466Y-6329D01*
X-14523Y-6414D01*
X-14551Y-6557D01*
X-14551Y-6643D01*
X-14523Y-6786D01*
X-14466Y-6871D01*
X-14380Y-6900D01*
X-14323Y-6900D01*
X-14237Y-6871D01*
X-14180Y-6786D01*
X-14151Y-6643D01*
X-14151Y-6557D01*
X-14180Y-6414D01*
X-14237Y-6329D01*
X-14323Y-6300D01*
X-14380Y-6300D01*
D92*
X100819Y0D02*
G03*
X100819Y0I-3000J0D01*
G01*
X99819Y0D02*
G03*
X99819Y0I-2000J0D01*
G01*
X98819Y0D02*
G03*
X98819Y0I-1000J0D01*
G01*
X98819Y65000D02*
G03*
X98819Y65000I-1000J0D01*
G01*
X99819Y65000D02*
G03*
X99819Y65000I-2000J0D01*
G01*
X100819Y65000D02*
G03*
X100819Y65000I-3000J0D01*
G01*
X-31181Y65000D02*
G03*
X-31181Y65000I-1000J0D01*
G01*
X-30181Y65000D02*
G03*
X-30181Y65000I-2000J0D01*
G01*
X-29181Y65000D02*
G03*
X-29181Y65000I-3000J0D01*
G01*
M02*
