G04 Layer_Color=16711935*
%FSLAX24Y24*%
%MOIN*%
G70*
G01*
G75*
%ADD88C,0.0100*%
%ADD158C,0.0039*%
%ADD298C,0.0070*%
%ADD299C,0.0040*%
%ADD300R,0.0315X0.0157*%
G36*
X51280Y2844D02*
X51329Y2844D01*
X51329Y2819D01*
X51280Y2819D01*
X51280Y2792D01*
X51258Y2792D01*
X51258Y2819D01*
X51127Y2819D01*
X51127Y2839D01*
X51258Y2932D01*
X51280Y2932D01*
X51280Y2844D01*
X51280Y2844D02*
G37*
G36*
X51329Y3044D02*
X51328Y3037D01*
X51328Y3031D01*
X51328Y3025D01*
X51327Y3021D01*
X51326Y3017D01*
X51326Y3014D01*
X51326Y3013D01*
X51326Y3012D01*
X51326Y3012D01*
X51326Y3011D01*
X51324Y3006D01*
X51322Y3001D01*
X51321Y2997D01*
X51319Y2994D01*
X51318Y2991D01*
X51317Y2989D01*
X51316Y2988D01*
X51315Y2987D01*
X51313Y2983D01*
X51310Y2980D01*
X51307Y2977D01*
X51304Y2974D01*
X51301Y2972D01*
X51299Y2970D01*
X51298Y2969D01*
X51297Y2969D01*
X51292Y2966D01*
X51287Y2963D01*
X51283Y2961D01*
X51278Y2959D01*
X51274Y2957D01*
X51271Y2956D01*
X51270Y2956D01*
X51269Y2956D01*
X51268Y2955D01*
X51268Y2955D01*
X51261Y2953D01*
X51254Y2952D01*
X51247Y2951D01*
X51241Y2950D01*
X51235Y2950D01*
X51233Y2950D01*
X51231Y2950D01*
X51227Y2950D01*
X51217Y2950D01*
X51208Y2951D01*
X51200Y2952D01*
X51196Y2953D01*
X51193Y2954D01*
X51190Y2955D01*
X51187Y2955D01*
X51185Y2956D01*
X51183Y2957D01*
X51181Y2957D01*
X51180Y2958D01*
X51179Y2958D01*
X51179Y2958D01*
X51172Y2961D01*
X51165Y2965D01*
X51159Y2969D01*
X51154Y2973D01*
X51150Y2976D01*
X51147Y2979D01*
X51146Y2980D01*
X51145Y2981D01*
X51145Y2981D01*
X51145Y2982D01*
X51141Y2986D01*
X51138Y2991D01*
X51136Y2996D01*
X51133Y3001D01*
X51132Y3005D01*
X51131Y3008D01*
X51131Y3009D01*
X51131Y3010D01*
X51130Y3011D01*
X51130Y3011D01*
X51129Y3016D01*
X51129Y3022D01*
X51128Y3028D01*
X51128Y3034D01*
X51127Y3039D01*
X51127Y3041D01*
X51127Y3043D01*
X51127Y3045D01*
X51127Y3046D01*
X51127Y3047D01*
X51127Y3047D01*
X51127Y3116D01*
X51329Y3116D01*
X51329Y3044D01*
X51329Y3044D02*
G37*
%LPC*%
G36*
X51258Y2907D02*
X51168Y2844D01*
X51258Y2844D01*
X51258Y2907D01*
X51258Y2907D02*
G37*
G36*
X51305Y3089D02*
X51151Y3089D01*
X51151Y3047D01*
X51151Y3043D01*
X51152Y3039D01*
X51152Y3035D01*
X51152Y3032D01*
X51153Y3026D01*
X51153Y3021D01*
X51154Y3017D01*
X51155Y3015D01*
X51155Y3013D01*
X51156Y3013D01*
X51158Y3008D01*
X51161Y3003D01*
X51165Y2998D01*
X51169Y2995D01*
X51172Y2992D01*
X51175Y2989D01*
X51177Y2989D01*
X51177Y2988D01*
X51178Y2988D01*
X51178Y2988D01*
X51181Y2986D01*
X51185Y2984D01*
X51193Y2981D01*
X51201Y2980D01*
X51209Y2978D01*
X51212Y2978D01*
X51216Y2978D01*
X51219Y2977D01*
X51221Y2977D01*
X51224Y2977D01*
X51227Y2977D01*
X51235Y2977D01*
X51242Y2978D01*
X51249Y2979D01*
X51255Y2980D01*
X51257Y2980D01*
X51259Y2981D01*
X51261Y2981D01*
X51263Y2982D01*
X51264Y2982D01*
X51265Y2982D01*
X51265Y2983D01*
X51266Y2983D01*
X51271Y2985D01*
X51276Y2987D01*
X51280Y2990D01*
X51284Y2992D01*
X51287Y2994D01*
X51289Y2996D01*
X51290Y2997D01*
X51291Y2997D01*
X51293Y3000D01*
X51295Y3003D01*
X51297Y3006D01*
X51299Y3009D01*
X51300Y3011D01*
X51301Y3013D01*
X51301Y3015D01*
X51301Y3015D01*
X51303Y3020D01*
X51303Y3025D01*
X51304Y3030D01*
X51304Y3035D01*
X51305Y3040D01*
X51305Y3042D01*
X51305Y3043D01*
X51305Y3045D01*
X51305Y3046D01*
X51305Y3046D01*
X51305Y3047D01*
X51305Y3089D01*
X51305Y3089D02*
G37*
%LPD*%
D88*
X-14820Y-1300D02*
X-14905Y-1329D01*
X-14963Y-1414D01*
X-14991Y-1557D01*
X-14991Y-1643D01*
X-14963Y-1786D01*
X-14905Y-1871D01*
X-14820Y-1900D01*
X-14763Y-1900D01*
X-14677Y-1871D01*
X-14620Y-1786D01*
X-14591Y-1643D01*
X-14591Y-1557D01*
X-14620Y-1414D01*
X-14677Y-1329D01*
X-14763Y-1300D01*
X-14820Y-1300D01*
X-14114Y-1300D02*
X-14400Y-1300D01*
X-14428Y-1557D01*
X-14400Y-1529D01*
X-14314Y-1500D01*
X-14228Y-1500D01*
X-14143Y-1529D01*
X-14086Y-1586D01*
X-14057Y-1671D01*
X-14057Y-1729D01*
X-14086Y-1814D01*
X-14143Y-1871D01*
X-14228Y-1900D01*
X-14314Y-1900D01*
X-14400Y-1871D01*
X-14428Y-1843D01*
X-14457Y-1786D01*
D158*
X50689Y7579D02*
G03*
X50689Y7579I-79J0D01*
G01*
X56085Y3446D02*
G03*
X56035Y3396I0J-50D01*
G01*
X56035Y1960D02*
G03*
X56085Y1910I50J0D01*
G01*
X57965Y3396D02*
G03*
X57915Y3446I-50J-0D01*
G01*
X57915Y1910D02*
G03*
X57965Y1960I-0J50D01*
G01*
X57856Y3061D02*
G03*
X57856Y3061I-118J0D01*
G01*
X52416Y4837D02*
G03*
X52416Y4837I-70J0D01*
G01*
X90431Y18246D02*
X93069Y18246D01*
X93069Y21277D01*
X90431Y21277D02*
X93069Y21277D01*
X90431Y18246D02*
X90431Y21277D01*
X84116Y18081D02*
X84116Y20719D01*
X81084Y20719D02*
X84116Y20719D01*
X81084Y18081D02*
X81084Y20719D01*
X81084Y18081D02*
X84116Y18081D01*
X83316Y13931D02*
X83316Y16569D01*
X80284Y16569D02*
X83316Y16569D01*
X80284Y13931D02*
X80284Y16569D01*
X80284Y13931D02*
X83316Y13931D01*
X90331Y16466D02*
X92969Y16466D01*
X90331Y13434D02*
X90331Y16466D01*
X90331Y13434D02*
X92969Y13434D01*
X92969Y16466D01*
X50315Y10354D02*
X50551Y10591D01*
X53268Y10591D02*
X53504Y10354D01*
X53268Y7402D02*
X53504Y7638D01*
X50315Y7638D02*
X50551Y7402D01*
X53504Y7638D02*
X53504Y10354D01*
X50551Y7402D02*
X53268Y7402D01*
X50551Y10591D02*
X53268Y10591D01*
X50315Y7638D02*
X50315Y10354D01*
X56035Y1960D02*
X56035Y1960D01*
X56035Y3396D02*
X56035Y3396D01*
X56035Y2808D02*
X56035Y3396D01*
X56035Y2749D02*
X56035Y2808D01*
X57965Y3396D02*
X57965Y3396D01*
X56035Y2607D02*
X56035Y2749D01*
X56035Y1960D02*
X56035Y2548D01*
X56085Y3446D02*
X56085Y3446D01*
X57965Y1960D02*
X57965Y2548D01*
X56085Y1910D02*
X56085Y1910D01*
X57965Y2607D02*
X57965Y2749D01*
X57965Y2808D02*
X57965Y3396D01*
X56085Y1910D02*
X57915Y1910D01*
X57965Y2607D02*
X57965Y2548D01*
X57915Y3446D02*
X57915Y3446D01*
X57915Y1910D02*
X57915Y1910D01*
X56085Y3446D02*
X57915Y3446D01*
X57965Y2749D02*
X57965Y2808D01*
X56035Y2607D02*
X56035Y2548D01*
X57965Y1960D02*
X57965Y1960D01*
X56175Y3859D02*
X56325Y3859D01*
X56175Y3697D02*
X56175Y3859D01*
X56325Y3697D02*
X56325Y3612D01*
X56175Y3612D02*
X56175Y3463D01*
X56325Y3463D02*
X56325Y3612D01*
X56175Y3463D02*
X56175Y3446D01*
X56325Y3697D02*
X56325Y3859D01*
X56175Y3612D02*
X56175Y3697D01*
X56325Y3446D02*
X56325Y3463D01*
X56175Y3446D02*
X56325Y3446D01*
X56175Y3612D02*
X56325Y3612D01*
X56675Y3859D02*
X56825Y3859D01*
X56675Y3697D02*
X56675Y3859D01*
X56825Y3612D02*
X56825Y3697D01*
X56675Y3463D02*
X56675Y3612D01*
X56825Y3463D02*
X56825Y3612D01*
X56675Y3446D02*
X56675Y3463D01*
X56825Y3697D02*
X56825Y3859D01*
X56675Y3612D02*
X56675Y3697D01*
X56825Y3446D02*
X56825Y3463D01*
X56675Y3446D02*
X56825Y3446D01*
X56675Y3612D02*
X56825Y3612D01*
X57175Y3859D02*
X57325Y3859D01*
X57175Y3697D02*
X57175Y3859D01*
X57325Y3612D02*
X57325Y3697D01*
X57175Y3463D02*
X57175Y3612D01*
X57325Y3612D02*
X57325Y3463D01*
X57175Y3446D02*
X57175Y3463D01*
X57325Y3859D02*
X57325Y3697D01*
X57175Y3612D02*
X57175Y3697D01*
X57325Y3446D02*
X57325Y3463D01*
X57175Y3446D02*
X57325Y3446D01*
X57175Y3612D02*
X57325Y3612D01*
X57675Y3859D02*
X57825Y3859D01*
X57675Y3697D02*
X57675Y3859D01*
X57825Y3612D02*
X57825Y3697D01*
X57675Y3463D02*
X57675Y3612D01*
X57825Y3463D02*
X57825Y3612D01*
X57675Y3446D02*
X57675Y3463D01*
X57825Y3697D02*
X57825Y3859D01*
X57675Y3697D02*
X57675Y3612D01*
X57825Y3446D02*
X57825Y3463D01*
X57675Y3446D02*
X57825Y3446D01*
X57675Y3612D02*
X57825Y3612D01*
X56175Y1497D02*
X56325Y1497D01*
X56325Y1659D01*
X56175Y1659D02*
X56175Y1744D01*
X56325Y1893D02*
X56325Y1744D01*
X56175Y1744D02*
X56175Y1893D01*
X56325Y1893D02*
X56325Y1910D01*
X56175Y1497D02*
X56175Y1659D01*
X56325Y1744D02*
X56325Y1659D01*
X56175Y1910D02*
X56175Y1893D01*
X56175Y1910D02*
X56325Y1910D01*
X56175Y1744D02*
X56325Y1744D01*
X56675Y1497D02*
X56825Y1497D01*
X56825Y1659D01*
X56675Y1659D02*
X56675Y1744D01*
X56825Y1893D02*
X56825Y1744D01*
X56675Y1744D02*
X56675Y1893D01*
X56825Y1893D02*
X56825Y1910D01*
X56675Y1497D02*
X56675Y1659D01*
X56825Y1659D02*
X56825Y1744D01*
X56675Y1893D02*
X56675Y1910D01*
X56825Y1910D01*
X56675Y1744D02*
X56825Y1744D01*
X57175Y1497D02*
X57325Y1497D01*
X57325Y1659D01*
X57175Y1659D02*
X57175Y1744D01*
X57325Y1744D02*
X57325Y1893D01*
X57175Y1744D02*
X57175Y1893D01*
X57325Y1893D02*
X57325Y1910D01*
X57175Y1497D02*
X57175Y1659D01*
X57325Y1659D02*
X57325Y1744D01*
X57175Y1893D02*
X57175Y1910D01*
X57325Y1910D01*
X57175Y1744D02*
X57325Y1744D01*
X57675Y1497D02*
X57825Y1497D01*
X57825Y1659D01*
X57675Y1659D02*
X57675Y1744D01*
X57825Y1744D02*
X57825Y1893D01*
X57675Y1893D02*
X57675Y1744D01*
X57825Y1893D02*
X57825Y1910D01*
X57675Y1497D02*
X57675Y1659D01*
X57825Y1659D02*
X57825Y1744D01*
X57675Y1893D02*
X57675Y1910D01*
X57825Y1910D01*
X57675Y1744D02*
X57825Y1744D01*
X57965Y2607D02*
X57965Y2548D01*
X57965Y2749D02*
X57965Y2808D01*
X56035Y2749D02*
X56035Y2808D01*
X56035Y2607D02*
X56035Y2548D01*
X56035Y3258D02*
X57965Y3258D01*
X52140Y4640D02*
X53360Y4640D01*
X52140Y4640D02*
X52140Y5860D01*
X53360Y5860D01*
X53360Y4640D02*
X53360Y5860D01*
X52386Y5860D02*
X52484Y5860D01*
X52386Y5860D02*
X52484Y5860D01*
X52543Y5860D02*
X52642Y5860D01*
X52543Y5860D02*
X52642Y5860D01*
X52701Y5860D02*
X52799Y5860D01*
X52701Y5860D02*
X52799Y5860D01*
X52858Y5860D02*
X52957Y5860D01*
X52858Y5860D02*
X52957Y5860D01*
X53016Y5860D02*
X53114Y5860D01*
X53016Y5860D02*
X53114Y5860D01*
X53360Y5516D02*
X53360Y5614D01*
X53360Y5516D02*
X53360Y5614D01*
X53360Y5358D02*
X53360Y5457D01*
X53360Y5358D02*
X53360Y5457D01*
X53360Y5201D02*
X53360Y5299D01*
X53360Y5201D02*
X53360Y5299D01*
X53360Y5043D02*
X53360Y5142D01*
X53360Y5043D02*
X53360Y5142D01*
X53360Y4886D02*
X53360Y4984D01*
X53360Y4886D02*
X53360Y4984D01*
X53016Y4640D02*
X53114Y4640D01*
X53016Y4640D02*
X53114Y4640D01*
X52858Y4640D02*
X52957Y4640D01*
X52858Y4640D02*
X52957Y4640D01*
X52701Y4640D02*
X52799Y4640D01*
X52701Y4640D02*
X52799Y4640D01*
X52543Y4640D02*
X52642Y4640D01*
X52543Y4640D02*
X52642Y4640D01*
X52386Y4640D02*
X52484Y4640D01*
X52386Y4640D02*
X52484Y4640D01*
X52140Y4886D02*
X52140Y4984D01*
X52140Y4886D02*
X52140Y4984D01*
X52140Y5043D02*
X52140Y5142D01*
X52140Y5043D02*
X52140Y5142D01*
X52140Y5201D02*
X52140Y5299D01*
X52140Y5201D02*
X52140Y5299D01*
X52140Y5358D02*
X52140Y5457D01*
X52140Y5358D02*
X52140Y5457D01*
X52140Y5516D02*
X52140Y5614D01*
X52140Y5516D02*
X52140Y5614D01*
X51407Y2683D02*
X51407Y3313D01*
X51093Y2683D02*
X51407Y2683D01*
X51093Y3313D02*
X51407Y3313D01*
X51093Y2683D02*
X51093Y3313D01*
X56282Y29040D02*
X56282Y31180D01*
X54020Y31180D02*
X56282Y31180D01*
X54020Y29040D02*
X54020Y31180D01*
X54020Y29040D02*
X56282Y29040D01*
D298*
X51710Y8396D02*
X52043Y8396D01*
X52109Y8463D01*
X52109Y8596D01*
X52043Y8663D01*
X51710Y8663D01*
X52109Y8996D02*
X51710Y8996D01*
X51910Y8796D01*
X51910Y9063D01*
D299*
X57650Y2416D02*
X57650Y2707D01*
X57591Y2766D01*
X57475Y2766D01*
X57416Y2707D01*
X57416Y2416D01*
X57300Y2474D02*
X57241Y2416D01*
X57125Y2416D01*
X57066Y2474D01*
X57066Y2532D01*
X57125Y2591D01*
X57183Y2591D01*
X57125Y2591D01*
X57066Y2649D01*
X57066Y2707D01*
X57125Y2766D01*
X57241Y2766D01*
X57300Y2707D01*
D300*
X51250Y3234D02*
D03*
M02*
