G04 Layer_Color=32768*
%FSLAX24Y24*%
%MOIN*%
G70*
G01*
G75*
%ADD158C,0.0039*%
%ADD289C,0.0020*%
D158*
X70114Y4303D02*
X70114Y4697D01*
X69917Y4500D02*
X70311Y4500D01*
X69356Y5189D02*
X70872Y5189D01*
X69356Y3811D02*
X70872Y3811D01*
X69356Y3811D02*
X69356Y5189D01*
X70872Y3811D02*
X70872Y5189D01*
X34830Y50602D02*
X57278Y50602D01*
X34830Y48704D02*
X34830Y50602D01*
X34830Y48704D02*
X35160Y48704D01*
X35160Y47131D02*
X35160Y48704D01*
X34830Y47131D02*
X35160Y47131D01*
X34830Y45233D02*
X34830Y47131D01*
X34830Y45233D02*
X57278Y45233D01*
X57278Y46719D01*
X57607Y46719D01*
X57607Y49116D01*
X57278Y49116D02*
X57278Y50602D01*
X57278Y49116D02*
X57607Y49116D01*
X46022Y47900D02*
X46416Y47900D01*
X46219Y47703D02*
X46219Y48097D01*
X10630Y39173D02*
X10630Y39567D01*
X10433Y39370D02*
X10827Y39370D01*
X8661Y38189D02*
X12598Y38189D01*
X8661Y40551D02*
X12598Y40551D01*
X12598Y38189D02*
X12598Y40551D01*
X8661Y38189D02*
X8661Y40551D01*
X83465Y39173D02*
X83465Y39567D01*
X83268Y39370D02*
X83661Y39370D01*
X81496Y38189D02*
X85433Y38189D01*
X81496Y40551D02*
X85433Y40551D01*
X85433Y38189D02*
X85433Y40551D01*
X81496Y38189D02*
X81496Y40551D01*
X87402Y31299D02*
X87402Y31693D01*
X87205Y31496D02*
X87598Y31496D01*
X85433Y30315D02*
X89370Y30315D01*
X85433Y32677D02*
X89370Y32677D01*
X89370Y30315D02*
X89370Y32677D01*
X85433Y30315D02*
X85433Y32677D01*
X87402Y23425D02*
X87402Y23819D01*
X87205Y23622D02*
X87598Y23622D01*
X85433Y22441D02*
X89370Y22441D01*
X85433Y24803D02*
X89370Y24803D01*
X89370Y22441D02*
X89370Y24803D01*
X85433Y22441D02*
X85433Y24803D01*
X553Y37500D02*
X947Y37500D01*
X750Y37303D02*
X750Y37697D01*
X-28Y35699D02*
X-28Y39301D01*
X1537Y35699D02*
X1537Y39301D01*
X-28Y35699D02*
X1537Y35699D01*
X-28Y39301D02*
X1537Y39301D01*
X93203Y37500D02*
X93597Y37500D01*
X93400Y37303D02*
X93400Y37697D01*
X94178Y35699D02*
X94178Y39301D01*
X92613Y35699D02*
X92613Y39301D01*
X94178Y39301D01*
X92613Y35699D02*
X94178Y35699D01*
X44764Y25287D02*
X44764Y26213D01*
X46614Y25287D02*
X46614Y26213D01*
X44764Y26213D02*
X46614Y26213D01*
X44764Y25287D02*
X46614Y25287D01*
X45492Y25750D02*
X45886Y25750D01*
X45689Y25553D02*
X45689Y25947D01*
X70516Y52303D02*
X70516Y52697D01*
X70319Y52500D02*
X70713Y52500D01*
X69728Y51811D02*
X71313Y51811D01*
X69728Y53189D02*
X71313Y53189D01*
X71313Y51811D02*
X71313Y53189D01*
X69728Y51811D02*
X69728Y53189D01*
X91553Y48500D02*
X91947Y48500D01*
X91750Y48303D02*
X91750Y48697D01*
X10350Y42553D02*
X10350Y42947D01*
X10153Y42750D02*
X10547Y42750D01*
X6350Y34803D02*
X6744Y34803D01*
X6547Y34606D02*
X6547Y35000D01*
X5053Y39250D02*
X5447Y39250D01*
X5250Y39053D02*
X5250Y39447D01*
X5939Y38463D02*
X5939Y40047D01*
X4561Y38463D02*
X4561Y40047D01*
X5939Y40047D01*
X4561Y38463D02*
X5939Y38463D01*
X4053Y11480D02*
X4447Y11480D01*
X4250Y11283D02*
X4250Y11677D01*
X3561Y8409D02*
X3561Y14541D01*
X4939Y8409D02*
X4939Y14541D01*
X3561Y8409D02*
X4939Y8409D01*
X3561Y14541D02*
X4939Y14541D01*
X9353Y11250D02*
X9747Y11250D01*
X9550Y11053D02*
X9550Y11447D01*
X6500Y4803D02*
X6500Y5197D01*
X6303Y5000D02*
X6697Y5000D01*
X4532Y3819D02*
X8468Y3819D01*
X4532Y6181D02*
X8468Y6181D01*
X8468Y3819D02*
X8468Y6181D01*
X4532Y3819D02*
X4532Y6181D01*
X8487Y3186D02*
X9413Y3186D01*
X8487Y1336D02*
X9413Y1336D01*
X9413Y3186D02*
X9413Y1336D01*
X8487Y3186D02*
X8487Y1336D01*
X8950Y2458D02*
X8950Y2064D01*
X8753Y2261D02*
X9147Y2261D01*
X10580Y2084D02*
X10974Y2084D01*
X10777Y1887D02*
X10777Y2281D01*
X10413Y337D02*
X10413Y1263D01*
X12263Y1263D02*
X12263Y337D01*
X10413Y1263D02*
X12263Y1263D01*
X10413Y337D02*
X12263Y337D01*
X11141Y800D02*
X11535Y800D01*
X11338Y603D02*
X11338Y997D01*
X16803Y6250D02*
X17197Y6250D01*
X17000Y6053D02*
X17000Y6447D01*
X13844Y8420D02*
X13844Y10100D01*
X15636Y8420D02*
X15636Y10100D01*
X13844Y10100D02*
X15636Y10100D01*
X13844Y8420D02*
X15636Y8420D01*
X14553Y9250D02*
X14947Y9250D01*
X14750Y9053D02*
X14750Y9447D01*
X46453Y6250D02*
X46847Y6250D01*
X46650Y6053D02*
X46650Y6447D01*
X47191Y5856D02*
X47191Y6644D01*
X46089Y5856D02*
X46089Y6644D01*
X47191Y6644D01*
X46089Y5856D02*
X47191Y5856D01*
X49264Y1492D02*
X49736Y1492D01*
X49264Y547D02*
X49736Y547D01*
X49736Y1492D01*
X49264Y547D02*
X49264Y1492D01*
X49500Y898D02*
X49500Y1102D01*
X49398Y1000D02*
X49602Y1000D01*
X50898Y1000D02*
X51102Y1000D01*
X51000Y898D02*
X51000Y1102D01*
X50764Y547D02*
X50764Y1492D01*
X51236Y547D02*
X51236Y1492D01*
X50764Y547D02*
X51236Y547D01*
X50764Y1492D02*
X51236Y1492D01*
X52148Y1000D02*
X52352Y1000D01*
X52250Y898D02*
X52250Y1102D01*
X52014Y547D02*
X52014Y1492D01*
X52486Y547D02*
X52486Y1492D01*
X52014Y547D02*
X52486Y547D01*
X52014Y1492D02*
X52486Y1492D01*
X53398Y1000D02*
X53602Y1000D01*
X53500Y898D02*
X53500Y1102D01*
X53264Y547D02*
X53264Y1492D01*
X53736Y547D02*
X53736Y1492D01*
X53264Y547D02*
X53736Y547D01*
X53264Y1492D02*
X53736Y1492D01*
X56803Y2677D02*
X57197Y2677D01*
X57000Y2480D02*
X57000Y2874D01*
X55917Y1201D02*
X55917Y4154D01*
X58083Y1201D02*
X58083Y4154D01*
X55917Y1201D02*
X58083Y1201D01*
X55917Y4154D02*
X58083Y4154D01*
X37622Y29431D02*
X37622Y29825D01*
X37425Y29628D02*
X37819Y29628D01*
X35503Y25050D02*
X35897Y25050D01*
X35700Y24853D02*
X35700Y25247D01*
X34588Y23879D02*
X34588Y26211D01*
X36822Y26211D02*
X36822Y23879D01*
X34588Y23879D02*
X36822Y23879D01*
X34588Y26211D02*
X36822Y26211D01*
X37036Y22887D02*
X37036Y23813D01*
X38886Y22887D02*
X38886Y23813D01*
X37036Y23813D02*
X38886Y23813D01*
X37036Y22887D02*
X38886Y22887D01*
X37764Y23350D02*
X38158Y23350D01*
X37961Y23153D02*
X37961Y23547D01*
X66464Y11014D02*
X66858Y11014D01*
X66661Y10817D02*
X66661Y11211D01*
X67832Y9547D02*
X67832Y12480D01*
X65490Y9547D02*
X65490Y12480D01*
X67832Y12480D01*
X65490Y9547D02*
X67832Y9547D01*
X74077Y3863D02*
X74470Y3863D01*
X74274Y3667D02*
X74274Y4060D01*
X74064Y15586D02*
X74458Y15586D01*
X74261Y15389D02*
X74261Y15783D01*
X73090Y14119D02*
X73090Y17052D01*
X75432Y14119D02*
X75432Y17052D01*
X73090Y14119D02*
X75432Y14119D01*
X73090Y17052D02*
X75432Y17052D01*
X46453Y6250D02*
X46847Y6250D01*
X46650Y6053D02*
X46650Y6447D01*
X47191Y5856D02*
X47191Y6644D01*
X46089Y6644D02*
X46089Y5856D01*
X47191Y5856D01*
X46089Y6644D02*
X47191Y6644D01*
X26929Y46128D02*
X26929Y46522D01*
X26732Y46325D02*
X27126Y46325D01*
X25915Y45872D02*
X27943Y45872D01*
X25915Y46778D02*
X27943Y46778D01*
X25915Y45872D02*
X25915Y46778D01*
X27943Y45872D02*
X27943Y46778D01*
X50500Y29529D02*
X50894Y29529D01*
X50697Y29332D02*
X50697Y29726D01*
X51160Y28604D02*
X51160Y30454D01*
X50235Y28604D02*
X50235Y30454D01*
X50235Y28604D02*
X51160Y28604D01*
X50235Y30454D02*
X51160Y30454D01*
X49201Y29529D02*
X49595Y29529D01*
X49398Y29332D02*
X49398Y29726D01*
X49861Y28604D02*
X49861Y30454D01*
X48935Y28604D02*
X48935Y30454D01*
X48935Y28604D02*
X49861Y28604D01*
X48935Y30454D02*
X49861Y30454D01*
X63403Y31450D02*
X63797Y31450D01*
X63600Y31253D02*
X63600Y31647D01*
X64289Y30692D02*
X64289Y32208D01*
X62911Y30692D02*
X62911Y32208D01*
X62911Y30692D02*
X64289Y30692D01*
X62911Y32208D02*
X64289Y32208D01*
X57068Y33909D02*
X57068Y34303D01*
X56871Y34106D02*
X57265Y34106D01*
X56143Y34569D02*
X57993Y34569D01*
X56143Y33643D02*
X57993Y33643D01*
X57993Y34569D01*
X56143Y33643D02*
X56143Y34569D01*
X57068Y32925D02*
X57068Y33319D01*
X56871Y33122D02*
X57265Y33122D01*
X56143Y33584D02*
X57993Y33584D01*
X56143Y32659D02*
X57993Y32659D01*
X57993Y33584D01*
X56143Y32659D02*
X56143Y33584D01*
X57000Y31703D02*
X57000Y32097D01*
X56803Y31900D02*
X57197Y31900D01*
X56242Y32589D02*
X57758Y32589D01*
X56242Y31211D02*
X57758Y31211D01*
X57758Y32589D01*
X56242Y31211D02*
X56242Y32589D01*
X50604Y20907D02*
X50604Y22167D01*
X53045Y20907D02*
X53045Y22167D01*
X50604Y22167D02*
X53045Y22167D01*
X50604Y20907D02*
X53045Y20907D01*
X51628Y21537D02*
X52022Y21537D01*
X51825Y21341D02*
X51825Y21734D01*
X53931Y20258D02*
X54325Y20258D01*
X54128Y20061D02*
X54128Y20455D01*
X91339Y27362D02*
X91339Y27756D01*
X91142Y27559D02*
X91535Y27559D01*
X89370Y26378D02*
X93307Y26378D01*
X89370Y28740D02*
X93307Y28740D01*
X93307Y26378D02*
X93307Y28740D01*
X89370Y26378D02*
X89370Y28740D01*
X83465Y27362D02*
X83465Y27756D01*
X83268Y27559D02*
X83661Y27559D01*
X81496Y26378D02*
X85433Y26378D01*
X81496Y28740D02*
X85433Y28740D01*
X85433Y26378D02*
X85433Y28740D01*
X81496Y26378D02*
X81496Y28740D01*
D289*
X43622Y7053D02*
X43878Y7053D01*
X43750Y6925D02*
X43750Y7181D01*
X43947Y6659D02*
X43947Y7447D01*
X43553Y6659D02*
X43553Y7447D01*
X43947Y7447D01*
X43553Y6659D02*
X43947Y6659D01*
X48927Y7854D02*
X49183Y7854D01*
X49055Y7726D02*
X49055Y7982D01*
X49252Y7461D02*
X49252Y8248D01*
X48858Y7461D02*
X48858Y8248D01*
X49252Y8248D01*
X48858Y7461D02*
X49252Y7461D01*
X48465Y6742D02*
X48465Y6998D01*
X48337Y6870D02*
X48593Y6870D01*
X48071Y6673D02*
X48858Y6673D01*
X48071Y7067D02*
X48858Y7067D01*
X48858Y6673D02*
X48858Y7067D01*
X48071Y6673D02*
X48071Y7067D01*
X50236Y11860D02*
X50236Y12116D01*
X50108Y11988D02*
X50364Y11988D01*
X49843Y11791D02*
X50630Y11791D01*
X49843Y12185D02*
X50630Y12185D01*
X50630Y11791D02*
X50630Y12185D01*
X49843Y11791D02*
X49843Y12185D01*
X49173Y9301D02*
X49173Y9557D01*
X49045Y9429D02*
X49301Y9429D01*
X48780Y9232D02*
X49567Y9232D01*
X48780Y9626D02*
X49567Y9626D01*
X49567Y9232D02*
X49567Y9626D01*
X48780Y9232D02*
X48780Y9626D01*
X2500Y5872D02*
X2500Y6128D01*
X2372Y6000D02*
X2628Y6000D01*
X2106Y5803D02*
X2894Y5803D01*
X2106Y6197D02*
X2894Y6197D01*
X2894Y5803D02*
X2894Y6197D01*
X2106Y5803D02*
X2106Y6197D01*
X25551Y45134D02*
X25551Y45390D01*
X25423Y45262D02*
X25679Y45262D01*
X25157Y45065D02*
X25945Y45065D01*
X25157Y45459D02*
X25945Y45459D01*
X25157Y45065D02*
X25157Y45459D01*
X25945Y45065D02*
X25945Y45459D01*
X85943Y19850D02*
X86199Y19850D01*
X86071Y19722D02*
X86071Y19978D01*
X86268Y19456D02*
X86268Y20244D01*
X85874Y19456D02*
X85874Y20244D01*
X85874Y19456D02*
X86268Y19456D01*
X85874Y20244D02*
X86268Y20244D01*
X85549Y19850D02*
X85805Y19850D01*
X85677Y19722D02*
X85677Y19978D01*
X85874Y19456D02*
X85874Y20244D01*
X85480Y19456D02*
X85480Y20244D01*
X85480Y19456D02*
X85874Y19456D01*
X85480Y20244D02*
X85874Y20244D01*
X85283Y15391D02*
X85283Y15647D01*
X85156Y15519D02*
X85411Y15519D01*
X84890Y15716D02*
X85677Y15716D01*
X84890Y15322D02*
X85677Y15322D01*
X85677Y15716D01*
X84890Y15322D02*
X84890Y15716D01*
X87518Y14535D02*
X87774Y14535D01*
X87646Y14407D02*
X87646Y14663D01*
X87449Y14141D02*
X87449Y14929D01*
X87843Y14141D02*
X87843Y14929D01*
X87449Y14929D02*
X87843Y14929D01*
X87449Y14141D02*
X87843Y14141D01*
X87911Y14535D02*
X88167Y14535D01*
X88039Y14407D02*
X88039Y14663D01*
X87843Y14141D02*
X87843Y14929D01*
X88236Y14141D02*
X88236Y14929D01*
X87843Y14929D02*
X88236Y14929D01*
X87843Y14141D02*
X88236Y14141D01*
X87518Y19850D02*
X87774Y19850D01*
X87646Y19722D02*
X87646Y19978D01*
X87843Y19456D02*
X87843Y20244D01*
X87449Y19456D02*
X87449Y20244D01*
X87449Y19456D02*
X87843Y19456D01*
X87449Y20244D02*
X87843Y20244D01*
X87911Y19850D02*
X88167Y19850D01*
X88039Y19722D02*
X88039Y19978D01*
X88236Y19456D02*
X88236Y20244D01*
X87843Y19456D02*
X87843Y20244D01*
X87843Y19456D02*
X88236Y19456D01*
X87843Y20244D02*
X88236Y20244D01*
X38400Y12372D02*
X38400Y12628D01*
X38272Y12500D02*
X38528Y12500D01*
X38006Y12303D02*
X38794Y12303D01*
X38006Y12697D02*
X38794Y12697D01*
X38794Y12303D02*
X38794Y12697D01*
X38006Y12303D02*
X38006Y12697D01*
X37703Y9372D02*
X37703Y9628D01*
X37575Y9500D02*
X37831Y9500D01*
X37309Y9303D02*
X38097Y9303D01*
X37309Y9697D02*
X38097Y9697D01*
X38097Y9303D02*
X38097Y9697D01*
X37309Y9303D02*
X37309Y9697D01*
X70872Y7197D02*
X71128Y7197D01*
X71000Y7069D02*
X71000Y7325D01*
X70803Y6803D02*
X70803Y7591D01*
X71197Y6803D02*
X71197Y7591D01*
X70803Y6803D02*
X71197Y6803D01*
X70803Y7591D02*
X71197Y7591D01*
X70869Y5856D02*
X71125Y5856D01*
X70997Y5728D02*
X70997Y5983D01*
X71194Y5462D02*
X71194Y6249D01*
X70800Y5462D02*
X70800Y6249D01*
X71194Y6249D01*
X70800Y5462D02*
X71194Y5462D01*
X70132Y12264D02*
X70388Y12264D01*
X70260Y12136D02*
X70260Y12392D01*
X70457Y11870D02*
X70457Y12657D01*
X70063Y11870D02*
X70063Y12657D01*
X70457Y12657D01*
X70063Y11870D02*
X70457Y11870D01*
X69132Y12264D02*
X69388Y12264D01*
X69260Y12136D02*
X69260Y12392D01*
X69457Y11870D02*
X69457Y12657D01*
X69063Y11870D02*
X69063Y12657D01*
X69457Y12657D01*
X69063Y11870D02*
X69457Y11870D01*
X83021Y12250D02*
X83277Y12250D01*
X83149Y12122D02*
X83149Y12378D01*
X83346Y11856D02*
X83346Y12644D01*
X82952Y11856D02*
X82952Y12644D01*
X83346Y12644D01*
X82952Y11856D02*
X83346Y11856D01*
X6900Y12224D02*
X6900Y12480D01*
X6772Y12352D02*
X7028Y12352D01*
X6506Y12156D02*
X7294Y12156D01*
X6506Y12549D02*
X7294Y12549D01*
X7294Y12156D02*
X7294Y12549D01*
X6506Y12156D02*
X6506Y12549D01*
X86953Y41572D02*
X86953Y41828D01*
X86825Y41700D02*
X87081Y41700D01*
X86559Y41503D02*
X87347Y41503D01*
X86559Y41897D02*
X87347Y41897D01*
X87347Y41503D02*
X87347Y41897D01*
X86559Y41503D02*
X86559Y41897D01*
X4872Y49447D02*
X5128Y49447D01*
X5000Y49319D02*
X5000Y49575D01*
X5197Y49053D02*
X5197Y49841D01*
X4803Y49053D02*
X4803Y49841D01*
X4803Y49053D02*
X5197Y49053D01*
X4803Y49841D02*
X5197Y49841D01*
X50122Y3053D02*
X50378Y3053D01*
X50250Y2925D02*
X50250Y3181D01*
X50053Y2659D02*
X50053Y3447D01*
X50447Y2659D02*
X50447Y3447D01*
X50053Y3447D02*
X50447Y3447D01*
X50053Y2659D02*
X50447Y2659D01*
X49122Y3050D02*
X49378Y3050D01*
X49250Y2922D02*
X49250Y3178D01*
X49053Y2656D02*
X49053Y3444D01*
X49447Y2656D02*
X49447Y3444D01*
X49053Y3444D02*
X49447Y3444D01*
X49053Y2656D02*
X49447Y2656D01*
X49622Y3053D02*
X49878Y3053D01*
X49750Y2925D02*
X49750Y3181D01*
X49553Y2659D02*
X49553Y3447D01*
X49947Y2659D02*
X49947Y3447D01*
X49553Y3447D02*
X49947Y3447D01*
X49553Y2659D02*
X49947Y2659D01*
X50622Y3053D02*
X50878Y3053D01*
X50750Y2925D02*
X50750Y3181D01*
X50553Y2659D02*
X50553Y3447D01*
X50947Y2659D02*
X50947Y3447D01*
X50553Y3447D02*
X50947Y3447D01*
X50553Y2659D02*
X50947Y2659D01*
X84021Y12250D02*
X84277Y12250D01*
X84149Y12122D02*
X84149Y12378D01*
X84346Y11856D02*
X84346Y12644D01*
X83952Y11856D02*
X83952Y12644D01*
X84346Y12644D01*
X83952Y11856D02*
X84346Y11856D01*
X48465Y5955D02*
X48465Y6211D01*
X48337Y6083D02*
X48593Y6083D01*
X48071Y5886D02*
X48858Y5886D01*
X48071Y6280D02*
X48858Y6280D01*
X48858Y5886D02*
X48858Y6280D01*
X48071Y5886D02*
X48071Y6280D01*
X64993Y27925D02*
X65248Y27925D01*
X65120Y27797D02*
X65120Y28053D01*
X65317Y27531D02*
X65317Y28319D01*
X64924Y27531D02*
X64924Y28319D01*
X64924Y27531D02*
X65317Y27531D01*
X64924Y28319D02*
X65317Y28319D01*
X79460Y49272D02*
X79460Y49528D01*
X79332Y49400D02*
X79588Y49400D01*
X79067Y49597D02*
X79854Y49597D01*
X79067Y49203D02*
X79854Y49203D01*
X79067Y49203D02*
X79067Y49597D01*
X79854Y49203D02*
X79854Y49597D01*
X79460Y50272D02*
X79460Y50528D01*
X79332Y50400D02*
X79588Y50400D01*
X79067Y50597D02*
X79854Y50597D01*
X79067Y50203D02*
X79854Y50203D01*
X79067Y50203D02*
X79067Y50597D01*
X79854Y50203D02*
X79854Y50597D01*
X12997Y49272D02*
X12997Y49528D01*
X12869Y49400D02*
X13125Y49400D01*
X12603Y49597D02*
X13391Y49597D01*
X12603Y49203D02*
X13391Y49203D01*
X12603Y49203D02*
X12603Y49597D01*
X13391Y49203D02*
X13391Y49597D01*
X12997Y50272D02*
X12997Y50528D01*
X12869Y50400D02*
X13125Y50400D01*
X12603Y50597D02*
X13391Y50597D01*
X12603Y50203D02*
X13391Y50203D01*
X12603Y50203D02*
X12603Y50597D01*
X13391Y50203D02*
X13391Y50597D01*
X2909Y5372D02*
X2909Y5628D01*
X2781Y5500D02*
X3037Y5500D01*
X2516Y5303D02*
X3303Y5303D01*
X2516Y5697D02*
X3303Y5697D01*
X3303Y5303D02*
X3303Y5697D01*
X2516Y5303D02*
X2516Y5697D01*
X88460Y50272D02*
X88460Y50528D01*
X88332Y50400D02*
X88588Y50400D01*
X88067Y50597D02*
X88854Y50597D01*
X88067Y50203D02*
X88854Y50203D01*
X88067Y50203D02*
X88067Y50597D01*
X88854Y50203D02*
X88854Y50597D01*
X88460Y49272D02*
X88460Y49528D01*
X88332Y49400D02*
X88588Y49400D01*
X88067Y49597D02*
X88854Y49597D01*
X88067Y49203D02*
X88854Y49203D01*
X88067Y49203D02*
X88067Y49597D01*
X88854Y49203D02*
X88854Y49597D01*
X21997Y50272D02*
X21997Y50528D01*
X21869Y50400D02*
X22125Y50400D01*
X21603Y50597D02*
X22391Y50597D01*
X21603Y50203D02*
X22391Y50203D01*
X21603Y50203D02*
X21603Y50597D01*
X22391Y50203D02*
X22391Y50597D01*
X21997Y49272D02*
X21997Y49528D01*
X21869Y49400D02*
X22125Y49400D01*
X21603Y49597D02*
X22391Y49597D01*
X21603Y49203D02*
X22391Y49203D01*
X21603Y49203D02*
X21603Y49597D01*
X22391Y49203D02*
X22391Y49597D01*
X77841Y1856D02*
X77841Y2249D01*
X77053Y2249D02*
X77053Y1856D01*
X77841Y1856D01*
X77053Y2249D02*
X77841Y2249D01*
X77319Y2052D02*
X77575Y2052D01*
X77447Y1924D02*
X77447Y2180D01*
X6209Y10896D02*
X6209Y11289D01*
X6997Y11289D02*
X6997Y10896D01*
X6209Y11289D02*
X6997Y11289D01*
X6209Y10896D02*
X6997Y10896D01*
X6475Y11093D02*
X6731Y11093D01*
X6603Y10965D02*
X6603Y11220D01*
X23685Y25153D02*
X23685Y25547D01*
X24473Y25547D02*
X24473Y25153D01*
X23685Y25547D02*
X24473Y25547D01*
X23685Y25153D02*
X24473Y25153D01*
X23951Y25350D02*
X24207Y25350D01*
X24079Y25222D02*
X24079Y25478D01*
X21553Y21409D02*
X21947Y21409D01*
X21553Y22197D02*
X21947Y22197D01*
X21553Y21409D02*
X21553Y22197D01*
X21947Y21409D02*
X21947Y22197D01*
X21750Y21675D02*
X21750Y21931D01*
X21622Y21803D02*
X21878Y21803D01*
X46067Y26606D02*
X46933Y26606D01*
X46067Y28496D02*
X46933Y28496D01*
X46067Y26606D02*
X46067Y28496D01*
X46933Y26606D02*
X46933Y28496D01*
X46500Y27354D02*
X46500Y27748D01*
X46303Y27551D02*
X46697Y27551D01*
X33697Y18622D02*
X33697Y18878D01*
X33569Y18750D02*
X33825Y18750D01*
X33303Y18947D02*
X34091Y18947D01*
X33303Y18553D02*
X34091Y18553D01*
X33303Y18947D02*
X33303Y18553D01*
X34091Y18553D02*
X34091Y18947D01*
X3447Y16372D02*
X3447Y16628D01*
X3319Y16500D02*
X3575Y16500D01*
X3053Y16697D02*
X3841Y16697D01*
X3053Y16303D02*
X3841Y16303D01*
X3053Y16697D02*
X3053Y16303D01*
X3841Y16303D02*
X3841Y16697D01*
X2553Y17122D02*
X2553Y17378D01*
X2425Y17250D02*
X2681Y17250D01*
X2159Y17053D02*
X2947Y17053D01*
X2159Y17447D02*
X2947Y17447D01*
X2947Y17053D01*
X2159Y17053D02*
X2159Y17447D01*
X74197Y35053D02*
X74197Y35447D01*
X73409Y35053D02*
X73409Y35447D01*
X73409Y35053D02*
X74197Y35053D01*
X73409Y35447D02*
X74197Y35447D01*
X73675Y35250D02*
X73931Y35250D01*
X73803Y35122D02*
X73803Y35378D01*
X87347Y41053D02*
X87347Y41447D01*
X86559Y41447D02*
X86559Y41053D01*
X87347Y41053D01*
X86559Y41447D02*
X87347Y41447D01*
X86825Y41250D02*
X87081Y41250D01*
X86953Y41122D02*
X86953Y41378D01*
X88433Y17291D02*
X88827Y17291D01*
X88433Y18078D02*
X88827Y18078D01*
X88433Y17291D02*
X88433Y18078D01*
X88827Y17291D02*
X88827Y18078D01*
X88630Y17557D02*
X88630Y17813D01*
X88502Y17685D02*
X88758Y17685D01*
X85657Y17094D02*
X86051Y17094D01*
X85657Y17881D02*
X86051Y17881D01*
X85657Y17094D02*
X85657Y17881D01*
X86051Y17094D02*
X86051Y17881D01*
X85854Y17360D02*
X85854Y17616D01*
X85726Y17488D02*
X85982Y17488D01*
X86071Y17094D02*
X86465Y17094D01*
X86071Y17881D02*
X86465Y17881D01*
X86071Y17094D02*
X86071Y17881D01*
X86465Y17881D02*
X86465Y17094D01*
X86268Y17360D02*
X86268Y17616D01*
X86140Y17488D02*
X86396Y17488D01*
X86858Y15539D02*
X86858Y15933D01*
X86071Y15933D02*
X86071Y15539D01*
X86858Y15539D01*
X86071Y15933D02*
X86858Y15933D01*
X86337Y15736D02*
X86593Y15736D01*
X86465Y15608D02*
X86465Y15864D01*
X87646Y15126D02*
X87646Y15519D01*
X86858Y15519D02*
X86858Y15126D01*
X87646Y15126D01*
X86858Y15519D02*
X87646Y15519D01*
X87124Y15322D02*
X87380Y15322D01*
X87252Y15194D02*
X87252Y15450D01*
X67303Y52803D02*
X67303Y53197D01*
X68091Y52803D02*
X68091Y53197D01*
X67303Y53197D02*
X68091Y53197D01*
X67303Y52803D02*
X68091Y52803D01*
X67569Y53000D02*
X67825Y53000D01*
X67697Y52872D02*
X67697Y53128D01*
X69303Y51947D02*
X69697Y51947D01*
X69303Y51159D02*
X69697Y51159D01*
X69697Y51947D01*
X69303Y51159D02*
X69303Y51947D01*
X69500Y51425D02*
X69500Y51681D01*
X69372Y51553D02*
X69628Y51553D01*
X90722Y48697D02*
X90978Y48697D01*
X90850Y48569D02*
X90850Y48825D01*
X90653Y48303D02*
X90653Y49091D01*
X91047Y48303D02*
X91047Y49091D01*
X90653Y48303D02*
X91047Y48303D01*
X90653Y49091D02*
X91047Y49091D01*
X92390Y47969D02*
X92390Y49032D01*
X91110Y47969D02*
X91110Y49032D01*
X91110Y47969D02*
X92390Y47969D01*
X91110Y49032D02*
X92390Y49032D01*
X82473Y46553D02*
X82729Y46553D01*
X82601Y46425D02*
X82601Y46681D01*
X82404Y46159D02*
X82404Y46947D01*
X82798Y46159D02*
X82798Y46947D01*
X82404Y46159D02*
X82798Y46159D01*
X82404Y46947D02*
X82798Y46947D01*
X81973Y46553D02*
X82229Y46553D01*
X82101Y46425D02*
X82101Y46681D01*
X82298Y46159D02*
X82298Y46947D01*
X81904Y46159D02*
X81904Y46947D01*
X82298Y46947D01*
X81904Y46159D02*
X82298Y46159D01*
X81473Y46553D02*
X81729Y46553D01*
X81601Y46425D02*
X81601Y46681D01*
X81404Y46159D02*
X81404Y46947D01*
X81798Y46159D02*
X81798Y46947D01*
X81404Y46159D02*
X81798Y46159D01*
X81404Y46947D02*
X81798Y46947D01*
X80973Y46553D02*
X81229Y46553D01*
X81101Y46425D02*
X81101Y46681D01*
X81298Y46159D02*
X81298Y46947D01*
X80904Y46159D02*
X80904Y46947D01*
X81298Y46947D01*
X80904Y46159D02*
X81298Y46159D01*
X80473Y46553D02*
X80729Y46553D01*
X80601Y46425D02*
X80601Y46681D01*
X80404Y46159D02*
X80404Y46947D01*
X80798Y46159D02*
X80798Y46947D01*
X80404Y46159D02*
X80798Y46159D01*
X80404Y46947D02*
X80798Y46947D01*
X79973Y46553D02*
X80229Y46553D01*
X80101Y46425D02*
X80101Y46681D01*
X80298Y46159D02*
X80298Y46947D01*
X79904Y46159D02*
X79904Y46947D01*
X80298Y46947D01*
X79904Y46159D02*
X80298Y46159D01*
X79473Y46553D02*
X79729Y46553D01*
X79601Y46425D02*
X79601Y46681D01*
X79404Y46159D02*
X79404Y46947D01*
X79798Y46159D02*
X79798Y46947D01*
X79404Y46159D02*
X79798Y46159D01*
X79404Y46947D02*
X79798Y46947D01*
X78973Y46553D02*
X79229Y46553D01*
X79101Y46425D02*
X79101Y46681D01*
X79298Y46159D02*
X79298Y46947D01*
X78904Y46159D02*
X78904Y46947D01*
X79298Y46947D01*
X78904Y46159D02*
X79298Y46159D01*
X76654Y47553D02*
X76910Y47553D01*
X76782Y47425D02*
X76782Y47681D01*
X76585Y47159D02*
X76585Y47947D01*
X76979Y47159D02*
X76979Y47947D01*
X76585Y47159D02*
X76979Y47159D01*
X76585Y47947D02*
X76979Y47947D01*
X76154Y47553D02*
X76410Y47553D01*
X76282Y47425D02*
X76282Y47681D01*
X76479Y47159D02*
X76479Y47947D01*
X76085Y47159D02*
X76085Y47947D01*
X76479Y47947D01*
X76085Y47159D02*
X76479Y47159D01*
X75154Y47553D02*
X75410Y47553D01*
X75282Y47425D02*
X75282Y47681D01*
X75479Y47159D02*
X75479Y47947D01*
X75085Y47159D02*
X75085Y47947D01*
X75479Y47947D01*
X75085Y47159D02*
X75479Y47159D01*
X75654Y47553D02*
X75910Y47553D01*
X75782Y47425D02*
X75782Y47681D01*
X75585Y47159D02*
X75585Y47947D01*
X75979Y47159D02*
X75979Y47947D01*
X75585Y47159D02*
X75979Y47159D01*
X75585Y47947D02*
X75979Y47947D01*
X74654Y47553D02*
X74910Y47553D01*
X74782Y47425D02*
X74782Y47681D01*
X74585Y47159D02*
X74585Y47947D01*
X74979Y47159D02*
X74979Y47947D01*
X74585Y47159D02*
X74979Y47159D01*
X74585Y47947D02*
X74979Y47947D01*
X74154Y47553D02*
X74410Y47553D01*
X74282Y47425D02*
X74282Y47681D01*
X74479Y47159D02*
X74479Y47947D01*
X74085Y47159D02*
X74085Y47947D01*
X74479Y47947D01*
X74085Y47159D02*
X74479Y47159D01*
X73154Y47553D02*
X73410Y47553D01*
X73282Y47425D02*
X73282Y47681D01*
X73479Y47159D02*
X73479Y47947D01*
X73085Y47159D02*
X73085Y47947D01*
X73479Y47947D01*
X73085Y47159D02*
X73479Y47159D01*
X73654Y47553D02*
X73910Y47553D01*
X73782Y47425D02*
X73782Y47681D01*
X73585Y47159D02*
X73585Y47947D01*
X73979Y47159D02*
X73979Y47947D01*
X73585Y47159D02*
X73979Y47159D01*
X73585Y47947D02*
X73979Y47947D01*
X60841Y50303D02*
X60841Y50697D01*
X60053Y50697D02*
X60053Y50303D01*
X60841Y50303D01*
X60053Y50697D02*
X60841Y50697D01*
X60319Y50500D02*
X60575Y50500D01*
X60447Y50372D02*
X60447Y50628D01*
X60841Y50803D02*
X60841Y51197D01*
X60053Y51197D02*
X60053Y50803D01*
X60841Y50803D01*
X60053Y51197D02*
X60841Y51197D01*
X60319Y51000D02*
X60575Y51000D01*
X60447Y50872D02*
X60447Y51128D01*
X13872Y46553D02*
X14128Y46553D01*
X14000Y46425D02*
X14000Y46681D01*
X13803Y46159D02*
X13803Y46947D01*
X14197Y46159D02*
X14197Y46947D01*
X13803Y46159D02*
X14197Y46159D01*
X13803Y46947D02*
X14197Y46947D01*
X13372Y46553D02*
X13628Y46553D01*
X13500Y46425D02*
X13500Y46681D01*
X13697Y46159D02*
X13697Y46947D01*
X13303Y46159D02*
X13303Y46947D01*
X13697Y46947D01*
X13303Y46159D02*
X13697Y46159D01*
X12872Y46553D02*
X13128Y46553D01*
X13000Y46425D02*
X13000Y46681D01*
X12803Y46159D02*
X12803Y46947D01*
X13197Y46159D02*
X13197Y46947D01*
X12803Y46159D02*
X13197Y46159D01*
X12803Y46947D02*
X13197Y46947D01*
X12372Y46553D02*
X12628Y46553D01*
X12500Y46425D02*
X12500Y46681D01*
X12697Y46159D02*
X12697Y46947D01*
X12303Y46159D02*
X12303Y46947D01*
X12697Y46947D01*
X12303Y46159D02*
X12697Y46159D01*
X11872Y46553D02*
X12128Y46553D01*
X12000Y46425D02*
X12000Y46681D01*
X11803Y46159D02*
X11803Y46947D01*
X12197Y46159D02*
X12197Y46947D01*
X11803Y46159D02*
X12197Y46159D01*
X11803Y46947D02*
X12197Y46947D01*
X11372Y46553D02*
X11628Y46553D01*
X11500Y46425D02*
X11500Y46681D01*
X11697Y46159D02*
X11697Y46947D01*
X11303Y46159D02*
X11303Y46947D01*
X11697Y46947D01*
X11303Y46159D02*
X11697Y46159D01*
X10872Y46553D02*
X11128Y46553D01*
X11000Y46425D02*
X11000Y46681D01*
X10803Y46159D02*
X10803Y46947D01*
X11197Y46159D02*
X11197Y46947D01*
X10803Y46159D02*
X11197Y46159D01*
X10803Y46947D02*
X11197Y46947D01*
X10372Y46553D02*
X10628Y46553D01*
X10500Y46425D02*
X10500Y46681D01*
X10697Y46159D02*
X10697Y46947D01*
X10303Y46159D02*
X10303Y46947D01*
X10697Y46947D01*
X10303Y46159D02*
X10697Y46159D01*
X15691Y47553D02*
X15947Y47553D01*
X15819Y47425D02*
X15819Y47681D01*
X16016Y47159D02*
X16016Y47947D01*
X15622Y47159D02*
X15622Y47947D01*
X16016Y47947D01*
X15622Y47159D02*
X16016Y47159D01*
X16191Y47553D02*
X16447Y47553D01*
X16319Y47425D02*
X16319Y47681D01*
X16122Y47159D02*
X16122Y47947D01*
X16516Y47159D02*
X16516Y47947D01*
X16122Y47159D02*
X16516Y47159D01*
X16122Y47947D02*
X16516Y47947D01*
X16691Y47553D02*
X16947Y47553D01*
X16819Y47425D02*
X16819Y47681D01*
X17016Y47159D02*
X17016Y47947D01*
X16622Y47159D02*
X16622Y47947D01*
X17016Y47947D01*
X16622Y47159D02*
X17016Y47159D01*
X17191Y47553D02*
X17447Y47553D01*
X17319Y47425D02*
X17319Y47681D01*
X17122Y47159D02*
X17122Y47947D01*
X17516Y47159D02*
X17516Y47947D01*
X17122Y47159D02*
X17516Y47159D01*
X17122Y47947D02*
X17516Y47947D01*
X17691Y47553D02*
X17947Y47553D01*
X17819Y47425D02*
X17819Y47681D01*
X18016Y47159D02*
X18016Y47947D01*
X17622Y47159D02*
X17622Y47947D01*
X18016Y47947D01*
X17622Y47159D02*
X18016Y47159D01*
X18191Y47553D02*
X18447Y47553D01*
X18319Y47425D02*
X18319Y47681D01*
X18122Y47159D02*
X18122Y47947D01*
X18516Y47159D02*
X18516Y47947D01*
X18122Y47159D02*
X18516Y47159D01*
X18122Y47947D02*
X18516Y47947D01*
X18691Y47553D02*
X18947Y47553D01*
X18819Y47425D02*
X18819Y47681D01*
X19016Y47159D02*
X19016Y47947D01*
X18622Y47159D02*
X18622Y47947D01*
X19016Y47947D01*
X18622Y47159D02*
X19016Y47159D01*
X19191Y47553D02*
X19447Y47553D01*
X19319Y47425D02*
X19319Y47681D01*
X19122Y47159D02*
X19122Y47947D01*
X19516Y47159D02*
X19516Y47947D01*
X19122Y47159D02*
X19516Y47159D01*
X19122Y47947D02*
X19516Y47947D01*
X709Y41303D02*
X709Y41697D01*
X1497Y41697D02*
X1497Y41303D01*
X709Y41697D02*
X1497Y41697D01*
X709Y41303D02*
X1497Y41303D01*
X975Y41500D02*
X1231Y41500D01*
X1103Y41372D02*
X1103Y41628D01*
X2291Y41303D02*
X2291Y41697D01*
X1503Y41303D02*
X1503Y41697D01*
X1503Y41303D02*
X2291Y41303D01*
X1503Y41697D02*
X2291Y41697D01*
X1769Y41500D02*
X2025Y41500D01*
X1897Y41372D02*
X1897Y41628D01*
X1172Y40750D02*
X1428Y40750D01*
X1300Y40622D02*
X1300Y40878D01*
X1497Y40356D02*
X1497Y41144D01*
X1103Y40356D02*
X1103Y41144D01*
X1497Y41144D01*
X1103Y40356D02*
X1497Y40356D01*
X1572Y40750D02*
X1828Y40750D01*
X1700Y40622D02*
X1700Y40878D01*
X1897Y40356D02*
X1897Y41144D01*
X1503Y40356D02*
X1503Y41144D01*
X1897Y41144D01*
X1503Y40356D02*
X1897Y40356D01*
X9710Y43281D02*
X10990Y43281D01*
X9710Y42218D02*
X10990Y42218D01*
X9710Y42218D02*
X9710Y43281D01*
X10990Y42218D02*
X10990Y43281D01*
X9322Y42553D02*
X9578Y42553D01*
X9450Y42425D02*
X9450Y42681D01*
X9647Y42159D02*
X9647Y42947D01*
X9253Y42159D02*
X9253Y42947D01*
X9647Y42947D01*
X9253Y42159D02*
X9647Y42159D01*
X6053Y39203D02*
X6053Y39597D01*
X6841Y39203D02*
X6841Y39597D01*
X6053Y39597D02*
X6841Y39597D01*
X6053Y39203D02*
X6841Y39203D01*
X6319Y39400D02*
X6575Y39400D01*
X6447Y39272D02*
X6447Y39528D01*
X7703Y35797D02*
X8097Y35797D01*
X7703Y35009D02*
X8097Y35009D01*
X8097Y35797D02*
X8097Y35009D01*
X7703Y35009D02*
X7703Y35797D01*
X7900Y35275D02*
X7900Y35531D01*
X7772Y35403D02*
X8028Y35403D01*
X5425Y34154D02*
X5425Y35453D01*
X7669Y34154D02*
X7669Y35453D01*
X5425Y35453D02*
X7669Y35453D01*
X5425Y34154D02*
X7669Y34154D01*
X5821Y36803D02*
X5821Y37197D01*
X5033Y36803D02*
X5033Y37197D01*
X5033Y36803D02*
X5821Y36803D01*
X5033Y37197D02*
X5821Y37197D01*
X5299Y37000D02*
X5555Y37000D01*
X5427Y36872D02*
X5427Y37128D01*
X5579Y25303D02*
X5973Y25303D01*
X5579Y26091D02*
X5973Y26091D01*
X5579Y25303D02*
X5579Y26091D01*
X5973Y25303D02*
X5973Y26091D01*
X5776Y25569D02*
X5776Y25825D01*
X5648Y25697D02*
X5904Y25697D01*
X4185Y25803D02*
X4185Y26197D01*
X4973Y26197D02*
X4973Y25803D01*
X4185Y26197D02*
X4973Y26197D01*
X4185Y25803D02*
X4973Y25803D01*
X4451Y26000D02*
X4707Y26000D01*
X4579Y25872D02*
X4579Y26128D01*
X4185Y25303D02*
X4185Y25697D01*
X4973Y25697D02*
X4973Y25303D01*
X4185Y25697D02*
X4973Y25697D01*
X4185Y25303D02*
X4973Y25303D01*
X4451Y25500D02*
X4707Y25500D01*
X4579Y25372D02*
X4579Y25628D01*
X1685Y25153D02*
X1685Y25547D01*
X2473Y25547D02*
X2473Y25153D01*
X1685Y25547D02*
X2473Y25547D01*
X1685Y25153D02*
X2473Y25153D01*
X1951Y25350D02*
X2207Y25350D01*
X2079Y25222D02*
X2079Y25478D01*
X1685Y22153D02*
X1685Y22547D01*
X2473Y22153D02*
X2473Y22547D01*
X1685Y22547D02*
X2473Y22547D01*
X1685Y22153D02*
X2473Y22153D01*
X1951Y22350D02*
X2207Y22350D01*
X2079Y22222D02*
X2079Y22478D01*
X11479Y9321D02*
X11479Y13179D01*
X7621Y9321D02*
X7621Y13179D01*
X11479Y13179D01*
X7621Y9321D02*
X11479Y9321D01*
X9500Y14372D02*
X9500Y14628D01*
X9372Y14500D02*
X9628Y14500D01*
X9106Y14303D02*
X9894Y14303D01*
X9106Y14697D02*
X9894Y14697D01*
X9894Y14303D01*
X9106Y14303D02*
X9106Y14697D01*
X9500Y13872D02*
X9500Y14128D01*
X9372Y14000D02*
X9628Y14000D01*
X9106Y13803D02*
X9894Y13803D01*
X9106Y14197D02*
X9894Y14197D01*
X9894Y13803D01*
X9106Y13803D02*
X9106Y14197D01*
X8950Y8703D02*
X9206Y8703D01*
X9078Y8575D02*
X9078Y8831D01*
X9274Y8309D02*
X9274Y9097D01*
X8881Y8309D02*
X8881Y9097D01*
X9274Y9097D01*
X8881Y8309D02*
X9274Y8309D01*
X13672Y12547D02*
X13928Y12547D01*
X13800Y12419D02*
X13800Y12675D01*
X13997Y12153D02*
X13997Y12941D01*
X13603Y12153D02*
X13603Y12941D01*
X13997Y12941D01*
X13603Y12153D02*
X13997Y12153D01*
X13272Y12547D02*
X13528Y12547D01*
X13400Y12419D02*
X13400Y12675D01*
X13597Y12153D02*
X13597Y12941D01*
X13203Y12153D02*
X13203Y12941D01*
X13597Y12941D01*
X13203Y12153D02*
X13597Y12153D01*
X12809Y13053D02*
X12809Y13447D01*
X13597Y13447D02*
X13597Y13053D01*
X12809Y13447D02*
X13597Y13447D01*
X12809Y13053D02*
X13597Y13053D01*
X13075Y13250D02*
X13331Y13250D01*
X13203Y13122D02*
X13203Y13378D01*
X14391Y13053D02*
X14391Y13447D01*
X13603Y13447D02*
X13603Y13053D01*
X14391Y13053D01*
X13603Y13447D02*
X14391Y13447D01*
X13869Y13250D02*
X14125Y13250D01*
X13997Y13122D02*
X13997Y13378D01*
X2909Y4303D02*
X2909Y4697D01*
X3697Y4303D02*
X3697Y4697D01*
X2909Y4697D02*
X3697Y4697D01*
X2909Y4303D02*
X3697Y4303D01*
X3175Y4500D02*
X3431Y4500D01*
X3303Y4372D02*
X3303Y4628D01*
X2909Y4803D02*
X2909Y5197D01*
X3697Y4803D02*
X3697Y5197D01*
X2909Y5197D02*
X3697Y5197D01*
X2909Y4803D02*
X3697Y4803D01*
X3175Y5000D02*
X3431Y5000D01*
X3303Y4872D02*
X3303Y5128D01*
X9572Y2497D02*
X9828Y2497D01*
X9700Y2369D02*
X9700Y2625D01*
X9503Y2103D02*
X9503Y2891D01*
X9897Y2103D02*
X9897Y2891D01*
X9503Y2103D02*
X9897Y2103D01*
X9503Y2891D02*
X9897Y2891D01*
X11598Y1395D02*
X11598Y2773D01*
X9956Y1395D02*
X9956Y2773D01*
X9956Y1395D02*
X11598Y1395D01*
X9956Y2773D02*
X11598Y2773D01*
X14853Y1679D02*
X14853Y2073D01*
X15641Y2073D02*
X15641Y1679D01*
X14853Y2073D02*
X15641Y2073D01*
X14853Y1679D02*
X15641Y1679D01*
X15119Y1876D02*
X15375Y1876D01*
X15247Y1748D02*
X15247Y2004D01*
X11806Y2853D02*
X11806Y3247D01*
X12594Y2853D02*
X12594Y3247D01*
X11806Y3247D02*
X12594Y3247D01*
X11806Y2853D02*
X12594Y2853D01*
X12072Y3050D02*
X12328Y3050D01*
X12200Y2922D02*
X12200Y3178D01*
X12200Y2422D02*
X12200Y2678D01*
X12072Y2550D02*
X12328Y2550D01*
X11806Y2353D02*
X12594Y2353D01*
X11806Y2747D02*
X12594Y2747D01*
X12594Y2353D02*
X12594Y2747D01*
X11806Y2353D02*
X11806Y2747D01*
X12200Y1922D02*
X12200Y2178D01*
X12072Y2050D02*
X12328Y2050D01*
X11806Y2247D02*
X12594Y2247D01*
X11806Y1853D02*
X12594Y1853D01*
X11806Y2247D02*
X11806Y1853D01*
X12594Y1853D02*
X12594Y2247D01*
X14053Y3159D02*
X14447Y3159D01*
X14053Y3947D02*
X14447Y3947D01*
X14053Y3159D02*
X14053Y3947D01*
X14447Y3159D02*
X14447Y3947D01*
X14250Y3425D02*
X14250Y3681D01*
X14122Y3553D02*
X14378Y3553D01*
X14000Y4172D02*
X14000Y4428D01*
X13872Y4300D02*
X14128Y4300D01*
X13606Y4497D02*
X14394Y4497D01*
X13606Y4103D02*
X14394Y4103D01*
X13606Y4497D02*
X13606Y4103D01*
X14394Y4103D02*
X14394Y4497D01*
X14000Y4572D02*
X14000Y4828D01*
X13872Y4700D02*
X14128Y4700D01*
X13606Y4897D02*
X14394Y4897D01*
X13606Y4503D02*
X14394Y4503D01*
X13606Y4503D02*
X13606Y4897D01*
X14394Y4503D02*
X14394Y4897D01*
X16122Y4503D02*
X16378Y4503D01*
X16250Y4375D02*
X16250Y4631D01*
X16053Y4109D02*
X16053Y4897D01*
X16447Y4897D02*
X16447Y4109D01*
X16053Y4109D02*
X16447Y4109D01*
X16053Y4897D02*
X16447Y4897D01*
X14150Y5322D02*
X14150Y5578D01*
X14022Y5450D02*
X14278Y5450D01*
X13756Y5253D02*
X14544Y5253D01*
X13756Y5647D02*
X14544Y5647D01*
X14544Y5253D02*
X14544Y5647D01*
X13756Y5253D02*
X13756Y5647D01*
X14500Y6478D02*
X14500Y6222D01*
X14372Y6350D02*
X14628Y6350D01*
X14106Y6153D02*
X14894Y6153D01*
X14106Y6547D02*
X14894Y6547D01*
X14894Y6153D02*
X14894Y6547D01*
X14106Y6153D02*
X14106Y6547D01*
X13522Y7324D02*
X13522Y6576D01*
X14978Y6576D02*
X14978Y7324D01*
X13522Y7324D02*
X14978Y7324D01*
X13522Y6576D02*
X14978Y6576D01*
X14053Y6950D02*
X14447Y6950D01*
X14250Y6753D02*
X14250Y7147D01*
X15967Y5217D02*
X15967Y7283D01*
X18033Y5217D02*
X18033Y7283D01*
X15967Y7283D02*
X18033Y7283D01*
X15967Y5217D02*
X18033Y5217D01*
X16872Y8250D02*
X17128Y8250D01*
X17000Y8122D02*
X17000Y8378D01*
X16803Y7856D02*
X16803Y8644D01*
X17197Y7856D02*
X17197Y8644D01*
X16803Y7856D02*
X17197Y7856D01*
X16803Y8644D02*
X17197Y8644D01*
X16947Y9122D02*
X16947Y9378D01*
X16819Y9250D02*
X17075Y9250D01*
X16553Y9053D02*
X17341Y9053D01*
X16553Y9447D02*
X17341Y9447D01*
X17341Y9053D01*
X16553Y9053D02*
X16553Y9447D01*
X12725Y9050D02*
X12981Y9050D01*
X12853Y8922D02*
X12853Y9178D01*
X13050Y8656D02*
X13050Y9444D01*
X12656Y9444D02*
X12656Y8656D01*
X12656Y9444D02*
X13050Y9444D01*
X12656Y8656D02*
X13050Y8656D01*
X13369Y9050D02*
X13625Y9050D01*
X13497Y8922D02*
X13497Y9178D01*
X13694Y8656D02*
X13694Y9444D01*
X13300Y9444D02*
X13300Y8656D01*
X13300Y9444D02*
X13694Y9444D01*
X13300Y8656D02*
X13694Y8656D01*
X16153Y7553D02*
X16547Y7553D01*
X16153Y8341D02*
X16547Y8341D01*
X16153Y7553D02*
X16153Y8341D01*
X16547Y7553D02*
X16547Y8341D01*
X16350Y7819D02*
X16350Y8075D01*
X16222Y7947D02*
X16478Y7947D01*
X14953Y7422D02*
X14953Y7678D01*
X14825Y7550D02*
X15081Y7550D01*
X14559Y7353D02*
X15347Y7353D01*
X14559Y7747D02*
X15347Y7747D01*
X15347Y7353D01*
X14559Y7353D02*
X14559Y7747D01*
X15722Y7947D02*
X15978Y7947D01*
X15850Y7819D02*
X15850Y8075D01*
X15653Y7553D02*
X15653Y8341D01*
X16047Y7553D02*
X16047Y8341D01*
X15653Y7553D02*
X16047Y7553D01*
X15653Y8341D02*
X16047Y8341D01*
X29079Y4253D02*
X29473Y4253D01*
X29079Y5041D02*
X29473Y5041D01*
X29079Y4253D02*
X29079Y5041D01*
X29473Y4253D02*
X29473Y5041D01*
X29276Y4519D02*
X29276Y4775D01*
X29148Y4647D02*
X29404Y4647D01*
X28579Y4253D02*
X28973Y4253D01*
X28579Y5041D02*
X28973Y5041D01*
X28579Y4253D02*
X28579Y5041D01*
X28973Y4253D02*
X28973Y5041D01*
X28776Y4519D02*
X28776Y4775D01*
X28648Y4647D02*
X28904Y4647D01*
X28579Y6197D02*
X28973Y6197D01*
X28579Y5409D02*
X28973Y5409D01*
X28973Y6197D01*
X28579Y5409D02*
X28579Y6197D01*
X28776Y5675D02*
X28776Y5931D01*
X28648Y5803D02*
X28904Y5803D01*
X29079Y6197D02*
X29473Y6197D01*
X29079Y5409D02*
X29473Y5409D01*
X29473Y6197D01*
X29079Y5409D02*
X29079Y6197D01*
X29276Y5675D02*
X29276Y5931D01*
X29148Y5803D02*
X29404Y5803D01*
X30079Y6197D02*
X30473Y6197D01*
X30079Y5409D02*
X30473Y5409D01*
X30473Y6197D01*
X30079Y5409D02*
X30079Y6197D01*
X30276Y5675D02*
X30276Y5931D01*
X30148Y5803D02*
X30404Y5803D01*
X30579Y6197D02*
X30973Y6197D01*
X30579Y5409D02*
X30973Y5409D01*
X30973Y6197D01*
X30579Y5409D02*
X30579Y6197D01*
X30776Y5675D02*
X30776Y5931D01*
X30648Y5803D02*
X30904Y5803D01*
X30579Y4253D02*
X30973Y4253D01*
X30579Y5041D02*
X30973Y5041D01*
X30579Y4253D02*
X30579Y5041D01*
X30973Y4253D02*
X30973Y5041D01*
X30776Y4519D02*
X30776Y4775D01*
X30648Y4647D02*
X30904Y4647D01*
X30079Y4253D02*
X30473Y4253D01*
X30079Y5041D02*
X30473Y5041D01*
X30079Y4253D02*
X30079Y5041D01*
X30473Y4253D02*
X30473Y5041D01*
X30276Y4519D02*
X30276Y4775D01*
X30148Y4647D02*
X30404Y4647D01*
X31579Y4253D02*
X31973Y4253D01*
X31579Y5041D02*
X31973Y5041D01*
X31579Y4253D02*
X31579Y5041D01*
X31973Y4253D02*
X31973Y5041D01*
X31776Y4519D02*
X31776Y4775D01*
X31648Y4647D02*
X31904Y4647D01*
X32079Y4253D02*
X32473Y4253D01*
X32079Y5041D02*
X32473Y5041D01*
X32079Y4253D02*
X32079Y5041D01*
X32473Y4253D02*
X32473Y5041D01*
X32276Y4519D02*
X32276Y4775D01*
X32148Y4647D02*
X32404Y4647D01*
X31579Y6197D02*
X31973Y6197D01*
X31579Y5409D02*
X31973Y5409D01*
X31973Y6197D01*
X31579Y5409D02*
X31579Y6197D01*
X31776Y5675D02*
X31776Y5931D01*
X31648Y5803D02*
X31904Y5803D01*
X32079Y6197D02*
X32473Y6197D01*
X32079Y5409D02*
X32473Y5409D01*
X32473Y6197D01*
X32079Y5409D02*
X32079Y6197D01*
X32276Y5675D02*
X32276Y5931D01*
X32148Y5803D02*
X32404Y5803D01*
X34041Y6003D02*
X34041Y6397D01*
X33253Y6397D02*
X33253Y6003D01*
X34041Y6003D01*
X33253Y6397D02*
X34041Y6397D01*
X33519Y6200D02*
X33775Y6200D01*
X33647Y6072D02*
X33647Y6328D01*
X34909Y4803D02*
X34909Y5197D01*
X35697Y5197D02*
X35697Y4803D01*
X34909Y5197D02*
X35697Y5197D01*
X34909Y4803D02*
X35697Y4803D01*
X35175Y5000D02*
X35431Y5000D01*
X35303Y4872D02*
X35303Y5128D01*
X34909Y5303D02*
X34909Y5697D01*
X35697Y5697D02*
X35697Y5303D01*
X34909Y5697D02*
X35697Y5697D01*
X34909Y5303D02*
X35697Y5303D01*
X35175Y5500D02*
X35431Y5500D01*
X35303Y5372D02*
X35303Y5628D01*
X34909Y5803D02*
X34909Y6197D01*
X35697Y6197D02*
X35697Y5803D01*
X34909Y6197D02*
X35697Y6197D01*
X34909Y5803D02*
X35697Y5803D01*
X35175Y6000D02*
X35431Y6000D01*
X35303Y5872D02*
X35303Y6128D01*
X35303Y6947D02*
X35697Y6947D01*
X35303Y6159D02*
X35697Y6159D01*
X35697Y6947D01*
X35303Y6159D02*
X35303Y6947D01*
X35500Y6425D02*
X35500Y6681D01*
X35372Y6553D02*
X35628Y6553D01*
X34909Y7053D02*
X34909Y7447D01*
X35697Y7447D02*
X35697Y7053D01*
X34909Y7447D02*
X35697Y7447D01*
X34909Y7053D02*
X35697Y7053D01*
X35175Y7250D02*
X35431Y7250D01*
X35303Y7122D02*
X35303Y7378D01*
X35803Y6947D02*
X36197Y6947D01*
X35803Y6159D02*
X36197Y6159D01*
X36197Y6947D01*
X35803Y6159D02*
X35803Y6947D01*
X36000Y6425D02*
X36000Y6681D01*
X35872Y6553D02*
X36128Y6553D01*
X36591Y7053D02*
X36591Y7447D01*
X35803Y7447D02*
X35803Y7053D01*
X36591Y7053D01*
X35803Y7447D02*
X36591Y7447D01*
X36069Y7250D02*
X36325Y7250D01*
X36197Y7122D02*
X36197Y7378D01*
X30079Y8622D02*
X30079Y8878D01*
X29951Y8750D02*
X30207Y8750D01*
X29685Y8947D02*
X30473Y8947D01*
X29685Y8553D02*
X30473Y8553D01*
X29685Y8947D02*
X29685Y8553D01*
X30473Y8553D02*
X30473Y8947D01*
X30079Y9072D02*
X30079Y9328D01*
X29951Y9200D02*
X30207Y9200D01*
X29685Y9003D02*
X30473Y9003D01*
X29685Y9397D02*
X30473Y9397D01*
X30473Y9003D01*
X29685Y9003D02*
X29685Y9397D01*
X33367Y9003D02*
X33367Y9397D01*
X32579Y9397D02*
X32579Y9003D01*
X33367Y9003D01*
X32579Y9397D02*
X33367Y9397D01*
X32845Y9200D02*
X33101Y9200D01*
X32973Y9072D02*
X32973Y9328D01*
X38860Y1159D02*
X39254Y1159D01*
X38860Y1947D02*
X39254Y1947D01*
X38860Y1159D02*
X38860Y1947D01*
X39254Y1159D02*
X39254Y1947D01*
X39057Y1425D02*
X39057Y1681D01*
X38929Y1553D02*
X39185Y1553D01*
X38860Y2741D02*
X39254Y2741D01*
X38860Y1953D02*
X39254Y1953D01*
X39254Y2741D01*
X38860Y1953D02*
X38860Y2741D01*
X39057Y2219D02*
X39057Y2475D01*
X38929Y2347D02*
X39185Y2347D01*
X38457Y2022D02*
X38457Y2278D01*
X38329Y2150D02*
X38585Y2150D01*
X38063Y1953D02*
X38851Y1953D01*
X38063Y2347D02*
X38851Y2347D01*
X38851Y1953D01*
X38063Y1953D02*
X38063Y2347D01*
X38457Y1622D02*
X38457Y1878D01*
X38329Y1750D02*
X38585Y1750D01*
X38063Y1553D02*
X38851Y1553D01*
X38063Y1947D02*
X38851Y1947D01*
X38851Y1553D01*
X38063Y1553D02*
X38063Y1947D01*
X37921Y8314D02*
X38714Y7521D01*
X38686Y9079D02*
X39479Y8286D01*
X37921Y8314D02*
X38686Y9079D01*
X38714Y7521D02*
X39479Y8286D01*
X38630Y8230D02*
X38770Y8370D01*
X38561Y8439D02*
X38839Y8161D01*
X38561Y8161D02*
X38630Y8230D01*
X38770Y8370D02*
X38839Y8439D01*
X36397Y8803D02*
X36397Y9197D01*
X35609Y9197D02*
X35609Y8803D01*
X36397Y8803D01*
X35609Y9197D02*
X36397Y9197D01*
X35875Y9000D02*
X36131Y9000D01*
X36003Y8872D02*
X36003Y9128D01*
X35609Y9303D02*
X35609Y9697D01*
X36397Y9697D02*
X36397Y9303D01*
X35609Y9697D02*
X36397Y9697D01*
X35609Y9303D02*
X36397Y9303D01*
X35875Y9500D02*
X36131Y9500D01*
X36003Y9372D02*
X36003Y9628D01*
X37153Y10872D02*
X37153Y11128D01*
X37025Y11000D02*
X37281Y11000D01*
X36759Y11197D02*
X37547Y11197D01*
X36759Y10803D02*
X37547Y10803D01*
X36759Y10803D02*
X36759Y11197D01*
X37547Y10803D02*
X37547Y11197D01*
X36397Y10703D02*
X36397Y11097D01*
X35609Y11097D02*
X35609Y10703D01*
X36397Y10703D01*
X35609Y11097D02*
X36397Y11097D01*
X35875Y10900D02*
X36131Y10900D01*
X36003Y10772D02*
X36003Y11028D01*
X27641Y12103D02*
X27641Y12497D01*
X26853Y12497D02*
X26853Y12103D01*
X27641Y12103D01*
X26853Y12497D02*
X27641Y12497D01*
X27119Y12300D02*
X27375Y12300D01*
X27247Y12172D02*
X27247Y12428D01*
X27641Y13503D02*
X27641Y13897D01*
X26853Y13897D02*
X26853Y13503D01*
X27641Y13503D01*
X26853Y13897D02*
X27641Y13897D01*
X27119Y13700D02*
X27375Y13700D01*
X27247Y13572D02*
X27247Y13828D01*
X22803Y11872D02*
X22803Y12128D01*
X22675Y12000D02*
X22931Y12000D01*
X22409Y11803D02*
X23197Y11803D01*
X22409Y12197D02*
X23197Y12197D01*
X23197Y11803D01*
X22409Y11803D02*
X22409Y12197D01*
X23697Y11872D02*
X23697Y12128D01*
X23569Y12000D02*
X23825Y12000D01*
X23303Y12197D02*
X24091Y12197D01*
X23303Y11803D02*
X24091Y11803D01*
X23303Y12197D02*
X23303Y11803D01*
X24091Y11803D02*
X24091Y12197D01*
X33053Y15122D02*
X33053Y15378D01*
X32925Y15250D02*
X33181Y15250D01*
X32659Y15053D02*
X33447Y15053D01*
X32659Y15447D02*
X33447Y15447D01*
X33447Y15053D01*
X32659Y15053D02*
X32659Y15447D01*
X32741Y11603D02*
X32741Y11997D01*
X31953Y11997D02*
X31953Y11603D01*
X32741Y11603D01*
X31953Y11997D02*
X32741Y11997D01*
X32219Y11800D02*
X32475Y11800D01*
X32347Y11672D02*
X32347Y11928D01*
X32741Y13003D02*
X32741Y13397D01*
X31953Y13397D02*
X31953Y13003D01*
X32741Y13003D01*
X31953Y13397D02*
X32741Y13397D01*
X32219Y13200D02*
X32475Y13200D01*
X32347Y13072D02*
X32347Y13328D01*
X30334Y11853D02*
X30334Y12247D01*
X29547Y12247D02*
X29547Y11853D01*
X30334Y11853D01*
X29547Y12247D02*
X30334Y12247D01*
X29813Y12050D02*
X30069Y12050D01*
X29941Y11922D02*
X29941Y12178D01*
X30334Y13253D02*
X30334Y13647D01*
X29547Y13647D02*
X29547Y13253D01*
X30334Y13253D01*
X29547Y13647D02*
X30334Y13647D01*
X29813Y13450D02*
X30069Y13450D01*
X29941Y13322D02*
X29941Y13578D01*
X35391Y12988D02*
X35391Y13382D01*
X34603Y13382D02*
X34603Y12988D01*
X35391Y12988D01*
X34603Y13382D02*
X35391Y13382D01*
X34869Y13185D02*
X35125Y13185D01*
X34997Y13057D02*
X34997Y13313D01*
X35391Y11588D02*
X35391Y11982D01*
X34603Y11982D02*
X34603Y11588D01*
X35391Y11588D01*
X34603Y11982D02*
X35391Y11982D01*
X34869Y11785D02*
X35125Y11785D01*
X34997Y11657D02*
X34997Y11913D01*
X35609Y11203D02*
X35609Y11597D01*
X36397Y11203D02*
X36397Y11597D01*
X35609Y11597D02*
X36397Y11597D01*
X35609Y11203D02*
X36397Y11203D01*
X35875Y11400D02*
X36131Y11400D01*
X36003Y11272D02*
X36003Y11528D01*
X37303Y12122D02*
X37303Y12378D01*
X37175Y12250D02*
X37431Y12250D01*
X36909Y12447D02*
X37697Y12447D01*
X36909Y12053D02*
X37697Y12053D01*
X36909Y12053D02*
X36909Y12447D01*
X37697Y12053D02*
X37697Y12447D01*
X37303Y11835D02*
X37303Y11579D01*
X37175Y11707D02*
X37431Y11707D01*
X36909Y11904D02*
X37697Y11904D01*
X36909Y11510D02*
X37697Y11510D01*
X36909Y11904D02*
X36909Y11510D01*
X37697Y11510D02*
X37697Y11904D01*
X38103Y10900D02*
X38497Y10900D01*
X38300Y10703D02*
X38300Y11097D01*
X39009Y9670D02*
X39009Y12130D01*
X37591Y9670D02*
X37591Y12130D01*
X39009Y12130D01*
X37591Y9670D02*
X39009Y9670D01*
X42122Y7053D02*
X42378Y7053D01*
X42250Y6925D02*
X42250Y7181D01*
X42447Y6659D02*
X42447Y7447D01*
X42053Y6659D02*
X42053Y7447D01*
X42447Y7447D01*
X42053Y6659D02*
X42447Y6659D01*
X42553Y7447D02*
X42947Y7447D01*
X42553Y6659D02*
X42947Y6659D01*
X42947Y7447D01*
X42553Y6659D02*
X42553Y7447D01*
X42750Y6925D02*
X42750Y7181D01*
X42622Y7053D02*
X42878Y7053D01*
X43122Y7053D02*
X43378Y7053D01*
X43250Y6925D02*
X43250Y7181D01*
X43447Y6659D02*
X43447Y7447D01*
X43053Y6659D02*
X43053Y7447D01*
X43447Y7447D01*
X43053Y6659D02*
X43447Y6659D01*
X45091Y7053D02*
X45091Y7447D01*
X44303Y7447D02*
X44303Y7053D01*
X45091Y7053D01*
X44303Y7447D02*
X45091Y7447D01*
X44569Y7250D02*
X44825Y7250D01*
X44697Y7122D02*
X44697Y7378D01*
X44303Y6553D02*
X44303Y6947D01*
X45091Y6947D02*
X45091Y6553D01*
X44303Y6947D02*
X45091Y6947D01*
X44303Y6553D02*
X45091Y6553D01*
X44569Y6750D02*
X44825Y6750D01*
X44697Y6622D02*
X44697Y6878D01*
X46147Y8000D02*
X46253Y8000D01*
X46200Y7947D02*
X46200Y8053D01*
X46338Y7665D02*
X46338Y8335D01*
X46062Y7665D02*
X46062Y8335D01*
X46338Y8335D01*
X46062Y7665D02*
X46338Y7665D01*
X46447Y8000D02*
X46553Y8000D01*
X46500Y7947D02*
X46500Y8053D01*
X46638Y7665D02*
X46638Y8335D01*
X46362Y7665D02*
X46362Y8335D01*
X46638Y8335D01*
X46362Y7665D02*
X46638Y7665D01*
X48071Y6280D02*
X48071Y6673D01*
X48858Y6673D02*
X48858Y6280D01*
X48071Y6673D02*
X48858Y6673D01*
X48071Y6280D02*
X48858Y6280D01*
X48337Y6476D02*
X48593Y6476D01*
X48465Y6348D02*
X48465Y6604D01*
X48140Y7854D02*
X48396Y7854D01*
X48268Y7726D02*
X48268Y7982D01*
X48465Y7461D02*
X48465Y8248D01*
X48071Y7461D02*
X48071Y8248D01*
X48465Y8248D01*
X48071Y7461D02*
X48465Y7461D01*
X48858Y7461D01*
X48465Y8248D02*
X48858Y8248D01*
X48465Y7461D02*
X48465Y8248D01*
X48858Y7461D02*
X48858Y8248D01*
X48661Y7726D02*
X48661Y7982D01*
X48533Y7854D02*
X48789Y7854D01*
X47874Y10807D02*
X48268Y10807D01*
X47874Y10020D02*
X48268Y10020D01*
X48268Y10807D01*
X47874Y10020D02*
X47874Y10807D01*
X48071Y10285D02*
X48071Y10541D01*
X47943Y10413D02*
X48199Y10413D01*
X48337Y10413D02*
X48593Y10413D01*
X48465Y10285D02*
X48465Y10541D01*
X48268Y10020D02*
X48268Y10807D01*
X48661Y10020D02*
X48661Y10807D01*
X48268Y10020D02*
X48661Y10020D01*
X48268Y10807D02*
X48661Y10807D01*
X48730Y10413D02*
X48986Y10413D01*
X48858Y10285D02*
X48858Y10541D01*
X48661Y10020D02*
X48661Y10807D01*
X49055Y10020D02*
X49055Y10807D01*
X48661Y10020D02*
X49055Y10020D01*
X48661Y10807D02*
X49055Y10807D01*
X45930Y12297D02*
X46186Y12297D01*
X46058Y12169D02*
X46058Y12425D01*
X45861Y11903D02*
X45861Y12691D01*
X46255Y11903D02*
X46255Y12691D01*
X45861Y11903D02*
X46255Y11903D01*
X45861Y12691D02*
X46255Y12691D01*
X44372Y11447D02*
X44628Y11447D01*
X44500Y11319D02*
X44500Y11575D01*
X44303Y11053D02*
X44303Y11841D01*
X44697Y11053D02*
X44697Y11841D01*
X44303Y11053D02*
X44697Y11053D01*
X44303Y11841D02*
X44697Y11841D01*
X43500Y12922D02*
X43500Y13178D01*
X43372Y13050D02*
X43628Y13050D01*
X43106Y12853D02*
X43894Y12853D01*
X43106Y13247D02*
X43894Y13247D01*
X43894Y12853D02*
X43894Y13247D01*
X43106Y12853D02*
X43106Y13247D01*
X43500Y13322D02*
X43500Y13578D01*
X43372Y13450D02*
X43628Y13450D01*
X43106Y13253D02*
X43894Y13253D01*
X43106Y13647D02*
X43894Y13647D01*
X43894Y13253D02*
X43894Y13647D01*
X43106Y13253D02*
X43106Y13647D01*
X43500Y13772D02*
X43500Y14028D01*
X43372Y13900D02*
X43628Y13900D01*
X43106Y13703D02*
X43894Y13703D01*
X43106Y14097D02*
X43894Y14097D01*
X43894Y13703D02*
X43894Y14097D01*
X43106Y13703D02*
X43106Y14097D01*
X43500Y14172D02*
X43500Y14428D01*
X43372Y14300D02*
X43628Y14300D01*
X43106Y14103D02*
X43894Y14103D01*
X43106Y14497D02*
X43894Y14497D01*
X43894Y14103D01*
X43106Y14103D02*
X43106Y14497D01*
X43500Y14622D02*
X43500Y14878D01*
X43372Y14750D02*
X43628Y14750D01*
X43106Y14553D02*
X43894Y14553D01*
X43106Y14947D02*
X43894Y14947D01*
X43894Y14553D01*
X43106Y14553D02*
X43106Y14947D01*
X43500Y15022D02*
X43500Y15278D01*
X43372Y15150D02*
X43628Y15150D01*
X43106Y14953D02*
X43894Y14953D01*
X43106Y15347D02*
X43894Y15347D01*
X43894Y14953D01*
X43106Y14953D02*
X43106Y15347D01*
X43500Y15472D02*
X43500Y15728D01*
X43372Y15600D02*
X43628Y15600D01*
X43106Y15403D02*
X43894Y15403D01*
X43106Y15797D02*
X43894Y15797D01*
X43894Y15403D02*
X43894Y15797D01*
X43106Y15403D02*
X43106Y15797D01*
X43500Y15872D02*
X43500Y16128D01*
X43372Y16000D02*
X43628Y16000D01*
X43106Y15803D02*
X43894Y15803D01*
X43106Y16197D02*
X43894Y16197D01*
X43894Y15803D02*
X43894Y16197D01*
X43106Y15803D02*
X43106Y16197D01*
X53303Y1606D02*
X53697Y1606D01*
X53303Y2394D02*
X53697Y2394D01*
X53303Y1606D02*
X53303Y2394D01*
X53697Y1606D02*
X53697Y2394D01*
X53500Y1872D02*
X53500Y2128D01*
X53372Y2000D02*
X53628Y2000D01*
X52053Y1606D02*
X52447Y1606D01*
X52053Y2394D02*
X52447Y2394D01*
X52053Y1606D02*
X52053Y2394D01*
X52447Y1606D02*
X52447Y2394D01*
X52250Y1872D02*
X52250Y2128D01*
X52122Y2000D02*
X52378Y2000D01*
X51609Y2353D02*
X51609Y2747D01*
X52397Y2747D02*
X52397Y2353D01*
X51609Y2747D02*
X52397Y2747D01*
X51609Y2353D02*
X52397Y2353D01*
X51875Y2550D02*
X52131Y2550D01*
X52003Y2422D02*
X52003Y2678D01*
X49906Y1903D02*
X49906Y2297D01*
X50694Y1903D02*
X50694Y2297D01*
X49906Y2297D02*
X50694Y2297D01*
X49906Y1903D02*
X50694Y1903D01*
X50172Y2100D02*
X50428Y2100D01*
X50300Y1972D02*
X50300Y2228D01*
X57947Y822D02*
X57947Y1078D01*
X57819Y950D02*
X58075Y950D01*
X57553Y1147D02*
X58341Y1147D01*
X57553Y753D02*
X58341Y753D01*
X57553Y1147D02*
X57553Y753D01*
X58341Y753D02*
X58341Y1147D01*
X59394Y2447D02*
X59394Y2053D01*
X58606Y2447D02*
X58606Y2053D01*
X59394Y2053D01*
X58606Y2447D02*
X59394Y2447D01*
X58872Y2250D02*
X59128Y2250D01*
X59000Y2122D02*
X59000Y2378D01*
X59394Y2553D02*
X59394Y2947D01*
X58606Y2553D02*
X58606Y2947D01*
X58606Y2553D02*
X59394Y2553D01*
X58606Y2947D02*
X59394Y2947D01*
X58872Y2750D02*
X59128Y2750D01*
X59000Y2622D02*
X59000Y2878D01*
X59394Y3553D02*
X59394Y3947D01*
X58606Y3947D02*
X58606Y3553D01*
X59394Y3553D01*
X58606Y3947D02*
X59394Y3947D01*
X58872Y3750D02*
X59128Y3750D01*
X59000Y3622D02*
X59000Y3878D01*
X60053Y2659D02*
X60447Y2659D01*
X60053Y3447D02*
X60447Y3447D01*
X60053Y2659D02*
X60053Y3447D01*
X60447Y2659D02*
X60447Y3447D01*
X60250Y3181D02*
X60250Y2925D01*
X60122Y3053D02*
X60378Y3053D01*
X52622Y3803D02*
X52878Y3803D01*
X52750Y3675D02*
X52750Y3931D01*
X52947Y4197D02*
X52947Y3409D01*
X52553Y3409D02*
X52553Y4197D01*
X52947Y4197D01*
X52553Y3409D02*
X52947Y3409D01*
X52598Y6831D02*
X52598Y7224D01*
X53386Y7224D02*
X53386Y6831D01*
X52598Y7224D02*
X53386Y7224D01*
X52598Y6831D02*
X53386Y6831D01*
X52864Y7028D02*
X53120Y7028D01*
X52992Y6900D02*
X52992Y7156D01*
X53780Y6742D02*
X53780Y6998D01*
X53652Y6870D02*
X53907Y6870D01*
X53386Y7067D02*
X54173Y7067D01*
X53386Y6673D02*
X54173Y6673D01*
X53386Y7067D02*
X53386Y6673D01*
X54173Y6673D02*
X54173Y7067D01*
X54360Y7323D02*
X54616Y7323D01*
X54488Y7195D02*
X54488Y7451D01*
X54685Y6929D02*
X54685Y7717D01*
X54291Y6929D02*
X54291Y7717D01*
X54685Y7717D01*
X54291Y6929D02*
X54685Y6929D01*
X53780Y8110D02*
X54173Y8110D01*
X53780Y7323D02*
X54173Y7323D01*
X54173Y8110D01*
X53780Y7323D02*
X53780Y8110D01*
X53976Y7589D02*
X53976Y7844D01*
X53848Y7717D02*
X54104Y7717D01*
X55354Y8504D02*
X55354Y8898D01*
X54567Y8898D02*
X54567Y8504D01*
X55354Y8504D01*
X54567Y8898D02*
X55354Y8898D01*
X54833Y8701D02*
X55089Y8701D01*
X54961Y8573D02*
X54961Y8829D01*
X56535Y9232D02*
X56929Y9232D01*
X56535Y10020D02*
X56929Y10020D01*
X56535Y9232D02*
X56535Y10020D01*
X56929Y9232D02*
X56929Y10020D01*
X56732Y9498D02*
X56732Y9754D01*
X56604Y9626D02*
X56860Y9626D01*
X55945Y9232D02*
X56339Y9232D01*
X55945Y10020D02*
X56339Y10020D01*
X55945Y9232D02*
X55945Y10020D01*
X56339Y9232D02*
X56339Y10020D01*
X56142Y9498D02*
X56142Y9754D01*
X56014Y9626D02*
X56270Y9626D01*
X55354Y9488D02*
X55354Y9882D01*
X54567Y9882D02*
X54567Y9488D01*
X55354Y9488D01*
X54567Y9882D02*
X55354Y9882D01*
X54833Y9685D02*
X55089Y9685D01*
X54961Y9557D02*
X54961Y9813D01*
X55354Y9094D02*
X55354Y9488D01*
X54567Y9488D02*
X54567Y9094D01*
X55354Y9094D01*
X54567Y9488D02*
X55354Y9488D01*
X54833Y9291D02*
X55089Y9291D01*
X54961Y9163D02*
X54961Y9419D01*
X51220Y12382D02*
X51614Y12382D01*
X51220Y11594D02*
X51614Y11594D01*
X51614Y12382D01*
X51220Y11594D02*
X51220Y12382D01*
X51417Y11860D02*
X51417Y12116D01*
X51289Y11988D02*
X51545Y11988D01*
X34738Y30159D02*
X35132Y30159D01*
X34738Y30947D02*
X35132Y30947D01*
X34738Y30159D02*
X34738Y30947D01*
X35132Y30159D02*
X35132Y30947D01*
X34935Y30425D02*
X34935Y30681D01*
X34807Y30553D02*
X35063Y30553D01*
X36028Y28230D02*
X39217Y28230D01*
X36028Y31026D02*
X39217Y31026D01*
X36028Y28230D02*
X36028Y31026D01*
X39217Y28230D02*
X39217Y31026D01*
X35319Y32285D02*
X35575Y32285D01*
X35447Y32157D02*
X35447Y32413D01*
X35250Y31892D02*
X35250Y32679D01*
X35644Y31892D02*
X35644Y32679D01*
X35250Y31892D02*
X35644Y31892D01*
X35250Y32679D02*
X35644Y32679D01*
X39622Y28697D02*
X39878Y28697D01*
X39750Y28569D02*
X39750Y28825D01*
X39947Y28303D02*
X39947Y29091D01*
X39553Y28303D02*
X39553Y29091D01*
X39947Y29091D01*
X39553Y28303D02*
X39947Y28303D01*
X40053Y29091D02*
X40447Y29091D01*
X40053Y28303D02*
X40447Y28303D01*
X40447Y29091D01*
X40053Y28303D02*
X40053Y29091D01*
X40250Y28569D02*
X40250Y28825D01*
X40122Y28697D02*
X40378Y28697D01*
X39697Y27372D02*
X39697Y27628D01*
X39569Y27500D02*
X39825Y27500D01*
X39303Y27303D02*
X40091Y27303D01*
X39303Y27697D02*
X40091Y27697D01*
X40091Y27303D01*
X39303Y27303D02*
X39303Y27697D01*
X38803Y26909D02*
X39197Y26909D01*
X38803Y27697D02*
X39197Y27697D01*
X38803Y26909D02*
X38803Y27697D01*
X39197Y26909D02*
X39197Y27697D01*
X39000Y27175D02*
X39000Y27431D01*
X38872Y27303D02*
X39128Y27303D01*
X36726Y32925D02*
X36726Y33181D01*
X36598Y33053D02*
X36854Y33053D01*
X36333Y33250D02*
X37120Y33250D01*
X36333Y32856D02*
X37120Y32856D01*
X36333Y33250D02*
X36333Y32856D01*
X37120Y32856D02*
X37120Y33250D01*
X36333Y31833D02*
X36333Y32226D01*
X37120Y32226D02*
X37120Y31833D01*
X36333Y32226D02*
X37120Y32226D01*
X36333Y31833D02*
X37120Y31833D01*
X36598Y32030D02*
X36854Y32030D01*
X36726Y31902D02*
X36726Y32157D01*
X42409Y24803D02*
X42409Y25197D01*
X43197Y25197D02*
X43197Y24803D01*
X42409Y25197D02*
X43197Y25197D01*
X42409Y24803D02*
X43197Y24803D01*
X42675Y25000D02*
X42931Y25000D01*
X42803Y24872D02*
X42803Y25128D01*
X42409Y25303D02*
X42409Y25697D01*
X43197Y25697D02*
X43197Y25303D01*
X42409Y25697D02*
X43197Y25697D01*
X42409Y25303D02*
X43197Y25303D01*
X42675Y25500D02*
X42931Y25500D01*
X42803Y25372D02*
X42803Y25628D01*
X43197Y25803D02*
X43197Y26197D01*
X42409Y26197D02*
X42409Y25803D01*
X43197Y25803D01*
X42409Y26197D02*
X43197Y26197D01*
X42675Y26000D02*
X42931Y26000D01*
X42803Y25872D02*
X42803Y26128D01*
X40683Y25947D02*
X40683Y26341D01*
X41470Y26341D02*
X41470Y25947D01*
X40683Y26341D02*
X41470Y26341D01*
X40683Y25947D02*
X41470Y25947D01*
X40949Y26144D02*
X41205Y26144D01*
X41077Y26016D02*
X41077Y26272D01*
X40699Y26459D02*
X40699Y26852D01*
X41486Y26852D02*
X41486Y26459D01*
X40699Y26852D02*
X41486Y26852D01*
X40699Y26459D02*
X41486Y26459D01*
X40965Y26656D02*
X41220Y26656D01*
X41093Y26528D02*
X41093Y26783D01*
X38372Y20803D02*
X38628Y20803D01*
X38500Y20675D02*
X38500Y20931D01*
X38697Y20409D02*
X38697Y21197D01*
X38303Y20409D02*
X38303Y21197D01*
X38697Y21197D01*
X38303Y20409D02*
X38697Y20409D01*
X38372Y21803D02*
X38628Y21803D01*
X38500Y21675D02*
X38500Y21931D01*
X38697Y21409D02*
X38697Y22197D01*
X38303Y21409D02*
X38303Y22197D01*
X38697Y22197D01*
X38303Y21409D02*
X38697Y21409D01*
X61524Y31370D02*
X61918Y31370D01*
X61524Y30582D02*
X61918Y30582D01*
X61918Y31370D01*
X61524Y30582D02*
X61524Y31370D01*
X61721Y30848D02*
X61721Y31104D01*
X61593Y30976D02*
X61849Y30976D01*
X68838Y11742D02*
X69683Y11742D01*
X68838Y10285D02*
X69683Y10285D01*
X69683Y11742D02*
X69683Y10285D01*
X68838Y10285D02*
X68838Y11742D01*
X69261Y10817D02*
X69261Y11211D01*
X69064Y11014D02*
X69458Y11014D01*
X69838Y11742D02*
X70683Y11742D01*
X69838Y10285D02*
X70683Y10285D01*
X70683Y11742D02*
X70683Y10285D01*
X69838Y10285D02*
X69838Y11742D01*
X70261Y10817D02*
X70261Y11211D01*
X70064Y11014D02*
X70458Y11014D01*
X70641Y5356D02*
X70641Y5749D01*
X69853Y5749D02*
X69853Y5356D01*
X70641Y5356D01*
X69853Y5749D02*
X70641Y5749D01*
X70119Y5552D02*
X70375Y5552D01*
X70247Y5424D02*
X70247Y5680D01*
X69303Y6249D02*
X69697Y6249D01*
X69303Y5462D02*
X69697Y5462D01*
X69697Y6249D01*
X69303Y5462D02*
X69303Y6249D01*
X69500Y5728D02*
X69500Y5983D01*
X69372Y5856D02*
X69628Y5856D01*
X69306Y6803D02*
X69700Y6803D01*
X69306Y7591D02*
X69700Y7591D01*
X69306Y6803D02*
X69306Y7591D01*
X69700Y6803D02*
X69700Y7591D01*
X69503Y7069D02*
X69503Y7325D01*
X69375Y7197D02*
X69631Y7197D01*
X70644Y7303D02*
X70644Y7697D01*
X69856Y7697D02*
X69856Y7303D01*
X70644Y7303D01*
X69856Y7697D02*
X70644Y7697D01*
X70122Y7500D02*
X70378Y7500D01*
X70250Y7372D02*
X70250Y7628D01*
X83727Y11728D02*
X84572Y11728D01*
X83727Y10272D02*
X84572Y10272D01*
X84572Y11728D02*
X84572Y10272D01*
X83727Y10272D02*
X83727Y11728D01*
X84150Y10803D02*
X84150Y11197D01*
X83953Y11000D02*
X84347Y11000D01*
X82727Y11728D02*
X83572Y11728D01*
X82727Y10272D02*
X83572Y10272D01*
X83572Y11728D02*
X83572Y10272D01*
X82727Y10272D02*
X82727Y11728D01*
X83150Y10803D02*
X83150Y11197D01*
X82953Y11000D02*
X83347Y11000D01*
X68117Y19567D02*
X68117Y19961D01*
X68905Y19567D02*
X68905Y19961D01*
X68117Y19961D02*
X68905Y19961D01*
X68117Y19567D02*
X68905Y19567D01*
X68383Y19764D02*
X68639Y19764D01*
X68511Y19636D02*
X68511Y19892D01*
X68117Y20067D02*
X68117Y20461D01*
X68905Y20067D02*
X68905Y20461D01*
X68117Y20461D02*
X68905Y20461D01*
X68117Y20067D02*
X68905Y20067D01*
X68383Y20264D02*
X68639Y20264D01*
X68511Y20136D02*
X68511Y20392D01*
X68117Y20567D02*
X68117Y20961D01*
X68905Y20567D02*
X68905Y20961D01*
X68117Y20961D02*
X68905Y20961D01*
X68117Y20567D02*
X68905Y20567D01*
X68383Y20764D02*
X68639Y20764D01*
X68511Y20636D02*
X68511Y20892D01*
X68117Y21067D02*
X68117Y21461D01*
X68905Y21067D02*
X68905Y21461D01*
X68117Y21461D02*
X68905Y21461D01*
X68117Y21067D02*
X68905Y21067D01*
X68383Y21264D02*
X68639Y21264D01*
X68511Y21136D02*
X68511Y21392D01*
X72883Y19211D02*
X73139Y19211D01*
X73011Y19083D02*
X73011Y19339D01*
X73208Y18817D02*
X73208Y19604D01*
X72814Y18817D02*
X72814Y19604D01*
X73208Y19604D01*
X72814Y18817D02*
X73208Y18817D01*
X72814Y17423D02*
X73208Y17423D01*
X72814Y18211D02*
X73208Y18211D01*
X72814Y17423D02*
X72814Y18211D01*
X73208Y17423D02*
X73208Y18211D01*
X73011Y17689D02*
X73011Y17945D01*
X72883Y17817D02*
X73139Y17817D01*
X71814Y17620D02*
X72208Y17620D01*
X71814Y18407D02*
X72208Y18407D01*
X71814Y17620D02*
X71814Y18407D01*
X72208Y17620D02*
X72208Y18407D01*
X72011Y17886D02*
X72011Y18142D01*
X71883Y18014D02*
X72139Y18014D01*
X67277Y20067D02*
X67277Y20461D01*
X66489Y20067D02*
X66489Y20461D01*
X67277Y20461D01*
X66489Y20067D02*
X67277Y20067D01*
X66755Y20264D02*
X67011Y20264D01*
X66883Y20136D02*
X66883Y20392D01*
X54356Y3853D02*
X54356Y4247D01*
X55144Y3853D02*
X55144Y4247D01*
X54356Y3853D02*
X55144Y3853D01*
X54356Y4247D02*
X55144Y4247D01*
X54622Y4050D02*
X54878Y4050D01*
X54750Y3922D02*
X54750Y4178D01*
X53583Y5886D02*
X53583Y6280D01*
X52795Y5886D02*
X52795Y6280D01*
X53583Y6280D01*
X52795Y5886D02*
X53583Y5886D01*
X53061Y6083D02*
X53317Y6083D01*
X53189Y5955D02*
X53189Y6211D01*
X53583Y6280D02*
X53583Y6673D01*
X52795Y6280D02*
X52795Y6673D01*
X53583Y6673D01*
X52795Y6280D02*
X53583Y6280D01*
X53061Y6476D02*
X53317Y6476D01*
X53189Y6348D02*
X53189Y6604D01*
X50236Y6280D02*
X50236Y6673D01*
X51024Y6280D02*
X51024Y6673D01*
X50236Y6280D02*
X51024Y6280D01*
X50236Y6673D02*
X51024Y6673D01*
X50502Y6476D02*
X50758Y6476D01*
X50630Y6348D02*
X50630Y6604D01*
X47677Y5138D02*
X48071Y5138D01*
X47677Y5925D02*
X48071Y5925D01*
X48071Y5138D02*
X48071Y5925D01*
X47677Y5138D02*
X47677Y5925D01*
X47874Y5404D02*
X47874Y5659D01*
X47746Y5531D02*
X48002Y5531D01*
X46747Y7750D02*
X46853Y7750D01*
X46800Y7697D02*
X46800Y7803D01*
X46662Y7415D02*
X46662Y8085D01*
X46938Y7415D02*
X46938Y8085D01*
X46662Y8085D02*
X46938Y8085D01*
X46662Y7415D02*
X46938Y7415D01*
X47047Y7750D02*
X47153Y7750D01*
X47100Y7697D02*
X47100Y7803D01*
X46962Y7415D02*
X46962Y8085D01*
X47238Y7415D02*
X47238Y8085D01*
X46962Y8085D02*
X47238Y8085D01*
X46962Y7415D02*
X47238Y7415D01*
X52323Y6870D02*
X52717Y6870D01*
X52323Y7657D02*
X52717Y7657D01*
X52717Y6870D02*
X52717Y7657D01*
X52323Y6870D02*
X52323Y7657D01*
X52520Y7136D02*
X52520Y7392D01*
X52392Y7264D02*
X52648Y7264D01*
X51890Y6870D02*
X52283Y6870D01*
X51890Y7657D02*
X52283Y7657D01*
X52283Y6870D02*
X52283Y7657D01*
X51890Y6870D02*
X51890Y7657D01*
X52087Y7136D02*
X52087Y7392D01*
X51959Y7264D02*
X52215Y7264D01*
X54567Y9488D02*
X54567Y9882D01*
X55354Y9488D02*
X55354Y9882D01*
X54567Y9488D02*
X55354Y9488D01*
X54567Y9882D02*
X55354Y9882D01*
X54833Y9685D02*
X55089Y9685D01*
X54961Y9557D02*
X54961Y9813D01*
X89811Y14929D02*
X89811Y15322D01*
X89024Y14929D02*
X89024Y15322D01*
X89811Y15322D01*
X89024Y14929D02*
X89811Y14929D01*
X89289Y15126D02*
X89545Y15126D01*
X89417Y14998D02*
X89417Y15254D01*
X89417Y14604D02*
X89417Y14860D01*
X89289Y14732D02*
X89545Y14732D01*
X89024Y14535D02*
X89811Y14535D01*
X89024Y14929D02*
X89811Y14929D01*
X89024Y14535D02*
X89024Y14929D01*
X89811Y14535D02*
X89811Y14929D01*
X89811Y15716D02*
X89811Y16110D01*
X89024Y15716D02*
X89024Y16110D01*
X89811Y16110D01*
X89024Y15716D02*
X89811Y15716D01*
X89289Y15913D02*
X89545Y15913D01*
X89417Y15785D02*
X89417Y16041D01*
X89811Y19259D02*
X89811Y19653D01*
X89024Y19259D02*
X89024Y19653D01*
X89811Y19653D01*
X89024Y19259D02*
X89811Y19259D01*
X89289Y19456D02*
X89545Y19456D01*
X89417Y19328D02*
X89417Y19584D01*
X89417Y18935D02*
X89417Y19191D01*
X89289Y19063D02*
X89545Y19063D01*
X89024Y19259D02*
X89811Y19259D01*
X89024Y18866D02*
X89811Y18866D01*
X89811Y19259D01*
X89024Y18866D02*
X89024Y19259D01*
X89811Y18472D02*
X89811Y18866D01*
X89024Y18472D02*
X89024Y18866D01*
X89811Y18866D01*
X89024Y18472D02*
X89811Y18472D01*
X89289Y18669D02*
X89545Y18669D01*
X89417Y18541D02*
X89417Y18797D01*
X88236Y19456D02*
X88630Y19456D01*
X88236Y20244D02*
X88630Y20244D01*
X88630Y19456D02*
X88630Y20244D01*
X88236Y19456D02*
X88236Y20244D01*
X88433Y19722D02*
X88433Y19978D01*
X88305Y19850D02*
X88561Y19850D01*
X86661Y19456D02*
X87055Y19456D01*
X86661Y20244D02*
X87055Y20244D01*
X87055Y19456D02*
X87055Y20244D01*
X86661Y19456D02*
X86661Y20244D01*
X86858Y19722D02*
X86858Y19978D01*
X86730Y19850D02*
X86986Y19850D01*
X86268Y20244D02*
X86661Y20244D01*
X86268Y19456D02*
X86661Y19456D01*
X86268Y19456D02*
X86268Y20244D01*
X86661Y19456D02*
X86661Y20244D01*
X86465Y19722D02*
X86465Y19978D01*
X86337Y19850D02*
X86593Y19850D01*
X88236Y14141D02*
X88630Y14141D01*
X88236Y14929D02*
X88630Y14929D01*
X88630Y14141D02*
X88630Y14929D01*
X88236Y14141D02*
X88236Y14929D01*
X88433Y14407D02*
X88433Y14663D01*
X88305Y14535D02*
X88561Y14535D01*
X88699Y14535D02*
X88955Y14535D01*
X88827Y14407D02*
X88827Y14663D01*
X89024Y14141D02*
X89024Y14929D01*
X88630Y14141D02*
X88630Y14929D01*
X88630Y14141D02*
X89024Y14141D01*
X88630Y14929D02*
X89024Y14929D01*
X83906Y14732D02*
X84299Y14732D01*
X83906Y15519D02*
X84299Y15519D01*
X84299Y14732D02*
X84299Y15519D01*
X83906Y14732D02*
X83906Y15519D01*
X84102Y14998D02*
X84102Y15254D01*
X83974Y15126D02*
X84230Y15126D01*
X84890Y15883D02*
X84890Y16139D01*
X84762Y16011D02*
X85018Y16011D01*
X84496Y15815D02*
X85283Y15815D01*
X84496Y16208D02*
X85283Y16208D01*
X84496Y15815D02*
X84496Y16208D01*
X85283Y15815D02*
X85283Y16208D01*
X84890Y16277D02*
X84890Y16533D01*
X84762Y16405D02*
X85018Y16405D01*
X84496Y16602D02*
X85283Y16602D01*
X84496Y16208D02*
X85283Y16208D01*
X85283Y16602D01*
X84496Y16208D02*
X84496Y16602D01*
X85146Y16543D02*
X85146Y16937D01*
X85933Y16543D02*
X85933Y16937D01*
X85146Y16543D02*
X85933Y16543D01*
X85146Y16937D02*
X85933Y16937D01*
X85411Y16740D02*
X85667Y16740D01*
X85539Y16612D02*
X85539Y16868D01*
X84762Y18669D02*
X85018Y18669D01*
X84890Y18541D02*
X84890Y18797D01*
X85087Y18275D02*
X85087Y19063D01*
X84693Y18275D02*
X84693Y19063D01*
X84693Y18275D02*
X85087Y18275D01*
X84693Y19063D02*
X85087Y19063D01*
X85156Y18669D02*
X85411Y18669D01*
X85283Y18541D02*
X85283Y18797D01*
X85087Y18275D02*
X85087Y19063D01*
X85480Y18275D02*
X85480Y19063D01*
X85087Y19063D02*
X85480Y19063D01*
X85087Y18275D02*
X85480Y18275D01*
X85480Y18767D02*
X85480Y19161D01*
X86268Y18767D02*
X86268Y19161D01*
X85480Y18767D02*
X86268Y18767D01*
X85480Y19161D02*
X86268Y19161D01*
X85746Y18964D02*
X86002Y18964D01*
X85874Y18836D02*
X85874Y19092D01*
X85283Y17409D02*
X85677Y17409D01*
X85283Y18196D02*
X85677Y18196D01*
X85677Y17409D02*
X85677Y18196D01*
X85283Y17409D02*
X85283Y18196D01*
X85480Y17675D02*
X85480Y17931D01*
X85352Y17803D02*
X85608Y17803D01*
X4303Y49053D02*
X4697Y49053D01*
X4303Y49841D02*
X4697Y49841D01*
X4697Y49053D02*
X4697Y49841D01*
X4303Y49053D02*
X4303Y49841D01*
X4500Y49319D02*
X4500Y49575D01*
X4372Y49447D02*
X4628Y49447D01*
X29291Y43963D02*
X29291Y44356D01*
X30079Y43963D02*
X30079Y44356D01*
X29291Y43963D02*
X30079Y43963D01*
X29291Y44356D02*
X30079Y44356D01*
X29557Y44159D02*
X29813Y44159D01*
X29685Y44032D02*
X29685Y44287D01*
X25650Y43244D02*
X25650Y43638D01*
X26437Y43244D02*
X26437Y43638D01*
X25650Y43244D02*
X26437Y43244D01*
X25650Y43638D02*
X26437Y43638D01*
X25915Y43441D02*
X26171Y43441D01*
X26043Y43313D02*
X26043Y43569D01*
X25256Y43803D02*
X25256Y44197D01*
X26043Y43803D02*
X26043Y44197D01*
X25256Y43803D02*
X26043Y43803D01*
X25256Y44197D02*
X26043Y44197D01*
X25522Y44000D02*
X25778Y44000D01*
X25650Y43872D02*
X25650Y44128D01*
X25226Y44697D02*
X25482Y44697D01*
X25354Y44569D02*
X25354Y44825D01*
X25157Y44303D02*
X25157Y45091D01*
X25551Y44303D02*
X25551Y45091D01*
X25157Y45091D02*
X25551Y45091D01*
X25157Y44303D02*
X25551Y44303D01*
X37341Y27053D02*
X37341Y27447D01*
X36553Y27053D02*
X36553Y27447D01*
X37341Y27447D01*
X36553Y27053D02*
X37341Y27053D01*
X36819Y27250D02*
X37075Y27250D01*
X36947Y27122D02*
X36947Y27378D01*
X36372Y26800D02*
X36628Y26800D01*
X36500Y26672D02*
X36500Y26928D01*
X36697Y26406D02*
X36697Y27194D01*
X36303Y26406D02*
X36303Y27194D01*
X36303Y26406D02*
X36697Y26406D01*
X36303Y27194D02*
X36697Y27194D01*
X45159Y28803D02*
X45159Y29197D01*
X45947Y28803D02*
X45947Y29197D01*
X45159Y28803D02*
X45947Y28803D01*
X45159Y29197D02*
X45947Y29197D01*
X45425Y29000D02*
X45681Y29000D01*
X45553Y28872D02*
X45553Y29128D01*
X45159Y28303D02*
X45159Y28697D01*
X45947Y28303D02*
X45947Y28697D01*
X45159Y28303D02*
X45947Y28303D01*
X45159Y28697D02*
X45947Y28697D01*
X45425Y28500D02*
X45681Y28500D01*
X45553Y28372D02*
X45553Y28628D01*
X47097Y25053D02*
X47097Y25447D01*
X46309Y25053D02*
X46309Y25447D01*
X47097Y25447D01*
X46309Y25053D02*
X47097Y25053D01*
X46575Y25250D02*
X46831Y25250D01*
X46703Y25122D02*
X46703Y25378D01*
X46309Y25553D02*
X46309Y25947D01*
X47097Y25553D02*
X47097Y25947D01*
X46309Y25553D02*
X47097Y25553D01*
X46309Y25947D02*
X47097Y25947D01*
X46575Y25750D02*
X46831Y25750D01*
X46703Y25622D02*
X46703Y25878D01*
X46309Y26053D02*
X46309Y26447D01*
X47097Y26053D02*
X47097Y26447D01*
X46309Y26053D02*
X47097Y26053D01*
X46309Y26447D02*
X47097Y26447D01*
X46575Y26250D02*
X46831Y26250D01*
X46703Y26122D02*
X46703Y26378D01*
X46309Y26553D02*
X46309Y26947D01*
X47097Y26553D02*
X47097Y26947D01*
X46309Y26553D02*
X47097Y26553D01*
X46309Y26947D02*
X47097Y26947D01*
X46575Y26750D02*
X46831Y26750D01*
X46703Y26622D02*
X46703Y26878D01*
X46309Y27053D02*
X46309Y27447D01*
X47097Y27053D02*
X47097Y27447D01*
X46309Y27053D02*
X47097Y27053D01*
X46309Y27447D02*
X47097Y27447D01*
X46575Y27250D02*
X46831Y27250D01*
X46703Y27122D02*
X46703Y27378D01*
X46309Y27553D02*
X46309Y27947D01*
X47097Y27553D02*
X47097Y27947D01*
X46309Y27553D02*
X47097Y27553D01*
X46309Y27947D02*
X47097Y27947D01*
X46575Y27750D02*
X46831Y27750D01*
X46703Y27622D02*
X46703Y27878D01*
X59752Y28023D02*
X60146Y28023D01*
X59752Y27236D02*
X60146Y27236D01*
X59752Y27236D02*
X59752Y28023D01*
X60146Y27236D02*
X60146Y28023D01*
X59949Y27502D02*
X59949Y27757D01*
X59821Y27630D02*
X60077Y27630D01*
X59359Y27236D02*
X59752Y27236D01*
X59359Y28023D02*
X59752Y28023D01*
X59752Y27236D02*
X59752Y28023D01*
X59359Y27236D02*
X59359Y28023D01*
X59556Y27502D02*
X59556Y27757D01*
X59428Y27630D02*
X59683Y27630D01*
X57843Y27137D02*
X57843Y27531D01*
X57646Y27334D02*
X58040Y27334D01*
X56898Y26901D02*
X58788Y26901D01*
X56898Y27767D02*
X58788Y27767D01*
X56898Y26901D02*
X56898Y27767D01*
X58788Y26901D02*
X58788Y27767D01*
X65103Y26947D02*
X65497Y26947D01*
X65103Y26159D02*
X65497Y26159D01*
X65103Y26159D02*
X65103Y26947D01*
X65497Y26159D02*
X65497Y26947D01*
X65300Y26425D02*
X65300Y26681D01*
X65172Y26553D02*
X65428Y26553D01*
X64553Y26947D02*
X64947Y26947D01*
X64553Y26159D02*
X64947Y26159D01*
X64553Y26159D02*
X64553Y26947D01*
X64947Y26159D02*
X64947Y26947D01*
X64750Y26425D02*
X64750Y26681D01*
X64622Y26553D02*
X64878Y26553D01*
X64053Y26947D02*
X64447Y26947D01*
X64053Y26159D02*
X64447Y26159D01*
X64053Y26159D02*
X64053Y26947D01*
X64447Y26159D02*
X64447Y26947D01*
X64250Y26425D02*
X64250Y26681D01*
X64122Y26553D02*
X64378Y26553D01*
X63553Y26947D02*
X63947Y26947D01*
X63553Y26159D02*
X63947Y26159D01*
X63553Y26159D02*
X63553Y26947D01*
X63947Y26159D02*
X63947Y26947D01*
X63750Y26425D02*
X63750Y26681D01*
X63622Y26553D02*
X63878Y26553D01*
X65416Y27531D02*
X65416Y27925D01*
X66203Y27531D02*
X66203Y27925D01*
X65416Y27531D02*
X66203Y27531D01*
X65416Y27925D02*
X66203Y27925D01*
X65682Y27728D02*
X65937Y27728D01*
X65809Y27600D02*
X65809Y27856D01*
X60933Y31173D02*
X61327Y31173D01*
X60933Y31960D02*
X61327Y31960D01*
X61327Y31173D02*
X61327Y31960D01*
X60933Y31173D02*
X60933Y31960D01*
X61130Y31439D02*
X61130Y31694D01*
X61002Y31567D02*
X61258Y31567D01*
X68053Y25199D02*
X68447Y25199D01*
X68250Y25002D02*
X68250Y25396D01*
X68683Y24254D02*
X68683Y26144D01*
X67817Y24254D02*
X67817Y26144D01*
X67817Y24254D02*
X68683Y24254D01*
X67817Y26144D02*
X68683Y26144D01*
X65416Y27925D02*
X65416Y28319D01*
X66203Y27925D02*
X66203Y28319D01*
X65416Y27925D02*
X66203Y27925D01*
X65416Y28319D02*
X66203Y28319D01*
X65682Y28122D02*
X65937Y28122D01*
X65809Y27994D02*
X65809Y28250D01*
X66605Y28811D02*
X66605Y29204D01*
X65817Y28811D02*
X65817Y29204D01*
X66605Y29204D01*
X65817Y28811D02*
X66605Y28811D01*
X66083Y29007D02*
X66339Y29007D01*
X66211Y28880D02*
X66211Y29135D01*
X65493Y28811D02*
X65748Y28811D01*
X65620Y28683D02*
X65620Y28939D01*
X65817Y28417D02*
X65817Y29204D01*
X65424Y28417D02*
X65424Y29204D01*
X65424Y28417D02*
X65817Y28417D01*
X65424Y29204D02*
X65817Y29204D01*
X66605Y29598D02*
X66605Y29992D01*
X65817Y29598D02*
X65817Y29992D01*
X66605Y29992D01*
X65817Y29598D02*
X66605Y29598D01*
X66083Y29795D02*
X66339Y29795D01*
X66211Y29667D02*
X66211Y29923D01*
X65493Y29598D02*
X65748Y29598D01*
X65620Y29470D02*
X65620Y29726D01*
X65817Y29204D02*
X65817Y29992D01*
X65424Y29204D02*
X65424Y29992D01*
X65424Y29204D02*
X65817Y29204D01*
X65424Y29992D02*
X65817Y29992D01*
X66605Y30385D02*
X66605Y30779D01*
X65817Y30385D02*
X65817Y30779D01*
X66605Y30779D01*
X65817Y30385D02*
X66605Y30385D01*
X66083Y30582D02*
X66339Y30582D01*
X66211Y30454D02*
X66211Y30710D01*
X65493Y30385D02*
X65748Y30385D01*
X65620Y30257D02*
X65620Y30513D01*
X65817Y29992D02*
X65817Y30779D01*
X65424Y29992D02*
X65424Y30779D01*
X65424Y29992D02*
X65817Y29992D01*
X65424Y30779D02*
X65817Y30779D01*
X65493Y31173D02*
X65748Y31173D01*
X65620Y31045D02*
X65620Y31301D01*
X65817Y30779D02*
X65817Y31567D01*
X65424Y30779D02*
X65424Y31567D01*
X65424Y30779D02*
X65817Y30779D01*
X65424Y31567D02*
X65817Y31567D01*
X64656Y32303D02*
X64656Y32697D01*
X65444Y32303D02*
X65444Y32697D01*
X64656Y32303D02*
X65444Y32303D01*
X64656Y32697D02*
X65444Y32697D01*
X64922Y32500D02*
X65178Y32500D01*
X65050Y32372D02*
X65050Y32628D01*
X64644Y32303D02*
X64644Y32697D01*
X63856Y32303D02*
X63856Y32697D01*
X64644Y32697D01*
X63856Y32303D02*
X64644Y32303D01*
X64122Y32500D02*
X64378Y32500D01*
X64250Y32372D02*
X64250Y32628D01*
X63394Y32551D02*
X63394Y32944D01*
X62607Y32551D02*
X62607Y32944D01*
X63394Y32944D01*
X62607Y32551D02*
X63394Y32551D01*
X62872Y32748D02*
X63128Y32748D01*
X63000Y32620D02*
X63000Y32876D01*
X61327Y31960D02*
X61721Y31960D01*
X61327Y31173D02*
X61721Y31173D01*
X61327Y31173D02*
X61327Y31960D01*
X61721Y31173D02*
X61721Y31960D01*
X61524Y31439D02*
X61524Y31694D01*
X61396Y31567D02*
X61652Y31567D01*
X61721Y31960D02*
X62115Y31960D01*
X61721Y31173D02*
X62115Y31173D01*
X61721Y31173D02*
X61721Y31960D01*
X62115Y31173D02*
X62115Y31960D01*
X61918Y31439D02*
X61918Y31694D01*
X61790Y31567D02*
X62046Y31567D01*
X60835Y34618D02*
X61229Y34618D01*
X60835Y33830D02*
X61229Y33830D01*
X60835Y33830D02*
X60835Y34618D01*
X61229Y33830D02*
X61229Y34618D01*
X61032Y34096D02*
X61032Y34352D01*
X60904Y34224D02*
X61160Y34224D01*
X60244Y34374D02*
X60244Y34768D01*
X59457Y34374D02*
X59457Y34768D01*
X60244Y34768D01*
X59457Y34374D02*
X60244Y34374D01*
X59723Y34571D02*
X59979Y34571D01*
X59851Y34443D02*
X59851Y34699D01*
X60402Y33437D02*
X60796Y33437D01*
X60402Y34224D02*
X60796Y34224D01*
X60796Y33437D02*
X60796Y34224D01*
X60402Y33437D02*
X60402Y34224D01*
X60599Y33702D02*
X60599Y33958D01*
X60471Y33830D02*
X60727Y33830D01*
X60402Y33437D02*
X60796Y33437D01*
X60402Y32649D02*
X60796Y32649D01*
X60402Y32649D02*
X60402Y33437D01*
X60796Y32649D02*
X60796Y33437D01*
X60599Y32915D02*
X60599Y33171D01*
X60471Y33043D02*
X60727Y33043D01*
X26853Y13503D02*
X26853Y13897D01*
X27641Y13503D02*
X27641Y13897D01*
X26853Y13503D02*
X27641Y13503D01*
X26853Y13897D02*
X27641Y13897D01*
X27119Y13700D02*
X27375Y13700D01*
X27247Y13572D02*
X27247Y13828D01*
X26853Y12103D02*
X26853Y12497D01*
X27641Y12103D02*
X27641Y12497D01*
X26853Y12103D02*
X27641Y12103D01*
X26853Y12497D02*
X27641Y12497D01*
X27119Y12300D02*
X27375Y12300D01*
X27247Y12172D02*
X27247Y12428D01*
X29547Y11853D02*
X29547Y12247D01*
X30334Y11853D02*
X30334Y12247D01*
X29547Y11853D02*
X30334Y11853D01*
X29547Y12247D02*
X30334Y12247D01*
X29813Y12050D02*
X30069Y12050D01*
X29941Y11922D02*
X29941Y12178D01*
X29547Y13253D02*
X29547Y13647D01*
X30334Y13253D02*
X30334Y13647D01*
X29547Y13253D02*
X30334Y13253D01*
X29547Y13647D02*
X30334Y13647D01*
X29813Y13450D02*
X30069Y13450D01*
X29941Y13322D02*
X29941Y13578D01*
X31953Y13003D02*
X31953Y13397D01*
X32741Y13003D02*
X32741Y13397D01*
X31953Y13003D02*
X32741Y13003D01*
X31953Y13397D02*
X32741Y13397D01*
X32219Y13200D02*
X32475Y13200D01*
X32347Y13072D02*
X32347Y13328D01*
X31953Y11603D02*
X31953Y11997D01*
X32741Y11603D02*
X32741Y11997D01*
X31953Y11603D02*
X32741Y11603D01*
X31953Y11997D02*
X32741Y11997D01*
X32219Y11800D02*
X32475Y11800D01*
X32347Y11672D02*
X32347Y11928D01*
X34603Y12988D02*
X34603Y13382D01*
X35391Y12988D02*
X35391Y13382D01*
X34603Y12988D02*
X35391Y12988D01*
X34603Y13382D02*
X35391Y13382D01*
X34869Y13185D02*
X35125Y13185D01*
X34997Y13057D02*
X34997Y13313D01*
X34603Y11588D02*
X34603Y11982D01*
X35391Y11588D02*
X35391Y11982D01*
X34603Y11588D02*
X35391Y11588D01*
X34603Y11982D02*
X35391Y11982D01*
X34869Y11785D02*
X35125Y11785D01*
X34997Y11657D02*
X34997Y11913D01*
X29079Y5409D02*
X29473Y5409D01*
X29079Y6197D02*
X29473Y6197D01*
X29473Y5409D02*
X29473Y6197D01*
X29079Y5409D02*
X29079Y6197D01*
X29276Y5675D02*
X29276Y5931D01*
X29148Y5803D02*
X29404Y5803D01*
X28579Y5409D02*
X28973Y5409D01*
X28579Y6197D02*
X28973Y6197D01*
X28973Y5409D02*
X28973Y6197D01*
X28579Y5409D02*
X28579Y6197D01*
X28776Y5675D02*
X28776Y5931D01*
X28648Y5803D02*
X28904Y5803D01*
X30579Y5409D02*
X30973Y5409D01*
X30579Y6197D02*
X30973Y6197D01*
X30973Y5409D02*
X30973Y6197D01*
X30579Y5409D02*
X30579Y6197D01*
X30776Y5675D02*
X30776Y5931D01*
X30648Y5803D02*
X30904Y5803D01*
X30079Y5409D02*
X30473Y5409D01*
X30079Y6197D02*
X30473Y6197D01*
X30473Y5409D02*
X30473Y6197D01*
X30079Y5409D02*
X30079Y6197D01*
X30276Y5675D02*
X30276Y5931D01*
X30148Y5803D02*
X30404Y5803D01*
X31579Y5409D02*
X31973Y5409D01*
X31579Y6197D02*
X31973Y6197D01*
X31973Y5409D02*
X31973Y6197D01*
X31579Y5409D02*
X31579Y6197D01*
X31776Y5675D02*
X31776Y5931D01*
X31648Y5803D02*
X31904Y5803D01*
X32079Y5409D02*
X32473Y5409D01*
X32079Y6197D02*
X32473Y6197D01*
X32473Y5409D02*
X32473Y6197D01*
X32079Y5409D02*
X32079Y6197D01*
X32276Y5675D02*
X32276Y5931D01*
X32148Y5803D02*
X32404Y5803D01*
X55159Y20041D02*
X55553Y20041D01*
X55159Y20829D02*
X55553Y20829D01*
X55159Y20041D02*
X55159Y20829D01*
X55553Y20041D02*
X55553Y20829D01*
X55356Y20307D02*
X55356Y20563D01*
X55228Y20435D02*
X55484Y20435D01*
X54404Y18659D02*
X54797Y18659D01*
X54404Y19447D02*
X54797Y19447D01*
X54404Y18659D02*
X54404Y19447D01*
X54797Y18659D02*
X54797Y19447D01*
X54600Y18925D02*
X54600Y19181D01*
X54472Y19053D02*
X54728Y19053D01*
X54266Y21341D02*
X54266Y21734D01*
X54069Y21537D02*
X54463Y21537D01*
X53537Y21961D02*
X54994Y21961D01*
X53537Y21116D02*
X54994Y21116D01*
X53537Y21116D02*
X53537Y21961D01*
X54994Y21116D02*
X54994Y21961D01*
X53341Y19569D02*
X53341Y20947D01*
X54915Y19569D02*
X54915Y20947D01*
X53341Y20947D02*
X54915Y20947D01*
X53341Y19569D02*
X54915Y19569D01*
M02*
