G04 Layer_Color=8388736*
%FSLAX24Y24*%
%MOIN*%
G70*
G01*
G75*
%ADD88C,0.0100*%
D88*
X94094Y50394D02*
G03*
X90157Y54331I-3937J0D01*
G01*
X3924Y54331D02*
G03*
X-13Y50394I0J-3937D01*
G01*
X-13Y3937D02*
G03*
X3924Y0I3937J0D01*
G01*
X90157Y0D02*
G03*
X94094Y3937I0J3937D01*
G01*
X3924Y54331D02*
X90157Y54331D01*
X94094Y3937D02*
X94094Y50394D01*
X-13Y3937D02*
X-13Y50394D01*
X3924Y0D02*
X90157Y0D01*
X-14820Y1700D02*
X-14905Y1671D01*
X-14963Y1586D01*
X-14991Y1443D01*
X-14991Y1357D01*
X-14963Y1214D01*
X-14905Y1129D01*
X-14820Y1100D01*
X-14763Y1100D01*
X-14677Y1129D01*
X-14620Y1214D01*
X-14591Y1357D01*
X-14591Y1443D01*
X-14620Y1586D01*
X-14677Y1671D01*
X-14763Y1700D01*
X-14820Y1700D01*
X-14428Y1557D02*
X-14428Y1586D01*
X-14400Y1643D01*
X-14371Y1671D01*
X-14314Y1700D01*
X-14200Y1700D01*
X-14143Y1671D01*
X-14114Y1643D01*
X-14086Y1586D01*
X-14086Y1528D01*
X-14114Y1471D01*
X-14171Y1386D01*
X-14457Y1100D01*
X-14057Y1100D01*
X-13451Y1386D02*
X-13194Y1386D01*
X-13109Y1414D01*
X-13080Y1443D01*
X-13052Y1500D01*
X-13052Y1586D01*
X-13080Y1643D01*
X-13109Y1671D01*
X-13194Y1700D01*
X-13451Y1700D01*
X-13451Y1100D01*
X-12489Y1557D02*
X-12517Y1614D01*
X-12574Y1671D01*
X-12632Y1700D01*
X-12746Y1700D01*
X-12803Y1671D01*
X-12860Y1614D01*
X-12889Y1557D01*
X-12917Y1471D01*
X-12917Y1329D01*
X-12889Y1243D01*
X-12860Y1186D01*
X-12803Y1129D01*
X-12746Y1100D01*
X-12632Y1100D01*
X-12574Y1129D01*
X-12517Y1186D01*
X-12489Y1243D01*
X-12320Y1700D02*
X-12320Y1100D01*
X-12320Y1700D02*
X-12063Y1700D01*
X-11977Y1671D01*
X-11949Y1643D01*
X-11920Y1586D01*
X-11920Y1528D01*
X-11949Y1471D01*
X-11977Y1443D01*
X-12063Y1414D01*
X-12320Y1414D02*
X-12063Y1414D01*
X-11977Y1386D01*
X-11949Y1357D01*
X-11920Y1300D01*
X-11920Y1214D01*
X-11949Y1157D01*
X-11977Y1129D01*
X-12063Y1100D01*
X-12320Y1100D01*
X-11315Y1700D02*
X-11315Y1100D01*
X-11315Y1700D02*
X-11058Y1700D01*
X-10972Y1671D01*
X-10943Y1643D01*
X-10915Y1586D01*
X-10915Y1528D01*
X-10943Y1471D01*
X-10972Y1443D01*
X-11058Y1414D01*
X-11315Y1414D02*
X-11058Y1414D01*
X-10972Y1386D01*
X-10943Y1357D01*
X-10915Y1300D01*
X-10915Y1214D01*
X-10943Y1157D01*
X-10972Y1129D01*
X-11058Y1100D01*
X-11315Y1100D01*
X-10609Y1700D02*
X-10666Y1671D01*
X-10723Y1614D01*
X-10752Y1557D01*
X-10781Y1471D01*
X-10781Y1329D01*
X-10752Y1243D01*
X-10723Y1186D01*
X-10666Y1129D01*
X-10609Y1100D01*
X-10495Y1100D01*
X-10438Y1129D01*
X-10381Y1186D01*
X-10352Y1243D01*
X-10324Y1329D01*
X-10324Y1471D01*
X-10352Y1557D01*
X-10381Y1614D01*
X-10438Y1671D01*
X-10495Y1700D01*
X-10609Y1700D01*
X-10184Y1700D02*
X-10184Y1271D01*
X-10155Y1186D01*
X-10098Y1129D01*
X-10012Y1100D01*
X-9955Y1100D01*
X-9869Y1129D01*
X-9812Y1186D01*
X-9784Y1271D01*
X-9784Y1700D01*
X-9618Y1700D02*
X-9618Y1100D01*
X-9618Y1700D02*
X-9218Y1100D01*
X-9218Y1700D02*
X-9218Y1100D01*
X-9052Y1700D02*
X-9052Y1100D01*
X-9052Y1700D02*
X-8852Y1700D01*
X-8767Y1671D01*
X-8710Y1614D01*
X-8681Y1557D01*
X-8652Y1471D01*
X-8652Y1329D01*
X-8681Y1243D01*
X-8710Y1186D01*
X-8767Y1129D01*
X-8852Y1100D01*
X-9052Y1100D01*
X-8518Y1700D02*
X-8518Y1100D01*
X-8518Y1700D02*
X-8261Y1700D01*
X-8175Y1671D01*
X-8147Y1643D01*
X-8118Y1586D01*
X-8118Y1528D01*
X-8147Y1471D01*
X-8175Y1443D01*
X-8261Y1414D01*
X-8518Y1414D01*
X-8318Y1414D02*
X-8118Y1100D01*
X-7984Y1700D02*
X-7756Y1414D01*
X-7756Y1100D01*
X-7527Y1700D02*
X-7756Y1414D01*
M02*
