G04 Layer_Physical_Order=1*
G04 Layer_Color=255*
%FSLAX24Y24*%
%MOIN*%
G70*
G01*
G75*
%ADD10C,0.0050*%
G04:AMPARAMS|DCode=11|XSize=25.6mil|YSize=23.6mil|CornerRadius=5.9mil|HoleSize=0mil|Usage=FLASHONLY|Rotation=180.000|XOffset=0mil|YOffset=0mil|HoleType=Round|Shape=RoundedRectangle|*
%AMROUNDEDRECTD11*
21,1,0.0256,0.0118,0,0,180.0*
21,1,0.0138,0.0236,0,0,180.0*
1,1,0.0118,-0.0069,0.0059*
1,1,0.0118,0.0069,0.0059*
1,1,0.0118,0.0069,-0.0059*
1,1,0.0118,-0.0069,-0.0059*
%
%ADD11ROUNDEDRECTD11*%
G04:AMPARAMS|DCode=12|XSize=25.6mil|YSize=23.6mil|CornerRadius=5.9mil|HoleSize=0mil|Usage=FLASHONLY|Rotation=90.000|XOffset=0mil|YOffset=0mil|HoleType=Round|Shape=RoundedRectangle|*
%AMROUNDEDRECTD12*
21,1,0.0256,0.0118,0,0,90.0*
21,1,0.0138,0.0236,0,0,90.0*
1,1,0.0118,0.0059,0.0069*
1,1,0.0118,0.0059,-0.0069*
1,1,0.0118,-0.0059,-0.0069*
1,1,0.0118,-0.0059,0.0069*
%
%ADD12ROUNDEDRECTD12*%
%ADD13R,0.0197X0.0236*%
%ADD14R,0.0236X0.0197*%
%ADD15R,0.0640X0.0860*%
%ADD16R,0.0860X0.0640*%
%ADD17R,0.0610X0.0217*%
%ADD18C,0.0394*%
%ADD19C,0.0252*%
G04:AMPARAMS|DCode=20|XSize=23.6mil|YSize=9.8mil|CornerRadius=2mil|HoleSize=0mil|Usage=FLASHONLY|Rotation=0.000|XOffset=0mil|YOffset=0mil|HoleType=Round|Shape=RoundedRectangle|*
%AMROUNDEDRECTD20*
21,1,0.0236,0.0059,0,0,0.0*
21,1,0.0197,0.0098,0,0,0.0*
1,1,0.0039,0.0098,-0.0030*
1,1,0.0039,-0.0098,-0.0030*
1,1,0.0039,-0.0098,0.0030*
1,1,0.0039,0.0098,0.0030*
%
%ADD20ROUNDEDRECTD20*%
G04:AMPARAMS|DCode=21|XSize=23.6mil|YSize=9.8mil|CornerRadius=2mil|HoleSize=0mil|Usage=FLASHONLY|Rotation=90.000|XOffset=0mil|YOffset=0mil|HoleType=Round|Shape=RoundedRectangle|*
%AMROUNDEDRECTD21*
21,1,0.0236,0.0059,0,0,90.0*
21,1,0.0197,0.0098,0,0,90.0*
1,1,0.0039,0.0030,0.0098*
1,1,0.0039,0.0030,-0.0098*
1,1,0.0039,-0.0030,-0.0098*
1,1,0.0039,-0.0030,0.0098*
%
%ADD21ROUNDEDRECTD21*%
G04:AMPARAMS|DCode=22|XSize=232.3mil|YSize=232.3mil|CornerRadius=2.3mil|HoleSize=0mil|Usage=FLASHONLY|Rotation=90.000|XOffset=0mil|YOffset=0mil|HoleType=Round|Shape=RoundedRectangle|*
%AMROUNDEDRECTD22*
21,1,0.2323,0.2276,0,0,90.0*
21,1,0.2276,0.2323,0,0,90.0*
1,1,0.0046,0.1138,0.1138*
1,1,0.0046,0.1138,-0.1138*
1,1,0.0046,-0.1138,-0.1138*
1,1,0.0046,-0.1138,0.1138*
%
%ADD22ROUNDEDRECTD22*%
%ADD23R,0.0130X0.0445*%
%ADD24R,0.0394X0.0433*%
%ADD25R,0.0827X0.0551*%
%ADD26R,0.0500X0.0354*%
%ADD27R,0.0315X0.0571*%
%ADD28R,0.0531X0.0728*%
%ADD29R,0.0512X0.0591*%
G04:AMPARAMS|DCode=30|XSize=70.9mil|YSize=63mil|CornerRadius=15.7mil|HoleSize=0mil|Usage=FLASHONLY|Rotation=180.000|XOffset=0mil|YOffset=0mil|HoleType=Round|Shape=RoundedRectangle|*
%AMROUNDEDRECTD30*
21,1,0.0709,0.0315,0,0,180.0*
21,1,0.0394,0.0630,0,0,180.0*
1,1,0.0315,-0.0197,0.0157*
1,1,0.0315,0.0197,0.0157*
1,1,0.0315,0.0197,-0.0157*
1,1,0.0315,-0.0197,-0.0157*
%
%ADD30ROUNDEDRECTD30*%
%ADD31R,0.0335X0.0394*%
%ADD32R,0.0335X0.0394*%
%ADD33R,0.0118X0.0551*%
%ADD34R,0.1043X0.0787*%
%ADD35R,0.0480X0.0236*%
%ADD36R,0.0433X0.0394*%
%ADD37R,0.0335X0.0157*%
%ADD38R,0.0590X0.0280*%
%ADD39R,0.0320X0.0390*%
%ADD40R,0.0984X0.0197*%
%ADD41O,0.0571X0.0098*%
%ADD42R,0.0236X0.0480*%
%ADD43R,0.0787X0.2165*%
%ADD44O,0.0531X0.0217*%
%ADD45O,0.0217X0.0531*%
%ADD46R,0.0728X0.0531*%
%ADD47R,0.0295X0.0138*%
%ADD48R,0.0669X0.0945*%
%ADD49R,0.0394X0.0335*%
%ADD50R,0.0394X0.0335*%
G04:AMPARAMS|DCode=51|XSize=59.1mil|YSize=51.2mil|CornerRadius=12.8mil|HoleSize=0mil|Usage=FLASHONLY|Rotation=90.000|XOffset=0mil|YOffset=0mil|HoleType=Round|Shape=RoundedRectangle|*
%AMROUNDEDRECTD51*
21,1,0.0591,0.0256,0,0,90.0*
21,1,0.0335,0.0512,0,0,90.0*
1,1,0.0256,0.0128,0.0167*
1,1,0.0256,0.0128,-0.0167*
1,1,0.0256,-0.0128,-0.0167*
1,1,0.0256,-0.0128,0.0167*
%
%ADD51ROUNDEDRECTD51*%
%ADD52O,0.0374X0.0098*%
%ADD53O,0.0098X0.0374*%
%ADD54R,0.0984X0.0984*%
%ADD55R,0.0669X0.0591*%
G04:AMPARAMS|DCode=56|XSize=25.6mil|YSize=31.5mil|CornerRadius=0mil|HoleSize=0mil|Usage=FLASHONLY|Rotation=135.000|XOffset=0mil|YOffset=0mil|HoleType=Round|Shape=Rectangle|*
%AMROTATEDRECTD56*
4,1,4,0.0202,0.0021,-0.0021,-0.0202,-0.0202,-0.0021,0.0021,0.0202,0.0202,0.0021,0.0*
%
%ADD56ROTATEDRECTD56*%

%ADD57R,0.0118X0.0591*%
G04:AMPARAMS|DCode=58|XSize=15.7mil|YSize=17.7mil|CornerRadius=3.9mil|HoleSize=0mil|Usage=FLASHONLY|Rotation=180.000|XOffset=0mil|YOffset=0mil|HoleType=Round|Shape=RoundedRectangle|*
%AMROUNDEDRECTD58*
21,1,0.0157,0.0098,0,0,180.0*
21,1,0.0079,0.0177,0,0,180.0*
1,1,0.0079,-0.0039,0.0049*
1,1,0.0079,0.0039,0.0049*
1,1,0.0079,0.0039,-0.0049*
1,1,0.0079,-0.0039,-0.0049*
%
%ADD58ROUNDEDRECTD58*%
%ADD59R,0.0079X0.0266*%
%ADD60R,0.0157X0.0266*%
%ADD61R,0.0098X0.0236*%
%ADD62R,0.1575X0.0787*%
%ADD63R,0.0236X0.0098*%
%ADD64R,0.0197X0.0276*%
G04:AMPARAMS|DCode=65|XSize=23.6mil|YSize=57.1mil|CornerRadius=2mil|HoleSize=0mil|Usage=FLASHONLY|Rotation=0.000|XOffset=0mil|YOffset=0mil|HoleType=Round|Shape=RoundedRectangle|*
%AMROUNDEDRECTD65*
21,1,0.0236,0.0531,0,0,0.0*
21,1,0.0196,0.0571,0,0,0.0*
1,1,0.0040,0.0098,-0.0265*
1,1,0.0040,-0.0098,-0.0265*
1,1,0.0040,-0.0098,0.0265*
1,1,0.0040,0.0098,0.0265*
%
%ADD65ROUNDEDRECTD65*%
G04:AMPARAMS|DCode=66|XSize=66.9mil|YSize=66.9mil|CornerRadius=2mil|HoleSize=0mil|Usage=FLASHONLY|Rotation=90.000|XOffset=0mil|YOffset=0mil|HoleType=Round|Shape=RoundedRectangle|*
%AMROUNDEDRECTD66*
21,1,0.0669,0.0629,0,0,90.0*
21,1,0.0629,0.0669,0,0,90.0*
1,1,0.0040,0.0315,0.0315*
1,1,0.0040,0.0315,-0.0315*
1,1,0.0040,-0.0315,-0.0315*
1,1,0.0040,-0.0315,0.0315*
%
%ADD66ROUNDEDRECTD66*%
G04:AMPARAMS|DCode=67|XSize=7.9mil|YSize=23.6mil|CornerRadius=2mil|HoleSize=0mil|Usage=FLASHONLY|Rotation=270.000|XOffset=0mil|YOffset=0mil|HoleType=Round|Shape=RoundedRectangle|*
%AMROUNDEDRECTD67*
21,1,0.0079,0.0197,0,0,270.0*
21,1,0.0039,0.0236,0,0,270.0*
1,1,0.0039,-0.0098,-0.0020*
1,1,0.0039,-0.0098,0.0020*
1,1,0.0039,0.0098,0.0020*
1,1,0.0039,0.0098,-0.0020*
%
%ADD67ROUNDEDRECTD67*%
G04:AMPARAMS|DCode=68|XSize=7.9mil|YSize=23.6mil|CornerRadius=2mil|HoleSize=0mil|Usage=FLASHONLY|Rotation=0.000|XOffset=0mil|YOffset=0mil|HoleType=Round|Shape=RoundedRectangle|*
%AMROUNDEDRECTD68*
21,1,0.0079,0.0197,0,0,0.0*
21,1,0.0039,0.0236,0,0,0.0*
1,1,0.0039,0.0020,-0.0098*
1,1,0.0039,-0.0020,-0.0098*
1,1,0.0039,-0.0020,0.0098*
1,1,0.0039,0.0020,0.0098*
%
%ADD68ROUNDEDRECTD68*%
%ADD69R,0.0591X0.0512*%
%ADD70R,0.0630X0.1063*%
G04:AMPARAMS|DCode=71|XSize=133.9mil|YSize=307.1mil|CornerRadius=4mil|HoleSize=0mil|Usage=FLASHONLY|Rotation=90.000|XOffset=0mil|YOffset=0mil|HoleType=Round|Shape=RoundedRectangle|*
%AMROUNDEDRECTD71*
21,1,0.1339,0.2991,0,0,90.0*
21,1,0.1258,0.3071,0,0,90.0*
1,1,0.0080,0.1495,0.0629*
1,1,0.0080,0.1495,-0.0629*
1,1,0.0080,-0.1495,-0.0629*
1,1,0.0080,-0.1495,0.0629*
%
%ADD71ROUNDEDRECTD71*%
G04:AMPARAMS|DCode=72|XSize=15.7mil|YSize=47.2mil|CornerRadius=2mil|HoleSize=0mil|Usage=FLASHONLY|Rotation=180.000|XOffset=0mil|YOffset=0mil|HoleType=Round|Shape=RoundedRectangle|*
%AMROUNDEDRECTD72*
21,1,0.0157,0.0433,0,0,180.0*
21,1,0.0118,0.0472,0,0,180.0*
1,1,0.0039,-0.0059,0.0217*
1,1,0.0039,0.0059,0.0217*
1,1,0.0039,0.0059,-0.0217*
1,1,0.0039,-0.0059,-0.0217*
%
%ADD72ROUNDEDRECTD72*%
%ADD73R,0.2087X0.0787*%
%ADD74R,0.0118X0.0472*%
%ADD75R,0.0945X0.0945*%
%ADD76R,0.2520X0.1417*%
%ADD77R,0.0106X0.0575*%
G04:AMPARAMS|DCode=78|XSize=39.4mil|YSize=43.3mil|CornerRadius=0mil|HoleSize=0mil|Usage=FLASHONLY|Rotation=225.000|XOffset=0mil|YOffset=0mil|HoleType=Round|Shape=Rectangle|*
%AMROTATEDRECTD78*
4,1,4,-0.0014,0.0292,0.0292,-0.0014,0.0014,-0.0292,-0.0292,0.0014,-0.0014,0.0292,0.0*
%
%ADD78ROTATEDRECTD78*%

%ADD79R,0.2146X0.0433*%
G04:AMPARAMS|DCode=80|XSize=70.9mil|YSize=51.2mil|CornerRadius=12.8mil|HoleSize=0mil|Usage=FLASHONLY|Rotation=0.000|XOffset=0mil|YOffset=0mil|HoleType=Round|Shape=RoundedRectangle|*
%AMROUNDEDRECTD80*
21,1,0.0709,0.0256,0,0,0.0*
21,1,0.0453,0.0512,0,0,0.0*
1,1,0.0256,0.0226,-0.0128*
1,1,0.0256,-0.0226,-0.0128*
1,1,0.0256,-0.0226,0.0128*
1,1,0.0256,0.0226,0.0128*
%
%ADD80ROUNDEDRECTD80*%
%ADD81R,0.1102X0.0787*%
%ADD82R,0.1102X0.1102*%
%ADD83R,0.1102X0.0866*%
%ADD84R,0.0984X0.0669*%
G04:AMPARAMS|DCode=85|XSize=70.9mil|YSize=51.2mil|CornerRadius=12.8mil|HoleSize=0mil|Usage=FLASHONLY|Rotation=270.000|XOffset=0mil|YOffset=0mil|HoleType=Round|Shape=RoundedRectangle|*
%AMROUNDEDRECTD85*
21,1,0.0709,0.0256,0,0,270.0*
21,1,0.0453,0.0512,0,0,270.0*
1,1,0.0256,-0.0128,-0.0226*
1,1,0.0256,-0.0128,0.0226*
1,1,0.0256,0.0128,0.0226*
1,1,0.0256,0.0128,-0.0226*
%
%ADD85ROUNDEDRECTD85*%
%ADD86R,0.0433X0.0256*%
%ADD87C,0.0150*%
%ADD88C,0.0100*%
%ADD89C,0.0300*%
%ADD90C,0.0200*%
%ADD91C,0.0080*%
%ADD92C,0.0060*%
%ADD93C,0.0120*%
%ADD94C,0.0180*%
%ADD95C,0.0600*%
%ADD96C,0.2283*%
%ADD97C,0.0382*%
%ADD98C,0.0256*%
%ADD99C,0.0827*%
%ADD100C,0.0591*%
%ADD101C,0.0039*%
%ADD102C,0.1260*%
%ADD103C,0.0630*%
%ADD104O,0.0591X0.1181*%
%ADD105O,0.1181X0.0591*%
%ADD106C,0.0400*%
%ADD107R,0.0400X0.0400*%
%ADD108C,0.0300*%
%ADD109C,0.0180*%
%ADD110C,0.0197*%
G36*
X18850Y6400D02*
X18550Y6400D01*
X18450Y6500D01*
X18250Y6500D01*
X18250Y6600D01*
X18350Y6700D01*
X18850Y6700D01*
X18850Y6400D01*
X18850Y6400D02*
G37*
G36*
X55630Y6693D02*
X55630Y6457D01*
X55571Y6398D01*
X55138Y6398D01*
X55079Y6457D01*
X55079Y6693D01*
X55630Y6693D01*
X55630Y6693D02*
G37*
G36*
X15500Y8200D02*
X15550Y8150D01*
X15550Y7000D01*
X15800Y6750D01*
X15800Y6500D01*
X15600Y6500D01*
X15150Y6950D01*
X15150Y8200D01*
X15500Y8200D01*
X15500Y8200D02*
G37*
G36*
X88680Y17267D02*
X88699Y17267D01*
X88761Y17279D01*
X88813Y17314D01*
X88849Y17367D01*
X88861Y17429D01*
X88861Y17434D01*
X88940Y17434D01*
X89162Y17212D01*
X89167Y17209D01*
X89188Y17150D01*
X89187Y17149D01*
X89176Y17094D01*
X89187Y17039D01*
X89218Y16993D01*
X89264Y16962D01*
X89319Y16951D01*
X89374Y16962D01*
X89375Y16964D01*
X89419Y16933D01*
X89412Y16897D01*
X89423Y16843D01*
X89454Y16796D01*
X89500Y16765D01*
X89555Y16754D01*
X89610Y16765D01*
X89656Y16796D01*
X89687Y16843D01*
X89698Y16897D01*
X89687Y16952D01*
X89656Y16998D01*
X89610Y17029D01*
X89555Y17040D01*
X89500Y17029D01*
X89499Y17028D01*
X89455Y17059D01*
X89462Y17094D01*
X89451Y17146D01*
X89451Y17150D01*
X89479Y17196D01*
X90000Y17196D01*
X90038Y17212D01*
X90054Y17250D01*
X91000Y17250D01*
X91300Y16950D01*
X91300Y14900D01*
X91150Y14750D01*
X90344Y14750D01*
X90337Y14787D01*
X90306Y14833D01*
X90259Y14864D01*
X90205Y14875D01*
X90150Y14864D01*
X90104Y14833D01*
X90073Y14787D01*
X90066Y14750D01*
X89529Y14750D01*
X89482Y14797D01*
X89452Y14817D01*
X89417Y14824D01*
X87881Y14824D01*
X87836Y14868D01*
X87836Y15215D01*
X87845Y15222D01*
X87876Y15268D01*
X87887Y15322D01*
X87876Y15377D01*
X87845Y15423D01*
X87799Y15454D01*
X87744Y15465D01*
X87689Y15454D01*
X87661Y15435D01*
X87625Y15434D01*
X87600Y15449D01*
X87586Y15470D01*
X87550Y15494D01*
X87508Y15503D01*
X87390Y15503D01*
X87347Y15494D01*
X87311Y15470D01*
X87310Y15468D01*
X87305Y15466D01*
X87252Y15471D01*
X87229Y15506D01*
X87176Y15541D01*
X87114Y15554D01*
X87105Y15554D01*
X87105Y15322D01*
X87105Y15091D01*
X87114Y15091D01*
X87176Y15104D01*
X87229Y15139D01*
X87252Y15173D01*
X87305Y15178D01*
X87310Y15177D01*
X87311Y15175D01*
X87347Y15151D01*
X87390Y15142D01*
X87508Y15142D01*
X87550Y15151D01*
X87586Y15175D01*
X87600Y15196D01*
X87604Y15198D01*
X87652Y15184D01*
X87652Y14830D01*
X87658Y14800D01*
X87657Y14792D01*
X87629Y14750D01*
X86550Y14750D01*
X85704Y15596D01*
X85704Y17039D01*
X85754Y17076D01*
X85785Y17070D01*
X85804Y17070D01*
X85804Y17291D01*
X85904Y17291D01*
X85904Y17070D01*
X85923Y17070D01*
X85985Y17082D01*
X86038Y17117D01*
X86084Y17117D01*
X86137Y17082D01*
X86199Y17070D01*
X86218Y17070D01*
X86218Y17291D01*
X86318Y17291D01*
X86318Y17070D01*
X86337Y17070D01*
X86399Y17082D01*
X86451Y17117D01*
X86486Y17170D01*
X86492Y17196D01*
X86796Y17196D01*
X86824Y17150D01*
X86824Y17146D01*
X86814Y17094D01*
X86825Y17039D01*
X86856Y16993D01*
X86902Y16962D01*
X86957Y16951D01*
X87011Y16962D01*
X87058Y16993D01*
X87089Y17039D01*
X87099Y17094D01*
X87089Y17146D01*
X87089Y17150D01*
X87117Y17196D01*
X87170Y17196D01*
X87198Y17150D01*
X87198Y17146D01*
X87188Y17094D01*
X87199Y17039D01*
X87230Y16993D01*
X87276Y16962D01*
X87331Y16951D01*
X87385Y16962D01*
X87432Y16993D01*
X87463Y17039D01*
X87473Y17094D01*
X87463Y17146D01*
X87463Y17150D01*
X87491Y17196D01*
X87544Y17196D01*
X87572Y17150D01*
X87572Y17146D01*
X87562Y17094D01*
X87573Y17039D01*
X87604Y16993D01*
X87650Y16962D01*
X87705Y16951D01*
X87759Y16962D01*
X87806Y16993D01*
X87837Y17039D01*
X87847Y17094D01*
X87837Y17146D01*
X87837Y17150D01*
X87865Y17196D01*
X87918Y17196D01*
X87946Y17150D01*
X87946Y17146D01*
X87936Y17094D01*
X87947Y17039D01*
X87978Y16993D01*
X88024Y16962D01*
X88079Y16951D01*
X88133Y16962D01*
X88180Y16993D01*
X88211Y17039D01*
X88221Y17094D01*
X88211Y17149D01*
X88201Y17163D01*
X88189Y17207D01*
X88210Y17233D01*
X88359Y17382D01*
X88407Y17372D01*
X88412Y17365D01*
X88446Y17314D01*
X88499Y17279D01*
X88561Y17267D01*
X88580Y17267D01*
X88580Y17488D01*
X88680Y17488D01*
X88680Y17267D01*
X88680Y17267D02*
G37*
G36*
X54961Y7854D02*
X56181Y7854D01*
X56181Y7461D01*
X54961Y7461D01*
X54331Y8091D01*
X53661Y8091D01*
X53661Y8327D01*
X54488Y8327D01*
X54961Y7854D01*
X54961Y7854D02*
G37*
G36*
X56535Y6693D02*
X56535Y6457D01*
X56476Y6398D01*
X56043Y6398D01*
X55984Y6457D01*
X55984Y6693D01*
X56535Y6693D01*
X56535Y6693D02*
G37*
G36*
X785Y4224D02*
X549Y4224D01*
X490Y4283D01*
X490Y4717D01*
X549Y4776D01*
X785Y4776D01*
X785Y4224D01*
X785Y4224D02*
G37*
G36*
X9650Y1750D02*
X10200Y1750D01*
X10200Y1650D01*
X9650Y1650D01*
X9450Y1450D01*
X9300Y1450D01*
X9300Y1950D01*
X9450Y1950D01*
X9650Y1750D01*
X9650Y1750D02*
G37*
G36*
X785Y5224D02*
X549Y5224D01*
X490Y5283D01*
X490Y5717D01*
X549Y5776D01*
X785Y5776D01*
X785Y5224D01*
X785Y5224D02*
G37*
G36*
X15050Y7150D02*
X15050Y6900D01*
X15550Y6400D01*
X16200Y6400D01*
X16200Y6300D01*
X15550Y6300D01*
X15500Y6250D01*
X14700Y6250D01*
X14700Y6450D01*
X14850Y6450D01*
X14850Y6650D01*
X14700Y6650D01*
X14700Y7200D01*
X15000Y7200D01*
X15050Y7150D01*
X15050Y7150D02*
G37*
G36*
X15850Y6200D02*
X15850Y6100D01*
X15700Y6100D01*
X15500Y5900D01*
X15350Y5900D01*
X14800Y5350D01*
X14700Y5350D01*
X14700Y6100D01*
X15500Y6100D01*
X15600Y6200D01*
X15850Y6200D01*
X15850Y6200D02*
G37*
G36*
X55354Y12303D02*
X55472Y12185D01*
X55472Y11398D01*
X55354Y11280D01*
X55157Y11280D01*
X55157Y12303D01*
X55354Y12303D01*
X55354Y12303D02*
G37*
G36*
X53543Y11398D02*
X52677Y11398D01*
X52441Y11161D01*
X52441Y10728D01*
X52165Y10728D01*
X52165Y12736D01*
X53071Y13642D01*
X53543Y13642D01*
X53543Y11398D01*
X53543Y11398D02*
G37*
G36*
X68311Y13364D02*
X67711Y12764D01*
X67711Y12264D01*
X65611Y12264D01*
X65611Y12464D01*
X66211Y13064D01*
X67611Y13064D01*
X68011Y13464D01*
X68011Y14564D01*
X68311Y14564D01*
X68311Y13364D01*
X68311Y13364D02*
G37*
G36*
X72011Y15614D02*
X71861Y15614D01*
X71411Y15164D01*
X71211Y15164D01*
X71211Y15514D01*
X71261Y15514D01*
X71711Y15964D01*
X72011Y15964D01*
X72011Y15614D01*
X72011Y15614D02*
G37*
G36*
X55354Y13681D02*
X55472Y13563D01*
X55472Y12776D01*
X55354Y12657D01*
X55157Y12657D01*
X55157Y13681D01*
X55354Y13681D01*
X55354Y13681D02*
G37*
G36*
X55433Y10925D02*
X55433Y10650D01*
X55394Y10610D01*
X55079Y10610D01*
X55079Y11004D01*
X55354Y11004D01*
X55433Y10925D01*
X55433Y10925D02*
G37*
G36*
X75311Y17036D02*
X75311Y16836D01*
X73211Y16836D01*
X73211Y17036D01*
X73361Y17186D01*
X75161Y17186D01*
X75311Y17036D01*
X75311Y17036D02*
G37*
G36*
X90000Y18000D02*
X90000Y17250D01*
X89200Y17250D01*
X88962Y17488D01*
X88810Y17488D01*
X88810Y17547D01*
X88802Y17589D01*
X88777Y17625D01*
X88741Y17650D01*
X88699Y17658D01*
X88561Y17658D01*
X88518Y17650D01*
X88482Y17625D01*
X88458Y17589D01*
X88450Y17547D01*
X88450Y17488D01*
X88388Y17488D01*
X88150Y17250D01*
X86448Y17250D01*
X86448Y17350D01*
X86439Y17393D01*
X86415Y17429D01*
X86379Y17453D01*
X86337Y17461D01*
X86199Y17461D01*
X86156Y17453D01*
X86120Y17429D01*
X86096Y17393D01*
X86088Y17350D01*
X86088Y17250D01*
X86034Y17250D01*
X86034Y17350D01*
X86026Y17393D01*
X86002Y17429D01*
X85966Y17453D01*
X85923Y17461D01*
X85785Y17461D01*
X85743Y17453D01*
X85707Y17429D01*
X85683Y17393D01*
X85674Y17350D01*
X85674Y17250D01*
X85650Y17250D01*
X85650Y14450D01*
X85200Y14000D01*
X70900Y14000D01*
X70400Y14500D01*
X70400Y14815D01*
X70435Y14850D01*
X70850Y14850D01*
X70850Y14600D01*
X70950Y14500D01*
X76250Y14500D01*
X78750Y17000D01*
X82364Y17000D01*
X82379Y16950D01*
X82354Y16933D01*
X82323Y16887D01*
X82312Y16832D01*
X82323Y16778D01*
X82354Y16731D01*
X82400Y16700D01*
X82455Y16690D01*
X82510Y16700D01*
X82556Y16731D01*
X82587Y16778D01*
X82598Y16832D01*
X82587Y16887D01*
X82556Y16933D01*
X82531Y16950D01*
X82546Y17000D01*
X83250Y17000D01*
X85289Y19039D01*
X85338Y19049D01*
X85384Y19080D01*
X85415Y19126D01*
X85425Y19175D01*
X85750Y19500D01*
X88500Y19500D01*
X90000Y18000D01*
X90000Y18000D02*
G37*
G36*
X37950Y9250D02*
X38050Y9150D01*
X38050Y8200D01*
X38000Y8150D01*
X37750Y8150D01*
X37700Y8200D01*
X37700Y9100D01*
X37850Y9250D01*
X37850Y9850D01*
X37950Y9850D01*
X37950Y9250D01*
X37950Y9250D02*
G37*
G36*
X54055Y11004D02*
X54055Y10610D01*
X53898Y10610D01*
X53858Y10571D01*
X53858Y10098D01*
X53780Y10020D01*
X53661Y10020D01*
X53661Y10846D01*
X53819Y11004D01*
X54055Y11004D01*
X54055Y11004D02*
G37*
G36*
X67711Y9564D02*
X67561Y9414D01*
X65761Y9414D01*
X65611Y9564D01*
X65611Y9764D01*
X67711Y9764D01*
X67711Y9564D01*
X67711Y9564D02*
G37*
G36*
X10950Y1100D02*
X10600Y1100D01*
X10600Y1650D01*
X10950Y1650D01*
X10950Y1100D01*
X10950Y1100D02*
G37*
G36*
X39500Y27850D02*
X39300Y27850D01*
X39250Y27800D01*
X39250Y27600D01*
X39300Y27550D01*
X39500Y27550D01*
X39500Y27400D01*
X38950Y27400D01*
X38950Y27600D01*
X39000Y27650D01*
X39000Y27850D01*
X38950Y27900D01*
X38950Y28000D01*
X39500Y28000D01*
X39500Y27850D01*
X39500Y27850D02*
G37*
G36*
X58350Y34400D02*
X58350Y31600D01*
X57000Y30250D01*
X57000Y27600D01*
X56850Y27450D01*
X56400Y27450D01*
X56250Y27600D01*
X56250Y30500D01*
X57900Y32150D01*
X57900Y34400D01*
X58000Y34500D01*
X58250Y34500D01*
X58350Y34400D01*
X58350Y34400D02*
G37*
G36*
X44900Y25400D02*
X44700Y25400D01*
X44600Y25500D01*
X44600Y26000D01*
X44700Y26100D01*
X44900Y26100D01*
X44900Y25400D01*
X44900Y25400D02*
G37*
G36*
X46800Y26850D02*
X47000Y26650D01*
X47000Y25250D01*
X47100Y25150D01*
X47100Y24900D01*
X46750Y24900D01*
X46600Y25050D01*
X46600Y26350D01*
X46300Y26650D01*
X46300Y26850D01*
X46800Y26850D01*
X46800Y26850D02*
G37*
G36*
X41307Y25299D02*
X41384Y25222D01*
X41384Y24941D01*
X40872Y24941D01*
X40821Y24992D01*
X40821Y25248D01*
X40872Y25299D01*
X41179Y25299D01*
X41179Y25530D01*
X41307Y25530D01*
X41307Y25299D01*
X41307Y25299D02*
G37*
G36*
X35800Y27850D02*
X35900Y27750D01*
X36150Y27750D01*
X36400Y28000D01*
X37050Y28000D01*
X37050Y27050D01*
X36400Y26400D01*
X36400Y26100D01*
X34650Y26100D01*
X34650Y26350D01*
X34400Y26600D01*
X34400Y28050D01*
X35000Y28050D01*
X35000Y27800D01*
X35050Y27750D01*
X35150Y27750D01*
X35200Y27800D01*
X35200Y28050D01*
X35800Y28050D01*
X35800Y27850D01*
X35800Y27850D02*
G37*
G36*
X75722Y33800D02*
X75822Y33700D01*
X75822Y33650D01*
X75572Y33650D01*
X75572Y34250D01*
X75722Y34250D01*
X75722Y33800D01*
X75722Y33800D02*
G37*
G36*
X76200Y33650D02*
X75950Y33650D01*
X75950Y33700D01*
X76050Y33800D01*
X76050Y34250D01*
X76200Y34250D01*
X76200Y33650D01*
X76200Y33650D02*
G37*
G36*
X39644Y30136D02*
X39490Y29982D01*
X39490Y29010D01*
X39550Y28950D01*
X39750Y28950D01*
X39750Y28800D01*
X39500Y28800D01*
X39350Y28950D01*
X39350Y29450D01*
X39300Y29500D01*
X35900Y29500D01*
X35800Y29400D01*
X35800Y29200D01*
X35200Y29200D01*
X35200Y29450D01*
X35150Y29500D01*
X35050Y29500D01*
X35000Y29450D01*
X35000Y29200D01*
X34700Y29200D01*
X34400Y29200D01*
X34400Y29800D01*
X34750Y30150D01*
X39351Y30150D01*
X39439Y30238D01*
X39439Y30341D01*
X39490Y30341D01*
X39644Y30341D01*
X39644Y30136D01*
X39644Y30136D02*
G37*
G36*
X46750Y28750D02*
X46750Y28300D01*
X46250Y28300D01*
X46250Y28750D01*
X46300Y28800D01*
X46700Y28800D01*
X46750Y28750D01*
X46750Y28750D02*
G37*
G36*
X41077Y30366D02*
X40898Y30187D01*
X40898Y30059D01*
X40744Y30059D01*
X40744Y30187D01*
X40565Y30366D01*
X40565Y30750D01*
X41077Y30750D01*
X41077Y30366D01*
X41077Y30366D02*
G37*
G36*
X50050Y20400D02*
X50000Y20350D01*
X49550Y20350D01*
X49500Y20400D01*
X49500Y20600D01*
X50050Y20600D01*
X50050Y20400D01*
X50050Y20400D02*
G37*
G36*
X54750Y20750D02*
X54800Y20700D01*
X56250Y20700D01*
X56250Y20550D01*
X54500Y20550D01*
X54500Y21500D01*
X54750Y21500D01*
X54750Y20750D01*
X54750Y20750D02*
G37*
G36*
X47100Y21650D02*
X48750Y20000D01*
X53500Y20000D01*
X53500Y19750D01*
X48250Y19750D01*
X46800Y21200D01*
X46800Y23800D01*
X47100Y23800D01*
X47100Y21650D01*
X47100Y21650D02*
G37*
G36*
X12800Y1650D02*
X12800Y1150D01*
X12700Y1050D01*
X11700Y1050D01*
X11700Y1550D01*
X11600Y1650D01*
X11450Y1650D01*
X11450Y1750D01*
X12700Y1750D01*
X12800Y1650D01*
X12800Y1650D02*
G37*
G36*
X56550Y19494D02*
X56500Y19444D01*
X56050Y19444D01*
X56000Y19494D01*
X56000Y19694D01*
X56550Y19694D01*
X56550Y19494D01*
X56550Y19494D02*
G37*
G36*
X53750Y20650D02*
X53500Y20650D01*
X53500Y21000D01*
X53250Y21250D01*
X52800Y21250D01*
X52800Y21750D01*
X53750Y21750D01*
X53750Y20650D01*
X53750Y20650D02*
G37*
G36*
X37179Y23079D02*
X36943Y23079D01*
X36884Y23138D01*
X36884Y23571D01*
X36943Y23630D01*
X37179Y23630D01*
X37179Y23079D01*
X37179Y23079D02*
G37*
G36*
X46500Y26250D02*
X46500Y24400D01*
X46400Y24400D01*
X46400Y24900D01*
X46000Y25300D01*
X46000Y26250D01*
X45350Y26900D01*
X40150Y26900D01*
X39900Y26650D01*
X39250Y26650D01*
X39250Y27250D01*
X45500Y27250D01*
X46500Y26250D01*
X46500Y26250D02*
G37*
G36*
X38300Y27050D02*
X37750Y26500D01*
X37750Y26200D01*
X38697Y25253D01*
X38697Y23050D01*
X38339Y23050D01*
X38339Y24861D01*
X37213Y25987D01*
X37200Y28000D01*
X38300Y28000D01*
X38300Y27050D01*
X38300Y27050D02*
G37*
G36*
X56555Y21021D02*
X56555Y20821D01*
X56005Y20821D01*
X56005Y21021D01*
X56055Y21071D01*
X56505Y21071D01*
X56555Y21021D01*
X56555Y21021D02*
G37*
G36*
X48750Y23850D02*
X48750Y22000D01*
X49050Y21700D01*
X50600Y21700D01*
X50600Y21350D01*
X48700Y21350D01*
X48350Y21700D01*
X48350Y23900D01*
X48700Y23900D01*
X48750Y23850D01*
X48750Y23850D02*
G37*
%LPC*%
G36*
X90648Y15309D02*
X90648Y15176D01*
X90782Y15176D01*
X90777Y15200D01*
X90735Y15263D01*
X90673Y15305D01*
X90648Y15309D01*
X90648Y15309D02*
G37*
G36*
X90548Y15309D02*
X90524Y15305D01*
X90461Y15263D01*
X90419Y15200D01*
X90415Y15176D01*
X90548Y15176D01*
X90548Y15309D01*
X90548Y15309D02*
G37*
G36*
X90548Y15076D02*
X90415Y15076D01*
X90419Y15051D01*
X90461Y14989D01*
X90524Y14947D01*
X90548Y14942D01*
X90548Y15076D01*
X90548Y15076D02*
G37*
G36*
X87005Y15272D02*
X86834Y15272D01*
X86834Y15254D01*
X86846Y15191D01*
X86881Y15139D01*
X86934Y15104D01*
X86996Y15091D01*
X87005Y15091D01*
X87005Y15272D01*
X87005Y15272D02*
G37*
G36*
X90782Y15076D02*
X90648Y15076D01*
X90648Y14942D01*
X90673Y14947D01*
X90735Y14989D01*
X90777Y15051D01*
X90782Y15076D01*
X90782Y15076D02*
G37*
G36*
X87331Y16863D02*
X87276Y16852D01*
X87230Y16821D01*
X87199Y16775D01*
X87188Y16720D01*
X87199Y16665D01*
X87230Y16619D01*
X87276Y16588D01*
X87331Y16577D01*
X87385Y16588D01*
X87432Y16619D01*
X87463Y16665D01*
X87473Y16720D01*
X87463Y16775D01*
X87432Y16821D01*
X87385Y16852D01*
X87331Y16863D01*
X87331Y16863D02*
G37*
G36*
X87705Y16863D02*
X87650Y16852D01*
X87604Y16821D01*
X87573Y16775D01*
X87562Y16720D01*
X87573Y16665D01*
X87604Y16619D01*
X87650Y16588D01*
X87705Y16577D01*
X87759Y16588D01*
X87806Y16619D01*
X87837Y16665D01*
X87847Y16720D01*
X87837Y16775D01*
X87806Y16821D01*
X87759Y16852D01*
X87705Y16863D01*
X87705Y16863D02*
G37*
G36*
X88002Y16060D02*
X87696Y16060D01*
X87696Y15715D01*
X88002Y15715D01*
X88002Y16060D01*
X88002Y16060D02*
G37*
G36*
X88079Y16863D02*
X88024Y16852D01*
X87978Y16821D01*
X87947Y16775D01*
X87936Y16720D01*
X87947Y16665D01*
X87978Y16619D01*
X88024Y16588D01*
X88079Y16577D01*
X88133Y16588D01*
X88140Y16593D01*
X88227Y16593D01*
X88266Y16554D01*
X88266Y16455D01*
X88088Y16455D01*
X88088Y15765D01*
X88700Y15765D01*
X88700Y16455D01*
X88521Y16455D01*
X88521Y16606D01*
X88511Y16655D01*
X88484Y16696D01*
X88370Y16810D01*
X88329Y16838D01*
X88280Y16848D01*
X88140Y16848D01*
X88133Y16852D01*
X88079Y16863D01*
X88079Y16863D02*
G37*
G36*
X86720Y15967D02*
X86711Y15967D01*
X86711Y15786D01*
X86883Y15786D01*
X86883Y15805D01*
X86870Y15867D01*
X86835Y15919D01*
X86783Y15955D01*
X86720Y15967D01*
X86720Y15967D02*
G37*
G36*
X86883Y15686D02*
X86711Y15686D01*
X86711Y15505D01*
X86720Y15505D01*
X86783Y15517D01*
X86835Y15552D01*
X86870Y15605D01*
X86883Y15667D01*
X86883Y15686D01*
X86883Y15686D02*
G37*
G36*
X87005Y15554D02*
X86996Y15554D01*
X86934Y15541D01*
X86881Y15506D01*
X86846Y15453D01*
X86834Y15391D01*
X86834Y15372D01*
X87005Y15372D01*
X87005Y15554D01*
X87005Y15554D02*
G37*
G36*
X87104Y16392D02*
X87079Y16387D01*
X87017Y16345D01*
X86975Y16282D01*
X86970Y16258D01*
X87104Y16258D01*
X87104Y16392D01*
X87104Y16392D02*
G37*
G36*
X87596Y16505D02*
X87290Y16505D01*
X87290Y16399D01*
X87246Y16375D01*
X87228Y16387D01*
X87204Y16392D01*
X87204Y16208D01*
X87204Y16024D01*
X87228Y16029D01*
X87246Y16041D01*
X87290Y16018D01*
X87290Y15715D01*
X87596Y15715D01*
X87596Y16110D01*
X87596Y16505D01*
X87596Y16505D02*
G37*
G36*
X86957Y16863D02*
X86902Y16852D01*
X86856Y16821D01*
X86825Y16775D01*
X86814Y16720D01*
X86825Y16665D01*
X86856Y16619D01*
X86902Y16588D01*
X86957Y16577D01*
X87011Y16588D01*
X87058Y16619D01*
X87089Y16665D01*
X87099Y16720D01*
X87089Y16775D01*
X87058Y16821D01*
X87011Y16852D01*
X86957Y16863D01*
X86957Y16863D02*
G37*
G36*
X88002Y16505D02*
X87696Y16505D01*
X87696Y16160D01*
X88002Y16160D01*
X88002Y16505D01*
X88002Y16505D02*
G37*
G36*
X87104Y16158D02*
X86970Y16158D01*
X86975Y16134D01*
X87017Y16071D01*
X87079Y16029D01*
X87104Y16024D01*
X87104Y16158D01*
X87104Y16158D02*
G37*
G36*
X86366Y16745D02*
X86312Y16734D01*
X86265Y16703D01*
X86234Y16657D01*
X86223Y16602D01*
X86234Y16547D01*
X86265Y16501D01*
X86274Y16495D01*
X86274Y16404D01*
X86203Y16332D01*
X86183Y16302D01*
X86176Y16267D01*
X86176Y15909D01*
X86166Y15907D01*
X86130Y15883D01*
X86106Y15847D01*
X86097Y15805D01*
X86097Y15667D01*
X86106Y15624D01*
X86130Y15588D01*
X86166Y15564D01*
X86209Y15556D01*
X86327Y15556D01*
X86369Y15564D01*
X86405Y15588D01*
X86407Y15590D01*
X86412Y15592D01*
X86465Y15587D01*
X86488Y15552D01*
X86540Y15517D01*
X86602Y15505D01*
X86611Y15505D01*
X86611Y15736D01*
X86611Y15967D01*
X86602Y15967D01*
X86540Y15955D01*
X86488Y15919D01*
X86465Y15885D01*
X86412Y15880D01*
X86407Y15881D01*
X86405Y15883D01*
X86369Y15907D01*
X86359Y15909D01*
X86359Y16199D01*
X86373Y16207D01*
X86426Y16181D01*
X86431Y16154D01*
X86462Y16107D01*
X86508Y16076D01*
X86563Y16066D01*
X86618Y16076D01*
X86664Y16107D01*
X86695Y16154D01*
X86706Y16208D01*
X86695Y16263D01*
X86664Y16309D01*
X86618Y16340D01*
X86563Y16351D01*
X86508Y16340D01*
X86503Y16337D01*
X86458Y16366D01*
X86458Y16495D01*
X86467Y16501D01*
X86498Y16547D01*
X86509Y16602D01*
X86498Y16657D01*
X86467Y16703D01*
X86421Y16734D01*
X86366Y16745D01*
X86366Y16745D02*
G37*
G36*
X79700Y15404D02*
X79645Y15393D01*
X79599Y15362D01*
X79568Y15316D01*
X79557Y15261D01*
X79568Y15206D01*
X79599Y15160D01*
X79645Y15129D01*
X79700Y15118D01*
X79755Y15129D01*
X79801Y15160D01*
X79832Y15206D01*
X79843Y15261D01*
X79832Y15316D01*
X79801Y15362D01*
X79755Y15393D01*
X79700Y15404D01*
X79700Y15404D02*
G37*
G36*
X79700Y15043D02*
X79645Y15032D01*
X79599Y15001D01*
X79568Y14955D01*
X79557Y14900D01*
X79568Y14845D01*
X79599Y14799D01*
X79645Y14768D01*
X79700Y14757D01*
X79755Y14768D01*
X79801Y14799D01*
X79832Y14845D01*
X79843Y14900D01*
X79832Y14955D01*
X79801Y15001D01*
X79755Y15032D01*
X79700Y15043D01*
X79700Y15043D02*
G37*
G36*
X87705Y17611D02*
X87650Y17600D01*
X87604Y17569D01*
X87573Y17523D01*
X87562Y17468D01*
X87573Y17413D01*
X87604Y17367D01*
X87650Y17336D01*
X87705Y17325D01*
X87759Y17336D01*
X87806Y17367D01*
X87837Y17413D01*
X87847Y17468D01*
X87837Y17523D01*
X87806Y17569D01*
X87759Y17600D01*
X87705Y17611D01*
X87705Y17611D02*
G37*
G36*
X88079Y17611D02*
X88024Y17600D01*
X87978Y17569D01*
X87947Y17523D01*
X87936Y17468D01*
X87947Y17413D01*
X87978Y17367D01*
X88024Y17336D01*
X88079Y17325D01*
X88133Y17336D01*
X88180Y17367D01*
X88211Y17413D01*
X88221Y17468D01*
X88211Y17523D01*
X88180Y17569D01*
X88133Y17600D01*
X88079Y17611D01*
X88079Y17611D02*
G37*
G36*
X85854Y18123D02*
X85800Y18112D01*
X85753Y18081D01*
X85722Y18035D01*
X85712Y17980D01*
X85722Y17925D01*
X85741Y17897D01*
X85742Y17861D01*
X85728Y17836D01*
X85707Y17822D01*
X85683Y17786D01*
X85674Y17744D01*
X85674Y17626D01*
X85683Y17583D01*
X85707Y17547D01*
X85743Y17523D01*
X85785Y17514D01*
X85923Y17514D01*
X85966Y17523D01*
X86002Y17547D01*
X86026Y17583D01*
X86034Y17626D01*
X86034Y17744D01*
X86026Y17786D01*
X86002Y17822D01*
X85981Y17836D01*
X85966Y17861D01*
X85967Y17897D01*
X85986Y17925D01*
X85997Y17980D01*
X85986Y18035D01*
X85955Y18081D01*
X85909Y18112D01*
X85854Y18123D01*
X85854Y18123D02*
G37*
G36*
X87331Y17611D02*
X87276Y17600D01*
X87230Y17569D01*
X87199Y17523D01*
X87188Y17468D01*
X87199Y17413D01*
X87230Y17367D01*
X87276Y17336D01*
X87331Y17325D01*
X87385Y17336D01*
X87432Y17367D01*
X87463Y17413D01*
X87473Y17468D01*
X87463Y17523D01*
X87432Y17569D01*
X87385Y17600D01*
X87331Y17611D01*
X87331Y17611D02*
G37*
G36*
X86957Y17611D02*
X86902Y17600D01*
X86856Y17569D01*
X86825Y17523D01*
X86814Y17468D01*
X86825Y17413D01*
X86856Y17367D01*
X86902Y17336D01*
X86957Y17325D01*
X87011Y17336D01*
X87058Y17367D01*
X87089Y17413D01*
X87099Y17468D01*
X87089Y17523D01*
X87058Y17569D01*
X87011Y17600D01*
X86957Y17611D01*
X86957Y17611D02*
G37*
G36*
X88433Y18418D02*
X88378Y18407D01*
X88332Y18376D01*
X88301Y18330D01*
X88290Y18275D01*
X88301Y18221D01*
X88332Y18174D01*
X88378Y18143D01*
X88433Y18132D01*
X88444Y18135D01*
X88493Y18085D01*
X88486Y18022D01*
X88482Y18019D01*
X88458Y17983D01*
X88450Y17941D01*
X88450Y17822D01*
X88458Y17780D01*
X88482Y17744D01*
X88518Y17720D01*
X88561Y17711D01*
X88699Y17711D01*
X88741Y17720D01*
X88777Y17744D01*
X88802Y17780D01*
X88810Y17822D01*
X88810Y17941D01*
X88802Y17983D01*
X88777Y18019D01*
X88741Y18043D01*
X88722Y18047D01*
X88722Y18078D01*
X88715Y18113D01*
X88695Y18143D01*
X88574Y18264D01*
X88576Y18275D01*
X88565Y18330D01*
X88534Y18376D01*
X88488Y18407D01*
X88433Y18418D01*
X88433Y18418D02*
G37*
G36*
X86760Y18516D02*
X86705Y18506D01*
X86659Y18475D01*
X86653Y18465D01*
X86465Y18465D01*
X86429Y18458D01*
X86400Y18439D01*
X86203Y18242D01*
X86183Y18212D01*
X86176Y18177D01*
X86176Y17850D01*
X86156Y17846D01*
X86120Y17822D01*
X86096Y17786D01*
X86088Y17744D01*
X86088Y17626D01*
X86096Y17583D01*
X86120Y17547D01*
X86156Y17523D01*
X86199Y17514D01*
X86337Y17514D01*
X86379Y17523D01*
X86415Y17547D01*
X86439Y17583D01*
X86448Y17626D01*
X86448Y17744D01*
X86439Y17786D01*
X86415Y17822D01*
X86379Y17846D01*
X86359Y17850D01*
X86359Y18139D01*
X86503Y18282D01*
X86653Y18282D01*
X86659Y18273D01*
X86705Y18242D01*
X86760Y18231D01*
X86814Y18242D01*
X86861Y18273D01*
X86892Y18319D01*
X86903Y18374D01*
X86892Y18428D01*
X86861Y18475D01*
X86814Y18506D01*
X86760Y18516D01*
X86760Y18516D02*
G37*
G36*
X87154Y18516D02*
X87099Y18506D01*
X87053Y18475D01*
X87022Y18428D01*
X87011Y18374D01*
X87022Y18319D01*
X87053Y18273D01*
X87099Y18242D01*
X87154Y18231D01*
X87208Y18242D01*
X87254Y18273D01*
X87285Y18319D01*
X87296Y18374D01*
X87285Y18428D01*
X87254Y18475D01*
X87208Y18506D01*
X87154Y18516D01*
X87154Y18516D02*
G37*
G36*
X88079Y17985D02*
X88024Y17974D01*
X87978Y17943D01*
X87947Y17897D01*
X87936Y17842D01*
X87947Y17787D01*
X87978Y17741D01*
X88024Y17710D01*
X88079Y17699D01*
X88133Y17710D01*
X88180Y17741D01*
X88211Y17787D01*
X88221Y17842D01*
X88211Y17897D01*
X88180Y17943D01*
X88133Y17974D01*
X88079Y17985D01*
X88079Y17985D02*
G37*
G36*
X86957Y17985D02*
X86902Y17974D01*
X86856Y17943D01*
X86825Y17897D01*
X86814Y17842D01*
X86825Y17787D01*
X86856Y17741D01*
X86902Y17710D01*
X86957Y17699D01*
X87011Y17710D01*
X87058Y17741D01*
X87089Y17787D01*
X87099Y17842D01*
X87089Y17897D01*
X87058Y17943D01*
X87011Y17974D01*
X86957Y17985D01*
X86957Y17985D02*
G37*
G36*
X87331Y17985D02*
X87276Y17974D01*
X87230Y17943D01*
X87199Y17897D01*
X87188Y17842D01*
X87199Y17787D01*
X87230Y17741D01*
X87276Y17710D01*
X87331Y17699D01*
X87385Y17710D01*
X87432Y17741D01*
X87463Y17787D01*
X87473Y17842D01*
X87463Y17897D01*
X87432Y17943D01*
X87385Y17974D01*
X87331Y17985D01*
X87331Y17985D02*
G37*
G36*
X87705Y17985D02*
X87650Y17974D01*
X87604Y17943D01*
X87573Y17897D01*
X87562Y17842D01*
X87573Y17787D01*
X87604Y17741D01*
X87650Y17710D01*
X87705Y17699D01*
X87759Y17710D01*
X87806Y17741D01*
X87837Y17787D01*
X87847Y17842D01*
X87837Y17897D01*
X87806Y17943D01*
X87759Y17974D01*
X87705Y17985D01*
X87705Y17985D02*
G37*
G36*
X84693Y15662D02*
X84638Y15651D01*
X84592Y15620D01*
X84561Y15574D01*
X84550Y15519D01*
X84561Y15465D01*
X84592Y15418D01*
X84638Y15387D01*
X84693Y15377D01*
X84748Y15387D01*
X84794Y15418D01*
X84825Y15465D01*
X84836Y15519D01*
X84825Y15574D01*
X84794Y15620D01*
X84748Y15651D01*
X84693Y15662D01*
X84693Y15662D02*
G37*
G36*
X79700Y15765D02*
X79645Y15754D01*
X79599Y15723D01*
X79568Y15676D01*
X79557Y15622D01*
X79568Y15567D01*
X79599Y15521D01*
X79645Y15490D01*
X79700Y15479D01*
X79755Y15490D01*
X79801Y15521D01*
X79832Y15567D01*
X79843Y15622D01*
X79832Y15676D01*
X79801Y15723D01*
X79755Y15754D01*
X79700Y15765D01*
X79700Y15765D02*
G37*
G36*
X84299Y16449D02*
X84245Y16439D01*
X84198Y16408D01*
X84167Y16361D01*
X84156Y16307D01*
X84167Y16252D01*
X84198Y16206D01*
X84227Y16187D01*
X84227Y16187D01*
X84227Y16131D01*
X84227Y16131D01*
X84198Y16112D01*
X84167Y16066D01*
X84156Y16011D01*
X84167Y15957D01*
X84198Y15910D01*
X84245Y15880D01*
X84299Y15869D01*
X84354Y15880D01*
X84400Y15910D01*
X84431Y15957D01*
X84442Y16011D01*
X84431Y16066D01*
X84400Y16112D01*
X84372Y16131D01*
X84372Y16131D01*
X84372Y16187D01*
X84372Y16187D01*
X84400Y16206D01*
X84431Y16252D01*
X84442Y16307D01*
X84431Y16361D01*
X84400Y16408D01*
X84354Y16439D01*
X84299Y16449D01*
X84299Y16449D02*
G37*
%LPD*%
D10*
X90200Y2700D02*
G03*
X90200Y2700I-700J0D01*
G01*
X90200Y53000D02*
G03*
X90200Y53000I-700J0D01*
G01*
X7700Y2700D02*
G03*
X7700Y2700I-700J0D01*
G01*
X10021Y7679D02*
G03*
X10120Y7679I49J49D01*
G01*
X10221Y7681D02*
G03*
X10122Y7681I-49J-49D01*
G01*
X10264Y7539D02*
G03*
X10264Y7638I-49J49D01*
G01*
X10262Y7537D02*
G03*
X10262Y7438I49J-49D01*
G01*
X84500Y19259D02*
X84500Y19460D01*
X84790Y19750D01*
X89500Y19750D02*
X91691Y17559D01*
X91691Y10809D02*
X91691Y17559D01*
X91691Y10809D02*
X92250Y10250D01*
X15850Y7400D02*
X15850Y7753D01*
X15850Y7400D02*
X16213Y7037D01*
X16213Y6742D02*
X16213Y7037D01*
X16350Y8144D02*
X16350Y8500D01*
X15850Y8144D02*
X16350Y8144D01*
X43160Y14300D02*
X43303Y14300D01*
X42165Y14150D02*
X43010Y14150D01*
X43160Y14300D01*
X42100Y14215D02*
X42165Y14150D01*
X42100Y13985D02*
X42165Y14050D01*
X43010Y14050D01*
X43160Y13900D01*
X43303Y13900D01*
X43160Y15150D02*
X43303Y15150D01*
X42165Y15000D02*
X43010Y15000D01*
X43160Y15150D01*
X42100Y15065D02*
X42165Y15000D01*
X42100Y14835D02*
X42165Y14900D01*
X43010Y14900D01*
X43160Y14750D01*
X43303Y14750D01*
X42100Y15685D02*
X42165Y15750D01*
X43010Y15750D01*
X43160Y15600D01*
X43303Y15600D01*
X43160Y16000D02*
X43303Y16000D01*
X42165Y15850D02*
X43010Y15850D01*
X43160Y16000D01*
X42100Y15915D02*
X42165Y15850D01*
X55219Y48400D02*
X55469Y48650D01*
X54969Y48650D02*
X55219Y48900D01*
X52969Y48650D02*
X53219Y48900D01*
X53219Y48400D02*
X53469Y48650D01*
X50219Y46900D02*
X50469Y47150D01*
X50719Y46900D02*
X50969Y47150D01*
X47219Y46900D02*
X47469Y47150D01*
X47719Y46900D02*
X47969Y47150D01*
X53969Y50150D02*
X54219Y50400D01*
X54219Y49900D02*
X54469Y50150D01*
X4776Y25500D02*
X4776Y26000D01*
X4776Y24750D02*
X4776Y25500D01*
X23000Y12000D02*
X23000Y13250D01*
X23000Y11500D02*
X23000Y12000D01*
X23500Y12000D02*
X23500Y13250D01*
X23500Y11500D02*
X23500Y12000D01*
X10652Y9616D02*
X10652Y9632D01*
X10652Y9016D02*
X10652Y9616D01*
X30276Y5250D02*
X30276Y5606D01*
X30276Y4844D02*
X30276Y5250D01*
X30776Y5250D02*
X30776Y5606D01*
X30776Y4844D02*
X30776Y5250D01*
X27050Y13700D02*
X27056Y13700D01*
X26750Y13700D02*
X27050Y13700D01*
X5624Y37000D02*
X5624Y38734D01*
X5624Y36624D02*
X5624Y37000D01*
X33500Y18750D02*
X33500Y20250D01*
X33500Y15500D02*
X33500Y18750D01*
X33276Y15250D02*
X33276Y21250D01*
X58250Y2750D02*
X58803Y2750D01*
X57300Y2750D02*
X58250Y2750D01*
X58250Y2250D02*
X58803Y2250D01*
X57450Y2250D02*
X58250Y2250D01*
X69500Y51750D02*
X70900Y51750D01*
X67500Y51750D02*
X69500Y51750D01*
X16752Y7748D02*
X16752Y9250D01*
X38654Y1750D02*
X39207Y1750D01*
X38654Y2150D02*
X39057Y2150D01*
X13800Y11800D02*
X13800Y12353D01*
X13400Y11800D02*
X13400Y12353D01*
X37457Y1750D02*
X38260Y1750D01*
X37457Y2150D02*
X38260Y2150D01*
X30137Y12950D02*
X30137Y13200D01*
X30137Y12300D02*
X30137Y12550D01*
X36194Y10400D02*
X36194Y11394D01*
X36194Y9006D02*
X36194Y10000D01*
X53969Y49150D02*
X54219Y49400D01*
X54219Y48900D02*
X54469Y49150D01*
X48719Y48400D02*
X48969Y48650D01*
X48219Y48400D02*
X48469Y48650D01*
X48719Y46400D02*
X48969Y46650D01*
X49219Y46400D02*
X49469Y46650D01*
X49719Y48900D02*
X49969Y49150D01*
X49219Y48900D02*
X49469Y49150D01*
X50719Y46400D02*
X50969Y46650D01*
X51219Y46400D02*
X51469Y46650D01*
X52219Y46900D02*
X52469Y47150D01*
X51719Y46900D02*
X51969Y47150D01*
X45719Y46900D02*
X45969Y47150D01*
X46219Y46900D02*
X46469Y47150D01*
X46219Y48900D02*
X46469Y49150D01*
X46719Y48900D02*
X46969Y49150D01*
X50219Y48400D02*
X50469Y48650D01*
X49719Y48400D02*
X49969Y48650D01*
X44719Y46400D02*
X44969Y46650D01*
X45219Y46400D02*
X45469Y46650D01*
X5500Y4500D02*
X11000Y4500D01*
X12003Y3497D01*
X12003Y3050D02*
X12003Y3497D01*
X1635Y50265D02*
X1635Y50870D01*
X23000Y43500D02*
X23000Y50500D01*
X20750Y52750D02*
X23000Y50500D01*
X8250Y52750D02*
X20750Y52750D01*
X52219Y48900D02*
X52469Y49150D01*
X52719Y48900D02*
X52969Y49150D01*
X47219Y48400D02*
X47469Y48650D01*
X46719Y48400D02*
X46969Y48650D01*
X48719Y46900D02*
X48969Y47150D01*
X49219Y46900D02*
X49469Y47150D01*
X56750Y37250D02*
X64750Y45250D01*
X53500Y37250D02*
X56750Y37250D01*
X52500Y36250D02*
X53500Y37250D01*
X29276Y32276D02*
X34500Y37500D01*
X51250Y37500D01*
X52250Y38500D01*
X55500Y38500D01*
X29776Y32276D02*
X34750Y37250D01*
X51500Y37250D01*
X52500Y38250D01*
X55750Y38250D01*
X52750Y38000D02*
X56000Y38000D01*
X51750Y37000D02*
X52750Y38000D01*
X35000Y37000D02*
X51750Y37000D01*
X30776Y32776D02*
X35000Y37000D01*
X31276Y32776D02*
X35250Y36750D01*
X52000Y36750D01*
X53000Y37750D01*
X56250Y37750D01*
X32276Y33276D02*
X35500Y36500D01*
X52250Y36500D01*
X53250Y37500D01*
X56500Y37500D01*
X32776Y33276D02*
X35750Y36250D01*
X52500Y36250D01*
X36500Y35500D02*
X53250Y35500D01*
X36750Y35250D02*
X53500Y35250D01*
X37000Y35000D02*
X53750Y35000D01*
X37250Y34750D02*
X54000Y34750D01*
X36000Y36000D02*
X52750Y36000D01*
X36250Y35750D02*
X53000Y35750D01*
X37500Y34500D02*
X54250Y34500D01*
X57000Y37000D02*
X65000Y45000D01*
X53750Y37000D02*
X57000Y37000D01*
X52750Y36000D02*
X53750Y37000D01*
X58750Y35250D02*
X66750Y43250D01*
X55500Y35250D02*
X58750Y35250D01*
X54500Y34250D02*
X55500Y35250D01*
X59000Y35000D02*
X67000Y43000D01*
X55750Y35000D02*
X59000Y35000D01*
X54750Y34000D02*
X55750Y35000D01*
X37750Y34250D02*
X54500Y34250D01*
X53000Y35750D02*
X54000Y36750D01*
X53250Y35500D02*
X54250Y36500D01*
X53500Y35250D02*
X54500Y36250D01*
X53750Y35000D02*
X54750Y36000D01*
X54000Y34750D02*
X55000Y35750D01*
X54250Y34500D02*
X55250Y35500D01*
X38000Y34000D02*
X54750Y34000D01*
X59250Y34750D02*
X67250Y42750D01*
X54250Y36500D02*
X57500Y36500D01*
X54000Y36750D02*
X57250Y36750D01*
X33276Y24250D02*
X36526Y21000D01*
X34150Y25000D02*
X34350Y24800D01*
X33526Y25000D02*
X34150Y25000D01*
X33276Y24750D02*
X33526Y25000D01*
X57500Y50500D02*
X60250Y50500D01*
X57000Y50000D02*
X57500Y50500D01*
X57000Y47750D02*
X57000Y50000D01*
X55969Y47150D02*
X56400Y47150D01*
X57000Y47750D01*
X57500Y51000D02*
X60250Y51000D01*
X56750Y50250D02*
X57500Y51000D01*
X56750Y48500D02*
X56750Y50250D01*
X56400Y48150D02*
X56750Y48500D01*
X55969Y48150D02*
X56400Y48150D01*
X5776Y25894D02*
X5776Y26324D01*
X5776Y24750D02*
X5776Y25500D01*
X4000Y26000D02*
X4382Y26000D01*
X4000Y25500D02*
X4382Y25500D01*
X3644Y16500D02*
X4250Y16500D01*
X2250Y16500D02*
X3250Y16500D01*
X1750Y17250D02*
X2356Y17250D01*
X2750Y16750D02*
X2750Y17250D01*
X22250Y12000D02*
X22606Y12000D01*
X23894Y12000D02*
X24250Y12000D01*
X22500Y10500D02*
X23500Y11500D01*
X36594Y10150D02*
X36835Y10150D01*
X36444Y10000D02*
X36594Y10150D01*
X36835Y10150D02*
X36900Y10085D01*
X36194Y10000D02*
X36444Y10000D01*
X44833Y23500D02*
X44883Y23450D01*
X44898Y23450D01*
X44882Y24144D02*
X44882Y24406D01*
X44833Y24096D02*
X44882Y24144D01*
X44833Y23500D02*
X44833Y24096D01*
X36194Y10400D02*
X36444Y10400D01*
X36835Y10250D02*
X36900Y10315D01*
X36444Y10400D02*
X36594Y10250D01*
X36835Y10250D01*
X44685Y24144D02*
X44733Y24096D01*
X44733Y23500D02*
X44733Y24096D01*
X44683Y23450D02*
X44733Y23500D01*
X44685Y24144D02*
X44685Y24406D01*
X44668Y23450D02*
X44683Y23450D01*
X32544Y12700D02*
X32794Y12700D01*
X32544Y12950D02*
X32544Y13200D01*
X33185Y12550D02*
X33250Y12615D01*
X32544Y12700D02*
X32544Y12950D01*
X32944Y12550D02*
X33185Y12550D01*
X32794Y12700D02*
X32944Y12550D01*
X43504Y24144D02*
X43552Y24096D01*
X43552Y24096D01*
X43552Y23500D02*
X43552Y24096D01*
X43504Y24144D02*
X43504Y24406D01*
X43502Y23450D02*
X43552Y23500D01*
X43487Y23450D02*
X43502Y23450D01*
X33185Y12450D02*
X33250Y12385D01*
X32944Y12450D02*
X33185Y12450D01*
X32794Y12300D02*
X32944Y12450D01*
X32544Y12300D02*
X32794Y12300D01*
X32544Y12050D02*
X32544Y12300D01*
X32544Y11800D02*
X32544Y12050D01*
X43702Y23450D02*
X43717Y23450D01*
X43701Y24144D02*
X43701Y24406D01*
X43652Y24096D02*
X43701Y24144D01*
X43652Y23500D02*
X43702Y23450D01*
X43652Y23500D02*
X43652Y24096D01*
X30779Y12700D02*
X30844Y12635D01*
X30537Y12700D02*
X30779Y12700D01*
X30387Y12550D02*
X30537Y12700D01*
X30144Y12550D02*
X30387Y12550D01*
X30137Y12550D02*
X30144Y12550D01*
X30137Y12050D02*
X30137Y12300D01*
X43112Y23450D02*
X43127Y23450D01*
X43110Y24144D02*
X43110Y24406D01*
X43062Y24096D02*
X43110Y24144D01*
X43062Y23500D02*
X43112Y23450D01*
X43062Y23500D02*
X43062Y24096D01*
X30144Y12950D02*
X30387Y12950D01*
X30137Y13200D02*
X30137Y13450D01*
X30137Y12950D02*
X30144Y12950D01*
X30779Y12800D02*
X30844Y12865D01*
X30387Y12950D02*
X30537Y12800D01*
X30779Y12800D01*
X42913Y24144D02*
X42962Y24096D01*
X42962Y23500D02*
X42962Y24096D01*
X42913Y24144D02*
X42913Y24406D01*
X42912Y23450D02*
X42962Y23500D01*
X42897Y23450D02*
X42912Y23450D01*
X42323Y24144D02*
X42371Y24096D01*
X42371Y23500D02*
X42371Y24096D01*
X42321Y23450D02*
X42371Y23500D01*
X42323Y24144D02*
X42323Y24406D01*
X42306Y23450D02*
X42321Y23450D01*
X27444Y13200D02*
X27694Y13200D01*
X27444Y13450D02*
X27444Y13700D01*
X27444Y13200D02*
X27444Y13450D01*
X28085Y13050D02*
X28150Y13115D01*
X27694Y13200D02*
X27844Y13050D01*
X28085Y13050D01*
X42471Y23500D02*
X42521Y23450D01*
X42536Y23450D01*
X42520Y24144D02*
X42520Y24406D01*
X42471Y24096D02*
X42520Y24144D01*
X42471Y23500D02*
X42471Y24096D01*
X28085Y12950D02*
X28150Y12885D01*
X27844Y12950D02*
X28085Y12950D01*
X27694Y12800D02*
X27844Y12950D01*
X27444Y12800D02*
X27694Y12800D01*
X27444Y12550D02*
X27444Y12800D01*
X27444Y12300D02*
X27444Y12550D01*
X49700Y3350D02*
X52050Y3350D01*
X48700Y2350D02*
X49700Y3350D01*
X52400Y3000D02*
X53000Y3000D01*
X52050Y3350D02*
X52400Y3000D01*
X49500Y467D02*
X49500Y783D01*
X51000Y467D02*
X51000Y783D01*
X52250Y467D02*
X52250Y783D01*
X49646Y6673D02*
X50433Y6673D01*
X51024Y7264D02*
X51024Y7461D01*
X50433Y6673D02*
X51024Y7264D01*
X50787Y7224D02*
X50827Y7264D01*
X50118Y7224D02*
X50787Y7224D01*
X49843Y6949D02*
X50118Y7224D01*
X51435Y5608D02*
X51435Y6525D01*
X52520Y6476D02*
X52520Y6909D01*
X52520Y6091D02*
X52520Y6476D01*
X52087Y6476D02*
X52087Y6713D01*
X52087Y5886D02*
X52087Y6476D01*
X50827Y7264D02*
X50827Y7461D01*
X49094Y6476D02*
X50079Y7461D01*
X50630Y7461D01*
X48661Y6083D02*
X49055Y6083D01*
X49646Y6673D01*
X48661Y6476D02*
X49094Y6476D01*
X51811Y7318D02*
X51811Y7461D01*
X52056Y5093D02*
X52199Y5093D01*
X51763Y7269D02*
X51811Y7318D01*
X51763Y7183D02*
X51763Y7269D01*
X51098Y5064D02*
X51370Y5064D01*
X52027Y5064D02*
X52056Y5093D01*
X51500Y5064D02*
X52027Y5064D01*
X51370Y5064D02*
X51435Y5129D01*
X51500Y5064D01*
X50984Y5177D02*
X50984Y6405D01*
X51763Y7183D01*
X50984Y5177D02*
X51098Y5064D01*
X46698Y5135D02*
X46763Y5200D01*
X46698Y4046D02*
X46747Y3997D01*
X46698Y4046D02*
X46698Y5135D01*
X46747Y3750D02*
X46747Y3997D01*
X51614Y7318D02*
X51663Y7269D01*
X51663Y7224D02*
X51663Y7269D01*
X51500Y4964D02*
X52027Y4964D01*
X51614Y7318D02*
X51614Y7461D01*
X51056Y4964D02*
X51370Y4964D01*
X50884Y5136D02*
X50884Y6446D01*
X52056Y4935D02*
X52199Y4935D01*
X52027Y4964D02*
X52056Y4935D01*
X50884Y6446D02*
X51663Y7224D01*
X50884Y5136D02*
X51056Y4964D01*
X46533Y5200D02*
X46598Y5135D01*
X46598Y4046D02*
X46598Y5135D01*
X46550Y3997D02*
X46598Y4046D01*
X46550Y3750D02*
X46550Y3997D01*
X52008Y7318D02*
X52056Y7269D01*
X52056Y7146D02*
X52056Y7269D01*
X51435Y6525D02*
X52056Y7146D01*
X52008Y7318D02*
X52008Y7461D01*
X52027Y5436D02*
X52056Y5407D01*
X52199Y5407D01*
X51825Y5371D02*
X51890Y5436D01*
X51760Y5436D02*
X51825Y5371D01*
X51890Y5436D02*
X52027Y5436D01*
X52205Y7318D02*
X52205Y7461D01*
X52156Y7269D02*
X52205Y7318D01*
X52156Y7104D02*
X52156Y7269D01*
X51535Y6483D02*
X52156Y7104D01*
X51535Y5650D02*
X51535Y6483D01*
X52056Y5565D02*
X52199Y5565D01*
X52027Y5536D02*
X52056Y5565D01*
X51890Y5536D02*
X52027Y5536D01*
X51825Y5601D02*
X51890Y5536D01*
X51760Y5536D02*
X51825Y5601D01*
X51435Y5608D02*
X51607Y5436D01*
X51535Y5650D02*
X51649Y5536D01*
X51760Y5536D01*
X51607Y5436D02*
X51760Y5436D01*
X52171Y5801D02*
X52435Y5801D01*
X52087Y5886D02*
X52171Y5801D01*
X52592Y6982D02*
X52592Y7455D01*
X52520Y6909D02*
X52592Y6982D01*
X52087Y6713D02*
X52402Y7028D01*
X53425Y6043D02*
X53583Y6201D01*
X52992Y6043D02*
X53425Y6043D01*
X52907Y5959D02*
X52992Y6043D01*
X52907Y5801D02*
X52907Y5959D01*
X52402Y7028D02*
X52402Y7461D01*
X53189Y7028D02*
X53425Y7028D01*
X52992Y7224D02*
X53189Y7028D01*
X52992Y7224D02*
X52992Y7461D01*
X53425Y7028D02*
X53583Y6870D01*
X53583Y6201D02*
X53583Y6870D01*
X53976Y7229D02*
X54213Y6993D01*
X54213Y6043D02*
X54213Y6993D01*
X53970Y5801D02*
X54213Y6043D01*
X53065Y5801D02*
X53970Y5801D01*
X53976Y7229D02*
X53976Y7520D01*
X44500Y10750D02*
X44500Y11250D01*
X45813Y11491D02*
X45861Y11443D01*
X45861Y11300D02*
X45861Y11443D01*
X43697Y13450D02*
X43840Y13450D01*
X43990Y13300D01*
X45664Y11443D02*
X45713Y11491D01*
X45664Y11300D02*
X45664Y11443D01*
X43840Y13050D02*
X43990Y13200D01*
X43697Y13050D02*
X43840Y13050D01*
X45813Y11491D02*
X45813Y12729D01*
X45241Y13300D02*
X45813Y12729D01*
X45713Y11491D02*
X45713Y12687D01*
X45200Y13200D02*
X45713Y12687D01*
X43990Y13300D02*
X45241Y13300D01*
X43990Y13200D02*
X45200Y13200D01*
X46403Y11491D02*
X46452Y11443D01*
X46452Y11300D02*
X46452Y11443D01*
X43697Y14300D02*
X43840Y14300D01*
X43990Y14150D01*
X46255Y11443D02*
X46303Y11491D01*
X46255Y11300D02*
X46255Y11443D01*
X43840Y13900D02*
X43990Y14050D01*
X43697Y13900D02*
X43840Y13900D01*
X46403Y11491D02*
X46403Y13788D01*
X46041Y14150D02*
X46403Y13788D01*
X46303Y11491D02*
X46303Y13747D01*
X46000Y14050D02*
X46303Y13747D01*
X43990Y14150D02*
X46041Y14150D01*
X43990Y14050D02*
X46000Y14050D01*
X47387Y11491D02*
X47436Y11443D01*
X47436Y11300D02*
X47436Y11443D01*
X43697Y16000D02*
X43840Y16000D01*
X43990Y15850D01*
X47239Y11443D02*
X47287Y11491D01*
X47239Y11300D02*
X47239Y11443D01*
X43840Y15600D02*
X43990Y15750D01*
X43697Y15600D02*
X43840Y15600D01*
X47387Y11491D02*
X47387Y14854D01*
X46391Y15850D02*
X47387Y14854D01*
X47287Y11491D02*
X47287Y14813D01*
X46350Y15750D02*
X47287Y14813D01*
X43990Y15850D02*
X46391Y15850D01*
X43990Y15750D02*
X46350Y15750D01*
X46141Y15000D02*
X46797Y14345D01*
X46797Y11491D02*
X46797Y14345D01*
X43990Y15000D02*
X46141Y15000D01*
X46845Y11300D02*
X46845Y11443D01*
X46797Y11491D02*
X46845Y11443D01*
X43697Y15150D02*
X43840Y15150D01*
X43990Y15000D01*
X46100Y14900D02*
X46697Y14303D01*
X46697Y11491D02*
X46697Y14303D01*
X43990Y14900D02*
X46100Y14900D01*
X46648Y11443D02*
X46697Y11491D01*
X46648Y11300D02*
X46648Y11443D01*
X43840Y14750D02*
X43990Y14900D01*
X43697Y14750D02*
X43840Y14750D01*
X52008Y10532D02*
X52008Y11398D01*
X51811Y10532D02*
X51811Y11004D01*
X51614Y10532D02*
X51614Y11398D01*
X51811Y10532D02*
X51811Y10532D01*
X51614Y10532D02*
X51614Y10532D01*
X51417Y10532D02*
X51417Y11791D01*
X51220Y10532D02*
X51220Y11004D01*
X49843Y10413D02*
X49980Y10276D01*
X50374Y10276D01*
X49941Y9685D02*
X50374Y9685D01*
X49646Y9626D02*
X49783Y9488D01*
X50374Y9488D01*
X56732Y9823D02*
X56732Y10217D01*
X56142Y9823D02*
X56142Y10217D01*
X56142Y9429D02*
X56732Y9429D01*
X55748Y9035D02*
X56142Y9429D01*
X54370Y9035D02*
X55748Y9035D01*
X54311Y9094D02*
X54370Y9035D01*
X53445Y9094D02*
X54311Y9094D01*
X50827Y10532D02*
X50827Y10925D01*
X48720Y8504D02*
X50374Y8504D01*
X48661Y8445D02*
X48720Y8504D01*
X48661Y8051D02*
X48661Y8445D01*
X53445Y8504D02*
X53976Y8504D01*
X53445Y8110D02*
X53760Y8110D01*
X53445Y8307D02*
X53760Y8307D01*
X63000Y1500D02*
X63000Y2250D01*
X63250Y2500D01*
X67250Y2500D01*
X69250Y4500D01*
X53445Y9488D02*
X53976Y9488D01*
X53976Y7520D02*
X54488Y7520D01*
X53957Y7520D02*
X53976Y7520D01*
X53760Y7717D02*
X53957Y7520D01*
X53445Y7717D02*
X53760Y7717D01*
X53445Y7913D02*
X53976Y7913D01*
X52520Y6091D02*
X52593Y6018D01*
X52592Y7455D02*
X52598Y7461D01*
X52593Y5801D02*
X52593Y6018D01*
X47150Y2350D02*
X48700Y2350D01*
X48563Y9094D02*
X50374Y9094D01*
X48071Y9587D02*
X48563Y9094D01*
X48071Y9587D02*
X48071Y10217D01*
X48268Y8051D02*
X48268Y8642D01*
X48524Y8898D01*
X50374Y8898D01*
X48858Y10217D02*
X48996Y10079D01*
X50374Y10079D01*
X48465Y9980D02*
X48465Y10217D01*
X48465Y9980D02*
X48563Y9882D01*
X50374Y9882D01*
X53445Y9685D02*
X54764Y9685D01*
X53445Y9291D02*
X54764Y9291D01*
X53445Y8701D02*
X54764Y8701D01*
X52795Y7028D02*
X52795Y7461D01*
X52402Y7461D02*
X52402Y7461D01*
X53500Y3500D02*
X53500Y4450D01*
X53000Y3000D02*
X53500Y3500D01*
X46963Y2537D02*
X47150Y2350D01*
X47042Y11300D02*
X47042Y11800D01*
X47042Y9500D02*
X47042Y10000D01*
X46058Y9508D02*
X46058Y10000D01*
X48000Y9150D02*
X48065Y9215D01*
X47387Y9263D02*
X47500Y9150D01*
X48000Y9150D01*
X47436Y9857D02*
X47436Y10000D01*
X47387Y9263D02*
X47387Y9809D01*
X47436Y9857D01*
X47700Y7861D02*
X47700Y8120D01*
X47635Y8185D02*
X47700Y8120D01*
X47459Y9050D02*
X48000Y9050D01*
X48000Y9050D02*
X48065Y8985D01*
X47429Y9079D02*
X47459Y9050D01*
X47429Y9079D02*
X47429Y9079D01*
X47800Y8120D02*
X47865Y8185D01*
X47800Y7820D02*
X47800Y8120D01*
X47239Y9857D02*
X47287Y9809D01*
X47287Y9221D02*
X47287Y9809D01*
X47287Y9221D02*
X47429Y9079D01*
X47239Y9857D02*
X47239Y10000D01*
X46895Y7057D02*
X47700Y7861D01*
X46995Y7015D02*
X47800Y7820D01*
X46648Y9857D02*
X46697Y9809D01*
X46697Y8912D02*
X46697Y9809D01*
X46648Y9857D02*
X46648Y10000D01*
X47135Y8650D02*
X47200Y8585D01*
X46845Y9857D02*
X46845Y10000D01*
X46797Y9809D02*
X46845Y9857D01*
X46797Y8953D02*
X46797Y9809D01*
X47135Y8750D02*
X47200Y8815D01*
X46697Y8912D02*
X46959Y8650D01*
X47135Y8650D01*
X46797Y8953D02*
X47000Y8750D01*
X47135Y8750D01*
X46452Y9857D02*
X46452Y10000D01*
X46400Y9806D02*
X46452Y9857D01*
X46400Y8351D02*
X46400Y9806D01*
X46255Y9857D02*
X46300Y9812D01*
X46255Y9857D02*
X46255Y10000D01*
X46300Y8351D02*
X46300Y9812D01*
X46400Y8351D02*
X46500Y8251D01*
X46500Y8138D02*
X46500Y8251D01*
X46200Y8251D02*
X46300Y8351D01*
X46200Y8138D02*
X46200Y8251D01*
X46453Y6078D02*
X46453Y6580D01*
X46405Y6629D02*
X46453Y6580D01*
X46305Y6629D02*
X46305Y7644D01*
X46256Y6580D02*
X46305Y6629D01*
X46256Y6078D02*
X46256Y6580D01*
X46200Y7749D02*
X46200Y7862D01*
X46200Y7749D02*
X46305Y7644D01*
X46500Y7749D02*
X46500Y7862D01*
X46405Y7653D02*
X46500Y7749D01*
X46405Y6629D02*
X46405Y7653D01*
X45861Y9857D02*
X45861Y10000D01*
X45813Y8965D02*
X45878Y8900D01*
X45813Y8965D02*
X45813Y9809D01*
X45861Y9857D01*
X45664Y9857D02*
X45713Y9809D01*
X45713Y8965D02*
X45713Y9809D01*
X45664Y9857D02*
X45664Y10000D01*
X45648Y8900D02*
X45713Y8965D01*
X56750Y1604D02*
X56750Y2750D01*
X57350Y3250D02*
X58250Y3250D01*
X60250Y3250D01*
X57750Y3750D02*
X58803Y3750D01*
X56250Y1604D02*
X56250Y2209D01*
X69250Y4500D02*
X69750Y4500D01*
X57250Y1604D02*
X57250Y2050D01*
X57450Y2250D01*
X56750Y3300D02*
X56750Y3750D01*
X56750Y3300D02*
X57300Y2750D01*
X57250Y3350D02*
X57350Y3250D01*
X57250Y3350D02*
X57250Y3750D01*
X53750Y4250D02*
X53750Y4900D01*
X53557Y5093D02*
X53750Y4900D01*
X53301Y5093D02*
X53557Y5093D01*
X53500Y4450D02*
X53500Y4900D01*
X53250Y4450D02*
X53500Y4450D01*
X53065Y4635D02*
X53250Y4450D01*
X53065Y4635D02*
X53065Y4699D01*
X52250Y3500D02*
X52250Y3995D01*
X53465Y4935D02*
X53500Y4900D01*
X54000Y3650D02*
X54000Y5000D01*
X53593Y5407D02*
X54000Y5000D01*
X53301Y5407D02*
X53593Y5407D01*
X53050Y4250D02*
X53250Y4250D01*
X52907Y4393D02*
X53050Y4250D01*
X52907Y4393D02*
X52907Y4699D01*
X53500Y467D02*
X53500Y783D01*
X53301Y4935D02*
X53465Y4935D01*
X52564Y4309D02*
X52564Y4527D01*
X52250Y3995D02*
X52564Y4309D01*
X52000Y4200D02*
X52314Y4200D01*
X52464Y4350D01*
X46944Y4397D02*
X47047Y4500D01*
X46944Y3750D02*
X46944Y4397D01*
X52464Y4350D02*
X52464Y4527D01*
X52435Y4556D02*
X52464Y4527D01*
X52435Y4556D02*
X52435Y4699D01*
X52564Y4527D02*
X52593Y4556D01*
X52593Y4699D01*
X46250Y4500D02*
X46353Y4397D01*
X47486Y4046D02*
X47486Y5200D01*
X47386Y4046D02*
X47386Y5150D01*
X46405Y5644D02*
X46405Y5871D01*
X45911Y5150D02*
X46405Y5644D01*
X45911Y4046D02*
X45911Y5150D01*
X46305Y5694D02*
X46305Y5871D01*
X45811Y5200D02*
X46305Y5694D01*
X45811Y4046D02*
X45811Y5200D01*
X46256Y5920D02*
X46305Y5871D01*
X46256Y5920D02*
X46256Y6078D01*
X45763Y3997D02*
X45811Y4046D01*
X45763Y3750D02*
X45763Y3997D01*
X46405Y5871D02*
X46453Y5920D01*
X46453Y6078D01*
X45911Y4046D02*
X45959Y3997D01*
X45959Y3750D02*
X45959Y3997D01*
X47337Y3750D02*
X47337Y3997D01*
X47386Y4046D01*
X47534Y3750D02*
X47534Y3997D01*
X47486Y4046D02*
X47534Y3997D01*
X46963Y2537D02*
X46963Y2959D01*
X46353Y3750D02*
X46353Y4397D01*
X9794Y1956D02*
X10200Y1956D01*
X9700Y2050D02*
X9794Y1956D01*
X9700Y2050D02*
X9700Y2300D01*
X9700Y2694D02*
X9700Y3050D01*
X10200Y2468D02*
X10556Y2468D01*
X11354Y1956D02*
X11606Y1956D01*
X11700Y2050D01*
X12003Y2050D01*
X11562Y2212D02*
X11650Y2300D01*
X11354Y2212D02*
X11562Y2212D01*
X11650Y2300D02*
X11950Y2300D01*
X12003Y2353D01*
X12003Y2550D01*
X11354Y2468D02*
X11618Y2468D01*
X11700Y2550D01*
X11700Y2950D01*
X11800Y3050D01*
X12003Y3050D01*
X12397Y2550D02*
X12700Y2550D01*
X12397Y2050D02*
X12700Y2050D01*
X12397Y3050D02*
X12700Y3050D01*
X1635Y49690D02*
X2200Y49690D01*
X92496Y38327D02*
X93061Y38327D01*
X88423Y36673D02*
X93061Y36673D01*
X6819Y48931D02*
X6819Y49400D01*
X7819Y48931D02*
X7819Y49400D01*
X8819Y48931D02*
X8819Y49400D01*
X9819Y48931D02*
X9819Y49400D01*
X8819Y50400D02*
X9319Y49900D01*
X9319Y48931D02*
X9319Y49900D01*
X10319Y49181D02*
X10319Y49900D01*
X9819Y50400D02*
X10319Y49900D01*
X8319Y48931D02*
X8319Y49900D01*
X7819Y50400D02*
X8319Y49900D01*
X7319Y48931D02*
X7319Y49900D01*
X6819Y50400D02*
X7319Y49900D01*
X10500Y44000D02*
X10500Y46356D01*
X11000Y44250D02*
X11000Y46356D01*
X11500Y44250D02*
X11500Y46356D01*
X12000Y44250D02*
X12000Y46356D01*
X12500Y44250D02*
X12500Y46356D01*
X13000Y44500D02*
X13000Y46356D01*
X14000Y44500D02*
X14000Y46356D01*
X15819Y50400D02*
X16319Y49900D01*
X16319Y47750D02*
X16319Y49900D01*
X16819Y50400D02*
X17319Y49900D01*
X17319Y47750D02*
X17319Y49900D01*
X18819Y50400D02*
X19319Y49900D01*
X19319Y47750D02*
X19319Y49900D01*
X18319Y47750D02*
X18319Y49900D01*
X17819Y50400D02*
X18319Y49900D01*
X18819Y47750D02*
X18819Y49400D01*
X17819Y47750D02*
X17819Y49400D01*
X16819Y47750D02*
X16819Y49400D01*
X15819Y47750D02*
X15819Y49400D01*
X73282Y50400D02*
X73782Y49900D01*
X73782Y47750D02*
X73782Y49900D01*
X74282Y50400D02*
X74782Y49900D01*
X74782Y47750D02*
X74782Y49900D01*
X76282Y50400D02*
X76782Y49900D01*
X76782Y47750D02*
X76782Y49900D01*
X75782Y47750D02*
X75782Y49900D01*
X75282Y50400D02*
X75782Y49900D01*
X76282Y47750D02*
X76282Y49400D01*
X75282Y47750D02*
X75282Y49400D01*
X74282Y47750D02*
X74282Y49400D01*
X73282Y47750D02*
X73282Y49400D01*
X15819Y30181D02*
X15819Y47356D01*
X16319Y30181D02*
X16319Y47356D01*
X16819Y33681D02*
X16819Y47356D01*
X17819Y33681D02*
X17819Y47356D01*
X18319Y33681D02*
X18319Y47356D01*
X18819Y33681D02*
X18819Y47356D01*
X19319Y33681D02*
X19319Y47356D01*
X73282Y46750D02*
X73282Y47356D01*
X73782Y46750D02*
X73782Y47356D01*
X74282Y46750D02*
X74282Y47356D01*
X74782Y46750D02*
X74782Y47356D01*
X75282Y46750D02*
X75282Y47356D01*
X75782Y46750D02*
X75782Y47356D01*
X76282Y46750D02*
X76282Y47356D01*
X76782Y46750D02*
X76782Y47356D01*
X79101Y45750D02*
X79101Y46356D01*
X79601Y45750D02*
X79601Y46356D01*
X80101Y45750D02*
X80101Y46356D01*
X80601Y45750D02*
X80601Y46356D01*
X81101Y45750D02*
X81101Y46356D01*
X81601Y45750D02*
X81601Y46356D01*
X82101Y45750D02*
X82101Y46356D01*
X82601Y45750D02*
X82601Y46356D01*
X34935Y30033D02*
X34935Y30356D01*
X41929Y24406D02*
X41929Y26315D01*
X41732Y24406D02*
X41732Y26000D01*
X41589Y26144D02*
X41732Y26000D01*
X41274Y26144D02*
X41589Y26144D01*
X41589Y26656D02*
X41929Y26315D01*
X41289Y26656D02*
X41589Y26656D01*
X68261Y18236D02*
X68261Y19264D01*
X68458Y18236D02*
X68458Y19014D01*
X68655Y18236D02*
X68655Y19264D01*
X68852Y18236D02*
X68852Y19014D01*
X69245Y18236D02*
X69245Y19014D01*
X69048Y18236D02*
X69048Y19264D01*
X69442Y18236D02*
X69442Y19264D01*
X68708Y19764D02*
X68961Y19764D01*
X69048Y19676D01*
X69048Y19264D02*
X69048Y19676D01*
X68708Y20264D02*
X69011Y20264D01*
X69245Y20030D01*
X69245Y19014D02*
X69245Y20030D01*
X69442Y19264D02*
X69442Y20583D01*
X69261Y20764D02*
X69442Y20583D01*
X68708Y20764D02*
X69261Y20764D01*
X70033Y17842D02*
X70033Y18236D01*
X70033Y17842D02*
X70111Y17764D01*
X69836Y17789D02*
X69836Y18236D01*
X69836Y17789D02*
X70011Y17614D01*
X70311Y17614D01*
X70111Y17764D02*
X70361Y17764D01*
X70426Y17898D02*
X70426Y18236D01*
X70230Y18236D02*
X70230Y20545D01*
X69511Y21264D02*
X70230Y20545D01*
X68708Y21264D02*
X69511Y21264D01*
X71611Y19014D02*
X73011Y19014D01*
X71214Y18236D02*
X71214Y18617D01*
X71611Y19014D01*
X70508Y17817D02*
X72011Y17817D01*
X70426Y17898D02*
X70508Y17817D01*
X70311Y17614D02*
X70661Y17264D01*
X71261Y17264D01*
X70361Y17764D02*
X70611Y17514D01*
X71511Y17514D01*
X73011Y18014D02*
X73011Y19014D01*
X72011Y15814D02*
X72561Y15814D01*
X72761Y16014D01*
X72761Y17064D01*
X73011Y17314D01*
X73011Y17620D01*
X16508Y7037D02*
X16508Y7392D01*
X16350Y7550D02*
X16508Y7392D01*
X12853Y8853D02*
X12853Y8397D01*
X16350Y8144D02*
X16350Y8500D01*
X15250Y9500D02*
X16000Y9500D01*
X16350Y7550D02*
X16350Y7750D01*
X16000Y9500D02*
X16250Y9250D01*
X16902Y7598D02*
X16902Y7037D01*
X17144Y9250D02*
X17448Y9250D01*
X16600Y7600D02*
X16700Y7500D01*
X16700Y7042D01*
X16752Y7748D02*
X16902Y7598D01*
X12853Y8397D02*
X13000Y8250D01*
X16705Y4045D02*
X16705Y5463D01*
X16902Y4098D02*
X16902Y5463D01*
X17098Y4402D02*
X17098Y5463D01*
X17295Y4705D02*
X17295Y5463D01*
X17492Y5463D02*
X17492Y4755D01*
X17787Y6152D02*
X18248Y6152D01*
X17787Y6348D02*
X18402Y6348D01*
X17787Y6742D02*
X18092Y6742D01*
X18350Y7000D01*
X17295Y7037D02*
X17295Y7295D01*
X17787Y4713D02*
X17787Y5758D01*
X17787Y5955D02*
X17995Y5955D01*
X18150Y4850D02*
X18150Y5800D01*
X17995Y5955D02*
X18150Y5800D01*
X18400Y6000D02*
X18400Y5100D01*
X18248Y6152D02*
X18400Y6000D01*
X18600Y5400D02*
X18600Y6150D01*
X18402Y6348D02*
X18600Y6150D01*
X18350Y7000D02*
X19250Y7000D01*
X19500Y6750D01*
X17492Y7037D02*
X17987Y7037D01*
X18150Y7200D01*
X17295Y7295D02*
X17400Y7400D01*
X16250Y4700D02*
X16250Y4900D01*
X16508Y5158D01*
X16508Y5463D01*
X7319Y48931D02*
X9000Y47250D01*
X10319Y49181D02*
X10750Y48750D01*
X9819Y48931D02*
X10250Y48500D01*
X9319Y48931D02*
X10000Y48250D01*
X8819Y48931D02*
X9750Y48000D01*
X8319Y48931D02*
X9500Y47750D01*
X7819Y48931D02*
X9250Y47500D01*
X10750Y48750D02*
X13750Y48750D01*
X10250Y48500D02*
X13250Y48500D01*
X6819Y48931D02*
X8750Y47000D01*
X82601Y46750D02*
X82851Y47000D01*
X82101Y46750D02*
X82101Y47000D01*
X82351Y47250D01*
X80101Y46750D02*
X80101Y48000D01*
X80351Y48250D01*
X79601Y46750D02*
X79601Y48250D01*
X79851Y48500D01*
X79101Y46750D02*
X79101Y48250D01*
X79601Y48750D01*
X81632Y48750D01*
X80601Y46750D02*
X80601Y47750D01*
X80851Y48000D01*
X81101Y46750D02*
X81101Y47500D01*
X81351Y47750D01*
X81601Y46750D02*
X81601Y47250D01*
X81851Y47500D01*
X11000Y46750D02*
X11000Y46950D01*
X11500Y46750D02*
X11500Y47150D01*
X12000Y46750D02*
X12000Y47250D01*
X12500Y46750D02*
X12500Y47500D01*
X13000Y46750D02*
X13000Y47750D01*
X13250Y48500D02*
X13500Y48250D01*
X13500Y46750D02*
X13500Y48250D01*
X13750Y48750D02*
X14000Y48500D01*
X14000Y46750D02*
X14000Y48500D01*
X10000Y48250D02*
X12500Y48250D01*
X13000Y47750D01*
X9750Y48000D02*
X12000Y48000D01*
X12500Y47500D01*
X9500Y47750D02*
X11500Y47750D01*
X12000Y47250D01*
X9250Y47500D02*
X11150Y47500D01*
X11500Y47150D01*
X9000Y47250D02*
X10700Y47250D01*
X11000Y46950D01*
X8750Y47000D02*
X10250Y47000D01*
X10500Y46750D01*
X14197Y4300D02*
X14340Y4300D01*
X14490Y4450D01*
X15191Y4450D01*
X14197Y4700D02*
X14340Y4700D01*
X14490Y4550D01*
X15150Y4550D01*
X15650Y5050D01*
X15650Y5350D01*
X15191Y4450D02*
X15750Y5009D01*
X15750Y5350D01*
X15650Y5350D02*
X15650Y5791D01*
X15765Y5906D01*
X15952Y5906D01*
X16001Y5955D02*
X16213Y5955D01*
X15952Y5906D02*
X16001Y5955D01*
X15750Y5750D02*
X15750Y5350D01*
X15750Y5750D02*
X15806Y5806D01*
X15952Y5806D02*
X16001Y5758D01*
X16213Y5758D01*
X15806Y5806D02*
X15952Y5806D01*
X8448Y9325D02*
X8448Y9616D01*
X8448Y9325D02*
X8555Y9218D01*
X8555Y8153D02*
X8555Y9218D01*
X8555Y8153D02*
X8909Y7800D01*
X9759Y7800D02*
X10650Y6909D01*
X10650Y6509D02*
X10650Y6909D01*
X12709Y4450D02*
X12907Y4450D01*
X10650Y6509D02*
X12709Y4450D01*
X13107Y4250D02*
X13250Y4250D01*
X12907Y4450D02*
X13107Y4250D01*
X13300Y4300D02*
X13803Y4300D01*
X13250Y4250D02*
X13300Y4300D01*
X13107Y4750D02*
X13250Y4750D01*
X13300Y4700D02*
X13803Y4700D01*
X13250Y4750D02*
X13300Y4700D01*
X7563Y12037D02*
X7916Y12037D01*
X7500Y12100D02*
X7563Y12037D01*
X7500Y12100D02*
X7500Y12346D01*
X7506Y12352D01*
X10022Y9000D02*
X10022Y9616D01*
X10337Y12884D02*
X10337Y13813D01*
X10652Y12884D02*
X10652Y14098D01*
X9000Y14500D02*
X9303Y14500D01*
X9000Y14000D02*
X9303Y14000D01*
X1089Y36673D02*
X1654Y36673D01*
X1089Y38327D02*
X1654Y38327D01*
X5624Y39766D02*
X5884Y39766D01*
X6250Y36500D02*
X6250Y39400D01*
X5884Y39766D02*
X6250Y39400D01*
X6644Y39400D02*
X7000Y39400D01*
X4900Y37000D02*
X5230Y37000D01*
X71031Y51881D02*
X71031Y52126D01*
X70900Y51750D02*
X71031Y51881D01*
X69500Y51000D02*
X69500Y51356D01*
X66250Y53000D02*
X67500Y51750D01*
X67500Y52600D02*
X67500Y53000D01*
X7500Y53250D02*
X67250Y53250D01*
X67500Y53000D01*
X67500Y52600D02*
X67974Y52126D01*
X70000Y52126D01*
X67894Y53000D02*
X68250Y53000D01*
X8000Y53000D02*
X66250Y53000D01*
X3250Y48250D02*
X8000Y53000D01*
X3000Y36500D02*
X3000Y48750D01*
X7500Y53250D01*
X3250Y36250D02*
X3250Y48250D01*
X1500Y35000D02*
X3000Y36500D01*
X1500Y34500D02*
X3250Y36250D01*
X800Y35191D02*
X2200Y36591D01*
X2200Y38450D01*
X900Y35150D02*
X2300Y36550D01*
X1450Y39200D02*
X2200Y38450D01*
X2300Y36550D02*
X2300Y38491D01*
X1550Y39241D02*
X2300Y38491D01*
X1550Y39241D02*
X1550Y39707D01*
X900Y32141D02*
X900Y35150D01*
X450Y26650D02*
X2300Y28500D01*
X900Y32141D02*
X2300Y30741D01*
X11184Y12037D02*
X11475Y12037D01*
X11582Y12145D01*
X11791Y12145D01*
X12000Y12353D01*
X2300Y28500D02*
X2300Y30741D01*
X12000Y12353D02*
X12000Y14941D01*
X10941Y16000D02*
X12000Y14941D01*
X1550Y39707D02*
X1700Y39857D01*
X1700Y40000D01*
X1700Y40000D02*
X1700Y40553D01*
X350Y17259D02*
X350Y26691D01*
X800Y32100D02*
X800Y35191D01*
X350Y17259D02*
X1709Y15900D01*
X350Y26691D02*
X2200Y28541D01*
X800Y32100D02*
X2200Y30700D01*
X11184Y12352D02*
X11475Y12352D01*
X11582Y12245D02*
X11750Y12245D01*
X11475Y12352D02*
X11582Y12245D01*
X11750Y12245D02*
X11900Y12395D01*
X2200Y28541D02*
X2200Y30700D01*
X11900Y12395D02*
X11900Y14900D01*
X10900Y15900D02*
X11900Y14900D01*
X1300Y40000D02*
X1300Y40553D01*
X1300Y39857D02*
X1450Y39707D01*
X1300Y39857D02*
X1300Y40000D01*
X1450Y39200D02*
X1450Y39707D01*
X5000Y36000D02*
X5624Y36624D01*
X4250Y36000D02*
X5000Y36000D01*
X2000Y33750D02*
X4250Y36000D01*
X5500Y35750D02*
X6250Y36500D01*
X4500Y35750D02*
X5500Y35750D01*
X2500Y33750D02*
X4500Y35750D01*
X10150Y14000D02*
X10337Y13813D01*
X9700Y14000D02*
X10150Y14000D01*
X10250Y14500D02*
X10652Y14098D01*
X9700Y14500D02*
X10250Y14500D01*
X13144Y10985D02*
X13550Y11391D01*
X11582Y10985D02*
X13144Y10985D01*
X13185Y10885D02*
X13650Y11350D01*
X13550Y11391D02*
X13550Y11507D01*
X13400Y11657D02*
X13550Y11507D01*
X13400Y11657D02*
X13400Y11800D01*
X11475Y11093D02*
X11582Y10985D01*
X11184Y11093D02*
X11475Y11093D01*
X13650Y11507D02*
X13800Y11657D01*
X13800Y11800D01*
X11184Y10778D02*
X11475Y10778D01*
X11582Y10885D01*
X13185Y10885D01*
X13650Y11350D02*
X13650Y11507D01*
X10507Y11407D02*
X11184Y11407D01*
X10507Y11722D02*
X11184Y11722D01*
X11184Y10148D02*
X11860Y10148D01*
X11184Y10463D02*
X11860Y10463D01*
X9393Y8607D02*
X9393Y9616D01*
X9393Y8607D02*
X9750Y8250D01*
X11750Y8250D01*
X12250Y8750D01*
X12250Y9250D01*
X16750Y9250D02*
X16750Y9750D01*
X16250Y9250D02*
X16600Y8900D01*
X16600Y7600D02*
X16600Y8900D01*
X87150Y41250D02*
X87150Y41700D01*
X87150Y42900D01*
X14245Y1876D02*
X15050Y1876D01*
X14197Y4053D02*
X14197Y4300D01*
X14197Y4053D02*
X14250Y4000D01*
X14250Y3750D02*
X14250Y4000D01*
X14250Y2629D02*
X14250Y3356D01*
X8909Y7800D02*
X9759Y7800D01*
X7916Y11722D02*
X8528Y11722D01*
X8750Y11500D01*
X8750Y11000D02*
X8750Y11500D01*
X39500Y1900D02*
X39935Y1900D01*
X39500Y2000D02*
X39935Y2000D01*
X40000Y2065D01*
X49921Y6248D02*
X49986Y6183D01*
X50227Y6183D01*
X51269Y7224D01*
X51220Y7318D02*
X51220Y7461D01*
X51269Y7224D02*
X51269Y7269D01*
X51220Y7318D02*
X51269Y7269D01*
X39935Y1900D02*
X40000Y1835D01*
X49921Y6018D02*
X49986Y6083D01*
X50269Y6083D01*
X51369Y7183D01*
X51369Y7269D02*
X51417Y7318D01*
X51369Y7183D02*
X51369Y7269D01*
X51417Y7318D02*
X51417Y7461D01*
X39057Y2150D02*
X39350Y2150D01*
X39500Y2000D01*
X39207Y1750D02*
X39350Y1750D01*
X39500Y1900D01*
X9241Y45253D02*
X10050Y44445D01*
X8884Y45253D02*
X9241Y45253D01*
X8541Y45597D02*
X8884Y45253D01*
X8024Y45597D02*
X8541Y45597D01*
X10050Y43850D02*
X10050Y44445D01*
X10400Y42600D02*
X10506Y42494D01*
X10724Y42494D01*
X10724Y42324D02*
X10724Y42494D01*
X1500Y33165D02*
X1500Y33759D01*
X1500Y33165D02*
X1565Y33100D01*
X1500Y33759D02*
X4050Y36309D01*
X4050Y41159D01*
X4291Y41400D01*
X10091Y41400D01*
X13400Y12747D02*
X13400Y13250D01*
X10400Y41709D02*
X10400Y42000D01*
X12585Y15950D02*
X12650Y15885D01*
X8024Y44809D02*
X8541Y44809D01*
X8884Y45153D01*
X9200Y45153D01*
X9976Y42494D02*
X10194Y42494D01*
X9200Y45153D02*
X9950Y44403D01*
X9976Y42324D02*
X9976Y42494D01*
X10194Y42494D02*
X10300Y42600D01*
X9950Y43809D02*
X9950Y44403D01*
X1335Y33100D02*
X1400Y33165D01*
X1400Y33800D01*
X3950Y36350D01*
X3950Y41200D01*
X4250Y41500D01*
X10050Y41500D01*
X13650Y13700D02*
X13650Y14750D01*
X13800Y12747D02*
X13800Y13250D01*
X12750Y15650D02*
X13650Y14750D01*
X13800Y13250D02*
X13800Y13550D01*
X13650Y13700D02*
X13800Y13550D01*
X10300Y41750D02*
X10300Y42000D01*
X12750Y15650D02*
X12750Y15885D01*
X12815Y15950D01*
X10400Y42000D02*
X10724Y42324D01*
X9976Y42324D02*
X10300Y42000D01*
X2650Y48900D02*
X7400Y53650D01*
X2550Y48941D02*
X7359Y53750D01*
X1700Y40947D02*
X1700Y41500D01*
X1550Y41900D02*
X1550Y46409D01*
X1700Y41500D02*
X1700Y41750D01*
X1550Y41900D02*
X1700Y41750D01*
X2650Y47509D02*
X2650Y48900D01*
X7400Y53650D02*
X87241Y53650D01*
X86987Y45253D02*
X90003Y45253D01*
X86126Y45597D02*
X86643Y45597D01*
X86987Y45253D01*
X90003Y45253D02*
X91700Y46950D01*
X91376Y48024D02*
X91700Y47700D01*
X91700Y46950D02*
X91700Y47700D01*
X91376Y48024D02*
X91376Y48244D01*
X91594Y48244D01*
X91700Y48350D01*
X87241Y53650D02*
X91700Y49191D01*
X91700Y48350D02*
X91700Y49191D01*
X1300Y40947D02*
X1300Y41500D01*
X1300Y41750D01*
X1450Y41900D01*
X1450Y46450D01*
X2550Y47550D01*
X2550Y48941D01*
X7359Y53750D02*
X87283Y53750D01*
X86126Y44809D02*
X86643Y44809D01*
X86987Y45153D01*
X90045Y45153D01*
X91800Y46909D01*
X91800Y47700D02*
X92124Y48024D01*
X91800Y46909D02*
X91800Y47700D01*
X91800Y48350D02*
X91906Y48244D01*
X87283Y53750D02*
X91800Y49233D01*
X91800Y48350D02*
X91800Y49233D01*
X92124Y48024D02*
X92124Y48244D01*
X91906Y48244D02*
X92124Y48244D01*
X1635Y48135D02*
X1635Y49100D01*
X1250Y47750D02*
X1635Y48135D01*
X38694Y11194D02*
X38694Y11707D01*
X38500Y11000D02*
X38694Y11194D01*
X37350Y11000D02*
X38500Y11000D01*
X37500Y11707D02*
X37906Y11707D01*
X38103Y11707D02*
X38103Y12147D01*
X38000Y12250D02*
X38103Y12147D01*
X37500Y12250D02*
X38000Y12250D01*
X38497Y10093D02*
X38497Y10747D01*
X39250Y11500D01*
X39250Y13250D01*
X22500Y9750D02*
X22500Y10500D01*
X22500Y9750D02*
X22750Y9500D01*
X23526Y9500D01*
X23776Y9750D01*
X38694Y10093D02*
X38694Y10494D01*
X39500Y11300D01*
X39500Y13500D01*
X3500Y4500D02*
X3500Y5000D01*
X4500Y5000D01*
X4700Y5200D01*
X4700Y5850D01*
X3106Y5000D02*
X3106Y5500D01*
X3106Y5856D01*
X3250Y6000D01*
X3526Y6000D01*
X4276Y6750D01*
X4909Y34409D02*
X5750Y34409D01*
X4750Y34250D02*
X4909Y34409D01*
X4750Y33043D02*
X4750Y34250D01*
X4006Y34606D02*
X5750Y34606D01*
X7344Y34606D02*
X8106Y34606D01*
X8250Y34750D01*
X8250Y36250D01*
X7500Y37000D02*
X8250Y36250D01*
X7344Y34409D02*
X8159Y34409D01*
X8500Y34750D01*
X8500Y37000D01*
X6697Y35197D02*
X7344Y35197D01*
X6250Y34750D02*
X6697Y35197D01*
X1709Y15900D02*
X10900Y15900D01*
X1750Y16000D02*
X10941Y16000D01*
X6750Y35000D02*
X7344Y35000D01*
X6500Y34750D02*
X6750Y35000D01*
X600Y17400D02*
X1500Y16500D01*
X600Y17400D02*
X600Y26600D01*
X750Y17750D02*
X750Y26500D01*
X450Y17300D02*
X1750Y16000D01*
X450Y17300D02*
X450Y26650D01*
X1500Y16500D02*
X2250Y16500D01*
X750Y17750D02*
X1750Y16750D01*
X2750Y16750D01*
X10250Y6000D02*
X10250Y6500D01*
X10250Y6000D02*
X13300Y2950D01*
X13300Y2250D02*
X13300Y2950D01*
X9707Y12593D02*
X9707Y12884D01*
X9750Y10850D02*
X9815Y10915D01*
X9815Y12486D01*
X9707Y12593D02*
X9815Y12486D01*
X36400Y1550D02*
X36400Y1841D01*
X36559Y2000D01*
X37307Y2000D01*
X37457Y2150D01*
X9915Y10915D02*
X9915Y12486D01*
X9915Y10915D02*
X9980Y10850D01*
X9915Y12486D02*
X10022Y12593D01*
X10022Y12884D01*
X36500Y1550D02*
X36500Y1800D01*
X37307Y1900D02*
X37457Y1750D01*
X36500Y1800D02*
X36600Y1900D01*
X37307Y1900D01*
X3106Y4294D02*
X3106Y4500D01*
X3106Y4294D02*
X3250Y4150D01*
X3650Y4150D01*
X4250Y4750D01*
X10750Y4750D01*
X30776Y6000D02*
X30776Y6750D01*
X30276Y6000D02*
X30276Y6750D01*
X34750Y7250D02*
X35106Y7250D01*
X34750Y6000D02*
X35106Y6000D01*
X35500Y6000D02*
X35500Y6356D01*
X35500Y6750D02*
X35500Y7250D01*
X33276Y7250D02*
X33776Y7750D01*
X35500Y7750D01*
X35500Y7250D02*
X35500Y7750D01*
X34500Y5750D02*
X34750Y6000D01*
X33276Y5750D02*
X34500Y5750D01*
X30776Y7250D02*
X31276Y7750D01*
X33250Y7750D01*
X36000Y7250D02*
X36000Y8000D01*
X33276Y5500D02*
X35106Y5500D01*
X35500Y5500D02*
X35750Y5500D01*
X36000Y5750D01*
X36000Y6356D01*
X36000Y6750D02*
X36000Y7250D01*
X36394Y6894D02*
X36394Y7250D01*
X33276Y5000D02*
X35106Y5000D01*
X32750Y8000D02*
X33000Y8250D01*
X36250Y8250D01*
X35500Y5000D02*
X35750Y5000D01*
X28776Y7250D02*
X29526Y8000D01*
X32750Y8000D01*
X17400Y7400D02*
X20650Y7400D01*
X21500Y8250D01*
X26750Y8250D01*
X27276Y7724D01*
X27276Y7250D02*
X27276Y7724D01*
X18600Y5400D02*
X19000Y5000D01*
X19400Y5000D01*
X18400Y5100D02*
X18750Y4750D01*
X19500Y4750D01*
X18150Y4850D02*
X18500Y4500D01*
X19750Y4500D01*
X20500Y5250D01*
X21000Y5250D01*
X17787Y4713D02*
X18250Y4250D01*
X19750Y4250D01*
X20500Y5000D01*
X20750Y5000D01*
X17492Y4755D02*
X18247Y4000D01*
X17295Y4705D02*
X18250Y3750D01*
X27776Y6276D02*
X27776Y6750D01*
X17098Y4402D02*
X18000Y3500D01*
X18247Y4000D02*
X20100Y4000D01*
X26776Y6250D02*
X27276Y6750D01*
X19400Y5000D02*
X20400Y6000D01*
X26276Y6000D01*
X19500Y4750D02*
X20500Y5750D01*
X25776Y5750D01*
X20100Y4000D02*
X21600Y5500D01*
X24776Y5500D01*
X26750Y5250D02*
X27776Y6276D01*
X18250Y3750D02*
X20250Y3750D01*
X21750Y5250D01*
X26750Y5250D01*
X18150Y7200D02*
X22050Y7200D01*
X23000Y6250D01*
X26776Y6250D01*
X24026Y5000D02*
X24276Y4750D01*
X22000Y5000D02*
X24026Y5000D01*
X20500Y3500D02*
X22000Y5000D01*
X18000Y3500D02*
X20500Y3500D01*
X16902Y4098D02*
X17750Y3250D01*
X20750Y3250D01*
X21850Y4350D01*
X21850Y4500D01*
X22100Y4750D01*
X22750Y4750D01*
X16705Y4045D02*
X17750Y3000D01*
X20950Y3000D01*
X22250Y4300D01*
X22250Y4500D01*
X750Y26500D02*
X6500Y32250D01*
X600Y26600D02*
X6250Y32250D01*
X16750Y9750D02*
X20000Y9750D01*
X21000Y8750D01*
X33526Y22000D02*
X34250Y22000D01*
X33276Y21750D02*
X33526Y22000D01*
X42500Y10500D02*
X44250Y10500D01*
X42000Y11750D02*
X43000Y10750D01*
X39750Y11750D02*
X39750Y13500D01*
X39750Y11750D02*
X40250Y11250D01*
X41250Y11250D01*
X41475Y11525D02*
X42500Y10500D01*
X40000Y12000D02*
X40000Y13750D01*
X40000Y12000D02*
X40475Y11525D01*
X41475Y11525D01*
X40250Y12250D02*
X40250Y14000D01*
X40250Y12250D02*
X40750Y11750D01*
X42000Y11750D01*
X23776Y18224D02*
X23776Y21250D01*
X42165Y13300D02*
X43010Y13300D01*
X43160Y13450D01*
X43303Y13450D01*
X43010Y13200D02*
X43160Y13050D01*
X43303Y13050D01*
X42165Y13200D02*
X43010Y13200D01*
X35500Y9500D02*
X35806Y9500D01*
X35500Y9000D02*
X35806Y9000D01*
X35500Y10900D02*
X35806Y10900D01*
X35500Y11400D02*
X35806Y11400D01*
X36600Y11000D02*
X36956Y11000D01*
X36757Y11707D02*
X37106Y11707D01*
X30950Y10950D02*
X32500Y10950D01*
X32459Y11050D02*
X33944Y12535D01*
X32500Y10950D02*
X33985Y12435D01*
X34400Y12435D01*
X33944Y12535D02*
X34400Y12535D01*
X30576Y10450D02*
X30776Y10250D01*
X30576Y10450D02*
X30576Y10576D01*
X34550Y12285D02*
X34800Y12285D01*
X34400Y12435D02*
X34550Y12285D01*
X30476Y10450D02*
X30476Y10617D01*
X30276Y10250D02*
X30476Y10450D01*
X30909Y11050D02*
X32459Y11050D01*
X34400Y12535D02*
X34550Y12685D01*
X34800Y12685D01*
X30100Y10950D02*
X31600Y12450D01*
X30059Y11050D02*
X31559Y12550D01*
X31750Y12550D01*
X31900Y12700D01*
X32150Y12700D01*
X28976Y10450D02*
X28976Y10617D01*
X28776Y10250D02*
X28976Y10450D01*
X28976Y10617D02*
X29409Y11050D01*
X30059Y11050D01*
X31750Y12450D02*
X31900Y12300D01*
X32150Y12300D01*
X31600Y12450D02*
X31750Y12450D01*
X29076Y10450D02*
X29076Y10576D01*
X29076Y10450D02*
X29276Y10250D01*
X29076Y10576D02*
X29450Y10950D01*
X30100Y10950D01*
X27476Y10450D02*
X27476Y11126D01*
X29150Y12800D01*
X27576Y11085D02*
X29191Y12700D01*
X27276Y10250D02*
X27476Y10450D01*
X29150Y12800D02*
X29344Y12800D01*
X29494Y12950D01*
X29744Y12950D01*
X27576Y10450D02*
X27776Y10250D01*
X27576Y10450D02*
X27576Y11085D01*
X29191Y12700D02*
X29344Y12700D01*
X29494Y12550D02*
X29744Y12550D01*
X29344Y12700D02*
X29494Y12550D01*
X26076Y10450D02*
X26076Y12476D01*
X26550Y12950D01*
X25976Y12517D02*
X26509Y13050D01*
X26076Y10450D02*
X26276Y10250D01*
X26550Y12950D02*
X26650Y12950D01*
X26800Y12800D02*
X27050Y12800D01*
X26650Y12950D02*
X26800Y12800D01*
X25776Y10250D02*
X25976Y10450D01*
X26509Y13050D02*
X26650Y13050D01*
X26800Y13200D01*
X27050Y13200D01*
X25976Y10450D02*
X25976Y12517D01*
X43000Y25500D02*
X43000Y26000D01*
X42250Y25500D02*
X42606Y25500D01*
X42250Y26000D02*
X42606Y26000D01*
X46063Y24406D02*
X46063Y24737D01*
X46260Y24406D02*
X46260Y24790D01*
X47244Y24406D02*
X47244Y25250D01*
X45950Y24850D02*
X46063Y24737D01*
X43500Y24850D02*
X45950Y24850D01*
X43350Y25000D02*
X43500Y24850D01*
X43000Y25000D02*
X43350Y25000D01*
X46050Y25000D02*
X46260Y24790D01*
X43000Y25500D02*
X43250Y25500D01*
X43750Y25000D01*
X46050Y25000D01*
X47441Y24406D02*
X47441Y25559D01*
X47250Y25750D02*
X47441Y25559D01*
X47250Y25750D02*
X47250Y26250D01*
X54600Y19250D02*
X54600Y19884D01*
X54600Y18856D02*
X54956Y18856D01*
X34950Y30750D02*
X35750Y30750D01*
X36215Y30750D01*
X49606Y7894D02*
X49646Y7854D01*
X49819Y7854D01*
X49606Y7894D02*
X49606Y7919D01*
X49819Y7854D02*
X50027Y8062D01*
X50182Y8062D01*
X50231Y8110D01*
X50374Y8110D01*
X49606Y7689D02*
X49606Y7715D01*
X49646Y7754D01*
X49861Y7754D01*
X50068Y7962D01*
X50182Y7962D01*
X50231Y7913D02*
X50374Y7913D01*
X50182Y7962D02*
X50231Y7913D01*
X51370Y4964D02*
X51435Y4899D01*
X51500Y4964D01*
X64500Y19750D02*
X67080Y19750D01*
X68000Y21264D02*
X68314Y21264D01*
X68000Y20764D02*
X68314Y20764D01*
X68000Y20264D02*
X68314Y20264D01*
X68000Y19764D02*
X68314Y19764D01*
X68708Y21058D02*
X68708Y21264D01*
X68650Y21000D02*
X68708Y21058D01*
X67750Y21000D02*
X68650Y21000D01*
X66750Y20000D02*
X67750Y21000D01*
X64250Y20000D02*
X66750Y20000D01*
X64250Y19500D02*
X64500Y19750D01*
X64000Y19750D02*
X64250Y20000D01*
X37106Y12250D02*
X37106Y12894D01*
X23500Y13250D02*
X24750Y14500D01*
X24776Y10250D02*
X24776Y14026D01*
X23000Y13250D02*
X24500Y14750D01*
X23776Y18224D02*
X27000Y15000D01*
X61500Y17000D02*
X63000Y18500D01*
X61750Y16750D02*
X63250Y18250D01*
X62000Y16500D02*
X63500Y18000D01*
X62250Y16250D02*
X63750Y17750D01*
X39250Y15000D02*
X40250Y14000D01*
X34250Y22000D02*
X34500Y21750D01*
X34500Y21250D02*
X34500Y21750D01*
X34000Y15000D02*
X39250Y15000D01*
X33500Y15500D02*
X34000Y15000D01*
X33500Y20250D02*
X34500Y21250D01*
X10500Y44000D02*
X13250Y41250D01*
X13250Y28750D02*
X13250Y41250D01*
X11000Y44250D02*
X13500Y41750D01*
X13500Y29000D02*
X13500Y41750D01*
X11500Y44250D02*
X13750Y42000D01*
X13750Y29250D02*
X13750Y42000D01*
X12000Y44250D02*
X14000Y42250D01*
X14000Y29500D02*
X14000Y42250D01*
X13250Y28750D02*
X19650Y22350D01*
X26150Y22350D01*
X26276Y22224D01*
X13500Y29000D02*
X20000Y22500D01*
X26500Y22500D01*
X26776Y22224D01*
X13750Y29250D02*
X20350Y22650D01*
X27350Y22650D01*
X27776Y22224D01*
X14000Y29500D02*
X20700Y22800D01*
X27700Y22800D01*
X28276Y22224D01*
X12500Y44250D02*
X14250Y42500D01*
X14250Y29750D02*
X14250Y42500D01*
X14250Y29750D02*
X21050Y22950D01*
X28550Y22950D01*
X29276Y22224D01*
X13000Y44500D02*
X14500Y43000D01*
X14500Y30000D02*
X14500Y43000D01*
X14500Y30000D02*
X21400Y23100D01*
X28900Y23100D01*
X29776Y22224D01*
X13500Y44500D02*
X14750Y43250D01*
X14750Y30250D02*
X14750Y43250D01*
X14750Y30250D02*
X21750Y23250D01*
X13500Y44500D02*
X13500Y46356D01*
X21750Y23250D02*
X29750Y23250D01*
X30776Y22224D01*
X14000Y44500D02*
X15000Y43500D01*
X15000Y30500D02*
X15000Y43500D01*
X15000Y30500D02*
X22100Y23400D01*
X30100Y23400D01*
X31276Y22224D01*
X26276Y21750D02*
X26276Y22224D01*
X26776Y21750D02*
X26776Y22224D01*
X27776Y21750D02*
X27776Y22224D01*
X28276Y21750D02*
X28276Y22224D01*
X29276Y21750D02*
X29276Y22224D01*
X29776Y21750D02*
X29776Y22224D01*
X30776Y21750D02*
X30776Y22224D01*
X31276Y21750D02*
X31276Y22224D01*
X15819Y30181D02*
X22450Y23550D01*
X25050Y23550D01*
X16319Y30181D02*
X22800Y23700D01*
X24650Y23700D01*
X17319Y33681D02*
X17319Y47356D01*
X18819Y33681D02*
X27000Y25500D01*
X27500Y25500D01*
X19319Y33681D02*
X27250Y25750D01*
X27750Y25750D01*
X73032Y46500D02*
X73282Y46750D01*
X63500Y46500D02*
X73032Y46500D01*
X73282Y46250D02*
X73782Y46750D01*
X63750Y46250D02*
X73282Y46250D01*
X73532Y46000D02*
X74282Y46750D01*
X64000Y46000D02*
X73532Y46000D01*
X73782Y45750D02*
X74782Y46750D01*
X64250Y45750D02*
X73782Y45750D01*
X74032Y45500D02*
X75282Y46750D01*
X64500Y45500D02*
X74032Y45500D01*
X74282Y45250D02*
X75782Y46750D01*
X64750Y45250D02*
X74282Y45250D01*
X74532Y45000D02*
X76282Y46750D01*
X65000Y45000D02*
X74532Y45000D01*
X74782Y44750D02*
X76782Y46750D01*
X65250Y44750D02*
X74782Y44750D01*
X77851Y44500D02*
X79101Y45750D01*
X65500Y44500D02*
X77851Y44500D01*
X78101Y44250D02*
X79601Y45750D01*
X65750Y44250D02*
X78101Y44250D01*
X78351Y44000D02*
X80101Y45750D01*
X66000Y44000D02*
X78351Y44000D01*
X78601Y43750D02*
X80601Y45750D01*
X66250Y43750D02*
X78601Y43750D01*
X78851Y43500D02*
X81101Y45750D01*
X66500Y43500D02*
X78851Y43500D01*
X79101Y43250D02*
X81601Y45750D01*
X66750Y43250D02*
X79101Y43250D01*
X79351Y43000D02*
X82101Y45750D01*
X67000Y43000D02*
X79351Y43000D01*
X79601Y42750D02*
X82601Y45750D01*
X67250Y42750D02*
X79601Y42750D01*
X55750Y38250D02*
X63750Y46250D01*
X56000Y38000D02*
X64000Y46000D01*
X56250Y37750D02*
X64250Y45750D01*
X56500Y37500D02*
X64500Y45500D01*
X57250Y36750D02*
X65250Y44750D01*
X57500Y36500D02*
X65500Y44500D01*
X57750Y36250D02*
X65750Y44250D01*
X58000Y36000D02*
X66000Y44000D01*
X58250Y35750D02*
X66250Y43750D01*
X58500Y35500D02*
X66500Y43500D01*
X55500Y38500D02*
X63500Y46500D01*
X54500Y36250D02*
X57750Y36250D01*
X54750Y36000D02*
X58000Y36000D01*
X55000Y35750D02*
X58250Y35750D01*
X55250Y35500D02*
X58500Y35500D01*
X34350Y23650D02*
X34350Y24800D01*
X34350Y23650D02*
X36000Y22000D01*
X36526Y21000D02*
X38500Y21000D01*
X45500Y22000D02*
X46000Y22500D01*
X36000Y22000D02*
X38500Y22000D01*
X45500Y22000D01*
X38500Y21000D02*
X45250Y21000D01*
X46000Y21750D01*
X32776Y21750D02*
X33276Y22250D01*
X34250Y22250D01*
X37000Y19500D01*
X44750Y19500D01*
X45500Y20250D01*
X32276Y21750D02*
X33026Y22500D01*
X34500Y22500D01*
X37250Y19750D01*
X44500Y19750D01*
X45250Y20500D01*
X47000Y20500D01*
X48250Y19250D01*
X54600Y19250D01*
X24650Y23700D02*
X24776Y23826D01*
X24776Y24250D01*
X25050Y23550D02*
X25276Y23776D01*
X25276Y24250D01*
X16819Y33681D02*
X24776Y25724D01*
X24776Y24750D02*
X24776Y25724D01*
X17319Y33681D02*
X25276Y25724D01*
X25276Y24750D02*
X25276Y25724D01*
X17819Y33681D02*
X26276Y25224D01*
X26276Y24750D02*
X26276Y25224D01*
X18319Y33681D02*
X26776Y25224D01*
X26776Y24750D02*
X26776Y25224D01*
X27500Y25500D02*
X27776Y25224D01*
X27776Y24750D02*
X27776Y25224D01*
X27750Y25750D02*
X28276Y25224D01*
X28276Y24750D02*
X28276Y25224D01*
X29276Y24750D02*
X29276Y32276D01*
X29776Y24750D02*
X29776Y32276D01*
X30776Y24750D02*
X30776Y32776D01*
X31276Y24750D02*
X31276Y32776D01*
X32276Y24750D02*
X32276Y33276D01*
X32776Y24750D02*
X32776Y33276D01*
X12421Y38484D02*
X12421Y39250D01*
X55219Y49400D02*
X55469Y49150D01*
X55719Y45900D02*
X55969Y46150D01*
X47719Y48900D02*
X47969Y49150D01*
X48219Y48900D02*
X48469Y49150D01*
X51219Y48900D02*
X51469Y49150D01*
X50719Y48900D02*
X50969Y49150D01*
X51219Y48400D02*
X51469Y48650D01*
X51719Y48400D02*
X51969Y48650D01*
X47219Y46400D02*
X47469Y46650D01*
X46719Y46400D02*
X46969Y46650D01*
X30576Y10576D02*
X30950Y10950D01*
X30476Y10617D02*
X30909Y11050D01*
X35150Y10150D02*
X35400Y10150D01*
X34900Y9900D02*
X35150Y10150D01*
X34900Y8959D02*
X34900Y9900D01*
X34800Y9941D02*
X35109Y10250D01*
X34650Y8850D02*
X34800Y9000D01*
X34691Y8750D02*
X34900Y8959D01*
X35109Y10250D02*
X35400Y10250D01*
X35550Y10400D01*
X35800Y10400D01*
X32076Y9250D02*
X32476Y8850D01*
X32076Y9250D02*
X32076Y9550D01*
X32276Y9750D01*
X35400Y10150D02*
X35550Y10000D01*
X35800Y10000D01*
X31976Y9209D02*
X32435Y8750D01*
X34691Y8750D01*
X31976Y9209D02*
X31976Y9550D01*
X31776Y9750D02*
X31976Y9550D01*
X34800Y9000D02*
X34800Y9300D01*
X34800Y9650D02*
X34800Y9941D01*
X34750Y9350D02*
X34800Y9300D01*
X34750Y9600D02*
X34800Y9650D01*
X34650Y9600D02*
X34750Y9600D01*
X34650Y9350D02*
X34750Y9350D01*
X34600Y9400D02*
X34650Y9350D01*
X34600Y9400D02*
X34600Y9550D01*
X34650Y9600D01*
X33019Y8850D02*
X33069Y8900D01*
X32476Y8850D02*
X33019Y8850D01*
X33069Y8900D02*
X33200Y8900D01*
X33250Y8850D01*
X34650Y8850D01*
X35835Y12435D02*
X35900Y12370D01*
X35594Y12435D02*
X35835Y12435D01*
X35444Y12285D02*
X35594Y12435D01*
X35194Y12285D02*
X35444Y12285D01*
X35194Y11785D02*
X35194Y12035D01*
X35194Y12285D01*
X44293Y23450D02*
X44308Y23450D01*
X44291Y24144D02*
X44291Y24406D01*
X44243Y24096D02*
X44291Y24144D01*
X44243Y23500D02*
X44293Y23450D01*
X44243Y23500D02*
X44243Y24096D01*
X35194Y12685D02*
X35444Y12685D01*
X35194Y12935D02*
X35194Y13185D01*
X35194Y12685D02*
X35194Y12935D01*
X35835Y12535D02*
X35900Y12600D01*
X35444Y12685D02*
X35594Y12535D01*
X35835Y12535D01*
X44094Y24144D02*
X44143Y24096D01*
X44143Y23500D02*
X44143Y24096D01*
X44143Y24096D01*
X44094Y24144D02*
X44094Y24406D01*
X44093Y23450D02*
X44143Y23500D01*
X44078Y23450D02*
X44093Y23450D01*
X12650Y15609D02*
X12650Y15885D01*
X12650Y15609D02*
X13550Y14709D01*
X13550Y13700D02*
X13550Y14709D01*
X13400Y13550D02*
X13550Y13700D01*
X13400Y13250D02*
X13400Y13550D01*
X8763Y9325D02*
X8763Y9616D01*
X8655Y9218D02*
X8763Y9325D01*
X8655Y8195D02*
X8655Y9218D01*
X8655Y8195D02*
X8950Y7900D01*
X9800Y7900D01*
X10000Y7700D02*
X10021Y7679D01*
X10120Y7679D02*
X10122Y7681D01*
X10221Y7681D02*
X10264Y7638D01*
X10262Y7537D02*
X10264Y7539D01*
X10262Y7438D02*
X10400Y7300D01*
X9800Y7900D02*
X10000Y7700D01*
X10400Y7300D02*
X10750Y6950D01*
X10750Y6550D02*
X10750Y6950D01*
X10750Y6550D02*
X12750Y4550D01*
X12907Y4550D01*
X13107Y4750D01*
X2250Y46800D02*
X2375Y46925D01*
X2375Y47002D01*
X2300Y47077D02*
X2375Y47002D01*
X2300Y47077D02*
X2300Y47159D01*
X2650Y47509D01*
X1550Y46409D02*
X2016Y46875D01*
X2016Y46875D02*
X2098Y46875D01*
X2173Y46800D01*
X2250Y46800D01*
X32276Y6000D02*
X32276Y6750D01*
X32276Y4844D02*
X32276Y5250D01*
X32276Y5606D01*
X28776Y6000D02*
X28776Y6750D01*
X28776Y4844D02*
X28776Y5250D01*
X28776Y5606D01*
X31776Y6000D02*
X31776Y6750D01*
X29276Y6000D02*
X29276Y6750D01*
X31776Y4844D02*
X31776Y5250D01*
X31776Y5606D01*
X29276Y4844D02*
X29276Y5250D01*
X29276Y5606D01*
X9750Y39500D02*
X9750Y40000D01*
X9494Y40256D02*
X9750Y40000D01*
X21500Y9750D02*
X21500Y19250D01*
X12500Y28250D02*
X21500Y19250D01*
X12500Y28250D02*
X12500Y36250D01*
X11250Y37500D02*
X12500Y36250D01*
X11250Y37500D02*
X11250Y38000D01*
X9750Y39500D02*
X11250Y38000D01*
X8839Y40256D02*
X9494Y40256D01*
X10250Y39500D02*
X11500Y38250D01*
X21750Y9500D02*
X21750Y19500D01*
X12750Y28500D02*
X21750Y19500D01*
X12750Y28500D02*
X12750Y36500D01*
X11500Y37750D02*
X12750Y36500D01*
X11500Y37750D02*
X11500Y38250D01*
X60550Y27000D02*
X70000Y27000D01*
X60176Y26750D02*
X70250Y26750D01*
X74803Y31303D01*
X74803Y33224D01*
X75000Y33224D02*
X75000Y34250D01*
X74750Y34500D02*
X75000Y34250D01*
X74750Y34500D02*
X74750Y35250D01*
X74000Y35250D02*
X74750Y35250D01*
X73000Y35250D02*
X73606Y35250D01*
X37500Y22500D02*
X41732Y22500D01*
X41732Y24406D01*
X70000Y27000D02*
X74606Y31606D01*
X74606Y33224D01*
X75750Y31750D02*
X77250Y31750D01*
X77750Y32250D01*
X77750Y34700D01*
X76255Y36195D02*
X77750Y34700D01*
X75124Y36195D02*
X76255Y36195D01*
X75197Y33224D02*
X75197Y35553D01*
X75000Y35750D02*
X75197Y35553D01*
X72750Y35750D02*
X75000Y35750D01*
X72500Y35500D02*
X72750Y35750D01*
X72500Y30000D02*
X72500Y35500D01*
X69750Y27250D02*
X72500Y30000D01*
X61250Y27250D02*
X69750Y27250D01*
X61000Y27500D02*
X61250Y27250D01*
X59750Y27500D02*
X61000Y27500D01*
X59500Y27250D02*
X59750Y27500D01*
X59500Y25000D02*
X59500Y27250D01*
X59250Y24750D02*
X59500Y25000D01*
X47835Y24406D02*
X47835Y25250D01*
X48032Y24406D02*
X48032Y25050D01*
X50000Y24750D02*
X59250Y24750D01*
X35750Y22750D02*
X36500Y22750D01*
X89193Y22736D02*
X89193Y23502D01*
X93130Y26673D02*
X93130Y27439D01*
X89193Y30610D02*
X89193Y31376D01*
X85256Y26673D02*
X85256Y27439D01*
X85256Y38484D02*
X85256Y39250D01*
X84258Y24508D02*
X85610Y24508D01*
X88445Y28445D02*
X89547Y28445D01*
X88000Y28000D02*
X88445Y28445D01*
X88000Y26500D02*
X88000Y28000D01*
X86750Y25250D02*
X88000Y26500D01*
X84500Y25250D02*
X86750Y25250D01*
X82000Y22750D02*
X84500Y25250D01*
X67896Y22750D02*
X82000Y22750D01*
X80945Y28445D02*
X81673Y28445D01*
X80750Y28250D02*
X80945Y28445D01*
X80750Y24750D02*
X80750Y28250D01*
X85610Y32382D02*
X86618Y32382D01*
X87750Y31250D01*
X87750Y26750D02*
X87750Y31250D01*
X86500Y25500D02*
X87750Y26750D01*
X84250Y25500D02*
X86500Y25500D01*
X81750Y23000D02*
X84250Y25500D01*
X67793Y23000D02*
X81750Y23000D01*
X84750Y33000D02*
X88423Y36673D01*
X84750Y29500D02*
X84750Y33000D01*
X80500Y28500D02*
X81000Y29000D01*
X79250Y23250D02*
X80750Y24750D01*
X67689Y23250D02*
X79250Y23250D01*
X80500Y25000D02*
X80500Y28500D01*
X79000Y23500D02*
X80500Y25000D01*
X67586Y23500D02*
X79000Y23500D01*
X81673Y40256D02*
X83244Y40256D01*
X84500Y39000D01*
X84500Y29750D02*
X84500Y39000D01*
X84250Y29000D02*
X84750Y29500D01*
X81000Y29000D02*
X84250Y29000D01*
X84000Y29250D02*
X84500Y29750D01*
X80750Y29250D02*
X84000Y29250D01*
X80250Y28750D02*
X80750Y29250D01*
X80250Y25250D02*
X80250Y28750D01*
X78750Y23750D02*
X80250Y25250D01*
X67482Y23750D02*
X78750Y23750D01*
X65439Y21000D02*
X67689Y23250D01*
X65336Y21250D02*
X67586Y23500D01*
X65232Y21500D02*
X67482Y23750D01*
X65646Y20500D02*
X67896Y22750D01*
X65543Y20750D02*
X67793Y23000D01*
X63482Y21500D02*
X65232Y21500D01*
X64000Y20250D02*
X65750Y20250D01*
X63689Y21000D02*
X65439Y21000D01*
X63586Y21250D02*
X65336Y21250D01*
X63896Y20500D02*
X65646Y20500D01*
X63793Y20750D02*
X65543Y20750D01*
X61000Y17250D02*
X64000Y20250D01*
X60482Y18500D02*
X63482Y21500D01*
X60689Y18000D02*
X63689Y21000D01*
X60586Y18250D02*
X63586Y21250D01*
X60896Y17500D02*
X63896Y20500D01*
X60793Y17750D02*
X63793Y20750D01*
X46000Y18500D02*
X60482Y18500D01*
X45000Y17250D02*
X61000Y17250D01*
X45750Y18000D02*
X60689Y18000D01*
X45250Y18250D02*
X60586Y18250D01*
X45500Y17500D02*
X60896Y17500D01*
X46250Y17750D02*
X60793Y17750D01*
X35500Y15750D02*
X36000Y16250D01*
X62250Y16250D01*
X35250Y15500D02*
X35250Y16000D01*
X35750Y16500D01*
X62000Y16500D01*
X35000Y15750D02*
X35000Y16250D01*
X35500Y16750D01*
X61750Y16750D01*
X34750Y15500D02*
X34750Y16500D01*
X35250Y17000D01*
X61500Y17000D01*
X34894Y6356D02*
X35500Y6356D01*
X34750Y6500D02*
X34894Y6356D01*
X35750Y5000D02*
X36750Y6000D01*
X36750Y7750D01*
X36250Y8250D02*
X36750Y7750D01*
X36000Y6356D02*
X36356Y6356D01*
X36500Y6500D01*
X42100Y13135D02*
X42165Y13200D01*
X42100Y13365D02*
X42165Y13300D01*
X50750Y24250D02*
X56750Y24250D01*
X51000Y24000D02*
X57000Y24000D01*
X50750Y23750D02*
X56750Y23750D01*
X36335Y1485D02*
X36400Y1550D01*
X36500Y1550D02*
X36565Y1485D01*
X64000Y4600D02*
X64000Y19750D01*
X63650Y4250D02*
X64000Y4600D01*
X61500Y4250D02*
X63650Y4250D01*
X64250Y4250D02*
X64250Y19500D01*
X61250Y4050D02*
X61250Y4500D01*
X61250Y4050D02*
X61550Y3750D01*
X63750Y3750D01*
X64250Y4250D01*
X58803Y3750D02*
X58803Y4697D01*
X58750Y4750D02*
X58803Y4697D01*
X60250Y3250D02*
X60750Y3250D01*
X61000Y3500D01*
X56250Y3250D02*
X56750Y2750D01*
X56000Y3250D02*
X56250Y3250D01*
X55750Y3500D02*
X56000Y3250D01*
X55750Y3500D02*
X55750Y4700D01*
X56300Y5250D01*
X57250Y5250D01*
X54992Y3466D02*
X56250Y2209D01*
X54992Y3466D02*
X54992Y4750D01*
X30459Y34709D02*
X30459Y44159D01*
X28750Y33000D02*
X30459Y34709D01*
X28750Y26750D02*
X28750Y33000D01*
X35750Y23100D02*
X36500Y23100D01*
X33750Y19250D02*
X36750Y19250D01*
X53445Y9882D02*
X54132Y9882D01*
X54500Y10250D01*
X55550Y10250D01*
X55800Y10500D01*
X55800Y13800D01*
X53650Y15950D02*
X55800Y13800D01*
X47750Y15950D02*
X53650Y15950D01*
X27500Y29500D02*
X27500Y31918D01*
X29169Y33586D01*
X29169Y44500D01*
X6250Y32250D02*
X6250Y34750D01*
X41219Y46400D02*
X41469Y46650D01*
X40719Y46400D02*
X40969Y46650D01*
X6500Y32250D02*
X6500Y34750D01*
X8291Y3464D02*
X8291Y4114D01*
X85282Y50400D02*
X85750Y49932D01*
X82851Y47000D02*
X84250Y47000D01*
X85750Y48500D01*
X85750Y49932D01*
X82351Y47250D02*
X84000Y47250D01*
X85282Y48532D01*
X85282Y49400D01*
X81851Y47500D02*
X83750Y47500D01*
X84750Y48500D01*
X84750Y49932D01*
X84282Y50400D02*
X84750Y49932D01*
X81351Y47750D02*
X83500Y47750D01*
X84282Y48532D01*
X84282Y49400D01*
X80851Y48000D02*
X83250Y48000D01*
X83750Y48500D01*
X83750Y49932D01*
X83282Y50400D02*
X83750Y49932D01*
X80351Y48250D02*
X82750Y48250D01*
X83282Y48782D01*
X83282Y49400D01*
X79851Y48500D02*
X82300Y48500D01*
X82800Y49000D01*
X82800Y49882D01*
X82282Y50400D02*
X82800Y49882D01*
X81632Y48750D02*
X82282Y49400D01*
X10050Y43850D02*
X10400Y43500D01*
X9950Y43809D02*
X10300Y43459D01*
X10300Y42600D02*
X10300Y43459D01*
X10400Y42600D02*
X10400Y43500D01*
X10050Y41500D02*
X10300Y41750D01*
X10091Y41400D02*
X10400Y41709D01*
X12250Y9250D02*
X13250Y10250D01*
X16250Y10250D01*
X16750Y9750D01*
X13000Y8250D02*
X14100Y8250D01*
X14266Y8416D01*
X14266Y8634D01*
X33250Y7750D02*
X33500Y8000D01*
X36000Y8000D01*
X82250Y22500D02*
X84258Y24508D01*
X65750Y20250D02*
X68000Y22500D01*
X82250Y22500D01*
X46895Y5641D02*
X47386Y5150D01*
X46995Y6629D02*
X46995Y7015D01*
X47044Y6078D02*
X47044Y6580D01*
X46995Y6629D02*
X47044Y6580D01*
X46847Y6078D02*
X46847Y6580D01*
X46895Y6629D01*
X46895Y7057D01*
X46847Y5920D02*
X46847Y6078D01*
X47044Y5920D02*
X47044Y6078D01*
X46995Y5691D02*
X47486Y5200D01*
X46995Y5871D02*
X47044Y5920D01*
X46847Y5920D02*
X46895Y5871D01*
X46995Y5691D02*
X46995Y5871D01*
X46895Y5641D02*
X46895Y5871D01*
X56000Y34750D02*
X59250Y34750D01*
X38250Y33750D02*
X55000Y33750D01*
X56000Y34750D01*
X26700Y12300D02*
X27050Y12300D01*
X29394Y12050D02*
X29744Y12050D01*
X29394Y13450D02*
X29744Y13450D01*
X31800Y11800D02*
X32150Y11800D01*
X31800Y13200D02*
X32150Y13200D01*
X27000Y15000D02*
X32600Y15000D01*
X24500Y14750D02*
X32500Y14750D01*
X24750Y14500D02*
X32400Y14500D01*
X24776Y14026D02*
X25015Y14265D01*
X32235Y14265D01*
X33276Y15250D02*
X33726Y14800D01*
X38950Y14800D01*
X40000Y13750D01*
X32600Y15000D02*
X33000Y14600D01*
X38650Y14600D01*
X39750Y13500D01*
X32500Y14750D02*
X32850Y14400D01*
X38600Y14400D01*
X39500Y13500D01*
X32400Y14500D02*
X32700Y14200D01*
X38300Y14200D01*
X39250Y13250D01*
X32235Y14265D02*
X32500Y14000D01*
X36000Y14000D01*
X37106Y12894D01*
X34450Y13185D02*
X34800Y13185D01*
X34450Y11785D02*
X34800Y11785D01*
X49500Y1217D02*
X49500Y1850D01*
X53500Y1217D02*
X53500Y1803D01*
X52250Y1217D02*
X52250Y1800D01*
X53500Y2197D02*
X53500Y3150D01*
X54000Y3650D01*
X51000Y1217D02*
X51567Y1217D01*
X52250Y2197D02*
X52797Y2197D01*
X49500Y1850D02*
X49750Y2100D01*
X50103Y2100D01*
X50497Y2100D02*
X50900Y2100D01*
X51000Y2000D01*
X51000Y1650D02*
X51000Y2000D01*
X52200Y2550D02*
X52550Y2550D01*
X51800Y1450D02*
X51800Y2550D01*
X51567Y1217D02*
X51800Y1450D01*
X52797Y2197D02*
X53100Y2500D01*
X49750Y24500D02*
X68500Y24500D01*
X75750Y31750D01*
X84790Y19750D02*
X89500Y19750D01*
D11*
X43750Y7250D02*
D03*
X43750Y6856D02*
D03*
X49055Y8051D02*
D03*
X49055Y7657D02*
D03*
X71000Y7000D02*
D03*
X71000Y7394D02*
D03*
X70997Y6052D02*
D03*
X70997Y5659D02*
D03*
X70260Y12461D02*
D03*
X70260Y12067D02*
D03*
X69260Y12461D02*
D03*
X69260Y12067D02*
D03*
X83149Y12447D02*
D03*
X83149Y12053D02*
D03*
X84149Y12447D02*
D03*
X84149Y12053D02*
D03*
X21750Y21606D02*
D03*
X21750Y22000D02*
D03*
X88630Y17488D02*
D03*
X88630Y17881D02*
D03*
X85854Y17291D02*
D03*
X85854Y17685D02*
D03*
X86268Y17291D02*
D03*
X86268Y17685D02*
D03*
X69500Y51750D02*
D03*
X69500Y51356D02*
D03*
X90850Y48500D02*
D03*
X90850Y48894D02*
D03*
X82601Y46356D02*
D03*
X82601Y46750D02*
D03*
X82101Y46750D02*
D03*
X82101Y46356D02*
D03*
X81601Y46356D02*
D03*
X81601Y46750D02*
D03*
X81101Y46750D02*
D03*
X81101Y46356D02*
D03*
X80601Y46356D02*
D03*
X80601Y46750D02*
D03*
X80101Y46750D02*
D03*
X80101Y46356D02*
D03*
X79601Y46356D02*
D03*
X79601Y46750D02*
D03*
X79101Y46750D02*
D03*
X79101Y46356D02*
D03*
X76782Y47356D02*
D03*
X76782Y47750D02*
D03*
X76282Y47750D02*
D03*
X76282Y47356D02*
D03*
X75282Y47750D02*
D03*
X75282Y47356D02*
D03*
X75782Y47356D02*
D03*
X75782Y47750D02*
D03*
X74782Y47356D02*
D03*
X74782Y47750D02*
D03*
X74282Y47750D02*
D03*
X74282Y47356D02*
D03*
X73282Y47750D02*
D03*
X73282Y47356D02*
D03*
X73782Y47356D02*
D03*
X73782Y47750D02*
D03*
X14000Y46356D02*
D03*
X14000Y46750D02*
D03*
X13500Y46750D02*
D03*
X13500Y46356D02*
D03*
X13000Y46356D02*
D03*
X13000Y46750D02*
D03*
X12500Y46750D02*
D03*
X12500Y46356D02*
D03*
X12000Y46356D02*
D03*
X12000Y46750D02*
D03*
X11500Y46750D02*
D03*
X11500Y46356D02*
D03*
X11000Y46356D02*
D03*
X11000Y46750D02*
D03*
X10500Y46750D02*
D03*
X10500Y46356D02*
D03*
X15819Y47750D02*
D03*
X15819Y47356D02*
D03*
X16319Y47356D02*
D03*
X16319Y47750D02*
D03*
X16819Y47750D02*
D03*
X16819Y47356D02*
D03*
X17319Y47356D02*
D03*
X17319Y47750D02*
D03*
X17819Y47750D02*
D03*
X17819Y47356D02*
D03*
X18319Y47356D02*
D03*
X18319Y47750D02*
D03*
X18819Y47750D02*
D03*
X18819Y47356D02*
D03*
X19319Y47356D02*
D03*
X19319Y47750D02*
D03*
X1300Y40947D02*
D03*
X1300Y40553D02*
D03*
X1700Y40947D02*
D03*
X1700Y40553D02*
D03*
X9450Y42750D02*
D03*
X9450Y42356D02*
D03*
X7900Y35600D02*
D03*
X7900Y35206D02*
D03*
X5776Y25500D02*
D03*
X5776Y25894D02*
D03*
X9078Y8900D02*
D03*
X9078Y8506D02*
D03*
X13800Y12744D02*
D03*
X13800Y12350D02*
D03*
X13400Y12744D02*
D03*
X13400Y12350D02*
D03*
X9700Y2300D02*
D03*
X9700Y2694D02*
D03*
X14250Y3356D02*
D03*
X14250Y3750D02*
D03*
X16250Y4306D02*
D03*
X16250Y4700D02*
D03*
X17000Y8053D02*
D03*
X17000Y8447D02*
D03*
X12853Y9247D02*
D03*
X12853Y8853D02*
D03*
X13497Y9247D02*
D03*
X13497Y8853D02*
D03*
X16350Y7750D02*
D03*
X16350Y8144D02*
D03*
X15850Y7750D02*
D03*
X15850Y8144D02*
D03*
X29276Y4450D02*
D03*
X29276Y4844D02*
D03*
X28776Y4450D02*
D03*
X28776Y4844D02*
D03*
X28776Y6000D02*
D03*
X28776Y5606D02*
D03*
X29276Y6000D02*
D03*
X29276Y5606D02*
D03*
X30276Y6000D02*
D03*
X30276Y5606D02*
D03*
X30776Y6000D02*
D03*
X30776Y5606D02*
D03*
X30776Y4450D02*
D03*
X30776Y4844D02*
D03*
X30276Y4450D02*
D03*
X30276Y4844D02*
D03*
X31776Y4450D02*
D03*
X31776Y4844D02*
D03*
X32276Y4450D02*
D03*
X32276Y4844D02*
D03*
X31776Y6000D02*
D03*
X31776Y5606D02*
D03*
X32276Y6000D02*
D03*
X32276Y5606D02*
D03*
X35500Y6750D02*
D03*
X35500Y6356D02*
D03*
X36000Y6750D02*
D03*
X36000Y6356D02*
D03*
X39057Y1356D02*
D03*
X39057Y1750D02*
D03*
X39057Y2544D02*
D03*
X39057Y2150D02*
D03*
X42250Y7250D02*
D03*
X42250Y6856D02*
D03*
X42750Y7250D02*
D03*
X42750Y6856D02*
D03*
X43250Y7250D02*
D03*
X43250Y6856D02*
D03*
X48268Y8051D02*
D03*
X48268Y7657D02*
D03*
X48661Y7657D02*
D03*
X48661Y8051D02*
D03*
X48071Y10610D02*
D03*
X48071Y10217D02*
D03*
X48465Y10217D02*
D03*
X48465Y10610D02*
D03*
X48858Y10217D02*
D03*
X48858Y10610D02*
D03*
X46058Y12100D02*
D03*
X46058Y12494D02*
D03*
X44500Y11250D02*
D03*
X44500Y11644D02*
D03*
X53500Y1803D02*
D03*
X53500Y2197D02*
D03*
X52250Y1803D02*
D03*
X52250Y2197D02*
D03*
X60250Y2856D02*
D03*
X60250Y3250D02*
D03*
X52750Y4000D02*
D03*
X52750Y3606D02*
D03*
X54488Y7520D02*
D03*
X54488Y7126D02*
D03*
X53976Y7913D02*
D03*
X53976Y7520D02*
D03*
X56732Y9429D02*
D03*
X56732Y9823D02*
D03*
X56142Y9429D02*
D03*
X56142Y9823D02*
D03*
X51417Y12185D02*
D03*
X51417Y11791D02*
D03*
X34935Y30356D02*
D03*
X34935Y30750D02*
D03*
X35447Y32089D02*
D03*
X35447Y32482D02*
D03*
X39750Y28894D02*
D03*
X39750Y28500D02*
D03*
X40250Y28894D02*
D03*
X40250Y28500D02*
D03*
X39000Y27106D02*
D03*
X39000Y27500D02*
D03*
X38500Y21000D02*
D03*
X38500Y20606D02*
D03*
X38500Y22000D02*
D03*
X38500Y21606D02*
D03*
X61721Y31173D02*
D03*
X61721Y30779D02*
D03*
X69500Y6052D02*
D03*
X69500Y5659D02*
D03*
X69503Y7000D02*
D03*
X69503Y7394D02*
D03*
X73011Y19407D02*
D03*
X73011Y19014D02*
D03*
X73011Y17620D02*
D03*
X73011Y18014D02*
D03*
X72011Y17817D02*
D03*
X72011Y18211D02*
D03*
X55356Y20238D02*
D03*
X55356Y20632D02*
D03*
X54600Y18856D02*
D03*
X54600Y19250D02*
D03*
D12*
X48661Y6870D02*
D03*
X48268Y6870D02*
D03*
X50433Y11988D02*
D03*
X50039Y11988D02*
D03*
X49370Y9429D02*
D03*
X48976Y9429D02*
D03*
X2697Y6000D02*
D03*
X2303Y6000D02*
D03*
X38597Y12500D02*
D03*
X38203Y12500D02*
D03*
X37900Y9500D02*
D03*
X37506Y9500D02*
D03*
X7097Y12352D02*
D03*
X6703Y12352D02*
D03*
X87150Y41700D02*
D03*
X86756Y41700D02*
D03*
X48661Y6083D02*
D03*
X48268Y6083D02*
D03*
X79263Y49400D02*
D03*
X79657Y49400D02*
D03*
X79263Y50400D02*
D03*
X79657Y50400D02*
D03*
X12800Y49400D02*
D03*
X13194Y49400D02*
D03*
X12800Y50400D02*
D03*
X13194Y50400D02*
D03*
X3106Y5500D02*
D03*
X2713Y5500D02*
D03*
X88263Y50400D02*
D03*
X88657Y50400D02*
D03*
X88263Y49400D02*
D03*
X88657Y49400D02*
D03*
X21800Y50400D02*
D03*
X22194Y50400D02*
D03*
X21800Y49400D02*
D03*
X22194Y49400D02*
D03*
X77644Y2052D02*
D03*
X77250Y2052D02*
D03*
X6406Y11093D02*
D03*
X6800Y11093D02*
D03*
X23882Y25350D02*
D03*
X24276Y25350D02*
D03*
X33500Y18750D02*
D03*
X33894Y18750D02*
D03*
X3250Y16500D02*
D03*
X3644Y16500D02*
D03*
X2750Y17250D02*
D03*
X2356Y17250D02*
D03*
X74000Y35250D02*
D03*
X73606Y35250D02*
D03*
X87150Y41250D02*
D03*
X86756Y41250D02*
D03*
X86661Y15736D02*
D03*
X86268Y15736D02*
D03*
X87449Y15322D02*
D03*
X87055Y15322D02*
D03*
X67500Y53000D02*
D03*
X67894Y53000D02*
D03*
X60644Y50500D02*
D03*
X60250Y50500D02*
D03*
X60644Y51000D02*
D03*
X60250Y51000D02*
D03*
X906Y41500D02*
D03*
X1300Y41500D02*
D03*
X2094Y41500D02*
D03*
X1700Y41500D02*
D03*
X6250Y39400D02*
D03*
X6644Y39400D02*
D03*
X5624Y37000D02*
D03*
X5230Y37000D02*
D03*
X4382Y26000D02*
D03*
X4776Y26000D02*
D03*
X4382Y25500D02*
D03*
X4776Y25500D02*
D03*
X1882Y25350D02*
D03*
X2276Y25350D02*
D03*
X1882Y22350D02*
D03*
X2276Y22350D02*
D03*
X9697Y14500D02*
D03*
X9303Y14500D02*
D03*
X9697Y14000D02*
D03*
X9303Y14000D02*
D03*
X13006Y13250D02*
D03*
X13400Y13250D02*
D03*
X14194Y13250D02*
D03*
X13800Y13250D02*
D03*
X3106Y4500D02*
D03*
X3500Y4500D02*
D03*
X3106Y5000D02*
D03*
X3500Y5000D02*
D03*
X15050Y1876D02*
D03*
X15444Y1876D02*
D03*
X12003Y3050D02*
D03*
X12397Y3050D02*
D03*
X12397Y2550D02*
D03*
X12003Y2550D02*
D03*
X12003Y2050D02*
D03*
X12397Y2050D02*
D03*
X13803Y4300D02*
D03*
X14197Y4300D02*
D03*
X13803Y4700D02*
D03*
X14197Y4700D02*
D03*
X14347Y5450D02*
D03*
X13953Y5450D02*
D03*
X14697Y6350D02*
D03*
X14303Y6350D02*
D03*
X17144Y9250D02*
D03*
X16750Y9250D02*
D03*
X15150Y7550D02*
D03*
X14756Y7550D02*
D03*
X33844Y6200D02*
D03*
X33450Y6200D02*
D03*
X35106Y5000D02*
D03*
X35500Y5000D02*
D03*
X35106Y5500D02*
D03*
X35500Y5500D02*
D03*
X35106Y6000D02*
D03*
X35500Y6000D02*
D03*
X35106Y7250D02*
D03*
X35500Y7250D02*
D03*
X36394Y7250D02*
D03*
X36000Y7250D02*
D03*
X29882Y8750D02*
D03*
X30276Y8750D02*
D03*
X30276Y9200D02*
D03*
X29882Y9200D02*
D03*
X33170Y9200D02*
D03*
X32776Y9200D02*
D03*
X38654Y2150D02*
D03*
X38260Y2150D02*
D03*
X38654Y1750D02*
D03*
X38260Y1750D02*
D03*
X36200Y9000D02*
D03*
X35806Y9000D02*
D03*
X35806Y9500D02*
D03*
X36200Y9500D02*
D03*
X36956Y11000D02*
D03*
X37350Y11000D02*
D03*
X36200Y10900D02*
D03*
X35806Y10900D02*
D03*
X27444Y12300D02*
D03*
X27050Y12300D02*
D03*
X27444Y13700D02*
D03*
X27050Y13700D02*
D03*
X23000Y12000D02*
D03*
X22606Y12000D02*
D03*
X23500Y12000D02*
D03*
X23894Y12000D02*
D03*
X33250Y15250D02*
D03*
X32856Y15250D02*
D03*
X32544Y11800D02*
D03*
X32150Y11800D02*
D03*
X32544Y13200D02*
D03*
X32150Y13200D02*
D03*
X30137Y12050D02*
D03*
X29744Y12050D02*
D03*
X30137Y13450D02*
D03*
X29744Y13450D02*
D03*
X35194Y13185D02*
D03*
X34800Y13185D02*
D03*
X35194Y11785D02*
D03*
X34800Y11785D02*
D03*
X35806Y11400D02*
D03*
X36200Y11400D02*
D03*
X37106Y12250D02*
D03*
X37500Y12250D02*
D03*
X37106Y11707D02*
D03*
X37500Y11707D02*
D03*
X44894Y7250D02*
D03*
X44500Y7250D02*
D03*
X44500Y6750D02*
D03*
X44894Y6750D02*
D03*
X48268Y6476D02*
D03*
X48661Y6476D02*
D03*
X43697Y13050D02*
D03*
X43303Y13050D02*
D03*
X43697Y13450D02*
D03*
X43303Y13450D02*
D03*
X43697Y13900D02*
D03*
X43303Y13900D02*
D03*
X43697Y14300D02*
D03*
X43303Y14300D02*
D03*
X43697Y14750D02*
D03*
X43303Y14750D02*
D03*
X43697Y15150D02*
D03*
X43303Y15150D02*
D03*
X43697Y15600D02*
D03*
X43303Y15600D02*
D03*
X43697Y16000D02*
D03*
X43303Y16000D02*
D03*
X51806Y2550D02*
D03*
X52200Y2550D02*
D03*
X50103Y2100D02*
D03*
X50497Y2100D02*
D03*
X57750Y950D02*
D03*
X58144Y950D02*
D03*
X59197Y2250D02*
D03*
X58803Y2250D02*
D03*
X59197Y2750D02*
D03*
X58803Y2750D02*
D03*
X59197Y3750D02*
D03*
X58803Y3750D02*
D03*
X52795Y7028D02*
D03*
X53189Y7028D02*
D03*
X53583Y6870D02*
D03*
X53976Y6870D02*
D03*
X55157Y8701D02*
D03*
X54764Y8701D02*
D03*
X55157Y9685D02*
D03*
X54764Y9685D02*
D03*
X55157Y9291D02*
D03*
X54764Y9291D02*
D03*
X39894Y27500D02*
D03*
X39500Y27500D02*
D03*
X36530Y33053D02*
D03*
X36923Y33053D02*
D03*
X36530Y32030D02*
D03*
X36923Y32030D02*
D03*
X42606Y25000D02*
D03*
X43000Y25000D02*
D03*
X42606Y25500D02*
D03*
X43000Y25500D02*
D03*
X43000Y26000D02*
D03*
X42606Y26000D02*
D03*
X40880Y26144D02*
D03*
X41274Y26144D02*
D03*
X40896Y26656D02*
D03*
X41289Y26656D02*
D03*
X70444Y5552D02*
D03*
X70050Y5552D02*
D03*
X70447Y7500D02*
D03*
X70053Y7500D02*
D03*
X68314Y19764D02*
D03*
X68708Y19764D02*
D03*
X68314Y20264D02*
D03*
X68708Y20264D02*
D03*
X68314Y20764D02*
D03*
X68708Y20764D02*
D03*
X68314Y21264D02*
D03*
X68708Y21264D02*
D03*
D13*
X48032Y25500D02*
D03*
X47638Y25500D02*
D03*
X35800Y10000D02*
D03*
X36194Y10000D02*
D03*
X35800Y10400D02*
D03*
X36194Y10400D02*
D03*
X34800Y12285D02*
D03*
X35194Y12285D02*
D03*
X34800Y12685D02*
D03*
X35194Y12685D02*
D03*
X32150Y12300D02*
D03*
X32544Y12300D02*
D03*
X32150Y12700D02*
D03*
X32544Y12700D02*
D03*
X29750Y12550D02*
D03*
X30144Y12550D02*
D03*
X29750Y12950D02*
D03*
X30144Y12950D02*
D03*
X27050Y12800D02*
D03*
X27444Y12800D02*
D03*
X27050Y13200D02*
D03*
X27444Y13200D02*
D03*
X75703Y33950D02*
D03*
X76097Y33950D02*
D03*
X39500Y27900D02*
D03*
X39894Y27900D02*
D03*
X36530Y32541D02*
D03*
X36923Y32541D02*
D03*
X38006Y31774D02*
D03*
X38400Y31774D02*
D03*
X38774Y31390D02*
D03*
X39167Y31390D02*
D03*
X38006Y31390D02*
D03*
X38400Y31390D02*
D03*
X41230Y25530D02*
D03*
X40837Y25530D02*
D03*
X14362Y5900D02*
D03*
X13969Y5900D02*
D03*
X5250Y8480D02*
D03*
X5644Y8480D02*
D03*
X1700Y40000D02*
D03*
X2094Y40000D02*
D03*
X1300Y40000D02*
D03*
X906Y40000D02*
D03*
X13800Y11950D02*
D03*
X14194Y11950D02*
D03*
X13400Y11950D02*
D03*
X13006Y11950D02*
D03*
X54038Y5565D02*
D03*
X54432Y5565D02*
D03*
D14*
X40821Y29982D02*
D03*
X40821Y29589D02*
D03*
X35959Y32089D02*
D03*
X35959Y32482D02*
D03*
X39541Y30356D02*
D03*
X39541Y30750D02*
D03*
X4250Y14730D02*
D03*
X4250Y15124D02*
D03*
X37757Y1750D02*
D03*
X37757Y1356D02*
D03*
X37757Y2150D02*
D03*
X37757Y2544D02*
D03*
X13250Y4250D02*
D03*
X13250Y3856D02*
D03*
X13250Y4750D02*
D03*
X13250Y5144D02*
D03*
D15*
X37500Y25810D02*
D03*
X37500Y24350D02*
D03*
X40821Y31081D02*
D03*
X40821Y32541D02*
D03*
D16*
X39580Y32700D02*
D03*
X38120Y32700D02*
D03*
D17*
X69750Y4500D02*
D03*
X70478Y4874D02*
D03*
X70478Y4126D02*
D03*
D18*
X89500Y2700D02*
D03*
X89500Y53000D02*
D03*
X7000Y2700D02*
D03*
X74274Y5241D02*
D03*
X74274Y2485D02*
D03*
D19*
X36469Y50150D02*
D03*
X36969Y50150D02*
D03*
X37469Y50150D02*
D03*
X37969Y50150D02*
D03*
X38469Y50150D02*
D03*
X38969Y50150D02*
D03*
X39469Y50150D02*
D03*
X39969Y50150D02*
D03*
X40469Y50150D02*
D03*
X40969Y50150D02*
D03*
X41469Y50150D02*
D03*
X41969Y50150D02*
D03*
X42469Y50150D02*
D03*
X42969Y50150D02*
D03*
X43469Y50150D02*
D03*
X43969Y50150D02*
D03*
X44469Y50150D02*
D03*
X44969Y50150D02*
D03*
X45469Y50150D02*
D03*
X45969Y50150D02*
D03*
X46469Y50150D02*
D03*
X46969Y50150D02*
D03*
X47469Y50150D02*
D03*
X47969Y50150D02*
D03*
X48469Y50150D02*
D03*
X48969Y50150D02*
D03*
X49469Y50150D02*
D03*
X49969Y50150D02*
D03*
X50469Y50150D02*
D03*
X50969Y50150D02*
D03*
X51469Y50150D02*
D03*
X51969Y50150D02*
D03*
X52469Y50150D02*
D03*
X52969Y50150D02*
D03*
X53469Y50150D02*
D03*
X53969Y50150D02*
D03*
X54469Y50150D02*
D03*
X54969Y50150D02*
D03*
X55469Y50150D02*
D03*
X55969Y50150D02*
D03*
X36469Y49650D02*
D03*
X36969Y49650D02*
D03*
X37469Y49650D02*
D03*
X37969Y49650D02*
D03*
X38469Y49650D02*
D03*
X38969Y49650D02*
D03*
X39469Y49650D02*
D03*
X39969Y49650D02*
D03*
X40469Y49650D02*
D03*
X40969Y49650D02*
D03*
X41469Y49650D02*
D03*
X41969Y49650D02*
D03*
X42469Y49650D02*
D03*
X42969Y49650D02*
D03*
X43469Y49650D02*
D03*
X43969Y49650D02*
D03*
X44469Y49650D02*
D03*
X44969Y49650D02*
D03*
X45469Y49650D02*
D03*
X45969Y49650D02*
D03*
X46469Y49650D02*
D03*
X46969Y49650D02*
D03*
X47469Y49650D02*
D03*
X47969Y49650D02*
D03*
X48469Y49650D02*
D03*
X48969Y49650D02*
D03*
X49469Y49650D02*
D03*
X49969Y49650D02*
D03*
X50469Y49650D02*
D03*
X50969Y49650D02*
D03*
X51469Y49650D02*
D03*
X51969Y49650D02*
D03*
X52469Y49650D02*
D03*
X52969Y49650D02*
D03*
X53469Y49650D02*
D03*
X53969Y49650D02*
D03*
X54469Y49650D02*
D03*
X54969Y49650D02*
D03*
X55469Y49650D02*
D03*
X55969Y49650D02*
D03*
X36469Y49150D02*
D03*
X36969Y49150D02*
D03*
X37469Y49150D02*
D03*
X37969Y49150D02*
D03*
X38469Y49150D02*
D03*
X38969Y49150D02*
D03*
X39469Y49150D02*
D03*
X39969Y49150D02*
D03*
X40469Y49150D02*
D03*
X40969Y49150D02*
D03*
X41469Y49150D02*
D03*
X41969Y49150D02*
D03*
X42469Y49150D02*
D03*
X42969Y49150D02*
D03*
X43469Y49150D02*
D03*
X43969Y49150D02*
D03*
X44469Y49150D02*
D03*
X44969Y49150D02*
D03*
X45469Y49150D02*
D03*
X45969Y49150D02*
D03*
X46469Y49150D02*
D03*
X46969Y49150D02*
D03*
X47469Y49150D02*
D03*
X47969Y49150D02*
D03*
X48469Y49150D02*
D03*
X48969Y49150D02*
D03*
X49469Y49150D02*
D03*
X49969Y49150D02*
D03*
X50469Y49150D02*
D03*
X50969Y49150D02*
D03*
X51469Y49150D02*
D03*
X51969Y49150D02*
D03*
X52469Y49150D02*
D03*
X52969Y49150D02*
D03*
X53469Y49150D02*
D03*
X53969Y49150D02*
D03*
X54469Y49150D02*
D03*
X54969Y49150D02*
D03*
X55469Y49150D02*
D03*
X55969Y49150D02*
D03*
X36469Y48650D02*
D03*
X36969Y48650D02*
D03*
X37469Y48650D02*
D03*
X37969Y48650D02*
D03*
X38469Y48650D02*
D03*
X38969Y48650D02*
D03*
X39469Y48650D02*
D03*
X39969Y48650D02*
D03*
X40469Y48650D02*
D03*
X40969Y48650D02*
D03*
X41469Y48650D02*
D03*
X41969Y48650D02*
D03*
X42469Y48650D02*
D03*
X42969Y48650D02*
D03*
X43469Y48650D02*
D03*
X43969Y48650D02*
D03*
X44469Y48650D02*
D03*
X44969Y48650D02*
D03*
X45469Y48650D02*
D03*
X45969Y48650D02*
D03*
X46469Y48650D02*
D03*
X46969Y48650D02*
D03*
X47469Y48650D02*
D03*
X47969Y48650D02*
D03*
X48469Y48650D02*
D03*
X48969Y48650D02*
D03*
X49469Y48650D02*
D03*
X49969Y48650D02*
D03*
X50469Y48650D02*
D03*
X50969Y48650D02*
D03*
X51469Y48650D02*
D03*
X51969Y48650D02*
D03*
X52469Y48650D02*
D03*
X52969Y48650D02*
D03*
X53469Y48650D02*
D03*
X53969Y48650D02*
D03*
X54469Y48650D02*
D03*
X54969Y48650D02*
D03*
X55469Y48650D02*
D03*
X55969Y48650D02*
D03*
X55969Y47150D02*
D03*
X36469Y48150D02*
D03*
X36969Y48150D02*
D03*
X37469Y48150D02*
D03*
X37969Y48150D02*
D03*
X38469Y48150D02*
D03*
X38969Y48150D02*
D03*
X39469Y48150D02*
D03*
X39969Y48150D02*
D03*
X40469Y48150D02*
D03*
X40969Y48150D02*
D03*
X41469Y48150D02*
D03*
X41969Y48150D02*
D03*
X42469Y48150D02*
D03*
X42969Y48150D02*
D03*
X43469Y48150D02*
D03*
X43969Y48150D02*
D03*
X44469Y48150D02*
D03*
X44969Y48150D02*
D03*
X45469Y48150D02*
D03*
X45969Y48150D02*
D03*
X46469Y48150D02*
D03*
X46969Y48150D02*
D03*
X47469Y48150D02*
D03*
X47969Y48150D02*
D03*
X48469Y48150D02*
D03*
X48969Y48150D02*
D03*
X49469Y48150D02*
D03*
X49969Y48150D02*
D03*
X50469Y48150D02*
D03*
X50969Y48150D02*
D03*
X51469Y48150D02*
D03*
X51969Y48150D02*
D03*
X52469Y48150D02*
D03*
X52969Y48150D02*
D03*
X53469Y48150D02*
D03*
X53969Y48150D02*
D03*
X54469Y48150D02*
D03*
X54969Y48150D02*
D03*
X55469Y48150D02*
D03*
X55969Y48150D02*
D03*
X36469Y47650D02*
D03*
X36969Y47650D02*
D03*
X37469Y47650D02*
D03*
X37969Y47650D02*
D03*
X38469Y47650D02*
D03*
X38969Y47650D02*
D03*
X39469Y47650D02*
D03*
X39969Y47650D02*
D03*
X40469Y47650D02*
D03*
X40969Y47650D02*
D03*
X41469Y47650D02*
D03*
X41969Y47650D02*
D03*
X42469Y47650D02*
D03*
X42969Y47650D02*
D03*
X43469Y47650D02*
D03*
X43969Y47650D02*
D03*
X44469Y47650D02*
D03*
X44969Y47650D02*
D03*
X45469Y47650D02*
D03*
X45969Y47650D02*
D03*
X46469Y47650D02*
D03*
X46969Y47650D02*
D03*
X47469Y47650D02*
D03*
X47969Y47650D02*
D03*
X48469Y47650D02*
D03*
X48969Y47650D02*
D03*
X49469Y47650D02*
D03*
X49969Y47650D02*
D03*
X50469Y47650D02*
D03*
X50969Y47650D02*
D03*
X51469Y47650D02*
D03*
X51969Y47650D02*
D03*
X52469Y47650D02*
D03*
X52969Y47650D02*
D03*
X53469Y47650D02*
D03*
X53969Y47650D02*
D03*
X54469Y47650D02*
D03*
X54969Y47650D02*
D03*
X55469Y47650D02*
D03*
X55969Y47650D02*
D03*
X36469Y47150D02*
D03*
X36969Y47150D02*
D03*
X37469Y47150D02*
D03*
X37969Y47150D02*
D03*
X38469Y47150D02*
D03*
X38969Y47150D02*
D03*
X39469Y47150D02*
D03*
X39969Y47150D02*
D03*
X40469Y47150D02*
D03*
X40969Y47150D02*
D03*
X41469Y47150D02*
D03*
X41969Y47150D02*
D03*
X42469Y47150D02*
D03*
X42969Y47150D02*
D03*
X43469Y47150D02*
D03*
X43969Y47150D02*
D03*
X44469Y47150D02*
D03*
X44969Y47150D02*
D03*
X45469Y47150D02*
D03*
X45969Y47150D02*
D03*
X46469Y47150D02*
D03*
X46969Y47150D02*
D03*
X47469Y47150D02*
D03*
X47969Y47150D02*
D03*
X48469Y47150D02*
D03*
X48969Y47150D02*
D03*
X49469Y47150D02*
D03*
X49969Y47150D02*
D03*
X50469Y47150D02*
D03*
X50969Y47150D02*
D03*
X51469Y47150D02*
D03*
X51969Y47150D02*
D03*
X52469Y47150D02*
D03*
X52969Y47150D02*
D03*
X53469Y47150D02*
D03*
X53969Y47150D02*
D03*
X54469Y47150D02*
D03*
X54969Y47150D02*
D03*
X55469Y47150D02*
D03*
X36469Y46650D02*
D03*
X36969Y46650D02*
D03*
X37469Y46650D02*
D03*
X37969Y46650D02*
D03*
X38469Y46650D02*
D03*
X38969Y46650D02*
D03*
X39469Y46650D02*
D03*
X39969Y46650D02*
D03*
X40469Y46650D02*
D03*
X40969Y46650D02*
D03*
X41469Y46650D02*
D03*
X41969Y46650D02*
D03*
X42469Y46650D02*
D03*
X42969Y46650D02*
D03*
X43469Y46650D02*
D03*
X43969Y46650D02*
D03*
X44469Y46650D02*
D03*
X44969Y46650D02*
D03*
X45469Y46650D02*
D03*
X45969Y46650D02*
D03*
X46469Y46650D02*
D03*
X46969Y46650D02*
D03*
X47469Y46650D02*
D03*
X47969Y46650D02*
D03*
X48469Y46650D02*
D03*
X48969Y46650D02*
D03*
X49469Y46650D02*
D03*
X49969Y46650D02*
D03*
X50469Y46650D02*
D03*
X50969Y46650D02*
D03*
X51469Y46650D02*
D03*
X51969Y46650D02*
D03*
X52469Y46650D02*
D03*
X52969Y46650D02*
D03*
X53469Y46650D02*
D03*
X53969Y46650D02*
D03*
X54469Y46650D02*
D03*
X54969Y46650D02*
D03*
X55469Y46650D02*
D03*
X55969Y46650D02*
D03*
X36469Y46150D02*
D03*
X36969Y46150D02*
D03*
X37469Y46150D02*
D03*
X37969Y46150D02*
D03*
X38469Y46150D02*
D03*
X38969Y46150D02*
D03*
X39469Y46150D02*
D03*
X39969Y46150D02*
D03*
X40469Y46150D02*
D03*
X40969Y46150D02*
D03*
X41469Y46150D02*
D03*
X41969Y46150D02*
D03*
X42469Y46150D02*
D03*
X42969Y46150D02*
D03*
X43469Y46150D02*
D03*
X43969Y46150D02*
D03*
X44469Y46150D02*
D03*
X44969Y46150D02*
D03*
X45469Y46150D02*
D03*
X45969Y46150D02*
D03*
X46469Y46150D02*
D03*
X46969Y46150D02*
D03*
X47469Y46150D02*
D03*
X47969Y46150D02*
D03*
X48469Y46150D02*
D03*
X48969Y46150D02*
D03*
X49469Y46150D02*
D03*
X49969Y46150D02*
D03*
X50469Y46150D02*
D03*
X50969Y46150D02*
D03*
X51469Y46150D02*
D03*
X51969Y46150D02*
D03*
X52469Y46150D02*
D03*
X52969Y46150D02*
D03*
X53469Y46150D02*
D03*
X53969Y46150D02*
D03*
X54469Y46150D02*
D03*
X54969Y46150D02*
D03*
X55469Y46150D02*
D03*
X55969Y46150D02*
D03*
X55969Y45650D02*
D03*
X36469Y45650D02*
D03*
X36969Y45650D02*
D03*
X37469Y45650D02*
D03*
X37969Y45650D02*
D03*
X38469Y45650D02*
D03*
X38969Y45650D02*
D03*
X39469Y45650D02*
D03*
X39969Y45650D02*
D03*
X40469Y45650D02*
D03*
X40969Y45650D02*
D03*
X41469Y45650D02*
D03*
X41969Y45650D02*
D03*
X42469Y45650D02*
D03*
X42969Y45650D02*
D03*
X43469Y45650D02*
D03*
X43969Y45650D02*
D03*
X44469Y45650D02*
D03*
X44969Y45650D02*
D03*
X45469Y45650D02*
D03*
X45969Y45650D02*
D03*
X46469Y45650D02*
D03*
X46969Y45650D02*
D03*
X47469Y45650D02*
D03*
X47969Y45650D02*
D03*
X48469Y45650D02*
D03*
X48969Y45650D02*
D03*
X49469Y45650D02*
D03*
X49969Y45650D02*
D03*
X50469Y45650D02*
D03*
X50969Y45650D02*
D03*
X51469Y45650D02*
D03*
X51969Y45650D02*
D03*
X52469Y45650D02*
D03*
X52969Y45650D02*
D03*
X53469Y45650D02*
D03*
X53969Y45650D02*
D03*
X54469Y45650D02*
D03*
X54969Y45650D02*
D03*
X55469Y45650D02*
D03*
D20*
X50374Y7913D02*
D03*
X50374Y8110D02*
D03*
X50374Y7717D02*
D03*
X50374Y8307D02*
D03*
X50374Y8504D02*
D03*
X50374Y8701D02*
D03*
X50374Y8898D02*
D03*
X50374Y9094D02*
D03*
X50374Y9291D02*
D03*
X50374Y9488D02*
D03*
X50374Y9685D02*
D03*
X50374Y9882D02*
D03*
X50374Y10079D02*
D03*
X50374Y10276D02*
D03*
X53445Y10276D02*
D03*
X53445Y10079D02*
D03*
X53445Y9882D02*
D03*
X53445Y9685D02*
D03*
X53445Y9488D02*
D03*
X53445Y9291D02*
D03*
X53445Y9094D02*
D03*
X53445Y8898D02*
D03*
X53445Y8701D02*
D03*
X53445Y8504D02*
D03*
X53445Y8307D02*
D03*
X53445Y8110D02*
D03*
X53445Y7913D02*
D03*
X53445Y7717D02*
D03*
D21*
X52205Y7461D02*
D03*
X52008Y7461D02*
D03*
X51811Y7461D02*
D03*
X51614Y7461D02*
D03*
X52402Y7461D02*
D03*
X52598Y7461D02*
D03*
X50630Y10532D02*
D03*
X50827Y10532D02*
D03*
X51024Y10532D02*
D03*
X51220Y10532D02*
D03*
X51417Y10532D02*
D03*
X51614Y10532D02*
D03*
X51811Y10532D02*
D03*
X52008Y10532D02*
D03*
X52205Y10532D02*
D03*
X52402Y10532D02*
D03*
X52598Y10532D02*
D03*
X52795Y10532D02*
D03*
X52992Y10532D02*
D03*
X53189Y10532D02*
D03*
X53189Y7461D02*
D03*
X52992Y7461D02*
D03*
X52795Y7461D02*
D03*
X51417Y7461D02*
D03*
X51220Y7461D02*
D03*
X51024Y7461D02*
D03*
X50827Y7461D02*
D03*
X50630Y7461D02*
D03*
D22*
X51909Y8996D02*
D03*
D23*
X45763Y3750D02*
D03*
X45959Y3750D02*
D03*
X45566Y3750D02*
D03*
X46156Y3750D02*
D03*
X46550Y3750D02*
D03*
X46353Y3750D02*
D03*
X46747Y3750D02*
D03*
X46944Y3750D02*
D03*
X47141Y3750D02*
D03*
X47337Y3750D02*
D03*
X47534Y3750D02*
D03*
X47731Y3750D02*
D03*
D24*
X19000Y5881D02*
D03*
X19000Y6550D02*
D03*
X69200Y52500D02*
D03*
X69200Y53169D02*
D03*
X65761Y17098D02*
D03*
X65761Y16429D02*
D03*
X71261Y11348D02*
D03*
X71261Y10679D02*
D03*
X68261Y11348D02*
D03*
X68261Y10679D02*
D03*
X82150Y11335D02*
D03*
X82150Y10665D02*
D03*
X85150Y11335D02*
D03*
X85150Y10665D02*
D03*
X69811Y19933D02*
D03*
X69811Y19264D02*
D03*
X72011Y14933D02*
D03*
X72011Y14264D02*
D03*
X72011Y16483D02*
D03*
X72011Y15814D02*
D03*
D25*
X12421Y40256D02*
D03*
X12421Y38484D02*
D03*
X8839Y38484D02*
D03*
X8839Y40256D02*
D03*
X85256Y40256D02*
D03*
X85256Y38484D02*
D03*
X81673Y38484D02*
D03*
X81673Y40256D02*
D03*
X89193Y32382D02*
D03*
X89193Y30610D02*
D03*
X85610Y30610D02*
D03*
X85610Y32382D02*
D03*
X89193Y24508D02*
D03*
X89193Y22736D02*
D03*
X85610Y22736D02*
D03*
X85610Y24508D02*
D03*
X8291Y5886D02*
D03*
X8291Y4114D02*
D03*
X4709Y4114D02*
D03*
X4709Y5886D02*
D03*
X93130Y28445D02*
D03*
X93130Y26673D02*
D03*
X89547Y26673D02*
D03*
X89547Y28445D02*
D03*
X85256Y28445D02*
D03*
X85256Y26673D02*
D03*
X81673Y26673D02*
D03*
X81673Y28445D02*
D03*
D26*
X1089Y36673D02*
D03*
X1089Y38327D02*
D03*
X93061Y38327D02*
D03*
X93061Y36673D02*
D03*
D27*
X199Y38829D02*
D03*
X199Y36171D02*
D03*
X93951Y36171D02*
D03*
X93951Y38829D02*
D03*
D28*
X45128Y25750D02*
D03*
X46250Y25750D02*
D03*
X10777Y800D02*
D03*
X11899Y800D02*
D03*
X37400Y23350D02*
D03*
X38522Y23350D02*
D03*
D29*
X27539Y46325D02*
D03*
X28287Y46325D02*
D03*
X88394Y16110D02*
D03*
X87646Y16110D02*
D03*
X1750Y4500D02*
D03*
X1002Y4500D02*
D03*
X1750Y5500D02*
D03*
X1002Y5500D02*
D03*
D30*
X46500Y28102D02*
D03*
X46500Y27000D02*
D03*
D31*
X75124Y36195D02*
D03*
X74750Y35250D02*
D03*
D32*
X74376Y36195D02*
D03*
D33*
X74409Y33224D02*
D03*
X74606Y33224D02*
D03*
X74803Y33224D02*
D03*
X75000Y33224D02*
D03*
X75197Y33224D02*
D03*
X75394Y33224D02*
D03*
X75591Y33224D02*
D03*
X75787Y33224D02*
D03*
X75984Y33224D02*
D03*
X76181Y33224D02*
D03*
D34*
X73711Y32732D02*
D03*
X76880Y32732D02*
D03*
D35*
X71031Y52874D02*
D03*
X71031Y52126D02*
D03*
X70000Y52126D02*
D03*
X70000Y52500D02*
D03*
X70000Y52874D02*
D03*
D36*
X89081Y48750D02*
D03*
X89750Y48750D02*
D03*
X5235Y38000D02*
D03*
X4565Y38000D02*
D03*
X5545Y40450D02*
D03*
X4876Y40450D02*
D03*
X14515Y8000D02*
D03*
X15185Y8000D02*
D03*
X37900Y8950D02*
D03*
X37231Y8950D02*
D03*
X38735Y12950D02*
D03*
X38065Y12950D02*
D03*
X49213Y11398D02*
D03*
X49882Y11398D02*
D03*
X54902Y10807D02*
D03*
X54232Y10807D02*
D03*
X40000Y25750D02*
D03*
X39331Y25750D02*
D03*
X65592Y18764D02*
D03*
X66261Y18764D02*
D03*
X66214Y14514D02*
D03*
X66883Y14514D02*
D03*
D37*
X92124Y48244D02*
D03*
X92124Y48500D02*
D03*
X92124Y48756D02*
D03*
X91376Y48756D02*
D03*
X91376Y48500D02*
D03*
X91376Y48244D02*
D03*
X9976Y42494D02*
D03*
X9976Y42750D02*
D03*
X9976Y43006D02*
D03*
X10724Y43006D02*
D03*
X10724Y42750D02*
D03*
X10724Y42494D02*
D03*
D38*
X1635Y49690D02*
D03*
X1635Y49100D02*
D03*
X1635Y50870D02*
D03*
D39*
X1335Y51425D02*
D03*
X565Y51425D02*
D03*
X1335Y48555D02*
D03*
X565Y48555D02*
D03*
D40*
X8024Y46581D02*
D03*
X8024Y45597D02*
D03*
X8024Y44809D02*
D03*
X8024Y43825D02*
D03*
X86126Y46581D02*
D03*
X86126Y45597D02*
D03*
X86126Y44809D02*
D03*
X86126Y43825D02*
D03*
D41*
X5750Y35197D02*
D03*
X5750Y35000D02*
D03*
X5750Y34803D02*
D03*
X5750Y34606D02*
D03*
X5750Y34409D02*
D03*
X7344Y35197D02*
D03*
X7344Y35000D02*
D03*
X7344Y34803D02*
D03*
X7344Y34606D02*
D03*
X7344Y34409D02*
D03*
D42*
X4876Y39766D02*
D03*
X5624Y39766D02*
D03*
X5624Y38734D02*
D03*
X5250Y38734D02*
D03*
X4876Y38734D02*
D03*
D43*
X4250Y9610D02*
D03*
X4250Y13350D02*
D03*
D44*
X7916Y10148D02*
D03*
X7916Y10463D02*
D03*
X7916Y10778D02*
D03*
X7916Y11093D02*
D03*
X7916Y11407D02*
D03*
X7916Y11722D02*
D03*
X7916Y12037D02*
D03*
X7916Y12352D02*
D03*
X11184Y12352D02*
D03*
X11184Y12037D02*
D03*
X11184Y11722D02*
D03*
X11184Y11407D02*
D03*
X11184Y11093D02*
D03*
X11184Y10778D02*
D03*
X11184Y10463D02*
D03*
X11184Y10148D02*
D03*
D45*
X8448Y12884D02*
D03*
X8763Y12884D02*
D03*
X9078Y12884D02*
D03*
X9393Y12884D02*
D03*
X9707Y12884D02*
D03*
X10022Y12884D02*
D03*
X10337Y12884D02*
D03*
X10652Y12884D02*
D03*
X10652Y9616D02*
D03*
X10337Y9616D02*
D03*
X10022Y9616D02*
D03*
X9707Y9616D02*
D03*
X9393Y9616D02*
D03*
X9078Y9616D02*
D03*
X8763Y9616D02*
D03*
X8448Y9616D02*
D03*
D46*
X8950Y2822D02*
D03*
X8950Y1700D02*
D03*
D47*
X11354Y1700D02*
D03*
X11354Y1956D02*
D03*
X11354Y2212D02*
D03*
X11354Y2468D02*
D03*
X10200Y1700D02*
D03*
X10200Y1956D02*
D03*
X10200Y2212D02*
D03*
X10200Y2468D02*
D03*
D48*
X10777Y2084D02*
D03*
D49*
X13300Y2250D02*
D03*
X14245Y1876D02*
D03*
D50*
X14245Y2624D02*
D03*
D51*
X14644Y6950D02*
D03*
X13856Y6950D02*
D03*
D52*
X16213Y6742D02*
D03*
X16213Y6545D02*
D03*
X16213Y6348D02*
D03*
X16213Y6152D02*
D03*
X16213Y5955D02*
D03*
X16213Y5758D02*
D03*
X17787Y5758D02*
D03*
X17787Y5955D02*
D03*
X17787Y6152D02*
D03*
X17787Y6348D02*
D03*
X17787Y6545D02*
D03*
X17787Y6742D02*
D03*
D53*
X16508Y5463D02*
D03*
X16705Y5463D02*
D03*
X16902Y5463D02*
D03*
X17098Y5463D02*
D03*
X17295Y5463D02*
D03*
X17492Y5463D02*
D03*
X17492Y7037D02*
D03*
X17295Y7037D02*
D03*
X17098Y7037D02*
D03*
X16902Y7037D02*
D03*
X16705Y7037D02*
D03*
X16508Y7037D02*
D03*
D54*
X17000Y6250D02*
D03*
D55*
X14258Y9683D02*
D03*
X14258Y8817D02*
D03*
X15242Y8817D02*
D03*
X15242Y9683D02*
D03*
D56*
X38352Y8314D02*
D03*
X38714Y7952D02*
D03*
X39048Y8286D02*
D03*
X38686Y8648D02*
D03*
D57*
X38694Y11707D02*
D03*
X38497Y11707D02*
D03*
X38300Y11707D02*
D03*
X38103Y11707D02*
D03*
X37906Y11707D02*
D03*
X38694Y10093D02*
D03*
X38497Y10093D02*
D03*
X38300Y10093D02*
D03*
X38103Y10093D02*
D03*
X37906Y10093D02*
D03*
D58*
X46200Y8138D02*
D03*
X46200Y7862D02*
D03*
X46500Y8138D02*
D03*
X46500Y7862D02*
D03*
D59*
X46256Y6422D02*
D03*
X46453Y6422D02*
D03*
X46847Y6422D02*
D03*
X47044Y6422D02*
D03*
X47044Y6078D02*
D03*
X46847Y6078D02*
D03*
X46453Y6078D02*
D03*
X46256Y6078D02*
D03*
D60*
X46650Y6422D02*
D03*
X46650Y6078D02*
D03*
D61*
X45664Y11300D02*
D03*
X45861Y11300D02*
D03*
X46255Y10000D02*
D03*
X46452Y10000D02*
D03*
X46058Y11300D02*
D03*
X46255Y11300D02*
D03*
X46452Y11300D02*
D03*
X46648Y11300D02*
D03*
X46845Y11300D02*
D03*
X47042Y11300D02*
D03*
X47239Y11300D02*
D03*
X47436Y11300D02*
D03*
X47436Y10000D02*
D03*
X47239Y10000D02*
D03*
X47042Y10000D02*
D03*
X46845Y10000D02*
D03*
X46648Y10000D02*
D03*
X46058Y10000D02*
D03*
X45861Y10000D02*
D03*
X45664Y10000D02*
D03*
D62*
X46550Y10650D02*
D03*
D63*
X45507Y10355D02*
D03*
X45507Y10552D02*
D03*
X45507Y10748D02*
D03*
X45507Y10945D02*
D03*
X47593Y10945D02*
D03*
X47593Y10748D02*
D03*
X47593Y10552D02*
D03*
X47593Y10355D02*
D03*
D64*
X49500Y1217D02*
D03*
X49500Y783D02*
D03*
X51000Y783D02*
D03*
X51000Y1217D02*
D03*
X52250Y783D02*
D03*
X52250Y1217D02*
D03*
X53500Y783D02*
D03*
X53500Y1217D02*
D03*
D65*
X57750Y3750D02*
D03*
X57250Y3750D02*
D03*
X56750Y3750D02*
D03*
X56250Y3750D02*
D03*
X57750Y1604D02*
D03*
X57250Y1604D02*
D03*
X56750Y1604D02*
D03*
X56250Y1604D02*
D03*
D66*
X52750Y5250D02*
D03*
D67*
X52199Y4935D02*
D03*
X52199Y5093D02*
D03*
X52199Y5250D02*
D03*
X52199Y5407D02*
D03*
X52199Y5565D02*
D03*
X53301Y5565D02*
D03*
X53301Y5407D02*
D03*
X53301Y5250D02*
D03*
X53301Y5093D02*
D03*
X53301Y4935D02*
D03*
D68*
X52435Y5801D02*
D03*
X52593Y5801D02*
D03*
X52750Y5801D02*
D03*
X52907Y5801D02*
D03*
X53065Y5801D02*
D03*
X53065Y4699D02*
D03*
X52907Y4699D02*
D03*
X52750Y4699D02*
D03*
X52593Y4699D02*
D03*
X52435Y4699D02*
D03*
D69*
X55354Y7657D02*
D03*
X55354Y6909D02*
D03*
X56260Y7657D02*
D03*
X56260Y6909D02*
D03*
X34700Y28974D02*
D03*
X34700Y28226D02*
D03*
X35500Y28974D02*
D03*
X35500Y28226D02*
D03*
X71261Y20388D02*
D03*
X71261Y19640D02*
D03*
X72261Y19640D02*
D03*
X72261Y20388D02*
D03*
X49778Y21537D02*
D03*
X49778Y20789D02*
D03*
X56278Y19884D02*
D03*
X56278Y20632D02*
D03*
D70*
X54921Y11791D02*
D03*
X53819Y11791D02*
D03*
X54921Y13169D02*
D03*
X53819Y13169D02*
D03*
D71*
X37622Y29628D02*
D03*
D72*
X36215Y28506D02*
D03*
X36470Y28506D02*
D03*
X36726Y28506D02*
D03*
X36982Y28506D02*
D03*
X37238Y28506D02*
D03*
X37494Y28506D02*
D03*
X37750Y28506D02*
D03*
X38006Y28506D02*
D03*
X38262Y28506D02*
D03*
X38518Y28506D02*
D03*
X38774Y28506D02*
D03*
X39030Y28506D02*
D03*
X36215Y30750D02*
D03*
X36470Y30750D02*
D03*
X36726Y30750D02*
D03*
X36982Y30750D02*
D03*
X37238Y30750D02*
D03*
X37494Y30750D02*
D03*
X37750Y30750D02*
D03*
X38006Y30750D02*
D03*
X38262Y30750D02*
D03*
X38518Y30750D02*
D03*
X38774Y30750D02*
D03*
X39030Y30750D02*
D03*
D73*
X35700Y24361D02*
D03*
X35700Y25739D02*
D03*
D74*
X40945Y24406D02*
D03*
X41142Y24406D02*
D03*
X41339Y24406D02*
D03*
X41535Y24406D02*
D03*
X41732Y24406D02*
D03*
X41929Y24406D02*
D03*
X42126Y24406D02*
D03*
X42323Y24406D02*
D03*
X42520Y24406D02*
D03*
X42717Y24406D02*
D03*
X42913Y24406D02*
D03*
X43110Y24406D02*
D03*
X43307Y24406D02*
D03*
X43898Y24406D02*
D03*
X44094Y24406D02*
D03*
X44291Y24406D02*
D03*
X44488Y24406D02*
D03*
X45079Y24406D02*
D03*
X45276Y24406D02*
D03*
X45472Y24406D02*
D03*
X45669Y24406D02*
D03*
X45866Y24406D02*
D03*
X46063Y24406D02*
D03*
X46260Y24406D02*
D03*
X46457Y24406D02*
D03*
X46654Y24406D02*
D03*
X46850Y24406D02*
D03*
X47047Y24406D02*
D03*
X47244Y24406D02*
D03*
X47441Y24406D02*
D03*
X47638Y24406D02*
D03*
X47835Y24406D02*
D03*
X48032Y24406D02*
D03*
X48228Y24406D02*
D03*
X48425Y24406D02*
D03*
X48622Y24406D02*
D03*
X44882Y24406D02*
D03*
X44685Y24406D02*
D03*
X43701Y24406D02*
D03*
X43504Y24406D02*
D03*
D75*
X40118Y23343D02*
D03*
X49449Y23343D02*
D03*
D76*
X68950Y16750D02*
D03*
D77*
X71214Y15264D02*
D03*
X71017Y15264D02*
D03*
X70820Y15264D02*
D03*
X70623Y15264D02*
D03*
X70426Y15264D02*
D03*
X70230Y15264D02*
D03*
X70033Y15264D02*
D03*
X69836Y15264D02*
D03*
X69639Y15264D02*
D03*
X69442Y15264D02*
D03*
X69245Y15264D02*
D03*
X69048Y15264D02*
D03*
X68852Y15264D02*
D03*
X68655Y15264D02*
D03*
X68458Y15264D02*
D03*
X68261Y15264D02*
D03*
X68064Y15264D02*
D03*
X67867Y15264D02*
D03*
X67670Y15264D02*
D03*
X67474Y15264D02*
D03*
X67277Y15264D02*
D03*
X67080Y15264D02*
D03*
X66883Y15264D02*
D03*
X66686Y15264D02*
D03*
X66686Y18236D02*
D03*
X66883Y18236D02*
D03*
X67080Y18236D02*
D03*
X67277Y18236D02*
D03*
X67474Y18236D02*
D03*
X67670Y18236D02*
D03*
X67867Y18236D02*
D03*
X68064Y18236D02*
D03*
X68261Y18236D02*
D03*
X68458Y18236D02*
D03*
X68655Y18236D02*
D03*
X68852Y18236D02*
D03*
X69048Y18236D02*
D03*
X69245Y18236D02*
D03*
X69442Y18236D02*
D03*
X69639Y18236D02*
D03*
X69836Y18236D02*
D03*
X70033Y18236D02*
D03*
X70230Y18236D02*
D03*
X70426Y18236D02*
D03*
X70623Y18236D02*
D03*
X70820Y18236D02*
D03*
X71017Y18236D02*
D03*
X71214Y18236D02*
D03*
D78*
X68384Y12691D02*
D03*
X67911Y13164D02*
D03*
D79*
X66661Y12136D02*
D03*
X66661Y9892D02*
D03*
X74261Y14464D02*
D03*
X74261Y16708D02*
D03*
D80*
X69261Y10620D02*
D03*
X69261Y11407D02*
D03*
X70261Y10620D02*
D03*
X70261Y11407D02*
D03*
X84150Y10606D02*
D03*
X84150Y11394D02*
D03*
X83150Y10606D02*
D03*
X83150Y11394D02*
D03*
D81*
X72817Y1698D02*
D03*
X72817Y2800D02*
D03*
D82*
X73978Y7367D02*
D03*
X75750Y5753D02*
D03*
D83*
X75750Y2052D02*
D03*
X75750Y950D02*
D03*
D84*
X51037Y21537D02*
D03*
X52612Y21537D02*
D03*
D85*
X54659Y21537D02*
D03*
X53872Y21537D02*
D03*
D86*
X53656Y20632D02*
D03*
X53656Y20258D02*
D03*
X53656Y19884D02*
D03*
X54600Y19884D02*
D03*
X54600Y20632D02*
D03*
D87*
X14362Y5900D02*
X14912Y5900D01*
X57750Y600D02*
X57750Y1747D01*
X57747Y1750D02*
X57750Y1747D01*
X13194Y49400D02*
X13750Y49400D01*
X13194Y50400D02*
X13750Y50400D01*
X22194Y49400D02*
X22750Y49400D01*
X22194Y50400D02*
X22750Y50400D01*
X88657Y49400D02*
X89213Y49400D01*
X88657Y50400D02*
X89213Y50400D01*
X79657Y50400D02*
X80213Y50400D01*
X79657Y49400D02*
X80213Y49400D01*
X39541Y30750D02*
X39797Y30750D01*
X39030Y30750D02*
X39541Y30750D01*
X36530Y31970D02*
X36530Y33053D01*
X90850Y48500D02*
X91376Y48500D01*
X90500Y48500D02*
X90850Y48500D01*
X9078Y9150D02*
X9078Y9616D01*
X9078Y8900D02*
X9078Y9150D01*
X69200Y52500D02*
X70000Y52500D01*
X68766Y52500D02*
X69200Y52500D01*
X5250Y37500D02*
X5250Y38734D01*
X41219Y45900D02*
X41469Y46150D01*
X52219Y45400D02*
X52469Y45650D01*
X51719Y45400D02*
X51969Y45650D01*
X52219Y46400D02*
X52469Y46650D01*
X50719Y45900D02*
X50969Y46150D01*
X49219Y45900D02*
X49469Y46150D01*
X48219Y46400D02*
X48469Y46650D01*
X47719Y46400D02*
X47969Y46650D01*
X42750Y6500D02*
X42750Y6856D01*
X43250Y6500D02*
X43250Y6856D01*
X43750Y6500D02*
X43750Y6856D01*
X48858Y10610D02*
X48858Y11004D01*
X49055Y7264D02*
X49055Y7657D01*
X47874Y6870D02*
X48268Y6870D01*
X49646Y11988D02*
X50039Y11988D01*
X48701Y9429D02*
X48976Y9429D01*
X48819Y11398D02*
X49213Y11398D01*
X47874Y6083D02*
X48268Y6083D01*
X54488Y6772D02*
X54488Y7126D01*
X53976Y6516D02*
X53976Y6870D01*
X48268Y7264D02*
X48268Y7657D01*
X48465Y10610D02*
X48465Y11004D01*
X55157Y9685D02*
X55551Y9685D01*
X48071Y10610D02*
X48071Y11004D01*
X47874Y6476D02*
X48268Y6476D01*
X55157Y8701D02*
X55551Y8701D01*
X55157Y9291D02*
X55551Y9291D01*
X51417Y12185D02*
X51417Y12579D01*
X48661Y7264D02*
X48661Y7657D01*
X46058Y12494D02*
X46058Y12842D01*
X56250Y3750D02*
X56250Y4500D01*
X70478Y4126D02*
X71250Y4126D01*
X59197Y2250D02*
X59553Y2250D01*
X59197Y2750D02*
X59553Y2750D01*
X60250Y2500D02*
X60250Y2856D01*
X59197Y3750D02*
X59553Y3750D01*
X58144Y950D02*
X58500Y950D01*
X11819Y50400D02*
X12800Y50400D01*
X11819Y49400D02*
X12800Y49400D01*
X20819Y49400D02*
X21800Y49400D01*
X20819Y50400D02*
X21800Y50400D01*
X78282Y49400D02*
X79263Y49400D01*
X78282Y50400D02*
X79263Y50400D01*
X87282Y49400D02*
X88263Y49400D01*
X87282Y50400D02*
X88263Y50400D01*
X37750Y28506D02*
X37750Y29150D01*
X38006Y28506D02*
X38006Y29150D01*
X36470Y30106D02*
X36470Y30750D01*
X37494Y30106D02*
X37494Y30750D01*
X36982Y27932D02*
X36982Y28506D01*
X36726Y27932D02*
X36726Y28506D01*
X36470Y27932D02*
X36470Y28506D01*
X37238Y27932D02*
X37238Y28506D01*
X37494Y27932D02*
X37494Y28506D01*
X38262Y27932D02*
X38262Y28506D01*
X39894Y27500D02*
X40250Y27500D01*
X39894Y27900D02*
X40250Y27900D01*
X39035Y28500D02*
X39750Y28500D01*
X40250Y28500D01*
X40197Y29300D02*
X40200Y29300D01*
X40250Y29250D01*
X40250Y28894D02*
X40250Y29250D01*
X40197Y29300D02*
X40197Y30350D01*
X39797Y30750D02*
X40197Y30350D01*
X40821Y29317D02*
X40821Y29589D01*
X36923Y33053D02*
X37213Y33053D01*
X37520Y33360D01*
X41230Y33360D01*
X41589Y33002D01*
X41589Y31364D02*
X41589Y33002D01*
X41306Y31081D02*
X41589Y31364D01*
X40821Y31081D02*
X41306Y31081D01*
X36923Y32030D02*
X37238Y31715D01*
X37238Y30750D02*
X37238Y31715D01*
X36530Y31970D02*
X36982Y31518D01*
X36982Y30750D02*
X36982Y31518D01*
X36726Y30750D02*
X36726Y31390D01*
X36445Y31671D02*
X36726Y31390D01*
X36138Y31671D02*
X36445Y31671D01*
X35959Y31850D02*
X36138Y31671D01*
X35959Y31850D02*
X35959Y32089D01*
X36470Y30750D02*
X36470Y31262D01*
X36317Y31415D02*
X36470Y31262D01*
X35703Y31415D02*
X36317Y31415D01*
X35447Y31671D02*
X35703Y31415D01*
X35447Y31671D02*
X35447Y32089D01*
X35447Y32482D02*
X35959Y32482D01*
X38894Y25750D02*
X39331Y25750D01*
X40565Y25530D02*
X40837Y25530D01*
X53104Y20258D02*
X53656Y20258D01*
X15242Y8817D02*
X15926Y8817D01*
X19000Y5455D02*
X19000Y5881D01*
X17000Y8447D02*
X17000Y8450D01*
X17250Y8700D01*
X14453Y7550D02*
X14756Y7550D01*
X14000Y8000D02*
X14515Y8000D01*
X14000Y6350D02*
X14303Y6350D01*
X13400Y6950D02*
X13856Y6950D01*
X14347Y5450D02*
X14750Y5450D01*
X13600Y5450D02*
X13953Y5450D01*
X13600Y5900D02*
X13950Y5900D01*
X9078Y8222D02*
X9078Y8506D01*
X6352Y12352D02*
X6703Y12352D01*
X7097Y12352D02*
X7506Y12352D01*
X7916Y12352D01*
X5545Y40450D02*
X6100Y40450D01*
X88500Y48750D02*
X89081Y48750D01*
X550Y41500D02*
X906Y41500D01*
X2094Y41500D02*
X2450Y41500D01*
X550Y40000D02*
X906Y40000D01*
X2094Y40000D02*
X2450Y40000D01*
X12650Y11950D02*
X13006Y11950D01*
X14194Y11950D02*
X14550Y11950D01*
X14194Y13250D02*
X14550Y13250D01*
X12650Y13250D02*
X13006Y13250D01*
X86350Y41700D02*
X86756Y41700D01*
X86350Y41250D02*
X86756Y41250D01*
X39057Y1000D02*
X39057Y1356D01*
X39057Y2544D02*
X39057Y2900D01*
X37757Y2544D02*
X37757Y2900D01*
X37757Y1000D02*
X37757Y1356D01*
X10724Y42750D02*
X11100Y42750D01*
X9450Y41980D02*
X9450Y42356D01*
X9100Y42750D02*
X9450Y42750D01*
X9976Y42750D01*
X92124Y48500D02*
X92500Y48500D01*
X90850Y48894D02*
X90850Y49270D01*
X33844Y6200D02*
X34150Y6200D01*
X32776Y9200D02*
X32776Y9750D01*
X33170Y9200D02*
X33500Y9200D01*
X40250Y28894D02*
X40994Y28894D01*
X55356Y19956D02*
X55356Y20238D01*
X36100Y28000D02*
X36215Y28115D01*
X36215Y28506D01*
X36719Y49900D02*
X36969Y50150D01*
X37219Y49400D02*
X37469Y49650D01*
X36719Y47400D02*
X36969Y47650D01*
X36219Y47400D02*
X36469Y47650D01*
X36719Y46900D02*
X36969Y47150D01*
X36219Y46900D02*
X36469Y47150D01*
X37219Y47400D02*
X37469Y47650D01*
X37219Y46900D02*
X37469Y47150D01*
X37719Y46900D02*
X37969Y47150D01*
X37719Y46400D02*
X37969Y46650D01*
X38219Y46400D02*
X38469Y46650D01*
X37219Y46400D02*
X37469Y46650D01*
X36719Y46400D02*
X36969Y46650D01*
X36219Y46400D02*
X36469Y46650D01*
X36719Y45900D02*
X36969Y46150D01*
X36219Y45400D02*
X36469Y45650D01*
X37219Y45900D02*
X37469Y46150D01*
X38719Y45900D02*
X38969Y46150D01*
X38219Y45400D02*
X38469Y45650D01*
X37719Y45400D02*
X37969Y45650D01*
X39219Y45900D02*
X39469Y46150D01*
X39219Y46400D02*
X39469Y46650D01*
X38719Y46900D02*
X38969Y47150D01*
X38219Y46900D02*
X38469Y47150D01*
X38719Y47400D02*
X38969Y47650D01*
X38219Y47900D02*
X38469Y48150D01*
X38719Y48400D02*
X38969Y48650D01*
X38219Y48900D02*
X38469Y49150D01*
X38719Y49400D02*
X38969Y49650D01*
X38219Y49900D02*
X38469Y50150D01*
X39719Y49900D02*
X39969Y50150D01*
X40219Y49400D02*
X40469Y49650D01*
X39719Y48900D02*
X39969Y49150D01*
X40219Y48400D02*
X40469Y48650D01*
X39719Y47900D02*
X39969Y48150D01*
X40219Y47400D02*
X40469Y47650D01*
X39719Y46400D02*
X39969Y46650D01*
X40219Y46400D02*
X40469Y46650D01*
X39719Y45400D02*
X39969Y45650D01*
X40219Y45400D02*
X40469Y45650D01*
X40719Y45900D02*
X40969Y46150D01*
X42719Y45900D02*
X42969Y46150D01*
X43219Y45900D02*
X43469Y46150D01*
X42219Y46900D02*
X42469Y47150D01*
X41719Y47400D02*
X41969Y47650D01*
X41219Y47900D02*
X41469Y48150D01*
X41719Y48400D02*
X41969Y48650D01*
X41219Y48900D02*
X41469Y49150D01*
X41719Y49400D02*
X41969Y49650D01*
X41219Y49900D02*
X41469Y50150D01*
X42719Y49900D02*
X42969Y50150D01*
X43219Y49400D02*
X43469Y49650D01*
X42719Y48900D02*
X42969Y49150D01*
X43219Y48400D02*
X43469Y48650D01*
X42719Y47900D02*
X42969Y48150D01*
X43219Y47400D02*
X43469Y47650D01*
X43719Y46900D02*
X43969Y47150D01*
X43719Y46400D02*
X43969Y46650D01*
X43719Y45400D02*
X43969Y45650D01*
X44219Y45400D02*
X44469Y45650D01*
X45719Y45400D02*
X45969Y45650D01*
X46219Y45400D02*
X46469Y45650D01*
X44719Y45900D02*
X44969Y46150D01*
X45219Y45900D02*
X45469Y46150D01*
X44219Y46400D02*
X44469Y46650D01*
X45219Y46900D02*
X45469Y47150D01*
X45719Y46400D02*
X45969Y46650D01*
X46219Y46400D02*
X46469Y46650D01*
X46719Y45900D02*
X46969Y46150D01*
X47219Y45900D02*
X47469Y46150D01*
X47719Y45400D02*
X47969Y45650D01*
X46719Y46900D02*
X46969Y47150D01*
X46219Y47400D02*
X46469Y47650D01*
X44719Y47400D02*
X44969Y47650D01*
X44219Y47900D02*
X44469Y48150D01*
X44719Y48400D02*
X44969Y48650D01*
X44219Y48900D02*
X44469Y49150D01*
X44719Y49400D02*
X44969Y49650D01*
X44219Y49900D02*
X44469Y50150D01*
X45719Y49900D02*
X45969Y50150D01*
X46219Y49400D02*
X46469Y49650D01*
X45719Y48900D02*
X45969Y49150D01*
X46219Y48400D02*
X46469Y48650D01*
X45719Y47900D02*
X45969Y48150D01*
X47219Y49900D02*
X47469Y50150D01*
X47719Y49400D02*
X47969Y49650D01*
X47219Y48900D02*
X47469Y49150D01*
X47719Y48400D02*
X47969Y48650D01*
X47219Y47900D02*
X47469Y48150D01*
X47719Y47400D02*
X47969Y47650D01*
X48219Y46900D02*
X48469Y47150D01*
X48219Y45400D02*
X48469Y45650D01*
X48719Y45900D02*
X48969Y46150D01*
X49719Y45400D02*
X49969Y45650D01*
X50219Y45400D02*
X50469Y45650D01*
X50219Y46400D02*
X50469Y46650D01*
X49719Y46400D02*
X49969Y46650D01*
X49719Y46900D02*
X49969Y47150D01*
X49219Y47400D02*
X49469Y47650D01*
X48719Y47900D02*
X48969Y48150D01*
X49219Y48400D02*
X49469Y48650D01*
X50219Y47900D02*
X50469Y48150D01*
X50719Y48400D02*
X50969Y48650D01*
X50719Y47400D02*
X50969Y47650D01*
X51219Y46900D02*
X51469Y47150D01*
X51719Y47900D02*
X51969Y48150D01*
X52219Y48400D02*
X52469Y48650D01*
X51219Y45900D02*
X51469Y46150D01*
X51719Y46400D02*
X51969Y46650D01*
X52719Y45900D02*
X52969Y46150D01*
X53219Y45900D02*
X53469Y46150D01*
X53219Y46900D02*
X53469Y47150D01*
X52719Y46900D02*
X52969Y47150D01*
X52219Y47900D02*
X52469Y47650D01*
X53219Y47900D02*
X53469Y48150D01*
X51719Y48900D02*
X51969Y49150D01*
X48719Y49900D02*
X48969Y50150D01*
X49219Y49400D02*
X49469Y49650D01*
X48719Y48900D02*
X48969Y49150D01*
X50219Y49900D02*
X50469Y50150D01*
X50719Y49400D02*
X50969Y49650D01*
X50219Y48900D02*
X50469Y49150D01*
X51719Y49900D02*
X51969Y50150D01*
X52219Y49400D02*
X52469Y49650D01*
X53219Y49900D02*
X53469Y50150D01*
X53219Y49400D02*
X53469Y49150D01*
X53719Y45400D02*
X53969Y45650D01*
X53719Y46400D02*
X53969Y46650D01*
X54219Y46400D02*
X54469Y46650D01*
X54219Y45400D02*
X54469Y45650D01*
X54219Y47400D02*
X54469Y47650D01*
X53719Y47400D02*
X53969Y47650D01*
X53719Y48400D02*
X53969Y48650D01*
X54219Y48400D02*
X54469Y48650D01*
X53719Y49400D02*
X53969Y49650D01*
X54469Y49650D02*
X54719Y49400D01*
X54719Y49900D02*
X54969Y50150D01*
X55219Y49900D02*
X55469Y50150D01*
X55719Y49400D02*
X55969Y49650D01*
X54719Y48900D02*
X54969Y49150D01*
X54719Y47900D02*
X54969Y48150D01*
X55219Y47900D02*
X55469Y48150D01*
X55719Y48400D02*
X55969Y48650D01*
X55719Y47400D02*
X55969Y47650D01*
X55219Y46900D02*
X55469Y47150D01*
X54719Y46900D02*
X54969Y47150D01*
X55719Y46400D02*
X55969Y46650D01*
X55219Y45900D02*
X55469Y46150D01*
X54719Y45900D02*
X54969Y46150D01*
X55719Y45400D02*
X55969Y45650D01*
X40219Y46900D02*
X40469Y47150D01*
X38719Y46400D02*
X38969Y46650D01*
X74376Y36195D02*
X74376Y36726D01*
X75750Y950D02*
X77000Y950D01*
X88079Y16720D02*
X88280Y16720D01*
X88394Y16606D01*
X88394Y16110D02*
X88394Y16606D01*
X41719Y45400D02*
X41969Y45650D01*
X42219Y45400D02*
X42469Y45650D01*
X42219Y46400D02*
X42469Y46650D01*
X41719Y46400D02*
X41969Y46650D01*
X40662Y32700D02*
X40821Y32541D01*
X39580Y32700D02*
X40662Y32700D01*
X38400Y31774D02*
X39374Y31774D01*
X39580Y31980D01*
X39580Y32700D01*
X37222Y32541D02*
X37331Y32650D01*
X36923Y32541D02*
X37222Y32541D01*
X37331Y32650D02*
X38120Y32650D01*
X37950Y32650D02*
X38100Y32500D01*
X37494Y30750D02*
X37494Y31894D01*
X37700Y32100D01*
X38100Y32250D02*
X38100Y32500D01*
X37950Y32100D02*
X38100Y32250D01*
X37700Y32100D02*
X37950Y32100D01*
X55719Y48900D02*
X55969Y49150D01*
X36719Y49400D02*
X36969Y49150D01*
X36719Y48900D02*
X36969Y48650D01*
X37219Y48900D02*
X37469Y48650D01*
X36219Y49900D02*
X36469Y49650D01*
X36219Y49400D02*
X36469Y49150D01*
X36219Y48900D02*
X36469Y48650D01*
X36219Y48400D02*
X36469Y48150D01*
X36969Y48150D02*
X37219Y47900D01*
D88*
X38103Y9650D02*
X38103Y10093D01*
X38103Y9650D02*
X38118Y9635D01*
X38118Y9632D02*
X38118Y9635D01*
X38118Y9632D02*
X38200Y9550D01*
X38200Y9300D02*
X38200Y9550D01*
X38200Y9300D02*
X38350Y9150D01*
X47638Y25500D02*
X47638Y28362D01*
X47638Y24406D02*
X47638Y25500D01*
X30276Y9200D02*
X30276Y9750D01*
X30276Y8750D02*
X30276Y9200D01*
X41339Y24406D02*
X41339Y25120D01*
X41142Y24406D02*
X41142Y25120D01*
X38200Y12503D02*
X38200Y13350D01*
X4250Y9500D02*
X5750Y9500D01*
X4250Y9500D02*
X4250Y9610D01*
X4250Y8880D02*
X4250Y9500D01*
X46058Y11300D02*
X46058Y12100D01*
X13175Y9247D02*
X13497Y9247D01*
X12853Y9247D02*
X13175Y9247D01*
X25748Y46325D02*
X27539Y46325D01*
X28287Y46325D02*
X28819Y46325D01*
X38500Y20300D02*
X38500Y20606D01*
X38500Y21300D02*
X38500Y21606D01*
X33894Y18750D02*
X34250Y18750D01*
X32500Y15250D02*
X32856Y15250D01*
X60644Y50500D02*
X61250Y50500D01*
X60644Y51000D02*
X61250Y51000D01*
X2303Y6000D02*
X2303Y6349D01*
X2276Y6376D02*
X2303Y6349D01*
X2276Y6376D02*
X2276Y6750D01*
X2776Y6376D02*
X2776Y6750D01*
X2697Y6297D02*
X2776Y6376D01*
X2697Y6000D02*
X2697Y6297D01*
X50059Y7717D02*
X50374Y7717D01*
X49213Y6870D02*
X50059Y7717D01*
X48661Y6870D02*
X49213Y6870D01*
X53386Y7461D02*
X53583Y7264D01*
X53189Y7461D02*
X53386Y7461D01*
X44500Y11644D02*
X44500Y12000D01*
X44500Y6750D02*
X44500Y7250D01*
X43750Y7250D02*
X44500Y7250D01*
X43250Y7250D02*
X43750Y7250D01*
X42750Y7250D02*
X43250Y7250D01*
X42250Y7250D02*
X42750Y7250D01*
X42250Y6500D02*
X42250Y6856D01*
X49508Y9291D02*
X50374Y9291D01*
X49370Y9429D02*
X49508Y9291D01*
X53445Y10276D02*
X53760Y10276D01*
X53445Y10079D02*
X53760Y10079D01*
X50433Y11988D02*
X50748Y11988D01*
X51024Y11713D01*
X51024Y10532D02*
X51024Y11713D01*
X50630Y10532D02*
X50630Y10768D01*
X50394Y11004D02*
X50630Y10768D01*
X50394Y11004D02*
X50394Y11240D01*
X50236Y11398D02*
X50394Y11240D01*
X49882Y11398D02*
X50236Y11398D01*
X52402Y10532D02*
X52402Y10846D01*
X52205Y10532D02*
X52205Y10846D01*
X40945Y24406D02*
X40945Y24605D01*
X40550Y25000D02*
X40945Y24605D01*
X40250Y25000D02*
X40550Y25000D01*
X40000Y25250D02*
X40250Y25000D01*
X40000Y25250D02*
X40000Y25750D01*
X40000Y26150D01*
X39800Y26350D02*
X40000Y26150D01*
X38518Y26732D02*
X38518Y28506D01*
X38518Y26732D02*
X38900Y26350D01*
X39800Y26350D01*
X39000Y26750D02*
X39000Y27106D01*
X38774Y28126D02*
X38774Y28506D01*
X38774Y28126D02*
X39000Y27900D01*
X43307Y23841D02*
X43307Y24406D01*
X43898Y23841D02*
X43898Y24406D01*
X44488Y23841D02*
X44488Y24406D01*
X45079Y23841D02*
X45079Y24406D01*
X45669Y23841D02*
X45669Y24406D01*
X46654Y23841D02*
X46654Y24406D01*
X42126Y23841D02*
X42126Y24406D01*
X42717Y23841D02*
X42717Y24406D01*
X40565Y26144D02*
X40880Y26144D01*
X40581Y26656D02*
X40896Y26656D01*
X13497Y8853D02*
X13497Y8500D01*
X15805Y6545D02*
X16213Y6545D01*
X15805Y6152D02*
X16213Y6152D01*
X17787Y6545D02*
X18245Y6545D01*
X17098Y7037D02*
X17098Y7652D01*
X17000Y7750D02*
X17098Y7652D01*
X17000Y7750D02*
X17000Y8053D01*
X16250Y4306D02*
X16250Y3950D01*
X6800Y11093D02*
X7916Y11093D01*
X5150Y13350D02*
X5750Y12750D01*
X5750Y9500D02*
X7028Y10778D01*
X7916Y10778D01*
X4250Y13350D02*
X4250Y14730D01*
X4250Y15124D02*
X4250Y15480D01*
X13250Y5144D02*
X13250Y5500D01*
X13250Y3500D02*
X13250Y3856D01*
X5750Y11400D02*
X5750Y12750D01*
X5750Y11400D02*
X6057Y11093D01*
X6406Y11093D01*
X38497Y11707D02*
X38497Y12147D01*
X38597Y12247D01*
X38597Y13350D01*
X38300Y11707D02*
X38300Y12150D01*
X38203Y12247D02*
X38300Y12150D01*
X38203Y12247D02*
X38203Y12500D01*
X38200Y12503D02*
X38203Y12500D01*
X37200Y9500D02*
X37506Y9500D01*
X36800Y8950D02*
X37231Y8950D01*
X39048Y8386D02*
X39048Y8914D01*
X38300Y9662D02*
X39048Y8914D01*
X38300Y9662D02*
X38300Y10093D01*
X38350Y8416D02*
X38350Y9150D01*
X2350Y5500D02*
X2713Y5500D01*
X5253Y35197D02*
X5750Y35197D01*
X5253Y34803D02*
X5750Y34803D01*
X7344Y34803D02*
X7900Y34803D01*
X7900Y35600D02*
X7900Y35900D01*
X7900Y34803D02*
X7900Y35206D01*
X4250Y13350D02*
X5150Y13350D01*
X4650Y8480D02*
X5250Y8480D01*
X4250Y8880D02*
X4650Y8480D01*
X17000Y8053D02*
X18047Y8053D01*
X18100Y8000D01*
X18600Y8000D01*
X29750Y9332D02*
X29882Y9200D01*
X29750Y9332D02*
X29750Y9724D01*
X29776Y9750D01*
X29500Y8750D02*
X29882Y8750D01*
X46850Y24406D02*
X46850Y25000D01*
X47047Y24406D02*
X47047Y24997D01*
X48032Y25500D02*
X48300Y25500D01*
X48425Y23814D02*
X48425Y24406D01*
X48622Y23811D02*
X48622Y24406D01*
X46850Y23814D02*
X46850Y24406D01*
X47047Y23811D02*
X47047Y24406D01*
X74409Y33224D02*
X74409Y33741D01*
X45608Y30392D02*
X47638Y28362D01*
X41000Y30392D02*
X45608Y30392D01*
X44894Y7250D02*
X45250Y7250D01*
X44894Y6750D02*
X45250Y6750D01*
X75591Y33224D02*
X75591Y33641D01*
X75787Y33224D02*
X75787Y33637D01*
X76181Y33224D02*
X76181Y33637D01*
X75984Y33224D02*
X75984Y33641D01*
X48228Y24406D02*
X48228Y24822D01*
X61721Y31173D02*
X61721Y31586D01*
X62508Y32374D01*
X70426Y14676D02*
X70426Y15264D01*
X70623Y14676D02*
X70623Y15264D01*
X70820Y14676D02*
X70820Y15264D01*
X50001Y8701D02*
X50374Y8701D01*
X13683Y9683D02*
X14258Y9683D01*
X13497Y9247D02*
X13497Y9497D01*
X13683Y9683D01*
X-41595Y559D02*
X-41624Y617D01*
X-41681Y674D01*
X-41738Y702D01*
X-41852Y702D01*
X-41909Y674D01*
X-41966Y617D01*
X-41995Y559D01*
X-42024Y474D01*
X-42024Y331D01*
X-41995Y245D01*
X-41966Y188D01*
X-41909Y131D01*
X-41852Y102D01*
X-41738Y102D01*
X-41681Y131D01*
X-41624Y188D01*
X-41595Y245D01*
X-41595Y331D01*
X-41738Y331D02*
X-41595Y331D01*
X-41258Y702D02*
X-41258Y102D01*
X-41458Y702D02*
X-41058Y702D01*
X-40987Y702D02*
X-40987Y102D01*
X-40644Y102D01*
X-40107Y359D02*
X-39593Y359D01*
X-38744Y702D02*
X-38744Y102D01*
X-38944Y702D02*
X-38544Y702D01*
X-38302Y702D02*
X-38359Y674D01*
X-38416Y617D01*
X-38444Y559D01*
X-38473Y474D01*
X-38473Y331D01*
X-38444Y245D01*
X-38416Y188D01*
X-38359Y131D01*
X-38302Y102D01*
X-38187Y102D01*
X-38130Y131D01*
X-38073Y188D01*
X-38044Y245D01*
X-38016Y331D01*
X-38016Y474D01*
X-38044Y559D01*
X-38073Y617D01*
X-38130Y674D01*
X-38187Y702D01*
X-38302Y702D01*
X-37876Y388D02*
X-37619Y388D01*
X-37533Y417D01*
X-37505Y445D01*
X-37476Y502D01*
X-37476Y588D01*
X-37505Y645D01*
X-37533Y674D01*
X-37619Y702D01*
X-37876Y702D01*
X-37876Y102D01*
X-36870Y702D02*
X-36870Y102D01*
X-36528Y102D01*
X-36005Y102D02*
X-36233Y702D01*
X-36462Y102D01*
X-36376Y302D02*
X-36091Y302D01*
X-35865Y702D02*
X-35636Y417D01*
X-35636Y102D01*
X-35408Y702D02*
X-35636Y417D01*
X-34959Y702D02*
X-35331Y702D01*
X-35331Y102D01*
X-34959Y102D01*
X-35331Y417D02*
X-35102Y417D01*
X-34859Y702D02*
X-34859Y102D01*
X-34859Y702D02*
X-34602Y702D01*
X-34517Y674D01*
X-34488Y645D01*
X-34460Y588D01*
X-34460Y531D01*
X-34488Y474D01*
X-34517Y445D01*
X-34602Y417D01*
X-34859Y417D01*
X-34659Y417D02*
X-34460Y102D01*
X-14991Y-15290D02*
X-14991Y-15890D01*
X-14991Y-15290D02*
X-14763Y-15890D01*
X-14534Y-15290D02*
X-14763Y-15890D01*
X-14534Y-15290D02*
X-14534Y-15890D01*
X-14363Y-15290D02*
X-14363Y-15719D01*
X-14334Y-15804D01*
X-14277Y-15861D01*
X-14191Y-15890D01*
X-14134Y-15890D01*
X-14048Y-15861D01*
X-13991Y-15804D01*
X-13963Y-15719D01*
X-13963Y-15290D01*
X-13797Y-15290D02*
X-13797Y-15890D01*
X-13454Y-15890D01*
X-13189Y-15290D02*
X-13189Y-15890D01*
X-13389Y-15290D02*
X-12989Y-15290D01*
X-12917Y-15290D02*
X-12917Y-15890D01*
X-12792Y-15633D02*
X-12277Y-15633D01*
X-12100Y-15290D02*
X-12100Y-15890D01*
X-11758Y-15890D01*
X-11235Y-15890D02*
X-11463Y-15290D01*
X-11692Y-15890D01*
X-11606Y-15690D02*
X-11320Y-15690D01*
X-11095Y-15290D02*
X-10866Y-15576D01*
X-10866Y-15890D01*
X-10638Y-15290D02*
X-10866Y-15576D01*
X-10189Y-15290D02*
X-10561Y-15290D01*
X-10561Y-15890D01*
X-10189Y-15890D01*
X-10561Y-15576D02*
X-10332Y-15576D01*
X-10089Y-15290D02*
X-10089Y-15890D01*
X-10089Y-15290D02*
X-9832Y-15290D01*
X-9747Y-15319D01*
X-9718Y-15347D01*
X-9689Y-15404D01*
X-9689Y-15462D01*
X-9718Y-15519D01*
X-9747Y-15547D01*
X-9832Y-15576D01*
X-10089Y-15576D01*
X-9889Y-15576D02*
X-9689Y-15890D01*
X-9084Y-15290D02*
X-9084Y-15890D01*
X-8684Y-15290D02*
X-8684Y-15890D01*
X-9084Y-15576D02*
X-8684Y-15576D01*
X-8347Y-15290D02*
X-8404Y-15319D01*
X-8461Y-15376D01*
X-8490Y-15433D01*
X-8518Y-15519D01*
X-8518Y-15661D01*
X-8490Y-15747D01*
X-8461Y-15804D01*
X-8404Y-15861D01*
X-8347Y-15890D01*
X-8233Y-15890D01*
X-8175Y-15861D01*
X-8118Y-15804D01*
X-8090Y-15747D01*
X-8061Y-15661D01*
X-8061Y-15519D01*
X-8090Y-15433D01*
X-8118Y-15376D01*
X-8175Y-15319D01*
X-8233Y-15290D01*
X-8347Y-15290D01*
X-7921Y-15290D02*
X-7921Y-15890D01*
X-7578Y-15890D01*
X-7141Y-15290D02*
X-7513Y-15290D01*
X-7513Y-15890D01*
X-7141Y-15890D01*
X-7513Y-15576D02*
X-7284Y-15576D01*
X-6641Y-15376D02*
X-6699Y-15319D01*
X-6784Y-15290D01*
X-6899Y-15290D01*
X-6984Y-15319D01*
X-7041Y-15376D01*
X-7041Y-15433D01*
X-7013Y-15490D01*
X-6984Y-15519D01*
X-6927Y-15547D01*
X-6756Y-15604D01*
X-6699Y-15633D01*
X-6670Y-15661D01*
X-6641Y-15719D01*
X-6641Y-15804D01*
X-6699Y-15861D01*
X-6784Y-15890D01*
X-6899Y-15890D01*
X-6984Y-15861D01*
X-7041Y-15804D01*
D89*
X35500Y24372D02*
X37418Y24372D01*
X1776Y6750D02*
X1776Y7250D01*
X1776Y4524D02*
X1776Y6750D01*
X33276Y5750D02*
X33276Y6750D01*
X33276Y5000D02*
X33276Y5500D01*
X33276Y4776D02*
X33276Y5000D01*
X28500Y4250D02*
X32750Y4250D01*
X3500Y3750D02*
X5700Y1550D01*
X8950Y2822D02*
X8950Y3500D01*
X1776Y4524D02*
X2550Y3750D01*
X3500Y3750D01*
X33276Y5500D02*
X33276Y5750D01*
X32750Y4250D02*
X33276Y4776D01*
X28250Y4000D02*
X28500Y4250D01*
X7950Y1550D02*
X8100Y1700D01*
X8950Y1700D01*
X5700Y1550D02*
X7950Y1550D01*
D90*
X69200Y53185D02*
X69266Y53185D01*
X68766Y53185D02*
X69200Y53185D01*
X24276Y25350D02*
X24276Y25750D01*
X24276Y24750D02*
X24276Y25350D01*
X21750Y22000D02*
X22800Y22000D01*
X21350Y22000D02*
X21750Y22000D01*
X2276Y25350D02*
X2276Y25750D01*
X2276Y24750D02*
X2276Y25350D01*
X2276Y22350D02*
X2276Y22750D01*
X2276Y21750D02*
X2276Y22350D01*
X4876Y40450D02*
X4876Y41000D01*
X4876Y39766D02*
X4876Y40450D01*
X89750Y48750D02*
X89750Y50550D01*
X89750Y47250D02*
X89750Y48750D01*
X60933Y35897D02*
X61632Y35198D01*
X23450Y25350D02*
X23882Y25350D01*
X21750Y21174D02*
X21750Y21606D01*
X1450Y25350D02*
X1882Y25350D01*
X1450Y22350D02*
X1882Y22350D01*
X84150Y9250D02*
X84150Y10606D01*
X83150Y9250D02*
X83150Y10606D01*
X84150Y10606D02*
X85091Y10606D01*
X82209Y10606D02*
X83150Y10606D01*
X82150Y10665D02*
X82209Y10606D01*
X82150Y11335D02*
X82150Y11850D01*
X85150Y11335D02*
X85150Y11850D01*
X83149Y11394D02*
X83149Y12053D01*
X84149Y11394D02*
X84149Y12053D01*
X70261Y9264D02*
X70261Y10620D01*
X69261Y9264D02*
X69261Y10620D01*
X70261Y10620D02*
X71202Y10620D01*
X68320Y10620D02*
X69261Y10620D01*
X68261Y11348D02*
X68261Y11864D01*
X71261Y11348D02*
X71261Y11864D01*
X69260Y11408D02*
X69260Y12067D01*
X70260Y11408D02*
X70260Y12067D01*
X68384Y12691D02*
X68749Y12326D01*
X72011Y16483D02*
X72011Y16998D01*
X72011Y14933D02*
X72011Y15364D01*
X4876Y38576D02*
X4876Y38734D01*
X4565Y38265D02*
X4876Y38576D01*
X4565Y38000D02*
X4565Y38265D01*
X4565Y37500D02*
X4565Y38000D01*
X71031Y52874D02*
X87426Y52874D01*
X69266Y53185D02*
X69531Y53185D01*
X69842Y52874D01*
X70000Y52874D01*
X15444Y1876D02*
X15900Y1876D01*
X87426Y52874D02*
X89750Y50550D01*
X86126Y46581D02*
X89081Y46581D01*
X89750Y47250D01*
X24276Y21750D02*
X24276Y21974D01*
X22800Y22000D02*
X22950Y22150D01*
X24100Y22150D01*
X24276Y21974D01*
X61632Y33683D02*
X61632Y35198D01*
X23750Y43000D02*
X23750Y46750D01*
X23750Y43000D02*
X25750Y41000D01*
X25750Y29500D02*
X25750Y41000D01*
X25750Y29500D02*
X28050Y27200D01*
D91*
X69639Y18742D02*
X69811Y18914D01*
X66883Y14514D02*
X66883Y15264D01*
X66883Y13914D02*
X66883Y14514D01*
X49252Y8307D02*
X50374Y8307D01*
X49114Y8307D02*
X49252Y8307D01*
X68064Y17264D02*
X68436Y17264D01*
X68011Y17264D02*
X68064Y17264D01*
X67911Y17264D02*
X68011Y17264D01*
X68064Y17264D02*
X68064Y18236D01*
X68436Y17264D02*
X68950Y16750D01*
X69836Y15764D02*
X69836Y16164D01*
X69836Y15264D02*
X69836Y15764D01*
X68852Y15764D02*
X68852Y16164D01*
X68852Y15264D02*
X68852Y15764D01*
X71017Y15764D02*
X71017Y16083D01*
X71017Y15264D02*
X71017Y15764D01*
X67361Y16364D02*
X68564Y16364D01*
X75750Y2052D02*
X77250Y2052D01*
X71261Y20388D02*
X72261Y20388D01*
X70835Y20388D02*
X71261Y20388D01*
X86465Y18374D02*
X86760Y18374D01*
X87843Y14732D02*
X89417Y14732D01*
X86268Y15736D02*
X86268Y16267D01*
X86366Y16366D02*
X86366Y16602D01*
X86268Y17685D02*
X86268Y18177D01*
X86465Y18374D01*
X87744Y14830D02*
X87744Y15322D01*
X88433Y18275D02*
X88630Y18078D01*
X89614Y14141D02*
X89614Y14535D01*
X85854Y17685D02*
X85854Y17980D01*
X86268Y16267D02*
X86366Y16366D01*
X87449Y15322D02*
X87744Y15322D01*
X87744Y14830D02*
X87843Y14732D01*
X88630Y17881D02*
X88630Y18078D01*
X89417Y14732D02*
X89614Y14535D01*
X51878Y27039D02*
X58374Y27039D01*
X60057Y29805D02*
X60540Y30287D01*
X58078Y30878D02*
X60304Y30878D01*
X58670Y29805D02*
X60057Y29805D01*
X59063Y29598D02*
X60244Y29598D01*
X53355Y27334D02*
X58079Y27334D01*
X58493Y29027D02*
X59063Y29598D01*
X58079Y27334D02*
X58867Y28122D01*
X58374Y27039D02*
X59162Y27826D01*
X60244Y29598D02*
X60933Y30287D01*
X60304Y30878D02*
X60599Y30582D01*
X51583Y27334D02*
X51878Y27039D01*
X58493Y28279D02*
X58493Y29027D01*
X59162Y27826D02*
X59162Y28515D01*
X61721Y30287D02*
X61721Y30779D01*
X49055Y8051D02*
X49055Y8248D01*
X49114Y8307D01*
X54432Y5565D02*
X54720Y5565D01*
X53750Y5565D02*
X54038Y5565D01*
X53301Y5565D02*
X53750Y5565D01*
X52750Y3250D02*
X52750Y3606D01*
X52750Y4000D02*
X52750Y4699D01*
X70836Y16264D02*
X71017Y16083D01*
X70036Y16264D02*
X70836Y16264D01*
X67670Y15264D02*
X67670Y16048D01*
X67786Y16164D01*
X69261Y11407D02*
X69405Y11407D01*
X69661Y11664D01*
X69861Y11664D02*
X70117Y11407D01*
X67277Y15264D02*
X67277Y16280D01*
X67361Y16364D01*
X67080Y15264D02*
X67080Y16433D01*
X67261Y16614D01*
X68814Y16614D01*
X67670Y17504D02*
X67670Y18236D01*
X67277Y17498D02*
X67277Y18236D01*
X67277Y17498D02*
X67511Y17264D01*
X67911Y17264D01*
X67670Y17504D02*
X67911Y17264D01*
X83194Y11394D02*
X83500Y11700D01*
X83798Y11700D02*
X84105Y11394D01*
X77644Y2052D02*
X78000Y2052D01*
X72817Y2800D02*
X72817Y3485D01*
X74500Y6052D02*
X74799Y5753D01*
X75750Y5753D01*
X70891Y5552D02*
X70997Y5659D01*
X70444Y5552D02*
X70891Y5552D01*
X69500Y5659D02*
X69606Y5552D01*
X70050Y5552D01*
X70894Y7500D02*
X71000Y7394D01*
X70447Y7500D02*
X70894Y7500D01*
X69503Y7394D02*
X69609Y7500D01*
X70053Y7500D01*
X72817Y3485D02*
X73634Y4302D01*
X76250Y4302D01*
X76750Y4802D01*
X76750Y7052D01*
X75500Y8302D02*
X76750Y7052D01*
X72302Y8302D02*
X75500Y8302D01*
X69503Y7000D02*
X71000Y7000D01*
X67661Y14464D02*
X67867Y14670D01*
X67867Y15264D01*
X69553Y6052D02*
X70997Y6052D01*
X74500Y6052D01*
X65761Y15564D02*
X65761Y16429D01*
X65761Y15564D02*
X66061Y15264D01*
X66686Y15264D01*
X65761Y17098D02*
X65761Y18014D01*
X65983Y18236D01*
X66686Y18236D01*
X66883Y18236D02*
X66883Y18642D01*
X66761Y18764D02*
X66883Y18642D01*
X66261Y18764D02*
X66761Y18764D01*
X65011Y18764D02*
X65592Y18764D01*
X67080Y18236D02*
X67080Y18817D01*
X72161Y19164D02*
X72261Y19264D01*
X72261Y19640D01*
X71017Y18236D02*
X71017Y18670D01*
X71511Y19164D01*
X72161Y19164D01*
X70820Y18236D02*
X70820Y18773D01*
X71261Y19214D01*
X71261Y19640D01*
X70623Y18236D02*
X70623Y20176D01*
X70835Y20388D01*
X65011Y19264D02*
X67011Y19264D01*
X67474Y18801D01*
X67474Y18236D02*
X67474Y18801D01*
X67867Y18236D02*
X67867Y18907D01*
X69639Y18236D02*
X69639Y18742D01*
X69811Y18914D02*
X69811Y19264D01*
X69811Y19933D02*
X69811Y20364D01*
X73011Y19407D02*
X73011Y19791D01*
X72011Y18211D02*
X72011Y18514D01*
X65761Y14514D02*
X66214Y14514D01*
X67311Y13164D02*
X67661Y13514D01*
X67661Y14464D01*
X65661Y13164D02*
X67311Y13164D01*
X65261Y13514D02*
X66961Y13514D01*
X67311Y13864D01*
X67311Y14714D01*
X67474Y14876D01*
X67474Y15264D01*
X68261Y14514D02*
X68261Y15264D01*
X68064Y14514D02*
X68064Y15264D01*
X68458Y13263D02*
X68458Y15264D01*
X68458Y13263D02*
X69260Y12461D01*
X68655Y13520D02*
X68655Y15264D01*
X68655Y13520D02*
X69661Y12514D01*
X69661Y11664D02*
X69661Y12514D01*
X69048Y13476D02*
X69048Y15264D01*
X69048Y13476D02*
X69861Y12664D01*
X69861Y11664D02*
X69861Y12664D01*
X69245Y13680D02*
X69245Y15264D01*
X69245Y13680D02*
X70260Y12665D01*
X70260Y12461D02*
X70260Y12665D01*
X69442Y13833D02*
X69442Y15264D01*
X69639Y14136D02*
X69639Y15264D01*
X70033Y14242D02*
X70033Y15264D01*
X70033Y14242D02*
X70761Y13514D01*
X70230Y14445D02*
X70230Y15264D01*
X70230Y14445D02*
X70911Y13764D01*
X72000Y8000D02*
X72302Y8302D01*
X72000Y7250D02*
X72000Y8000D01*
X71750Y7000D02*
X72000Y7250D01*
X71000Y7000D02*
X71750Y7000D01*
X67131Y7394D02*
X69503Y7394D01*
X67025Y7000D02*
X69503Y7000D01*
X69639Y14136D02*
X70525Y13250D01*
X69442Y13833D02*
X70275Y13000D01*
X83149Y12447D02*
X83149Y12701D01*
X70275Y13000D02*
X82850Y13000D01*
X83149Y12701D01*
X83500Y11700D02*
X83500Y12750D01*
X70525Y13250D02*
X83000Y13250D01*
X83500Y12750D01*
X83798Y11700D02*
X83798Y12902D01*
X70761Y13514D02*
X83186Y13514D01*
X83798Y12902D01*
X67448Y6052D02*
X69500Y6052D01*
X67341Y5659D02*
X69500Y5659D01*
X67275Y19500D02*
X67867Y18907D01*
X64750Y19500D02*
X67275Y19500D01*
X65250Y9275D02*
X67131Y7394D01*
X65250Y9275D02*
X65250Y12753D01*
X65661Y13164D01*
X65000Y9025D02*
X67025Y7000D01*
X65000Y9025D02*
X65000Y13253D01*
X65261Y13514D01*
X64750Y8750D02*
X67448Y6052D01*
X64750Y8750D02*
X64750Y19003D01*
X65011Y19264D01*
X64500Y8500D02*
X67341Y5659D01*
X64500Y8500D02*
X64500Y19250D01*
X64750Y19500D01*
X58867Y28122D02*
X58867Y28614D01*
X74852Y2052D02*
X75750Y2052D01*
X73800Y1000D02*
X74852Y2052D01*
X68500Y1000D02*
X73800Y1000D01*
X67750Y1750D02*
X68500Y1000D01*
X70911Y13764D02*
X83386Y13764D01*
X84149Y13001D01*
X84149Y12447D02*
X84149Y13001D01*
X57750Y30550D02*
X58078Y30878D01*
X57750Y29450D02*
X57750Y30550D01*
X58867Y28614D02*
X59162Y28909D01*
X59162Y28515D02*
X59359Y28712D01*
X59162Y28909D02*
X59752Y28909D01*
X59359Y28712D02*
X59400Y28712D01*
D92*
X52750Y5250D02*
X52986Y5250D01*
X53301Y5250D01*
X52750Y5250D02*
X52750Y5486D01*
X52750Y5801D01*
X52199Y5250D02*
X52514Y5250D01*
X52750Y5250D01*
D93*
X45566Y3254D02*
X45566Y3750D01*
X46156Y3254D02*
X46156Y3750D01*
X47141Y3254D02*
X47141Y3750D01*
X47731Y3254D02*
X47731Y3750D01*
X38006Y30750D02*
X38006Y31390D01*
X38262Y30750D02*
X38262Y31083D01*
X38400Y31220D01*
X38400Y31390D01*
X38518Y30750D02*
X38518Y31031D01*
X38774Y31287D01*
X38774Y31390D01*
X38774Y30750D02*
X38774Y31031D01*
X39167Y31220D02*
X39167Y31390D01*
X38774Y31031D02*
X38850Y31108D01*
X39055Y31108D01*
X39167Y31220D01*
X37750Y30750D02*
X37750Y31697D01*
X37827Y31774D01*
X38006Y31774D01*
X46650Y6422D02*
X46650Y6750D01*
X46650Y6078D02*
X46650Y6422D01*
D94*
X8024Y46581D02*
X8969Y46581D01*
X85181Y43825D02*
X86126Y43825D01*
X7307Y11407D02*
X7916Y11407D01*
X7307Y10463D02*
X7916Y10463D01*
X8448Y12884D02*
X8448Y13493D01*
X8763Y12884D02*
X8763Y13493D01*
X9078Y12884D02*
X9078Y13493D01*
X9393Y12884D02*
X9393Y13493D01*
X10337Y9007D02*
X10337Y9616D01*
X8024Y43825D02*
X8969Y43825D01*
X5644Y8480D02*
X6000Y8480D01*
D95*
X92250Y11250D02*
D03*
X92250Y10250D02*
D03*
X92250Y9250D02*
D03*
X92250Y8250D02*
D03*
X92250Y7250D02*
D03*
X92250Y6250D02*
D03*
X92250Y5250D02*
D03*
X92250Y4250D02*
D03*
X11902Y24500D02*
D03*
X1150Y24500D02*
D03*
X23150Y21500D02*
D03*
X33902Y21500D02*
D03*
X33902Y24500D02*
D03*
X23150Y24500D02*
D03*
X23150Y10000D02*
D03*
X33902Y10000D02*
D03*
X33902Y7000D02*
D03*
X23150Y7000D02*
D03*
X9402Y7000D02*
D03*
X1150Y7000D02*
D03*
X1150Y21500D02*
D03*
X11902Y21500D02*
D03*
X67000Y1500D02*
D03*
X66000Y1500D02*
D03*
X65000Y1500D02*
D03*
X64000Y1500D02*
D03*
X63000Y1500D02*
D03*
X62000Y1500D02*
D03*
D96*
X58620Y48687D02*
D03*
X33813Y48687D02*
D03*
D97*
X56920Y46699D02*
D03*
X35518Y47900D02*
D03*
D98*
X45546Y3234D02*
D03*
X45704Y2959D02*
D03*
X46019Y2959D02*
D03*
X46176Y3234D02*
D03*
X46333Y2959D02*
D03*
X46491Y3234D02*
D03*
X46806Y3234D02*
D03*
X46963Y2959D02*
D03*
X47121Y3234D02*
D03*
X47278Y2959D02*
D03*
X47593Y2959D02*
D03*
X47751Y3234D02*
D03*
D99*
X44837Y2939D02*
D03*
X44837Y1758D02*
D03*
X48459Y2939D02*
D03*
X48459Y1758D02*
D03*
D100*
X9500Y37000D02*
D03*
X8500Y37000D02*
D03*
X7500Y37000D02*
D03*
X10500Y37000D02*
D03*
X82282Y49400D02*
D03*
X83282Y49400D02*
D03*
X84282Y49400D02*
D03*
X87282Y49400D02*
D03*
X86282Y49400D02*
D03*
X85282Y49400D02*
D03*
X85282Y50400D02*
D03*
X86282Y50400D02*
D03*
X87282Y50400D02*
D03*
X84282Y50400D02*
D03*
X83282Y50400D02*
D03*
X82282Y50400D02*
D03*
X73282Y49400D02*
D03*
X74282Y49400D02*
D03*
X75282Y49400D02*
D03*
X78282Y49400D02*
D03*
X77282Y49400D02*
D03*
X76282Y49400D02*
D03*
X76282Y50400D02*
D03*
X77282Y50400D02*
D03*
X78282Y50400D02*
D03*
X75282Y50400D02*
D03*
X74282Y50400D02*
D03*
X73282Y50400D02*
D03*
X15819Y49400D02*
D03*
X16819Y49400D02*
D03*
X17819Y49400D02*
D03*
X20819Y49400D02*
D03*
X19819Y49400D02*
D03*
X18819Y49400D02*
D03*
X18819Y50400D02*
D03*
X19819Y50400D02*
D03*
X20819Y50400D02*
D03*
X17819Y50400D02*
D03*
X16819Y50400D02*
D03*
X15819Y50400D02*
D03*
X6819Y49400D02*
D03*
X7819Y49400D02*
D03*
X8819Y49400D02*
D03*
X11819Y49400D02*
D03*
X10819Y49400D02*
D03*
X9819Y49400D02*
D03*
X9819Y50400D02*
D03*
X10819Y50400D02*
D03*
X11819Y50400D02*
D03*
X8819Y50400D02*
D03*
X7819Y50400D02*
D03*
X6819Y50400D02*
D03*
X70261Y9264D02*
D03*
X69261Y9264D02*
D03*
X83150Y9250D02*
D03*
X84150Y9250D02*
D03*
X64500Y24000D02*
D03*
X63500Y24000D02*
D03*
X62500Y24000D02*
D03*
X65500Y24000D02*
D03*
X64500Y22500D02*
D03*
X63500Y22500D02*
D03*
X62500Y22500D02*
D03*
X65500Y22500D02*
D03*
D101*
X950Y50580D02*
D03*
X950Y49400D02*
D03*
D102*
X7000Y42900D02*
D03*
X7000Y47506D02*
D03*
X87150Y42900D02*
D03*
X87150Y47506D02*
D03*
D103*
X7112Y31862D02*
D03*
X2388Y27138D02*
D03*
D104*
X5537Y33043D02*
D03*
X4750Y33043D02*
D03*
X3963Y33043D02*
D03*
D105*
X1207Y30287D02*
D03*
X1207Y28713D02*
D03*
X1207Y29500D02*
D03*
D106*
X11276Y24250D02*
D03*
X11276Y24750D02*
D03*
X10776Y24250D02*
D03*
X10776Y24750D02*
D03*
X10276Y24250D02*
D03*
X10276Y24750D02*
D03*
X9776Y24250D02*
D03*
X9776Y24750D02*
D03*
X9276Y24250D02*
D03*
X9276Y24750D02*
D03*
X8776Y24250D02*
D03*
X8776Y24750D02*
D03*
X8276Y24250D02*
D03*
X8276Y24750D02*
D03*
X7776Y24250D02*
D03*
X7776Y24750D02*
D03*
X7276Y24250D02*
D03*
X7276Y24750D02*
D03*
X6776Y24250D02*
D03*
X6776Y24750D02*
D03*
X6276Y24250D02*
D03*
X6276Y24750D02*
D03*
X5776Y24250D02*
D03*
X5776Y24750D02*
D03*
X5276Y24250D02*
D03*
X5276Y24750D02*
D03*
X4776Y24250D02*
D03*
X4776Y24750D02*
D03*
X4276Y24250D02*
D03*
X4276Y24750D02*
D03*
X3776Y24250D02*
D03*
X3776Y24750D02*
D03*
X2276Y24250D02*
D03*
X2276Y24750D02*
D03*
X1776Y24250D02*
D03*
X2776Y24750D02*
D03*
X3276Y24750D02*
D03*
X2776Y24250D02*
D03*
X3276Y24250D02*
D03*
X23776Y21250D02*
D03*
X24276Y21750D02*
D03*
X24276Y21250D02*
D03*
X24776Y21750D02*
D03*
X24776Y21250D02*
D03*
X25276Y21750D02*
D03*
X25276Y21250D02*
D03*
X25776Y21750D02*
D03*
X25776Y21250D02*
D03*
X26276Y21750D02*
D03*
X26276Y21250D02*
D03*
X26776Y21750D02*
D03*
X26776Y21250D02*
D03*
X27276Y21750D02*
D03*
X27276Y21250D02*
D03*
X27776Y21750D02*
D03*
X27776Y21250D02*
D03*
X28276Y21750D02*
D03*
X28276Y21250D02*
D03*
X28776Y21750D02*
D03*
X28776Y21250D02*
D03*
X29276Y21750D02*
D03*
X29276Y21250D02*
D03*
X29776Y21750D02*
D03*
X29776Y21250D02*
D03*
X30276Y21750D02*
D03*
X30276Y21250D02*
D03*
X30776Y21750D02*
D03*
X30776Y21250D02*
D03*
X31276Y21750D02*
D03*
X31276Y21250D02*
D03*
X31776Y21750D02*
D03*
X31776Y21250D02*
D03*
X32276Y21750D02*
D03*
X32276Y21250D02*
D03*
X32776Y21750D02*
D03*
X32776Y21250D02*
D03*
X33276Y21750D02*
D03*
X33276Y21250D02*
D03*
X33276Y24250D02*
D03*
X33276Y24750D02*
D03*
X32776Y24250D02*
D03*
X32776Y24750D02*
D03*
X32276Y24250D02*
D03*
X32276Y24750D02*
D03*
X31776Y24250D02*
D03*
X31776Y24750D02*
D03*
X31276Y24250D02*
D03*
X31276Y24750D02*
D03*
X30776Y24250D02*
D03*
X30776Y24750D02*
D03*
X30276Y24250D02*
D03*
X30276Y24750D02*
D03*
X29776Y24250D02*
D03*
X29776Y24750D02*
D03*
X29276Y24250D02*
D03*
X29276Y24750D02*
D03*
X28776Y24250D02*
D03*
X28776Y24750D02*
D03*
X28276Y24250D02*
D03*
X28276Y24750D02*
D03*
X27776Y24250D02*
D03*
X27776Y24750D02*
D03*
X27276Y24250D02*
D03*
X27276Y24750D02*
D03*
X26776Y24250D02*
D03*
X26776Y24750D02*
D03*
X26276Y24250D02*
D03*
X26276Y24750D02*
D03*
X25776Y24250D02*
D03*
X25776Y24750D02*
D03*
X25276Y24250D02*
D03*
X25276Y24750D02*
D03*
X24776Y24250D02*
D03*
X24776Y24750D02*
D03*
X24276Y24250D02*
D03*
X24276Y24750D02*
D03*
X23776Y24250D02*
D03*
X23776Y10250D02*
D03*
X23776Y9750D02*
D03*
X24276Y10250D02*
D03*
X24276Y9750D02*
D03*
X24776Y10250D02*
D03*
X24776Y9750D02*
D03*
X25276Y10250D02*
D03*
X25276Y9750D02*
D03*
X25776Y10250D02*
D03*
X25776Y9750D02*
D03*
X26276Y10250D02*
D03*
X26276Y9750D02*
D03*
X26776Y10250D02*
D03*
X26776Y9750D02*
D03*
X27276Y9750D02*
D03*
X27776Y9750D02*
D03*
X28276Y10250D02*
D03*
X28276Y9750D02*
D03*
X28776Y10250D02*
D03*
X28776Y9750D02*
D03*
X29276Y10250D02*
D03*
X29276Y9750D02*
D03*
X29776Y10250D02*
D03*
X29776Y9750D02*
D03*
X30276Y10250D02*
D03*
X30276Y9750D02*
D03*
X30776Y10250D02*
D03*
X30776Y9750D02*
D03*
X31276Y10250D02*
D03*
X31276Y9750D02*
D03*
X31776Y10250D02*
D03*
X31776Y9750D02*
D03*
X32276Y10250D02*
D03*
X32276Y9750D02*
D03*
X32776Y10250D02*
D03*
X32776Y9750D02*
D03*
X33276Y10250D02*
D03*
X27776Y10250D02*
D03*
X27276Y10250D02*
D03*
X33276Y7250D02*
D03*
X32776Y6750D02*
D03*
X32776Y7250D02*
D03*
X32276Y6750D02*
D03*
X32276Y7250D02*
D03*
X31776Y6750D02*
D03*
X31776Y7250D02*
D03*
X31276Y6750D02*
D03*
X31276Y7250D02*
D03*
X30776Y6750D02*
D03*
X30776Y7250D02*
D03*
X30276Y6750D02*
D03*
X30276Y7250D02*
D03*
X29776Y6750D02*
D03*
X29776Y7250D02*
D03*
X29276Y6750D02*
D03*
X29276Y7250D02*
D03*
X28776Y6750D02*
D03*
X28776Y7250D02*
D03*
X28276Y6750D02*
D03*
X28276Y7250D02*
D03*
X27776Y6750D02*
D03*
X27776Y7250D02*
D03*
X27276Y6750D02*
D03*
X27276Y7250D02*
D03*
X26776Y6750D02*
D03*
X26776Y7250D02*
D03*
X26276Y6750D02*
D03*
X26276Y7250D02*
D03*
X25776Y6750D02*
D03*
X25776Y7250D02*
D03*
X25276Y6750D02*
D03*
X25276Y7250D02*
D03*
X24776Y6750D02*
D03*
X24776Y7250D02*
D03*
X24276Y6750D02*
D03*
X24276Y7250D02*
D03*
X23776Y6750D02*
D03*
X23776Y7250D02*
D03*
X1776Y7250D02*
D03*
X1776Y6750D02*
D03*
X2276Y7250D02*
D03*
X2276Y6750D02*
D03*
X2776Y7250D02*
D03*
X2776Y6750D02*
D03*
X3276Y7250D02*
D03*
X3276Y6750D02*
D03*
X3776Y7250D02*
D03*
X3776Y6750D02*
D03*
X4276Y7250D02*
D03*
X4276Y6750D02*
D03*
X4776Y7250D02*
D03*
X4776Y6750D02*
D03*
X5276Y7250D02*
D03*
X5276Y6750D02*
D03*
X5776Y7250D02*
D03*
X5776Y6750D02*
D03*
X6276Y7250D02*
D03*
X6276Y6750D02*
D03*
X6776Y7250D02*
D03*
X6776Y6750D02*
D03*
X7276Y7250D02*
D03*
X7276Y6750D02*
D03*
X7776Y7250D02*
D03*
X7776Y6750D02*
D03*
X8276Y7250D02*
D03*
X8276Y6750D02*
D03*
X8776Y7250D02*
D03*
X1776Y21250D02*
D03*
X2276Y21750D02*
D03*
X2276Y21250D02*
D03*
X3776Y21750D02*
D03*
X3776Y21250D02*
D03*
X4276Y21750D02*
D03*
X4776Y21750D02*
D03*
X5276Y21750D02*
D03*
X5276Y21250D02*
D03*
X5776Y21750D02*
D03*
X5776Y21250D02*
D03*
X6276Y21750D02*
D03*
X6276Y21250D02*
D03*
X6776Y21750D02*
D03*
X6776Y21250D02*
D03*
X7276Y21750D02*
D03*
X7276Y21250D02*
D03*
X7776Y21750D02*
D03*
X7776Y21250D02*
D03*
X8276Y21750D02*
D03*
X8276Y21250D02*
D03*
X8776Y21750D02*
D03*
X8776Y21250D02*
D03*
X9276Y21750D02*
D03*
X9276Y21250D02*
D03*
X9776Y21750D02*
D03*
X9776Y21250D02*
D03*
X10276Y21750D02*
D03*
X10276Y21250D02*
D03*
X10776Y21750D02*
D03*
X10776Y21250D02*
D03*
X11276Y21750D02*
D03*
X11276Y21250D02*
D03*
X3276Y21750D02*
D03*
X2776Y21750D02*
D03*
X4276Y21250D02*
D03*
X4776Y21250D02*
D03*
X3276Y21250D02*
D03*
X2776Y21250D02*
D03*
D107*
X1776Y24750D02*
D03*
X23776Y21750D02*
D03*
X23776Y24750D02*
D03*
X33276Y9750D02*
D03*
X33276Y6750D02*
D03*
X8776Y6750D02*
D03*
X1776Y21750D02*
D03*
D108*
X89614Y14141D02*
D03*
X88250Y25500D02*
D03*
D109*
X84500Y19259D02*
D03*
X89824Y22261D02*
D03*
X89824Y21861D02*
D03*
X91595Y21602D02*
D03*
X91956Y21602D02*
D03*
X92317Y21602D02*
D03*
X89850Y12450D02*
D03*
X89850Y12850D02*
D03*
X91495Y13109D02*
D03*
X91856Y13109D02*
D03*
X92217Y13109D02*
D03*
X79222Y17407D02*
D03*
X79622Y17407D02*
D03*
X79700Y14900D02*
D03*
X79700Y15261D02*
D03*
X79700Y15622D02*
D03*
X42100Y14215D02*
D03*
X42100Y13985D02*
D03*
X42100Y15065D02*
D03*
X42100Y14835D02*
D03*
X42100Y15685D02*
D03*
X42100Y15915D02*
D03*
X57750Y600D02*
D03*
X13750Y49400D02*
D03*
X13750Y50400D02*
D03*
X22750Y49400D02*
D03*
X22750Y50400D02*
D03*
X89213Y49400D02*
D03*
X89213Y50400D02*
D03*
X80213Y50400D02*
D03*
X80213Y49400D02*
D03*
X24200Y35885D02*
D03*
X21300Y35885D02*
D03*
X55219Y48400D02*
D03*
X24200Y36115D02*
D03*
X21300Y36115D02*
D03*
X55219Y48900D02*
D03*
X53219Y48900D02*
D03*
X26315Y39615D02*
D03*
X53219Y48400D02*
D03*
X26315Y39385D02*
D03*
X50219Y46900D02*
D03*
X50719Y46900D02*
D03*
X47219Y46900D02*
D03*
X47719Y46900D02*
D03*
X20700Y40115D02*
D03*
X54219Y50400D02*
D03*
X20700Y39885D02*
D03*
X54219Y49900D02*
D03*
X23465Y40865D02*
D03*
X54219Y49400D02*
D03*
X23465Y40635D02*
D03*
X54219Y48900D02*
D03*
X48719Y48400D02*
D03*
X19800Y37385D02*
D03*
X48219Y48400D02*
D03*
X19800Y37615D02*
D03*
X48719Y46400D02*
D03*
X20300Y37115D02*
D03*
X49219Y46400D02*
D03*
X20300Y36885D02*
D03*
X49719Y48900D02*
D03*
X20800Y36385D02*
D03*
X49219Y48900D02*
D03*
X20800Y36615D02*
D03*
X50719Y46400D02*
D03*
X51219Y46400D02*
D03*
X52219Y46900D02*
D03*
X51719Y46900D02*
D03*
X45719Y46900D02*
D03*
X46219Y46900D02*
D03*
X46219Y48900D02*
D03*
X46719Y48900D02*
D03*
X50219Y48400D02*
D03*
X49719Y48400D02*
D03*
X44719Y46400D02*
D03*
X45219Y46400D02*
D03*
X5500Y4500D02*
D03*
X23000Y43500D02*
D03*
X1635Y50265D02*
D03*
X8250Y52750D02*
D03*
X41219Y45900D02*
D03*
X52219Y48900D02*
D03*
X52719Y48900D02*
D03*
X47219Y48400D02*
D03*
X46719Y48400D02*
D03*
X48719Y46900D02*
D03*
X49219Y46900D02*
D03*
X52219Y45400D02*
D03*
X51719Y45400D02*
D03*
X52219Y46400D02*
D03*
X36500Y35500D02*
D03*
X36250Y35750D02*
D03*
X36000Y36000D02*
D03*
X36750Y35250D02*
D03*
X37000Y35000D02*
D03*
X37250Y34750D02*
D03*
X37500Y34500D02*
D03*
X37750Y34250D02*
D03*
X38000Y34000D02*
D03*
X38250Y33750D02*
D03*
X50719Y45900D02*
D03*
X49219Y45900D02*
D03*
X48219Y46400D02*
D03*
X47719Y46400D02*
D03*
X29833Y44799D02*
D03*
X29803Y45144D02*
D03*
X38500Y20300D02*
D03*
X38500Y21300D02*
D03*
X23450Y25350D02*
D03*
X24276Y25750D02*
D03*
X21750Y21174D02*
D03*
X21350Y22000D02*
D03*
X32500Y15250D02*
D03*
X34250Y18750D02*
D03*
X61250Y50500D02*
D03*
X61250Y51000D02*
D03*
X5776Y26324D02*
D03*
X4000Y26000D02*
D03*
X4000Y25500D02*
D03*
X2276Y25750D02*
D03*
X1450Y25350D02*
D03*
X1450Y22350D02*
D03*
X2276Y22750D02*
D03*
X4250Y16500D02*
D03*
X1750Y17250D02*
D03*
X22250Y12000D02*
D03*
X24250Y12000D02*
D03*
X569Y5697D02*
D03*
X569Y5303D02*
D03*
X569Y4697D02*
D03*
X569Y4303D02*
D03*
X36900Y10085D02*
D03*
X44898Y23450D02*
D03*
X36900Y10315D02*
D03*
X44668Y23450D02*
D03*
X32544Y12950D02*
D03*
X33250Y12615D02*
D03*
X43487Y23450D02*
D03*
X33250Y12385D02*
D03*
X32544Y12050D02*
D03*
X43717Y23450D02*
D03*
X30844Y12635D02*
D03*
X30137Y12300D02*
D03*
X43127Y23450D02*
D03*
X30137Y13200D02*
D03*
X30844Y12865D02*
D03*
X42897Y23450D02*
D03*
X42306Y23450D02*
D03*
X27444Y13450D02*
D03*
X42536Y23450D02*
D03*
X27444Y12550D02*
D03*
X28150Y12885D02*
D03*
X28150Y13115D02*
D03*
X26700Y13700D02*
D03*
X51250Y2450D02*
D03*
X49500Y467D02*
D03*
X51000Y467D02*
D03*
X52250Y467D02*
D03*
X52520Y6476D02*
D03*
X52087Y6476D02*
D03*
X49843Y6949D02*
D03*
X51435Y5129D02*
D03*
X46763Y5200D02*
D03*
X46533Y5200D02*
D03*
X51825Y5371D02*
D03*
X51825Y5601D02*
D03*
X53583Y7264D02*
D03*
X44500Y12000D02*
D03*
X44500Y10750D02*
D03*
X42250Y6500D02*
D03*
X42750Y6500D02*
D03*
X43250Y6500D02*
D03*
X43750Y6500D02*
D03*
X47042Y11800D02*
D03*
X55354Y10925D02*
D03*
X53740Y10492D02*
D03*
X52008Y11398D02*
D03*
X51811Y11004D02*
D03*
X51614Y11398D02*
D03*
X51220Y11004D02*
D03*
X48858Y11004D02*
D03*
X49843Y10413D02*
D03*
X49646Y9626D02*
D03*
X49941Y9685D02*
D03*
X56732Y10217D02*
D03*
X56142Y10217D02*
D03*
X50827Y10925D02*
D03*
X55354Y10689D02*
D03*
X49252Y8307D02*
D03*
X49055Y7264D02*
D03*
X47874Y6870D02*
D03*
X49646Y11988D02*
D03*
X50394Y11004D02*
D03*
X48661Y9429D02*
D03*
X48819Y11398D02*
D03*
X55354Y12185D02*
D03*
X55354Y11791D02*
D03*
X55354Y11398D02*
D03*
X55354Y12776D02*
D03*
X55354Y13169D02*
D03*
X55354Y13563D02*
D03*
X53012Y13189D02*
D03*
X52992Y12776D02*
D03*
X52992Y12382D02*
D03*
X52992Y11988D02*
D03*
X52598Y11988D02*
D03*
X52205Y11988D02*
D03*
X52598Y13169D02*
D03*
X52598Y12382D02*
D03*
X52598Y12776D02*
D03*
X52205Y12382D02*
D03*
X52205Y12776D02*
D03*
X53976Y8504D02*
D03*
X56063Y6476D02*
D03*
X56457Y6476D02*
D03*
X55157Y6476D02*
D03*
X55551Y6476D02*
D03*
X47874Y6083D02*
D03*
X53976Y9488D02*
D03*
X54488Y6772D02*
D03*
X53976Y6516D02*
D03*
X51250Y3603D02*
D03*
X50750Y3603D02*
D03*
X50250Y3603D02*
D03*
X49750Y3603D02*
D03*
X49250Y3600D02*
D03*
X50750Y2503D02*
D03*
X50250Y2503D02*
D03*
X49750Y2503D02*
D03*
X49250Y2500D02*
D03*
X48268Y7264D02*
D03*
X48465Y11004D02*
D03*
X55551Y9685D02*
D03*
X48071Y11004D02*
D03*
X47874Y6476D02*
D03*
X55551Y8701D02*
D03*
X55551Y9291D02*
D03*
X51417Y12579D02*
D03*
X48661Y7264D02*
D03*
X46058Y9508D02*
D03*
X47042Y9500D02*
D03*
X46050Y11750D02*
D03*
X46058Y12842D02*
D03*
X48065Y9215D02*
D03*
X47635Y8185D02*
D03*
X48065Y8985D02*
D03*
X47865Y8185D02*
D03*
X47200Y8585D02*
D03*
X47200Y8815D02*
D03*
X45878Y8900D02*
D03*
X45648Y8900D02*
D03*
X56250Y4500D02*
D03*
X58250Y2250D02*
D03*
X58250Y2750D02*
D03*
X71250Y4126D02*
D03*
X59553Y2250D02*
D03*
X59553Y2750D02*
D03*
X60250Y2500D02*
D03*
X59553Y3750D02*
D03*
X58500Y950D02*
D03*
X52250Y3500D02*
D03*
X53750Y4250D02*
D03*
X53250Y4250D02*
D03*
X54720Y5565D02*
D03*
X53750Y5565D02*
D03*
X53500Y467D02*
D03*
X52750Y3250D02*
D03*
X52000Y4200D02*
D03*
X47047Y4500D02*
D03*
X46250Y4500D02*
D03*
X90598Y15126D02*
D03*
X89220Y14338D02*
D03*
X88433Y13225D02*
D03*
X88039Y13963D02*
D03*
X87646Y13963D02*
D03*
X87744Y15322D02*
D03*
X86957Y16720D02*
D03*
X86957Y17094D02*
D03*
X86957Y17468D02*
D03*
X86957Y17842D02*
D03*
X87331Y17842D02*
D03*
X87705Y17842D02*
D03*
X88079Y17842D02*
D03*
X88079Y17468D02*
D03*
X87705Y17468D02*
D03*
X87331Y17468D02*
D03*
X88079Y17094D02*
D03*
X87705Y17094D02*
D03*
X87331Y17094D02*
D03*
X88079Y16720D02*
D03*
X87705Y16720D02*
D03*
X87331Y16720D02*
D03*
X87154Y16208D02*
D03*
X86563Y16208D02*
D03*
X84693Y15519D02*
D03*
X86366Y16602D02*
D03*
X84299Y16011D02*
D03*
X84299Y16307D02*
D03*
X85480Y17291D02*
D03*
X85087Y17291D02*
D03*
X80759Y19967D02*
D03*
X80759Y19606D02*
D03*
X80759Y19245D02*
D03*
X80759Y18884D02*
D03*
X85854Y17980D02*
D03*
X85283Y19181D02*
D03*
X85283Y20362D02*
D03*
X85677Y20362D02*
D03*
X86071Y20362D02*
D03*
X86465Y20362D02*
D03*
X86760Y18374D02*
D03*
X86858Y20362D02*
D03*
X87154Y18374D02*
D03*
X87646Y20362D02*
D03*
X88039Y20362D02*
D03*
X88433Y21149D02*
D03*
X88433Y18275D02*
D03*
X89929Y19063D02*
D03*
X89555Y17685D02*
D03*
X89319Y17488D02*
D03*
X89319Y17094D02*
D03*
X89555Y16897D02*
D03*
X90205Y14732D02*
D03*
X84693Y17291D02*
D03*
X84693Y17685D02*
D03*
X84299Y17685D02*
D03*
X84299Y17291D02*
D03*
X27697Y43963D02*
D03*
X27323Y43963D02*
D03*
X27717Y45537D02*
D03*
X27323Y45537D02*
D03*
X27520Y45813D02*
D03*
X26139Y49798D02*
D03*
X26739Y49798D02*
D03*
X25539Y49798D02*
D03*
X27339Y49798D02*
D03*
X25748Y46325D02*
D03*
X28819Y46325D02*
D03*
X29488Y46818D02*
D03*
X29882Y46818D02*
D03*
X29488Y44789D02*
D03*
X61721Y30287D02*
D03*
X60933Y30287D02*
D03*
X58670Y29805D02*
D03*
X58493Y28279D02*
D03*
X56504Y27826D02*
D03*
X56524Y28220D02*
D03*
X56544Y28614D02*
D03*
X58433Y30031D02*
D03*
X58433Y30622D02*
D03*
X60599Y30582D02*
D03*
X57750Y29450D02*
D03*
X53355Y27334D02*
D03*
X51583Y27334D02*
D03*
X48138Y29874D02*
D03*
X48433Y30169D02*
D03*
X48433Y29578D02*
D03*
X47843Y29578D02*
D03*
X47843Y30169D02*
D03*
X47548Y29874D02*
D03*
X62223Y33683D02*
D03*
X62508Y32374D02*
D03*
X62508Y33122D02*
D03*
X60441Y34421D02*
D03*
X59259Y34571D02*
D03*
X59259Y34177D02*
D03*
X60540Y30287D02*
D03*
X60933Y35897D02*
D03*
X66016Y28614D02*
D03*
X65300Y25961D02*
D03*
X64750Y25961D02*
D03*
X64250Y25961D02*
D03*
X63750Y25961D02*
D03*
X67984Y24146D02*
D03*
X68516Y24146D02*
D03*
X53158Y25480D02*
D03*
X51760Y25480D02*
D03*
X49664Y28465D02*
D03*
X49132Y28465D02*
D03*
X12200Y1550D02*
D03*
X11950Y1300D02*
D03*
X12450Y1300D02*
D03*
X12700Y1550D02*
D03*
X9700Y3050D02*
D03*
X12700Y2050D02*
D03*
X12700Y2550D02*
D03*
X12700Y3050D02*
D03*
X2200Y49690D02*
D03*
X92496Y38327D02*
D03*
X38250Y27250D02*
D03*
X38250Y27750D02*
D03*
X37750Y27750D02*
D03*
X37750Y27250D02*
D03*
X38000Y27000D02*
D03*
X39000Y26750D02*
D03*
X40250Y27500D02*
D03*
X40250Y27900D02*
D03*
X40821Y29317D02*
D03*
X36963Y23157D02*
D03*
X36963Y23551D02*
D03*
X41230Y25043D02*
D03*
X40923Y25043D02*
D03*
X38894Y25750D02*
D03*
X40565Y25530D02*
D03*
X43307Y23841D02*
D03*
X43898Y23841D02*
D03*
X44488Y23841D02*
D03*
X45079Y23841D02*
D03*
X45669Y23841D02*
D03*
X46654Y23841D02*
D03*
X42126Y23841D02*
D03*
X42717Y23841D02*
D03*
X40565Y26144D02*
D03*
X40581Y26656D02*
D03*
X53104Y20258D02*
D03*
X82150Y11850D02*
D03*
X85150Y11850D02*
D03*
X68261Y11864D02*
D03*
X71261Y11864D02*
D03*
X68852Y15764D02*
D03*
X69836Y15764D02*
D03*
X71017Y15764D02*
D03*
X70011Y16264D02*
D03*
X69511Y16264D02*
D03*
X69011Y16264D02*
D03*
X68511Y16264D02*
D03*
X68011Y16764D02*
D03*
X69011Y16764D02*
D03*
X70011Y17264D02*
D03*
X69511Y17264D02*
D03*
X69011Y17264D02*
D03*
X68011Y16264D02*
D03*
X68511Y16764D02*
D03*
X78000Y2052D02*
D03*
X65011Y18764D02*
D03*
X67080Y18817D02*
D03*
X66261Y20264D02*
D03*
X68261Y19264D02*
D03*
X68458Y19014D02*
D03*
X68655Y19264D02*
D03*
X68852Y19014D02*
D03*
X69245Y19014D02*
D03*
X69048Y19264D02*
D03*
X69442Y19264D02*
D03*
X69639Y18764D02*
D03*
X69811Y20364D02*
D03*
X69511Y21264D02*
D03*
X73011Y19791D02*
D03*
X72011Y18514D02*
D03*
X66883Y13914D02*
D03*
X65761Y14514D02*
D03*
X68749Y12326D02*
D03*
X65761Y9514D02*
D03*
X66261Y9514D02*
D03*
X66761Y9514D02*
D03*
X67261Y9514D02*
D03*
X66061Y12514D02*
D03*
X66561Y12514D02*
D03*
X67061Y12514D02*
D03*
X67561Y12514D02*
D03*
X68011Y17264D02*
D03*
X70011Y16764D02*
D03*
X69511Y16764D02*
D03*
X68511Y17264D02*
D03*
X71261Y17264D02*
D03*
X71511Y17514D02*
D03*
X72011Y16998D02*
D03*
X72011Y15364D02*
D03*
X73361Y14086D02*
D03*
X73861Y14086D02*
D03*
X74361Y14086D02*
D03*
X74861Y14086D02*
D03*
X73661Y17086D02*
D03*
X74161Y17086D02*
D03*
X74661Y17086D02*
D03*
X75161Y17086D02*
D03*
X13175Y9247D02*
D03*
X13497Y8500D02*
D03*
X15926Y8817D02*
D03*
X16350Y8500D02*
D03*
X17448Y9250D02*
D03*
X19000Y5455D02*
D03*
X17250Y8700D02*
D03*
X15650Y6750D02*
D03*
X15000Y5900D02*
D03*
X16250Y3950D02*
D03*
X14453Y7550D02*
D03*
X14000Y8000D02*
D03*
X15400Y7000D02*
D03*
X15050Y6750D02*
D03*
X15050Y6400D02*
D03*
X14000Y6350D02*
D03*
X13400Y6950D02*
D03*
X18600Y6550D02*
D03*
X13600Y5900D02*
D03*
X13600Y5450D02*
D03*
X8969Y46581D02*
D03*
X85181Y43825D02*
D03*
X7307Y11407D02*
D03*
X7307Y10463D02*
D03*
X8448Y13493D02*
D03*
X8763Y13493D02*
D03*
X9078Y13493D02*
D03*
X9393Y13493D02*
D03*
X10337Y9007D02*
D03*
X4250Y15480D02*
D03*
X13250Y5500D02*
D03*
X13250Y3500D02*
D03*
X9078Y9150D02*
D03*
X9078Y8222D02*
D03*
X6352Y12352D02*
D03*
X7506Y12352D02*
D03*
X10022Y9000D02*
D03*
X10652Y9016D02*
D03*
X9000Y14500D02*
D03*
X9000Y14000D02*
D03*
X8969Y43825D02*
D03*
X1654Y36673D02*
D03*
X1654Y38327D02*
D03*
X4900Y37000D02*
D03*
X7000Y39400D02*
D03*
X5250Y37500D02*
D03*
X4565Y37500D02*
D03*
X6100Y40450D02*
D03*
X4876Y41000D02*
D03*
X88500Y48750D02*
D03*
X68766Y53185D02*
D03*
X68766Y52500D02*
D03*
X69500Y51000D02*
D03*
X68250Y53000D02*
D03*
X550Y41500D02*
D03*
X2450Y41500D02*
D03*
X550Y40000D02*
D03*
X2450Y40000D02*
D03*
X1500Y35000D02*
D03*
X1500Y34500D02*
D03*
X2000Y33750D02*
D03*
X2500Y33750D02*
D03*
X12650Y11950D02*
D03*
X14550Y11950D02*
D03*
X14550Y13250D02*
D03*
X12650Y13250D02*
D03*
X10507Y11722D02*
D03*
X10507Y11407D02*
D03*
X11860Y10463D02*
D03*
X11860Y10148D02*
D03*
X86350Y41700D02*
D03*
X86350Y41250D02*
D03*
X5494Y49650D02*
D03*
X15900Y1876D02*
D03*
X10250Y6500D02*
D03*
X8750Y11000D02*
D03*
X40000Y2065D02*
D03*
X49921Y6248D02*
D03*
X40000Y1835D02*
D03*
X49921Y6018D02*
D03*
X39057Y1000D02*
D03*
X39057Y2900D02*
D03*
X37757Y2900D02*
D03*
X37757Y1000D02*
D03*
X1565Y33100D02*
D03*
X12585Y15950D02*
D03*
X1335Y33100D02*
D03*
X12815Y15950D02*
D03*
X11100Y42750D02*
D03*
X9450Y41980D02*
D03*
X9100Y42750D02*
D03*
X90500Y48500D02*
D03*
X92500Y48500D02*
D03*
X90850Y49270D02*
D03*
X1250Y47750D02*
D03*
X38600Y13350D02*
D03*
X38200Y13350D02*
D03*
X37906Y8550D02*
D03*
X37906Y8250D02*
D03*
X37200Y9500D02*
D03*
X36800Y8950D02*
D03*
X23000Y11500D02*
D03*
X2350Y5500D02*
D03*
X5250Y34800D02*
D03*
X5253Y35197D02*
D03*
X4006Y34606D02*
D03*
X7900Y34803D02*
D03*
X7900Y35900D02*
D03*
X6000Y8480D02*
D03*
X2250Y16500D02*
D03*
X2750Y16750D02*
D03*
X9750Y10850D02*
D03*
X9980Y10850D02*
D03*
X8950Y3500D02*
D03*
X18600Y8000D02*
D03*
X10750Y4750D02*
D03*
X13000Y7500D02*
D03*
X34150Y6200D02*
D03*
X29552Y5100D02*
D03*
X30776Y5250D02*
D03*
X31052Y5100D02*
D03*
X31500Y5100D02*
D03*
X30000Y5100D02*
D03*
X30276Y5250D02*
D03*
X34750Y7250D02*
D03*
X35500Y7750D02*
D03*
X32552Y5100D02*
D03*
X36000Y8000D02*
D03*
X36394Y6894D02*
D03*
X36250Y8250D02*
D03*
X19500Y6750D02*
D03*
X21000Y5250D02*
D03*
X20750Y5000D02*
D03*
X28500Y5100D02*
D03*
X24276Y4750D02*
D03*
X26276Y6000D02*
D03*
X25776Y5750D02*
D03*
X24776Y5500D02*
D03*
X22750Y4750D02*
D03*
X28250Y4000D02*
D03*
X22250Y4500D02*
D03*
X21000Y8750D02*
D03*
X44250Y10500D02*
D03*
X43000Y10750D02*
D03*
X41250Y11250D02*
D03*
X33500Y9200D02*
D03*
X29500Y8750D02*
D03*
X35500Y9500D02*
D03*
X35500Y9000D02*
D03*
X35500Y10900D02*
D03*
X35500Y11400D02*
D03*
X36600Y11000D02*
D03*
X36757Y11707D02*
D03*
X42250Y25500D02*
D03*
X42250Y26000D02*
D03*
X39450Y27100D02*
D03*
X39450Y26750D02*
D03*
X44700Y26000D02*
D03*
X44700Y25750D02*
D03*
X44700Y25500D02*
D03*
X47244Y25250D02*
D03*
X45750Y25250D02*
D03*
X45750Y25750D02*
D03*
X45750Y26250D02*
D03*
X45500Y26500D02*
D03*
X47250Y26250D02*
D03*
X48300Y25500D02*
D03*
X45500Y27550D02*
D03*
X45750Y28000D02*
D03*
X45000Y28500D02*
D03*
X45000Y29000D02*
D03*
X40994Y28894D02*
D03*
X46700Y28750D02*
D03*
X46300Y28750D02*
D03*
X49550Y20400D02*
D03*
X50000Y20400D02*
D03*
X55356Y19956D02*
D03*
X56500Y19494D02*
D03*
X56050Y19494D02*
D03*
X54956Y18856D02*
D03*
X74409Y33741D02*
D03*
X36100Y28000D02*
D03*
X35550Y26550D02*
D03*
X35550Y26875D02*
D03*
X35150Y27200D02*
D03*
X35550Y27200D02*
D03*
X36900Y26450D02*
D03*
X35750Y30750D02*
D03*
X36000Y15250D02*
D03*
X45250Y7250D02*
D03*
X49606Y7919D02*
D03*
X45250Y6750D02*
D03*
X49606Y7689D02*
D03*
X51435Y4899D02*
D03*
X67080Y19750D02*
D03*
X68000Y21264D02*
D03*
X68000Y20764D02*
D03*
X68000Y20264D02*
D03*
X68000Y19764D02*
D03*
X63750Y17750D02*
D03*
X63500Y18000D02*
D03*
X63250Y18250D02*
D03*
X63000Y18500D02*
D03*
X35250Y15500D02*
D03*
X34750Y15500D02*
D03*
X35500Y15750D02*
D03*
X35000Y15750D02*
D03*
X37500Y22500D02*
D03*
X36750Y19250D02*
D03*
X33750Y19250D02*
D03*
X61632Y33683D02*
D03*
X46000Y22500D02*
D03*
X46000Y21750D02*
D03*
X45500Y20250D02*
D03*
X12421Y39250D02*
D03*
X36719Y49900D02*
D03*
X37219Y49400D02*
D03*
X36719Y47400D02*
D03*
X36219Y47400D02*
D03*
X36719Y46900D02*
D03*
X36219Y46900D02*
D03*
X37219Y47400D02*
D03*
X37219Y46900D02*
D03*
X37719Y46900D02*
D03*
X37719Y46400D02*
D03*
X38219Y46400D02*
D03*
X37219Y46400D02*
D03*
X36719Y46400D02*
D03*
X36219Y46400D02*
D03*
X36719Y45900D02*
D03*
X36219Y45400D02*
D03*
X37219Y45900D02*
D03*
X38719Y45900D02*
D03*
X38219Y45400D02*
D03*
X37719Y45400D02*
D03*
X39219Y45900D02*
D03*
X39219Y46400D02*
D03*
X38719Y46900D02*
D03*
X38219Y46900D02*
D03*
X38719Y47400D02*
D03*
X38219Y47900D02*
D03*
X38719Y48400D02*
D03*
X38219Y48900D02*
D03*
X38719Y49400D02*
D03*
X38219Y49900D02*
D03*
X39719Y49900D02*
D03*
X40219Y49400D02*
D03*
X39719Y48900D02*
D03*
X40219Y48400D02*
D03*
X39719Y47900D02*
D03*
X40219Y47400D02*
D03*
X39719Y46400D02*
D03*
X40219Y46400D02*
D03*
X39719Y45400D02*
D03*
X40219Y45400D02*
D03*
X40719Y45900D02*
D03*
X42719Y45900D02*
D03*
X43219Y45900D02*
D03*
X42219Y46900D02*
D03*
X41719Y47400D02*
D03*
X41219Y47900D02*
D03*
X41719Y48400D02*
D03*
X41219Y48900D02*
D03*
X41719Y49400D02*
D03*
X41219Y49900D02*
D03*
X42719Y49900D02*
D03*
X43219Y49400D02*
D03*
X42719Y48900D02*
D03*
X43219Y48400D02*
D03*
X42719Y47900D02*
D03*
X43219Y47400D02*
D03*
X43719Y46900D02*
D03*
X43719Y46400D02*
D03*
X43719Y45400D02*
D03*
X44219Y45400D02*
D03*
X45719Y45400D02*
D03*
X46219Y45400D02*
D03*
X44719Y45900D02*
D03*
X45219Y45900D02*
D03*
X44219Y46400D02*
D03*
X45219Y46900D02*
D03*
X45719Y46400D02*
D03*
X46219Y46400D02*
D03*
X46719Y45900D02*
D03*
X47219Y45900D02*
D03*
X47719Y45400D02*
D03*
X46719Y46900D02*
D03*
X46219Y47400D02*
D03*
X44719Y47400D02*
D03*
X44219Y47900D02*
D03*
X44719Y48400D02*
D03*
X44219Y48900D02*
D03*
X44719Y49400D02*
D03*
X44219Y49900D02*
D03*
X45719Y49900D02*
D03*
X46219Y49400D02*
D03*
X45719Y48900D02*
D03*
X46219Y48400D02*
D03*
X45719Y47900D02*
D03*
X47219Y49900D02*
D03*
X47719Y49400D02*
D03*
X47219Y48900D02*
D03*
X47719Y48400D02*
D03*
X47219Y47900D02*
D03*
X47719Y47400D02*
D03*
X48219Y46900D02*
D03*
X48219Y45400D02*
D03*
X48719Y45900D02*
D03*
X49719Y45400D02*
D03*
X50219Y45400D02*
D03*
X50219Y46400D02*
D03*
X49719Y46400D02*
D03*
X49719Y46900D02*
D03*
X49219Y47400D02*
D03*
X48719Y47900D02*
D03*
X49219Y48400D02*
D03*
X50219Y47900D02*
D03*
X50719Y48400D02*
D03*
X50719Y47400D02*
D03*
X51219Y46900D02*
D03*
X51719Y47900D02*
D03*
X52219Y48400D02*
D03*
X51219Y45900D02*
D03*
X51719Y46400D02*
D03*
X52719Y45900D02*
D03*
X53219Y45900D02*
D03*
X53219Y46900D02*
D03*
X52719Y46900D02*
D03*
X52219Y47900D02*
D03*
X53219Y47900D02*
D03*
X51719Y48900D02*
D03*
X48719Y49900D02*
D03*
X49219Y49400D02*
D03*
X48719Y48900D02*
D03*
X50219Y49900D02*
D03*
X50719Y49400D02*
D03*
X50219Y48900D02*
D03*
X51719Y49900D02*
D03*
X52219Y49400D02*
D03*
X53219Y49900D02*
D03*
X53219Y49400D02*
D03*
X53719Y45400D02*
D03*
X53719Y46400D02*
D03*
X54219Y46400D02*
D03*
X54219Y45400D02*
D03*
X54219Y47400D02*
D03*
X53719Y47400D02*
D03*
X53719Y48400D02*
D03*
X54219Y48400D02*
D03*
X53719Y49400D02*
D03*
X54719Y49400D02*
D03*
X54719Y49900D02*
D03*
X55219Y49900D02*
D03*
X55719Y49400D02*
D03*
X54719Y48900D02*
D03*
X54719Y47900D02*
D03*
X55219Y47900D02*
D03*
X55719Y48400D02*
D03*
X55719Y47400D02*
D03*
X55219Y46900D02*
D03*
X54719Y46900D02*
D03*
X55719Y46400D02*
D03*
X55219Y45900D02*
D03*
X54719Y45900D02*
D03*
X55719Y45400D02*
D03*
X55719Y48900D02*
D03*
X40219Y46900D02*
D03*
X38719Y46400D02*
D03*
X55219Y49400D02*
D03*
X55719Y45900D02*
D03*
X47719Y48900D02*
D03*
X48219Y48900D02*
D03*
X51219Y48900D02*
D03*
X50719Y48900D02*
D03*
X51219Y48400D02*
D03*
X51719Y48400D02*
D03*
X47219Y46400D02*
D03*
X46719Y46400D02*
D03*
X35900Y12370D02*
D03*
X35194Y12035D02*
D03*
X44308Y23450D02*
D03*
X35194Y12935D02*
D03*
X35900Y12600D02*
D03*
X44078Y23450D02*
D03*
X55469Y43650D02*
D03*
X11750Y25250D02*
D03*
X32276Y5250D02*
D03*
X28776Y5250D02*
D03*
X31776Y5250D02*
D03*
X29276Y5250D02*
D03*
X10250Y39500D02*
D03*
X21750Y9500D02*
D03*
X21500Y9750D02*
D03*
X60550Y27000D02*
D03*
X59752Y28909D02*
D03*
X60176Y26750D02*
D03*
X73750Y30750D02*
D03*
X74500Y31000D02*
D03*
X73000Y35250D02*
D03*
X65000Y35650D02*
D03*
X74376Y36726D02*
D03*
X75647Y34250D02*
D03*
X41732Y22500D02*
D03*
X49750Y24500D02*
D03*
X76125Y34250D02*
D03*
X47835Y25250D02*
D03*
X48032Y25050D02*
D03*
X48228Y24822D02*
D03*
X50000Y24750D02*
D03*
X36500Y22750D02*
D03*
X35750Y22750D02*
D03*
X89193Y23502D02*
D03*
X93130Y27439D02*
D03*
X89193Y31376D02*
D03*
X85256Y27439D02*
D03*
X85256Y39250D02*
D03*
X36500Y6500D02*
D03*
X34750Y6500D02*
D03*
X42100Y13135D02*
D03*
X42100Y13365D02*
D03*
X46000Y18500D02*
D03*
X45750Y18000D02*
D03*
X45500Y17500D02*
D03*
X46250Y17750D02*
D03*
X45250Y18250D02*
D03*
X45000Y17250D02*
D03*
X50750Y24250D02*
D03*
X51000Y24000D02*
D03*
X50750Y23750D02*
D03*
X56750Y24250D02*
D03*
X57000Y24000D02*
D03*
X56750Y23750D02*
D03*
X84700Y15200D02*
D03*
X85500Y15200D02*
D03*
X36335Y1485D02*
D03*
X36565Y1485D02*
D03*
X61500Y4750D02*
D03*
X61500Y4250D02*
D03*
X61250Y4500D02*
D03*
X58803Y4750D02*
D03*
X61000Y3500D02*
D03*
X57250Y5250D02*
D03*
X54992Y4750D02*
D03*
X67750Y1750D02*
D03*
X77000Y950D02*
D03*
X53740Y10807D02*
D03*
X23750Y46750D02*
D03*
X28050Y27200D02*
D03*
X50001Y8701D02*
D03*
X30459Y44159D02*
D03*
X28750Y26750D02*
D03*
X84102Y13752D02*
D03*
X83709Y13752D02*
D03*
X35750Y23100D02*
D03*
X36500Y23100D02*
D03*
X47750Y15950D02*
D03*
X56505Y21021D02*
D03*
X56055Y21021D02*
D03*
X27500Y29500D02*
D03*
X29169Y44500D02*
D03*
X34750Y26550D02*
D03*
X34750Y27200D02*
D03*
X35150Y26550D02*
D03*
X34750Y26875D02*
D03*
X35150Y26875D02*
D03*
X6250Y34250D02*
D03*
X58150Y32950D02*
D03*
X58150Y33400D02*
D03*
X58150Y33850D02*
D03*
X58150Y34300D02*
D03*
X39969Y52150D02*
D03*
X39469Y52150D02*
D03*
X38969Y52150D02*
D03*
X38469Y52150D02*
D03*
X37969Y52150D02*
D03*
X37469Y52150D02*
D03*
X36969Y52150D02*
D03*
X36469Y52150D02*
D03*
X35969Y52150D02*
D03*
X41719Y45400D02*
D03*
X42219Y45400D02*
D03*
X42219Y46400D02*
D03*
X41719Y46400D02*
D03*
X41219Y46400D02*
D03*
X40719Y46400D02*
D03*
X6500Y34000D02*
D03*
X41669Y52350D02*
D03*
X41969Y52150D02*
D03*
X8291Y3464D02*
D03*
X46550Y10355D02*
D03*
X46550Y10945D02*
D03*
X45861Y10650D02*
D03*
X47239Y10650D02*
D03*
X52750Y5014D02*
D03*
X52750Y5486D02*
D03*
X52750Y5250D02*
D03*
X52514Y5250D02*
D03*
X52986Y5250D02*
D03*
X46650Y6750D02*
D03*
X36719Y49400D02*
D03*
X36719Y48900D02*
D03*
X37219Y48900D02*
D03*
X36219Y49900D02*
D03*
X36219Y49400D02*
D03*
X36219Y48900D02*
D03*
X36219Y48400D02*
D03*
X37219Y47900D02*
D03*
X64200Y31200D02*
D03*
X64600Y31200D02*
D03*
X60100Y33550D02*
D03*
X60100Y33150D02*
D03*
X26700Y12300D02*
D03*
X27050Y11900D02*
D03*
X27056Y14100D02*
D03*
X29744Y11650D02*
D03*
X29394Y12050D02*
D03*
X29744Y13850D02*
D03*
X29394Y13450D02*
D03*
X32150Y11400D02*
D03*
X31800Y11800D02*
D03*
X32150Y13600D02*
D03*
X31800Y13200D02*
D03*
X34800Y13585D02*
D03*
X34450Y13185D02*
D03*
X34800Y11385D02*
D03*
X34450Y11785D02*
D03*
X59400Y28712D02*
D03*
X60648Y29007D02*
D03*
X61229Y29007D02*
D03*
X61809Y29007D02*
D03*
X61229Y28427D02*
D03*
X61229Y29588D02*
D03*
X53835Y31993D02*
D03*
X53835Y31593D02*
D03*
X59477Y30537D02*
D03*
X59077Y30537D02*
D03*
X50431Y28465D02*
D03*
X50963Y28465D02*
D03*
X56004Y33387D02*
D03*
X56004Y32856D02*
D03*
X56004Y34372D02*
D03*
X56004Y33840D02*
D03*
X62243Y31737D02*
D03*
X62774Y31737D02*
D03*
X59950Y27050D02*
D03*
X66402Y28122D02*
D03*
X80283Y17746D02*
D03*
X79883Y17746D02*
D03*
X82455Y17541D02*
D03*
X82455Y17941D02*
D03*
X82455Y16832D02*
D03*
X82450Y17200D02*
D03*
X84508Y13454D02*
D03*
X84876Y13459D02*
D03*
X85296Y13454D02*
D03*
X85663Y13459D02*
D03*
X86083Y13454D02*
D03*
X86451Y13459D02*
D03*
X86870Y13454D02*
D03*
X87238Y13459D02*
D03*
X51000Y1650D02*
D03*
X52550Y2550D02*
D03*
X53100Y2500D02*
D03*
X72250Y34500D02*
D03*
D110*
X52136Y9222D02*
D03*
X52589Y9222D02*
D03*
X52972Y9222D02*
D03*
X52589Y10059D02*
D03*
X52136Y10059D02*
D03*
X52589Y9675D02*
D03*
X52136Y9675D02*
D03*
X52972Y9675D02*
D03*
X52972Y8317D02*
D03*
X52136Y8317D02*
D03*
X52589Y8317D02*
D03*
X52136Y7933D02*
D03*
X52589Y7933D02*
D03*
X52972Y8770D02*
D03*
X52589Y8770D02*
D03*
X52136Y8770D02*
D03*
X51683Y8770D02*
D03*
X51230Y8770D02*
D03*
X50846Y8770D02*
D03*
X51230Y7933D02*
D03*
X51683Y7933D02*
D03*
X51230Y8317D02*
D03*
X51683Y8317D02*
D03*
X50846Y8317D02*
D03*
X50846Y9675D02*
D03*
X51683Y9675D02*
D03*
X51230Y9675D02*
D03*
X51683Y10059D02*
D03*
X51230Y10059D02*
D03*
X50846Y9222D02*
D03*
X51230Y9222D02*
D03*
X51683Y9222D02*
D03*
X10974Y1887D02*
D03*
X10580Y1887D02*
D03*
X10974Y2281D02*
D03*
X10580Y2281D02*
D03*
X16783Y6467D02*
D03*
X17217Y6467D02*
D03*
X16783Y6033D02*
D03*
X17217Y6033D02*
D03*
X37189Y30022D02*
D03*
X37189Y29628D02*
D03*
X36756Y30022D02*
D03*
X36756Y29628D02*
D03*
X36323Y29628D02*
D03*
X36323Y30022D02*
D03*
X36323Y29234D02*
D03*
X36756Y29234D02*
D03*
X37189Y29234D02*
D03*
X38055Y29234D02*
D03*
X38488Y29234D02*
D03*
X38921Y29234D02*
D03*
X38921Y30022D02*
D03*
X38921Y29628D02*
D03*
X38488Y29628D02*
D03*
X38488Y30022D02*
D03*
X38055Y29628D02*
D03*
X38055Y30022D02*
D03*
X37622Y30022D02*
D03*
X37622Y29628D02*
D03*
X37622Y29234D02*
D03*
M02*
