G04 Layer_Color=128*
%FSLAX24Y24*%
%MOIN*%
G70*
G01*
G75*
%ADD287C,0.0020*%
D287*
X92050Y11250D02*
X92450Y11250D01*
X92250Y11050D02*
X92250Y11450D01*
X92050Y10250D02*
X92450Y10250D01*
X92250Y10050D02*
X92250Y10450D01*
X92050Y9250D02*
X92450Y9250D01*
X92250Y9050D02*
X92250Y9450D01*
X92050Y8250D02*
X92450Y8250D01*
X92250Y8050D02*
X92250Y8450D01*
X92050Y7250D02*
X92450Y7250D01*
X92250Y7050D02*
X92250Y7450D01*
X92050Y6250D02*
X92450Y6250D01*
X92250Y6050D02*
X92250Y6450D01*
X92050Y5250D02*
X92450Y5250D01*
X92250Y5050D02*
X92250Y5450D01*
X92050Y4250D02*
X92450Y4250D01*
X92250Y4050D02*
X92250Y4450D01*
X2131Y51181D02*
X3381Y51181D01*
X2756Y50556D02*
X2756Y51806D01*
X90769Y51181D02*
X92019Y51181D01*
X91394Y50556D02*
X91394Y51806D01*
X90769Y2756D02*
X92019Y2756D01*
X91394Y2131D02*
X91394Y3381D01*
X2131Y2756D02*
X3381Y2756D01*
X2756Y2131D02*
X2756Y3381D01*
X58089Y48687D02*
X59152Y48687D01*
X58620Y48156D02*
X58620Y49219D01*
X33282Y48687D02*
X34345Y48687D01*
X33813Y48156D02*
X33813Y49219D01*
X56670Y46699D02*
X57170Y46699D01*
X56920Y46449D02*
X56920Y46949D01*
X35268Y47900D02*
X35768Y47900D01*
X35518Y47650D02*
X35518Y48150D01*
X45074Y3490D02*
X45389Y3490D01*
X45231Y3333D02*
X45231Y3648D01*
X47869Y3490D02*
X48263Y3490D01*
X48066Y3293D02*
X48066Y3687D01*
X45467Y3234D02*
X45625Y3234D01*
X45546Y3156D02*
X45546Y3313D01*
X45625Y2959D02*
X45782Y2959D01*
X45704Y2880D02*
X45704Y3037D01*
X45940Y2959D02*
X46097Y2959D01*
X46019Y2880D02*
X46019Y3037D01*
X46097Y3234D02*
X46255Y3234D01*
X46176Y3156D02*
X46176Y3313D01*
X46255Y2959D02*
X46412Y2959D01*
X46333Y2880D02*
X46333Y3037D01*
X46412Y3234D02*
X46570Y3234D01*
X46491Y3156D02*
X46491Y3313D01*
X46727Y3234D02*
X46885Y3234D01*
X46806Y3156D02*
X46806Y3313D01*
X46885Y2959D02*
X47042Y2959D01*
X46963Y2880D02*
X46963Y3037D01*
X47042Y3234D02*
X47200Y3234D01*
X47121Y3156D02*
X47121Y3313D01*
X47200Y2959D02*
X47357Y2959D01*
X47278Y2880D02*
X47278Y3037D01*
X47515Y2959D02*
X47672Y2959D01*
X47593Y2880D02*
X47593Y3037D01*
X47672Y3234D02*
X47830Y3234D01*
X47751Y3156D02*
X47751Y3313D01*
X44522Y2939D02*
X45152Y2939D01*
X44837Y2624D02*
X44837Y3254D01*
X44522Y1758D02*
X45152Y1758D01*
X44837Y1443D02*
X44837Y2073D01*
X48144Y2939D02*
X48774Y2939D01*
X48459Y2624D02*
X48459Y3254D01*
X48144Y1758D02*
X48774Y1758D01*
X48459Y1443D02*
X48459Y2073D01*
X9300Y37000D02*
X9700Y37000D01*
X9500Y36800D02*
X9500Y37200D01*
X8300Y37000D02*
X8700Y37000D01*
X8500Y36800D02*
X8500Y37200D01*
X7300Y37000D02*
X7700Y37000D01*
X7500Y36800D02*
X7500Y37200D01*
X10300Y37000D02*
X10700Y37000D01*
X10500Y36800D02*
X10500Y37200D01*
X82082Y49400D02*
X82482Y49400D01*
X82282Y49200D02*
X82282Y49600D01*
X83082Y49400D02*
X83482Y49400D01*
X83282Y49200D02*
X83282Y49600D01*
X84082Y49400D02*
X84482Y49400D01*
X84282Y49200D02*
X84282Y49600D01*
X87082Y49400D02*
X87482Y49400D01*
X87282Y49200D02*
X87282Y49600D01*
X86082Y49400D02*
X86482Y49400D01*
X86282Y49200D02*
X86282Y49600D01*
X85082Y49400D02*
X85482Y49400D01*
X85282Y49200D02*
X85282Y49600D01*
X85082Y50400D02*
X85482Y50400D01*
X85282Y50200D02*
X85282Y50600D01*
X86082Y50400D02*
X86482Y50400D01*
X86282Y50200D02*
X86282Y50600D01*
X87082Y50400D02*
X87482Y50400D01*
X87282Y50200D02*
X87282Y50600D01*
X84082Y50400D02*
X84482Y50400D01*
X84282Y50200D02*
X84282Y50600D01*
X83082Y50400D02*
X83482Y50400D01*
X83282Y50200D02*
X83282Y50600D01*
X82082Y50400D02*
X82482Y50400D01*
X82282Y50200D02*
X82282Y50600D01*
X73082Y49400D02*
X73482Y49400D01*
X73282Y49200D02*
X73282Y49600D01*
X74082Y49400D02*
X74482Y49400D01*
X74282Y49200D02*
X74282Y49600D01*
X75082Y49400D02*
X75482Y49400D01*
X75282Y49200D02*
X75282Y49600D01*
X78082Y49400D02*
X78482Y49400D01*
X78282Y49200D02*
X78282Y49600D01*
X77082Y49400D02*
X77482Y49400D01*
X77282Y49200D02*
X77282Y49600D01*
X76082Y49400D02*
X76482Y49400D01*
X76282Y49200D02*
X76282Y49600D01*
X76082Y50400D02*
X76482Y50400D01*
X76282Y50200D02*
X76282Y50600D01*
X77082Y50400D02*
X77482Y50400D01*
X77282Y50200D02*
X77282Y50600D01*
X78082Y50400D02*
X78482Y50400D01*
X78282Y50200D02*
X78282Y50600D01*
X75082Y50400D02*
X75482Y50400D01*
X75282Y50200D02*
X75282Y50600D01*
X74082Y50400D02*
X74482Y50400D01*
X74282Y50200D02*
X74282Y50600D01*
X73082Y50400D02*
X73482Y50400D01*
X73282Y50200D02*
X73282Y50600D01*
X15619Y49400D02*
X16019Y49400D01*
X15819Y49200D02*
X15819Y49600D01*
X16619Y49400D02*
X17019Y49400D01*
X16819Y49200D02*
X16819Y49600D01*
X17619Y49400D02*
X18019Y49400D01*
X17819Y49200D02*
X17819Y49600D01*
X20619Y49400D02*
X21019Y49400D01*
X20819Y49200D02*
X20819Y49600D01*
X19619Y49400D02*
X20019Y49400D01*
X19819Y49200D02*
X19819Y49600D01*
X18619Y49400D02*
X19019Y49400D01*
X18819Y49200D02*
X18819Y49600D01*
X18619Y50400D02*
X19019Y50400D01*
X18819Y50200D02*
X18819Y50600D01*
X19619Y50400D02*
X20019Y50400D01*
X19819Y50200D02*
X19819Y50600D01*
X20619Y50400D02*
X21019Y50400D01*
X20819Y50200D02*
X20819Y50600D01*
X17619Y50400D02*
X18019Y50400D01*
X17819Y50200D02*
X17819Y50600D01*
X16619Y50400D02*
X17019Y50400D01*
X16819Y50200D02*
X16819Y50600D01*
X15619Y50400D02*
X16019Y50400D01*
X15819Y50200D02*
X15819Y50600D01*
X6619Y49400D02*
X7019Y49400D01*
X6819Y49200D02*
X6819Y49600D01*
X7619Y49400D02*
X8019Y49400D01*
X7819Y49200D02*
X7819Y49600D01*
X8619Y49400D02*
X9019Y49400D01*
X8819Y49200D02*
X8819Y49600D01*
X11619Y49400D02*
X12019Y49400D01*
X11819Y49200D02*
X11819Y49600D01*
X10619Y49400D02*
X11019Y49400D01*
X10819Y49200D02*
X10819Y49600D01*
X9619Y49400D02*
X10019Y49400D01*
X9819Y49200D02*
X9819Y49600D01*
X9619Y50400D02*
X10019Y50400D01*
X9819Y50200D02*
X9819Y50600D01*
X10619Y50400D02*
X11019Y50400D01*
X10819Y50200D02*
X10819Y50600D01*
X11619Y50400D02*
X12019Y50400D01*
X11819Y50200D02*
X11819Y50600D01*
X8619Y50400D02*
X9019Y50400D01*
X8819Y50200D02*
X8819Y50600D01*
X7619Y50400D02*
X8019Y50400D01*
X7819Y50200D02*
X7819Y50600D01*
X6619Y50400D02*
X7019Y50400D01*
X6819Y50200D02*
X6819Y50600D01*
X773Y50580D02*
X1127Y50580D01*
X950Y50403D02*
X950Y50757D01*
X773Y49400D02*
X1127Y49400D01*
X950Y49223D02*
X950Y49577D01*
X6783Y44317D02*
X7276Y44317D01*
X7030Y44071D02*
X7030Y44563D01*
X6783Y46089D02*
X7276Y46089D01*
X7030Y45843D02*
X7030Y46335D01*
X6488Y42900D02*
X7512Y42900D01*
X7000Y42388D02*
X7000Y43412D01*
X6488Y47506D02*
X7512Y47506D01*
X7000Y46994D02*
X7000Y48018D01*
X6797Y31862D02*
X7427Y31862D01*
X7112Y31547D02*
X7112Y32177D01*
X2073Y27138D02*
X2703Y27138D01*
X2388Y26823D02*
X2388Y27453D01*
X5360Y33043D02*
X5715Y33043D01*
X5537Y32866D02*
X5537Y33220D01*
X4573Y33043D02*
X4927Y33043D01*
X4750Y32866D02*
X4750Y33220D01*
X3785Y33043D02*
X4140Y33043D01*
X3963Y32866D02*
X3963Y33220D01*
X1030Y30287D02*
X1384Y30287D01*
X1207Y30110D02*
X1207Y30465D01*
X1030Y28713D02*
X1384Y28713D01*
X1207Y28535D02*
X1207Y28890D01*
X1030Y29500D02*
X1384Y29500D01*
X1207Y29323D02*
X1207Y29677D01*
X70061Y9264D02*
X70461Y9264D01*
X70261Y9064D02*
X70261Y9464D01*
X69061Y9264D02*
X69461Y9264D01*
X69261Y9064D02*
X69261Y9464D01*
X73939Y5241D02*
X74608Y5241D01*
X74274Y4907D02*
X74274Y5576D01*
X73939Y2485D02*
X74608Y2485D01*
X74274Y2151D02*
X74274Y2820D01*
X82950Y9250D02*
X83350Y9250D01*
X83150Y9050D02*
X83150Y9450D01*
X83950Y9250D02*
X84350Y9250D01*
X84150Y9050D02*
X84150Y9450D01*
X11637Y24500D02*
X12167Y24500D01*
X11902Y24235D02*
X11902Y24765D01*
X885Y24500D02*
X1415Y24500D01*
X1150Y24235D02*
X1150Y24765D01*
X11151Y24250D02*
X11401Y24250D01*
X11276Y24125D02*
X11276Y24375D01*
X11151Y24750D02*
X11401Y24750D01*
X11276Y24625D02*
X11276Y24875D01*
X10651Y24250D02*
X10901Y24250D01*
X10776Y24125D02*
X10776Y24375D01*
X10651Y24750D02*
X10901Y24750D01*
X10776Y24625D02*
X10776Y24875D01*
X10151Y24250D02*
X10401Y24250D01*
X10276Y24125D02*
X10276Y24375D01*
X10151Y24750D02*
X10401Y24750D01*
X10276Y24625D02*
X10276Y24875D01*
X9651Y24250D02*
X9901Y24250D01*
X9776Y24125D02*
X9776Y24375D01*
X9651Y24750D02*
X9901Y24750D01*
X9776Y24625D02*
X9776Y24875D01*
X9151Y24250D02*
X9401Y24250D01*
X9276Y24125D02*
X9276Y24375D01*
X9151Y24750D02*
X9401Y24750D01*
X9276Y24625D02*
X9276Y24875D01*
X8651Y24250D02*
X8901Y24250D01*
X8776Y24125D02*
X8776Y24375D01*
X8651Y24750D02*
X8901Y24750D01*
X8776Y24625D02*
X8776Y24875D01*
X8151Y24250D02*
X8401Y24250D01*
X8276Y24125D02*
X8276Y24375D01*
X8151Y24750D02*
X8401Y24750D01*
X8276Y24625D02*
X8276Y24875D01*
X7651Y24250D02*
X7901Y24250D01*
X7776Y24125D02*
X7776Y24375D01*
X7651Y24750D02*
X7901Y24750D01*
X7776Y24625D02*
X7776Y24875D01*
X7151Y24250D02*
X7401Y24250D01*
X7276Y24125D02*
X7276Y24375D01*
X7151Y24750D02*
X7401Y24750D01*
X7276Y24625D02*
X7276Y24875D01*
X6651Y24250D02*
X6901Y24250D01*
X6776Y24125D02*
X6776Y24375D01*
X6651Y24750D02*
X6901Y24750D01*
X6776Y24625D02*
X6776Y24875D01*
X6151Y24250D02*
X6401Y24250D01*
X6276Y24125D02*
X6276Y24375D01*
X6151Y24750D02*
X6401Y24750D01*
X6276Y24625D02*
X6276Y24875D01*
X5651Y24250D02*
X5901Y24250D01*
X5776Y24125D02*
X5776Y24375D01*
X5651Y24750D02*
X5901Y24750D01*
X5776Y24625D02*
X5776Y24875D01*
X5151Y24250D02*
X5401Y24250D01*
X5276Y24125D02*
X5276Y24375D01*
X5151Y24750D02*
X5401Y24750D01*
X5276Y24625D02*
X5276Y24875D01*
X4651Y24250D02*
X4901Y24250D01*
X4776Y24125D02*
X4776Y24375D01*
X4651Y24750D02*
X4901Y24750D01*
X4776Y24625D02*
X4776Y24875D01*
X4151Y24250D02*
X4401Y24250D01*
X4276Y24125D02*
X4276Y24375D01*
X4151Y24750D02*
X4401Y24750D01*
X4276Y24625D02*
X4276Y24875D01*
X3651Y24250D02*
X3901Y24250D01*
X3776Y24125D02*
X3776Y24375D01*
X3651Y24750D02*
X3901Y24750D01*
X3776Y24625D02*
X3776Y24875D01*
X2151Y24250D02*
X2401Y24250D01*
X2276Y24125D02*
X2276Y24375D01*
X2151Y24750D02*
X2401Y24750D01*
X2276Y24625D02*
X2276Y24875D01*
X1651Y24250D02*
X1901Y24250D01*
X1776Y24125D02*
X1776Y24375D01*
X1651Y24750D02*
X1901Y24750D01*
X1776Y24625D02*
X1776Y24875D01*
X2651Y24750D02*
X2901Y24750D01*
X2776Y24625D02*
X2776Y24875D01*
X3151Y24750D02*
X3401Y24750D01*
X3276Y24625D02*
X3276Y24875D01*
X2651Y24250D02*
X2901Y24250D01*
X2776Y24125D02*
X2776Y24375D01*
X3151Y24250D02*
X3401Y24250D01*
X3276Y24125D02*
X3276Y24375D01*
X23651Y21750D02*
X23901Y21750D01*
X23776Y21625D02*
X23776Y21875D01*
X23651Y21250D02*
X23901Y21250D01*
X23776Y21125D02*
X23776Y21375D01*
X24151Y21750D02*
X24401Y21750D01*
X24276Y21625D02*
X24276Y21875D01*
X24151Y21250D02*
X24401Y21250D01*
X24276Y21125D02*
X24276Y21375D01*
X24651Y21750D02*
X24901Y21750D01*
X24776Y21625D02*
X24776Y21875D01*
X24651Y21250D02*
X24901Y21250D01*
X24776Y21125D02*
X24776Y21375D01*
X25151Y21750D02*
X25401Y21750D01*
X25276Y21625D02*
X25276Y21875D01*
X25151Y21250D02*
X25401Y21250D01*
X25276Y21125D02*
X25276Y21375D01*
X25651Y21750D02*
X25901Y21750D01*
X25776Y21625D02*
X25776Y21875D01*
X25651Y21250D02*
X25901Y21250D01*
X25776Y21125D02*
X25776Y21375D01*
X26151Y21750D02*
X26401Y21750D01*
X26276Y21625D02*
X26276Y21875D01*
X26151Y21250D02*
X26401Y21250D01*
X26276Y21125D02*
X26276Y21375D01*
X26651Y21750D02*
X26901Y21750D01*
X26776Y21625D02*
X26776Y21875D01*
X26651Y21250D02*
X26901Y21250D01*
X26776Y21125D02*
X26776Y21375D01*
X27151Y21750D02*
X27401Y21750D01*
X27276Y21625D02*
X27276Y21875D01*
X27151Y21250D02*
X27401Y21250D01*
X27276Y21125D02*
X27276Y21375D01*
X27651Y21750D02*
X27901Y21750D01*
X27776Y21625D02*
X27776Y21875D01*
X27651Y21250D02*
X27901Y21250D01*
X27776Y21125D02*
X27776Y21375D01*
X28151Y21750D02*
X28401Y21750D01*
X28276Y21625D02*
X28276Y21875D01*
X28151Y21250D02*
X28401Y21250D01*
X28276Y21125D02*
X28276Y21375D01*
X28651Y21750D02*
X28901Y21750D01*
X28776Y21625D02*
X28776Y21875D01*
X28651Y21250D02*
X28901Y21250D01*
X28776Y21125D02*
X28776Y21375D01*
X29151Y21750D02*
X29401Y21750D01*
X29276Y21625D02*
X29276Y21875D01*
X29151Y21250D02*
X29401Y21250D01*
X29276Y21125D02*
X29276Y21375D01*
X29651Y21750D02*
X29901Y21750D01*
X29776Y21625D02*
X29776Y21875D01*
X29651Y21250D02*
X29901Y21250D01*
X29776Y21125D02*
X29776Y21375D01*
X30151Y21750D02*
X30401Y21750D01*
X30276Y21625D02*
X30276Y21875D01*
X30151Y21250D02*
X30401Y21250D01*
X30276Y21125D02*
X30276Y21375D01*
X30651Y21750D02*
X30901Y21750D01*
X30776Y21625D02*
X30776Y21875D01*
X30651Y21250D02*
X30901Y21250D01*
X30776Y21125D02*
X30776Y21375D01*
X31151Y21750D02*
X31401Y21750D01*
X31276Y21625D02*
X31276Y21875D01*
X31151Y21250D02*
X31401Y21250D01*
X31276Y21125D02*
X31276Y21375D01*
X31651Y21750D02*
X31901Y21750D01*
X31776Y21625D02*
X31776Y21875D01*
X31651Y21250D02*
X31901Y21250D01*
X31776Y21125D02*
X31776Y21375D01*
X32151Y21750D02*
X32401Y21750D01*
X32276Y21625D02*
X32276Y21875D01*
X32151Y21250D02*
X32401Y21250D01*
X32276Y21125D02*
X32276Y21375D01*
X32651Y21750D02*
X32901Y21750D01*
X32776Y21625D02*
X32776Y21875D01*
X32651Y21250D02*
X32901Y21250D01*
X32776Y21125D02*
X32776Y21375D01*
X33151Y21750D02*
X33401Y21750D01*
X33276Y21625D02*
X33276Y21875D01*
X33151Y21250D02*
X33401Y21250D01*
X33276Y21125D02*
X33276Y21375D01*
X22885Y21500D02*
X23415Y21500D01*
X23150Y21235D02*
X23150Y21765D01*
X33637Y21500D02*
X34167Y21500D01*
X33902Y21235D02*
X33902Y21765D01*
X33637Y24500D02*
X34167Y24500D01*
X33902Y24235D02*
X33902Y24765D01*
X22885Y24500D02*
X23415Y24500D01*
X23150Y24235D02*
X23150Y24765D01*
X33151Y24250D02*
X33401Y24250D01*
X33276Y24125D02*
X33276Y24375D01*
X33151Y24750D02*
X33401Y24750D01*
X33276Y24625D02*
X33276Y24875D01*
X32651Y24250D02*
X32901Y24250D01*
X32776Y24125D02*
X32776Y24375D01*
X32651Y24750D02*
X32901Y24750D01*
X32776Y24625D02*
X32776Y24875D01*
X32151Y24250D02*
X32401Y24250D01*
X32276Y24125D02*
X32276Y24375D01*
X32151Y24750D02*
X32401Y24750D01*
X32276Y24625D02*
X32276Y24875D01*
X31651Y24250D02*
X31901Y24250D01*
X31776Y24125D02*
X31776Y24375D01*
X31651Y24750D02*
X31901Y24750D01*
X31776Y24625D02*
X31776Y24875D01*
X31151Y24250D02*
X31401Y24250D01*
X31276Y24125D02*
X31276Y24375D01*
X31151Y24750D02*
X31401Y24750D01*
X31276Y24625D02*
X31276Y24875D01*
X30651Y24250D02*
X30901Y24250D01*
X30776Y24125D02*
X30776Y24375D01*
X30651Y24750D02*
X30901Y24750D01*
X30776Y24625D02*
X30776Y24875D01*
X30151Y24250D02*
X30401Y24250D01*
X30276Y24125D02*
X30276Y24375D01*
X30151Y24750D02*
X30401Y24750D01*
X30276Y24625D02*
X30276Y24875D01*
X29651Y24250D02*
X29901Y24250D01*
X29776Y24125D02*
X29776Y24375D01*
X29651Y24750D02*
X29901Y24750D01*
X29776Y24625D02*
X29776Y24875D01*
X29151Y24250D02*
X29401Y24250D01*
X29276Y24125D02*
X29276Y24375D01*
X29151Y24750D02*
X29401Y24750D01*
X29276Y24625D02*
X29276Y24875D01*
X28651Y24250D02*
X28901Y24250D01*
X28776Y24125D02*
X28776Y24375D01*
X28651Y24750D02*
X28901Y24750D01*
X28776Y24625D02*
X28776Y24875D01*
X28151Y24250D02*
X28401Y24250D01*
X28276Y24125D02*
X28276Y24375D01*
X28151Y24750D02*
X28401Y24750D01*
X28276Y24625D02*
X28276Y24875D01*
X27651Y24250D02*
X27901Y24250D01*
X27776Y24125D02*
X27776Y24375D01*
X27651Y24750D02*
X27901Y24750D01*
X27776Y24625D02*
X27776Y24875D01*
X27151Y24250D02*
X27401Y24250D01*
X27276Y24125D02*
X27276Y24375D01*
X27151Y24750D02*
X27401Y24750D01*
X27276Y24625D02*
X27276Y24875D01*
X26651Y24250D02*
X26901Y24250D01*
X26776Y24125D02*
X26776Y24375D01*
X26651Y24750D02*
X26901Y24750D01*
X26776Y24625D02*
X26776Y24875D01*
X26151Y24250D02*
X26401Y24250D01*
X26276Y24125D02*
X26276Y24375D01*
X26151Y24750D02*
X26401Y24750D01*
X26276Y24625D02*
X26276Y24875D01*
X25651Y24250D02*
X25901Y24250D01*
X25776Y24125D02*
X25776Y24375D01*
X25651Y24750D02*
X25901Y24750D01*
X25776Y24625D02*
X25776Y24875D01*
X25151Y24250D02*
X25401Y24250D01*
X25276Y24125D02*
X25276Y24375D01*
X25151Y24750D02*
X25401Y24750D01*
X25276Y24625D02*
X25276Y24875D01*
X24651Y24250D02*
X24901Y24250D01*
X24776Y24125D02*
X24776Y24375D01*
X24651Y24750D02*
X24901Y24750D01*
X24776Y24625D02*
X24776Y24875D01*
X24151Y24250D02*
X24401Y24250D01*
X24276Y24125D02*
X24276Y24375D01*
X24151Y24750D02*
X24401Y24750D01*
X24276Y24625D02*
X24276Y24875D01*
X23651Y24250D02*
X23901Y24250D01*
X23776Y24125D02*
X23776Y24375D01*
X23651Y24750D02*
X23901Y24750D01*
X23776Y24625D02*
X23776Y24875D01*
X89539Y14141D02*
X89689Y14141D01*
X89614Y14066D02*
X89614Y14216D01*
X22885Y10000D02*
X23415Y10000D01*
X23150Y9735D02*
X23150Y10265D01*
X33637Y10000D02*
X34167Y10000D01*
X33902Y9735D02*
X33902Y10265D01*
X23651Y10250D02*
X23901Y10250D01*
X23776Y10125D02*
X23776Y10375D01*
X23651Y9750D02*
X23901Y9750D01*
X23776Y9625D02*
X23776Y9875D01*
X24151Y10250D02*
X24401Y10250D01*
X24276Y10125D02*
X24276Y10375D01*
X24151Y9750D02*
X24401Y9750D01*
X24276Y9625D02*
X24276Y9875D01*
X24651Y10250D02*
X24901Y10250D01*
X24776Y10125D02*
X24776Y10375D01*
X24651Y9750D02*
X24901Y9750D01*
X24776Y9625D02*
X24776Y9875D01*
X25151Y10250D02*
X25401Y10250D01*
X25276Y10125D02*
X25276Y10375D01*
X25151Y9750D02*
X25401Y9750D01*
X25276Y9625D02*
X25276Y9875D01*
X25651Y10250D02*
X25901Y10250D01*
X25776Y10125D02*
X25776Y10375D01*
X25651Y9750D02*
X25901Y9750D01*
X25776Y9625D02*
X25776Y9875D01*
X26151Y10250D02*
X26401Y10250D01*
X26276Y10125D02*
X26276Y10375D01*
X26151Y9750D02*
X26401Y9750D01*
X26276Y9625D02*
X26276Y9875D01*
X26651Y10250D02*
X26901Y10250D01*
X26776Y10125D02*
X26776Y10375D01*
X26651Y9750D02*
X26901Y9750D01*
X26776Y9625D02*
X26776Y9875D01*
X27151Y9750D02*
X27401Y9750D01*
X27276Y9625D02*
X27276Y9875D01*
X27651Y9750D02*
X27901Y9750D01*
X27776Y9625D02*
X27776Y9875D01*
X28151Y10250D02*
X28401Y10250D01*
X28276Y10125D02*
X28276Y10375D01*
X28151Y9750D02*
X28401Y9750D01*
X28276Y9625D02*
X28276Y9875D01*
X28651Y10250D02*
X28901Y10250D01*
X28776Y10125D02*
X28776Y10375D01*
X28651Y9750D02*
X28901Y9750D01*
X28776Y9625D02*
X28776Y9875D01*
X29151Y10250D02*
X29401Y10250D01*
X29276Y10125D02*
X29276Y10375D01*
X29151Y9750D02*
X29401Y9750D01*
X29276Y9625D02*
X29276Y9875D01*
X29651Y10250D02*
X29901Y10250D01*
X29776Y10125D02*
X29776Y10375D01*
X29651Y9750D02*
X29901Y9750D01*
X29776Y9625D02*
X29776Y9875D01*
X30151Y10250D02*
X30401Y10250D01*
X30276Y10125D02*
X30276Y10375D01*
X30151Y9750D02*
X30401Y9750D01*
X30276Y9625D02*
X30276Y9875D01*
X30651Y10250D02*
X30901Y10250D01*
X30776Y10125D02*
X30776Y10375D01*
X30651Y9750D02*
X30901Y9750D01*
X30776Y9625D02*
X30776Y9875D01*
X31151Y10250D02*
X31401Y10250D01*
X31276Y10125D02*
X31276Y10375D01*
X31151Y9750D02*
X31401Y9750D01*
X31276Y9625D02*
X31276Y9875D01*
X31651Y10250D02*
X31901Y10250D01*
X31776Y10125D02*
X31776Y10375D01*
X31651Y9750D02*
X31901Y9750D01*
X31776Y9625D02*
X31776Y9875D01*
X32151Y10250D02*
X32401Y10250D01*
X32276Y10125D02*
X32276Y10375D01*
X32151Y9750D02*
X32401Y9750D01*
X32276Y9625D02*
X32276Y9875D01*
X32651Y10250D02*
X32901Y10250D01*
X32776Y10125D02*
X32776Y10375D01*
X32651Y9750D02*
X32901Y9750D01*
X32776Y9625D02*
X32776Y9875D01*
X33151Y10250D02*
X33401Y10250D01*
X33276Y10125D02*
X33276Y10375D01*
X33151Y9750D02*
X33401Y9750D01*
X33276Y9625D02*
X33276Y9875D01*
X27651Y10250D02*
X27901Y10250D01*
X27776Y10125D02*
X27776Y10375D01*
X27151Y10250D02*
X27401Y10250D01*
X27276Y10125D02*
X27276Y10375D01*
X33151Y6750D02*
X33401Y6750D01*
X33276Y6625D02*
X33276Y6875D01*
X33151Y7250D02*
X33401Y7250D01*
X33276Y7125D02*
X33276Y7375D01*
X32651Y6750D02*
X32901Y6750D01*
X32776Y6625D02*
X32776Y6875D01*
X32651Y7250D02*
X32901Y7250D01*
X32776Y7125D02*
X32776Y7375D01*
X32151Y6750D02*
X32401Y6750D01*
X32276Y6625D02*
X32276Y6875D01*
X32151Y7250D02*
X32401Y7250D01*
X32276Y7125D02*
X32276Y7375D01*
X31651Y6750D02*
X31901Y6750D01*
X31776Y6625D02*
X31776Y6875D01*
X31651Y7250D02*
X31901Y7250D01*
X31776Y7125D02*
X31776Y7375D01*
X31151Y6750D02*
X31401Y6750D01*
X31276Y6625D02*
X31276Y6875D01*
X31151Y7250D02*
X31401Y7250D01*
X31276Y7125D02*
X31276Y7375D01*
X30651Y6750D02*
X30901Y6750D01*
X30776Y6625D02*
X30776Y6875D01*
X30651Y7250D02*
X30901Y7250D01*
X30776Y7125D02*
X30776Y7375D01*
X30151Y6750D02*
X30401Y6750D01*
X30276Y6625D02*
X30276Y6875D01*
X30151Y7250D02*
X30401Y7250D01*
X30276Y7125D02*
X30276Y7375D01*
X29651Y6750D02*
X29901Y6750D01*
X29776Y6625D02*
X29776Y6875D01*
X29651Y7250D02*
X29901Y7250D01*
X29776Y7125D02*
X29776Y7375D01*
X29151Y6750D02*
X29401Y6750D01*
X29276Y6625D02*
X29276Y6875D01*
X29151Y7250D02*
X29401Y7250D01*
X29276Y7125D02*
X29276Y7375D01*
X28651Y6750D02*
X28901Y6750D01*
X28776Y6625D02*
X28776Y6875D01*
X28651Y7250D02*
X28901Y7250D01*
X28776Y7125D02*
X28776Y7375D01*
X28151Y6750D02*
X28401Y6750D01*
X28276Y6625D02*
X28276Y6875D01*
X28151Y7250D02*
X28401Y7250D01*
X28276Y7125D02*
X28276Y7375D01*
X27651Y6750D02*
X27901Y6750D01*
X27776Y6625D02*
X27776Y6875D01*
X27651Y7250D02*
X27901Y7250D01*
X27776Y7125D02*
X27776Y7375D01*
X27151Y6750D02*
X27401Y6750D01*
X27276Y6625D02*
X27276Y6875D01*
X27151Y7250D02*
X27401Y7250D01*
X27276Y7125D02*
X27276Y7375D01*
X26651Y6750D02*
X26901Y6750D01*
X26776Y6625D02*
X26776Y6875D01*
X26651Y7250D02*
X26901Y7250D01*
X26776Y7125D02*
X26776Y7375D01*
X26151Y6750D02*
X26401Y6750D01*
X26276Y6625D02*
X26276Y6875D01*
X26151Y7250D02*
X26401Y7250D01*
X26276Y7125D02*
X26276Y7375D01*
X25651Y6750D02*
X25901Y6750D01*
X25776Y6625D02*
X25776Y6875D01*
X25651Y7250D02*
X25901Y7250D01*
X25776Y7125D02*
X25776Y7375D01*
X25151Y6750D02*
X25401Y6750D01*
X25276Y6625D02*
X25276Y6875D01*
X25151Y7250D02*
X25401Y7250D01*
X25276Y7125D02*
X25276Y7375D01*
X24651Y6750D02*
X24901Y6750D01*
X24776Y6625D02*
X24776Y6875D01*
X24651Y7250D02*
X24901Y7250D01*
X24776Y7125D02*
X24776Y7375D01*
X24151Y6750D02*
X24401Y6750D01*
X24276Y6625D02*
X24276Y6875D01*
X24151Y7250D02*
X24401Y7250D01*
X24276Y7125D02*
X24276Y7375D01*
X23651Y6750D02*
X23901Y6750D01*
X23776Y6625D02*
X23776Y6875D01*
X23651Y7250D02*
X23901Y7250D01*
X23776Y7125D02*
X23776Y7375D01*
X33637Y7000D02*
X34167Y7000D01*
X33902Y6735D02*
X33902Y7265D01*
X22885Y7000D02*
X23415Y7000D01*
X23150Y6735D02*
X23150Y7265D01*
X9137Y7000D02*
X9667Y7000D01*
X9402Y6735D02*
X9402Y7265D01*
X885Y7000D02*
X1415Y7000D01*
X1150Y6735D02*
X1150Y7265D01*
X1651Y7250D02*
X1901Y7250D01*
X1776Y7125D02*
X1776Y7375D01*
X1651Y6750D02*
X1901Y6750D01*
X1776Y6625D02*
X1776Y6875D01*
X2151Y7250D02*
X2401Y7250D01*
X2276Y7125D02*
X2276Y7375D01*
X2151Y6750D02*
X2401Y6750D01*
X2276Y6625D02*
X2276Y6875D01*
X2651Y7250D02*
X2901Y7250D01*
X2776Y7125D02*
X2776Y7375D01*
X2651Y6750D02*
X2901Y6750D01*
X2776Y6625D02*
X2776Y6875D01*
X3151Y7250D02*
X3401Y7250D01*
X3276Y7125D02*
X3276Y7375D01*
X3151Y6750D02*
X3401Y6750D01*
X3276Y6625D02*
X3276Y6875D01*
X3651Y7250D02*
X3901Y7250D01*
X3776Y7125D02*
X3776Y7375D01*
X3651Y6750D02*
X3901Y6750D01*
X3776Y6625D02*
X3776Y6875D01*
X4151Y7250D02*
X4401Y7250D01*
X4276Y7125D02*
X4276Y7375D01*
X4151Y6750D02*
X4401Y6750D01*
X4276Y6625D02*
X4276Y6875D01*
X4651Y7250D02*
X4901Y7250D01*
X4776Y7125D02*
X4776Y7375D01*
X4651Y6750D02*
X4901Y6750D01*
X4776Y6625D02*
X4776Y6875D01*
X5151Y7250D02*
X5401Y7250D01*
X5276Y7125D02*
X5276Y7375D01*
X5151Y6750D02*
X5401Y6750D01*
X5276Y6625D02*
X5276Y6875D01*
X5651Y7250D02*
X5901Y7250D01*
X5776Y7125D02*
X5776Y7375D01*
X5651Y6750D02*
X5901Y6750D01*
X5776Y6625D02*
X5776Y6875D01*
X6151Y7250D02*
X6401Y7250D01*
X6276Y7125D02*
X6276Y7375D01*
X6151Y6750D02*
X6401Y6750D01*
X6276Y6625D02*
X6276Y6875D01*
X6651Y7250D02*
X6901Y7250D01*
X6776Y7125D02*
X6776Y7375D01*
X6651Y6750D02*
X6901Y6750D01*
X6776Y6625D02*
X6776Y6875D01*
X7151Y7250D02*
X7401Y7250D01*
X7276Y7125D02*
X7276Y7375D01*
X7151Y6750D02*
X7401Y6750D01*
X7276Y6625D02*
X7276Y6875D01*
X7651Y7250D02*
X7901Y7250D01*
X7776Y7125D02*
X7776Y7375D01*
X7651Y6750D02*
X7901Y6750D01*
X7776Y6625D02*
X7776Y6875D01*
X8151Y7250D02*
X8401Y7250D01*
X8276Y7125D02*
X8276Y7375D01*
X8151Y6750D02*
X8401Y6750D01*
X8276Y6625D02*
X8276Y6875D01*
X8651Y7250D02*
X8901Y7250D01*
X8776Y7125D02*
X8776Y7375D01*
X8651Y6750D02*
X8901Y6750D01*
X8776Y6625D02*
X8776Y6875D01*
X1651Y21750D02*
X1901Y21750D01*
X1776Y21625D02*
X1776Y21875D01*
X1651Y21250D02*
X1901Y21250D01*
X1776Y21125D02*
X1776Y21375D01*
X2151Y21750D02*
X2401Y21750D01*
X2276Y21625D02*
X2276Y21875D01*
X2151Y21250D02*
X2401Y21250D01*
X2276Y21125D02*
X2276Y21375D01*
X3651Y21750D02*
X3901Y21750D01*
X3776Y21625D02*
X3776Y21875D01*
X3651Y21250D02*
X3901Y21250D01*
X3776Y21125D02*
X3776Y21375D01*
X4151Y21750D02*
X4401Y21750D01*
X4276Y21625D02*
X4276Y21875D01*
X4651Y21750D02*
X4901Y21750D01*
X4776Y21625D02*
X4776Y21875D01*
X5151Y21750D02*
X5401Y21750D01*
X5276Y21625D02*
X5276Y21875D01*
X5151Y21250D02*
X5401Y21250D01*
X5276Y21125D02*
X5276Y21375D01*
X5651Y21750D02*
X5901Y21750D01*
X5776Y21625D02*
X5776Y21875D01*
X5651Y21250D02*
X5901Y21250D01*
X5776Y21125D02*
X5776Y21375D01*
X6151Y21750D02*
X6401Y21750D01*
X6276Y21625D02*
X6276Y21875D01*
X6151Y21250D02*
X6401Y21250D01*
X6276Y21125D02*
X6276Y21375D01*
X6651Y21750D02*
X6901Y21750D01*
X6776Y21625D02*
X6776Y21875D01*
X6651Y21250D02*
X6901Y21250D01*
X6776Y21125D02*
X6776Y21375D01*
X7151Y21750D02*
X7401Y21750D01*
X7276Y21625D02*
X7276Y21875D01*
X7151Y21250D02*
X7401Y21250D01*
X7276Y21125D02*
X7276Y21375D01*
X7651Y21750D02*
X7901Y21750D01*
X7776Y21625D02*
X7776Y21875D01*
X7651Y21250D02*
X7901Y21250D01*
X7776Y21125D02*
X7776Y21375D01*
X8151Y21750D02*
X8401Y21750D01*
X8276Y21625D02*
X8276Y21875D01*
X8151Y21250D02*
X8401Y21250D01*
X8276Y21125D02*
X8276Y21375D01*
X8651Y21750D02*
X8901Y21750D01*
X8776Y21625D02*
X8776Y21875D01*
X8651Y21250D02*
X8901Y21250D01*
X8776Y21125D02*
X8776Y21375D01*
X9151Y21750D02*
X9401Y21750D01*
X9276Y21625D02*
X9276Y21875D01*
X9151Y21250D02*
X9401Y21250D01*
X9276Y21125D02*
X9276Y21375D01*
X9651Y21750D02*
X9901Y21750D01*
X9776Y21625D02*
X9776Y21875D01*
X9651Y21250D02*
X9901Y21250D01*
X9776Y21125D02*
X9776Y21375D01*
X10151Y21750D02*
X10401Y21750D01*
X10276Y21625D02*
X10276Y21875D01*
X10151Y21250D02*
X10401Y21250D01*
X10276Y21125D02*
X10276Y21375D01*
X10651Y21750D02*
X10901Y21750D01*
X10776Y21625D02*
X10776Y21875D01*
X10651Y21250D02*
X10901Y21250D01*
X10776Y21125D02*
X10776Y21375D01*
X11151Y21750D02*
X11401Y21750D01*
X11276Y21625D02*
X11276Y21875D01*
X11151Y21250D02*
X11401Y21250D01*
X11276Y21125D02*
X11276Y21375D01*
X885Y21500D02*
X1415Y21500D01*
X1150Y21235D02*
X1150Y21765D01*
X11637Y21500D02*
X12167Y21500D01*
X11902Y21235D02*
X11902Y21765D01*
X3151Y21750D02*
X3401Y21750D01*
X3276Y21625D02*
X3276Y21875D01*
X2651Y21750D02*
X2901Y21750D01*
X2776Y21625D02*
X2776Y21875D01*
X4151Y21250D02*
X4401Y21250D01*
X4276Y21125D02*
X4276Y21375D01*
X4651Y21250D02*
X4901Y21250D01*
X4776Y21125D02*
X4776Y21375D01*
X3151Y21250D02*
X3401Y21250D01*
X3276Y21125D02*
X3276Y21375D01*
X2651Y21250D02*
X2901Y21250D01*
X2776Y21125D02*
X2776Y21375D01*
X88175Y25500D02*
X88325Y25500D01*
X88250Y25425D02*
X88250Y25575D01*
X86638Y42900D02*
X87662Y42900D01*
X87150Y42388D02*
X87150Y43412D01*
X86638Y47506D02*
X87662Y47506D01*
X87150Y46994D02*
X87150Y48018D01*
X86874Y44317D02*
X87367Y44317D01*
X87120Y44071D02*
X87120Y44563D01*
X86874Y46089D02*
X87367Y46089D01*
X87120Y45843D02*
X87120Y46335D01*
X66800Y1500D02*
X67200Y1500D01*
X67000Y1300D02*
X67000Y1700D01*
X65800Y1500D02*
X66200Y1500D01*
X66000Y1300D02*
X66000Y1700D01*
X64800Y1500D02*
X65200Y1500D01*
X65000Y1300D02*
X65000Y1700D01*
X63800Y1500D02*
X64200Y1500D01*
X64000Y1300D02*
X64000Y1700D01*
X62800Y1500D02*
X63200Y1500D01*
X63000Y1300D02*
X63000Y1700D01*
X61800Y1500D02*
X62200Y1500D01*
X62000Y1300D02*
X62000Y1700D01*
X64300Y24000D02*
X64700Y24000D01*
X64500Y23800D02*
X64500Y24200D01*
X63300Y24000D02*
X63700Y24000D01*
X63500Y23800D02*
X63500Y24200D01*
X62300Y24000D02*
X62700Y24000D01*
X62500Y23800D02*
X62500Y24200D01*
X65300Y24000D02*
X65700Y24000D01*
X65500Y23800D02*
X65500Y24200D01*
X64300Y22500D02*
X64700Y22500D01*
X64500Y22300D02*
X64500Y22700D01*
X63300Y22500D02*
X63700Y22500D01*
X63500Y22300D02*
X63500Y22700D01*
X62300Y22500D02*
X62700Y22500D01*
X62500Y22300D02*
X62500Y22700D01*
X65300Y22500D02*
X65700Y22500D01*
X65500Y22300D02*
X65500Y22700D01*
X84460Y19259D02*
X84540Y19259D01*
X84500Y19219D02*
X84500Y19299D01*
X89784Y22261D02*
X89864Y22261D01*
X89824Y22221D02*
X89824Y22301D01*
X89784Y21861D02*
X89864Y21861D01*
X89824Y21821D02*
X89824Y21901D01*
X91555Y21602D02*
X91635Y21602D01*
X91595Y21562D02*
X91595Y21642D01*
X91916Y21602D02*
X91996Y21602D01*
X91956Y21562D02*
X91956Y21642D01*
X92277Y21602D02*
X92357Y21602D01*
X92317Y21562D02*
X92317Y21642D01*
X89810Y12450D02*
X89890Y12450D01*
X89850Y12410D02*
X89850Y12490D01*
X89810Y12850D02*
X89890Y12850D01*
X89850Y12810D02*
X89850Y12890D01*
X91455Y13109D02*
X91535Y13109D01*
X91495Y13069D02*
X91495Y13149D01*
X91816Y13109D02*
X91896Y13109D01*
X91856Y13069D02*
X91856Y13149D01*
X92177Y13109D02*
X92257Y13109D01*
X92217Y13069D02*
X92217Y13149D01*
X79182Y17407D02*
X79262Y17407D01*
X79222Y17367D02*
X79222Y17447D01*
X79582Y17407D02*
X79662Y17407D01*
X79622Y17367D02*
X79622Y17447D01*
X79660Y14900D02*
X79740Y14900D01*
X79700Y14860D02*
X79700Y14940D01*
X79660Y15261D02*
X79740Y15261D01*
X79700Y15221D02*
X79700Y15301D01*
X79660Y15622D02*
X79740Y15622D01*
X79700Y15582D02*
X79700Y15662D01*
X42060Y14215D02*
X42140Y14215D01*
X42100Y14175D02*
X42100Y14255D01*
X42060Y13985D02*
X42140Y13985D01*
X42100Y13945D02*
X42100Y14025D01*
X42060Y15065D02*
X42140Y15065D01*
X42100Y15025D02*
X42100Y15105D01*
X42060Y14835D02*
X42140Y14835D01*
X42100Y14795D02*
X42100Y14875D01*
X42060Y15685D02*
X42140Y15685D01*
X42100Y15645D02*
X42100Y15725D01*
X42060Y15915D02*
X42140Y15915D01*
X42100Y15875D02*
X42100Y15955D01*
X57710Y600D02*
X57790Y600D01*
X57750Y560D02*
X57750Y640D01*
X13710Y49400D02*
X13790Y49400D01*
X13750Y49360D02*
X13750Y49440D01*
X13710Y50400D02*
X13790Y50400D01*
X13750Y50360D02*
X13750Y50440D01*
X22710Y49400D02*
X22790Y49400D01*
X22750Y49360D02*
X22750Y49440D01*
X22710Y50400D02*
X22790Y50400D01*
X22750Y50360D02*
X22750Y50440D01*
X89173Y49400D02*
X89253Y49400D01*
X89213Y49360D02*
X89213Y49440D01*
X89173Y50400D02*
X89253Y50400D01*
X89213Y50360D02*
X89213Y50440D01*
X80173Y50400D02*
X80253Y50400D01*
X80213Y50360D02*
X80213Y50440D01*
X80173Y49400D02*
X80253Y49400D01*
X80213Y49360D02*
X80213Y49440D01*
X24160Y35885D02*
X24240Y35885D01*
X24200Y35845D02*
X24200Y35925D01*
X21260Y35885D02*
X21340Y35885D01*
X21300Y35845D02*
X21300Y35925D01*
X55179Y48400D02*
X55259Y48400D01*
X55219Y48360D02*
X55219Y48440D01*
X24160Y36115D02*
X24240Y36115D01*
X24200Y36075D02*
X24200Y36155D01*
X21260Y36115D02*
X21340Y36115D01*
X21300Y36075D02*
X21300Y36155D01*
X55179Y48900D02*
X55259Y48900D01*
X55219Y48860D02*
X55219Y48940D01*
X53179Y48900D02*
X53259Y48900D01*
X53219Y48860D02*
X53219Y48940D01*
X26275Y39615D02*
X26355Y39615D01*
X26315Y39575D02*
X26315Y39655D01*
X53179Y48400D02*
X53259Y48400D01*
X53219Y48360D02*
X53219Y48440D01*
X26275Y39385D02*
X26355Y39385D01*
X26315Y39345D02*
X26315Y39425D01*
X50179Y46900D02*
X50259Y46900D01*
X50219Y46860D02*
X50219Y46940D01*
X50679Y46900D02*
X50759Y46900D01*
X50719Y46860D02*
X50719Y46940D01*
X47179Y46900D02*
X47259Y46900D01*
X47219Y46860D02*
X47219Y46940D01*
X47679Y46900D02*
X47759Y46900D01*
X47719Y46860D02*
X47719Y46940D01*
X20660Y40115D02*
X20740Y40115D01*
X20700Y40075D02*
X20700Y40155D01*
X54179Y50400D02*
X54259Y50400D01*
X54219Y50360D02*
X54219Y50440D01*
X20660Y39885D02*
X20740Y39885D01*
X20700Y39845D02*
X20700Y39925D01*
X54179Y49900D02*
X54259Y49900D01*
X54219Y49860D02*
X54219Y49940D01*
X23425Y40865D02*
X23505Y40865D01*
X23465Y40825D02*
X23465Y40905D01*
X54179Y49400D02*
X54259Y49400D01*
X54219Y49360D02*
X54219Y49440D01*
X23425Y40635D02*
X23505Y40635D01*
X23465Y40595D02*
X23465Y40675D01*
X54179Y48900D02*
X54259Y48900D01*
X54219Y48860D02*
X54219Y48940D01*
X48679Y48400D02*
X48759Y48400D01*
X48719Y48360D02*
X48719Y48440D01*
X19760Y37385D02*
X19840Y37385D01*
X19800Y37345D02*
X19800Y37425D01*
X48179Y48400D02*
X48259Y48400D01*
X48219Y48360D02*
X48219Y48440D01*
X19760Y37615D02*
X19840Y37615D01*
X19800Y37575D02*
X19800Y37655D01*
X48679Y46400D02*
X48759Y46400D01*
X48719Y46360D02*
X48719Y46440D01*
X20260Y37115D02*
X20340Y37115D01*
X20300Y37075D02*
X20300Y37155D01*
X49179Y46400D02*
X49259Y46400D01*
X49219Y46360D02*
X49219Y46440D01*
X20260Y36885D02*
X20340Y36885D01*
X20300Y36845D02*
X20300Y36925D01*
X49679Y48900D02*
X49759Y48900D01*
X49719Y48860D02*
X49719Y48940D01*
X20760Y36385D02*
X20840Y36385D01*
X20800Y36345D02*
X20800Y36425D01*
X49179Y48900D02*
X49259Y48900D01*
X49219Y48860D02*
X49219Y48940D01*
X20760Y36615D02*
X20840Y36615D01*
X20800Y36575D02*
X20800Y36655D01*
X50679Y46400D02*
X50759Y46400D01*
X50719Y46360D02*
X50719Y46440D01*
X51179Y46400D02*
X51259Y46400D01*
X51219Y46360D02*
X51219Y46440D01*
X52179Y46900D02*
X52259Y46900D01*
X52219Y46860D02*
X52219Y46940D01*
X51679Y46900D02*
X51759Y46900D01*
X51719Y46860D02*
X51719Y46940D01*
X45679Y46900D02*
X45759Y46900D01*
X45719Y46860D02*
X45719Y46940D01*
X46179Y46900D02*
X46259Y46900D01*
X46219Y46860D02*
X46219Y46940D01*
X46179Y48900D02*
X46259Y48900D01*
X46219Y48860D02*
X46219Y48940D01*
X46679Y48900D02*
X46759Y48900D01*
X46719Y48860D02*
X46719Y48940D01*
X50179Y48400D02*
X50259Y48400D01*
X50219Y48360D02*
X50219Y48440D01*
X49679Y48400D02*
X49759Y48400D01*
X49719Y48360D02*
X49719Y48440D01*
X44679Y46400D02*
X44759Y46400D01*
X44719Y46360D02*
X44719Y46440D01*
X45179Y46400D02*
X45259Y46400D01*
X45219Y46360D02*
X45219Y46440D01*
X5460Y4500D02*
X5540Y4500D01*
X5500Y4460D02*
X5500Y4540D01*
X22960Y43500D02*
X23040Y43500D01*
X23000Y43460D02*
X23000Y43540D01*
X1595Y50265D02*
X1675Y50265D01*
X1635Y50225D02*
X1635Y50305D01*
X8210Y52750D02*
X8290Y52750D01*
X8250Y52710D02*
X8250Y52790D01*
X41179Y45900D02*
X41259Y45900D01*
X41219Y45860D02*
X41219Y45940D01*
X52179Y48900D02*
X52259Y48900D01*
X52219Y48860D02*
X52219Y48940D01*
X52679Y48900D02*
X52759Y48900D01*
X52719Y48860D02*
X52719Y48940D01*
X47179Y48400D02*
X47259Y48400D01*
X47219Y48360D02*
X47219Y48440D01*
X46679Y48400D02*
X46759Y48400D01*
X46719Y48360D02*
X46719Y48440D01*
X48679Y46900D02*
X48759Y46900D01*
X48719Y46860D02*
X48719Y46940D01*
X49179Y46900D02*
X49259Y46900D01*
X49219Y46860D02*
X49219Y46940D01*
X52179Y45400D02*
X52259Y45400D01*
X52219Y45360D02*
X52219Y45440D01*
X51679Y45400D02*
X51759Y45400D01*
X51719Y45360D02*
X51719Y45440D01*
X52179Y46400D02*
X52259Y46400D01*
X52219Y46360D02*
X52219Y46440D01*
X36460Y35500D02*
X36540Y35500D01*
X36500Y35460D02*
X36500Y35540D01*
X36210Y35750D02*
X36290Y35750D01*
X36250Y35710D02*
X36250Y35790D01*
X35960Y36000D02*
X36040Y36000D01*
X36000Y35960D02*
X36000Y36040D01*
X36710Y35250D02*
X36790Y35250D01*
X36750Y35210D02*
X36750Y35290D01*
X36960Y35000D02*
X37040Y35000D01*
X37000Y34960D02*
X37000Y35040D01*
X37210Y34750D02*
X37290Y34750D01*
X37250Y34710D02*
X37250Y34790D01*
X37460Y34500D02*
X37540Y34500D01*
X37500Y34460D02*
X37500Y34540D01*
X37710Y34250D02*
X37790Y34250D01*
X37750Y34210D02*
X37750Y34290D01*
X37960Y34000D02*
X38040Y34000D01*
X38000Y33960D02*
X38000Y34040D01*
X38210Y33750D02*
X38290Y33750D01*
X38250Y33710D02*
X38250Y33790D01*
X50679Y45900D02*
X50759Y45900D01*
X50719Y45860D02*
X50719Y45940D01*
X49179Y45900D02*
X49259Y45900D01*
X49219Y45860D02*
X49219Y45940D01*
X48179Y46400D02*
X48259Y46400D01*
X48219Y46360D02*
X48219Y46440D01*
X47679Y46400D02*
X47759Y46400D01*
X47719Y46360D02*
X47719Y46440D01*
X29793Y44799D02*
X29873Y44799D01*
X29833Y44759D02*
X29833Y44839D01*
X29763Y45144D02*
X29843Y45144D01*
X29803Y45104D02*
X29803Y45184D01*
X38460Y20300D02*
X38540Y20300D01*
X38500Y20260D02*
X38500Y20340D01*
X38460Y21300D02*
X38540Y21300D01*
X38500Y21260D02*
X38500Y21340D01*
X23410Y25350D02*
X23490Y25350D01*
X23450Y25310D02*
X23450Y25390D01*
X24236Y25750D02*
X24316Y25750D01*
X24276Y25710D02*
X24276Y25790D01*
X21710Y21174D02*
X21790Y21174D01*
X21750Y21134D02*
X21750Y21214D01*
X21310Y22000D02*
X21390Y22000D01*
X21350Y21960D02*
X21350Y22040D01*
X32460Y15250D02*
X32540Y15250D01*
X32500Y15210D02*
X32500Y15290D01*
X34210Y18750D02*
X34290Y18750D01*
X34250Y18710D02*
X34250Y18790D01*
X61210Y50500D02*
X61290Y50500D01*
X61250Y50460D02*
X61250Y50540D01*
X61210Y51000D02*
X61290Y51000D01*
X61250Y50960D02*
X61250Y51040D01*
X5736Y26324D02*
X5816Y26324D01*
X5776Y26284D02*
X5776Y26364D01*
X3960Y26000D02*
X4040Y26000D01*
X4000Y25960D02*
X4000Y26040D01*
X3960Y25500D02*
X4040Y25500D01*
X4000Y25460D02*
X4000Y25540D01*
X2236Y25750D02*
X2316Y25750D01*
X2276Y25710D02*
X2276Y25790D01*
X1410Y25350D02*
X1490Y25350D01*
X1450Y25310D02*
X1450Y25390D01*
X1410Y22350D02*
X1490Y22350D01*
X1450Y22310D02*
X1450Y22390D01*
X2236Y22750D02*
X2316Y22750D01*
X2276Y22710D02*
X2276Y22790D01*
X4210Y16500D02*
X4290Y16500D01*
X4250Y16460D02*
X4250Y16540D01*
X1710Y17250D02*
X1790Y17250D01*
X1750Y17210D02*
X1750Y17290D01*
X22210Y12000D02*
X22290Y12000D01*
X22250Y11960D02*
X22250Y12040D01*
X24210Y12000D02*
X24290Y12000D01*
X24250Y11960D02*
X24250Y12040D01*
X529Y5697D02*
X609Y5697D01*
X569Y5657D02*
X569Y5737D01*
X529Y5303D02*
X609Y5303D01*
X569Y5263D02*
X569Y5343D01*
X529Y4697D02*
X609Y4697D01*
X569Y4657D02*
X569Y4737D01*
X529Y4303D02*
X609Y4303D01*
X569Y4263D02*
X569Y4343D01*
X36860Y10085D02*
X36940Y10085D01*
X36900Y10045D02*
X36900Y10125D01*
X44858Y23450D02*
X44938Y23450D01*
X44898Y23410D02*
X44898Y23490D01*
X36860Y10315D02*
X36940Y10315D01*
X36900Y10275D02*
X36900Y10355D01*
X44628Y23450D02*
X44708Y23450D01*
X44668Y23410D02*
X44668Y23490D01*
X32504Y12950D02*
X32584Y12950D01*
X32544Y12910D02*
X32544Y12990D01*
X33210Y12615D02*
X33290Y12615D01*
X33250Y12575D02*
X33250Y12655D01*
X43447Y23450D02*
X43527Y23450D01*
X43487Y23410D02*
X43487Y23490D01*
X33210Y12385D02*
X33290Y12385D01*
X33250Y12345D02*
X33250Y12425D01*
X32504Y12050D02*
X32584Y12050D01*
X32544Y12010D02*
X32544Y12090D01*
X43677Y23450D02*
X43757Y23450D01*
X43717Y23410D02*
X43717Y23490D01*
X30804Y12635D02*
X30884Y12635D01*
X30844Y12595D02*
X30844Y12675D01*
X30097Y12300D02*
X30177Y12300D01*
X30137Y12260D02*
X30137Y12340D01*
X43087Y23450D02*
X43167Y23450D01*
X43127Y23410D02*
X43127Y23490D01*
X30097Y13200D02*
X30177Y13200D01*
X30137Y13160D02*
X30137Y13240D01*
X30804Y12865D02*
X30884Y12865D01*
X30844Y12825D02*
X30844Y12905D01*
X42857Y23450D02*
X42937Y23450D01*
X42897Y23410D02*
X42897Y23490D01*
X42266Y23450D02*
X42346Y23450D01*
X42306Y23410D02*
X42306Y23490D01*
X27404Y13450D02*
X27484Y13450D01*
X27444Y13410D02*
X27444Y13490D01*
X42496Y23450D02*
X42576Y23450D01*
X42536Y23410D02*
X42536Y23490D01*
X27404Y12550D02*
X27484Y12550D01*
X27444Y12510D02*
X27444Y12590D01*
X28110Y12885D02*
X28190Y12885D01*
X28150Y12845D02*
X28150Y12925D01*
X28110Y13115D02*
X28190Y13115D01*
X28150Y13075D02*
X28150Y13155D01*
X26660Y13700D02*
X26740Y13700D01*
X26700Y13660D02*
X26700Y13740D01*
X51210Y2450D02*
X51290Y2450D01*
X51250Y2410D02*
X51250Y2490D01*
X49460Y467D02*
X49540Y467D01*
X49500Y427D02*
X49500Y507D01*
X50960Y467D02*
X51040Y467D01*
X51000Y427D02*
X51000Y507D01*
X52210Y467D02*
X52290Y467D01*
X52250Y427D02*
X52250Y507D01*
X52480Y6476D02*
X52560Y6476D01*
X52520Y6436D02*
X52520Y6516D01*
X52047Y6476D02*
X52127Y6476D01*
X52087Y6436D02*
X52087Y6516D01*
X49803Y6949D02*
X49883Y6949D01*
X49843Y6909D02*
X49843Y6989D01*
X51395Y5129D02*
X51475Y5129D01*
X51435Y5089D02*
X51435Y5169D01*
X46723Y5200D02*
X46803Y5200D01*
X46763Y5160D02*
X46763Y5240D01*
X46493Y5200D02*
X46573Y5200D01*
X46533Y5160D02*
X46533Y5240D01*
X51785Y5371D02*
X51865Y5371D01*
X51825Y5331D02*
X51825Y5411D01*
X51785Y5601D02*
X51865Y5601D01*
X51825Y5561D02*
X51825Y5641D01*
X53543Y7264D02*
X53623Y7264D01*
X53583Y7224D02*
X53583Y7304D01*
X44460Y12000D02*
X44540Y12000D01*
X44500Y11960D02*
X44500Y12040D01*
X44460Y10750D02*
X44540Y10750D01*
X44500Y10710D02*
X44500Y10790D01*
X42210Y6500D02*
X42290Y6500D01*
X42250Y6460D02*
X42250Y6540D01*
X42710Y6500D02*
X42790Y6500D01*
X42750Y6460D02*
X42750Y6540D01*
X43210Y6500D02*
X43290Y6500D01*
X43250Y6460D02*
X43250Y6540D01*
X43710Y6500D02*
X43790Y6500D01*
X43750Y6460D02*
X43750Y6540D01*
X47002Y11800D02*
X47082Y11800D01*
X47042Y11760D02*
X47042Y11840D01*
X55314Y10925D02*
X55394Y10925D01*
X55354Y10885D02*
X55354Y10965D01*
X53700Y10492D02*
X53780Y10492D01*
X53740Y10452D02*
X53740Y10532D01*
X51968Y11398D02*
X52048Y11398D01*
X52008Y11358D02*
X52008Y11438D01*
X51771Y11004D02*
X51851Y11004D01*
X51811Y10964D02*
X51811Y11044D01*
X51574Y11398D02*
X51654Y11398D01*
X51614Y11358D02*
X51614Y11438D01*
X51180Y11004D02*
X51260Y11004D01*
X51220Y10964D02*
X51220Y11044D01*
X48818Y11004D02*
X48898Y11004D01*
X48858Y10964D02*
X48858Y11044D01*
X49803Y10413D02*
X49883Y10413D01*
X49843Y10373D02*
X49843Y10453D01*
X49606Y9626D02*
X49686Y9626D01*
X49646Y9586D02*
X49646Y9666D01*
X49901Y9685D02*
X49981Y9685D01*
X49941Y9645D02*
X49941Y9725D01*
X56692Y10217D02*
X56772Y10217D01*
X56732Y10177D02*
X56732Y10257D01*
X56102Y10217D02*
X56182Y10217D01*
X56142Y10177D02*
X56142Y10257D01*
X50787Y10925D02*
X50867Y10925D01*
X50827Y10885D02*
X50827Y10965D01*
X55314Y10689D02*
X55394Y10689D01*
X55354Y10649D02*
X55354Y10729D01*
X49212Y8307D02*
X49292Y8307D01*
X49252Y8267D02*
X49252Y8347D01*
X49015Y7264D02*
X49095Y7264D01*
X49055Y7224D02*
X49055Y7304D01*
X47834Y6870D02*
X47914Y6870D01*
X47874Y6830D02*
X47874Y6910D01*
X49606Y11988D02*
X49686Y11988D01*
X49646Y11948D02*
X49646Y12028D01*
X50354Y11004D02*
X50434Y11004D01*
X50394Y10964D02*
X50394Y11044D01*
X48621Y9429D02*
X48701Y9429D01*
X48661Y9389D02*
X48661Y9469D01*
X48779Y11398D02*
X48859Y11398D01*
X48819Y11358D02*
X48819Y11438D01*
X55314Y12185D02*
X55394Y12185D01*
X55354Y12145D02*
X55354Y12225D01*
X55314Y11791D02*
X55394Y11791D01*
X55354Y11751D02*
X55354Y11831D01*
X55314Y11398D02*
X55394Y11398D01*
X55354Y11358D02*
X55354Y11438D01*
X55314Y12776D02*
X55394Y12776D01*
X55354Y12736D02*
X55354Y12816D01*
X55314Y13169D02*
X55394Y13169D01*
X55354Y13129D02*
X55354Y13209D01*
X55314Y13563D02*
X55394Y13563D01*
X55354Y13523D02*
X55354Y13603D01*
X52972Y13189D02*
X53052Y13189D01*
X53012Y13149D02*
X53012Y13229D01*
X52952Y12776D02*
X53032Y12776D01*
X52992Y12736D02*
X52992Y12816D01*
X52952Y12382D02*
X53032Y12382D01*
X52992Y12342D02*
X52992Y12422D01*
X52952Y11988D02*
X53032Y11988D01*
X52992Y11948D02*
X52992Y12028D01*
X52558Y11988D02*
X52638Y11988D01*
X52598Y11948D02*
X52598Y12028D01*
X52165Y11988D02*
X52245Y11988D01*
X52205Y11948D02*
X52205Y12028D01*
X52558Y13169D02*
X52638Y13169D01*
X52598Y13129D02*
X52598Y13209D01*
X52558Y12382D02*
X52638Y12382D01*
X52598Y12342D02*
X52598Y12422D01*
X52558Y12776D02*
X52638Y12776D01*
X52598Y12736D02*
X52598Y12816D01*
X52165Y12382D02*
X52245Y12382D01*
X52205Y12342D02*
X52205Y12422D01*
X52165Y12776D02*
X52245Y12776D01*
X52205Y12736D02*
X52205Y12816D01*
X53936Y8504D02*
X54016Y8504D01*
X53976Y8464D02*
X53976Y8544D01*
X56023Y6476D02*
X56103Y6476D01*
X56063Y6436D02*
X56063Y6516D01*
X56417Y6476D02*
X56497Y6476D01*
X56457Y6436D02*
X56457Y6516D01*
X55117Y6476D02*
X55197Y6476D01*
X55157Y6436D02*
X55157Y6516D01*
X55511Y6476D02*
X55591Y6476D01*
X55551Y6436D02*
X55551Y6516D01*
X47834Y6083D02*
X47914Y6083D01*
X47874Y6043D02*
X47874Y6123D01*
X53936Y9488D02*
X54016Y9488D01*
X53976Y9448D02*
X53976Y9528D01*
X54448Y6772D02*
X54528Y6772D01*
X54488Y6732D02*
X54488Y6812D01*
X53936Y6516D02*
X54016Y6516D01*
X53976Y6476D02*
X53976Y6556D01*
X51210Y3603D02*
X51290Y3603D01*
X51250Y3563D02*
X51250Y3643D01*
X50710Y3603D02*
X50790Y3603D01*
X50750Y3563D02*
X50750Y3643D01*
X50210Y3603D02*
X50290Y3603D01*
X50250Y3563D02*
X50250Y3643D01*
X49710Y3603D02*
X49790Y3603D01*
X49750Y3563D02*
X49750Y3643D01*
X49210Y3600D02*
X49290Y3600D01*
X49250Y3560D02*
X49250Y3640D01*
X50710Y2503D02*
X50790Y2503D01*
X50750Y2463D02*
X50750Y2543D01*
X50210Y2503D02*
X50290Y2503D01*
X50250Y2463D02*
X50250Y2543D01*
X49710Y2503D02*
X49790Y2503D01*
X49750Y2463D02*
X49750Y2543D01*
X49210Y2500D02*
X49290Y2500D01*
X49250Y2460D02*
X49250Y2540D01*
X48228Y7264D02*
X48308Y7264D01*
X48268Y7224D02*
X48268Y7304D01*
X48425Y11004D02*
X48505Y11004D01*
X48465Y10964D02*
X48465Y11044D01*
X55511Y9685D02*
X55591Y9685D01*
X55551Y9645D02*
X55551Y9725D01*
X48031Y11004D02*
X48111Y11004D01*
X48071Y10964D02*
X48071Y11044D01*
X47834Y6476D02*
X47914Y6476D01*
X47874Y6436D02*
X47874Y6516D01*
X55511Y8701D02*
X55591Y8701D01*
X55551Y8661D02*
X55551Y8741D01*
X55511Y9291D02*
X55591Y9291D01*
X55551Y9251D02*
X55551Y9331D01*
X51377Y12579D02*
X51457Y12579D01*
X51417Y12539D02*
X51417Y12619D01*
X48621Y7264D02*
X48701Y7264D01*
X48661Y7224D02*
X48661Y7304D01*
X46018Y9508D02*
X46098Y9508D01*
X46058Y9468D02*
X46058Y9548D01*
X47002Y9500D02*
X47082Y9500D01*
X47042Y9460D02*
X47042Y9540D01*
X46010Y11750D02*
X46090Y11750D01*
X46050Y11710D02*
X46050Y11790D01*
X46018Y12842D02*
X46098Y12842D01*
X46058Y12802D02*
X46058Y12882D01*
X48025Y9215D02*
X48105Y9215D01*
X48065Y9175D02*
X48065Y9255D01*
X47595Y8185D02*
X47675Y8185D01*
X47635Y8145D02*
X47635Y8225D01*
X48025Y8985D02*
X48105Y8985D01*
X48065Y8945D02*
X48065Y9025D01*
X47825Y8185D02*
X47905Y8185D01*
X47865Y8145D02*
X47865Y8225D01*
X47160Y8585D02*
X47240Y8585D01*
X47200Y8545D02*
X47200Y8625D01*
X47160Y8815D02*
X47240Y8815D01*
X47200Y8775D02*
X47200Y8855D01*
X45838Y8900D02*
X45918Y8900D01*
X45878Y8860D02*
X45878Y8940D01*
X45608Y8900D02*
X45688Y8900D01*
X45648Y8860D02*
X45648Y8940D01*
X56210Y4500D02*
X56290Y4500D01*
X56250Y4460D02*
X56250Y4540D01*
X58210Y2250D02*
X58290Y2250D01*
X58250Y2210D02*
X58250Y2290D01*
X58210Y2750D02*
X58290Y2750D01*
X58250Y2710D02*
X58250Y2790D01*
X71210Y4126D02*
X71290Y4126D01*
X71250Y4086D02*
X71250Y4166D01*
X59513Y2250D02*
X59593Y2250D01*
X59553Y2210D02*
X59553Y2290D01*
X59513Y2750D02*
X59593Y2750D01*
X59553Y2710D02*
X59553Y2790D01*
X60210Y2500D02*
X60290Y2500D01*
X60250Y2460D02*
X60250Y2540D01*
X59513Y3750D02*
X59593Y3750D01*
X59553Y3710D02*
X59553Y3790D01*
X58460Y950D02*
X58540Y950D01*
X58500Y910D02*
X58500Y990D01*
X52210Y3500D02*
X52290Y3500D01*
X52250Y3460D02*
X52250Y3540D01*
X53710Y4250D02*
X53790Y4250D01*
X53750Y4210D02*
X53750Y4290D01*
X53210Y4250D02*
X53290Y4250D01*
X53250Y4210D02*
X53250Y4290D01*
X54680Y5565D02*
X54760Y5565D01*
X54720Y5525D02*
X54720Y5605D01*
X53710Y5565D02*
X53790Y5565D01*
X53750Y5525D02*
X53750Y5605D01*
X53460Y467D02*
X53540Y467D01*
X53500Y427D02*
X53500Y507D01*
X52710Y3250D02*
X52790Y3250D01*
X52750Y3210D02*
X52750Y3290D01*
X51960Y4200D02*
X52040Y4200D01*
X52000Y4160D02*
X52000Y4240D01*
X47007Y4500D02*
X47087Y4500D01*
X47047Y4460D02*
X47047Y4540D01*
X46210Y4500D02*
X46290Y4500D01*
X46250Y4460D02*
X46250Y4540D01*
X90558Y15126D02*
X90638Y15126D01*
X90598Y15086D02*
X90598Y15166D01*
X89180Y14338D02*
X89260Y14338D01*
X89220Y14298D02*
X89220Y14378D01*
X88393Y13225D02*
X88473Y13225D01*
X88433Y13185D02*
X88433Y13265D01*
X87999Y13963D02*
X88079Y13963D01*
X88039Y13923D02*
X88039Y14003D01*
X87606Y13963D02*
X87686Y13963D01*
X87646Y13923D02*
X87646Y14003D01*
X87704Y15322D02*
X87784Y15322D01*
X87744Y15282D02*
X87744Y15362D01*
X86917Y16720D02*
X86997Y16720D01*
X86957Y16680D02*
X86957Y16760D01*
X86917Y17094D02*
X86997Y17094D01*
X86957Y17054D02*
X86957Y17134D01*
X86917Y17468D02*
X86997Y17468D01*
X86957Y17428D02*
X86957Y17508D01*
X86917Y17842D02*
X86997Y17842D01*
X86957Y17802D02*
X86957Y17882D01*
X87291Y17842D02*
X87371Y17842D01*
X87331Y17802D02*
X87331Y17882D01*
X87665Y17842D02*
X87745Y17842D01*
X87705Y17802D02*
X87705Y17882D01*
X88039Y17842D02*
X88119Y17842D01*
X88079Y17802D02*
X88079Y17882D01*
X88039Y17468D02*
X88119Y17468D01*
X88079Y17428D02*
X88079Y17508D01*
X87665Y17468D02*
X87745Y17468D01*
X87705Y17428D02*
X87705Y17508D01*
X87291Y17468D02*
X87371Y17468D01*
X87331Y17428D02*
X87331Y17508D01*
X88039Y17094D02*
X88119Y17094D01*
X88079Y17054D02*
X88079Y17134D01*
X87665Y17094D02*
X87745Y17094D01*
X87705Y17054D02*
X87705Y17134D01*
X87291Y17094D02*
X87371Y17094D01*
X87331Y17054D02*
X87331Y17134D01*
X88039Y16720D02*
X88119Y16720D01*
X88079Y16680D02*
X88079Y16760D01*
X87665Y16720D02*
X87745Y16720D01*
X87705Y16680D02*
X87705Y16760D01*
X87291Y16720D02*
X87371Y16720D01*
X87331Y16680D02*
X87331Y16760D01*
X87114Y16208D02*
X87194Y16208D01*
X87154Y16168D02*
X87154Y16248D01*
X86523Y16208D02*
X86603Y16208D01*
X86563Y16168D02*
X86563Y16248D01*
X84653Y15519D02*
X84733Y15519D01*
X84693Y15479D02*
X84693Y15559D01*
X86326Y16602D02*
X86406Y16602D01*
X86366Y16562D02*
X86366Y16642D01*
X84259Y16011D02*
X84339Y16011D01*
X84299Y15971D02*
X84299Y16051D01*
X84259Y16307D02*
X84339Y16307D01*
X84299Y16267D02*
X84299Y16347D01*
X85440Y17291D02*
X85520Y17291D01*
X85480Y17251D02*
X85480Y17331D01*
X85047Y17291D02*
X85127Y17291D01*
X85087Y17251D02*
X85087Y17331D01*
X80719Y19967D02*
X80799Y19967D01*
X80759Y19927D02*
X80759Y20007D01*
X80719Y19606D02*
X80799Y19606D01*
X80759Y19566D02*
X80759Y19646D01*
X80719Y19245D02*
X80799Y19245D01*
X80759Y19205D02*
X80759Y19285D01*
X80719Y18884D02*
X80799Y18884D01*
X80759Y18844D02*
X80759Y18924D01*
X85814Y17980D02*
X85894Y17980D01*
X85854Y17940D02*
X85854Y18020D01*
X85243Y19181D02*
X85323Y19181D01*
X85283Y19141D02*
X85283Y19221D01*
X85243Y20362D02*
X85323Y20362D01*
X85283Y20322D02*
X85283Y20402D01*
X85637Y20362D02*
X85717Y20362D01*
X85677Y20322D02*
X85677Y20402D01*
X86031Y20362D02*
X86111Y20362D01*
X86071Y20322D02*
X86071Y20402D01*
X86425Y20362D02*
X86505Y20362D01*
X86465Y20322D02*
X86465Y20402D01*
X86720Y18374D02*
X86800Y18374D01*
X86760Y18334D02*
X86760Y18414D01*
X86818Y20362D02*
X86898Y20362D01*
X86858Y20322D02*
X86858Y20402D01*
X87114Y18374D02*
X87194Y18374D01*
X87154Y18334D02*
X87154Y18414D01*
X87606Y20362D02*
X87686Y20362D01*
X87646Y20322D02*
X87646Y20402D01*
X87999Y20362D02*
X88079Y20362D01*
X88039Y20322D02*
X88039Y20402D01*
X88393Y21149D02*
X88473Y21149D01*
X88433Y21109D02*
X88433Y21189D01*
X88393Y18275D02*
X88473Y18275D01*
X88433Y18235D02*
X88433Y18315D01*
X89889Y19063D02*
X89969Y19063D01*
X89929Y19023D02*
X89929Y19103D01*
X89515Y17685D02*
X89595Y17685D01*
X89555Y17645D02*
X89555Y17725D01*
X89279Y17488D02*
X89359Y17488D01*
X89319Y17448D02*
X89319Y17528D01*
X89279Y17094D02*
X89359Y17094D01*
X89319Y17054D02*
X89319Y17134D01*
X89515Y16897D02*
X89595Y16897D01*
X89555Y16857D02*
X89555Y16937D01*
X90165Y14732D02*
X90245Y14732D01*
X90205Y14692D02*
X90205Y14772D01*
X84653Y17291D02*
X84733Y17291D01*
X84693Y17251D02*
X84693Y17331D01*
X84653Y17685D02*
X84733Y17685D01*
X84693Y17645D02*
X84693Y17725D01*
X84259Y17685D02*
X84339Y17685D01*
X84299Y17645D02*
X84299Y17725D01*
X84259Y17291D02*
X84339Y17291D01*
X84299Y17251D02*
X84299Y17331D01*
X27657Y43963D02*
X27737Y43963D01*
X27697Y43923D02*
X27697Y44003D01*
X27283Y43963D02*
X27363Y43963D01*
X27323Y43923D02*
X27323Y44003D01*
X27677Y45537D02*
X27757Y45537D01*
X27717Y45497D02*
X27717Y45577D01*
X27283Y45537D02*
X27363Y45537D01*
X27323Y45497D02*
X27323Y45577D01*
X27480Y45813D02*
X27560Y45813D01*
X27520Y45773D02*
X27520Y45853D01*
X26099Y49798D02*
X26179Y49798D01*
X26139Y49758D02*
X26139Y49838D01*
X26699Y49798D02*
X26779Y49798D01*
X26739Y49758D02*
X26739Y49838D01*
X25499Y49798D02*
X25579Y49798D01*
X25539Y49758D02*
X25539Y49838D01*
X27299Y49798D02*
X27379Y49798D01*
X27339Y49758D02*
X27339Y49838D01*
X25708Y46325D02*
X25788Y46325D01*
X25748Y46285D02*
X25748Y46365D01*
X28779Y46325D02*
X28859Y46325D01*
X28819Y46285D02*
X28819Y46365D01*
X29448Y46818D02*
X29528Y46818D01*
X29488Y46778D02*
X29488Y46859D01*
X29842Y46818D02*
X29922Y46818D01*
X29882Y46778D02*
X29882Y46859D01*
X29448Y44789D02*
X29528Y44789D01*
X29488Y44749D02*
X29488Y44829D01*
X61681Y30287D02*
X61761Y30287D01*
X61721Y30247D02*
X61721Y30327D01*
X60893Y30287D02*
X60973Y30287D01*
X60933Y30247D02*
X60933Y30327D01*
X58630Y29805D02*
X58710Y29805D01*
X58670Y29765D02*
X58670Y29845D01*
X58453Y28279D02*
X58533Y28279D01*
X58493Y28239D02*
X58493Y28319D01*
X56464Y27826D02*
X56544Y27826D01*
X56504Y27786D02*
X56504Y27866D01*
X56484Y28220D02*
X56564Y28220D01*
X56524Y28180D02*
X56524Y28260D01*
X56504Y28614D02*
X56584Y28614D01*
X56544Y28574D02*
X56544Y28654D01*
X58393Y30031D02*
X58473Y30031D01*
X58433Y29991D02*
X58433Y30071D01*
X58393Y30622D02*
X58473Y30622D01*
X58433Y30582D02*
X58433Y30662D01*
X60559Y30582D02*
X60639Y30582D01*
X60599Y30542D02*
X60599Y30622D01*
X57710Y29450D02*
X57790Y29450D01*
X57750Y29410D02*
X57750Y29490D01*
X53315Y27334D02*
X53395Y27334D01*
X53355Y27294D02*
X53355Y27374D01*
X51543Y27334D02*
X51623Y27334D01*
X51583Y27294D02*
X51583Y27374D01*
X48098Y29874D02*
X48178Y29874D01*
X48138Y29834D02*
X48138Y29914D01*
X48393Y30169D02*
X48473Y30169D01*
X48433Y30129D02*
X48433Y30209D01*
X48393Y29578D02*
X48473Y29578D01*
X48433Y29538D02*
X48433Y29618D01*
X47803Y29578D02*
X47883Y29578D01*
X47843Y29538D02*
X47843Y29618D01*
X47803Y30169D02*
X47883Y30169D01*
X47843Y30129D02*
X47843Y30209D01*
X47508Y29874D02*
X47588Y29874D01*
X47548Y29834D02*
X47548Y29914D01*
X62183Y33683D02*
X62263Y33683D01*
X62223Y33643D02*
X62223Y33723D01*
X62468Y32374D02*
X62548Y32374D01*
X62508Y32334D02*
X62508Y32414D01*
X62468Y33122D02*
X62548Y33122D01*
X62508Y33082D02*
X62508Y33162D01*
X60401Y34421D02*
X60481Y34421D01*
X60441Y34381D02*
X60441Y34461D01*
X59219Y34571D02*
X59299Y34571D01*
X59259Y34531D02*
X59259Y34611D01*
X59219Y34177D02*
X59299Y34177D01*
X59259Y34137D02*
X59259Y34217D01*
X60500Y30287D02*
X60580Y30287D01*
X60540Y30247D02*
X60540Y30327D01*
X60893Y35897D02*
X60973Y35897D01*
X60933Y35857D02*
X60933Y35937D01*
X65976Y28614D02*
X66056Y28614D01*
X66016Y28574D02*
X66016Y28654D01*
X65260Y25961D02*
X65340Y25961D01*
X65300Y25921D02*
X65300Y26001D01*
X64710Y25961D02*
X64790Y25961D01*
X64750Y25921D02*
X64750Y26001D01*
X64210Y25961D02*
X64290Y25961D01*
X64250Y25921D02*
X64250Y26001D01*
X63710Y25961D02*
X63790Y25961D01*
X63750Y25921D02*
X63750Y26001D01*
X67944Y24146D02*
X68024Y24146D01*
X67984Y24106D02*
X67984Y24186D01*
X68476Y24146D02*
X68556Y24146D01*
X68516Y24106D02*
X68516Y24186D01*
X53118Y25480D02*
X53198Y25480D01*
X53158Y25440D02*
X53158Y25520D01*
X51720Y25480D02*
X51800Y25480D01*
X51760Y25440D02*
X51760Y25520D01*
X49624Y28465D02*
X49704Y28465D01*
X49664Y28425D02*
X49664Y28505D01*
X49092Y28465D02*
X49172Y28465D01*
X49132Y28425D02*
X49132Y28505D01*
X12160Y1550D02*
X12240Y1550D01*
X12200Y1510D02*
X12200Y1590D01*
X11910Y1300D02*
X11990Y1300D01*
X11950Y1260D02*
X11950Y1340D01*
X12410Y1300D02*
X12490Y1300D01*
X12450Y1260D02*
X12450Y1340D01*
X12660Y1550D02*
X12740Y1550D01*
X12700Y1510D02*
X12700Y1590D01*
X9660Y3050D02*
X9740Y3050D01*
X9700Y3010D02*
X9700Y3090D01*
X12660Y2050D02*
X12740Y2050D01*
X12700Y2010D02*
X12700Y2090D01*
X12660Y2550D02*
X12740Y2550D01*
X12700Y2510D02*
X12700Y2590D01*
X12660Y3050D02*
X12740Y3050D01*
X12700Y3010D02*
X12700Y3090D01*
X2160Y49690D02*
X2240Y49690D01*
X2200Y49650D02*
X2200Y49730D01*
X92456Y38327D02*
X92536Y38327D01*
X92496Y38287D02*
X92496Y38367D01*
X38210Y27250D02*
X38290Y27250D01*
X38250Y27210D02*
X38250Y27290D01*
X38210Y27750D02*
X38290Y27750D01*
X38250Y27710D02*
X38250Y27790D01*
X37710Y27750D02*
X37790Y27750D01*
X37750Y27710D02*
X37750Y27790D01*
X37710Y27250D02*
X37790Y27250D01*
X37750Y27210D02*
X37750Y27290D01*
X37960Y27000D02*
X38040Y27000D01*
X38000Y26960D02*
X38000Y27040D01*
X38960Y26750D02*
X39040Y26750D01*
X39000Y26710D02*
X39000Y26790D01*
X40210Y27500D02*
X40290Y27500D01*
X40250Y27460D02*
X40250Y27540D01*
X40210Y27900D02*
X40290Y27900D01*
X40250Y27860D02*
X40250Y27940D01*
X40781Y29317D02*
X40861Y29317D01*
X40821Y29277D02*
X40821Y29357D01*
X36923Y23157D02*
X37003Y23157D01*
X36963Y23117D02*
X36963Y23197D01*
X36923Y23551D02*
X37003Y23551D01*
X36963Y23511D02*
X36963Y23591D01*
X41190Y25043D02*
X41270Y25043D01*
X41230Y25003D02*
X41230Y25083D01*
X40883Y25043D02*
X40963Y25043D01*
X40923Y25003D02*
X40923Y25083D01*
X38854Y25750D02*
X38934Y25750D01*
X38894Y25710D02*
X38894Y25790D01*
X40525Y25530D02*
X40605Y25530D01*
X40565Y25490D02*
X40565Y25570D01*
X43267Y23841D02*
X43347Y23841D01*
X43307Y23801D02*
X43307Y23881D01*
X43858Y23841D02*
X43938Y23841D01*
X43898Y23801D02*
X43898Y23881D01*
X44448Y23841D02*
X44528Y23841D01*
X44488Y23801D02*
X44488Y23881D01*
X45039Y23841D02*
X45119Y23841D01*
X45079Y23801D02*
X45079Y23881D01*
X45629Y23841D02*
X45709Y23841D01*
X45669Y23801D02*
X45669Y23881D01*
X46614Y23841D02*
X46694Y23841D01*
X46654Y23801D02*
X46654Y23881D01*
X42086Y23841D02*
X42166Y23841D01*
X42126Y23801D02*
X42126Y23881D01*
X42677Y23841D02*
X42757Y23841D01*
X42717Y23801D02*
X42717Y23881D01*
X40525Y26144D02*
X40605Y26144D01*
X40565Y26104D02*
X40565Y26184D01*
X40541Y26656D02*
X40621Y26656D01*
X40581Y26616D02*
X40581Y26696D01*
X53064Y20258D02*
X53144Y20258D01*
X53104Y20218D02*
X53104Y20298D01*
X82110Y11850D02*
X82190Y11850D01*
X82150Y11810D02*
X82150Y11890D01*
X85110Y11850D02*
X85190Y11850D01*
X85150Y11810D02*
X85150Y11890D01*
X68221Y11864D02*
X68301Y11864D01*
X68261Y11824D02*
X68261Y11904D01*
X71221Y11864D02*
X71301Y11864D01*
X71261Y11824D02*
X71261Y11904D01*
X68812Y15764D02*
X68892Y15764D01*
X68852Y15724D02*
X68852Y15804D01*
X69796Y15764D02*
X69876Y15764D01*
X69836Y15724D02*
X69836Y15804D01*
X70977Y15764D02*
X71057Y15764D01*
X71017Y15724D02*
X71017Y15804D01*
X69971Y16264D02*
X70051Y16264D01*
X70011Y16224D02*
X70011Y16304D01*
X69471Y16264D02*
X69551Y16264D01*
X69511Y16224D02*
X69511Y16304D01*
X68971Y16264D02*
X69051Y16264D01*
X69011Y16224D02*
X69011Y16304D01*
X68471Y16264D02*
X68551Y16264D01*
X68511Y16224D02*
X68511Y16304D01*
X67971Y16764D02*
X68051Y16764D01*
X68011Y16724D02*
X68011Y16804D01*
X68971Y16764D02*
X69051Y16764D01*
X69011Y16724D02*
X69011Y16804D01*
X69971Y17264D02*
X70051Y17264D01*
X70011Y17224D02*
X70011Y17304D01*
X69471Y17264D02*
X69551Y17264D01*
X69511Y17224D02*
X69511Y17304D01*
X68971Y17264D02*
X69051Y17264D01*
X69011Y17224D02*
X69011Y17304D01*
X67971Y16264D02*
X68051Y16264D01*
X68011Y16224D02*
X68011Y16304D01*
X68471Y16764D02*
X68551Y16764D01*
X68511Y16724D02*
X68511Y16804D01*
X77960Y2052D02*
X78040Y2052D01*
X78000Y2012D02*
X78000Y2092D01*
X64971Y18764D02*
X65051Y18764D01*
X65011Y18724D02*
X65011Y18804D01*
X67040Y18817D02*
X67120Y18817D01*
X67080Y18777D02*
X67080Y18857D01*
X66221Y20264D02*
X66301Y20264D01*
X66261Y20224D02*
X66261Y20304D01*
X68221Y19264D02*
X68301Y19264D01*
X68261Y19224D02*
X68261Y19304D01*
X68418Y19014D02*
X68498Y19014D01*
X68458Y18974D02*
X68458Y19054D01*
X68615Y19264D02*
X68695Y19264D01*
X68655Y19224D02*
X68655Y19304D01*
X68812Y19014D02*
X68892Y19014D01*
X68852Y18974D02*
X68852Y19054D01*
X69205Y19014D02*
X69285Y19014D01*
X69245Y18974D02*
X69245Y19054D01*
X69008Y19264D02*
X69088Y19264D01*
X69048Y19224D02*
X69048Y19304D01*
X69402Y19264D02*
X69482Y19264D01*
X69442Y19224D02*
X69442Y19304D01*
X69599Y18764D02*
X69679Y18764D01*
X69639Y18724D02*
X69639Y18804D01*
X69771Y20364D02*
X69851Y20364D01*
X69811Y20324D02*
X69811Y20404D01*
X69471Y21264D02*
X69551Y21264D01*
X69511Y21224D02*
X69511Y21304D01*
X72971Y19791D02*
X73051Y19791D01*
X73011Y19751D02*
X73011Y19831D01*
X71971Y18514D02*
X72051Y18514D01*
X72011Y18474D02*
X72011Y18554D01*
X66843Y13914D02*
X66923Y13914D01*
X66883Y13874D02*
X66883Y13954D01*
X65721Y14514D02*
X65801Y14514D01*
X65761Y14474D02*
X65761Y14554D01*
X68709Y12326D02*
X68789Y12326D01*
X68749Y12286D02*
X68749Y12366D01*
X65721Y9514D02*
X65801Y9514D01*
X65761Y9474D02*
X65761Y9554D01*
X66221Y9514D02*
X66301Y9514D01*
X66261Y9474D02*
X66261Y9554D01*
X66721Y9514D02*
X66801Y9514D01*
X66761Y9474D02*
X66761Y9554D01*
X67221Y9514D02*
X67301Y9514D01*
X67261Y9474D02*
X67261Y9554D01*
X66021Y12514D02*
X66101Y12514D01*
X66061Y12474D02*
X66061Y12554D01*
X66521Y12514D02*
X66601Y12514D01*
X66561Y12474D02*
X66561Y12554D01*
X67021Y12514D02*
X67101Y12514D01*
X67061Y12474D02*
X67061Y12554D01*
X67521Y12514D02*
X67601Y12514D01*
X67561Y12474D02*
X67561Y12554D01*
X67971Y17264D02*
X68051Y17264D01*
X68011Y17224D02*
X68011Y17304D01*
X69971Y16764D02*
X70051Y16764D01*
X70011Y16724D02*
X70011Y16804D01*
X69471Y16764D02*
X69551Y16764D01*
X69511Y16724D02*
X69511Y16804D01*
X68471Y17264D02*
X68551Y17264D01*
X68511Y17224D02*
X68511Y17304D01*
X71221Y17264D02*
X71301Y17264D01*
X71261Y17224D02*
X71261Y17304D01*
X71471Y17514D02*
X71551Y17514D01*
X71511Y17474D02*
X71511Y17554D01*
X71971Y16998D02*
X72051Y16998D01*
X72011Y16958D02*
X72011Y17038D01*
X71971Y15364D02*
X72051Y15364D01*
X72011Y15324D02*
X72011Y15404D01*
X73321Y14086D02*
X73401Y14086D01*
X73361Y14046D02*
X73361Y14126D01*
X73821Y14086D02*
X73901Y14086D01*
X73861Y14046D02*
X73861Y14126D01*
X74321Y14086D02*
X74401Y14086D01*
X74361Y14046D02*
X74361Y14126D01*
X74821Y14086D02*
X74901Y14086D01*
X74861Y14046D02*
X74861Y14126D01*
X73621Y17086D02*
X73701Y17086D01*
X73661Y17046D02*
X73661Y17126D01*
X74121Y17086D02*
X74201Y17086D01*
X74161Y17046D02*
X74161Y17126D01*
X74621Y17086D02*
X74701Y17086D01*
X74661Y17046D02*
X74661Y17126D01*
X75121Y17086D02*
X75201Y17086D01*
X75161Y17046D02*
X75161Y17126D01*
X13135Y9247D02*
X13215Y9247D01*
X13175Y9207D02*
X13175Y9287D01*
X13457Y8500D02*
X13537Y8500D01*
X13497Y8460D02*
X13497Y8540D01*
X15886Y8817D02*
X15966Y8817D01*
X15926Y8777D02*
X15926Y8857D01*
X16310Y8500D02*
X16390Y8500D01*
X16350Y8460D02*
X16350Y8540D01*
X17408Y9250D02*
X17488Y9250D01*
X17448Y9210D02*
X17448Y9290D01*
X18960Y5455D02*
X19040Y5455D01*
X19000Y5415D02*
X19000Y5495D01*
X17210Y8700D02*
X17290Y8700D01*
X17250Y8660D02*
X17250Y8740D01*
X15610Y6750D02*
X15690Y6750D01*
X15650Y6710D02*
X15650Y6790D01*
X14960Y5900D02*
X15040Y5900D01*
X15000Y5860D02*
X15000Y5940D01*
X16210Y3950D02*
X16290Y3950D01*
X16250Y3910D02*
X16250Y3990D01*
X14413Y7550D02*
X14493Y7550D01*
X14453Y7510D02*
X14453Y7590D01*
X13960Y8000D02*
X14040Y8000D01*
X14000Y7960D02*
X14000Y8040D01*
X15360Y7000D02*
X15440Y7000D01*
X15400Y6960D02*
X15400Y7040D01*
X15010Y6750D02*
X15090Y6750D01*
X15050Y6710D02*
X15050Y6790D01*
X15010Y6400D02*
X15090Y6400D01*
X15050Y6360D02*
X15050Y6440D01*
X13960Y6350D02*
X14040Y6350D01*
X14000Y6310D02*
X14000Y6390D01*
X13360Y6950D02*
X13440Y6950D01*
X13400Y6910D02*
X13400Y6990D01*
X18560Y6550D02*
X18640Y6550D01*
X18600Y6510D02*
X18600Y6590D01*
X13560Y5900D02*
X13640Y5900D01*
X13600Y5860D02*
X13600Y5940D01*
X13560Y5450D02*
X13640Y5450D01*
X13600Y5410D02*
X13600Y5490D01*
X8929Y46581D02*
X9009Y46581D01*
X8969Y46541D02*
X8969Y46621D01*
X85141Y43825D02*
X85221Y43825D01*
X85181Y43785D02*
X85181Y43865D01*
X7267Y11407D02*
X7347Y11407D01*
X7307Y11367D02*
X7307Y11447D01*
X7267Y10463D02*
X7347Y10463D01*
X7307Y10423D02*
X7307Y10503D01*
X8408Y13493D02*
X8488Y13493D01*
X8448Y13453D02*
X8448Y13533D01*
X8723Y13493D02*
X8803Y13493D01*
X8763Y13453D02*
X8763Y13533D01*
X9038Y13493D02*
X9118Y13493D01*
X9078Y13453D02*
X9078Y13533D01*
X9353Y13493D02*
X9433Y13493D01*
X9393Y13453D02*
X9393Y13533D01*
X10297Y9007D02*
X10377Y9007D01*
X10337Y8967D02*
X10337Y9047D01*
X4210Y15480D02*
X4290Y15480D01*
X4250Y15440D02*
X4250Y15520D01*
X13210Y5500D02*
X13290Y5500D01*
X13250Y5460D02*
X13250Y5540D01*
X13210Y3500D02*
X13290Y3500D01*
X13250Y3460D02*
X13250Y3540D01*
X9038Y9150D02*
X9118Y9150D01*
X9078Y9110D02*
X9078Y9190D01*
X9038Y8222D02*
X9118Y8222D01*
X9078Y8182D02*
X9078Y8262D01*
X6312Y12352D02*
X6392Y12352D01*
X6352Y12312D02*
X6352Y12392D01*
X7466Y12352D02*
X7546Y12352D01*
X7506Y12312D02*
X7506Y12392D01*
X9982Y9000D02*
X10062Y9000D01*
X10022Y8960D02*
X10022Y9040D01*
X10612Y9016D02*
X10692Y9016D01*
X10652Y8976D02*
X10652Y9056D01*
X8960Y14500D02*
X9040Y14500D01*
X9000Y14460D02*
X9000Y14540D01*
X8960Y14000D02*
X9040Y14000D01*
X9000Y13960D02*
X9000Y14040D01*
X8929Y43825D02*
X9009Y43825D01*
X8969Y43785D02*
X8969Y43865D01*
X1614Y36673D02*
X1694Y36673D01*
X1654Y36633D02*
X1654Y36713D01*
X1614Y38327D02*
X1694Y38327D01*
X1654Y38287D02*
X1654Y38367D01*
X4860Y37000D02*
X4940Y37000D01*
X4900Y36960D02*
X4900Y37040D01*
X6960Y39400D02*
X7040Y39400D01*
X7000Y39360D02*
X7000Y39440D01*
X5210Y37500D02*
X5290Y37500D01*
X5250Y37460D02*
X5250Y37540D01*
X4525Y37500D02*
X4605Y37500D01*
X4565Y37460D02*
X4565Y37540D01*
X6060Y40450D02*
X6140Y40450D01*
X6100Y40410D02*
X6100Y40490D01*
X4836Y41000D02*
X4916Y41000D01*
X4876Y40960D02*
X4876Y41040D01*
X88460Y48750D02*
X88540Y48750D01*
X88500Y48710D02*
X88500Y48790D01*
X68726Y53185D02*
X68806Y53185D01*
X68766Y53145D02*
X68766Y53225D01*
X68726Y52500D02*
X68806Y52500D01*
X68766Y52460D02*
X68766Y52540D01*
X69460Y51000D02*
X69540Y51000D01*
X69500Y50960D02*
X69500Y51040D01*
X68210Y53000D02*
X68290Y53000D01*
X68250Y52960D02*
X68250Y53040D01*
X510Y41500D02*
X590Y41500D01*
X550Y41460D02*
X550Y41540D01*
X2410Y41500D02*
X2490Y41500D01*
X2450Y41460D02*
X2450Y41540D01*
X510Y40000D02*
X590Y40000D01*
X550Y39960D02*
X550Y40040D01*
X2410Y40000D02*
X2490Y40000D01*
X2450Y39960D02*
X2450Y40040D01*
X1460Y35000D02*
X1540Y35000D01*
X1500Y34960D02*
X1500Y35040D01*
X1460Y34500D02*
X1540Y34500D01*
X1500Y34460D02*
X1500Y34540D01*
X1960Y33750D02*
X2040Y33750D01*
X2000Y33710D02*
X2000Y33790D01*
X2460Y33750D02*
X2540Y33750D01*
X2500Y33710D02*
X2500Y33790D01*
X12610Y11950D02*
X12690Y11950D01*
X12650Y11910D02*
X12650Y11990D01*
X14510Y11950D02*
X14590Y11950D01*
X14550Y11910D02*
X14550Y11990D01*
X14510Y13250D02*
X14590Y13250D01*
X14550Y13210D02*
X14550Y13290D01*
X12610Y13250D02*
X12690Y13250D01*
X12650Y13210D02*
X12650Y13290D01*
X10467Y11722D02*
X10547Y11722D01*
X10507Y11682D02*
X10507Y11762D01*
X10467Y11407D02*
X10547Y11407D01*
X10507Y11367D02*
X10507Y11447D01*
X11820Y10463D02*
X11900Y10463D01*
X11860Y10423D02*
X11860Y10503D01*
X11820Y10148D02*
X11900Y10148D01*
X11860Y10108D02*
X11860Y10188D01*
X86310Y41700D02*
X86390Y41700D01*
X86350Y41660D02*
X86350Y41740D01*
X86310Y41250D02*
X86390Y41250D01*
X86350Y41210D02*
X86350Y41290D01*
X5454Y49650D02*
X5534Y49650D01*
X5494Y49610D02*
X5494Y49690D01*
X15860Y1876D02*
X15940Y1876D01*
X15900Y1836D02*
X15900Y1916D01*
X10210Y6500D02*
X10290Y6500D01*
X10250Y6460D02*
X10250Y6540D01*
X8710Y11000D02*
X8790Y11000D01*
X8750Y10960D02*
X8750Y11040D01*
X39960Y2065D02*
X40040Y2065D01*
X40000Y2025D02*
X40000Y2105D01*
X49881Y6248D02*
X49961Y6248D01*
X49921Y6208D02*
X49921Y6288D01*
X39960Y1835D02*
X40040Y1835D01*
X40000Y1795D02*
X40000Y1875D01*
X49881Y6018D02*
X49961Y6018D01*
X49921Y5978D02*
X49921Y6058D01*
X39017Y1000D02*
X39097Y1000D01*
X39057Y960D02*
X39057Y1040D01*
X39017Y2900D02*
X39097Y2900D01*
X39057Y2860D02*
X39057Y2940D01*
X37717Y2900D02*
X37797Y2900D01*
X37757Y2860D02*
X37757Y2940D01*
X37717Y1000D02*
X37797Y1000D01*
X37757Y960D02*
X37757Y1040D01*
X1525Y33100D02*
X1605Y33100D01*
X1565Y33060D02*
X1565Y33140D01*
X12545Y15950D02*
X12625Y15950D01*
X12585Y15910D02*
X12585Y15990D01*
X1295Y33100D02*
X1375Y33100D01*
X1335Y33060D02*
X1335Y33140D01*
X12775Y15950D02*
X12855Y15950D01*
X12815Y15910D02*
X12815Y15990D01*
X11060Y42750D02*
X11140Y42750D01*
X11100Y42710D02*
X11100Y42790D01*
X9410Y41980D02*
X9490Y41980D01*
X9450Y41940D02*
X9450Y42020D01*
X9060Y42750D02*
X9140Y42750D01*
X9100Y42710D02*
X9100Y42790D01*
X90460Y48500D02*
X90540Y48500D01*
X90500Y48460D02*
X90500Y48540D01*
X92460Y48500D02*
X92540Y48500D01*
X92500Y48460D02*
X92500Y48540D01*
X90810Y49270D02*
X90890Y49270D01*
X90850Y49230D02*
X90850Y49310D01*
X1210Y47750D02*
X1290Y47750D01*
X1250Y47710D02*
X1250Y47790D01*
X38560Y13350D02*
X38640Y13350D01*
X38600Y13310D02*
X38600Y13390D01*
X38160Y13350D02*
X38240Y13350D01*
X38200Y13310D02*
X38200Y13390D01*
X37866Y8550D02*
X37946Y8550D01*
X37906Y8510D02*
X37906Y8590D01*
X37866Y8250D02*
X37946Y8250D01*
X37906Y8210D02*
X37906Y8290D01*
X37160Y9500D02*
X37240Y9500D01*
X37200Y9460D02*
X37200Y9540D01*
X36760Y8950D02*
X36840Y8950D01*
X36800Y8910D02*
X36800Y8990D01*
X22960Y11500D02*
X23040Y11500D01*
X23000Y11460D02*
X23000Y11540D01*
X2310Y5500D02*
X2390Y5500D01*
X2350Y5460D02*
X2350Y5540D01*
X5210Y34800D02*
X5290Y34800D01*
X5250Y34760D02*
X5250Y34840D01*
X5213Y35197D02*
X5293Y35197D01*
X5253Y35157D02*
X5253Y35237D01*
X3966Y34606D02*
X4046Y34606D01*
X4006Y34566D02*
X4006Y34646D01*
X7860Y34803D02*
X7940Y34803D01*
X7900Y34763D02*
X7900Y34843D01*
X7860Y35900D02*
X7940Y35900D01*
X7900Y35860D02*
X7900Y35940D01*
X5960Y8480D02*
X6040Y8480D01*
X6000Y8440D02*
X6000Y8520D01*
X2210Y16500D02*
X2290Y16500D01*
X2250Y16460D02*
X2250Y16540D01*
X2710Y16750D02*
X2790Y16750D01*
X2750Y16710D02*
X2750Y16790D01*
X9710Y10850D02*
X9790Y10850D01*
X9750Y10810D02*
X9750Y10890D01*
X9940Y10850D02*
X10020Y10850D01*
X9980Y10810D02*
X9980Y10890D01*
X8910Y3500D02*
X8990Y3500D01*
X8950Y3460D02*
X8950Y3540D01*
X18560Y8000D02*
X18640Y8000D01*
X18600Y7960D02*
X18600Y8040D01*
X10710Y4750D02*
X10790Y4750D01*
X10750Y4710D02*
X10750Y4790D01*
X12960Y7500D02*
X13040Y7500D01*
X13000Y7460D02*
X13000Y7540D01*
X34110Y6200D02*
X34190Y6200D01*
X34150Y6160D02*
X34150Y6240D01*
X29512Y5100D02*
X29592Y5100D01*
X29552Y5060D02*
X29552Y5140D01*
X30736Y5250D02*
X30816Y5250D01*
X30776Y5210D02*
X30776Y5290D01*
X31012Y5100D02*
X31092Y5100D01*
X31052Y5060D02*
X31052Y5140D01*
X31460Y5100D02*
X31540Y5100D01*
X31500Y5060D02*
X31500Y5140D01*
X29960Y5100D02*
X30040Y5100D01*
X30000Y5060D02*
X30000Y5140D01*
X30236Y5250D02*
X30316Y5250D01*
X30276Y5210D02*
X30276Y5290D01*
X34710Y7250D02*
X34790Y7250D01*
X34750Y7210D02*
X34750Y7290D01*
X35460Y7750D02*
X35540Y7750D01*
X35500Y7710D02*
X35500Y7790D01*
X32512Y5100D02*
X32592Y5100D01*
X32552Y5060D02*
X32552Y5140D01*
X35960Y8000D02*
X36040Y8000D01*
X36000Y7960D02*
X36000Y8040D01*
X36354Y6894D02*
X36434Y6894D01*
X36394Y6854D02*
X36394Y6934D01*
X36210Y8250D02*
X36290Y8250D01*
X36250Y8210D02*
X36250Y8290D01*
X19460Y6750D02*
X19540Y6750D01*
X19500Y6710D02*
X19500Y6790D01*
X20960Y5250D02*
X21040Y5250D01*
X21000Y5210D02*
X21000Y5290D01*
X20710Y5000D02*
X20790Y5000D01*
X20750Y4960D02*
X20750Y5040D01*
X28460Y5100D02*
X28540Y5100D01*
X28500Y5060D02*
X28500Y5140D01*
X24236Y4750D02*
X24316Y4750D01*
X24276Y4710D02*
X24276Y4790D01*
X26236Y6000D02*
X26316Y6000D01*
X26276Y5960D02*
X26276Y6040D01*
X25736Y5750D02*
X25816Y5750D01*
X25776Y5710D02*
X25776Y5790D01*
X24736Y5500D02*
X24816Y5500D01*
X24776Y5460D02*
X24776Y5540D01*
X22710Y4750D02*
X22790Y4750D01*
X22750Y4710D02*
X22750Y4790D01*
X28210Y4000D02*
X28290Y4000D01*
X28250Y3960D02*
X28250Y4040D01*
X22210Y4500D02*
X22290Y4500D01*
X22250Y4460D02*
X22250Y4540D01*
X20960Y8750D02*
X21040Y8750D01*
X21000Y8710D02*
X21000Y8790D01*
X44210Y10500D02*
X44290Y10500D01*
X44250Y10460D02*
X44250Y10540D01*
X42960Y10750D02*
X43040Y10750D01*
X43000Y10710D02*
X43000Y10790D01*
X41210Y11250D02*
X41290Y11250D01*
X41250Y11210D02*
X41250Y11290D01*
X33460Y9200D02*
X33540Y9200D01*
X33500Y9160D02*
X33500Y9240D01*
X29460Y8750D02*
X29540Y8750D01*
X29500Y8710D02*
X29500Y8790D01*
X35460Y9500D02*
X35540Y9500D01*
X35500Y9460D02*
X35500Y9540D01*
X35460Y9000D02*
X35540Y9000D01*
X35500Y8960D02*
X35500Y9040D01*
X35460Y10900D02*
X35540Y10900D01*
X35500Y10860D02*
X35500Y10940D01*
X35460Y11400D02*
X35540Y11400D01*
X35500Y11360D02*
X35500Y11440D01*
X36560Y11000D02*
X36640Y11000D01*
X36600Y10960D02*
X36600Y11040D01*
X36717Y11707D02*
X36797Y11707D01*
X36757Y11667D02*
X36757Y11747D01*
X42210Y25500D02*
X42290Y25500D01*
X42250Y25460D02*
X42250Y25540D01*
X42210Y26000D02*
X42290Y26000D01*
X42250Y25960D02*
X42250Y26040D01*
X39410Y27100D02*
X39490Y27100D01*
X39450Y27060D02*
X39450Y27140D01*
X39410Y26750D02*
X39490Y26750D01*
X39450Y26710D02*
X39450Y26790D01*
X44660Y26000D02*
X44740Y26000D01*
X44700Y25960D02*
X44700Y26040D01*
X44660Y25750D02*
X44740Y25750D01*
X44700Y25710D02*
X44700Y25790D01*
X44660Y25500D02*
X44740Y25500D01*
X44700Y25460D02*
X44700Y25540D01*
X47204Y25250D02*
X47284Y25250D01*
X47244Y25210D02*
X47244Y25290D01*
X45710Y25250D02*
X45790Y25250D01*
X45750Y25210D02*
X45750Y25290D01*
X45710Y25750D02*
X45790Y25750D01*
X45750Y25710D02*
X45750Y25790D01*
X45710Y26250D02*
X45790Y26250D01*
X45750Y26210D02*
X45750Y26290D01*
X45460Y26500D02*
X45540Y26500D01*
X45500Y26460D02*
X45500Y26540D01*
X47210Y26250D02*
X47290Y26250D01*
X47250Y26210D02*
X47250Y26290D01*
X48260Y25500D02*
X48340Y25500D01*
X48300Y25460D02*
X48300Y25540D01*
X45460Y27550D02*
X45540Y27550D01*
X45500Y27510D02*
X45500Y27590D01*
X45710Y28000D02*
X45790Y28000D01*
X45750Y27960D02*
X45750Y28040D01*
X44960Y28500D02*
X45040Y28500D01*
X45000Y28460D02*
X45000Y28540D01*
X44960Y29000D02*
X45040Y29000D01*
X45000Y28960D02*
X45000Y29040D01*
X40954Y28894D02*
X41034Y28894D01*
X40994Y28854D02*
X40994Y28934D01*
X46660Y28750D02*
X46740Y28750D01*
X46700Y28710D02*
X46700Y28790D01*
X46260Y28750D02*
X46340Y28750D01*
X46300Y28710D02*
X46300Y28790D01*
X49510Y20400D02*
X49590Y20400D01*
X49550Y20360D02*
X49550Y20440D01*
X49960Y20400D02*
X50040Y20400D01*
X50000Y20360D02*
X50000Y20440D01*
X55316Y19956D02*
X55396Y19956D01*
X55356Y19916D02*
X55356Y19996D01*
X56460Y19494D02*
X56540Y19494D01*
X56500Y19454D02*
X56500Y19534D01*
X56010Y19494D02*
X56090Y19494D01*
X56050Y19454D02*
X56050Y19534D01*
X54916Y18856D02*
X54996Y18856D01*
X54956Y18816D02*
X54956Y18896D01*
X74369Y33741D02*
X74449Y33741D01*
X74409Y33701D02*
X74409Y33781D01*
X36060Y28000D02*
X36140Y28000D01*
X36100Y27960D02*
X36100Y28040D01*
X35510Y26550D02*
X35590Y26550D01*
X35550Y26510D02*
X35550Y26590D01*
X35510Y26875D02*
X35590Y26875D01*
X35550Y26835D02*
X35550Y26915D01*
X35110Y27200D02*
X35190Y27200D01*
X35150Y27160D02*
X35150Y27240D01*
X35510Y27200D02*
X35590Y27200D01*
X35550Y27160D02*
X35550Y27240D01*
X36860Y26450D02*
X36940Y26450D01*
X36900Y26410D02*
X36900Y26490D01*
X35710Y30750D02*
X35790Y30750D01*
X35750Y30710D02*
X35750Y30790D01*
X35960Y15250D02*
X36040Y15250D01*
X36000Y15210D02*
X36000Y15290D01*
X45210Y7250D02*
X45290Y7250D01*
X45250Y7210D02*
X45250Y7290D01*
X49566Y7919D02*
X49646Y7919D01*
X49606Y7879D02*
X49606Y7959D01*
X45210Y6750D02*
X45290Y6750D01*
X45250Y6710D02*
X45250Y6790D01*
X49566Y7689D02*
X49646Y7689D01*
X49606Y7649D02*
X49606Y7729D01*
X51395Y4899D02*
X51475Y4899D01*
X51435Y4859D02*
X51435Y4939D01*
X67040Y19750D02*
X67120Y19750D01*
X67080Y19710D02*
X67080Y19790D01*
X67960Y21264D02*
X68040Y21264D01*
X68000Y21224D02*
X68000Y21304D01*
X67960Y20764D02*
X68040Y20764D01*
X68000Y20724D02*
X68000Y20804D01*
X67960Y20264D02*
X68040Y20264D01*
X68000Y20224D02*
X68000Y20304D01*
X67960Y19764D02*
X68040Y19764D01*
X68000Y19724D02*
X68000Y19804D01*
X63710Y17750D02*
X63790Y17750D01*
X63750Y17710D02*
X63750Y17790D01*
X63460Y18000D02*
X63540Y18000D01*
X63500Y17960D02*
X63500Y18040D01*
X63210Y18250D02*
X63290Y18250D01*
X63250Y18210D02*
X63250Y18290D01*
X62960Y18500D02*
X63040Y18500D01*
X63000Y18460D02*
X63000Y18540D01*
X35210Y15500D02*
X35290Y15500D01*
X35250Y15460D02*
X35250Y15540D01*
X34710Y15500D02*
X34790Y15500D01*
X34750Y15460D02*
X34750Y15540D01*
X35460Y15750D02*
X35540Y15750D01*
X35500Y15710D02*
X35500Y15790D01*
X34960Y15750D02*
X35040Y15750D01*
X35000Y15710D02*
X35000Y15790D01*
X37460Y22500D02*
X37540Y22500D01*
X37500Y22460D02*
X37500Y22540D01*
X36710Y19250D02*
X36790Y19250D01*
X36750Y19210D02*
X36750Y19290D01*
X33710Y19250D02*
X33790Y19250D01*
X33750Y19210D02*
X33750Y19290D01*
X61592Y33683D02*
X61672Y33683D01*
X61632Y33643D02*
X61632Y33723D01*
X45960Y22500D02*
X46040Y22500D01*
X46000Y22460D02*
X46000Y22540D01*
X45960Y21750D02*
X46040Y21750D01*
X46000Y21710D02*
X46000Y21790D01*
X45460Y20250D02*
X45540Y20250D01*
X45500Y20210D02*
X45500Y20290D01*
X12381Y39250D02*
X12461Y39250D01*
X12421Y39210D02*
X12421Y39290D01*
X36679Y49900D02*
X36759Y49900D01*
X36719Y49860D02*
X36719Y49940D01*
X37179Y49400D02*
X37259Y49400D01*
X37219Y49360D02*
X37219Y49440D01*
X36679Y47400D02*
X36759Y47400D01*
X36719Y47360D02*
X36719Y47440D01*
X36179Y47400D02*
X36259Y47400D01*
X36219Y47360D02*
X36219Y47440D01*
X36679Y46900D02*
X36759Y46900D01*
X36719Y46860D02*
X36719Y46940D01*
X36179Y46900D02*
X36259Y46900D01*
X36219Y46860D02*
X36219Y46940D01*
X37179Y47400D02*
X37259Y47400D01*
X37219Y47360D02*
X37219Y47440D01*
X37179Y46900D02*
X37259Y46900D01*
X37219Y46860D02*
X37219Y46940D01*
X37679Y46900D02*
X37759Y46900D01*
X37719Y46860D02*
X37719Y46940D01*
X37679Y46400D02*
X37759Y46400D01*
X37719Y46360D02*
X37719Y46440D01*
X38179Y46400D02*
X38259Y46400D01*
X38219Y46360D02*
X38219Y46440D01*
X37179Y46400D02*
X37259Y46400D01*
X37219Y46360D02*
X37219Y46440D01*
X36679Y46400D02*
X36759Y46400D01*
X36719Y46360D02*
X36719Y46440D01*
X36179Y46400D02*
X36259Y46400D01*
X36219Y46360D02*
X36219Y46440D01*
X36679Y45900D02*
X36759Y45900D01*
X36719Y45860D02*
X36719Y45940D01*
X36179Y45400D02*
X36259Y45400D01*
X36219Y45360D02*
X36219Y45440D01*
X37179Y45900D02*
X37259Y45900D01*
X37219Y45860D02*
X37219Y45940D01*
X38679Y45900D02*
X38759Y45900D01*
X38719Y45860D02*
X38719Y45940D01*
X38179Y45400D02*
X38259Y45400D01*
X38219Y45360D02*
X38219Y45440D01*
X37679Y45400D02*
X37759Y45400D01*
X37719Y45360D02*
X37719Y45440D01*
X39179Y45900D02*
X39259Y45900D01*
X39219Y45860D02*
X39219Y45940D01*
X39179Y46400D02*
X39259Y46400D01*
X39219Y46360D02*
X39219Y46440D01*
X38679Y46900D02*
X38759Y46900D01*
X38719Y46860D02*
X38719Y46940D01*
X38179Y46900D02*
X38259Y46900D01*
X38219Y46860D02*
X38219Y46940D01*
X38679Y47400D02*
X38759Y47400D01*
X38719Y47360D02*
X38719Y47440D01*
X38179Y47900D02*
X38259Y47900D01*
X38219Y47860D02*
X38219Y47940D01*
X38679Y48400D02*
X38759Y48400D01*
X38719Y48360D02*
X38719Y48440D01*
X38179Y48900D02*
X38259Y48900D01*
X38219Y48860D02*
X38219Y48940D01*
X38679Y49400D02*
X38759Y49400D01*
X38719Y49360D02*
X38719Y49440D01*
X38179Y49900D02*
X38259Y49900D01*
X38219Y49860D02*
X38219Y49940D01*
X39679Y49900D02*
X39759Y49900D01*
X39719Y49860D02*
X39719Y49940D01*
X40179Y49400D02*
X40259Y49400D01*
X40219Y49360D02*
X40219Y49440D01*
X39679Y48900D02*
X39759Y48900D01*
X39719Y48860D02*
X39719Y48940D01*
X40179Y48400D02*
X40259Y48400D01*
X40219Y48360D02*
X40219Y48440D01*
X39679Y47900D02*
X39759Y47900D01*
X39719Y47860D02*
X39719Y47940D01*
X40179Y47400D02*
X40259Y47400D01*
X40219Y47360D02*
X40219Y47440D01*
X39679Y46400D02*
X39759Y46400D01*
X39719Y46360D02*
X39719Y46440D01*
X40179Y46400D02*
X40259Y46400D01*
X40219Y46360D02*
X40219Y46440D01*
X39679Y45400D02*
X39759Y45400D01*
X39719Y45360D02*
X39719Y45440D01*
X40179Y45400D02*
X40259Y45400D01*
X40219Y45360D02*
X40219Y45440D01*
X40679Y45900D02*
X40759Y45900D01*
X40719Y45860D02*
X40719Y45940D01*
X42679Y45900D02*
X42759Y45900D01*
X42719Y45860D02*
X42719Y45940D01*
X43179Y45900D02*
X43259Y45900D01*
X43219Y45860D02*
X43219Y45940D01*
X42179Y46900D02*
X42259Y46900D01*
X42219Y46860D02*
X42219Y46940D01*
X41679Y47400D02*
X41759Y47400D01*
X41719Y47360D02*
X41719Y47440D01*
X41179Y47900D02*
X41259Y47900D01*
X41219Y47860D02*
X41219Y47940D01*
X41679Y48400D02*
X41759Y48400D01*
X41719Y48360D02*
X41719Y48440D01*
X41179Y48900D02*
X41259Y48900D01*
X41219Y48860D02*
X41219Y48940D01*
X41679Y49400D02*
X41759Y49400D01*
X41719Y49360D02*
X41719Y49440D01*
X41179Y49900D02*
X41259Y49900D01*
X41219Y49860D02*
X41219Y49940D01*
X42679Y49900D02*
X42759Y49900D01*
X42719Y49860D02*
X42719Y49940D01*
X43179Y49400D02*
X43259Y49400D01*
X43219Y49360D02*
X43219Y49440D01*
X42679Y48900D02*
X42759Y48900D01*
X42719Y48860D02*
X42719Y48940D01*
X43179Y48400D02*
X43259Y48400D01*
X43219Y48360D02*
X43219Y48440D01*
X42679Y47900D02*
X42759Y47900D01*
X42719Y47860D02*
X42719Y47940D01*
X43179Y47400D02*
X43259Y47400D01*
X43219Y47360D02*
X43219Y47440D01*
X43679Y46900D02*
X43759Y46900D01*
X43719Y46860D02*
X43719Y46940D01*
X43679Y46400D02*
X43759Y46400D01*
X43719Y46360D02*
X43719Y46440D01*
X43679Y45400D02*
X43759Y45400D01*
X43719Y45360D02*
X43719Y45440D01*
X44179Y45400D02*
X44259Y45400D01*
X44219Y45360D02*
X44219Y45440D01*
X45679Y45400D02*
X45759Y45400D01*
X45719Y45360D02*
X45719Y45440D01*
X46179Y45400D02*
X46259Y45400D01*
X46219Y45360D02*
X46219Y45440D01*
X44679Y45900D02*
X44759Y45900D01*
X44719Y45860D02*
X44719Y45940D01*
X45179Y45900D02*
X45259Y45900D01*
X45219Y45860D02*
X45219Y45940D01*
X44179Y46400D02*
X44259Y46400D01*
X44219Y46360D02*
X44219Y46440D01*
X45179Y46900D02*
X45259Y46900D01*
X45219Y46860D02*
X45219Y46940D01*
X45679Y46400D02*
X45759Y46400D01*
X45719Y46360D02*
X45719Y46440D01*
X46179Y46400D02*
X46259Y46400D01*
X46219Y46360D02*
X46219Y46440D01*
X46679Y45900D02*
X46759Y45900D01*
X46719Y45860D02*
X46719Y45940D01*
X47179Y45900D02*
X47259Y45900D01*
X47219Y45860D02*
X47219Y45940D01*
X47679Y45400D02*
X47759Y45400D01*
X47719Y45360D02*
X47719Y45440D01*
X46679Y46900D02*
X46759Y46900D01*
X46719Y46860D02*
X46719Y46940D01*
X46179Y47400D02*
X46259Y47400D01*
X46219Y47360D02*
X46219Y47440D01*
X44679Y47400D02*
X44759Y47400D01*
X44719Y47360D02*
X44719Y47440D01*
X44179Y47900D02*
X44259Y47900D01*
X44219Y47860D02*
X44219Y47940D01*
X44679Y48400D02*
X44759Y48400D01*
X44719Y48360D02*
X44719Y48440D01*
X44179Y48900D02*
X44259Y48900D01*
X44219Y48860D02*
X44219Y48940D01*
X44679Y49400D02*
X44759Y49400D01*
X44719Y49360D02*
X44719Y49440D01*
X44179Y49900D02*
X44259Y49900D01*
X44219Y49860D02*
X44219Y49940D01*
X45679Y49900D02*
X45759Y49900D01*
X45719Y49860D02*
X45719Y49940D01*
X46179Y49400D02*
X46259Y49400D01*
X46219Y49360D02*
X46219Y49440D01*
X45679Y48900D02*
X45759Y48900D01*
X45719Y48860D02*
X45719Y48940D01*
X46179Y48400D02*
X46259Y48400D01*
X46219Y48360D02*
X46219Y48440D01*
X45679Y47900D02*
X45759Y47900D01*
X45719Y47860D02*
X45719Y47940D01*
X47179Y49900D02*
X47259Y49900D01*
X47219Y49860D02*
X47219Y49940D01*
X47679Y49400D02*
X47759Y49400D01*
X47719Y49360D02*
X47719Y49440D01*
X47179Y48900D02*
X47259Y48900D01*
X47219Y48860D02*
X47219Y48940D01*
X47679Y48400D02*
X47759Y48400D01*
X47719Y48360D02*
X47719Y48440D01*
X47179Y47900D02*
X47259Y47900D01*
X47219Y47860D02*
X47219Y47940D01*
X47679Y47400D02*
X47759Y47400D01*
X47719Y47360D02*
X47719Y47440D01*
X48179Y46900D02*
X48259Y46900D01*
X48219Y46860D02*
X48219Y46940D01*
X48179Y45400D02*
X48259Y45400D01*
X48219Y45360D02*
X48219Y45440D01*
X48679Y45900D02*
X48759Y45900D01*
X48719Y45860D02*
X48719Y45940D01*
X49679Y45400D02*
X49759Y45400D01*
X49719Y45360D02*
X49719Y45440D01*
X50179Y45400D02*
X50259Y45400D01*
X50219Y45360D02*
X50219Y45440D01*
X50179Y46400D02*
X50259Y46400D01*
X50219Y46360D02*
X50219Y46440D01*
X49679Y46400D02*
X49759Y46400D01*
X49719Y46360D02*
X49719Y46440D01*
X49679Y46900D02*
X49759Y46900D01*
X49719Y46860D02*
X49719Y46940D01*
X49179Y47400D02*
X49259Y47400D01*
X49219Y47360D02*
X49219Y47440D01*
X48679Y47900D02*
X48759Y47900D01*
X48719Y47860D02*
X48719Y47940D01*
X49179Y48400D02*
X49259Y48400D01*
X49219Y48360D02*
X49219Y48440D01*
X50179Y47900D02*
X50259Y47900D01*
X50219Y47860D02*
X50219Y47940D01*
X50679Y48400D02*
X50759Y48400D01*
X50719Y48360D02*
X50719Y48440D01*
X50679Y47400D02*
X50759Y47400D01*
X50719Y47360D02*
X50719Y47440D01*
X51179Y46900D02*
X51259Y46900D01*
X51219Y46860D02*
X51219Y46940D01*
X51679Y47900D02*
X51759Y47900D01*
X51719Y47860D02*
X51719Y47940D01*
X52179Y48400D02*
X52259Y48400D01*
X52219Y48360D02*
X52219Y48440D01*
X51179Y45900D02*
X51259Y45900D01*
X51219Y45860D02*
X51219Y45940D01*
X51679Y46400D02*
X51759Y46400D01*
X51719Y46360D02*
X51719Y46440D01*
X52679Y45900D02*
X52759Y45900D01*
X52719Y45860D02*
X52719Y45940D01*
X53179Y45900D02*
X53259Y45900D01*
X53219Y45860D02*
X53219Y45940D01*
X53179Y46900D02*
X53259Y46900D01*
X53219Y46860D02*
X53219Y46940D01*
X52679Y46900D02*
X52759Y46900D01*
X52719Y46860D02*
X52719Y46940D01*
X52179Y47900D02*
X52259Y47900D01*
X52219Y47860D02*
X52219Y47940D01*
X53179Y47900D02*
X53259Y47900D01*
X53219Y47860D02*
X53219Y47940D01*
X51679Y48900D02*
X51759Y48900D01*
X51719Y48860D02*
X51719Y48940D01*
X48679Y49900D02*
X48759Y49900D01*
X48719Y49860D02*
X48719Y49940D01*
X49179Y49400D02*
X49259Y49400D01*
X49219Y49360D02*
X49219Y49440D01*
X48679Y48900D02*
X48759Y48900D01*
X48719Y48860D02*
X48719Y48940D01*
X50179Y49900D02*
X50259Y49900D01*
X50219Y49860D02*
X50219Y49940D01*
X50679Y49400D02*
X50759Y49400D01*
X50719Y49360D02*
X50719Y49440D01*
X50179Y48900D02*
X50259Y48900D01*
X50219Y48860D02*
X50219Y48940D01*
X51679Y49900D02*
X51759Y49900D01*
X51719Y49860D02*
X51719Y49940D01*
X52179Y49400D02*
X52259Y49400D01*
X52219Y49360D02*
X52219Y49440D01*
X53179Y49900D02*
X53259Y49900D01*
X53219Y49860D02*
X53219Y49940D01*
X53179Y49400D02*
X53259Y49400D01*
X53219Y49360D02*
X53219Y49440D01*
X53679Y45400D02*
X53759Y45400D01*
X53719Y45360D02*
X53719Y45440D01*
X53679Y46400D02*
X53759Y46400D01*
X53719Y46360D02*
X53719Y46440D01*
X54179Y46400D02*
X54259Y46400D01*
X54219Y46360D02*
X54219Y46440D01*
X54179Y45400D02*
X54259Y45400D01*
X54219Y45360D02*
X54219Y45440D01*
X54179Y47400D02*
X54259Y47400D01*
X54219Y47360D02*
X54219Y47440D01*
X53679Y47400D02*
X53759Y47400D01*
X53719Y47360D02*
X53719Y47440D01*
X53679Y48400D02*
X53759Y48400D01*
X53719Y48360D02*
X53719Y48440D01*
X54179Y48400D02*
X54259Y48400D01*
X54219Y48360D02*
X54219Y48440D01*
X53679Y49400D02*
X53759Y49400D01*
X53719Y49360D02*
X53719Y49440D01*
X54679Y49400D02*
X54759Y49400D01*
X54719Y49360D02*
X54719Y49440D01*
X54679Y49900D02*
X54759Y49900D01*
X54719Y49860D02*
X54719Y49940D01*
X55179Y49900D02*
X55259Y49900D01*
X55219Y49860D02*
X55219Y49940D01*
X55679Y49400D02*
X55759Y49400D01*
X55719Y49360D02*
X55719Y49440D01*
X54679Y48900D02*
X54759Y48900D01*
X54719Y48860D02*
X54719Y48940D01*
X54679Y47900D02*
X54759Y47900D01*
X54719Y47860D02*
X54719Y47940D01*
X55179Y47900D02*
X55259Y47900D01*
X55219Y47860D02*
X55219Y47940D01*
X55679Y48400D02*
X55759Y48400D01*
X55719Y48360D02*
X55719Y48440D01*
X55679Y47400D02*
X55759Y47400D01*
X55719Y47360D02*
X55719Y47440D01*
X55179Y46900D02*
X55259Y46900D01*
X55219Y46860D02*
X55219Y46940D01*
X54679Y46900D02*
X54759Y46900D01*
X54719Y46860D02*
X54719Y46940D01*
X55679Y46400D02*
X55759Y46400D01*
X55719Y46360D02*
X55719Y46440D01*
X55179Y45900D02*
X55259Y45900D01*
X55219Y45860D02*
X55219Y45940D01*
X54679Y45900D02*
X54759Y45900D01*
X54719Y45860D02*
X54719Y45940D01*
X55679Y45400D02*
X55759Y45400D01*
X55719Y45360D02*
X55719Y45440D01*
X55679Y48900D02*
X55759Y48900D01*
X55719Y48860D02*
X55719Y48940D01*
X40179Y46900D02*
X40259Y46900D01*
X40219Y46860D02*
X40219Y46940D01*
X38679Y46400D02*
X38759Y46400D01*
X38719Y46360D02*
X38719Y46440D01*
X55179Y49400D02*
X55259Y49400D01*
X55219Y49360D02*
X55219Y49440D01*
X55679Y45900D02*
X55759Y45900D01*
X55719Y45860D02*
X55719Y45940D01*
X47679Y48900D02*
X47759Y48900D01*
X47719Y48860D02*
X47719Y48940D01*
X48179Y48900D02*
X48259Y48900D01*
X48219Y48860D02*
X48219Y48940D01*
X51179Y48900D02*
X51259Y48900D01*
X51219Y48860D02*
X51219Y48940D01*
X50679Y48900D02*
X50759Y48900D01*
X50719Y48860D02*
X50719Y48940D01*
X51179Y48400D02*
X51259Y48400D01*
X51219Y48360D02*
X51219Y48440D01*
X51679Y48400D02*
X51759Y48400D01*
X51719Y48360D02*
X51719Y48440D01*
X47179Y46400D02*
X47259Y46400D01*
X47219Y46360D02*
X47219Y46440D01*
X46679Y46400D02*
X46759Y46400D01*
X46719Y46360D02*
X46719Y46440D01*
X35860Y12370D02*
X35940Y12370D01*
X35900Y12330D02*
X35900Y12410D01*
X35154Y12035D02*
X35234Y12035D01*
X35194Y11995D02*
X35194Y12075D01*
X44268Y23450D02*
X44348Y23450D01*
X44308Y23410D02*
X44308Y23490D01*
X35154Y12935D02*
X35234Y12935D01*
X35194Y12895D02*
X35194Y12975D01*
X35860Y12600D02*
X35940Y12600D01*
X35900Y12560D02*
X35900Y12640D01*
X44038Y23450D02*
X44118Y23450D01*
X44078Y23410D02*
X44078Y23490D01*
X55429Y43650D02*
X55509Y43650D01*
X55469Y43610D02*
X55469Y43690D01*
X11710Y25250D02*
X11790Y25250D01*
X11750Y25210D02*
X11750Y25290D01*
X32236Y5250D02*
X32316Y5250D01*
X32276Y5210D02*
X32276Y5290D01*
X28736Y5250D02*
X28816Y5250D01*
X28776Y5210D02*
X28776Y5290D01*
X31736Y5250D02*
X31816Y5250D01*
X31776Y5210D02*
X31776Y5290D01*
X29236Y5250D02*
X29316Y5250D01*
X29276Y5210D02*
X29276Y5290D01*
X10210Y39500D02*
X10290Y39500D01*
X10250Y39460D02*
X10250Y39540D01*
X21710Y9500D02*
X21790Y9500D01*
X21750Y9460D02*
X21750Y9540D01*
X21460Y9750D02*
X21540Y9750D01*
X21500Y9710D02*
X21500Y9790D01*
X60510Y27000D02*
X60590Y27000D01*
X60550Y26960D02*
X60550Y27040D01*
X59712Y28909D02*
X59792Y28909D01*
X59752Y28869D02*
X59752Y28949D01*
X60136Y26750D02*
X60216Y26750D01*
X60176Y26710D02*
X60176Y26790D01*
X73710Y30750D02*
X73790Y30750D01*
X73750Y30710D02*
X73750Y30790D01*
X74460Y31000D02*
X74540Y31000D01*
X74500Y30960D02*
X74500Y31040D01*
X72960Y35250D02*
X73040Y35250D01*
X73000Y35210D02*
X73000Y35290D01*
X64960Y35650D02*
X65040Y35650D01*
X65000Y35610D02*
X65000Y35690D01*
X74336Y36726D02*
X74416Y36726D01*
X74376Y36686D02*
X74376Y36766D01*
X75607Y34250D02*
X75687Y34250D01*
X75647Y34210D02*
X75647Y34290D01*
X41692Y22500D02*
X41772Y22500D01*
X41732Y22460D02*
X41732Y22540D01*
X49710Y24500D02*
X49790Y24500D01*
X49750Y24460D02*
X49750Y24540D01*
X76085Y34250D02*
X76165Y34250D01*
X76125Y34210D02*
X76125Y34290D01*
X47795Y25250D02*
X47875Y25250D01*
X47835Y25210D02*
X47835Y25290D01*
X47991Y25050D02*
X48071Y25050D01*
X48032Y25010D02*
X48032Y25090D01*
X48188Y24822D02*
X48268Y24822D01*
X48228Y24782D02*
X48228Y24862D01*
X49960Y24750D02*
X50040Y24750D01*
X50000Y24710D02*
X50000Y24790D01*
X36460Y22750D02*
X36540Y22750D01*
X36500Y22710D02*
X36500Y22790D01*
X35710Y22750D02*
X35790Y22750D01*
X35750Y22710D02*
X35750Y22790D01*
X89153Y23502D02*
X89233Y23502D01*
X89193Y23462D02*
X89193Y23542D01*
X93090Y27439D02*
X93170Y27439D01*
X93130Y27399D02*
X93130Y27479D01*
X89153Y31376D02*
X89233Y31376D01*
X89193Y31336D02*
X89193Y31416D01*
X85216Y27439D02*
X85296Y27439D01*
X85256Y27399D02*
X85256Y27479D01*
X85216Y39250D02*
X85296Y39250D01*
X85256Y39210D02*
X85256Y39290D01*
X36460Y6500D02*
X36540Y6500D01*
X36500Y6460D02*
X36500Y6540D01*
X34710Y6500D02*
X34790Y6500D01*
X34750Y6460D02*
X34750Y6540D01*
X42060Y13135D02*
X42140Y13135D01*
X42100Y13095D02*
X42100Y13175D01*
X42060Y13365D02*
X42140Y13365D01*
X42100Y13325D02*
X42100Y13405D01*
X45960Y18500D02*
X46040Y18500D01*
X46000Y18460D02*
X46000Y18540D01*
X45710Y18000D02*
X45790Y18000D01*
X45750Y17960D02*
X45750Y18040D01*
X45460Y17500D02*
X45540Y17500D01*
X45500Y17460D02*
X45500Y17540D01*
X46210Y17750D02*
X46290Y17750D01*
X46250Y17710D02*
X46250Y17790D01*
X45210Y18250D02*
X45290Y18250D01*
X45250Y18210D02*
X45250Y18290D01*
X44960Y17250D02*
X45040Y17250D01*
X45000Y17210D02*
X45000Y17290D01*
X50710Y24250D02*
X50790Y24250D01*
X50750Y24210D02*
X50750Y24290D01*
X50960Y24000D02*
X51040Y24000D01*
X51000Y23960D02*
X51000Y24040D01*
X50710Y23750D02*
X50790Y23750D01*
X50750Y23710D02*
X50750Y23790D01*
X56710Y24250D02*
X56790Y24250D01*
X56750Y24210D02*
X56750Y24290D01*
X56960Y24000D02*
X57040Y24000D01*
X57000Y23960D02*
X57000Y24040D01*
X56710Y23750D02*
X56790Y23750D01*
X56750Y23710D02*
X56750Y23790D01*
X84660Y15200D02*
X84740Y15200D01*
X84700Y15160D02*
X84700Y15240D01*
X85460Y15200D02*
X85540Y15200D01*
X85500Y15160D02*
X85500Y15240D01*
X36295Y1485D02*
X36375Y1485D01*
X36335Y1445D02*
X36335Y1525D01*
X36525Y1485D02*
X36605Y1485D01*
X36565Y1445D02*
X36565Y1525D01*
X61460Y4750D02*
X61540Y4750D01*
X61500Y4710D02*
X61500Y4790D01*
X61460Y4250D02*
X61540Y4250D01*
X61500Y4210D02*
X61500Y4290D01*
X61210Y4500D02*
X61290Y4500D01*
X61250Y4460D02*
X61250Y4540D01*
X58763Y4750D02*
X58843Y4750D01*
X58803Y4710D02*
X58803Y4790D01*
X60960Y3500D02*
X61040Y3500D01*
X61000Y3460D02*
X61000Y3540D01*
X57210Y5250D02*
X57290Y5250D01*
X57250Y5210D02*
X57250Y5290D01*
X54952Y4750D02*
X55032Y4750D01*
X54992Y4710D02*
X54992Y4790D01*
X67710Y1750D02*
X67790Y1750D01*
X67750Y1710D02*
X67750Y1790D01*
X76960Y950D02*
X77040Y950D01*
X77000Y910D02*
X77000Y990D01*
X53700Y10807D02*
X53780Y10807D01*
X53740Y10767D02*
X53740Y10847D01*
X23710Y46750D02*
X23790Y46750D01*
X23750Y46710D02*
X23750Y46790D01*
X28010Y27200D02*
X28090Y27200D01*
X28050Y27160D02*
X28050Y27240D01*
X49961Y8701D02*
X50041Y8701D01*
X50001Y8661D02*
X50001Y8741D01*
X30419Y44159D02*
X30499Y44159D01*
X30459Y44119D02*
X30459Y44199D01*
X28710Y26750D02*
X28790Y26750D01*
X28750Y26710D02*
X28750Y26790D01*
X84062Y13752D02*
X84142Y13752D01*
X84102Y13712D02*
X84102Y13792D01*
X83669Y13752D02*
X83749Y13752D01*
X83709Y13712D02*
X83709Y13792D01*
X35710Y23100D02*
X35790Y23100D01*
X35750Y23060D02*
X35750Y23140D01*
X36460Y23100D02*
X36540Y23100D01*
X36500Y23060D02*
X36500Y23140D01*
X47710Y15950D02*
X47790Y15950D01*
X47750Y15910D02*
X47750Y15990D01*
X56465Y21021D02*
X56545Y21021D01*
X56505Y20981D02*
X56505Y21061D01*
X56015Y21021D02*
X56095Y21021D01*
X56055Y20981D02*
X56055Y21061D01*
X27460Y29500D02*
X27540Y29500D01*
X27500Y29460D02*
X27500Y29540D01*
X29129Y44500D02*
X29209Y44500D01*
X29169Y44460D02*
X29169Y44540D01*
X34710Y26550D02*
X34790Y26550D01*
X34750Y26510D02*
X34750Y26590D01*
X34710Y27200D02*
X34790Y27200D01*
X34750Y27160D02*
X34750Y27240D01*
X35110Y26550D02*
X35190Y26550D01*
X35150Y26510D02*
X35150Y26590D01*
X34710Y26875D02*
X34790Y26875D01*
X34750Y26835D02*
X34750Y26915D01*
X35110Y26875D02*
X35190Y26875D01*
X35150Y26835D02*
X35150Y26915D01*
X6210Y34250D02*
X6290Y34250D01*
X6250Y34210D02*
X6250Y34290D01*
X58110Y32950D02*
X58190Y32950D01*
X58150Y32910D02*
X58150Y32990D01*
X58110Y33400D02*
X58190Y33400D01*
X58150Y33360D02*
X58150Y33440D01*
X58110Y33850D02*
X58190Y33850D01*
X58150Y33810D02*
X58150Y33890D01*
X58110Y34300D02*
X58190Y34300D01*
X58150Y34260D02*
X58150Y34340D01*
X39929Y52150D02*
X40009Y52150D01*
X39969Y52110D02*
X39969Y52190D01*
X39429Y52150D02*
X39509Y52150D01*
X39469Y52110D02*
X39469Y52190D01*
X38929Y52150D02*
X39009Y52150D01*
X38969Y52110D02*
X38969Y52190D01*
X38429Y52150D02*
X38509Y52150D01*
X38469Y52110D02*
X38469Y52190D01*
X37929Y52150D02*
X38009Y52150D01*
X37969Y52110D02*
X37969Y52190D01*
X37429Y52150D02*
X37509Y52150D01*
X37469Y52110D02*
X37469Y52190D01*
X36929Y52150D02*
X37009Y52150D01*
X36969Y52110D02*
X36969Y52190D01*
X36429Y52150D02*
X36509Y52150D01*
X36469Y52110D02*
X36469Y52190D01*
X35929Y52150D02*
X36009Y52150D01*
X35969Y52110D02*
X35969Y52190D01*
X41679Y45400D02*
X41759Y45400D01*
X41719Y45360D02*
X41719Y45440D01*
X42179Y45400D02*
X42259Y45400D01*
X42219Y45360D02*
X42219Y45440D01*
X42179Y46400D02*
X42259Y46400D01*
X42219Y46360D02*
X42219Y46440D01*
X41679Y46400D02*
X41759Y46400D01*
X41719Y46360D02*
X41719Y46440D01*
X41179Y46400D02*
X41259Y46400D01*
X41219Y46360D02*
X41219Y46440D01*
X40679Y46400D02*
X40759Y46400D01*
X40719Y46360D02*
X40719Y46440D01*
X6460Y34000D02*
X6540Y34000D01*
X6500Y33960D02*
X6500Y34040D01*
X41629Y52350D02*
X41709Y52350D01*
X41669Y52310D02*
X41669Y52390D01*
X41929Y52150D02*
X42009Y52150D01*
X41969Y52110D02*
X41969Y52190D01*
X8251Y3464D02*
X8331Y3464D01*
X8291Y3424D02*
X8291Y3504D01*
X52096Y9222D02*
X52175Y9222D01*
X52136Y9183D02*
X52136Y9262D01*
X52549Y9222D02*
X52628Y9222D01*
X52589Y9183D02*
X52589Y9262D01*
X52933Y9222D02*
X53012Y9222D01*
X52972Y9183D02*
X52972Y9262D01*
X52549Y10059D02*
X52628Y10059D01*
X52589Y10020D02*
X52589Y10098D01*
X52096Y10059D02*
X52175Y10059D01*
X52136Y10020D02*
X52136Y10098D01*
X52549Y9675D02*
X52628Y9675D01*
X52589Y9636D02*
X52589Y9715D01*
X52096Y9675D02*
X52175Y9675D01*
X52136Y9636D02*
X52136Y9715D01*
X52933Y9675D02*
X53012Y9675D01*
X52972Y9636D02*
X52972Y9715D01*
X52933Y8317D02*
X53012Y8317D01*
X52972Y8278D02*
X52972Y8356D01*
X52096Y8317D02*
X52175Y8317D01*
X52136Y8278D02*
X52136Y8356D01*
X52549Y8317D02*
X52628Y8317D01*
X52589Y8278D02*
X52589Y8356D01*
X52096Y7933D02*
X52175Y7933D01*
X52136Y7894D02*
X52136Y7972D01*
X52549Y7933D02*
X52628Y7933D01*
X52589Y7894D02*
X52589Y7972D01*
X52933Y8770D02*
X53012Y8770D01*
X52972Y8730D02*
X52972Y8809D01*
X52549Y8770D02*
X52628Y8770D01*
X52589Y8730D02*
X52589Y8809D01*
X52096Y8770D02*
X52175Y8770D01*
X52136Y8730D02*
X52136Y8809D01*
X51644Y8770D02*
X51722Y8770D01*
X51683Y8730D02*
X51683Y8809D01*
X51191Y8770D02*
X51270Y8770D01*
X51230Y8730D02*
X51230Y8809D01*
X50807Y8770D02*
X50886Y8770D01*
X50846Y8730D02*
X50846Y8809D01*
X51191Y7933D02*
X51270Y7933D01*
X51230Y7894D02*
X51230Y7972D01*
X51644Y7933D02*
X51722Y7933D01*
X51683Y7894D02*
X51683Y7972D01*
X51191Y8317D02*
X51270Y8317D01*
X51230Y8278D02*
X51230Y8356D01*
X51644Y8317D02*
X51722Y8317D01*
X51683Y8278D02*
X51683Y8356D01*
X50807Y8317D02*
X50886Y8317D01*
X50846Y8278D02*
X50846Y8356D01*
X50807Y9675D02*
X50886Y9675D01*
X50846Y9636D02*
X50846Y9715D01*
X51644Y9675D02*
X51722Y9675D01*
X51683Y9636D02*
X51683Y9715D01*
X51191Y9675D02*
X51270Y9675D01*
X51230Y9636D02*
X51230Y9715D01*
X51644Y10059D02*
X51722Y10059D01*
X51683Y10020D02*
X51683Y10098D01*
X51191Y10059D02*
X51270Y10059D01*
X51230Y10020D02*
X51230Y10098D01*
X50807Y9222D02*
X50886Y9222D01*
X50846Y9183D02*
X50846Y9262D01*
X51191Y9222D02*
X51270Y9222D01*
X51230Y9183D02*
X51230Y9262D01*
X51644Y9222D02*
X51722Y9222D01*
X51683Y9183D02*
X51683Y9262D01*
X10934Y1887D02*
X11013Y1887D01*
X10974Y1847D02*
X10974Y1926D01*
X10541Y1887D02*
X10619Y1887D01*
X10580Y1847D02*
X10580Y1926D01*
X10934Y2281D02*
X11013Y2281D01*
X10974Y2241D02*
X10974Y2320D01*
X10541Y2281D02*
X10619Y2281D01*
X10580Y2241D02*
X10580Y2320D01*
X16744Y6467D02*
X16823Y6467D01*
X16783Y6427D02*
X16783Y6506D01*
X17177Y6467D02*
X17256Y6467D01*
X17217Y6427D02*
X17217Y6506D01*
X16744Y6033D02*
X16823Y6033D01*
X16783Y5994D02*
X16783Y6073D01*
X17177Y6033D02*
X17256Y6033D01*
X17217Y5994D02*
X17217Y6073D01*
X46510Y10355D02*
X46590Y10355D01*
X46550Y10315D02*
X46550Y10395D01*
X46510Y10945D02*
X46590Y10945D01*
X46550Y10905D02*
X46550Y10985D01*
X45821Y10650D02*
X45901Y10650D01*
X45861Y10610D02*
X45861Y10690D01*
X47199Y10650D02*
X47279Y10650D01*
X47239Y10610D02*
X47239Y10690D01*
X52710Y5014D02*
X52790Y5014D01*
X52750Y4974D02*
X52750Y5054D01*
X52710Y5486D02*
X52790Y5486D01*
X52750Y5446D02*
X52750Y5526D01*
X52710Y5250D02*
X52790Y5250D01*
X52750Y5210D02*
X52750Y5290D01*
X52474Y5250D02*
X52554Y5250D01*
X52514Y5210D02*
X52514Y5290D01*
X52946Y5250D02*
X53026Y5250D01*
X52986Y5210D02*
X52986Y5290D01*
X37150Y30022D02*
X37228Y30022D01*
X37189Y29982D02*
X37189Y30061D01*
X37150Y29628D02*
X37228Y29628D01*
X37189Y29589D02*
X37189Y29667D01*
X36717Y30022D02*
X36795Y30022D01*
X36756Y29982D02*
X36756Y30061D01*
X36717Y29628D02*
X36795Y29628D01*
X36756Y29589D02*
X36756Y29667D01*
X36283Y29628D02*
X36362Y29628D01*
X36323Y29589D02*
X36323Y29667D01*
X36283Y30022D02*
X36362Y30022D01*
X36323Y29982D02*
X36323Y30061D01*
X36283Y29234D02*
X36362Y29234D01*
X36323Y29195D02*
X36323Y29274D01*
X36717Y29234D02*
X36795Y29234D01*
X36756Y29195D02*
X36756Y29274D01*
X37150Y29234D02*
X37228Y29234D01*
X37189Y29195D02*
X37189Y29274D01*
X38016Y29234D02*
X38094Y29234D01*
X38055Y29195D02*
X38055Y29274D01*
X38449Y29234D02*
X38528Y29234D01*
X38488Y29195D02*
X38488Y29274D01*
X38882Y29234D02*
X38961Y29234D01*
X38921Y29195D02*
X38921Y29274D01*
X38882Y30022D02*
X38961Y30022D01*
X38921Y29982D02*
X38921Y30061D01*
X38882Y29628D02*
X38961Y29628D01*
X38921Y29589D02*
X38921Y29667D01*
X38449Y29628D02*
X38528Y29628D01*
X38488Y29589D02*
X38488Y29667D01*
X38449Y30022D02*
X38528Y30022D01*
X38488Y29982D02*
X38488Y30061D01*
X38016Y29628D02*
X38094Y29628D01*
X38055Y29589D02*
X38055Y29667D01*
X38016Y30022D02*
X38094Y30022D01*
X38055Y29982D02*
X38055Y30061D01*
X37583Y30022D02*
X37661Y30022D01*
X37622Y29982D02*
X37622Y30061D01*
X37583Y29628D02*
X37661Y29628D01*
X37622Y29589D02*
X37622Y29667D01*
X37583Y29234D02*
X37661Y29234D01*
X37622Y29195D02*
X37622Y29274D01*
X46610Y6750D02*
X46690Y6750D01*
X46650Y6710D02*
X46650Y6790D01*
X36679Y49400D02*
X36759Y49400D01*
X36719Y49360D02*
X36719Y49440D01*
X36679Y48900D02*
X36759Y48900D01*
X36719Y48860D02*
X36719Y48940D01*
X37179Y48900D02*
X37259Y48900D01*
X37219Y48860D02*
X37219Y48940D01*
X36179Y49900D02*
X36259Y49900D01*
X36219Y49860D02*
X36219Y49940D01*
X36179Y49400D02*
X36259Y49400D01*
X36219Y49360D02*
X36219Y49440D01*
X36179Y48900D02*
X36259Y48900D01*
X36219Y48860D02*
X36219Y48940D01*
X36179Y48400D02*
X36259Y48400D01*
X36219Y48360D02*
X36219Y48440D01*
X37179Y47900D02*
X37259Y47900D01*
X37219Y47860D02*
X37219Y47940D01*
X64160Y31200D02*
X64240Y31200D01*
X64200Y31160D02*
X64200Y31240D01*
X64560Y31200D02*
X64640Y31200D01*
X64600Y31160D02*
X64600Y31240D01*
X60060Y33550D02*
X60140Y33550D01*
X60100Y33510D02*
X60100Y33590D01*
X60060Y33150D02*
X60140Y33150D01*
X60100Y33110D02*
X60100Y33190D01*
X26660Y12300D02*
X26740Y12300D01*
X26700Y12260D02*
X26700Y12340D01*
X27010Y11900D02*
X27090Y11900D01*
X27050Y11860D02*
X27050Y11940D01*
X27016Y14100D02*
X27096Y14100D01*
X27056Y14060D02*
X27056Y14140D01*
X29704Y11650D02*
X29784Y11650D01*
X29744Y11610D02*
X29744Y11690D01*
X29354Y12050D02*
X29434Y12050D01*
X29394Y12010D02*
X29394Y12090D01*
X29704Y13850D02*
X29784Y13850D01*
X29744Y13810D02*
X29744Y13890D01*
X29354Y13450D02*
X29434Y13450D01*
X29394Y13410D02*
X29394Y13490D01*
X32110Y11400D02*
X32190Y11400D01*
X32150Y11360D02*
X32150Y11440D01*
X31760Y11800D02*
X31840Y11800D01*
X31800Y11760D02*
X31800Y11840D01*
X32110Y13600D02*
X32190Y13600D01*
X32150Y13560D02*
X32150Y13640D01*
X31760Y13200D02*
X31840Y13200D01*
X31800Y13160D02*
X31800Y13240D01*
X34760Y13585D02*
X34840Y13585D01*
X34800Y13545D02*
X34800Y13625D01*
X34410Y13185D02*
X34490Y13185D01*
X34450Y13145D02*
X34450Y13225D01*
X34760Y11385D02*
X34840Y11385D01*
X34800Y11345D02*
X34800Y11425D01*
X34410Y11785D02*
X34490Y11785D01*
X34450Y11745D02*
X34450Y11825D01*
X59360Y28712D02*
X59440Y28712D01*
X59400Y28672D02*
X59400Y28752D01*
X60608Y29007D02*
X60688Y29007D01*
X60648Y28967D02*
X60648Y29047D01*
X61189Y29007D02*
X61269Y29007D01*
X61229Y28967D02*
X61229Y29047D01*
X61769Y29007D02*
X61849Y29007D01*
X61809Y28967D02*
X61809Y29047D01*
X61189Y28427D02*
X61269Y28427D01*
X61229Y28387D02*
X61229Y28467D01*
X61189Y29588D02*
X61269Y29588D01*
X61229Y29548D02*
X61229Y29628D01*
X53795Y31993D02*
X53875Y31993D01*
X53835Y31953D02*
X53835Y32033D01*
X53795Y31593D02*
X53875Y31593D01*
X53835Y31553D02*
X53835Y31633D01*
X59437Y30537D02*
X59517Y30537D01*
X59477Y30497D02*
X59477Y30577D01*
X59037Y30537D02*
X59117Y30537D01*
X59077Y30497D02*
X59077Y30577D01*
X50392Y28465D02*
X50472Y28465D01*
X50431Y28425D02*
X50431Y28505D01*
X50923Y28465D02*
X51003Y28465D01*
X50963Y28425D02*
X50963Y28505D01*
X55964Y33387D02*
X56044Y33387D01*
X56004Y33347D02*
X56004Y33427D01*
X55964Y32856D02*
X56044Y32856D01*
X56004Y32816D02*
X56004Y32896D01*
X55964Y34372D02*
X56044Y34372D01*
X56004Y34332D02*
X56004Y34412D01*
X55964Y33840D02*
X56044Y33840D01*
X56004Y33800D02*
X56004Y33880D01*
X62203Y31737D02*
X62283Y31737D01*
X62243Y31697D02*
X62243Y31777D01*
X62734Y31737D02*
X62814Y31737D01*
X62774Y31697D02*
X62774Y31777D01*
X59910Y27050D02*
X59990Y27050D01*
X59950Y27010D02*
X59950Y27090D01*
X66362Y28122D02*
X66442Y28122D01*
X66402Y28082D02*
X66402Y28162D01*
X80243Y17746D02*
X80323Y17746D01*
X80283Y17706D02*
X80283Y17786D01*
X79843Y17746D02*
X79923Y17746D01*
X79883Y17706D02*
X79883Y17786D01*
X82415Y17541D02*
X82495Y17541D01*
X82455Y17501D02*
X82455Y17581D01*
X82415Y17941D02*
X82495Y17941D01*
X82455Y17901D02*
X82455Y17981D01*
X82415Y16832D02*
X82495Y16832D01*
X82455Y16792D02*
X82455Y16872D01*
X82410Y17200D02*
X82490Y17200D01*
X82450Y17160D02*
X82450Y17240D01*
X84468Y13454D02*
X84548Y13454D01*
X84508Y13414D02*
X84508Y13494D01*
X84836Y13459D02*
X84916Y13459D01*
X84876Y13419D02*
X84876Y13499D01*
X85256Y13454D02*
X85336Y13454D01*
X85296Y13414D02*
X85296Y13494D01*
X85623Y13459D02*
X85703Y13459D01*
X85663Y13419D02*
X85663Y13499D01*
X86043Y13454D02*
X86123Y13454D01*
X86083Y13414D02*
X86083Y13494D01*
X86411Y13459D02*
X86491Y13459D01*
X86451Y13419D02*
X86451Y13499D01*
X86830Y13454D02*
X86910Y13454D01*
X86870Y13414D02*
X86870Y13494D01*
X87198Y13459D02*
X87278Y13459D01*
X87238Y13419D02*
X87238Y13499D01*
X50960Y1650D02*
X51040Y1650D01*
X51000Y1610D02*
X51000Y1690D01*
X52510Y2550D02*
X52590Y2550D01*
X52550Y2510D02*
X52550Y2590D01*
X53060Y2500D02*
X53140Y2500D01*
X53100Y2460D02*
X53100Y2540D01*
X72210Y34500D02*
X72290Y34500D01*
X72250Y34460D02*
X72250Y34540D01*
M02*
