G04 Layer_Physical_Order=5*
G04 Layer_Color=128*
%FSLAX24Y24*%
%MOIN*%
G70*
G01*
G75*
%ADD88C,0.0100*%
%ADD95C,0.0600*%
%ADD111C,0.0400*%
%ADD112C,0.1450*%
%ADD113C,0.1263*%
%ADD114C,0.0700*%
%ADD115C,0.0515*%
%ADD116C,0.0594*%
%ADD117C,0.0357*%
%ADD118C,0.0554*%
%ADD119C,0.0692*%
%ADD120C,0.1224*%
%ADD121C,0.0830*%
%ADD122C,0.0554*%
%ADD123C,0.0869*%
%ADD124C,0.0730*%
%ADD125C,0.0450*%
%ADD126C,0.0350*%
%ADD127C,0.0280*%
%ADD129C,0.0830*%
%ADD130C,0.0279*%
D88*
X-13Y26500D02*
X1000Y26500D01*
X2750Y28250D01*
X2750Y29250D01*
X11750Y38250D01*
X11750Y39750D01*
X20250Y48250D01*
X22500Y48250D01*
X25900Y51650D01*
X55969Y51650D01*
X56969Y50650D01*
X56969Y48150D02*
X56969Y50650D01*
X56969Y48150D02*
X57969Y47150D01*
X50250Y35000D02*
X57969Y42719D01*
X40750Y35000D02*
X50250Y35000D01*
X38250Y32500D02*
X40750Y35000D01*
X31750Y32500D02*
X38250Y32500D01*
X25500Y26250D02*
X31750Y32500D01*
X24250Y26250D02*
X25500Y26250D01*
X23750Y26250D02*
X24250Y26250D01*
X23000Y25500D02*
X23750Y26250D01*
X20750Y23250D02*
X23000Y25500D01*
X20750Y22000D02*
X20750Y23250D01*
X16000Y17250D02*
X20750Y22000D01*
X3500Y17250D02*
X16000Y17250D01*
X750Y20000D02*
X3500Y17250D01*
X-13Y20000D02*
X750Y20000D01*
X57969Y47150D02*
X68100Y47150D01*
X72250Y43000D01*
X72250Y31250D02*
X72250Y43000D01*
X72250Y31250D02*
X83250Y20250D01*
X83250Y18000D02*
X83250Y20250D01*
X83250Y14800D02*
X83250Y18000D01*
X82500Y14050D02*
X83250Y14800D01*
X79950Y14050D02*
X82500Y14050D01*
X79000Y15000D02*
X79950Y14050D01*
X79000Y15000D02*
X79000Y19750D01*
X69000Y29750D02*
X79000Y19750D01*
X69000Y29750D02*
X69000Y38000D01*
X64281Y42719D02*
X69000Y38000D01*
X57969Y42719D02*
X64281Y42719D01*
X-41595Y-3378D02*
X-41624Y-3320D01*
X-41681Y-3263D01*
X-41738Y-3235D01*
X-41852Y-3235D01*
X-41909Y-3263D01*
X-41966Y-3320D01*
X-41995Y-3378D01*
X-42024Y-3463D01*
X-42024Y-3606D01*
X-41995Y-3692D01*
X-41966Y-3749D01*
X-41909Y-3806D01*
X-41852Y-3835D01*
X-41738Y-3835D01*
X-41681Y-3806D01*
X-41624Y-3749D01*
X-41595Y-3692D01*
X-41595Y-3606D01*
X-41738Y-3606D02*
X-41595Y-3606D01*
X-41458Y-3549D02*
X-41201Y-3549D01*
X-41115Y-3520D01*
X-41087Y-3492D01*
X-41058Y-3435D01*
X-41058Y-3349D01*
X-41087Y-3292D01*
X-41115Y-3263D01*
X-41201Y-3235D01*
X-41458Y-3235D01*
X-41458Y-3835D01*
X-40895Y-3378D02*
X-40895Y-3349D01*
X-40867Y-3292D01*
X-40838Y-3263D01*
X-40781Y-3235D01*
X-40667Y-3235D01*
X-40610Y-3263D01*
X-40581Y-3292D01*
X-40553Y-3349D01*
X-40553Y-3406D01*
X-40581Y-3463D01*
X-40638Y-3549D01*
X-40924Y-3835D01*
X-40524Y-3835D01*
X-39918Y-3578D02*
X-39404Y-3578D01*
X-38756Y-3549D02*
X-38499Y-3549D01*
X-38413Y-3520D01*
X-38384Y-3492D01*
X-38356Y-3435D01*
X-38356Y-3349D01*
X-38384Y-3292D01*
X-38413Y-3263D01*
X-38499Y-3235D01*
X-38756Y-3235D01*
X-38756Y-3835D01*
X-38050Y-3235D02*
X-38107Y-3263D01*
X-38164Y-3320D01*
X-38193Y-3378D01*
X-38222Y-3463D01*
X-38222Y-3606D01*
X-38193Y-3692D01*
X-38164Y-3749D01*
X-38107Y-3806D01*
X-38050Y-3835D01*
X-37936Y-3835D01*
X-37879Y-3806D01*
X-37822Y-3749D01*
X-37793Y-3692D01*
X-37765Y-3606D01*
X-37765Y-3463D01*
X-37793Y-3378D01*
X-37822Y-3320D01*
X-37879Y-3263D01*
X-37936Y-3235D01*
X-38050Y-3235D01*
X-37625Y-3235D02*
X-37482Y-3835D01*
X-37339Y-3235D02*
X-37482Y-3835D01*
X-37339Y-3235D02*
X-37196Y-3835D01*
X-37053Y-3235D02*
X-37196Y-3835D01*
X-36562Y-3235D02*
X-36933Y-3235D01*
X-36933Y-3835D01*
X-36562Y-3835D01*
X-36933Y-3520D02*
X-36705Y-3520D01*
X-36462Y-3235D02*
X-36462Y-3835D01*
X-36462Y-3235D02*
X-36205Y-3235D01*
X-36119Y-3263D01*
X-36091Y-3292D01*
X-36062Y-3349D01*
X-36062Y-3406D01*
X-36091Y-3463D01*
X-36119Y-3492D01*
X-36205Y-3520D01*
X-36462Y-3520D01*
X-36262Y-3520D02*
X-36062Y-3835D01*
X-35456Y-3549D02*
X-35199Y-3549D01*
X-35114Y-3520D01*
X-35085Y-3492D01*
X-35057Y-3435D01*
X-35057Y-3349D01*
X-35085Y-3292D01*
X-35114Y-3263D01*
X-35199Y-3235D01*
X-35456Y-3235D01*
X-35456Y-3835D01*
X-34922Y-3235D02*
X-34922Y-3835D01*
X-34580Y-3835D01*
X-34057Y-3835D02*
X-34285Y-3235D01*
X-34514Y-3835D01*
X-34428Y-3635D02*
X-34142Y-3635D01*
X-33917Y-3235D02*
X-33917Y-3835D01*
X-33917Y-3235D02*
X-33517Y-3835D01*
X-33517Y-3235D02*
X-33517Y-3835D01*
X-32980Y-3235D02*
X-33351Y-3235D01*
X-33351Y-3835D01*
X-32980Y-3835D01*
X-33351Y-3520D02*
X-33123Y-3520D01*
X-32409Y-3349D02*
X-32351Y-3320D01*
X-32266Y-3235D01*
X-32266Y-3835D01*
D95*
X92250Y11250D02*
D03*
X92250Y10250D02*
D03*
X92250Y9250D02*
D03*
X92250Y7250D02*
D03*
X92250Y6250D02*
D03*
X92250Y5250D02*
D03*
X92250Y4250D02*
D03*
X8500Y37000D02*
D03*
X7500Y37000D02*
D03*
X10500Y37000D02*
D03*
X82282Y49400D02*
D03*
X83282Y49400D02*
D03*
X84282Y49400D02*
D03*
X86282Y49400D02*
D03*
X85282Y49400D02*
D03*
X85282Y50400D02*
D03*
X86282Y50400D02*
D03*
X84282Y50400D02*
D03*
X83282Y50400D02*
D03*
X82282Y50400D02*
D03*
X73282Y49400D02*
D03*
X74282Y49400D02*
D03*
X75282Y49400D02*
D03*
X77282Y49400D02*
D03*
X76282Y49400D02*
D03*
X76282Y50400D02*
D03*
X77282Y50400D02*
D03*
X75282Y50400D02*
D03*
X74282Y50400D02*
D03*
X73282Y50400D02*
D03*
X15819Y49400D02*
D03*
X16819Y49400D02*
D03*
X17819Y49400D02*
D03*
X19819Y49400D02*
D03*
X18819Y49400D02*
D03*
X18819Y50400D02*
D03*
X19819Y50400D02*
D03*
X17819Y50400D02*
D03*
X16819Y50400D02*
D03*
X15819Y50400D02*
D03*
X6819Y49400D02*
D03*
X7819Y49400D02*
D03*
X8819Y49400D02*
D03*
X10819Y49400D02*
D03*
X9819Y49400D02*
D03*
X9819Y50400D02*
D03*
X10819Y50400D02*
D03*
X8819Y50400D02*
D03*
X7819Y50400D02*
D03*
X6819Y50400D02*
D03*
X70261Y9264D02*
D03*
X69261Y9264D02*
D03*
X83150Y9250D02*
D03*
X84150Y9250D02*
D03*
X67000Y1500D02*
D03*
X66000Y1500D02*
D03*
X65000Y1500D02*
D03*
X64000Y1500D02*
D03*
X63000Y1500D02*
D03*
X62000Y1500D02*
D03*
X64500Y24000D02*
D03*
X63500Y24000D02*
D03*
X62500Y24000D02*
D03*
X65500Y24000D02*
D03*
X64500Y22500D02*
D03*
X63500Y22500D02*
D03*
X62500Y22500D02*
D03*
X65500Y22500D02*
D03*
D111*
X-13Y3937D02*
G03*
X3924Y0I3937J0D01*
G01*
X90177Y0D02*
G03*
X94114Y3937I0J3937D01*
G01*
X94114Y50394D02*
G03*
X90177Y54331I-3937J0D01*
G01*
X3924Y54331D02*
G03*
X-13Y50394I0J-3937D01*
G01*
X3924Y0D02*
X90177Y0D01*
X94114Y3937D02*
X94114Y50394D01*
X3924Y54331D02*
X90177Y54331D01*
X-13Y3937D02*
X-13Y50394D01*
D112*
X2756Y51181D02*
D03*
X91394Y51181D02*
D03*
X91394Y2756D02*
D03*
X2756Y2756D02*
D03*
D113*
X58620Y48687D02*
D03*
X33813Y48687D02*
D03*
D114*
X56920Y46699D02*
D03*
X35518Y47900D02*
D03*
D115*
X45231Y3490D02*
D03*
D116*
X48066Y3490D02*
D03*
D117*
X45546Y3234D02*
D03*
X45704Y2959D02*
D03*
X46019Y2959D02*
D03*
X46176Y3234D02*
D03*
X46333Y2959D02*
D03*
X46491Y3234D02*
D03*
X46806Y3234D02*
D03*
X46963Y2959D02*
D03*
X47121Y3234D02*
D03*
X47278Y2959D02*
D03*
X47593Y2959D02*
D03*
X47751Y3234D02*
D03*
D118*
X950Y50580D02*
D03*
X950Y49400D02*
D03*
D119*
X7030Y44317D02*
D03*
X7030Y46089D02*
D03*
X87120Y44317D02*
D03*
X87120Y46089D02*
D03*
D120*
X7000Y42900D02*
D03*
X7000Y47506D02*
D03*
X87150Y42900D02*
D03*
X87150Y47506D02*
D03*
D121*
X7112Y31862D02*
D03*
X2388Y27138D02*
D03*
D122*
X5537Y33043D02*
D03*
X4750Y33043D02*
D03*
X1207Y28713D02*
D03*
X1207Y29500D02*
D03*
D123*
X74274Y5241D02*
D03*
X74274Y2485D02*
D03*
D124*
X11902Y24500D02*
D03*
X1150Y24500D02*
D03*
X23150Y21500D02*
D03*
X33902Y21500D02*
D03*
X33902Y24500D02*
D03*
X23150Y24500D02*
D03*
X23150Y10000D02*
D03*
X33902Y10000D02*
D03*
X33902Y7000D02*
D03*
X23150Y7000D02*
D03*
X9402Y7000D02*
D03*
X1150Y7000D02*
D03*
X1150Y21500D02*
D03*
X11902Y21500D02*
D03*
D125*
X11276Y24250D02*
D03*
X11276Y24750D02*
D03*
X10776Y24250D02*
D03*
X10776Y24750D02*
D03*
X10276Y24250D02*
D03*
X10276Y24750D02*
D03*
X9776Y24250D02*
D03*
X9776Y24750D02*
D03*
X9276Y24250D02*
D03*
X9276Y24750D02*
D03*
X8776Y24250D02*
D03*
X8776Y24750D02*
D03*
X8276Y24250D02*
D03*
X8276Y24750D02*
D03*
X7776Y24250D02*
D03*
X7776Y24750D02*
D03*
X7276Y24250D02*
D03*
X7276Y24750D02*
D03*
X6776Y24250D02*
D03*
X6776Y24750D02*
D03*
X6276Y24250D02*
D03*
X6276Y24750D02*
D03*
X5776Y24250D02*
D03*
X5776Y24750D02*
D03*
X5276Y24250D02*
D03*
X5276Y24750D02*
D03*
X4776Y24250D02*
D03*
X4776Y24750D02*
D03*
X4276Y24250D02*
D03*
X4276Y24750D02*
D03*
X3776Y24250D02*
D03*
X3776Y24750D02*
D03*
X2276Y24250D02*
D03*
X1776Y24250D02*
D03*
X1776Y24750D02*
D03*
X2776Y24750D02*
D03*
X3276Y24750D02*
D03*
X2776Y24250D02*
D03*
X3276Y24250D02*
D03*
X23776Y21750D02*
D03*
X23776Y21250D02*
D03*
X24276Y21250D02*
D03*
X24776Y21750D02*
D03*
X24776Y21250D02*
D03*
X25276Y21750D02*
D03*
X25276Y21250D02*
D03*
X25776Y21750D02*
D03*
X25776Y21250D02*
D03*
X26276Y21750D02*
D03*
X26276Y21250D02*
D03*
X26776Y21750D02*
D03*
X26776Y21250D02*
D03*
X27276Y21750D02*
D03*
X27276Y21250D02*
D03*
X27776Y21750D02*
D03*
X27776Y21250D02*
D03*
X28276Y21750D02*
D03*
X28276Y21250D02*
D03*
X28776Y21750D02*
D03*
X28776Y21250D02*
D03*
X29276Y21750D02*
D03*
X29276Y21250D02*
D03*
X29776Y21750D02*
D03*
X29776Y21250D02*
D03*
X30276Y21750D02*
D03*
X30276Y21250D02*
D03*
X30776Y21750D02*
D03*
X30776Y21250D02*
D03*
X31276Y21750D02*
D03*
X31276Y21250D02*
D03*
X31776Y21750D02*
D03*
X31776Y21250D02*
D03*
X32276Y21750D02*
D03*
X32276Y21250D02*
D03*
X32776Y21750D02*
D03*
X32776Y21250D02*
D03*
X33276Y21750D02*
D03*
X33276Y21250D02*
D03*
X33276Y24250D02*
D03*
X33276Y24750D02*
D03*
X32776Y24250D02*
D03*
X32776Y24750D02*
D03*
X32276Y24250D02*
D03*
X32276Y24750D02*
D03*
X31776Y24250D02*
D03*
X31776Y24750D02*
D03*
X31276Y24250D02*
D03*
X31276Y24750D02*
D03*
X30776Y24250D02*
D03*
X30776Y24750D02*
D03*
X30276Y24250D02*
D03*
X30276Y24750D02*
D03*
X29776Y24250D02*
D03*
X29776Y24750D02*
D03*
X29276Y24250D02*
D03*
X29276Y24750D02*
D03*
X28776Y24250D02*
D03*
X28776Y24750D02*
D03*
X28276Y24250D02*
D03*
X28276Y24750D02*
D03*
X27776Y24250D02*
D03*
X27776Y24750D02*
D03*
X27276Y24250D02*
D03*
X27276Y24750D02*
D03*
X26776Y24250D02*
D03*
X26776Y24750D02*
D03*
X26276Y24250D02*
D03*
X26276Y24750D02*
D03*
X25776Y24250D02*
D03*
X25776Y24750D02*
D03*
X25276Y24250D02*
D03*
X25276Y24750D02*
D03*
X24776Y24250D02*
D03*
X24776Y24750D02*
D03*
X24276Y24250D02*
D03*
X23776Y24250D02*
D03*
X23776Y24750D02*
D03*
X23776Y10250D02*
D03*
X23776Y9750D02*
D03*
X24276Y10250D02*
D03*
X24276Y9750D02*
D03*
X24776Y10250D02*
D03*
X24776Y9750D02*
D03*
X25276Y10250D02*
D03*
X25276Y9750D02*
D03*
X25776Y10250D02*
D03*
X25776Y9750D02*
D03*
X26276Y10250D02*
D03*
X26276Y9750D02*
D03*
X26776Y10250D02*
D03*
X26776Y9750D02*
D03*
X27276Y9750D02*
D03*
X27776Y9750D02*
D03*
X28276Y10250D02*
D03*
X28276Y9750D02*
D03*
X28776Y10250D02*
D03*
X28776Y9750D02*
D03*
X29276Y10250D02*
D03*
X29276Y9750D02*
D03*
X29776Y10250D02*
D03*
X29776Y9750D02*
D03*
X30276Y10250D02*
D03*
X30276Y9750D02*
D03*
X30776Y10250D02*
D03*
X30776Y9750D02*
D03*
X31276Y10250D02*
D03*
X31276Y9750D02*
D03*
X31776Y10250D02*
D03*
X31776Y9750D02*
D03*
X32276Y10250D02*
D03*
X32276Y9750D02*
D03*
X32776Y10250D02*
D03*
X32776Y9750D02*
D03*
X33276Y10250D02*
D03*
X33276Y9750D02*
D03*
X27776Y10250D02*
D03*
X27276Y10250D02*
D03*
X33276Y6750D02*
D03*
X33276Y7250D02*
D03*
X32776Y6750D02*
D03*
X32776Y7250D02*
D03*
X32276Y6750D02*
D03*
X32276Y7250D02*
D03*
X31776Y6750D02*
D03*
X31776Y7250D02*
D03*
X31276Y6750D02*
D03*
X31276Y7250D02*
D03*
X30776Y6750D02*
D03*
X30776Y7250D02*
D03*
X30276Y6750D02*
D03*
X30276Y7250D02*
D03*
X29776Y6750D02*
D03*
X29776Y7250D02*
D03*
X29276Y6750D02*
D03*
X29276Y7250D02*
D03*
X28776Y6750D02*
D03*
X28776Y7250D02*
D03*
X28276Y6750D02*
D03*
X28276Y7250D02*
D03*
X27776Y6750D02*
D03*
X27776Y7250D02*
D03*
X27276Y6750D02*
D03*
X27276Y7250D02*
D03*
X26776Y6750D02*
D03*
X26776Y7250D02*
D03*
X26276Y6750D02*
D03*
X26276Y7250D02*
D03*
X25776Y6750D02*
D03*
X25776Y7250D02*
D03*
X25276Y6750D02*
D03*
X25276Y7250D02*
D03*
X24776Y6750D02*
D03*
X24776Y7250D02*
D03*
X24276Y6750D02*
D03*
X24276Y7250D02*
D03*
X23776Y6750D02*
D03*
X23776Y7250D02*
D03*
X1776Y7250D02*
D03*
X1776Y6750D02*
D03*
X2276Y7250D02*
D03*
X2276Y6750D02*
D03*
X2776Y7250D02*
D03*
X2776Y6750D02*
D03*
X3276Y7250D02*
D03*
X3276Y6750D02*
D03*
X3776Y7250D02*
D03*
X3776Y6750D02*
D03*
X4276Y7250D02*
D03*
X4276Y6750D02*
D03*
X4776Y7250D02*
D03*
X4776Y6750D02*
D03*
X5276Y7250D02*
D03*
X5276Y6750D02*
D03*
X5776Y7250D02*
D03*
X5776Y6750D02*
D03*
X6276Y7250D02*
D03*
X6276Y6750D02*
D03*
X6776Y7250D02*
D03*
X6776Y6750D02*
D03*
X7276Y7250D02*
D03*
X7276Y6750D02*
D03*
X7776Y7250D02*
D03*
X7776Y6750D02*
D03*
X8276Y7250D02*
D03*
X8276Y6750D02*
D03*
X8776Y7250D02*
D03*
X8776Y6750D02*
D03*
X1776Y21750D02*
D03*
X1776Y21250D02*
D03*
X2276Y21250D02*
D03*
X3776Y21750D02*
D03*
X3776Y21250D02*
D03*
X4276Y21750D02*
D03*
X4776Y21750D02*
D03*
X5276Y21750D02*
D03*
X5276Y21250D02*
D03*
X5776Y21750D02*
D03*
X5776Y21250D02*
D03*
X6276Y21750D02*
D03*
X6276Y21250D02*
D03*
X6776Y21750D02*
D03*
X6776Y21250D02*
D03*
X7276Y21750D02*
D03*
X7276Y21250D02*
D03*
X7776Y21750D02*
D03*
X7776Y21250D02*
D03*
X8276Y21750D02*
D03*
X8276Y21250D02*
D03*
X8776Y21750D02*
D03*
X8776Y21250D02*
D03*
X9276Y21750D02*
D03*
X9276Y21250D02*
D03*
X9776Y21750D02*
D03*
X9776Y21250D02*
D03*
X10276Y21750D02*
D03*
X10276Y21250D02*
D03*
X10776Y21750D02*
D03*
X10776Y21250D02*
D03*
X11276Y21750D02*
D03*
X11276Y21250D02*
D03*
X3276Y21750D02*
D03*
X2776Y21750D02*
D03*
X4276Y21250D02*
D03*
X4776Y21250D02*
D03*
X3276Y21250D02*
D03*
X2776Y21250D02*
D03*
D126*
X89614Y14141D02*
D03*
X88250Y25500D02*
D03*
D127*
X84500Y19259D02*
D03*
X89824Y22261D02*
D03*
X89824Y21861D02*
D03*
X91595Y21602D02*
D03*
X91956Y21602D02*
D03*
X92317Y21602D02*
D03*
X89850Y12450D02*
D03*
X89850Y12850D02*
D03*
X79222Y17407D02*
D03*
X79622Y17407D02*
D03*
X42100Y14215D02*
D03*
X42100Y13985D02*
D03*
X42100Y15065D02*
D03*
X42100Y14835D02*
D03*
X42100Y15685D02*
D03*
X42100Y15915D02*
D03*
X57750Y600D02*
D03*
X13750Y49400D02*
D03*
X13750Y50400D02*
D03*
X22750Y49400D02*
D03*
X22750Y50400D02*
D03*
X89213Y49400D02*
D03*
X89213Y50400D02*
D03*
X80213Y50400D02*
D03*
X80213Y49400D02*
D03*
X24200Y35885D02*
D03*
X21300Y35885D02*
D03*
X55219Y48400D02*
D03*
X24200Y36115D02*
D03*
X21300Y36115D02*
D03*
X55219Y48900D02*
D03*
X53219Y48900D02*
D03*
X26315Y39615D02*
D03*
X53219Y48400D02*
D03*
X26315Y39385D02*
D03*
X50219Y46900D02*
D03*
X50719Y46900D02*
D03*
X47219Y46900D02*
D03*
X47719Y46900D02*
D03*
X20700Y40115D02*
D03*
X54219Y50400D02*
D03*
X20700Y39885D02*
D03*
X54219Y49900D02*
D03*
X23465Y40865D02*
D03*
X54219Y49400D02*
D03*
X23465Y40635D02*
D03*
X54219Y48900D02*
D03*
X48719Y48400D02*
D03*
X19800Y37385D02*
D03*
X48219Y48400D02*
D03*
X19800Y37615D02*
D03*
X48719Y46400D02*
D03*
X20300Y37115D02*
D03*
X49219Y46400D02*
D03*
X20300Y36885D02*
D03*
X49719Y48900D02*
D03*
X20800Y36385D02*
D03*
X49219Y48900D02*
D03*
X20800Y36615D02*
D03*
X50719Y46400D02*
D03*
X51219Y46400D02*
D03*
X52219Y46900D02*
D03*
X51719Y46900D02*
D03*
X45719Y46900D02*
D03*
X46219Y46900D02*
D03*
X46219Y48900D02*
D03*
X46719Y48900D02*
D03*
X50219Y48400D02*
D03*
X49719Y48400D02*
D03*
X44719Y46400D02*
D03*
X45219Y46400D02*
D03*
X5500Y4500D02*
D03*
X23000Y43500D02*
D03*
X1635Y50265D02*
D03*
X8250Y52750D02*
D03*
X41219Y45900D02*
D03*
X52219Y48900D02*
D03*
X52719Y48900D02*
D03*
X47219Y48400D02*
D03*
X46719Y48400D02*
D03*
X48719Y46900D02*
D03*
X49219Y46900D02*
D03*
X52219Y45400D02*
D03*
X51719Y45400D02*
D03*
X52219Y46400D02*
D03*
X36500Y35500D02*
D03*
X36250Y35750D02*
D03*
X36000Y36000D02*
D03*
X36750Y35250D02*
D03*
X37000Y35000D02*
D03*
X37250Y34750D02*
D03*
X37500Y34500D02*
D03*
X37750Y34250D02*
D03*
X38000Y34000D02*
D03*
X38250Y33750D02*
D03*
X50719Y45900D02*
D03*
X49219Y45900D02*
D03*
X48219Y46400D02*
D03*
X47719Y46400D02*
D03*
X29833Y44799D02*
D03*
X29803Y45144D02*
D03*
X23450Y25350D02*
D03*
X21750Y21174D02*
D03*
X5776Y26324D02*
D03*
X4000Y25500D02*
D03*
X1450Y25350D02*
D03*
X1450Y22350D02*
D03*
X4250Y16500D02*
D03*
X1750Y17250D02*
D03*
X22250Y12000D02*
D03*
X24250Y12000D02*
D03*
X569Y5697D02*
D03*
X569Y5303D02*
D03*
X569Y4697D02*
D03*
X569Y4303D02*
D03*
X36900Y10085D02*
D03*
X44898Y23450D02*
D03*
X36900Y10315D02*
D03*
X44668Y23450D02*
D03*
X32544Y12950D02*
D03*
X33250Y12615D02*
D03*
X43487Y23450D02*
D03*
X33250Y12385D02*
D03*
X32544Y12050D02*
D03*
X43717Y23450D02*
D03*
X30844Y12635D02*
D03*
X30137Y12300D02*
D03*
X43127Y23450D02*
D03*
X30137Y13200D02*
D03*
X30844Y12865D02*
D03*
X42897Y23450D02*
D03*
X42306Y23450D02*
D03*
X27444Y13450D02*
D03*
X42536Y23450D02*
D03*
X27444Y12550D02*
D03*
X28150Y12885D02*
D03*
X28150Y13115D02*
D03*
X26700Y13700D02*
D03*
X51250Y2450D02*
D03*
X49500Y467D02*
D03*
X51000Y467D02*
D03*
X52250Y467D02*
D03*
X52520Y6476D02*
D03*
X52087Y6476D02*
D03*
X49843Y6949D02*
D03*
X51435Y5129D02*
D03*
X46763Y5200D02*
D03*
X46533Y5200D02*
D03*
X51825Y5371D02*
D03*
X51825Y5601D02*
D03*
X53583Y7264D02*
D03*
X44500Y12000D02*
D03*
X44500Y10750D02*
D03*
X42250Y6500D02*
D03*
X42750Y6500D02*
D03*
X43250Y6500D02*
D03*
X43750Y6500D02*
D03*
X47042Y11800D02*
D03*
X55354Y10925D02*
D03*
X53740Y10492D02*
D03*
X52008Y11398D02*
D03*
X51811Y11004D02*
D03*
X51614Y11398D02*
D03*
X51220Y11004D02*
D03*
X48858Y11004D02*
D03*
X49843Y10413D02*
D03*
X49646Y9626D02*
D03*
X49941Y9685D02*
D03*
X56732Y10217D02*
D03*
X56142Y10217D02*
D03*
X50827Y10925D02*
D03*
X55354Y10689D02*
D03*
X49055Y7264D02*
D03*
X47874Y6870D02*
D03*
X49646Y11988D02*
D03*
X50394Y11004D02*
D03*
X48661Y9429D02*
D03*
X48819Y11398D02*
D03*
X55354Y12185D02*
D03*
X55354Y11791D02*
D03*
X55354Y11398D02*
D03*
X55354Y12776D02*
D03*
X55354Y13169D02*
D03*
X55354Y13563D02*
D03*
X53012Y13189D02*
D03*
X52992Y12776D02*
D03*
X52992Y12382D02*
D03*
X52992Y11988D02*
D03*
X52598Y11988D02*
D03*
X52205Y11988D02*
D03*
X52598Y13169D02*
D03*
X52598Y12382D02*
D03*
X52598Y12776D02*
D03*
X52205Y12382D02*
D03*
X52205Y12776D02*
D03*
X53976Y8504D02*
D03*
X56063Y6476D02*
D03*
X56457Y6476D02*
D03*
X55157Y6476D02*
D03*
X55551Y6476D02*
D03*
X47874Y6083D02*
D03*
X53976Y9488D02*
D03*
X54488Y6772D02*
D03*
X53976Y6516D02*
D03*
X51250Y3603D02*
D03*
X50750Y3603D02*
D03*
X50250Y3603D02*
D03*
X49750Y3603D02*
D03*
X49250Y3600D02*
D03*
X50750Y2503D02*
D03*
X50250Y2503D02*
D03*
X49750Y2503D02*
D03*
X49250Y2500D02*
D03*
X48268Y7264D02*
D03*
X48465Y11004D02*
D03*
X55551Y9685D02*
D03*
X48071Y11004D02*
D03*
X47874Y6476D02*
D03*
X55551Y8701D02*
D03*
X55551Y9291D02*
D03*
X51417Y12579D02*
D03*
X48661Y7264D02*
D03*
X46058Y9508D02*
D03*
X47042Y9500D02*
D03*
X46050Y11750D02*
D03*
X46058Y12842D02*
D03*
X48065Y9215D02*
D03*
X47635Y8185D02*
D03*
X48065Y8985D02*
D03*
X47865Y8185D02*
D03*
X47200Y8585D02*
D03*
X47200Y8815D02*
D03*
X45878Y8900D02*
D03*
X45648Y8900D02*
D03*
X56250Y4500D02*
D03*
X58250Y2250D02*
D03*
X58250Y2750D02*
D03*
X71250Y4126D02*
D03*
X59553Y2250D02*
D03*
X59553Y2750D02*
D03*
X60250Y2500D02*
D03*
X59553Y3750D02*
D03*
X58500Y950D02*
D03*
X52250Y3500D02*
D03*
X53750Y4250D02*
D03*
X53250Y4250D02*
D03*
X54720Y5565D02*
D03*
X53750Y5565D02*
D03*
X53500Y467D02*
D03*
X52750Y3250D02*
D03*
X52000Y4200D02*
D03*
X47047Y4500D02*
D03*
X46250Y4500D02*
D03*
X90598Y15126D02*
D03*
X89220Y14338D02*
D03*
X88433Y13225D02*
D03*
X88039Y13963D02*
D03*
X87646Y13963D02*
D03*
X87744Y15322D02*
D03*
X86957Y16720D02*
D03*
X86957Y17094D02*
D03*
X86957Y17468D02*
D03*
X86957Y17842D02*
D03*
X87331Y17842D02*
D03*
X87705Y17842D02*
D03*
X88079Y17842D02*
D03*
X88079Y17468D02*
D03*
X87705Y17468D02*
D03*
X87331Y17468D02*
D03*
X88079Y17094D02*
D03*
X87705Y17094D02*
D03*
X87331Y17094D02*
D03*
X88079Y16720D02*
D03*
X87705Y16720D02*
D03*
X87331Y16720D02*
D03*
X87154Y16208D02*
D03*
X86563Y16208D02*
D03*
X84693Y15519D02*
D03*
X86366Y16602D02*
D03*
X84299Y16011D02*
D03*
X84299Y16307D02*
D03*
X85480Y17291D02*
D03*
X85087Y17291D02*
D03*
X80759Y19967D02*
D03*
X80759Y19606D02*
D03*
X80759Y19245D02*
D03*
X80759Y18884D02*
D03*
X85854Y17980D02*
D03*
X85283Y19181D02*
D03*
X85283Y20362D02*
D03*
X85677Y20362D02*
D03*
X86071Y20362D02*
D03*
X86465Y20362D02*
D03*
X86760Y18374D02*
D03*
X86858Y20362D02*
D03*
X87154Y18374D02*
D03*
X87646Y20362D02*
D03*
X88039Y20362D02*
D03*
X88433Y21149D02*
D03*
X88433Y18275D02*
D03*
X89929Y19063D02*
D03*
X89555Y17685D02*
D03*
X89319Y17488D02*
D03*
X89319Y17094D02*
D03*
X89555Y16897D02*
D03*
X84693Y17291D02*
D03*
X84693Y17685D02*
D03*
X84299Y17685D02*
D03*
X84299Y17291D02*
D03*
X27697Y43963D02*
D03*
X27323Y43963D02*
D03*
X27717Y45537D02*
D03*
X27323Y45537D02*
D03*
X27520Y45813D02*
D03*
X26139Y49798D02*
D03*
X26739Y49798D02*
D03*
X25539Y49798D02*
D03*
X27339Y49798D02*
D03*
X25748Y46325D02*
D03*
X28819Y46325D02*
D03*
X29488Y46818D02*
D03*
X29882Y46818D02*
D03*
X29488Y44789D02*
D03*
X61721Y30287D02*
D03*
X60933Y30287D02*
D03*
X58670Y29805D02*
D03*
X58493Y28279D02*
D03*
X56504Y27826D02*
D03*
X56524Y28220D02*
D03*
X56544Y28614D02*
D03*
X58433Y30031D02*
D03*
X58433Y30622D02*
D03*
X60599Y30582D02*
D03*
X57750Y29450D02*
D03*
X53355Y27334D02*
D03*
X51583Y27334D02*
D03*
X48138Y29874D02*
D03*
X48433Y30169D02*
D03*
X48433Y29578D02*
D03*
X47843Y29578D02*
D03*
X47843Y30169D02*
D03*
X47548Y29874D02*
D03*
X62223Y33683D02*
D03*
X62508Y32374D02*
D03*
X62508Y33122D02*
D03*
X60441Y34421D02*
D03*
X59259Y34571D02*
D03*
X59259Y34177D02*
D03*
X60540Y30287D02*
D03*
X60933Y35897D02*
D03*
X66016Y28614D02*
D03*
X65300Y25961D02*
D03*
X64750Y25961D02*
D03*
X64250Y25961D02*
D03*
X63750Y25961D02*
D03*
X67984Y24146D02*
D03*
X68516Y24146D02*
D03*
X53158Y25480D02*
D03*
X51760Y25480D02*
D03*
X49664Y28465D02*
D03*
X49132Y28465D02*
D03*
X12200Y1550D02*
D03*
X11950Y1300D02*
D03*
X12450Y1300D02*
D03*
X12700Y1550D02*
D03*
X9700Y3050D02*
D03*
X12700Y2050D02*
D03*
X12700Y2550D02*
D03*
X12700Y3050D02*
D03*
X2200Y49690D02*
D03*
X92496Y38327D02*
D03*
X38250Y27250D02*
D03*
X38250Y27750D02*
D03*
X37750Y27750D02*
D03*
X37750Y27250D02*
D03*
X38000Y27000D02*
D03*
X39000Y26750D02*
D03*
X40250Y27500D02*
D03*
X40250Y27900D02*
D03*
X40821Y29317D02*
D03*
X36963Y23157D02*
D03*
X36963Y23551D02*
D03*
X38894Y25750D02*
D03*
X40565Y25530D02*
D03*
X43307Y23841D02*
D03*
X43898Y23841D02*
D03*
X44488Y23841D02*
D03*
X45079Y23841D02*
D03*
X45669Y23841D02*
D03*
X46654Y23841D02*
D03*
X42126Y23841D02*
D03*
X42717Y23841D02*
D03*
X40565Y26144D02*
D03*
X53104Y20258D02*
D03*
X82150Y11850D02*
D03*
X85150Y11850D02*
D03*
X68261Y11864D02*
D03*
X71261Y11864D02*
D03*
X68852Y15764D02*
D03*
X69836Y15764D02*
D03*
X71017Y15764D02*
D03*
X70011Y16264D02*
D03*
X69511Y16264D02*
D03*
X69011Y16264D02*
D03*
X68511Y16264D02*
D03*
X68011Y16764D02*
D03*
X69011Y16764D02*
D03*
X70011Y17264D02*
D03*
X69511Y17264D02*
D03*
X69011Y17264D02*
D03*
X68011Y16264D02*
D03*
X68511Y16764D02*
D03*
X65011Y18764D02*
D03*
X67080Y18817D02*
D03*
X68261Y19264D02*
D03*
X68458Y19014D02*
D03*
X68655Y19264D02*
D03*
X68852Y19014D02*
D03*
X69245Y19014D02*
D03*
X69048Y19264D02*
D03*
X69442Y19264D02*
D03*
X69811Y20364D02*
D03*
X69511Y21264D02*
D03*
X73011Y19791D02*
D03*
X65761Y14514D02*
D03*
X68749Y12326D02*
D03*
X65761Y9514D02*
D03*
X66261Y9514D02*
D03*
X66761Y9514D02*
D03*
X67261Y9514D02*
D03*
X66061Y12514D02*
D03*
X66561Y12514D02*
D03*
X67061Y12514D02*
D03*
X67561Y12514D02*
D03*
X68011Y17264D02*
D03*
X70011Y16764D02*
D03*
X69511Y16764D02*
D03*
X68511Y17264D02*
D03*
X71261Y17264D02*
D03*
X71511Y17514D02*
D03*
X72011Y16998D02*
D03*
X72011Y15364D02*
D03*
X73361Y14086D02*
D03*
X73861Y14086D02*
D03*
X74361Y14086D02*
D03*
X74861Y14086D02*
D03*
X73661Y17086D02*
D03*
X74161Y17086D02*
D03*
X74661Y17086D02*
D03*
X75161Y17086D02*
D03*
X13175Y9247D02*
D03*
X13497Y8500D02*
D03*
X15926Y8817D02*
D03*
X16350Y8500D02*
D03*
X17448Y9250D02*
D03*
X19000Y5455D02*
D03*
X17250Y8700D02*
D03*
X15650Y6750D02*
D03*
X16250Y3950D02*
D03*
X14453Y7550D02*
D03*
X14000Y8000D02*
D03*
X15400Y7000D02*
D03*
X15050Y6750D02*
D03*
X15050Y6400D02*
D03*
X14000Y6350D02*
D03*
X13400Y6950D02*
D03*
X18600Y6550D02*
D03*
X13600Y5900D02*
D03*
X13600Y5450D02*
D03*
X8969Y46581D02*
D03*
X85181Y43825D02*
D03*
X7307Y11407D02*
D03*
X7307Y10463D02*
D03*
X8448Y13493D02*
D03*
X8763Y13493D02*
D03*
X9078Y13493D02*
D03*
X9393Y13493D02*
D03*
X10337Y9007D02*
D03*
X4250Y15480D02*
D03*
X13250Y5500D02*
D03*
X13250Y3500D02*
D03*
X9078Y8222D02*
D03*
X6352Y12352D02*
D03*
X8969Y43825D02*
D03*
X1654Y36673D02*
D03*
X1654Y38327D02*
D03*
X5250Y37500D02*
D03*
X4565Y37500D02*
D03*
X6100Y40450D02*
D03*
X4876Y41000D02*
D03*
X88500Y48750D02*
D03*
X68766Y53185D02*
D03*
X68766Y52500D02*
D03*
X550Y41500D02*
D03*
X2450Y41500D02*
D03*
X550Y40000D02*
D03*
X2450Y40000D02*
D03*
X1500Y35000D02*
D03*
X1500Y34500D02*
D03*
X2000Y33750D02*
D03*
X2500Y33750D02*
D03*
X12650Y11950D02*
D03*
X14550Y11950D02*
D03*
X14550Y13250D02*
D03*
X12650Y13250D02*
D03*
X10507Y11722D02*
D03*
X10507Y11407D02*
D03*
X11860Y10463D02*
D03*
X11860Y10148D02*
D03*
X86350Y41700D02*
D03*
X86350Y41250D02*
D03*
X5494Y49650D02*
D03*
X15900Y1876D02*
D03*
X10250Y6500D02*
D03*
X8750Y11000D02*
D03*
X40000Y2065D02*
D03*
X49921Y6248D02*
D03*
X40000Y1835D02*
D03*
X49921Y6018D02*
D03*
X39057Y1000D02*
D03*
X39057Y2900D02*
D03*
X37757Y2900D02*
D03*
X37757Y1000D02*
D03*
X1565Y33100D02*
D03*
X12585Y15950D02*
D03*
X1335Y33100D02*
D03*
X12815Y15950D02*
D03*
X11100Y42750D02*
D03*
X9450Y41980D02*
D03*
X9100Y42750D02*
D03*
X90500Y48500D02*
D03*
X92500Y48500D02*
D03*
X90850Y49270D02*
D03*
X1250Y47750D02*
D03*
X38600Y13350D02*
D03*
X38200Y13350D02*
D03*
X37906Y8550D02*
D03*
X37906Y8250D02*
D03*
X37200Y9500D02*
D03*
X36800Y8950D02*
D03*
X23000Y11500D02*
D03*
X2350Y5500D02*
D03*
X5250Y34800D02*
D03*
X5253Y35197D02*
D03*
X4006Y34606D02*
D03*
X7900Y35900D02*
D03*
X6000Y8480D02*
D03*
X2250Y16500D02*
D03*
X2750Y16750D02*
D03*
X9750Y10850D02*
D03*
X9980Y10850D02*
D03*
X8950Y3500D02*
D03*
X18600Y8000D02*
D03*
X10750Y4750D02*
D03*
X13000Y7500D02*
D03*
X34150Y6200D02*
D03*
X29552Y5100D02*
D03*
X30776Y5250D02*
D03*
X31052Y5100D02*
D03*
X31500Y5100D02*
D03*
X30000Y5100D02*
D03*
X30276Y5250D02*
D03*
X34750Y7250D02*
D03*
X35500Y7750D02*
D03*
X32552Y5100D02*
D03*
X36000Y8000D02*
D03*
X36394Y6894D02*
D03*
X36250Y8250D02*
D03*
X19500Y6750D02*
D03*
X21000Y5250D02*
D03*
X20750Y5000D02*
D03*
X28500Y5100D02*
D03*
X24276Y4750D02*
D03*
X26276Y6000D02*
D03*
X25776Y5750D02*
D03*
X24776Y5500D02*
D03*
X22750Y4750D02*
D03*
X28250Y4000D02*
D03*
X22250Y4500D02*
D03*
X21000Y8750D02*
D03*
X44250Y10500D02*
D03*
X43000Y10750D02*
D03*
X41250Y11250D02*
D03*
X33500Y9200D02*
D03*
X29500Y8750D02*
D03*
X35500Y9500D02*
D03*
X35500Y9000D02*
D03*
X35500Y10900D02*
D03*
X35500Y11400D02*
D03*
X36600Y11000D02*
D03*
X36757Y11707D02*
D03*
X42250Y25500D02*
D03*
X39450Y27100D02*
D03*
X39450Y26750D02*
D03*
X44700Y26000D02*
D03*
X44700Y25750D02*
D03*
X44700Y25500D02*
D03*
X47244Y25250D02*
D03*
X45750Y25750D02*
D03*
X45500Y26500D02*
D03*
X47250Y26250D02*
D03*
X48300Y25500D02*
D03*
X45750Y28000D02*
D03*
X45000Y29000D02*
D03*
X40994Y28894D02*
D03*
X46700Y28750D02*
D03*
X46300Y28750D02*
D03*
X49550Y20400D02*
D03*
X50000Y20400D02*
D03*
X55356Y19956D02*
D03*
X56500Y19494D02*
D03*
X56050Y19494D02*
D03*
X54956Y18856D02*
D03*
X74409Y33741D02*
D03*
X36100Y28000D02*
D03*
X35550Y26550D02*
D03*
X35550Y26875D02*
D03*
X35150Y27200D02*
D03*
X35550Y27200D02*
D03*
X36900Y26450D02*
D03*
X35750Y30750D02*
D03*
X36000Y15250D02*
D03*
X45250Y7250D02*
D03*
X49606Y7919D02*
D03*
X45250Y6750D02*
D03*
X49606Y7689D02*
D03*
X51435Y4899D02*
D03*
X67080Y19750D02*
D03*
X68000Y21264D02*
D03*
X68000Y19764D02*
D03*
X63750Y17750D02*
D03*
X63500Y18000D02*
D03*
X63250Y18250D02*
D03*
X63000Y18500D02*
D03*
X35250Y15500D02*
D03*
X34750Y15500D02*
D03*
X35500Y15750D02*
D03*
X35000Y15750D02*
D03*
X37500Y22500D02*
D03*
X36750Y19250D02*
D03*
X33750Y19250D02*
D03*
X61632Y33683D02*
D03*
X46000Y22500D02*
D03*
X46000Y21750D02*
D03*
X45500Y20250D02*
D03*
X12421Y39250D02*
D03*
X36719Y49900D02*
D03*
X37219Y49400D02*
D03*
X36219Y47400D02*
D03*
X36719Y46900D02*
D03*
X36219Y46900D02*
D03*
X37219Y47400D02*
D03*
X37219Y46900D02*
D03*
X37719Y46900D02*
D03*
X37719Y46400D02*
D03*
X38219Y46400D02*
D03*
X37219Y46400D02*
D03*
X36719Y46400D02*
D03*
X36219Y46400D02*
D03*
X36719Y45900D02*
D03*
X36219Y45400D02*
D03*
X37219Y45900D02*
D03*
X38719Y45900D02*
D03*
X38219Y45400D02*
D03*
X37719Y45400D02*
D03*
X39219Y45900D02*
D03*
X39219Y46400D02*
D03*
X38719Y46900D02*
D03*
X38219Y46900D02*
D03*
X38719Y47400D02*
D03*
X38219Y47900D02*
D03*
X38719Y48400D02*
D03*
X38219Y48900D02*
D03*
X38719Y49400D02*
D03*
X38219Y49900D02*
D03*
X39719Y49900D02*
D03*
X40219Y49400D02*
D03*
X39719Y48900D02*
D03*
X40219Y48400D02*
D03*
X39719Y47900D02*
D03*
X40219Y47400D02*
D03*
X39719Y46400D02*
D03*
X40219Y46400D02*
D03*
X39719Y45400D02*
D03*
X40219Y45400D02*
D03*
X40719Y45900D02*
D03*
X42719Y45900D02*
D03*
X43219Y45900D02*
D03*
X42219Y46900D02*
D03*
X41719Y47400D02*
D03*
X41219Y47900D02*
D03*
X41719Y48400D02*
D03*
X41219Y48900D02*
D03*
X41719Y49400D02*
D03*
X41219Y49900D02*
D03*
X42719Y49900D02*
D03*
X43219Y49400D02*
D03*
X42719Y48900D02*
D03*
X43219Y48400D02*
D03*
X42719Y47900D02*
D03*
X43219Y47400D02*
D03*
X43719Y46900D02*
D03*
X43719Y46400D02*
D03*
X43719Y45400D02*
D03*
X44219Y45400D02*
D03*
X45719Y45400D02*
D03*
X46219Y45400D02*
D03*
X44719Y45900D02*
D03*
X45219Y45900D02*
D03*
X44219Y46400D02*
D03*
X45219Y46900D02*
D03*
X45719Y46400D02*
D03*
X46219Y46400D02*
D03*
X46719Y45900D02*
D03*
X47219Y45900D02*
D03*
X47719Y45400D02*
D03*
X46719Y46900D02*
D03*
X46219Y47400D02*
D03*
X44719Y47400D02*
D03*
X44219Y47900D02*
D03*
X44719Y48400D02*
D03*
X44219Y48900D02*
D03*
X44719Y49400D02*
D03*
X44219Y49900D02*
D03*
X45719Y49900D02*
D03*
X46219Y49400D02*
D03*
X45719Y48900D02*
D03*
X46219Y48400D02*
D03*
X45719Y47900D02*
D03*
X47219Y49900D02*
D03*
X47719Y49400D02*
D03*
X47219Y48900D02*
D03*
X47719Y48400D02*
D03*
X47219Y47900D02*
D03*
X47719Y47400D02*
D03*
X48219Y46900D02*
D03*
X48219Y45400D02*
D03*
X48719Y45900D02*
D03*
X49719Y45400D02*
D03*
X50219Y45400D02*
D03*
X50219Y46400D02*
D03*
X49719Y46400D02*
D03*
X49719Y46900D02*
D03*
X49219Y47400D02*
D03*
X48719Y47900D02*
D03*
X49219Y48400D02*
D03*
X50219Y47900D02*
D03*
X50719Y48400D02*
D03*
X50719Y47400D02*
D03*
X51219Y46900D02*
D03*
X51719Y47900D02*
D03*
X52219Y48400D02*
D03*
X51219Y45900D02*
D03*
X51719Y46400D02*
D03*
X52719Y45900D02*
D03*
X53219Y45900D02*
D03*
X53219Y46900D02*
D03*
X52719Y46900D02*
D03*
X52219Y47900D02*
D03*
X53219Y47900D02*
D03*
X51719Y48900D02*
D03*
X48719Y49900D02*
D03*
X49219Y49400D02*
D03*
X48719Y48900D02*
D03*
X50219Y49900D02*
D03*
X50719Y49400D02*
D03*
X50219Y48900D02*
D03*
X51719Y49900D02*
D03*
X52219Y49400D02*
D03*
X53219Y49900D02*
D03*
X53219Y49400D02*
D03*
X53719Y45400D02*
D03*
X53719Y46400D02*
D03*
X54219Y46400D02*
D03*
X54219Y45400D02*
D03*
X54219Y47400D02*
D03*
X53719Y47400D02*
D03*
X53719Y48400D02*
D03*
X54219Y48400D02*
D03*
X53719Y49400D02*
D03*
X54719Y49400D02*
D03*
X54719Y49900D02*
D03*
X55219Y49900D02*
D03*
X55719Y49400D02*
D03*
X54719Y48900D02*
D03*
X54719Y47900D02*
D03*
X55219Y47900D02*
D03*
X55719Y48400D02*
D03*
X55719Y47400D02*
D03*
X55219Y46900D02*
D03*
X54719Y46900D02*
D03*
X55719Y46400D02*
D03*
X55219Y45900D02*
D03*
X54719Y45900D02*
D03*
X55719Y45400D02*
D03*
X40219Y46900D02*
D03*
X38719Y46400D02*
D03*
X55219Y49400D02*
D03*
X55719Y45900D02*
D03*
X47719Y48900D02*
D03*
X48219Y48900D02*
D03*
X51219Y48900D02*
D03*
X50719Y48900D02*
D03*
X51219Y48400D02*
D03*
X51719Y48400D02*
D03*
X47219Y46400D02*
D03*
X46719Y46400D02*
D03*
X35900Y12370D02*
D03*
X35194Y12035D02*
D03*
X44308Y23450D02*
D03*
X35194Y12935D02*
D03*
X35900Y12600D02*
D03*
X44078Y23450D02*
D03*
X55469Y43650D02*
D03*
X11750Y25250D02*
D03*
X32276Y5250D02*
D03*
X28776Y5250D02*
D03*
X31776Y5250D02*
D03*
X29276Y5250D02*
D03*
X10250Y39500D02*
D03*
X21750Y9500D02*
D03*
X21500Y9750D02*
D03*
X60550Y27000D02*
D03*
X59752Y28909D02*
D03*
X60176Y26750D02*
D03*
X73750Y30750D02*
D03*
X74500Y31000D02*
D03*
X65000Y35650D02*
D03*
X74376Y36726D02*
D03*
X41732Y22500D02*
D03*
X49750Y24500D02*
D03*
X76125Y34250D02*
D03*
X47835Y25250D02*
D03*
X48032Y25050D02*
D03*
X48228Y24822D02*
D03*
X50000Y24750D02*
D03*
X36500Y22750D02*
D03*
X35750Y22750D02*
D03*
X89193Y23502D02*
D03*
X93130Y27439D02*
D03*
X89193Y31376D02*
D03*
X85256Y27439D02*
D03*
X85256Y39250D02*
D03*
X36500Y6500D02*
D03*
X34750Y6500D02*
D03*
X42100Y13135D02*
D03*
X42100Y13365D02*
D03*
X46000Y18500D02*
D03*
X45750Y18000D02*
D03*
X45500Y17500D02*
D03*
X46250Y17750D02*
D03*
X45250Y18250D02*
D03*
X45000Y17250D02*
D03*
X50750Y24250D02*
D03*
X51000Y24000D02*
D03*
X50750Y23750D02*
D03*
X56750Y24250D02*
D03*
X57000Y24000D02*
D03*
X56750Y23750D02*
D03*
X84700Y15200D02*
D03*
X85500Y15200D02*
D03*
X36335Y1485D02*
D03*
X36565Y1485D02*
D03*
X61500Y4750D02*
D03*
X61500Y4250D02*
D03*
X61250Y4500D02*
D03*
X58803Y4750D02*
D03*
X61000Y3500D02*
D03*
X57250Y5250D02*
D03*
X54992Y4750D02*
D03*
X67750Y1750D02*
D03*
X77000Y950D02*
D03*
X53740Y10807D02*
D03*
X23750Y46750D02*
D03*
X28050Y27200D02*
D03*
X50001Y8701D02*
D03*
X30459Y44159D02*
D03*
X28750Y26750D02*
D03*
X84102Y13752D02*
D03*
X83709Y13752D02*
D03*
X35750Y23100D02*
D03*
X36500Y23100D02*
D03*
X47750Y15950D02*
D03*
X27500Y29500D02*
D03*
X29169Y44500D02*
D03*
X34750Y26550D02*
D03*
X34750Y27200D02*
D03*
X35150Y26550D02*
D03*
X34750Y26875D02*
D03*
X35150Y26875D02*
D03*
X6250Y34250D02*
D03*
X58150Y32950D02*
D03*
X58150Y33400D02*
D03*
X58150Y33850D02*
D03*
X58150Y34300D02*
D03*
X41719Y45400D02*
D03*
X42219Y45400D02*
D03*
X42219Y46400D02*
D03*
X41719Y46400D02*
D03*
X41219Y46400D02*
D03*
X40719Y46400D02*
D03*
X6500Y34000D02*
D03*
X41669Y52350D02*
D03*
X41969Y52150D02*
D03*
X8291Y3464D02*
D03*
X46550Y10355D02*
D03*
X46550Y10945D02*
D03*
X45861Y10650D02*
D03*
X47239Y10650D02*
D03*
X52750Y5014D02*
D03*
X52750Y5486D02*
D03*
X52750Y5250D02*
D03*
X52514Y5250D02*
D03*
X52986Y5250D02*
D03*
X46650Y6750D02*
D03*
X36719Y49400D02*
D03*
X37219Y48900D02*
D03*
X36219Y49900D02*
D03*
X36219Y48900D02*
D03*
X37219Y47900D02*
D03*
X64200Y31200D02*
D03*
X64600Y31200D02*
D03*
X60100Y33550D02*
D03*
X60100Y33150D02*
D03*
X26700Y12300D02*
D03*
X27050Y11900D02*
D03*
X27056Y14100D02*
D03*
X29744Y11650D02*
D03*
X29394Y12050D02*
D03*
X29744Y13850D02*
D03*
X29394Y13450D02*
D03*
X32150Y11400D02*
D03*
X31800Y11800D02*
D03*
X32150Y13600D02*
D03*
X31800Y13200D02*
D03*
X34800Y13585D02*
D03*
X34450Y13185D02*
D03*
X34800Y11385D02*
D03*
X34450Y11785D02*
D03*
X59400Y28712D02*
D03*
X60648Y29007D02*
D03*
X61229Y29007D02*
D03*
X61809Y29007D02*
D03*
X61229Y28427D02*
D03*
X61229Y29588D02*
D03*
X53835Y31993D02*
D03*
X53835Y31593D02*
D03*
X59477Y30537D02*
D03*
X59077Y30537D02*
D03*
X50431Y28465D02*
D03*
X50963Y28465D02*
D03*
X56004Y33387D02*
D03*
X56004Y32856D02*
D03*
X56004Y34372D02*
D03*
X56004Y33840D02*
D03*
X62243Y31737D02*
D03*
X62774Y31737D02*
D03*
X59950Y27050D02*
D03*
X66402Y28122D02*
D03*
X80283Y17746D02*
D03*
X79883Y17746D02*
D03*
X82455Y17541D02*
D03*
X82455Y17941D02*
D03*
X82455Y16832D02*
D03*
X82450Y17200D02*
D03*
X84508Y13454D02*
D03*
X84876Y13459D02*
D03*
X85296Y13454D02*
D03*
X85663Y13459D02*
D03*
X86083Y13454D02*
D03*
X86451Y13459D02*
D03*
X86870Y13454D02*
D03*
X87238Y13459D02*
D03*
X51000Y1650D02*
D03*
X52550Y2550D02*
D03*
X53100Y2500D02*
D03*
X72250Y34500D02*
D03*
D129*
X44837Y2939D02*
D03*
X44837Y1758D02*
D03*
X48459Y2939D02*
D03*
X48459Y1758D02*
D03*
D130*
X52136Y9222D02*
D03*
X52589Y9222D02*
D03*
X52972Y9222D02*
D03*
X52589Y10059D02*
D03*
X52136Y10059D02*
D03*
X52589Y9675D02*
D03*
X52136Y9675D02*
D03*
X52972Y9675D02*
D03*
X52972Y8317D02*
D03*
X52136Y8317D02*
D03*
X52589Y8317D02*
D03*
X52136Y7933D02*
D03*
X52589Y7933D02*
D03*
X52972Y8770D02*
D03*
X52589Y8770D02*
D03*
X52136Y8770D02*
D03*
X51683Y8770D02*
D03*
X51230Y8770D02*
D03*
X50846Y8770D02*
D03*
X51230Y7933D02*
D03*
X51683Y7933D02*
D03*
X51230Y8317D02*
D03*
X51683Y8317D02*
D03*
X50846Y8317D02*
D03*
X50846Y9675D02*
D03*
X51683Y9675D02*
D03*
X51230Y9675D02*
D03*
X51683Y10059D02*
D03*
X51230Y10059D02*
D03*
X50846Y9222D02*
D03*
X51230Y9222D02*
D03*
X51683Y9222D02*
D03*
X10974Y1887D02*
D03*
X10580Y1887D02*
D03*
X10974Y2281D02*
D03*
X10580Y2281D02*
D03*
X16783Y6467D02*
D03*
X17217Y6467D02*
D03*
X16783Y6033D02*
D03*
X17217Y6033D02*
D03*
X37189Y30022D02*
D03*
X37189Y29628D02*
D03*
X36756Y30022D02*
D03*
X36756Y29628D02*
D03*
X36323Y29628D02*
D03*
X36323Y30022D02*
D03*
X36323Y29234D02*
D03*
X36756Y29234D02*
D03*
X37189Y29234D02*
D03*
X38055Y29234D02*
D03*
X38488Y29234D02*
D03*
X38921Y29234D02*
D03*
X38921Y30022D02*
D03*
X38921Y29628D02*
D03*
X38488Y29628D02*
D03*
X38488Y30022D02*
D03*
X38055Y29628D02*
D03*
X38055Y30022D02*
D03*
X37622Y30022D02*
D03*
X37622Y29628D02*
D03*
X37622Y29234D02*
D03*
M02*
