G04 Layer_Color=32896*
%FSLAX24Y24*%
%MOIN*%
G70*
G01*
G75*
%ADD88C,0.0100*%
D88*
X-14820Y-5300D02*
X-14905Y-5329D01*
X-14963Y-5414D01*
X-14991Y-5557D01*
X-14991Y-5643D01*
X-14963Y-5786D01*
X-14905Y-5871D01*
X-14820Y-5900D01*
X-14763Y-5900D01*
X-14677Y-5871D01*
X-14620Y-5786D01*
X-14591Y-5643D01*
X-14591Y-5557D01*
X-14620Y-5414D01*
X-14677Y-5329D01*
X-14763Y-5300D01*
X-14820Y-5300D01*
X-14086Y-5500D02*
X-14114Y-5586D01*
X-14171Y-5643D01*
X-14257Y-5671D01*
X-14286Y-5671D01*
X-14371Y-5643D01*
X-14428Y-5586D01*
X-14457Y-5500D01*
X-14457Y-5472D01*
X-14428Y-5386D01*
X-14371Y-5329D01*
X-14286Y-5300D01*
X-14257Y-5300D01*
X-14171Y-5329D01*
X-14114Y-5386D01*
X-14086Y-5500D01*
X-14086Y-5643D01*
X-14114Y-5786D01*
X-14171Y-5871D01*
X-14257Y-5900D01*
X-14314Y-5900D01*
X-14400Y-5871D01*
X-14428Y-5814D01*
X-13451Y-5300D02*
X-13451Y-5900D01*
X-13451Y-5300D02*
X-13194Y-5300D01*
X-13109Y-5329D01*
X-13080Y-5357D01*
X-13052Y-5414D01*
X-13052Y-5472D01*
X-13080Y-5529D01*
X-13109Y-5557D01*
X-13194Y-5586D01*
X-13451Y-5586D02*
X-13194Y-5586D01*
X-13109Y-5614D01*
X-13080Y-5643D01*
X-13052Y-5700D01*
X-13052Y-5786D01*
X-13080Y-5843D01*
X-13109Y-5871D01*
X-13194Y-5900D01*
X-13451Y-5900D01*
X-12460Y-5900D02*
X-12689Y-5300D01*
X-12917Y-5900D01*
X-12832Y-5700D02*
X-12546Y-5700D01*
X-11892Y-5443D02*
X-11920Y-5386D01*
X-11977Y-5329D01*
X-12035Y-5300D01*
X-12149Y-5300D01*
X-12206Y-5329D01*
X-12263Y-5386D01*
X-12292Y-5443D01*
X-12320Y-5529D01*
X-12320Y-5671D01*
X-12292Y-5757D01*
X-12263Y-5814D01*
X-12206Y-5871D01*
X-12149Y-5900D01*
X-12035Y-5900D01*
X-11977Y-5871D01*
X-11920Y-5814D01*
X-11892Y-5757D01*
X-11723Y-5300D02*
X-11723Y-5900D01*
X-11323Y-5300D02*
X-11723Y-5700D01*
X-11580Y-5557D02*
X-11323Y-5900D01*
X-10718Y-5300D02*
X-10575Y-5900D01*
X-10432Y-5300D02*
X-10575Y-5900D01*
X-10432Y-5300D02*
X-10289Y-5900D01*
X-10146Y-5300D02*
X-10289Y-5900D01*
X-9855Y-5300D02*
X-9912Y-5329D01*
X-9969Y-5386D01*
X-9998Y-5443D01*
X-10026Y-5529D01*
X-10026Y-5671D01*
X-9998Y-5757D01*
X-9969Y-5814D01*
X-9912Y-5871D01*
X-9855Y-5900D01*
X-9741Y-5900D01*
X-9684Y-5871D01*
X-9627Y-5814D01*
X-9598Y-5757D01*
X-9569Y-5671D01*
X-9569Y-5529D01*
X-9598Y-5443D01*
X-9627Y-5386D01*
X-9684Y-5329D01*
X-9741Y-5300D01*
X-9855Y-5300D01*
X-9429Y-5300D02*
X-9429Y-5900D01*
X-9429Y-5300D02*
X-9172Y-5300D01*
X-9087Y-5329D01*
X-9058Y-5357D01*
X-9030Y-5414D01*
X-9030Y-5472D01*
X-9058Y-5529D01*
X-9087Y-5557D01*
X-9172Y-5586D01*
X-9429Y-5586D01*
X-9229Y-5586D02*
X-9030Y-5900D01*
X-8895Y-5300D02*
X-8895Y-5900D01*
X-8495Y-5300D02*
X-8895Y-5700D01*
X-8752Y-5557D02*
X-8495Y-5900D01*
X-7933Y-5443D02*
X-7961Y-5386D01*
X-8018Y-5329D01*
X-8075Y-5300D01*
X-8190Y-5300D01*
X-8247Y-5329D01*
X-8304Y-5386D01*
X-8333Y-5443D01*
X-8361Y-5529D01*
X-8361Y-5671D01*
X-8333Y-5757D01*
X-8304Y-5814D01*
X-8247Y-5871D01*
X-8190Y-5900D01*
X-8075Y-5900D01*
X-8018Y-5871D01*
X-7961Y-5814D01*
X-7933Y-5757D01*
X-7933Y-5671D01*
X-8075Y-5671D02*
X-7933Y-5671D01*
X-7796Y-5300D02*
X-7796Y-5729D01*
X-7767Y-5814D01*
X-7710Y-5871D01*
X-7624Y-5900D01*
X-7567Y-5900D01*
X-7481Y-5871D01*
X-7424Y-5814D01*
X-7396Y-5729D01*
X-7396Y-5300D01*
X-7230Y-5300D02*
X-7230Y-5900D01*
X-7104Y-5300D02*
X-7104Y-5900D01*
X-7104Y-5300D02*
X-6904Y-5300D01*
X-6819Y-5329D01*
X-6761Y-5386D01*
X-6733Y-5443D01*
X-6704Y-5529D01*
X-6704Y-5671D01*
X-6733Y-5757D01*
X-6761Y-5814D01*
X-6819Y-5871D01*
X-6904Y-5900D01*
X-7104Y-5900D01*
X-6199Y-5300D02*
X-6570Y-5300D01*
X-6570Y-5900D01*
X-6199Y-5900D01*
X-6570Y-5586D02*
X-6342Y-5586D01*
X-5627Y-5300D02*
X-5627Y-5900D01*
X-5627Y-5300D02*
X-5227Y-5900D01*
X-5227Y-5300D02*
X-5227Y-5900D01*
X-4890Y-5300D02*
X-4948Y-5329D01*
X-5005Y-5386D01*
X-5033Y-5443D01*
X-5062Y-5529D01*
X-5062Y-5671D01*
X-5033Y-5757D01*
X-5005Y-5814D01*
X-4948Y-5871D01*
X-4890Y-5900D01*
X-4776Y-5900D01*
X-4719Y-5871D01*
X-4662Y-5814D01*
X-4633Y-5757D01*
X-4605Y-5671D01*
X-4605Y-5529D01*
X-4633Y-5443D01*
X-4662Y-5386D01*
X-4719Y-5329D01*
X-4776Y-5300D01*
X-4890Y-5300D01*
X-4265Y-5300D02*
X-4265Y-5900D01*
X-4465Y-5300D02*
X-4065Y-5300D01*
X-3622Y-5300D02*
X-3993Y-5300D01*
X-3993Y-5900D01*
X-3622Y-5900D01*
X-3993Y-5586D02*
X-3765Y-5586D01*
X-3122Y-5386D02*
X-3179Y-5329D01*
X-3265Y-5300D01*
X-3379Y-5300D01*
X-3465Y-5329D01*
X-3522Y-5386D01*
X-3522Y-5443D01*
X-3494Y-5500D01*
X-3465Y-5529D01*
X-3408Y-5557D01*
X-3236Y-5614D01*
X-3179Y-5643D01*
X-3151Y-5671D01*
X-3122Y-5729D01*
X-3122Y-5814D01*
X-3179Y-5871D01*
X-3265Y-5900D01*
X-3379Y-5900D01*
X-3465Y-5871D01*
X-3522Y-5814D01*
M02*
