M48
;Layer_Color=9474304
;FILE_FORMAT=2:4
INCH,LZ
;TYPE=PLATED
T1F00S00C0.0079
T2F00S00C0.0080
T3F00S00C0.0150
T4F00S00C0.0157
T5F00S00C0.0250
T6F00S00C0.0354
T7F00S00C0.0400
T8F00S00C0.0530
T9F00S00C0.0630
T10F00S00C0.0630
T11F00S00C0.1024
T12F00S00C0.1063
%
T01
X01058Y001887
X010974
Y002281
X01058
X016783Y006033
Y006467
X017217
Y006033
X05123Y007933
Y008317
X050846
Y00877
X05123
X051683
X052136
Y009222
X052589
X052972
Y009675
X052589
Y010059
X052136
Y009675
X051683
Y010059
X05123
Y009675
X050846
Y009222
X05123
X051683
Y008317
Y007933
X052136
Y008317
X052589
X052972
Y00877
X052589
Y007933
X038921Y029234
Y029628
Y030022
X038488
Y029628
Y029234
X038055
Y029628
Y030022
X037622
Y029628
Y029234
X037189
Y029628
Y030022
X036756
Y029628
Y029234
X036323
Y029628
Y030022
T02
X077Y00095
X0585
X05775Y0006
X0535Y000467
X05225Y000467
X051
X0495
X039057Y001
X037757
X0159Y001876
X0127Y00205
Y00255
Y00305
X01325Y0035
Y0055
X0136Y00545
Y0059
X014Y00635
X01505Y0064
Y00675
X0154Y007
X01565Y00675
X015Y0059
X014453Y00755
X014Y008
X013497Y0085
X013175Y009247
X013Y0075
X0134Y00695
X01025Y0065
X01075Y00475
X0097Y00305
X00895Y0035
X008291Y003464
X0055Y0045
X00235Y0055
X000569Y005303
X000569Y005697
Y004697
X000569Y004303
X006Y00848
X007307Y010463
Y011407
X007506Y012352
X006352
X008448Y013493
X008763
X009078
X009393
X009Y014
X009Y0145
X00875Y011
X00975Y01085
X00998
X010507Y011407
Y011722
X01265Y01195
X01265Y01325
X01455
X01455Y01195
X01186Y010463
Y010148
X010652Y009016
X010337Y009007
X010022Y009
X009078Y00915
Y008222
X015926Y008817
X012815Y01595
X012585
X00425Y01548
Y0165
X00275Y01675
X00225Y0165
X0122Y00155
X0127
X01245Y0013
X01195
X01625Y00395
X019Y005455
X0186Y00655
X0195Y00675
X0186Y008
X01725Y0087
X017448Y00925
X01635Y0085
X021Y00875
X02175Y0095
X0215Y00975
X02225Y012
X023Y0115
X02425Y012
X0267Y0123
X02705Y0119
X027444Y01255
Y01345
X0267Y0137
X027056Y0141
X02815Y013115
Y012885
X029394Y01345
X029744Y01385
X030137Y0132
Y0123
X029394Y01205
X029744Y01165
X030844Y012635
Y012865
X0295Y00875
X029552Y0051
X029276Y00525
X028776Y00525
X0285Y0051
X02825Y004
X03Y0051
X030276Y00525
X030776Y00525
X031052Y0051
X0315Y0051
X026276Y006
X025776Y00575
X024776Y0055
X024276Y00475
X02275
X02225Y0045
X021Y00525
X02075Y005
X031776Y00525
X032276Y00525
X032552Y0051
X03415Y0062
X03475Y0065
Y00725
X0355Y00775
X036Y008
X03625Y00825
X0368Y00895
X0372Y0095
X0369Y010085
Y010315
X0366Y011
X036757Y011707
X0359Y01237
Y0126
X035194Y012935
Y012035
X0355Y0114
Y0109
X0348Y011385
X03445Y011785
Y013185
X0348Y013585
X03475Y0155
X03525
X0355Y01575
X035
X036Y01525
X0325
X03215Y0136
X0318Y0132
X032544Y01295
Y01205
X0318Y0118
X03215Y0114
X03325Y012385
Y012615
X0335Y0092
X0355Y009
Y0095
X037906Y00855
Y00825
X036394Y006894
X0365Y0065
X037757Y0029
X039057Y0029
X04Y002065
Y001835
X036565Y001485
X036335
X04225Y0065
X04275
X04325
X04375
X04525Y00675
Y00725
X04665Y00675
X046763Y0052
X046533
X04625Y0045
X047047
X047042Y0095
X046058Y009508
X045878Y0089
X045648
X045861Y01065
X04655Y010355
Y010945
X04605Y01175
X047042Y0118
X046058Y012842
X0445Y012
Y01075
X04425Y0105
X043Y01075
X04125Y01125
X0421Y013135
Y013365
Y013985
Y014215
Y014835
Y015065
Y015685
Y015915
X0386Y01335
X0382
X047239Y01065
X048071Y011004
X048465Y011004
X048858
X048819Y011398
X049646Y011988
X050394Y011004
X050827Y010925
X05122Y011004
X051811
X052008Y011398
X051614
X052205Y011988
X052598
X052992
Y012382
Y012776
X052598
Y013169
X053012Y013189
X052598Y012382
X052205
Y012776
X051417Y012579
X049843Y010413
X049941Y009685
X049646Y009626
X048661Y009429
X048065Y009215
Y008985
X047865Y008185
X047635
X0472Y008585
Y008815
X049252Y008307
X049606Y007919
Y007689
X049843Y006949
X049921Y006248
Y006018
X047874Y006083
X047874Y006476
X047874Y00687
X048268Y007264
X048661
X049055
X050001Y008701
X053976Y008504
Y009488
X05374Y010492
Y010807
X055354Y010925
Y010689
X055354Y011398
Y011791
Y012185
X055354Y012776
Y013169
Y013563
X055551Y009685
Y009291
Y008701
X056142Y010217
X056732
X056457Y006476
X056063Y006476
X055551Y006476
X055157Y006476
X054488Y006772
X053976Y006516
X053583Y007264
X05252Y006476
X052087
X051825Y005601
Y005371
X051435Y005129
Y004899
X052Y0042
X05225Y0035
X05275Y00325
X05255Y00255
X0531Y0025
X05125Y00245
X05075Y002503
X05025
X04975
X04925Y0025
Y0036
X04975Y003603
X05025
X05075
X05125
X051Y00165
X05325Y00425
X05375
Y005565
X05472
X054992Y00475
X05625Y0045
X05725Y00525
X058803Y00475
X059553Y00375
Y00275
Y00225
X06025Y0025
X061Y0035
X0615Y00425
Y00475
X06125Y0045
X05825Y00275
Y00225
X05275Y005014
Y00525
Y005486
X052514Y00525
X052986
X04775Y01595
X065761Y014514
X066883Y013914
X067061Y012514
X066561
X066061
X067561
X068261Y011864
X068749Y012326
X071261Y011864
X071017Y015764
X069836
X070011Y016264
X069511
X069011
X068511
X068011
Y016764
X068511
X069011
X069511
X070011
X068852Y015764
X072011Y015364
X073361Y014086
X073861
X074361
X074861
X067261Y009514
X066761
X066261
X065761
X06775Y00175
X07125Y004126
X078Y002052
X08215Y01185
X08515Y01185
X085296Y013454
X085663Y013459
X086083Y013454
X086451Y013459
X08687Y013454
X087238Y013459
X087646Y013963
X088039
X088433Y013225
X08985Y01285
Y01245
X091495Y013109
X091856
X092217
X090205Y014732
X090598Y015126
X08922Y014338
X087744Y015322
X087705Y01672
X088079
X087331
X086957
X087154Y016208
X086563
X086366Y016602
X0855Y0152
X0847
X084693Y015519
X084299Y016011
X084299Y016307
X082455Y016832
X0797Y015622
Y015261
Y0149
X083709Y013752
X084102
X084508Y013454
X084876Y013459
X084693Y017291
X085087
X08548
X085854Y01798
X086957Y017842
Y017468
Y017094
X087331
Y017468
Y017842
X087705
X088079
Y017468
X087705
Y017094
X088079
X089319
Y017488
X089555Y017685
Y016897
X088433Y018275
X087154Y018374
X08676
X086858Y020362
X086465Y020362
X086071
X085677
X085283
Y019181
X0845Y019259
X084693Y017685
X084299
Y017291
X08245Y0172
X082455Y017541
Y017941
X080283Y017746
X079883
X079622Y017407
X079222
X080759Y018884
Y019245
Y019606
Y019967
X087646Y020362
X088039
X088433Y021149
X089824Y021861
Y022261
X089193Y023502
X091595Y021602
X091956
X092317
X089929Y019063
X09313Y027439
X089193Y031376
X085256Y027439
X0745Y031
X07375Y03075
X0646Y0312
X0642
X066016Y028614
X066402Y028122
X0653Y025961
X06475
X06425
X06375
X067984Y024146
X068516
X068Y021264
Y020764
Y020264
Y019764
X068261Y019264
X068655
X069048
X069442
X069245Y019014
X068852
X068458
X069639Y018764
X069511Y017264
X070011
X069011
X068511
X068011
X06708Y018817
Y01975
X066261Y020264
X065011Y018764
X06375Y01775
X0635Y018
X06325Y01825
X063Y0185
X069811Y020364
X069511Y021264
X073011Y019791
X072011Y018514
X071511Y017514
X071261Y017264
X072011Y016998
X073661Y017086
X074161
X074661
X075161
X0565Y019494
X05605
X055356Y019956
X054956Y018856
X053104Y020258
X05Y0204
X04955
X04975Y0245
X05Y02475
X05075Y02425
X051Y024
X05075Y02375
X05176Y02548
X053158
X053355Y027334
X051583
X050963Y028465
X050431
X049664
X049132
X048433Y029578
X048138Y029874
X048433Y030169
X047843
Y029578
X047548Y029874
X04725Y02625
X047244Y02525
X047835
X048032Y02505
X048228Y024822
X0483Y0255
X05675Y02425
X057Y024
X05675Y02375
X056505Y021021
X056055
X056504Y027826
X056524Y02822
X056544Y028614
X05775Y02945
X058433Y030031
X05867Y029805
X058433Y030622
X059077Y030537
X059477
X060599Y030582
X06054Y030287
X060933
X061721
X061229Y029588
Y029007
X060648
X059752Y028909
X0594Y028712
X058493Y028279
X05995Y02705
X060176Y02675
X06055Y027
X061229Y028427
X061809Y029007
X062243Y031737
X062774Y031737
X062508Y032374
X053835Y031993
Y031593
X0467Y02875
X0463
X04575Y028
X0455Y02755
Y0265
X04575Y02625
Y02575
Y02525
X0447Y0255
Y02575
Y026
X044488Y023841
X044308Y02345
X044078
X043717Y02345
X043487
X043127
X042897
X042536
X042306
X042126Y023841
X042717
X043307
X043898Y023841
X044668Y02345
X044898
X045079Y023841
X045669
X046654Y023841
X046Y0225
Y02175
X0455Y02025
X046Y0185
X04575Y018
X0455Y0175
X045Y01725
X04525Y01825
X04625Y01775
X041732Y0225
X04123Y025043
X040923
X040565Y02553
Y026144
X040581Y026656
X04025Y0275
X04025Y0279
X03945Y0271
Y02675
X039
X038894Y02575
X03825Y02725
Y02775
X03775
Y02725
X038Y027
X0369Y02645
X03555Y02655
Y026875
Y0272
X03515
Y026875
Y02655
X03475
Y026875
Y0272
X0361Y028
X03575Y03075
X040821Y029317
X040994Y028894
X045Y029
Y0285
X04225Y026
Y0255
X036963Y023551
X036963Y023157
X0365Y0231
Y02275
X03575
Y0231
X0375Y0225
X0385Y0213
Y0203
X03675Y01925
X03425Y01875
X03375Y01925
X02875Y02675
X02805Y0272
X0275Y0295
X024276Y02575
X02345Y02535
X02135Y022
X02175Y021174
X01175Y02525
X005776Y026324
X004Y026
Y0255
X002276Y02575
X00145Y02535
X00145Y02235
X002276Y02275
X00175Y01725
X001565Y0331
X001335
X002Y03375
X0025
X0015Y0345
Y035
X001654Y036673
Y038327
X00245Y04
X00245Y0415
X00055
X00055Y04
X004876Y041
X0061Y04045
X007Y0394
X01025Y0395
X012421Y03925
X0111Y04275
X0091
X00945Y04198
X008969Y043825
Y046581
X00125Y04775
X004565Y0375
X00525
X0049Y037
X005253Y035197
X00525Y0348
X004006Y034606
X00625Y03425
X0065Y034
X0079Y034803
X0079Y0359
X0198Y037385
Y037615
X0203Y037115
Y036885
X0208Y036615
Y036385
X0213Y036115
Y035885
X0242
Y036115
X023465Y040635
Y040865
X023Y0435
X02375Y04675
X025748Y046325
X02752Y045813
X027323Y045537
X027717
X027697Y043963
X027323
X029169Y0445
X029488Y044789
X029833Y044799
X029803Y045144
X030459Y044159
X029882Y046818
X029488Y046818
X028819Y046325
X026315Y039615
Y039385
X0207Y039885
Y040115
X036Y036
X03625Y03575
X0365Y0355
X03675Y03525
X037Y035
X03725Y03475
X0375Y0345
X03775Y03425
X038Y034
X03825Y03375
X038219Y0454
X037719
Y0464
Y0469
X037219
X036719
Y0474
X036219
Y0469
Y0464
X036719
X037219
Y0459
X036719
X036219Y0454
X037219Y0474
Y0479
X038219
Y0469
Y0464
X038719
Y0459
X039219
Y0464
X039719
X040219
Y0469
Y0474
X039719Y0479
X038719Y0474
Y0469
X039719Y0454
X040219
X040719Y0459
X041219
Y0464
X041719
X042219
Y0469
X041719Y0474
X041219Y0479
X042719
X043219Y0474
X043719Y0469
Y0464
X044219
X044719
X045219
Y0459
X044719
X044219Y0454
X043719
X043219Y0459
X042719
X042219Y0454
X041719
X040719Y0464
X045219Y0469
X045719
X046219
Y0464
X045719
Y0454
X046219
X046719Y0459
Y0464
Y0469
X046219Y0474
X045719Y0479
X044719Y0474
X044219Y0479
X047219
Y0469
X047719
Y0464
X048219
X048719
X049219
Y0469
X048719
X048219
X047719Y0474
X049219
X049719Y0469
X050219
X050719
Y0464
X051219
Y0469
X051719
X052219
Y0464
X051719
Y0454
X052219
X052719Y0459
X053219
Y0469
X052719
X052219Y0479
X051719
X050219
X050719Y0474
Y0459
X051219
X050219Y0454
X049719
X049219Y0459
X048719
X048219Y0454
X047719
X047219Y0459
Y0464
X049719
X050219
X048719Y0479
X053219
X053719Y0474
X054219
Y0464
X053719
Y0454
X054219
X054719Y0459
X055219
X055719
Y0464
Y0474
X055219Y0479
X054719
Y0469
X055219
X055719Y0454
X055469Y04365
X056004Y034372
X056004Y03384
X056004Y033387
X056004Y032856
X05815Y03295
Y0334
Y03385
Y0343
X059259Y034177
Y034571
X060441Y034421
X0601Y03355
Y03315
X061632Y033683
X062223Y033683
X062508Y033122
X060933Y035897
X065Y03565
X073Y03525
X07225Y0345
X074409Y033741
X075647Y03425
X076125
X074376Y036726
X085256Y03925
X08635Y04125
X08635Y0417
X085181Y043825
X092496Y038327
X0925Y0485
X0905
X09085Y04927
X089213Y0494
Y0504
X0885Y04875
X080213Y0494
Y0504
X0695Y051
X068766Y0525
Y053185
X06825Y053
X06125Y051
Y0505
X055219Y0499
X054719
X054219
Y0504
Y0494
Y0489
Y0484
X053719
X053219
Y0489
X052719
X052219
Y0484
X051719
Y0489
X051219
X050719
Y0484
X050219
X049719
Y0489
X049219
Y0484
X048719
X048219
X047719
X047219
Y0489
X047719
Y0494
X047219Y0499
X048719
X049219Y0494
X048719Y0489
X048219
X050219
Y0499
X050719Y0494
X051719Y0499
X052219Y0494
X053219
Y0499
X053719Y0494
X054719
Y0489
X055219
Y0484
X055719
Y0489
Y0494
X055219
X051219Y0484
X046719
Y0489
X046219
Y0494
X045719Y0499
Y0489
X046219Y0484
X044719
X044219Y0489
X044719Y0494
X044219Y0499
X042719
X043219Y0494
X042719Y0489
X043219Y0484
X041719
X041219Y0489
X041719Y0494
X041219Y0499
X039719
X040219Y0494
X039719Y0489
X040219Y0484
X038719
X038219Y0489
X038719Y0494
X038219Y0499
X036719
Y0494
X037219
Y0489
X036719
X036219
Y0494
Y0499
Y0484
X036469Y05215
X036969
X037469
X037969
X038469
X038969
X039469
X039969
X041669Y05235
X041969Y05215
X035969
X027339Y049798
X026739
X026139
X025539
X02275Y0494
Y0504
X01375
Y0494
X005494Y04965
X0022Y04969
X001635Y050265
X00825Y05275
T03
X089614Y014141
X08825Y0255
T04
X045704Y002959
X046019
X046333
X046176Y003234
X046491
X046806
X047121
X046963Y002959
X045546Y003234
X047278Y002959
X047593
X047751Y003234
T05
X001776Y00675
Y00725
X002276
X002776
Y00675
X002276
X003276
X003776
Y00725
X003276
X004276
Y00675
X004776
X005276
Y00725
X004776
X005776
X006276
Y00675
X005776
X006776
Y00725
X007276
X007776
Y00675
X007276
X008276
Y00725
X008776
Y00675
X023776
Y00725
X024276
X024776
X025276
Y00675
X024776
X024276
X025776Y00675
X026276
Y00725
X026776
X027276
X027776
X028276
X028776
Y00675
X028276
X027776Y00675
X027276
X026776
X025776Y00725
X025776Y00975
X026276
X026276Y01025
X025776
X025276Y01025
X024776Y01025
X024776Y00975
X025276
X024276
X023776
X023776Y01025
X024276Y01025
X026776
X027276Y01025
X027276Y00975
X027776
X028276
Y01025
X028776
Y00975
X029276
Y01025
X029776Y01025
X029776Y00975
X030276Y00975
X030276Y01025
X030776
X031276
Y00975
X030776
X030776Y00725
X031276
X031276Y00675
X030776Y00675
X030276Y00675
Y00725
X029776Y00725
X029776Y00675
X029276Y00675
Y00725
X027776Y01025
X026776Y00975
X031776
Y01025
X032276Y01025
X032276Y00975
X032776Y00975
X033276Y00975
X033276Y01025
X032776
X032776Y00725
X033276Y00725
X033276Y00675
X032776Y00675
X032276Y00675
X032276Y00725
X031776
Y00675
X031776Y02125
X031776Y02175
X032276
X032276Y02125
X032776Y02125
Y02175
X033276Y02175
X033276Y02125
X033276Y02425
Y02475
X032776Y02475
Y02425
X032276Y02425
Y02475
X031776Y02475
Y02425
X031276
Y02475
X030776
Y02425
X030276Y02425
Y02475
X029776Y02475
Y02425
X029276
Y02475
X028776Y02475
Y02425
X028276
Y02475
X027776Y02475
X027276Y02475
X027276Y02425
X026776Y02425
X026776Y02475
X026276Y02475
Y02425
X025776
Y02475
X025276Y02475
X024776Y02475
X024776Y02425
X025276
X024276Y02425
Y02475
X023776Y02475
Y02425
Y02175
Y02125
X024276Y02125
Y02175
X024776
Y02125
X025276
X025276Y02175
X025776
Y02125
X026276
Y02175
X026776Y02175
X027276Y02175
X027276Y02125
X026776
X027776Y02125
Y02175
X028276
Y02125
X028776
Y02175
X029276
X029776
X029776Y02125
X029276
X030276Y02125
Y02175
X030776Y02175
Y02125
X031276
Y02175
X027776Y02425
X011276Y02425
X011276Y02475
X010776Y02475
Y02425
X010276Y02425
X010276Y02475
X009776
X009776Y02425
X009276
Y02475
X008776
Y02425
X008276Y02425
X007776Y02425
X007776Y02475
X007276Y02475
Y02425
X006776
Y02475
X006276
Y02425
X005776Y02425
X005776Y02475
X005276Y02475
X004776Y02475
X004776Y02425
X005276
X004276
Y02475
X003776
Y02425
X003276Y02425
X002776Y02425
X002276
X002276Y02475
X002776Y02475
X003276Y02475
X001776Y02475
Y02425
X001776Y02175
Y02125
X002276Y02125
X002276Y02175
X002776Y02175
Y02125
X003276Y02125
X003276Y02175
X003776Y02175
Y02125
X004276
Y02175
X004776
X005276Y02175
Y02125
X005776Y02125
X005776Y02175
X006276Y02175
Y02125
X006776
X006776Y02175
X007276Y02175
Y02125
X007776
Y02175
X008276
Y02125
X008776Y02125
Y02175
X009276
X009276Y02125
X009776
Y02175
X010276
X010776
Y02125
X010276Y02125
X011276
Y02175
X008276Y02475
X004776Y02125
T06
X001207Y028713
X001207Y0295
X001207Y030287
X003963Y033043
X00475Y033043
X005537Y033043
X00095Y0494
Y05058
T07
X062Y0015
X063
X064
X065
X066
X067
X069261Y009264
X070261
X08315Y00925
X08415
X09225
Y01025
Y01125
Y00825
Y00725
Y00625
Y00525
Y00425
X0655Y0225
X0645
X0635
Y024
X0645
X0655
X0625
Y0225
X0105Y037
X0095
X0085
X0075
X082282Y0494
X083282
X084282
X085282
X086282
X087282
Y0504
X086282
X085282
X084282
X083282
X082282
X078282
Y0494
X077282
X076282
X075282
X074282
X073282
Y0504
X074282
X075282
X076282
X077282
X020819
Y0494
X019819
X018819
X017819
X016819
Y0504
X017819
X018819
X019819
X015819
Y0494
X011819
X010819
X009819
X008819
X007819
X006819
Y0504
X007819
X008819
X009819
X010819
X011819
T08
X00115Y007
X009402
X02315Y007
X02315Y01
X033902
X033902Y007
X033902Y0215
X033902Y0245
X02315
X02315Y0215
X011902Y0215
X011902Y0245
X00115
Y0215
T09
X044837Y001758
Y002939
X048459
Y001758
T10
X002388Y027138
X007112Y031862
T11
X007Y0429
Y047506
X08715
Y0429
T12
X05862Y048687
X033813
M30
